<?xml version="1.0" encoding="utf-8"?>
<!-- Generator: Adobe Illustrator 24.1.1, SVG Export Plug-In . SVG Version: 6.00 Build 0)  -->
<svg version="1.1" id="Layer_1" xmlns="http://www.w3.org/2000/svg" xmlns:xlink="http://www.w3.org/1999/xlink" x="0px" y="0px"
	 viewBox="0 0 380 380" style="enable-background:new 0 0 380 380;" xml:space="preserve">
<style type="text/css">
	.st0{fill:#E2BA50;}
	.st1{fill:#22585B;}
</style>
<rect class="st0" width="380" height="380"/>
<path class="st1" d="M292.8,85c3.3,3.3,3.3,8.6,0,11.9c0,0,0,0,0,0l-58.5,58.5l-11.9-11.9L280.9,85C284.2,81.7,289.5,81.7,292.8,85
	C292.8,85,292.8,85,292.8,85z M230.3,243.6c-16.7,17.8-36.4,30-61.4,28.8c-15.6-0.3-31-4.1-45-11.1c-21.6-11.8-36.3-33.2-39.7-57.6
	c-3.1-24.3,6.3-52.2,26.4-66.6c18.1-13,44.2-25.4,67.1-20.2c6.5,1.2,11.8,5.7,14.1,11.9c1,5.6,0.8,11.4-0.8,17
	c-11.5,6.4-22.3,18.4-24.3,39.5c-0.4,5.2-2.7,10-6.6,13.4c-5.1,3.1-7.3,9.3-5.4,15c1.8,5.6,7,9.3,12.9,9.2h0.8
	c35.1-2,54.1-24.4,63.2-39.4C254.1,195.5,246.1,226.8,230.3,243.6z M128.7,218.6c0-6.2-5-11.2-11.2-11.2c-6.2,0-11.2,5-11.2,11.2
	c0,6.2,5,11.2,11.2,11.2c0,0,0,0,0,0C123.7,229.8,128.7,224.8,128.7,218.6C128.7,218.6,128.7,218.6,128.7,218.6z M128.7,181.1
	c0-6.2-5-11.2-11.2-11.2c-6.2,0-11.2,5-11.2,11.2c0,6.2,5,11.2,11.2,11.2c0,0,0,0,0,0C123.7,192.3,128.7,187.3,128.7,181.1
	C128.7,181.2,128.7,181.2,128.7,181.1z M143.3,157.7c6.2,0,11.2-5,11.2-11.2c0-6.2-5-11.2-11.2-11.2s-11.2,5-11.2,11.2c0,0,0,0,0,0
	C132.1,152.7,137.1,157.7,143.3,157.7C143.2,157.7,143.3,157.7,143.3,157.7z M162.3,245.2c0-6.2-5-11.2-11.1-11.2
	c-6.2,0-11.2,5-11.2,11.1c0,6.2,5,11.2,11.1,11.2c0,0,0,0,0,0c6.2-0.1,11.1-5.1,11-11.3c0,0,0,0,0,0L162.3,245.2z M208,243.1
	c0-6.2-5-11.2-11.2-11.2c-6.2,0-11.2,5-11.2,11.2c0,6.2,5,11.2,11.2,11.2c0,0,0,0,0,0c6.2-0.1,11.1-5.1,11-11.3c0,0,0,0,0-0.1
	L208,243.1z M180.1,186.4c-0.6,9.1-5.1,17.5-12.3,23.1c43.8-2.5,57.9-44.1,57.9-44.1L213,152.8C213,152.8,183.1,153.6,180.1,186.4z"
	/>
</svg>
