<?xml version="1.0" encoding="utf-8"?>
<!-- Generator: Adobe Illustrator 24.1.1, SVG Export Plug-In . SVG Version: 6.00 Build 0)  -->
<svg version="1.1" id="Layer_1" xmlns="http://www.w3.org/2000/svg" xmlns:xlink="http://www.w3.org/1999/xlink" x="0px" y="0px"
	 viewBox="0 0 380.5 380" style="enable-background:new 0 0 380.5 380;" xml:space="preserve">
<style type="text/css">
	.st0{fill:#E2BA50;}
	.st1{fill:#22585B;}
</style>
<rect class="st0" width="380" height="380"/>
<g>
	<path class="st1" d="M284.4,105c1.5-2.6,2-5.7,1.2-8.6c-0.7-2.9-2.6-5.4-5.2-7c-5.3-3.3-12.3-1.6-15.6,3.8l-3.8,6.5l19.5,11.6
		L284.4,105z"/>
	<polygon class="st1" points="276.6,118 257.2,106.4 229.8,152.4 256.1,152.4 	"/>
	<path class="st1" d="M148.7,152.4h17.7c5.6-6.2,8.7-14.3,8.7-22.7v-18.7c-13.5,1.5-24.9,11-28.7,24.1c1.5,4.3,2.3,8.9,2.3,13.5
		V152.4z"/>
	<path class="st1" d="M141.1,152.4v-3.8c0-17.3-13-31.9-30.2-33.8v18.7c0,6.7,2,13.3,5.8,18.9H141.1z"/>
	<path class="st1" d="M288.2,159.9H92.3c-2.2,0-4,1.8-4,4v7.3c0,56.3,45.7,102,102,102s102-45.7,102-102V164
		C292.3,161.8,290.4,159.9,288.2,159.9z M231.8,220.8c0,6.3-5.1,11.3-11.3,11.3h-15.1v15.1c0,6.3-5.1,11.3-11.3,11.3h-7.6
		c-6.3,0-11.3-5.1-11.3-11.3v-15.1H160c-6.3,0-11.3-5.1-11.3-11.3v-7.6c0-6.3,5.1-11.3,11.3-11.3h15.1v-15.1
		c0-6.3,5.1-11.3,11.3-11.3h7.6c6.3,0,11.3,5.1,11.3,11.3V202h15.1c6.3,0,11.3,5.1,11.3,11.3V220.8z"/>
	<path class="st1" d="M160,276.6v11.8c0,2.1,1.7,3.8,3.8,3.8h52.9c2.1,0,3.8-1.7,3.8-3.8v-11.8C200.7,282.3,179.8,282.3,160,276.6z"
		/>
	<path class="st1" d="M220.5,209.5h-18.9c-2.1,0-3.8-1.7-3.8-3.8v-18.9c0-2.1-1.7-3.8-3.8-3.8h-7.6c-2.1,0-3.8,1.7-3.8,3.8v18.9
		c0,2.1-1.7,3.8-3.8,3.8H160c-2.1,0-3.8,1.7-3.8,3.8v7.6c0,2.1,1.7,3.8,3.8,3.8h18.9c2.1,0,3.8,1.7,3.8,3.8v18.9
		c0,2.1,1.7,3.8,3.8,3.8h7.6c2.1,0,3.8-1.7,3.8-3.8v-18.9c0-2.1,1.7-3.8,3.8-3.8h18.9c2.1,0,3.8-1.7,3.8-3.8v-7.6
		C224.3,211.2,222.6,209.5,220.5,209.5z"/>
</g>
</svg>
