<?xml version="1.0" encoding="utf-8"?>
<!-- Generator: Adobe Illustrator 24.1.1, SVG Export Plug-In . SVG Version: 6.00 Build 0)  -->
<svg version="1.1" id="Layer_1" xmlns="http://www.w3.org/2000/svg" xmlns:xlink="http://www.w3.org/1999/xlink" x="0px" y="0px"
	 viewBox="0 0 380 380" style="enable-background:new 0 0 380 380;" xml:space="preserve">
<style type="text/css">
	.st0{fill:#E2BA50;}
	.st1{fill:#22585B;}
</style>
<rect class="st0" width="380" height="380"/>
<g>
	<path class="st1" d="M116.5,162.9c10.5-4.5,15.7-16.1,12.7-26.7c-1.9,0.7-4,1.4-6.1,1.9c-11.3,3-21.2,2.4-22.5-1.3
		c2.8,2.6,12,1.4,21.9-2.9c7.5-3.3,13.4-7.5,15.8-11c1.1-1.6,1.5-3,1-4.2c-1.6-3.6-11.7-2.7-22.6,2c-0.4,0.2-0.7,0.3-1.1,0.5
		c-5.3-2.1-11.4-2.1-17.1,0.3c-11.4,5-16.6,18.2-11.7,29.6C91.8,162.6,105.1,167.9,116.5,162.9z"/>
	<path class="st1" d="M103.4,218.3c-3.1,0-5.9-1.3-7.9-3.7l-25-30.1c0.7,24.3,7.4,42.4,17.8,65.8c0.4,1,1,1.8,1.6,2.6
		c0.7,1.4,1.7,2.7,3,3.9c8.7,7.6,19.5,21.5,19.6,30l-32.2,34.1c-4.7,5-4.5,12.9,0.5,17.7c2.4,2.3,5.5,3.4,8.6,3.4
		c3.3,0,6.6-1.3,9.1-3.9l34.8-37c1.4-1.5,2.4-3.2,2.9-5.2c3.4-12.1-1-24.4-7.2-34.6c14.1,6.5,20,15.7,21.7,18.8l7.2,51.4
		c0.9,6.2,6.2,10.8,12.4,10.8c0.6,0,1.2,0,1.8-0.1c6.8-1,11.6-7.3,10.6-14.1l-7.4-53.3c-0.1-1-0.4-1.9-0.7-2.8
		c-0.4-1.1-10.3-25.3-43.7-36.8c-5.3-10-7.4-18.1-7.4-25.6l-15.4,7.7C106.6,217.9,105,218.3,103.4,218.3z"/>
	<path class="st1" d="M130.7,210.6l2.2,4.5c0,0,2.2-5,6.5-13.4l-5.7,2.9C131.7,208.4,130.7,210.6,130.7,210.6z"/>
	<path class="st1" d="M72.1,182.9l25.2,30.1c1.6,1.9,3.8,2.9,6.1,2.9c1.2,0,2.4-0.3,3.6-0.8l36.5-18.2c4-2,5.6-6.8,3.6-10.7
		c-2-4-6.8-5.6-10.7-3.6L105.6,198l-11.3-13.6l4,1.1l7.9,9.5l29.1-14.5c1.4-0.7,3-1.1,4.6-1.1c3.9,0,7.5,2.2,9.2,5.7
		c0.1,0.1,0.1,0.2,0.2,0.3l2-1.8c2,2.5,5.1,4.2,8.6,4.2c6.1,0,11-4.9,11-11c0-3.2-1.4-6.1-3.6-8.2c1.3-2.2,1.4-5,0.3-7.3
		c38.2-68.3,92-109.9,103.7-118.5c-3.3,12.2-15,60.8,0.5,79.8c4.6,5.6,11.2,8.2,19.6,7.5c7.8-0.6,12.8,1.1,15,5
		c8.6,16-28.1,62.9-28.5,63.3c0,0,0,0,0,0.1c-2,0.4-8,12-8.1,13.3c0,0-6.9,2.8-9.2,5.4c4-0.1,6.3,2.3,6.3,2.3s-2.1,6.5-2.5,9.8
		c-0.3,3.3-6.6,0.1-10.3,6.6c4.6,0.1,8.1,1,8.7,1.7l-0.1,15.4c0,0-0.2,2.8-0.8,4.7c-0.6,2-11.8,5.5-10.6,11.6
		c3.7-3.3,7.6-4.3,10.6-3c3.7,1.6,6.2,7.2,7.2,10.7c3.3-9.6-1-12.9-0.2-15.1c2.5-6.5,8.1-16.5,9.6-17.4c1.6-0.9,6.4-4,10.9,0
		c-0.4-10.4-4.7-11.2-4.6-15.5c0.2-3.8,0.1-17.6-2-21.8c-1.5-3-2.4-6-3.4-7.6l0,0c1.6-2,37.9-48.4,28.7-65.5
		c-2.5-4.7-8.2-6.8-16.9-6.1c-7.7,0.6-13.7-1.6-17.9-6.7c-16.7-20.5,0.5-80.1,0.7-80.7c0.1-0.4,0-0.8-0.4-1.1
		c-0.3-0.2-0.8-0.3-1.2,0c-0.1,0.1-1.4,0.9-3.6,2.6l-1.4-1.9c0.6-0.4,1.2-0.8,1.7-1.2l-0.4-1.3c-46.5,29.7-84.1,80.2-108.3,119
		c-1.9,0-3.8,0.7-5.3,2.1l-22.9,20.7l-5.6-5.5c-1.6-1.5-3.7-2.3-5.7-2.3c-0.1,0-0.1,0-0.2,0c-12.6-0.4-28.1-1.8-40.6-2.2
		c-1.2-0.1-2.4,0.1-3.7,0.5c-1.1,0.3-2.2,0.8-3.1,1.6c-0.3,0.2-0.5,0.4-0.7,0.7c-0.9,0.9-1.5,1.9-1.8,3.2c-0.2,0.7-0.3,1.3-0.3,2
		C70.2,179.4,70.8,181.4,72.1,182.9z M280.2,208.6c-0.2,1-1.2,1.6-2.2,1.4s-1.6-1.2-1.4-2.2s1.2-1.6,2.2-1.4
		S280.4,207.6,280.2,208.6z M176.4,142.9l-2.1-1.7c9.2-13.9,19.7-28.5,31.4-42.8l2.2,1.8C197.4,112.7,186.6,126.8,176.4,142.9z
		 M265.6,41.5l1.5,2C257,51,233.9,69.8,209.3,98.6l-2.3-1.8C224.3,76.2,243.9,56.5,265.6,41.5z M173.1,142.9l2.1,1.7
		c-3,4.8-5.9,9.7-8.8,14.8l-0.1-0.1c-0.7-0.8-1.5-1.4-2.4-1.8C166.8,152.9,169.9,147.9,173.1,142.9z"/>
</g>
</svg>
