<?xml version="1.0" encoding="utf-8"?>
<!-- Generator: Adobe Illustrator 24.1.0, SVG Export Plug-In . SVG Version: 6.00 Build 0)  -->
<svg version="1.1" id="Layer_1" xmlns="http://www.w3.org/2000/svg" xmlns:xlink="http://www.w3.org/1999/xlink" x="0px" y="0px"
	 viewBox="0 0 793.1 550.6" style="enable-background:new 0 0 793.1 550.6;" xml:space="preserve">
<style type="text/css">
	.st0{fill:#F6F8FA;}
	.st1{fill:none;stroke:#396265;stroke-miterlimit:10;}
	.st2{fill:none;stroke:#CE594B;stroke-width:2;stroke-miterlimit:10;}
	.st3{fill:none;}
	.st4{fill:#24585B;}
	.st5{font-family:'Futura-Medium';}
	.st6{font-size:15px;}
	.st7{font-family:'MyriadPro-Regular';}
	.st8{fill:none;stroke:#E2BA50;stroke-width:2;stroke-miterlimit:10;}
	.st9{fill:#5F696B;}
	.st10{font-family:'Futura-MediumItalic';}
	.st11{font-size:12px;}
	.st12{fill:none;stroke:#E2BA50;stroke-miterlimit:10;stroke-dasharray:6;}
</style>
<rect class="st0" width="793.1" height="550.6"/>
<g>
	<g>
		<path class="st1" d="M361.6,223.2"/>
	</g>
</g>
<image style="overflow:visible;" width="526" height="307" xlink:href="2A8BC0B02A16D000.png"  transform="matrix(0.7211 0 0 0.7211 196.0316 94.6353)">
</image>
<rect x="315.3" y="224.6" class="st0" width="42.4" height="18.5"/>
<rect x="382.8" y="238" class="st0" width="42.4" height="18.5"/>
<rect x="397.7" y="207.5" class="st0" width="42.4" height="18.5"/>
<image style="overflow:visible;" width="700" height="283" xlink:href="2A8BC0B02A16D001.png"  transform="matrix(6.185194e-02 0 0 6.185194e-02 327.043 218.2097)">
</image>
<image style="overflow:visible;" width="700" height="283" xlink:href="2A8BC0B02A16D007.png"  transform="matrix(6.185194e-02 0 0 6.185194e-02 364.5875 230.2139)">
</image>
<image style="overflow:visible;" width="700" height="283" xlink:href="2A8BC0B02A16D002.png"  transform="matrix(6.185194e-02 0 0 6.185194e-02 388.2646 211.7984)">
</image>
<image style="overflow:visible;" width="363" height="239" xlink:href="2A8BC0B02A16D003.png"  transform="matrix(0.1498 0 0 0.1498 239.0128 219.3692)">
</image>
<image style="overflow:visible;" width="363" height="239" xlink:href="2A8BC0B02A16D00E.png"  transform="matrix(0.1178 0 0 0.1178 273.4678 163.1318)">
</image>
<image style="overflow:visible;" width="642" height="369" xlink:href="2A8BC0B02A16D00F.png"  transform="matrix(8.025174e-02 0 0 8.025174e-02 441.3219 156.2935)">
</image>
<image style="overflow:visible;" width="642" height="369" xlink:href="2A8BC0B02A16D004.png"  transform="matrix(4.012587e-02 0 0 4.012587e-02 490.3851 169.6272)">
</image>
<image style="overflow:visible;" width="642" height="369" xlink:href="2A8BC0B02A16D005.png"  transform="matrix(4.012587e-02 0 0 4.012587e-02 515.1281 169.6697)">
</image>
<line class="st2" x1="341.3" y1="218.3" x2="358.6" y2="235.6"/>
<line class="st2" x1="358.9" y1="218.6" x2="341.8" y2="235.7"/>
<line class="st2" x1="380.1" y1="230.2" x2="397.3" y2="247.5"/>
<line class="st2" x1="397.7" y1="230.5" x2="380.5" y2="247.6"/>
<line class="st2" x1="403.9" y1="212.8" x2="421.2" y2="230.2"/>
<line class="st2" x1="421.5" y1="213.1" x2="404.4" y2="230.3"/>
<rect x="317.8" y="315.5" class="st3" width="168.3" height="13.6"/>
<text transform="matrix(1 0 0 1 317.8315 327.8332)" class="st4 st5 st6">Remove non-native fish</text>
<rect x="173.9" y="116" class="st3" width="86.6" height="52.4"/>
<text transform="matrix(1 0 0 1 173.8774 126.6835)"><tspan x="0" y="0" class="st4 st7 st6">Frog  </tspan><tspan x="0" y="18" class="st4 st7 st6">population </tspan><tspan x="0" y="36" class="st4 st7 st6">recovers</tspan></text>
<rect x="556.2" y="134.1" class="st3" width="98.6" height="81.2"/>
<text transform="matrix(1 0 0 1 556.1689 146.52)"><tspan x="0" y="0" class="st4 st5 st6">Invertebrate </tspan><tspan x="0" y="18" class="st4 st5 st6">population </tspan><tspan x="0" y="36" class="st4 st5 st6">recovers  </tspan><tspan x="0" y="54" class="st4 st5 st6">(frog food)</tspan></text>
<path class="st2" d="M302.5,324c-20.4,2.7-41.1,3.2-61.6,1.5c-8.6-0.7-17.6-2-24-7c-5.4-4.2-8.1-10.4-10-16.6
	c-12.6-40.2,0.7-82.7,1.1-124.4"/>
<path class="st8" d="M487.9,321.7c19.2,0.9,38.5,0.8,57.7-0.4c9.5-0.6,19.6-1.7,27.3-7.2c7.3-5.2,11.6-13.9,13.5-22.7
	c1.8-8.8,1.4-17.9,1-26.9c-0.8-17.5-1.6-35-2.4-52.5"/>
<line class="st2" x1="207.9" y1="177.6" x2="198.1" y2="188"/>
<line class="st2" x1="215.7" y1="186.8" x2="207.9" y2="177.6"/>
<line class="st8" x1="585" y1="211.8" x2="577.5" y2="219.1"/>
<line class="st8" x1="595" y1="217.9" x2="585" y2="211.8"/>
<line class="st2" x1="208" y1="102" x2="195.5" y2="108.9"/>
<line class="st2" x1="189.9" y1="97" x2="196.3" y2="109.4"/>
<path class="st2" d="M196.2,107.1c1.7-15.6,13.6-28.5,27.5-35.6c13.9-7.1,29.8-9.3,45.3-11.1c68.6-8,137.8-10.6,206.7-7.7
	c25.8,1.1,52.4,3.1,75.7,14.2s43,33.5,43.7,59.3"/>
<rect x="307" y="356.9" class="st3" width="190" height="109.1"/>
<text transform="matrix(1 0 0 1 306.9675 366.8433)"><tspan x="0" y="0" class="st9 st10 st11">Trout are predators of tadpoles </tspan><tspan x="0" y="14.4" class="st9 st10 st11">and small frogs, and compete for </tspan><tspan x="0" y="28.8" class="st9 st10 st11">the same food source ­— insects. </tspan><tspan x="0" y="43.2" class="st9 st10 st11">The trout disrupt the habitat by </tspan><tspan x="0" y="57.6" class="st9 st10 st11">separating frog populations from </tspan><tspan x="0" y="72" class="st9 st10 st11">one another and edging them out </tspan><tspan x="0" y="86.4" class="st9 st10 st11">to small, low-quality areas.</tspan></text>
<rect x="39.7" y="105.4" class="st3" width="106.1" height="91.8"/>
<text transform="matrix(1 0 0 1 39.6837 115.3071)"><tspan x="0" y="0" class="st9 st10 st11">After non-native </tspan><tspan x="0" y="14.4" class="st9 st10 st11">fish were removed </tspan><tspan x="0" y="28.8" class="st9 st10 st11">from lakes, the </tspan><tspan x="0" y="43.2" class="st9 st10 st11">frog is starting to </tspan><tspan x="0" y="57.6" class="st9 st10 st11">see a population </tspan><tspan x="0" y="72" class="st9 st10 st11">regrowth</tspan></text>
<rect x="672.1" y="126" class="st3" width="96.8" height="102.4"/>
<text transform="matrix(1 0 0 1 672.1414 135.9165)"><tspan x="0" y="0" class="st9 st10 st11">Invertebrate </tspan><tspan x="0" y="14.4" class="st9 st10 st11">populations </tspan><tspan x="0" y="28.8" class="st9 st10 st11">increase, which </tspan><tspan x="0" y="43.2" class="st9 st10 st11">provides a vital </tspan><tspan x="0" y="57.6" class="st9 st10 st11">food source to </tspan><tspan x="0" y="72" class="st9 st10 st11">sustain frog </tspan><tspan x="0" y="86.4" class="st9 st10 st11">populations</tspan></text>
<rect x="19.9" y="94.6" class="st12" width="140.7" height="112.9"/>
<rect x="654.8" y="110.6" class="st12" width="118.4" height="132.5"/>
<rect x="292.9" y="348.8" class="st12" width="213.9" height="117.2"/>
</svg>
