<?xml version="1.0" encoding="utf-8"?>
<!-- Generator: Adobe Illustrator 24.1.0, SVG Export Plug-In . SVG Version: 6.00 Build 0)  -->
<svg version="1.1" id="Layer_1" xmlns="http://www.w3.org/2000/svg" xmlns:xlink="http://www.w3.org/1999/xlink" x="0px" y="0px"
	 viewBox="0 0 793.1 670.7" style="enable-background:new 0 0 793.1 670.7;" xml:space="preserve">
<style type="text/css">
	.st0{fill:#F6F8FA;}
	.st1{fill:none;}
	.st2{fill:#5F696B;}
	.st3{font-family:'Futura-Medium';}
	.st4{font-size:16px;}
	.st5{fill:#24585B;}
	.st6{fill:#CE594B;}
	.st7{fill:none;stroke:#24585B;stroke-miterlimit:10;}
	.st8{stroke:#24585B;}
	.st9{font-size:10px;}
	.st10{fill:none;stroke:#CE594B;stroke-width:2;stroke-linecap:round;stroke-miterlimit:10;}
	.st11{opacity:0.5;fill:#E2BA50;}
	.st12{font-size:23px;}
</style>
<rect class="st0" width="793.1" height="670.7"/>
<rect x="280.3" y="268.4" class="st1" width="232.4" height="72.6"/>
<text transform="matrix(1 0 0 1 280.3268 281.5556)"><tspan x="0" y="0" class="st2 st3 st4">Yellow-Legged Frog population </tspan><tspan x="0" y="19.2" class="st2 st3 st4">is</tspan><tspan x="10.5" y="19.2" class="st5 st3 st4"> </tspan><tspan x="15.4" y="19.2" class="st6 st3 st4">growing at a rate of 11%</tspan><tspan x="201.1" y="19.2" class="st5 st3 st4"> </tspan><tspan x="206.1" y="19.2" class="st2 st3 st4">per </tspan><tspan x="0" y="38.4" class="st2 st3 st4">year after restoration efforts.</tspan></text>
<g>
	<g>
		<line class="st7" x1="311.7" y1="552" x2="462.2" y2="552"/>
		<g>
			<g>
				<line class="st7" x1="311.7" y1="552" x2="311.7" y2="547.7"/>
				<line class="st7" x1="320.1" y1="552" x2="320.1" y2="547.7"/>
				<line class="st7" x1="328.4" y1="552" x2="328.4" y2="547.7"/>
				<line class="st7" x1="336.8" y1="552" x2="336.8" y2="547.7"/>
				<line class="st7" x1="345.1" y1="552" x2="345.1" y2="547.7"/>
				<line class="st7" x1="353.5" y1="552" x2="353.5" y2="547.7"/>
				<line class="st7" x1="361.9" y1="552" x2="361.9" y2="547.7"/>
				<line class="st7" x1="370.2" y1="552" x2="370.2" y2="547.7"/>
				<line class="st7" x1="378.6" y1="552" x2="378.6" y2="547.7"/>
				<line class="st7" x1="386.9" y1="552" x2="386.9" y2="547.7"/>
				<line class="st7" x1="395.3" y1="552" x2="395.3" y2="547.7"/>
				<line class="st7" x1="403.7" y1="552" x2="403.7" y2="547.7"/>
				<line class="st7" x1="412" y1="552" x2="412" y2="547.7"/>
				<line class="st7" x1="420.4" y1="552" x2="420.4" y2="547.7"/>
				<line class="st7" x1="428.8" y1="552" x2="428.8" y2="547.7"/>
				<line class="st7" x1="437.1" y1="552" x2="437.1" y2="547.7"/>
				<line class="st7" x1="445.5" y1="552" x2="445.5" y2="547.7"/>
				<line class="st7" x1="453.8" y1="552" x2="453.8" y2="547.7"/>
				<line class="st7" x1="462.2" y1="552" x2="462.2" y2="547.7"/>
			</g>
			<g>
			</g>
		</g>
	</g>
	<g>
		<g>
			<text transform="matrix(1 0 0 1 293.9099 554.6688)" class="st8 st3 st9">0.0</text>
			<text transform="matrix(1 0 0 1 294.7107 532.867)"><tspan x="0" y="0" class="st8 st3 st9">0</tspan><tspan x="6.2" y="0" class="st8 st3 st9">.</tspan><tspan x="8.5" y="0" class="st8 st3 st9">1</tspan></text>
			<text transform="matrix(1 0 0 1 293.9099 511.0643)" class="st8 st3 st9">0.2</text>
			<text transform="matrix(1 0 0 1 293.9099 489.2635)" class="st8 st3 st9">0.3</text>
			<text transform="matrix(1 0 0 1 293.9099 467.4618)" class="st8 st3 st9">0.4</text>
			<text transform="matrix(1 0 0 1 293.9099 445.66)" class="st8 st3 st9">0.5</text>
			<text transform="matrix(1 0 0 1 293.9099 423.8582)" class="st8 st3 st9">0.6</text>
			<text transform="matrix(1 0 0 1 293.9099 402.0565)" class="st8 st3 st9">0.7</text>
			<text transform="matrix(1 0 0 1 293.9099 380.2538)" class="st8 st3 st9">0.8</text>
		</g>
		<line class="st7" x1="311.7" y1="552" x2="311.7" y2="377.6"/>
		<g>
			<g>
				<line class="st7" x1="311.7" y1="552" x2="315.5" y2="552"/>
				<line class="st7" x1="311.7" y1="530.2" x2="315.5" y2="530.2"/>
				<line class="st7" x1="311.7" y1="508.4" x2="315.5" y2="508.4"/>
				<line class="st7" x1="311.7" y1="486.6" x2="315.5" y2="486.6"/>
				<line class="st7" x1="311.7" y1="464.8" x2="315.5" y2="464.8"/>
				<line class="st7" x1="311.7" y1="443" x2="315.5" y2="443"/>
				<line class="st7" x1="311.7" y1="421.2" x2="315.5" y2="421.2"/>
				<line class="st7" x1="311.7" y1="399.4" x2="315.5" y2="399.4"/>
				<line class="st7" x1="311.7" y1="377.6" x2="315.5" y2="377.6"/>
			</g>
			<g>
			</g>
		</g>
	</g>
	<g>
		<g>
			<g>
				<line class="st10" x1="324.2" y1="541.1" x2="315.9" y2="536.8"/>
				<line class="st10" x1="332.6" y1="521.5" x2="324.2" y2="541.1"/>
				<line class="st10" x1="341" y1="517.1" x2="332.6" y2="521.5"/>
				<line class="st10" x1="349.3" y1="525.9" x2="341" y2="517.1"/>
				<line class="st10" x1="357.7" y1="469.2" x2="349.3" y2="525.9"/>
				<line class="st10" x1="366" y1="486.6" x2="357.7" y2="469.2"/>
				<line class="st10" x1="374.4" y1="519.3" x2="366" y2="486.6"/>
				<line class="st10" x1="382.8" y1="508.4" x2="374.4" y2="519.3"/>
				<line class="st10" x1="391.1" y1="453.9" x2="382.8" y2="508.4"/>
				<line class="st10" x1="399.5" y1="421.2" x2="391.1" y2="453.9"/>
				<line class="st10" x1="407.8" y1="451.7" x2="399.5" y2="421.2"/>
				<line class="st10" x1="416.2" y1="453.9" x2="407.8" y2="451.7"/>
				<line class="st10" x1="424.6" y1="449.6" x2="416.2" y2="453.9"/>
				<line class="st10" x1="432.9" y1="449.6" x2="424.6" y2="449.6"/>
				<line class="st10" x1="441.3" y1="464.8" x2="432.9" y2="449.6"/>
				<line class="st10" x1="449.7" y1="416.9" x2="441.3" y2="464.8"/>
				<line class="st10" x1="458" y1="443" x2="449.7" y2="416.9"/>
			</g>
		</g>
	</g>
	<g>
		<g>
		</g>
	</g>
	<g>
		<text transform="matrix(1 0 0 1 429.6385 560.0389)"><tspan x="0" y="0" class="st8 st3 st9">2</tspan><tspan x="6.2" y="0" class="st8 st3 st9">0</tspan><tspan x="11.6" y="0" class="st8 st3 st9">1</tspan><tspan x="17.1" y="0" class="st8 st3 st9">0</tspan></text>
		<text transform="matrix(1 0 0 1 387.1443 560.0389)" class="st8 st3 st9">2005</text>
		<text transform="matrix(1 0 0 1 345.3367 560.0389)" class="st8 st3 st9">2000</text>
		<text transform="matrix(1 0 0 1 303.9344 560.0389)"><tspan x="0" y="0" class="st8 st3 st9">1</tspan><tspan x="5.4" y="0" class="st8 st3 st9">995</tspan></text>
	</g>
</g>
<rect x="161" y="69.8" class="st11" width="131.2" height="11.6"/>
<rect x="163.7" y="57.9" class="st1" width="465.7" height="167"/>
<text transform="matrix(1 0 0 1 163.6857 76.8468)"><tspan x="0" y="0" class="st5 st3 st12">Good news! </tspan><tspan x="135.1" y="0" class="st5 st3 st4">In 2008, the frog was listed on the  </tspan><tspan x="0" y="19.2" class="st5 st3 st4">Endangered Species List, enacting safeguards to protect the </tspan><tspan x="0" y="38.4" class="st5 st3 st4">species’ habitat and population from further decline.  </tspan><tspan x="0" y="57.6" class="st5 st3 st4"> </tspan><tspan x="0" y="76.8" class="st5 st3 st4">Early results of habitat restoration efforts indicate that no only </tspan><tspan x="0" y="96" class="st5 st3 st4">do removing trout have a positive impact on frog populations, </tspan><tspan x="0" y="115.2" class="st5 st3 st4">but the</tspan><tspan x="49.6" y="115.2" class="st6 st3 st4"> frogs may also be more resistant to the chytrid fungus</tspan><tspan x="442.6" y="115.2" class="st5 st3 st4"> </tspan><tspan x="0" y="134.4" class="st5 st3 st4">having evolved from the population’s final survivors. </tspan></text>
</svg>
