<svg id="fb9194cb-7c57-4e66-95f9-99f09e1a1304" data-name="Layer 1" xmlns="http://www.w3.org/2000/svg" viewBox="0 0 2046 1137"><defs><style>.bbb9ea46-7906-4e40-bdd4-d1076e5365e2{fill:#e0c389;}.a10b4147-6523-4bac-95e5-916de3a40f89,.a9ca35a2-4c3c-4804-a893-79a51f4ecf8a,.b9203660-7a3b-46d3-8f1d-616137bc64da,.e19493fc-fadb-4a18-badc-10872cea4dec,.fe07698a-b8a3-4229-baef-d1fe1e69d249{fill:#f2e5d2;}.e9646156-c0f6-4b0c-8bd6-9d258d6952fb{font-size:64px;}.b79f051d-db69-417c-86a2-1e7cbe9bc6c3,.e9646156-c0f6-4b0c-8bd6-9d258d6952fb,.eed99bb8-6964-4daf-9a76-461f2e6ce662{font-family:Karla-Bold, Karla;font-weight:700;}.eed99bb8-6964-4daf-9a76-461f2e6ce662{font-size:34px;}.a6d3e88b-5ced-4533-8367-4de2e0a2228c,.b79f051d-db69-417c-86a2-1e7cbe9bc6c3{font-size:30px;}.a6d3e88b-5ced-4533-8367-4de2e0a2228c,.b2acfff6-ddd0-44f1-97af-4855dfe3127c{font-family:Karla-Regular, Karla;}.a4271e6d-b096-4783-bfe3-01fa2762df1d{letter-spacing:-0.01em;}.b90206b0-5841-4e19-a41a-daad9decab38{letter-spacing:-0.03em;}.b2acfff6-ddd0-44f1-97af-4855dfe3127c{font-weight:400;}.b1150312-a700-4981-b7d1-cdfb5f16e703{letter-spacing:-0.04em;}.a8b9d211-67ee-47e9-b302-1ae4569a319c,.e7cdab5b-6720-4dc9-8ba7-5ab820dca0a2{fill:#8b0e3a;}.a8b9d211-67ee-47e9-b302-1ae4569a319c,.e19493fc-fadb-4a18-badc-10872cea4dec{fill-rule:evenodd;}.ec1ffbd1-7917-4c1f-995f-2415f925604f{fill:none;stroke-width:3px;}.a9ca35a2-4c3c-4804-a893-79a51f4ecf8a,.b9203660-7a3b-46d3-8f1d-616137bc64da,.e19493fc-fadb-4a18-badc-10872cea4dec,.ec1ffbd1-7917-4c1f-995f-2415f925604f,.fe07698a-b8a3-4229-baef-d1fe1e69d249{stroke:#8b0e3a;stroke-miterlimit:10;}.b9203660-7a3b-46d3-8f1d-616137bc64da{stroke-width:4px;}.fe07698a-b8a3-4229-baef-d1fe1e69d249{stroke-width:3.72px;}.e19493fc-fadb-4a18-badc-10872cea4dec{stroke-width:1.86px;}.a9ca35a2-4c3c-4804-a893-79a51f4ecf8a{stroke-width:2px;}</style></defs><rect class="bbb9ea46-7906-4e40-bdd4-d1076e5365e2" width="2046" height="1137"/><rect class="a10b4147-6523-4bac-95e5-916de3a40f89" x="126" y="200" width="1393" height="783.5"/><text class="e9646156-c0f6-4b0c-8bd6-9d258d6952fb" transform="translate(125.78 199.78)">Loxodonta</text><text class="eed99bb8-6964-4daf-9a76-461f2e6ce662" transform="translate(327.78 840.33)">Officially endangered from</text><text class="a6d3e88b-5ced-4533-8367-4de2e0a2228c" transform="translate(369.78 889.33)">2008</text><text class="a6d3e88b-5ced-4533-8367-4de2e0a2228c" transform="translate(369.78 492.91)">Savannas of sub-Saharan <tspan class="a4271e6d-b096-4783-bfe3-01fa2762df1d" x="361.83" y="0">A</tspan><tspan x="378.72" y="0">frica and the </tspan><tspan x="0" y="36">rainforests of central and </tspan><tspan class="b90206b0-5841-4e19-a41a-daad9decab38" x="356.51" y="36">W</tspan><tspan x="382.37" y="36">est </tspan><tspan class="a4271e6d-b096-4783-bfe3-01fa2762df1d" x="432.02" y="36">A</tspan><tspan x="448.91" y="36">frica</tspan></text><text class="b79f051d-db69-417c-86a2-1e7cbe9bc6c3" transform="translate(369.78 656.21)">Height: <tspan class="b2acfff6-ddd0-44f1-97af-4855dfe3127c" x="110.61" y="0">10 ft.</tspan><tspan class="b1150312-a700-4981-b7d1-cdfb5f16e703" x="0" y="36">W</tspan><tspan x="27.75" y="36">eight: </tspan><tspan class="b2acfff6-ddd0-44f1-97af-4855dfe3127c" x="117.18" y="36">13,000 lbs</tspan><tspan x="0" y="72">Length of one tusk: </tspan><tspan class="b2acfff6-ddd0-44f1-97af-4855dfe3127c" x="279.12" y="72">6 feet</tspan><tspan class="b1150312-a700-4981-b7d1-cdfb5f16e703" x="0" y="108">W</tspan><tspan x="27.75" y="108">eight of one tusk: </tspan><tspan class="b2acfff6-ddd0-44f1-97af-4855dfe3127c" x="283.2" y="108">50 lbs</tspan></text><text class="a6d3e88b-5ced-4533-8367-4de2e0a2228c" transform="translate(369.78 351.33)"><tspan class="a4271e6d-b096-4783-bfe3-01fa2762df1d">A</tspan><tspan x="16.89" y="0">frica</tspan></text><text class="eed99bb8-6964-4daf-9a76-461f2e6ce662" transform="translate(327.78 302.33)">Geography</text><text class="eed99bb8-6964-4daf-9a76-461f2e6ce662" transform="translate(327.78 450.33)">Habitat type</text><text class="eed99bb8-6964-4daf-9a76-461f2e6ce662" transform="translate(327.78 613.33)">Size</text><path class="a8b9d211-67ee-47e9-b302-1ae4569a319c" d="M1958.86,141.72c-21.49-21.47-56.09-61.85-84.76-73.29-27.87-11.12-76-4.62-112.23-6.87-58.52-3.64-131.18-47-162.61,2.3-28.78-18.56-58.64-36-98.48-43.52h-34.35c-26.13-3.15-72.36,31-98.5,32.07-14.37.55-27-9.89-41.23-11.46-12.07-1.32-25.12,3.24-36.64,2.3-22.13-1.84-45.86-10.86-71-9.16-26.44,10.88-54.12,32.16-96.19,29.77-15.56-.89-30.24-8.43-45.8-6.87-38.79,3.88-66.74,57.81-87,80.16-27,29.81-76,55.07-73.29,93.91,1.82,26.05,28.09,38,55,43.52,10.18,7.92,4.95,19.68,13.73,27.49,6.45,5.71,19.23,3.82,29.78,11.45,33,23.89,32.5,77.61,64.13,98.48,16.23,10.72,36.28,11.68,50.38,18.32,12.92,6.09,29.91,13.52,41.23,25.2,18.31,18.88,26.15,60.31,48.1,80.17,9.15,8.27,31.45,18.65,41.23,16,17-4.58,26.94-49.38,34.35-64.12,12.41-24.68,21.2-44.24,38.94-57.27,10.17,13.52,4.92,42.44,13.74,57.27-39.65,110-27.41,269.73,84.74,286.29-15.52-25.23-51.61-61.6-57.25-110-5.88-50.33,3.61-101.8,25.19-135.13,28.7,16.25,16.31,41.8,22.9,73.3,4.5,21.47,19.12,56.35,25.2,82.45,9.05,38.82,10.51,73.4,13.73,119.09,3,42.2,22.34,82.35,20.62,114.52-.74,13.9-11,29-13.74,45.8-1.88,11.49,2.76,23.12,0,32.08-5.36,17.41-26.66,25.44-29.78,41.21-32.65-8.39-31.14,14.08-38.93,43.52-3.15,11.91-14.09,23.61-13.74,32.07.49,11.91,3.4,2.82,6.86,9.16h4.57c48.51-13.7,97.61-11.31,121.41-48.1,15.67-24.27,20.8-52.58,41.22-75.58,13.2-52,6.75-107.31,11.45-160.31,1.65-18.6,10.7-36.4,11.45-55,1.67-40.95-5.28-78.33-4.58-116.8.68-37,20.47-77.77,16-121.39,17.43,17.25,30.69,49.47,34.35,82.46,5.62,50.65-11.25,97.35-27.47,130.54,34.26-13.1,61.45-54.73,66.42-103.06,5.75-56.19-19.55-111.26-32.08-153.46-.4-6.52,15,2.77,11.45-6.87,1.08-29.5-18.7-49.76-13.76-75.59,34.85,28.53,46.47,80.28,82.47,107.67,13.27-6.28,12.75-20,22.9-29.78,13.06-12.63,33-16.09,43.52-29.78,8.71-11.31,6.66-26.23,20.62-34.36,53.66-6.64,55.37-65.25,91.61-89.32-7.84-46.91,29.08-42.82,55-55,12.65-5.94,22.28-20.25,36.65-27.49,16.61-8.39,33.59-9.45,41.22-20.62V228.77C2010.5,203.8,1987.23,170.12,1958.86,141.72ZM1379.12,405c-10-5.82-44.78-25.15-44.78-25.15s34.82-21.26,42.56-13.53,15.47,11.38,23.2,19.12S1389.1,410.78,1379.12,405Zm226.8,0c-10,5.81-26-11.8-18.21-19.56s12.7-11.39,20.44-19.12,42.55,13.53,42.55,13.53S1615.88,399.17,1605.92,405Z"/><line class="ec1ffbd1-7917-4c1f-995f-2415f925604f" x1="226.5" y1="830.5" x2="226.5" y2="311"/><circle class="b9203660-7a3b-46d3-8f1d-616137bc64da" cx="228.5" cy="444.5" r="36"/><path class="e7cdab5b-6720-4dc9-8ba7-5ab820dca0a2" d="M209.66,460.16h-2.4a.66.66,0,0,0,0,1.31h42.17a.66.66,0,0,0,0-1.31h-7.05c0-2.62.46-9.31,4.46-15a.65.65,0,0,0,0-.75.66.66,0,0,0-.71-.26,16.79,16.79,0,0,0-9.21,7.47,68.87,68.87,0,0,1,5.42-18.56.66.66,0,0,0-.08-.7.65.65,0,0,0-.68-.22c-5.46,1.45-8.6,7.48-10.41,13.63,1-9.51,2.56-19.53,4.85-21.58a.65.65,0,0,0,.09-.87.66.66,0,0,0-.86-.18c-.47.27-10.38,6.39-12.58,29.33-1.29-7.74-4.41-18.45-12-20.46a.65.65,0,0,0-.63.18.62.62,0,0,0-.16.63,1.16,1.16,0,0,0,.06.17,76.6,76.6,0,0,1,5.45,19.1,16.68,16.68,0,0,0-9.52-8.06.64.64,0,0,0-.71.25.65.65,0,0,0,0,.75C209.37,451,209.66,458.23,209.66,460.16Zm35-14a29.4,29.4,0,0,0-3.61,14h-4.83C236.07,451.39,241.69,447.56,244.68,446.14ZM240.51,434a74.71,74.71,0,0,0-5.68,26.21H230.1C230.33,456.38,231.91,438,240.51,434Zm-7.31-7.16c-3.08,8.82-4.24,29.36-4.44,33.36l-5.2-.1C223.9,440.36,229.67,430.81,233.2,426.79ZM222.2,460h-4.73a77.93,77.93,0,0,0-5.73-26.24C220.38,437.83,222,456.26,222.2,460Zm-6.4,0H211a29.36,29.36,0,0,0-3.62-14C210.35,447.43,216,451.26,215.8,460Z"/><circle class="fe07698a-b8a3-4229-baef-d1fe1e69d249" cx="226" cy="310" r="36"/><path class="e19493fc-fadb-4a18-badc-10872cea4dec" d="M226.27,290.31a15.25,15.25,0,0,1,15.26,15.25c0,8.16-10,18.85-15.26,25.5C221,324.41,211,313.72,211,305.56a15.25,15.25,0,0,1,15.25-15.25Zm0,6.84a8.41,8.41,0,1,1-8.41,8.41A8.41,8.41,0,0,1,226.27,297.15Z"/><circle class="b9203660-7a3b-46d3-8f1d-616137bc64da" cx="226.73" cy="621.94" r="36"/><path class="e7cdab5b-6720-4dc9-8ba7-5ab820dca0a2" d="M234.46,600.92v41.16h-17V600.92ZM232.41,640V603H219.5V640Z"/><rect class="e7cdab5b-6720-4dc9-8ba7-5ab820dca0a2" x="218.48" y="634.54" width="9.5" height="2.04"/><rect class="e7cdab5b-6720-4dc9-8ba7-5ab820dca0a2" x="218.48" y="628.97" width="6.13" height="2.04"/><rect class="e7cdab5b-6720-4dc9-8ba7-5ab820dca0a2" x="218.48" y="623.39" width="9.5" height="2.04"/><rect class="e7cdab5b-6720-4dc9-8ba7-5ab820dca0a2" x="218.48" y="617.81" width="6.13" height="2.04"/><rect class="e7cdab5b-6720-4dc9-8ba7-5ab820dca0a2" x="218.48" y="612.23" width="9.5" height="2.04"/><rect class="e7cdab5b-6720-4dc9-8ba7-5ab820dca0a2" x="218.48" y="606.66" width="6.13" height="2.04"/><circle class="b9203660-7a3b-46d3-8f1d-616137bc64da" cx="226.73" cy="831.94" r="36"/><polygon class="a9ca35a2-4c3c-4804-a893-79a51f4ecf8a" points="232.74 811.77 226.29 843.8 224.36 843.52 222.41 843.24 224.12 810.77 228.44 811.27 232.74 811.77"/><circle class="a9ca35a2-4c3c-4804-a893-79a51f4ecf8a" cx="223.56" cy="851.2" r="2.82"/></svg>