<?xml version="1.0" encoding="utf-8"?>
<!-- Generator: Adobe Illustrator 24.1.1, SVG Export Plug-In . SVG Version: 6.00 Build 0)  -->
<svg version="1.1" id="fe246b16-e400-4c40-9bbd-018777b14792"
	 xmlns="http://www.w3.org/2000/svg" xmlns:xlink="http://www.w3.org/1999/xlink" x="0px" y="0px" viewBox="0 0 2123.5 1507"
	 style="enable-background:new 0 0 2123.5 1507;" xml:space="preserve">
<style type="text/css">
	.st0{fill:#F6F8FA;}
	.st1{fill:#E2BA50;}
	.st2{font-family:'Lato-Regular';}
	.st3{font-size:30px;}
	.st4{fill:none;stroke:#00555B;stroke-width:3;stroke-miterlimit:10;}
	.st5{fill:#00555B;stroke:#E2BA50;stroke-width:3;stroke-miterlimit:10;}
	.st6{fill-rule:evenodd;clip-rule:evenodd;fill:#E2BA50;}
	.st7{fill:#00555B;}
	.st8{fill:none;}
</style>
<rect y="33.1" class="st0" width="1920" height="1080"/>
<rect x="126" y="233.1" class="st1" width="1393" height="783.5"/>
<path d="M146.1,233.5c-3.1,0-6.2-0.3-9.2-1.1c-2.9-0.8-5.7-2.1-8.1-3.9v-11h7.1l1,6.5c1.1,0.9,2.5,1.6,3.9,1.9
	c1.7,0.5,3.6,0.8,5.4,0.7c1.4,0,2.8-0.2,4.2-0.7c1-0.4,1.9-1.1,2.6-2c0.6-0.9,0.9-1.9,0.9-3c0-1-0.3-2-0.8-2.8
	c-0.7-1-1.6-1.8-2.6-2.3c-1.6-0.8-3.3-1.5-5-2c-3.1-0.9-6.1-2-9-3.5c-2.1-1-3.9-2.6-5.3-4.5c-1.2-1.9-1.8-4.1-1.8-6.4
	c-0.1-2.3,0.7-4.6,2-6.5c1.5-2,3.4-3.5,5.7-4.4c2.6-1.1,5.5-1.7,8.4-1.7c3.1-0.1,6.3,0.3,9.3,1.3c2.5,0.8,4.9,2,7,3.7v10.3h-6.8
	l-1.2-6.3c-1-0.6-2.1-1-3.2-1.3c-1.5-0.4-3-0.6-4.6-0.6c-1.3,0-2.6,0.2-3.9,0.7c-1,0.4-2,1-2.6,1.9c-0.7,0.9-1,1.9-1,3
	c0,1,0.3,1.9,0.8,2.7c0.8,0.9,1.7,1.7,2.8,2.2c1.8,0.9,3.6,1.6,5.5,2.2c5,1.4,8.8,3.2,11.4,5.5c2.6,2.3,4,5.6,3.9,9
	c0.1,2.4-0.7,4.8-2.1,6.7c-1.5,2-3.5,3.5-5.9,4.4C152.1,233,149.1,233.5,146.1,233.5z"/>
<path d="M166.4,232.9v-5.5l4.4-0.9v-21l-4.9-0.9v-5.4h14v27.4l4.4,0.9v5.5L166.4,232.9z M170.5,191.9v-7.8h9.5v7.8H170.5z"/>
<path d="M203.6,233.5c-3,0.1-5.9-0.7-8.5-2.1c-2.4-1.4-4.3-3.4-5.6-5.9c-1.4-2.6-2.1-5.6-2-8.6v-1.3c-0.1-3.1,0.6-6.1,1.9-8.9
	c1.2-2.5,3-4.6,5.3-6.1c2.4-1.5,5.2-2.3,8.1-2.2c2.7-0.1,5.4,0.5,7.7,1.8c2.1,1.2,3.7,3,4.8,5.2c1.2,2.6,1.7,5.4,1.6,8.3v5H197
	l-0.1,0.2c0.1,1.4,0.5,2.7,1.1,3.9c0.6,1.1,1.5,2.1,2.6,2.7c1.2,0.7,2.7,1,4.1,1c1.6,0,3.2-0.2,4.7-0.6c1.5-0.4,2.9-1.1,4.2-1.9
	l2.5,5.6c-1.6,1.2-3.4,2.2-5.3,2.8C208.5,233.2,206,233.6,203.6,233.5z M197,212.6h11.3v-0.8c0-1.2-0.2-2.4-0.5-3.6
	c-0.3-0.9-0.9-1.7-1.8-2.3c-0.9-0.6-2-0.9-3.1-0.8c-1.1,0-2.2,0.3-3.1,0.9c-0.9,0.7-1.6,1.6-2,2.6c-0.5,1.2-0.8,2.5-0.9,3.8
	L197,212.6z"/>
<path d="M221.8,232.9v-5.5l4.4-0.9v-21l-4.9-0.9v-5.4h13.4l0.3,4.2l0.1,0.8c0.7-1.6,1.7-3,3.1-4.1c1.3-1,2.8-1.5,4.4-1.4
	c0.6,0,1.2,0.1,1.8,0.1c0.6,0.1,1.2,0.2,1.7,0.4l-1,8.4l-4.5-0.3c-1.1-0.1-2.2,0.1-3.1,0.6c-0.9,0.6-1.6,1.3-2.1,2.2v16.6l4.4,0.9
	v5.5L221.8,232.9z"/>
<path d="M249.4,232.9v-5.5l4.4-0.9v-21l-4.8-0.9v-5.4h13.3l0.4,4.2l0.1,0.8c0.7-1.6,1.7-3,3.1-4.1c1.3-1,2.8-1.4,4.4-1.4
	c0.6,0,1.2,0.1,1.8,0.1c0.6,0.1,1.2,0.2,1.7,0.4l-1,8.4l-4.5-0.3c-1.1-0.1-2.2,0.1-3.1,0.6c-0.9,0.6-1.6,1.3-2.1,2.2v16.6l4.4,0.9
	v5.5L249.4,232.9z"/>
<path d="M287.1,233.5c-2.9,0.2-5.8-0.8-8-2.7c-2-1.9-3.1-4.6-3-7.4c0-2,0.6-4,1.7-5.6c1.3-1.7,3.1-3,5.1-3.8c2.7-1,5.5-1.5,8.4-1.4
	h4.5v-2.5c0.2-2.8-1.9-5.3-4.7-5.5c-0.3,0-0.6,0-1,0c-0.9,0-1.8,0.1-2.6,0.4c-0.8,0.2-1.5,0.6-2.1,1l-0.7,4.5h-6.6l-0.1-8.8
	c1.8-1,3.7-1.8,5.8-2.4c2.2-0.7,4.6-1,6.9-0.9c4.4,0,7.9,1,10.5,3.1s3.9,5,3.8,8.8v13.9c0,0.5,0,0.9,0,1.4c0,0.4,0,0.9,0.1,1.3
	l3.5,0.5v5.5h-11.3c-0.2-0.6-0.5-1.2-0.7-1.9c-0.2-0.6-0.4-1.3-0.5-2c-1,1.3-2.3,2.5-3.8,3.3C290.7,233.1,288.9,233.5,287.1,233.5z
	 M289.6,226.8c1.3,0,2.5-0.3,3.6-0.9c1.1-0.5,2-1.3,2.7-2.3v-5.3h-4.5c-1.6-0.1-3.3,0.4-4.5,1.4c-1,0.8-1.6,2-1.5,3.3
	c-0.1,1.1,0.4,2.1,1.1,2.8C287.3,226.5,288.4,226.8,289.6,226.8z"/>
<path d="M327.4,232.9v-5.5l4.8-0.9v-32.6l-4.8-0.9v-5.5h14.1l19.8,31.6h0.2v-25.1l-5.8-0.9v-5.5h18.8v5.5l-4.9,0.9v39.1h-8.8
	l-20.3-31.3h-0.2v24.8l5.8,0.9v5.5L327.4,232.9z"/>
<path d="M393.9,233.5c-3,0.1-5.9-0.7-8.5-2.1c-2.4-1.4-4.3-3.4-5.6-5.9c-1.4-2.6-2.1-5.6-2-8.6v-1.3c-0.1-3.1,0.6-6.1,1.9-8.9
	c1.2-2.5,3-4.6,5.3-6.1c2.4-1.5,5.2-2.3,8.1-2.2c2.7-0.1,5.4,0.5,7.7,1.8c2.1,1.2,3.7,3,4.8,5.2c1.2,2.6,1.7,5.4,1.6,8.3v5h-19.9
	l-0.1,0.2c0.1,1.4,0.5,2.7,1.1,3.9c0.6,1.1,1.5,2.1,2.6,2.7c1.2,0.7,2.7,1,4.1,1c1.6,0,3.2-0.2,4.7-0.6c1.5-0.4,2.9-1.1,4.2-1.9
	l2.5,5.6c-1.6,1.2-3.4,2.2-5.3,2.8C398.8,233.2,396.3,233.6,393.9,233.5z M387.4,212.6h11.3v-0.8c0-1.2-0.2-2.4-0.5-3.6
	c-0.3-0.9-0.9-1.7-1.8-2.3c-0.9-0.6-2-0.9-3.1-0.8c-1.1,0-2.2,0.3-3.1,0.9c-0.9,0.7-1.6,1.6-2,2.6c-0.5,1.2-0.8,2.5-1,3.8
	L387.4,212.6z"/>
<path d="M423.2,232.9L413,205.1l-3.6-0.6v-5.4h16.4v5.5l-3.6,0.6l5.1,15.3l0.8,2.6h0.2l0.9-2.6l5.6-15.3l-4.2-0.7v-5.5h16.4v5.5
	l-3.8,0.6l-10.7,27.7H423.2z"/>
<path d="M460.4,233.5c-2.9,0.2-5.8-0.8-8-2.7c-2-1.9-3.1-4.6-3-7.4c0-2,0.6-4,1.7-5.6c1.3-1.7,3.1-3,5.1-3.8c2.7-1,5.5-1.5,8.4-1.4
	h4.5v-2.5c0.2-2.8-1.9-5.3-4.7-5.5c-0.3,0-0.7,0-1,0c-0.9,0-1.8,0.1-2.6,0.4c-0.8,0.2-1.5,0.6-2.1,1l-0.7,4.5h-6.6l-0.1-8.8
	c1.8-1,3.7-1.8,5.8-2.4c2.2-0.7,4.6-1,6.9-0.9c4.4,0,7.9,1,10.5,3.1c2.6,2.1,3.8,5,3.8,8.8v13.9c0,0.5,0,0.9,0,1.4
	c0,0.4,0,0.9,0.1,1.3l3.5,0.5v5.5h-11.3c-0.2-0.6-0.5-1.2-0.7-1.9c-0.2-0.6-0.4-1.3-0.5-2c-1,1.3-2.3,2.5-3.8,3.3
	C464,233.1,462.2,233.6,460.4,233.5z M462.9,226.8c1.3,0,2.5-0.3,3.6-0.9c1.1-0.5,2-1.3,2.7-2.3v-5.3h-4.5c-1.6-0.1-3.3,0.4-4.5,1.4
	c-1,0.8-1.6,2-1.5,3.3c-0.1,1.1,0.4,2.1,1.1,2.8C460.6,226.5,461.7,226.8,462.9,226.8z"/>
<path d="M498.2,233.5c-2.5,0.1-4.9-0.7-6.9-2.1c-2-1.5-3.5-3.5-4.4-5.8c-1.1-2.8-1.6-5.7-1.5-8.7v-0.7c-0.1-3.2,0.5-6.3,1.5-9.3
	c0.9-2.4,2.4-4.6,4.4-6.2c2-1.5,4.4-2.3,6.9-2.2c1.7,0,3.4,0.3,4.9,1.1c1.4,0.8,2.7,1.8,3.6,3.1v-12.1l-4.9-0.9v-5.5h14v42.3
	l4.4,0.9v5.5h-12.3l-0.7-4.1c-1,1.5-2.3,2.7-3.8,3.6C501.8,233.1,500,233.5,498.2,233.5z M500.9,226.4c1.2,0,2.3-0.3,3.3-0.8
	c1-0.6,1.8-1.4,2.4-2.4v-14.3c-0.6-1-1.4-1.9-2.4-2.5c-1-0.6-2.1-0.9-3.3-0.9c-1.4-0.1-2.7,0.4-3.7,1.4c-1,1-1.8,2.3-2.1,3.8
	c-0.5,1.8-0.7,3.7-0.7,5.6v0.7c-0.1,2.4,0.4,4.8,1.5,7C497,225.6,498.9,226.6,500.9,226.4z"/>
<path d="M534.4,233.5c-2.9,0.2-5.8-0.8-8-2.7c-2-1.9-3.1-4.6-3-7.4c0-2,0.6-4,1.7-5.6c1.3-1.7,3.1-3,5.1-3.8c2.7-1,5.5-1.5,8.4-1.4
	h4.5v-2.5c0.2-2.8-1.9-5.3-4.7-5.5c-0.3,0-0.6,0-1,0c-0.9,0-1.8,0.1-2.6,0.4c-0.8,0.2-1.5,0.6-2.1,1l-0.7,4.5h-6.6l-0.1-8.8
	c1.8-1,3.7-1.8,5.8-2.4c2.2-0.7,4.6-1,6.9-0.9c4.4,0,7.9,1,10.5,3.1s3.8,5,3.8,8.8v13.9c0,0.5,0,0.9,0,1.4c0,0.4,0,0.9,0.1,1.3
	l3.5,0.5v5.5h-11.3c-0.2-0.6-0.5-1.2-0.7-1.9c-0.2-0.6-0.4-1.3-0.5-2c-1,1.3-2.3,2.5-3.8,3.3C538,233.1,536.2,233.5,534.4,233.5z
	 M536.8,226.8c1.3,0,2.5-0.3,3.6-0.9c1.1-0.5,2-1.3,2.7-2.3v-5.3h-4.5c-1.6-0.1-3.3,0.4-4.5,1.4c-1,0.8-1.6,2-1.5,3.3
	c-0.1,1.1,0.4,2.1,1.1,2.8C534.5,226.5,535.7,226.8,536.8,226.8z"/>
<path d="M587,232.9v-5.5l4.9-0.9v-9.2l-13.5-23.8l-4.4-0.6v-5.5h18.2v5.5l-3.7,0.5l7.6,14.5l0.7,1.5h0.2l0.7-1.4l8.4-14.6l-5-0.5
	v-5.5h17.8v5.5l-4.5,0.6L601,216.6v9.9l4.9,0.9v5.5L587,232.9z"/>
<path d="M636.1,233.5c-3,0.1-5.9-0.7-8.5-2.1c-2.4-1.4-4.4-3.4-5.6-5.9c-1.4-2.6-2.1-5.6-2-8.6v-1.3c-0.1-3.1,0.6-6.1,1.9-8.9
	c1.2-2.5,3-4.6,5.3-6.1c2.4-1.5,5.2-2.3,8.1-2.2c2.7-0.1,5.4,0.5,7.7,1.8c2.1,1.2,3.7,3,4.8,5.2c1.2,2.6,1.7,5.4,1.6,8.3v5h-19.8
	l-0.1,0.2c0.1,1.4,0.5,2.7,1.1,3.9c0.6,1.1,1.5,2.1,2.6,2.7c1.2,0.7,2.7,1,4.1,1c1.6,0,3.2-0.2,4.7-0.6c1.5-0.4,2.9-1.1,4.2-1.9
	l2.5,5.6c-1.6,1.2-3.4,2.2-5.3,2.8C641,233.2,638.6,233.6,636.1,233.5z M629.6,212.6h11.3v-0.8c0-1.2-0.2-2.4-0.5-3.6
	c-0.3-0.9-0.9-1.7-1.8-2.3c-0.9-0.6-2-0.9-3.1-0.8c-1.1,0-2.2,0.3-3.1,0.9c-0.9,0.7-1.6,1.6-2,2.6c-0.5,1.2-0.8,2.5-1,3.8
	L629.6,212.6z"/>
<path d="M653.1,232.9v-5.5l4.4-0.9v-35.9l-4.9-0.9v-5.5h14v42.3l4.4,0.9v5.5L653.1,232.9z"/>
<path d="M673.5,232.9v-5.5l4.4-0.9v-35.9l-4.9-0.9v-5.5h14v42.3l4.4,0.9v5.5L673.5,232.9z"/>
<path d="M709.9,233.5c-3,0.1-6-0.7-8.6-2.2c-2.4-1.5-4.3-3.6-5.5-6.1c-1.3-2.8-2-5.9-1.9-8.9v-0.7c-0.1-3.1,0.6-6.1,1.9-8.9
	c1.2-2.5,3.1-4.6,5.5-6.1c5.3-2.9,11.8-2.9,17.1,0c2.4,1.5,4.3,3.6,5.5,6.1c1.3,2.8,2,5.9,1.9,8.9v0.7c0.1,3.1-0.6,6.2-1.9,8.9
	c-1.2,2.5-3.1,4.6-5.5,6.1C715.9,232.8,712.9,233.6,709.9,233.5z M709.9,226.5c1.4,0.1,2.8-0.4,3.9-1.3c1.1-1,1.8-2.2,2.2-3.6
	c0.5-1.7,0.8-3.5,0.7-5.4v-0.7c0-1.8-0.2-3.6-0.7-5.3c-0.4-1.4-1.2-2.6-2.2-3.6c-2.3-1.7-5.5-1.7-7.8,0c-1.1,1-1.9,2.2-2.2,3.6
	c-0.5,1.7-0.7,3.5-0.7,5.3v0.7c0,1.8,0.2,3.6,0.7,5.4c0.4,1.4,1.1,2.6,2.2,3.6C707.1,226.1,708.5,226.6,709.9,226.5z"/>
<path d="M739.7,232.9l-7.9-27.6l-4.1-0.8v-5.5H744v5.5l-3.6,0.7l3.1,13.2l0.6,2.6h0.2l0.8-2.6l7-19.3h6.1l6.7,19.5l0.9,2.8h0.2
	l0.8-2.8l3.7-13.4l-3.9-0.7v-5.4h16v5.5l-3.9,0.8l-8.6,27.6h-7.7l-6.2-16.8l-1.1-3.7H755l-1.1,3.8l-6.1,16.7L739.7,232.9z"/>
<path d="M801,232.9v-5.5l4.8-0.9v-32.6l-4.8-0.9v-5.5h19.5v5.5l-5.5,0.9v32.1h12.8l0.4-6.7h7v13.7H801z"/>
<path d="M854.9,233.5c-3,0.1-5.9-0.7-8.5-2.1c-2.4-1.4-4.3-3.4-5.6-5.9c-1.4-2.6-2.1-5.6-2-8.6v-1.3c-0.1-3.1,0.6-6.1,1.9-8.9
	c1.2-2.5,3-4.6,5.3-6.1c2.4-1.5,5.2-2.3,8.1-2.2c2.7-0.1,5.4,0.5,7.7,1.8c2.1,1.2,3.7,3,4.8,5.2c1.1,2.6,1.7,5.4,1.6,8.3v5h-19.9
	l-0.1,0.2c0.1,1.4,0.5,2.7,1.1,3.9c0.6,1.1,1.5,2.1,2.6,2.7c1.3,0.7,2.7,1,4.1,1c1.6,0,3.2-0.2,4.7-0.6c1.5-0.5,2.9-1.1,4.2-1.9
	l2.5,5.6c-1.6,1.2-3.4,2.2-5.3,2.8C859.9,233.2,857.4,233.5,854.9,233.5z M848.4,212.6h11.3v-0.8c0-1.2-0.2-2.4-0.5-3.6
	c-0.3-0.9-0.9-1.7-1.8-2.3c-0.9-0.6-2-0.9-3.1-0.8c-1.1,0-2.2,0.3-3.1,0.9c-0.9,0.7-1.6,1.6-2,2.6c-0.5,1.2-0.8,2.5-1,3.8
	L848.4,212.6z"/>
<path d="M887.3,246.5c-1.9,0-3.9-0.2-5.8-0.6c-1.9-0.4-3.8-1-5.6-1.9l1.7-6.5c1.5,0.6,3.1,1.1,4.6,1.5c1.5,0.3,3,0.5,4.6,0.5
	c2.4,0,4.2-0.7,5.4-2c1.2-1.6,1.8-3.6,1.7-5.6v-2.2c-0.9,1.2-2.1,2.2-3.5,2.9c-1.5,0.7-3.1,1-4.7,1c-2.5,0.1-5-0.7-7.1-2.1
	c-2-1.5-3.6-3.5-4.5-5.8c-1.1-2.8-1.6-5.7-1.6-8.7v-0.7c-0.1-3.2,0.5-6.4,1.6-9.3c0.9-2.5,2.4-4.6,4.5-6.2c2-1.5,4.5-2.3,7-2.2
	c1.8-0.1,3.6,0.4,5.2,1.3c1.5,0.9,2.8,2.1,3.7,3.6l0.7-4.3h7.9v32.8c0.1,2.7-0.6,5.4-1.9,7.8c-1.3,2.2-3.2,4-5.4,5.1
	C893.2,246,890.3,246.6,887.3,246.5z M888.3,226.4c1.2,0,2.3-0.2,3.3-0.8c0.9-0.5,1.7-1.3,2.3-2.2v-14.7c-1.1-2-3.3-3.3-5.6-3.2
	c-1.4-0.1-2.8,0.4-3.8,1.4c-1.1,1-1.8,2.3-2.2,3.8c-0.5,1.8-0.7,3.7-0.7,5.6v0.7c-0.1,2.4,0.4,4.8,1.5,7
	C884.3,225.6,886.3,226.6,888.3,226.4L888.3,226.4z M902,205.6l-4-6.6h9.1v5.5L902,205.6z"/>
<path d="M924.8,246.5c-1.9,0-3.9-0.2-5.8-0.6c-1.9-0.4-3.8-1-5.6-1.9l1.7-6.5c1.5,0.6,3.1,1.1,4.6,1.5c1.5,0.3,3,0.5,4.6,0.5
	c2.4,0,4.2-0.7,5.4-2c1.2-1.6,1.8-3.6,1.7-5.6v-2.2c-0.9,1.2-2.1,2.2-3.5,2.9c-1.5,0.7-3.1,1-4.7,1c-2.5,0.1-5-0.7-7.1-2.1
	c-2-1.5-3.6-3.5-4.5-5.8c-1.1-2.8-1.6-5.7-1.6-8.7v-0.7c-0.1-3.2,0.5-6.4,1.6-9.3c0.9-2.4,2.4-4.6,4.5-6.2c2-1.5,4.5-2.3,7-2.2
	c1.8-0.1,3.6,0.4,5.2,1.3c1.5,0.9,2.8,2.1,3.7,3.6l0.7-4.3h7.9v32.8c0.1,2.7-0.6,5.4-1.9,7.8c-1.3,2.2-3.2,4-5.4,5.1
	C930.6,246,927.7,246.6,924.8,246.5z M925.8,226.4c1.2,0,2.3-0.2,3.3-0.8c0.9-0.5,1.7-1.3,2.3-2.2v-14.7c-1.1-2-3.3-3.3-5.6-3.2
	c-1.4-0.1-2.8,0.4-3.8,1.4c-1.1,1-1.8,2.3-2.2,3.8c-0.5,1.8-0.7,3.7-0.7,5.6v0.7c-0.1,2.4,0.4,4.8,1.5,7
	C921.8,225.6,923.7,226.6,925.8,226.4L925.8,226.4z M939.4,205.6l-4-6.6h9.1v5.5L939.4,205.6z"/>
<path d="M963.1,233.5c-3,0.1-5.9-0.7-8.5-2.1c-2.4-1.4-4.3-3.4-5.6-5.9c-1.4-2.6-2.1-5.6-2-8.6v-1.3c-0.1-3.1,0.6-6.1,1.9-8.9
	c1.2-2.5,3-4.6,5.3-6.1c2.4-1.5,5.2-2.3,8.1-2.2c2.7-0.1,5.4,0.5,7.7,1.8c2.1,1.2,3.7,3,4.8,5.2c1.2,2.6,1.7,5.4,1.6,8.3v5h-19.9
	l-0.1,0.2c0.1,1.4,0.5,2.7,1.1,3.9c0.6,1.1,1.5,2.1,2.6,2.7c1.2,0.7,2.7,1,4.1,1c1.6,0,3.2-0.2,4.7-0.6c1.5-0.4,2.9-1.1,4.2-1.9
	l2.5,5.6c-1.6,1.2-3.4,2.2-5.3,2.8C968,233.2,965.6,233.6,963.1,233.5z M956.6,212.6h11.3v-0.8c0-1.2-0.2-2.4-0.5-3.6
	c-0.3-0.9-0.9-1.7-1.8-2.3c-0.9-0.6-2-0.9-3.1-0.8c-1.1,0-2.2,0.3-3.1,0.9c-0.9,0.7-1.5,1.6-2,2.6c-0.5,1.2-0.8,2.5-1,3.8
	L956.6,212.6z"/>
<path d="M993.6,233.5c-2.5,0.1-4.9-0.7-6.9-2.1c-2-1.5-3.5-3.5-4.4-5.8c-1.1-2.8-1.6-5.7-1.5-8.7v-0.7c-0.1-3.2,0.5-6.3,1.5-9.3
	c0.9-2.4,2.4-4.6,4.4-6.2c2-1.5,4.4-2.3,6.9-2.2c1.7,0,3.4,0.3,4.9,1.1c1.4,0.8,2.7,1.8,3.6,3.1v-12.1l-4.9-0.9v-5.5h14v42.3
	l4.4,0.9v5.5h-12.3l-0.7-4.1c-1,1.5-2.3,2.7-3.8,3.6C997.2,233.1,995.4,233.5,993.6,233.5z M996.3,226.4c1.2,0,2.3-0.3,3.3-0.8
	c1-0.6,1.8-1.4,2.4-2.4v-14.3c-0.6-1-1.4-1.9-2.4-2.5c-1-0.6-2.1-0.9-3.3-0.9c-1.4-0.1-2.7,0.4-3.7,1.4c-1,1-1.8,2.3-2.1,3.8
	c-0.5,1.8-0.7,3.7-0.7,5.6v0.7c-0.1,2.4,0.4,4.8,1.5,7C992.4,225.6,994.3,226.6,996.3,226.4z"/>
<path d="M1034,232.9v-5.5l4.8-0.9v-32.6l-4.8-0.9v-5.5h36.2v12.5h-7l-0.4-5.4H1048v12.5h15.9v7H1048v12.5l4.9,0.9v5.5L1034,232.9z"
	/>
<path d="M1073.6,232.9v-5.5l4.4-0.9v-21l-4.8-0.9v-5.4h13.3l0.3,4.2l0.1,0.8c0.7-1.6,1.7-3,3.1-4.1c1.3-1,2.8-1.4,4.4-1.4
	c0.6,0,1.2,0.1,1.8,0.1c0.6,0.1,1.2,0.2,1.7,0.4l-1,8.4l-4.5-0.3c-1.1-0.1-2.2,0.1-3.1,0.6c-0.9,0.6-1.6,1.3-2.1,2.2v16.6l4.4,0.9
	v5.5L1073.6,232.9z"/>
<path d="M1116.1,233.5c-3,0.1-6-0.7-8.6-2.2c-2.4-1.5-4.3-3.6-5.5-6.1c-1.3-2.8-2-5.9-1.9-8.9v-0.7c-0.1-3.1,0.6-6.1,1.9-8.9
	c1.2-2.5,3.1-4.6,5.5-6.1c5.3-2.9,11.8-2.9,17.1,0c2.4,1.5,4.3,3.6,5.5,6.1c1.3,2.8,2,5.9,1.9,8.9v0.7c0.1,3.1-0.6,6.2-1.9,8.9
	c-1.2,2.5-3.1,4.6-5.5,6.1C1122,232.8,1119.1,233.6,1116.1,233.5z M1116.1,226.5c1.4,0.1,2.8-0.4,3.9-1.3c1.1-1,1.8-2.2,2.2-3.6
	c0.5-1.7,0.8-3.5,0.7-5.4v-0.7c0-1.8-0.2-3.6-0.7-5.3c-0.4-1.4-1.2-2.6-2.2-3.6c-1.1-0.9-2.5-1.4-3.9-1.3c-1.4-0.1-2.8,0.4-3.9,1.3
	c-1.1,1-1.9,2.2-2.2,3.6c-0.5,1.7-0.7,3.5-0.7,5.3v0.7c0,1.8,0.2,3.6,0.7,5.4c0.4,1.4,1.2,2.6,2.2,3.6
	C1113.3,226.1,1114.7,226.6,1116.1,226.5z"/>
<path d="M1151.3,246.5c-1.9,0-3.9-0.2-5.8-0.6c-1.9-0.4-3.8-1-5.6-1.9l1.7-6.5c1.5,0.6,3.1,1.1,4.6,1.5c1.5,0.3,3,0.5,4.6,0.5
	c2.4,0,4.2-0.7,5.4-2c1.2-1.6,1.8-3.6,1.7-5.6v-2.2c-0.9,1.2-2.1,2.2-3.5,2.9c-1.5,0.7-3.1,1-4.7,1c-2.5,0.1-5-0.7-7.1-2.1
	c-2-1.5-3.6-3.5-4.5-5.8c-1.1-2.8-1.6-5.7-1.6-8.7v-0.7c-0.1-3.2,0.5-6.4,1.6-9.3c0.9-2.4,2.4-4.6,4.5-6.2c2-1.5,4.5-2.3,7-2.2
	c1.8-0.1,3.6,0.4,5.2,1.3c1.5,0.9,2.8,2.1,3.7,3.6l0.7-4.3h7.9v32.8c0.1,2.7-0.6,5.4-1.9,7.8c-1.3,2.2-3.2,4-5.4,5.1
	C1157.1,246,1154.2,246.6,1151.3,246.5z M1152.3,226.4c1.2,0,2.3-0.2,3.3-0.8c0.9-0.5,1.7-1.3,2.3-2.2v-14.7c-1.1-2-3.3-3.3-5.6-3.2
	c-1.4-0.1-2.8,0.4-3.8,1.4c-1.1,1-1.8,2.3-2.2,3.8c-0.5,1.8-0.7,3.7-0.7,5.6v0.7c-0.1,2.4,0.4,4.8,1.5,7
	C1148.3,225.6,1150.2,226.6,1152.3,226.4L1152.3,226.4z M1165.9,205.6l-4-6.6h9.1v5.5L1165.9,205.6z"/>
<path d="M339.8,873.8c-1.5,0-3-0.3-4.5-0.9c-1.3-0.6-2.5-1.5-3.5-2.6c-1-1.1-1.8-2.5-2.2-3.9c-0.5-1.6-0.8-3.2-0.8-4.9v-0.4
	c0-1.7,0.2-3.3,0.8-4.9c0.5-1.4,1.2-2.7,2.2-3.9c0.9-1.1,2.1-2,3.5-2.6c1.4-0.6,2.9-0.9,4.5-0.9c1.5,0,3.1,0.3,4.5,0.9
	c1.3,0.6,2.5,1.5,3.5,2.6c1,1.1,1.8,2.5,2.3,3.9c0.5,1.6,0.8,3.2,0.8,4.9v0.4c0,1.7-0.3,3.3-0.8,4.9c-0.5,1.4-1.3,2.7-2.3,3.9
	c-1,1.1-2.2,2-3.5,2.6C342.9,873.5,341.3,873.8,339.8,873.8z M339.8,870c1.2,0,2.4-0.3,3.4-1.1c1-0.8,1.7-1.8,2-3
	c0.5-1.4,0.7-2.9,0.7-4.5v-0.4c0-1.5-0.2-3-0.7-4.4c-0.4-1.2-1.1-2.2-2.1-3c-1-0.7-2.2-1.1-3.4-1.1c-1.2-0.1-2.4,0.3-3.4,1
	c-0.9,0.8-1.6,1.8-2,3c-0.5,1.4-0.7,2.9-0.7,4.4v0.4c0,1.5,0.2,3,0.7,4.5c0.4,1.2,1.1,2.2,2,3C337.4,869.6,338.6,870,339.8,870z"/>
<path d="M353.1,873.4v-2.9l2.3-0.5v-11.1h-2.7v-3.4h2.7v-2c-0.1-1.7,0.5-3.4,1.7-4.7c1.3-1.2,3.1-1.7,4.9-1.6c0.6,0,1.1,0,1.6,0.1
	c0.5,0.1,1,0.2,1.5,0.3l-0.4,3.6c-0.3-0.1-0.6-0.1-0.9-0.2c-0.3,0-0.7-0.1-1-0.1c-0.7-0.1-1.4,0.2-1.9,0.7c-0.4,0.5-0.7,1.2-0.6,1.9
	v2h4.1v3.4h-4.1V870l3.2,0.5v2.9L353.1,873.4z"/>
<path d="M365.7,873.4v-2.9l2.6-0.5v-11.1h-2.7v-3.4h2.7v-1.2c-0.1-2,0.6-3.9,2.1-5.2c1.6-1.3,3.7-2,5.8-1.8c0.9,0,1.7,0.1,2.5,0.3
	c0.8,0.2,1.8,0.4,2.9,0.7L381,852c-0.7-0.2-1.5-0.4-2.2-0.5c-0.7-0.1-1.4-0.2-2.1-0.2c-1-0.1-1.9,0.2-2.7,0.8
	c-0.6,0.6-0.9,1.4-0.9,2.2v1.2H384V870l2.6,0.5v2.9h-9.8v-2.9l2.3-0.5v-11.2h-6V870l2.3,0.5v2.9L365.7,873.4z"/>
<path d="M396.8,873.8c-1.6,0-3.1-0.4-4.5-1.2c-1.3-0.8-2.3-1.9-2.9-3.2c-0.7-1.5-1-3.1-1-4.7v-0.5c0-1.6,0.3-3.2,1-4.7
	c0.7-1.3,1.7-2.4,2.9-3.2c1.3-0.8,2.9-1.2,4.4-1.2c1.4,0,2.9,0.2,4.2,0.8c1,0.4,2,1,2.9,1.8v5.1h-3.6l-0.6-3.2
	c-0.3-0.3-0.6-0.5-1-0.7c-0.4-0.2-0.8-0.2-1.3-0.3c-0.8,0-1.6,0.2-2.2,0.7c-0.6,0.5-1.1,1.1-1.3,1.9c-0.3,1-0.5,2-0.4,3v0.5
	c0,1,0.1,2,0.5,3c0.2,0.7,0.7,1.3,1.3,1.8c1.2,0.8,2.7,0.7,3.9-0.1c0.5-0.5,0.9-1.2,1-1.9h4.1l0,0.1c-0.1,1.2-0.5,2.3-1.1,3.3
	c-0.6,0.9-1.4,1.7-2.4,2.2C399.4,873.5,398.1,873.8,396.8,873.8z"/>
<path d="M406.1,873.4v-2.9l2.3-0.5v-11.1l-2.6-0.5v-2.9h7.4V870l2.3,0.5v2.9H406.1z M408.3,851.7v-4.1h5v4.1H408.3z"/>
<path d="M423.2,873.8c-1.5,0.1-3.1-0.4-4.3-1.4c-1.1-1-1.6-2.4-1.6-3.9c0-1.1,0.3-2.1,0.9-3c0.7-0.9,1.6-1.6,2.7-2
	c1.4-0.5,2.9-0.8,4.4-0.7h2.4v-1.3c0.1-1.5-1-2.8-2.5-2.9c-0.2,0-0.3,0-0.5,0c-0.5,0-0.9,0.1-1.4,0.2c-0.4,0.1-0.8,0.3-1.1,0.5
	l-0.3,2.4h-3.5l-0.1-4.7c1-0.5,2-1,3.1-1.3c1.2-0.3,2.4-0.5,3.7-0.5c2-0.1,4,0.5,5.6,1.6c1.4,1.2,2.1,2.9,2,4.7v7.4
	c0,0.3,0,0.5,0,0.7c0,0.2,0,0.5,0.1,0.7l1.9,0.3v2.9h-6c-0.1-0.3-0.2-0.6-0.4-1c-0.1-0.3-0.2-0.7-0.3-1.1c-0.5,0.7-1.2,1.3-2,1.8
	C425.2,873.6,424.2,873.8,423.2,873.8z M424.5,870.2c0.7,0,1.3-0.2,1.9-0.5c0.6-0.3,1.1-0.7,1.4-1.2v-2.8h-2.4
	c-0.9-0.1-1.7,0.2-2.4,0.7c-0.5,0.4-0.8,1.1-0.8,1.8c0,0.6,0.2,1.1,0.6,1.5C423.3,870,423.9,870.2,424.5,870.2L424.5,870.2z"/>
<path d="M436.1,873.4v-2.9l2.3-0.5v-19.1l-2.6-0.5v-2.9h7.4V870l2.3,0.5v2.9H436.1z"/>
<path d="M447,873.4v-2.9l2.3-0.5v-19.1l-2.6-0.5v-2.9h7.4V870l2.4,0.5v2.9H447z"/>
<path d="M463,880.7c-0.4,0-0.9,0-1.3-0.1c-0.5-0.1-0.9-0.2-1.3-0.3l0.5-3.5c0.2,0,0.5,0.1,0.7,0.1h0.7c0.6,0,1.3-0.2,1.8-0.5
	c0.5-0.4,0.9-0.9,1.1-1.6l0.4-1.1l-6-14.9l-2.2-0.3v-2.9h9.5v2.9l-2.2,0.3l2.8,7.9l0.4,1h0.1l3.3-8.9l-2.1-0.3v-2.9h8.9v2.9l-2,0.3
	l-6.9,17.4c-0.3,0.8-0.8,1.6-1.3,2.3c-0.5,0.7-1.2,1.3-2,1.7C465,880.5,464,880.7,463,880.7z"/>
<path d="M496.3,873.8c-1.6,0-3.1-0.4-4.5-1.1c-1.3-0.7-2.3-1.8-3-3.1c-0.7-1.4-1.1-3-1-4.5v-0.7c0-1.6,0.3-3.3,1-4.7
	c0.6-1.3,1.6-2.4,2.8-3.3c1.3-0.8,2.8-1.2,4.3-1.2c1.4,0,2.8,0.3,4.1,1c1.1,0.6,2,1.6,2.5,2.8c0.6,1.4,0.9,2.9,0.9,4.4v2.6h-10.5
	v0.1c0.1,0.7,0.3,1.4,0.6,2.1c0.3,0.6,0.8,1.1,1.4,1.4c0.7,0.4,1.4,0.5,2.2,0.5c0.8,0,1.7-0.1,2.5-0.3c0.8-0.2,1.5-0.6,2.2-1l1.3,3
	c-0.8,0.6-1.8,1.1-2.8,1.5C499,873.6,497.7,873.8,496.3,873.8z M492.9,862.7h6v-0.4c0-0.6-0.1-1.3-0.3-1.9c-0.2-0.5-0.5-0.9-0.9-1.2
	c-0.5-0.3-1.1-0.5-1.6-0.4c-0.6,0-1.2,0.2-1.6,0.5c-0.5,0.4-0.8,0.8-1,1.4C493.1,861.2,492.9,861.9,492.9,862.7L492.9,862.7z"/>
<path d="M505.5,873.4v-2.9l2.3-0.5v-11.1l-2.6-0.5v-2.9h7.1l0.2,2.6c0.6-0.9,1.3-1.6,2.2-2.2c0.9-0.5,1.9-0.8,3-0.8
	c1.6-0.1,3.1,0.5,4.2,1.7c1,1.1,1.5,2.9,1.5,5.4v7.8l2.3,0.5v2.9h-9.3v-2.9l2.1-0.5v-7.8c0.1-0.9-0.2-1.8-0.7-2.6
	c-0.6-0.5-1.3-0.8-2.1-0.8c-1.3,0-2.5,0.6-3.1,1.7v9.4l2,0.5v2.9H505.5z"/>
<path d="M534,873.8c-1.3,0-2.6-0.3-3.7-1.1c-1.1-0.8-1.9-1.9-2.3-3.1c-0.6-1.5-0.8-3.1-0.8-4.6v-0.3c0-1.7,0.2-3.4,0.8-5
	c0.5-1.3,1.3-2.4,2.3-3.3c1.1-0.8,2.3-1.2,3.7-1.2c0.9,0,1.8,0.2,2.6,0.6c0.8,0.4,1.4,1,1.9,1.7v-6.4l-2.6-0.5v-2.9h7.4V870l2.3,0.5
	v2.9h-6.5l-0.4-2.2c-0.5,0.8-1.2,1.4-2,1.9C535.9,873.5,535,873.8,534,873.8z M535.5,870c1.2,0,2.4-0.6,3-1.7v-7.6
	c-0.3-0.5-0.7-1-1.3-1.3c-0.5-0.3-1.1-0.5-1.8-0.5c-0.7,0-1.5,0.2-2,0.7c-0.6,0.5-0.9,1.2-1.1,2c-0.3,1-0.4,2-0.4,3v0.3
	c-0.1,1.3,0.2,2.6,0.8,3.7C533.3,869.6,534.4,870.1,535.5,870L535.5,870z"/>
<path d="M553.3,873.8c-1.5,0.1-3.1-0.4-4.3-1.4c-1.8-1.8-2.1-4.7-0.7-6.9c0.7-0.9,1.6-1.6,2.7-2c1.4-0.5,2.9-0.8,4.4-0.7h2.4v-1.3
	c0.1-1.5-1-2.8-2.5-2.9c-0.2,0-0.3,0-0.5,0c-0.5,0-0.9,0.1-1.4,0.2c-0.4,0.1-0.8,0.3-1.1,0.5l-0.4,2.4h-3.5l-0.1-4.7
	c1-0.5,2-1,3-1.3c1.2-0.3,2.4-0.5,3.7-0.5c2-0.1,4,0.5,5.6,1.6c1.4,1.2,2.1,2.9,2,4.7v8.1c0,0.2,0,0.5,0.1,0.7l1.9,0.3v2.9h-6
	c-0.1-0.3-0.3-0.6-0.4-1c-0.1-0.3-0.2-0.7-0.3-1.1c-0.5,0.7-1.2,1.3-2,1.8C555.2,873.6,554.2,873.8,553.3,873.8z M554.6,870.2
	c0.7,0,1.3-0.2,1.9-0.5c0.6-0.3,1.1-0.7,1.4-1.2v-2.8h-2.4c-0.9-0.1-1.7,0.2-2.4,0.7c-0.5,0.4-0.8,1.1-0.8,1.8
	c0,0.6,0.2,1.1,0.6,1.5C553.4,870,554,870.2,554.6,870.2z"/>
<path d="M566.2,873.4v-2.9l2.3-0.5v-11.1l-2.6-0.5v-2.9h7.1l0.2,2.6c0.6-0.9,1.3-1.6,2.2-2.2c0.9-0.5,2-0.8,3-0.8
	c1.6-0.1,3.1,0.5,4.2,1.7c1,1.1,1.5,2.9,1.5,5.4v7.8l2.3,0.5v2.9h-9.3v-2.9l2.1-0.5v-7.8c0.1-0.9-0.2-1.8-0.7-2.6
	c-0.6-0.5-1.3-0.8-2.1-0.8c-0.6,0-1.3,0.1-1.8,0.4c-0.5,0.3-1,0.7-1.3,1.3v9.4l2,0.5v2.9H566.2z"/>
<path d="M595.8,880.7c-1,0-2-0.1-3-0.3c-1-0.2-2-0.5-3-1l0.9-3.5c0.8,0.3,1.6,0.6,2.5,0.8c0.8,0.2,1.6,0.3,2.4,0.3
	c1.1,0.1,2.1-0.3,2.8-1.1c0.6-0.9,1-1.9,0.9-3v-1.2c-1,1.4-2.6,2.1-4.3,2.1c-1.3,0-2.7-0.3-3.8-1.1c-1.1-0.8-1.9-1.9-2.4-3.1
	c-0.6-1.5-0.9-3-0.8-4.6v-0.3c0-1.7,0.2-3.4,0.8-5c0.5-1.3,1.3-2.4,2.4-3.3c1.1-0.8,2.4-1.2,3.7-1.2c1,0,1.9,0.2,2.8,0.7
	c0.8,0.5,1.5,1.1,2,1.9l0.3-2.3h4.2v17.5c0,1.4-0.3,2.9-1,4.1c-0.7,1.2-1.7,2.1-2.9,2.7C598.9,880.4,597.4,880.7,595.8,880.7z
	 M596.4,870c0.6,0,1.2-0.1,1.8-0.4c0.5-0.3,0.9-0.7,1.2-1.2v-7.8c-0.6-1.1-1.8-1.8-3-1.7c-0.7,0-1.5,0.2-2,0.7c-0.6,0.6-1,1.2-1.2,2
	c-0.3,1-0.4,2-0.4,3v0.3c-0.1,1.3,0.2,2.6,0.8,3.7C594.2,869.6,595.3,870.1,596.4,870L596.4,870z M603.6,859l-2.1-3.5h4.8v2.9
	L603.6,859z"/>
<path d="M616.2,873.8c-1.6,0-3.1-0.4-4.5-1.1c-1.3-0.7-2.3-1.8-3-3.1c-0.7-1.4-1.1-3-1-4.5v-0.7c0-1.6,0.3-3.3,1-4.7
	c0.6-1.3,1.6-2.4,2.8-3.3c1.3-0.8,2.8-1.2,4.3-1.2c1.4,0,2.8,0.3,4.1,1c1.1,0.6,2,1.6,2.5,2.8c0.6,1.4,0.9,2.9,0.9,4.4v2.6h-10.5
	v0.1c0,0.7,0.2,1.4,0.6,2.1c0.3,0.6,0.8,1.1,1.4,1.4c0.7,0.4,1.4,0.5,2.2,0.5c0.8,0,1.7-0.1,2.5-0.3c0.8-0.2,1.5-0.6,2.3-1l1.3,3
	c-0.8,0.7-1.8,1.2-2.8,1.5C618.8,873.6,617.5,873.8,616.2,873.8z M612.7,862.7h6v-0.4c0-0.6-0.1-1.3-0.3-1.9
	c-0.2-0.5-0.5-0.9-0.9-1.2c-0.5-0.3-1.1-0.5-1.7-0.4c-0.6,0-1.2,0.2-1.6,0.5c-0.4,0.4-0.8,0.8-1,1.4
	C613,861.2,612.8,861.9,612.7,862.7L612.7,862.7z"/>
<path d="M625.9,873.4v-2.9l2.3-0.5v-11.1l-2.6-0.5v-2.9h7.1l0.2,2.2v0.4c0.4-0.9,0.9-1.6,1.6-2.2c0.7-0.5,1.5-0.8,2.3-0.8
	c0.3,0,0.7,0,1,0.1c0.3,0,0.6,0.1,0.9,0.2l-0.5,4.5l-2.4-0.1c-0.6-0.1-1.2,0.1-1.7,0.3c-0.5,0.3-0.8,0.7-1.1,1.1v8.8l2.3,0.5v2.9
	H625.9z"/>
<path d="M648.5,873.8c-1.6,0-3.1-0.4-4.5-1.1c-1.3-0.7-2.3-1.8-3-3.1c-0.7-1.4-1.1-3-1.1-4.5v-0.7c0-1.6,0.3-3.3,1-4.7
	c0.6-1.3,1.6-2.4,2.8-3.3c1.3-0.8,2.8-1.2,4.3-1.2c1.4,0,2.8,0.3,4.1,1c1.1,0.6,2,1.6,2.5,2.8c0.6,1.4,0.9,2.9,0.9,4.4v2.6H645v0.1
	c0.1,0.7,0.3,1.4,0.6,2.1c0.3,0.6,0.8,1.1,1.4,1.4c0.7,0.4,1.4,0.5,2.2,0.5c0.8,0,1.7-0.1,2.5-0.3c0.8-0.2,1.5-0.6,2.3-1l1.3,3
	c-0.8,0.7-1.8,1.2-2.8,1.5C651.1,873.6,649.8,873.8,648.5,873.8z M645,862.7h6v-0.4c0-0.6-0.1-1.3-0.3-1.9c-0.2-0.5-0.5-0.9-0.9-1.2
	c-0.5-0.3-1.1-0.5-1.7-0.4c-0.6,0-1.2,0.2-1.6,0.5c-0.4,0.4-0.8,0.8-1,1.4C645.2,861.2,645.1,861.9,645,862.7L645,862.7z"/>
<path d="M664.7,873.8c-1.3,0-2.6-0.3-3.7-1.1c-1.1-0.8-1.9-1.9-2.3-3.1c-0.6-1.5-0.8-3.1-0.8-4.6v-0.3c0-1.7,0.2-3.4,0.8-5
	c0.5-1.3,1.3-2.4,2.3-3.3c1-0.8,2.3-1.2,3.7-1.2c0.9,0,1.8,0.2,2.6,0.6c0.8,0.4,1.4,1,1.9,1.7v-6.4l-2.6-0.5v-2.9h7.4V870l2.3,0.5
	v2.9h-6.5l-0.4-2.2c-0.5,0.8-1.2,1.4-2,1.9C666.6,873.5,665.6,873.8,664.7,873.8z M666.1,870c0.6,0,1.2-0.1,1.8-0.4
	c0.5-0.3,1-0.7,1.3-1.2v-7.6c-0.3-0.5-0.7-1-1.3-1.3c-0.5-0.3-1.1-0.5-1.8-0.5c-0.7,0-1.5,0.2-2,0.7c-0.6,0.6-0.9,1.2-1.1,2
	c-0.2,1-0.4,2-0.3,3v0.3c-0.1,1.3,0.2,2.6,0.8,3.7C664,869.6,665.1,870.1,666.1,870z"/>
<path d="M686.5,873.4v-2.9l2.3-0.5v-11.1h-2.7v-3.4h2.7v-2c-0.1-1.7,0.5-3.4,1.7-4.7c1.3-1.2,3.1-1.7,4.8-1.6c0.6,0,1.1,0,1.7,0.1
	c0.5,0.1,1,0.2,1.5,0.3l-0.4,3.6c-0.3-0.1-0.6-0.1-0.9-0.2c-0.3,0-0.7-0.1-1-0.1c-0.7-0.1-1.4,0.2-1.9,0.7c-0.4,0.5-0.7,1.2-0.6,1.9
	v2h4.1v3.4h-4.1V870l3.2,0.5v2.9L686.5,873.4z"/>
<path d="M699.9,873.4v-2.9l2.3-0.5v-11.1l-2.6-0.5v-2.9h7.1l0.2,2.2v0.4c0.4-0.9,0.9-1.6,1.7-2.2c0.7-0.5,1.5-0.8,2.3-0.8
	c0.6,0,1.3,0.1,1.9,0.3l-0.5,4.5l-2.4-0.1c-0.6-0.1-1.2,0.1-1.7,0.3c-0.5,0.3-0.8,0.7-1.1,1.1v8.8l2.3,0.5v2.9H699.9z"/>
<path d="M722.4,873.8c-1.6,0-3.2-0.4-4.6-1.2c-1.3-0.8-2.3-1.9-2.9-3.2c-0.7-1.5-1-3.1-1-4.8v-0.3c0-1.6,0.3-3.3,1-4.7
	c0.6-1.3,1.6-2.5,2.9-3.2c2.8-1.6,6.3-1.6,9.1,0c1.3,0.8,2.3,1.9,2.9,3.2c0.7,1.5,1,3.1,1,4.8v0.3c0,1.6-0.3,3.3-1,4.8
	c-0.6,1.3-1.6,2.5-2.9,3.2C725.6,873.4,724,873.8,722.4,873.8z M722.4,870c0.7,0,1.4-0.2,2-0.7c0.6-0.5,1-1.2,1.2-1.9
	c0.3-0.9,0.4-1.9,0.4-2.8v-0.3c0-1-0.1-1.9-0.4-2.8c-0.2-0.7-0.6-1.4-1.2-1.9c-1.2-0.9-2.9-0.9-4.2,0c-0.6,0.5-1,1.2-1.2,1.9
	c-0.3,0.9-0.4,1.9-0.4,2.8v0.3c0,1,0.1,1.9,0.4,2.8c0.2,0.7,0.6,1.4,1.2,1.9C720.9,869.9,721.7,870.1,722.4,870L722.4,870z"/>
<path d="M732.9,873.4v-2.9l2.3-0.5v-11.1l-2.6-0.5v-2.9h7.1l0.2,2.4c0.5-0.8,1.3-1.5,2.2-2c0.9-0.5,2-0.7,3-0.7c1.1,0,2.1,0.2,3,0.8
	c0.9,0.5,1.5,1.4,1.8,2.3c0.5-0.9,1.3-1.7,2.2-2.3c0.9-0.6,2-0.8,3.1-0.8c1.6-0.1,3.2,0.6,4.2,1.8c1,1.2,1.5,3,1.5,5.5v7.6l2.3,0.5
	v2.9H754v-2.9l2.1-0.5v-7.6c0.1-1-0.1-1.9-0.7-2.8c-0.5-0.5-1.2-0.8-1.9-0.8c-0.7,0-1.4,0.2-1.9,0.6c-0.5,0.4-0.9,1-1.1,1.7v8.8
	l2,0.5v2.9h-8.8v-2.9l2-0.5v-7.6c0.1-1-0.1-1.9-0.7-2.7c-0.5-0.6-1.2-0.9-1.9-0.8c-0.6,0-1.2,0.1-1.8,0.4c-0.5,0.3-0.9,0.7-1.2,1.2
	v9.5l2.1,0.5v2.9L732.9,873.4z"/>
<text transform="matrix(1 0 0 1 369.78 922.41)" class="st2 st3">2008</text>
<text transform="matrix(1 0 0 1 369.78 527.3)" class="st2 st3">W</text>
<text transform="matrix(1 0 0 1 399.87 527.3)" class="st2 st3">etlands (inland)</text>
<text transform="matrix(1 0 0 1 369.78 387.41)" class="st2 st3">Sier</text>
<text transform="matrix(1 0 0 1 421.17 387.41)" class="st2 st3">r</text>
<text transform="matrix(1 0 0 1 432.69 387.41)" class="st2 st3">a N</text>
<text transform="matrix(1 0 0 1 476.37 387.41)" class="st2 st3">e</text>
<text transform="matrix(1 0 0 1 491.7 387.41)" class="st2 st3">vada mountain </text>
<text transform="matrix(1 0 0 1 691.26 387.41)" class="st2 st3">r</text>
<text transform="matrix(1 0 0 1 702.78 387.41)" class="st2 st3">ange</text>
<path d="M340,335.8c-2.1,0.1-4.3-0.4-6.1-1.5c-1.7-1-3-2.4-3.9-4.1c-0.9-1.9-1.4-4-1.4-6.2v-0.8c0-2.2,0.4-4.4,1.4-6.4
	c0.8-1.8,2.2-3.3,3.8-4.3c1.8-1.1,3.8-1.6,5.8-1.6c1.7,0,3.3,0.2,4.9,0.7c1.5,0.4,2.8,1.2,4,2.1v5.3h-3.6l-0.7-3.2
	c-0.5-0.4-1.1-0.7-1.7-0.9c-0.8-0.2-1.7-0.4-2.5-0.3c-1.3,0-2.5,0.3-3.5,1.1c-1,0.8-1.8,1.8-2.3,3c-0.5,1.4-0.8,2.9-0.8,4.4v0.9
	c0,1.5,0.2,2.9,0.8,4.3c0.5,1.1,1.2,2.1,2.3,2.8c1.1,0.7,2.4,1,3.7,1c0.8,0,1.6-0.1,2.4-0.2c0.6-0.1,1.2-0.3,1.8-0.6v-4.1l-3.5-0.3
	v-3.4h8.3v9.8c-1.2,0.8-2.5,1.4-3.9,1.9C343.6,335.5,341.8,335.8,340,335.8z"/>
<path d="M360.7,335.8c-1.6,0-3.1-0.4-4.5-1.1c-1.3-0.7-2.3-1.8-3-3.1c-0.7-1.4-1.1-3-1-4.5v-0.7c0-1.6,0.3-3.3,1-4.7
	c0.6-1.3,1.6-2.4,2.8-3.3c1.3-0.8,2.8-1.2,4.3-1.2c1.4,0,2.8,0.3,4.1,1c1.1,0.6,2,1.6,2.5,2.8c0.6,1.4,0.9,2.9,0.9,4.4v2.6h-10.6
	v0.1c0.1,0.7,0.3,1.4,0.6,2.1c0.3,0.6,0.8,1.1,1.4,1.4c0.7,0.4,1.4,0.5,2.2,0.5c0.8,0,1.7-0.1,2.5-0.3c0.8-0.2,1.5-0.6,2.3-1l1.3,3
	c-0.8,0.7-1.8,1.2-2.8,1.5C363.4,335.6,362,335.8,360.7,335.8z M357.3,324.7h6v-0.4c0-0.6-0.1-1.3-0.3-1.9c-0.2-0.5-0.5-0.9-0.9-1.2
	c-0.5-0.3-1.1-0.5-1.6-0.4c-0.6,0-1.2,0.2-1.6,0.5c-0.4,0.4-0.8,0.8-1,1.4C357.5,323.2,357.3,323.9,357.3,324.7L357.3,324.7z"/>
<path d="M378.6,335.8c-1.6,0-3.2-0.4-4.6-1.2c-1.3-0.8-2.3-1.9-2.9-3.2c-0.7-1.5-1-3.1-1-4.8v-0.4c0-1.6,0.3-3.3,1-4.7
	c0.6-1.3,1.6-2.5,2.9-3.2c2.8-1.6,6.3-1.6,9.1,0c1.3,0.8,2.3,1.9,2.9,3.2c0.7,1.5,1,3.1,1,4.8v0.4c0,1.6-0.3,3.3-1,4.8
	c-0.6,1.3-1.6,2.5-2.9,3.2C381.8,335.4,380.2,335.8,378.6,335.8z M378.6,332c0.7,0,1.5-0.2,2.1-0.7c0.6-0.5,1-1.2,1.2-1.9
	c0.3-0.9,0.4-1.9,0.4-2.8v-0.4c0-1-0.1-1.9-0.4-2.8c-0.2-0.7-0.6-1.4-1.2-1.9c-1.2-0.9-2.9-0.9-4.1,0c-0.6,0.5-1,1.2-1.2,1.9
	c-0.3,0.9-0.4,1.9-0.4,2.8v0.4c0,1,0.1,1.9,0.4,2.9c0.2,0.7,0.6,1.4,1.2,1.9C377.1,331.9,377.9,332.1,378.6,332L378.6,332z"/>
<path d="M397.3,342.7c-1,0-2.1-0.1-3.1-0.4c-1-0.2-2-0.5-3-1l0.9-3.5c0.8,0.3,1.6,0.6,2.5,0.8c0.8,0.2,1.6,0.3,2.4,0.3
	c1.1,0.1,2.1-0.3,2.9-1.1c0.6-0.9,1-1.9,0.9-3v-1.2c-1,1.4-2.7,2.1-4.4,2.1c-1.3,0-2.7-0.3-3.8-1.1c-1.1-0.8-1.9-1.9-2.4-3.1
	c-0.6-1.5-0.9-3-0.8-4.6v-0.4c0-1.7,0.2-3.4,0.8-5c0.5-1.3,1.3-2.4,2.4-3.3c1.1-0.8,2.4-1.2,3.7-1.2c1,0,1.9,0.2,2.8,0.7
	c0.8,0.5,1.5,1.1,2,1.9l0.4-2.3h4.2v17.5c0,1.4-0.3,2.9-1,4.1c-0.7,1.2-1.7,2.1-2.9,2.7C400.4,342.4,398.9,342.7,397.3,342.7z
	 M397.8,332c0.6,0,1.2-0.1,1.8-0.4c0.5-0.3,0.9-0.7,1.2-1.2v-7.8c-0.3-0.5-0.7-1-1.2-1.3c-0.5-0.3-1.1-0.5-1.8-0.5
	c-0.7,0-1.4,0.2-2,0.7c-0.6,0.5-1,1.2-1.1,2c-0.3,1-0.4,2-0.4,3v0.4c-0.1,1.3,0.2,2.6,0.8,3.7C395.7,331.6,396.8,332.1,397.8,332
	L397.8,332z M405.1,321l-2.1-3.5h4.8v2.9L405.1,321z"/>
<path d="M409.7,335.4v-2.9l2.3-0.5v-11.1l-2.6-0.5v-2.9h7.1l0.2,2.2v0.4c0.4-0.9,0.9-1.6,1.6-2.2c0.7-0.5,1.5-0.8,2.3-0.8
	c0.3,0,0.6,0,1,0.1c0.3,0,0.6,0.1,0.9,0.2l-0.5,4.5l-2.4-0.1c-0.6,0-1.1,0.1-1.6,0.4c-0.5,0.3-0.8,0.7-1.1,1.1v8.8l2.3,0.5v2.9
	L409.7,335.4z"/>
<path d="M429.7,335.8c-1.5,0.1-3.1-0.4-4.3-1.4c-1.1-1-1.6-2.4-1.6-3.9c0-1.1,0.3-2.1,0.9-3c0.7-0.9,1.6-1.6,2.7-2
	c1.4-0.5,2.9-0.8,4.4-0.7h2.4v-1.3c0.1-1.5-1-2.8-2.5-2.9c-0.2,0-0.3,0-0.5,0c-0.5,0-0.9,0.1-1.4,0.2c-0.4,0.1-0.8,0.3-1.1,0.5
	l-0.4,2.4h-3.5l-0.1-4.7c1-0.5,2-1,3-1.3c1.2-0.3,2.4-0.5,3.7-0.5c2-0.1,4,0.5,5.6,1.6c1.4,1.2,2.1,2.9,2,4.7v7.4c0,0.3,0,0.5,0,0.7
	s0,0.5,0.1,0.7l1.9,0.3v2.9h-6c-0.1-0.3-0.3-0.6-0.4-1c-0.1-0.3-0.2-0.7-0.3-1.1c-0.5,0.7-1.2,1.3-2,1.8
	C431.6,335.5,430.6,335.8,429.7,335.8z M431,332.2c0.7,0,1.3-0.2,1.9-0.5c0.6-0.3,1.1-0.7,1.4-1.2v-2.8h-2.4
	c-0.9-0.1-1.7,0.2-2.4,0.7c-0.5,0.4-0.8,1.1-0.8,1.8c0,0.6,0.2,1.1,0.6,1.5C429.8,332,430.4,332.2,431,332.2L431,332.2z"/>
<path d="M442.7,342.3v-2.9l2.3-0.5v-18l-2.6-0.5v-2.9h7l0.2,2.1c0.5-0.7,1.2-1.3,1.9-1.8c0.8-0.4,1.8-0.7,2.7-0.6
	c1.3,0,2.6,0.4,3.7,1.2c1.1,0.9,1.9,2,2.4,3.3c0.6,1.6,0.9,3.3,0.8,5v0.4c0,1.6-0.2,3.2-0.8,4.6c-0.5,1.2-1.3,2.3-2.4,3.1
	c-1.1,0.8-2.4,1.1-3.7,1.1c-0.9,0-1.7-0.2-2.5-0.5c-0.7-0.4-1.4-0.9-1.9-1.5v5.2l2.3,0.5v2.9L442.7,342.3z M452.9,332.1
	c1.1,0.1,2.1-0.4,2.7-1.4c0.6-1.1,0.9-2.4,0.8-3.7v-0.4c0-1-0.1-2-0.4-3c-0.2-0.8-0.6-1.5-1.2-2c-0.6-0.5-1.3-0.7-2-0.7
	c-0.6,0-1.2,0.1-1.8,0.5c-0.5,0.3-0.9,0.8-1.2,1.3v7.9c0.3,0.5,0.7,0.9,1.2,1.2C451.7,331.9,452.3,332.1,452.9,332.1z"/>
<path d="M462.8,335.4v-2.9l2.3-0.5v-19.1l-2.6-0.5v-2.9h7.4v10.2c0.5-0.8,1.3-1.5,2.1-1.9c0.9-0.5,1.9-0.7,2.9-0.7
	c1.6-0.1,3.2,0.6,4.3,1.8c1.1,1.2,1.6,3.1,1.6,5.6v7.5l2.3,0.5v2.9h-9.3v-2.9l2.1-0.5v-7.5c0.1-1-0.2-2-0.7-2.8
	c-0.6-0.6-1.3-0.9-2.1-0.8c-0.6,0-1.2,0.1-1.8,0.4c-0.5,0.3-1,0.7-1.3,1.2v9.5l2.1,0.5v2.9H462.8z"/>
<path d="M488.6,342.7c-0.4,0-0.9,0-1.3-0.1c-0.4-0.1-0.9-0.2-1.3-0.3l0.5-3.5c0.2,0,0.5,0.1,0.7,0.1h0.7c0.6,0,1.3-0.2,1.8-0.5
	c0.5-0.4,0.9-0.9,1.1-1.6l0.4-1.1l-6-14.9l-2.2-0.3v-2.9h9.5v2.9l-2.2,0.3l2.8,7.9l0.4,1h0.1l3.3-8.9l-2.1-0.3v-2.9h8.9v2.9l-2,0.3
	l-6.9,17.4c-0.3,0.8-0.7,1.6-1.3,2.3c-0.5,0.7-1.2,1.3-2,1.7C490.5,342.5,489.6,342.7,488.6,342.7z"/>
<path d="M328.7,483.4v-2.9l2.6-0.5v-17.4l-2.6-0.5v-2.9h10v2.9l-2.6,0.5v7h9.9v-7l-2.6-0.5v-2.9h10v2.9l-2.6,0.5V480l2.6,0.5v2.9
	h-10v-2.9l2.6-0.5v-6.6h-9.9v6.6l2.6,0.5v2.9H328.7z"/>
<path d="M361.4,483.8c-1.5,0.1-3.1-0.4-4.3-1.4c-1.1-1-1.7-2.4-1.6-3.9c0-1.1,0.3-2.1,0.9-3c0.7-0.9,1.6-1.6,2.7-2
	c1.4-0.5,2.9-0.8,4.4-0.7h2.3v-1.3c0.1-1.5-1-2.8-2.5-2.9c-0.2,0-0.3,0-0.5,0c-0.5,0-0.9,0.1-1.4,0.2c-0.4,0.1-0.8,0.3-1.1,0.5
	l-0.4,2.4h-3.5l-0.1-4.7c1-0.5,2-1,3.1-1.3c1.2-0.3,2.4-0.5,3.7-0.5c2-0.1,4,0.5,5.6,1.6c1.4,1.2,2.1,2.9,2,4.7v7.4
	c0,0.3,0,0.5,0,0.7c0,0.2,0,0.5,0.1,0.7l1.9,0.3v2.9h-6c-0.1-0.3-0.2-0.6-0.4-1c-0.1-0.3-0.2-0.7-0.3-1.1c-0.5,0.7-1.2,1.3-2,1.8
	C363.3,483.5,362.4,483.8,361.4,483.8z M362.7,480.2c0.7,0,1.3-0.2,1.9-0.5c0.6-0.3,1.1-0.7,1.4-1.2v-2.8h-2.4
	c-0.9-0.1-1.7,0.2-2.4,0.7c-0.5,0.4-0.8,1.1-0.8,1.8c0,0.6,0.2,1.1,0.6,1.5C361.5,480,362.1,480.2,362.7,480.2L362.7,480.2z"/>
<path d="M385.1,483.8c-1,0-2-0.2-2.9-0.6c-0.8-0.5-1.5-1.1-2-1.9l-0.3,2.2h-4.2v-22.5l-2.6-0.5v-2.9h7.4v9.8
	c0.5-0.7,1.2-1.3,1.9-1.7c0.8-0.4,1.7-0.6,2.6-0.6c1.3,0,2.6,0.4,3.7,1.2c1.1,0.9,1.9,2,2.3,3.3c0.6,1.6,0.8,3.3,0.8,5v0.4
	c0,1.6-0.2,3.2-0.8,4.7c-0.5,1.2-1.3,2.3-2.3,3.1C387.7,483.4,386.4,483.8,385.1,483.8z M383.6,480c1.1,0.1,2.1-0.4,2.7-1.3
	c0.6-1.2,0.9-2.4,0.8-3.8v-0.4c0-1-0.1-2-0.4-3c-0.2-0.8-0.6-1.5-1.1-2c-0.5-0.5-1.3-0.7-2-0.7c-0.7,0-1.3,0.2-1.9,0.5
	c-0.5,0.4-0.9,0.8-1.2,1.4v7.5c0.3,0.5,0.7,1,1.3,1.3C382.3,479.9,383,480,383.6,480L383.6,480z"/>
<path d="M393.7,483.4v-2.9l2.3-0.5v-11.1l-2.6-0.5v-2.9h7.4V480l2.3,0.5v2.9H393.7z M395.9,461.6v-4.1h5v4.1H395.9z"/>
<path d="M411.9,483.8c-1.4,0.1-2.8-0.4-3.9-1.4c-1-1.2-1.5-2.8-1.4-4.4v-9.2h-2.5v-3.4h2.5v-4.4h4.8v4.4h3.3v3.4h-3.3v9.1
	c-0.1,0.5,0.1,1.1,0.4,1.5c0.3,0.3,0.8,0.5,1.2,0.5c0.3,0,0.6,0,0.9-0.1c0.3,0,0.6-0.1,0.8-0.1l0.4,3.5c-0.5,0.1-1.1,0.3-1.6,0.4
	C413,483.7,412.4,483.8,411.9,483.8z"/>
<path d="M423,483.8c-1.5,0.1-3.1-0.4-4.3-1.4c-1.8-1.8-2.1-4.7-0.7-6.9c0.7-0.9,1.6-1.6,2.7-2c1.4-0.5,2.9-0.8,4.4-0.7h2.4v-1.3
	c0.1-1.5-1-2.8-2.5-2.9c-0.2,0-0.3,0-0.5,0c-0.5,0-0.9,0.1-1.4,0.2c-0.4,0.1-0.8,0.3-1.1,0.5l-0.4,2.4h-3.5l-0.1-4.7
	c1-0.5,2-1,3-1.3c1.2-0.3,2.4-0.5,3.7-0.5c2-0.1,4,0.5,5.6,1.6c1.4,1.1,2.2,2.9,2,4.7v8.1c0,0.2,0,0.5,0.1,0.7l1.9,0.3v2.9h-6
	c-0.1-0.3-0.3-0.6-0.4-1c-0.1-0.3-0.2-0.7-0.3-1.1c-0.5,0.7-1.2,1.3-2,1.8C424.9,483.6,424,483.8,423,483.8z M424.3,480.2
	c0.7,0,1.3-0.2,1.9-0.5c0.6-0.3,1.1-0.7,1.4-1.2v-2.8h-2.4c-0.9-0.1-1.7,0.2-2.4,0.7c-0.5,0.4-0.8,1.1-0.8,1.8
	c0,0.6,0.2,1.1,0.6,1.5C423.1,480,423.7,480.2,424.3,480.2L424.3,480.2z"/>
<path d="M443.2,483.8c-1.4,0.1-2.8-0.4-3.9-1.4c-1-1.2-1.5-2.8-1.4-4.4v-9.2h-2.5v-3.4h2.5v-4.4h4.8v4.4h3.3v3.4h-3.3v9.1
	c0,0.5,0.1,1.1,0.4,1.5c0.3,0.3,0.8,0.5,1.2,0.5c0.3,0,0.6,0,0.9-0.1c0.3,0,0.6-0.1,0.8-0.1l0.4,3.5c-0.5,0.1-1.1,0.3-1.6,0.4
	C444.4,483.7,443.8,483.8,443.2,483.8z"/>
<path d="M463.8,483.8c-1.4,0.1-2.8-0.4-3.9-1.4c-1-1.2-1.5-2.8-1.4-4.4v-9.2h-2.5v-3.4h2.5v-4.4h4.8v4.4h3.3v3.4h-3.3v9.1
	c0,0.5,0.1,1.1,0.4,1.5c0.3,0.3,0.8,0.5,1.2,0.5c0.3,0,0.6,0,0.9-0.1c0.3,0,0.6-0.1,0.8-0.1l0.4,3.5c-0.5,0.2-1.1,0.3-1.6,0.4
	C464.9,483.7,464.3,483.8,463.8,483.8z"/>
<path d="M473.9,490.7c-0.4,0-0.9,0-1.3-0.1c-0.5-0.1-0.9-0.2-1.3-0.3l0.5-3.5c0.2,0,0.5,0.1,0.7,0.1h0.7c0.6,0,1.3-0.2,1.8-0.5
	c0.5-0.4,0.9-0.9,1.1-1.6l0.4-1.1l-6-14.9l-2.2-0.3v-2.9h9.5v2.9l-2.2,0.3l2.8,7.9l0.4,1h0.1l3.3-8.9l-2.1-0.3v-2.9h8.9v2.9l-2,0.3
	l-6.9,17.4c-0.3,0.8-0.8,1.6-1.3,2.3c-0.5,0.7-1.2,1.3-2,1.7C475.8,490.5,474.9,490.7,473.9,490.7z"/>
<path d="M490.1,490.3v-2.9l2.3-0.5v-18l-2.6-0.5v-2.9h7l0.2,2.1c0.5-0.7,1.2-1.4,1.9-1.8c0.8-0.4,1.8-0.7,2.7-0.6
	c1.3,0,2.6,0.4,3.7,1.2c1.1,0.9,1.9,2,2.4,3.3c0.6,1.6,0.9,3.3,0.8,5v0.4c0,1.6-0.2,3.2-0.8,4.6c-0.5,1.2-1.3,2.3-2.4,3.1
	c-1.1,0.8-2.4,1.1-3.8,1.1c-0.9,0-1.7-0.2-2.5-0.5c-0.7-0.4-1.4-0.9-1.9-1.5v5.2l2.3,0.5v2.9L490.1,490.3z M500.3,480.1
	c1.1,0.1,2.1-0.4,2.7-1.4c0.6-1.1,0.9-2.4,0.8-3.7v-0.4c0-1-0.1-2-0.4-3c-0.2-0.8-0.6-1.5-1.2-2c-0.5-0.5-1.3-0.7-2-0.7
	c-0.6,0-1.2,0.1-1.8,0.5c-0.5,0.3-0.9,0.7-1.2,1.3v7.9c0.3,0.5,0.7,0.9,1.2,1.2C499.1,479.9,499.7,480.1,500.3,480.1z"/>
<path d="M519.7,483.8c-1.6,0-3.1-0.4-4.5-1.1c-1.3-0.7-2.3-1.8-3-3.1c-0.7-1.4-1.1-3-1.1-4.5v-0.7c0-1.6,0.3-3.3,1-4.7
	c0.6-1.3,1.6-2.4,2.8-3.3c1.3-0.8,2.8-1.2,4.3-1.2c1.4,0,2.8,0.3,4.1,1c1.1,0.6,2,1.6,2.5,2.8c0.6,1.4,0.9,2.9,0.9,4.4v2.6h-10.5
	v0.1c0.1,0.7,0.3,1.4,0.6,2.1c0.3,0.6,0.8,1.1,1.4,1.4c0.7,0.4,1.4,0.5,2.2,0.5c0.8,0,1.7-0.1,2.5-0.3c0.8-0.2,1.5-0.6,2.3-1l1.3,3
	c-0.8,0.7-1.8,1.2-2.8,1.5C522.3,483.6,521,483.8,519.7,483.8z M516.2,472.7h6v-0.4c0-0.6-0.1-1.3-0.3-1.9c-0.2-0.5-0.5-0.9-0.9-1.2
	c-0.5-0.3-1.1-0.5-1.7-0.4c-0.6,0-1.2,0.2-1.6,0.5c-0.4,0.4-0.8,0.8-1,1.4C516.4,471.2,516.3,471.9,516.2,472.7L516.2,472.7z"/>
<path d="M338.6,646.8c-1.6,0-3.3-0.2-4.9-0.6c-1.5-0.4-3-1.1-4.3-2.1v-5.8h3.8l0.5,3.4c0.6,0.5,1.3,0.8,2.1,1
	c0.9,0.3,1.9,0.4,2.9,0.4c0.8,0,1.5-0.1,2.2-0.4c0.5-0.2,1-0.5,1.4-1c0.3-0.5,0.5-1,0.5-1.6c0-0.5-0.1-1.1-0.4-1.5
	c-0.4-0.5-0.8-0.9-1.4-1.2c-0.8-0.4-1.7-0.8-2.6-1.1c-1.6-0.5-3.2-1.1-4.8-1.8c-1.1-0.6-2.1-1.4-2.8-2.4c-0.6-1-1-2.2-0.9-3.4
	c0-1.2,0.4-2.5,1.1-3.5c0.8-1,1.8-1.9,3-2.4c1.4-0.6,2.9-0.9,4.5-0.9c1.7,0,3.3,0.2,4.9,0.7c1.3,0.4,2.6,1.1,3.7,1.9v5.4h-3.6
	l-0.6-3.3c-0.5-0.3-1.1-0.5-1.7-0.7c-0.8-0.2-1.6-0.3-2.4-0.3c-0.7,0-1.4,0.1-2,0.3c-0.5,0.2-1,0.5-1.4,1c-0.3,0.5-0.5,1-0.5,1.6
	c0,0.5,0.2,1,0.5,1.5c0.4,0.5,0.9,0.9,1.5,1.1c0.9,0.5,1.9,0.8,2.9,1.2c2.2,0.5,4.3,1.5,6.1,2.9c1.4,1.2,2.1,3,2.1,4.8
	c0,1.3-0.4,2.5-1.1,3.6c-0.8,1.1-1.9,1.9-3.1,2.3C341.8,646.6,340.2,646.8,338.6,646.8z"/>
<path d="M349.4,646.4v-2.9l2.3-0.5v-11.1l-2.6-0.5v-2.9h7.4V643l2.3,0.5v2.9H349.4z M351.6,624.7v-4.1h5v4.1H351.6z"/>
<path d="M360.9,646.4v-2.8l9.4-11.7h-4.9l-0.5,3.1h-3.5v-6.5h14.8v3.1l-8.8,11.4h5.1l0.7-3.3h3.4v6.8L360.9,646.4z"/>
<path d="M387.2,646.8c-1.6,0-3.1-0.4-4.5-1.1c-1.3-0.7-2.3-1.8-3-3.1c-0.7-1.4-1.1-3-1.1-4.5v-0.7c0-1.6,0.3-3.3,1-4.7
	c0.6-1.3,1.6-2.4,2.8-3.3c1.3-0.8,2.8-1.2,4.3-1.2c1.4,0,2.8,0.3,4.1,1c1.1,0.6,2,1.6,2.5,2.8c0.6,1.4,0.9,2.9,0.9,4.4v2.6h-10.5
	v0.1c0.1,0.7,0.3,1.4,0.6,2.1c0.3,0.6,0.8,1.1,1.4,1.4c0.7,0.4,1.4,0.5,2.2,0.5c0.8,0,1.7-0.1,2.5-0.3c0.8-0.2,1.5-0.6,2.3-1l1.3,3
	c-0.8,0.7-1.8,1.2-2.8,1.5C389.9,646.6,388.5,646.8,387.2,646.8z M383.8,635.7h6v-0.4c0-0.6-0.1-1.3-0.3-1.9
	c-0.2-0.5-0.5-0.9-0.9-1.2c-0.5-0.3-1.1-0.5-1.6-0.4c-0.6,0-1.2,0.2-1.6,0.5c-0.4,0.4-0.8,0.8-1,1.4
	C384,634.2,383.8,634.9,383.8,635.7L383.8,635.7z"/>
<line class="st4" x1="253.5" y1="899.6" x2="253.5" y2="380.1"/>
<circle class="st5" cx="253.5" cy="357.6" r="29.5"/>
<path class="st6" d="M253.7,341.4c6.9,0,12.5,5.6,12.5,12.5l0,0c0,6.7-8.2,15.5-12.5,20.9c-4.3-5.5-12.5-14.2-12.5-20.9
	C241.2,347,246.8,341.4,253.7,341.4L253.7,341.4z M253.7,347c3.8,0,6.9,3.1,6.9,6.9c0,3.8-3.1,6.9-6.9,6.9s-6.9-3.1-6.9-6.9
	C246.8,350.1,249.9,347.1,253.7,347L253.7,347z"/>
<circle class="st5" cx="253.5" cy="523.6" r="29.5"/>
<path class="st1" d="M239.4,527.6c-0.2,0-0.3-0.1-0.5-0.1c-0.4-0.3-0.5-0.8-0.3-1.2l8.3-12.6c0.3-0.4,0.8-0.5,1.2-0.2
	c0.1,0.1,0.2,0.2,0.3,0.3l3.1,5.6l6.4-11.1c0.2-0.3,0.4-0.4,0.8-0.4l0,0c0.3,0,0.6,0.2,0.8,0.4l8.8,15.1c0.2,0.4,0.1,0.9-0.3,1.2
	c-0.4,0.2-0.9,0.1-1.2-0.3c0,0,0,0,0,0l-8-13.8l-6.4,11.1c-0.2,0.3-0.4,0.4-0.8,0.4l0,0c-0.3,0-0.6-0.2-0.8-0.4l-3.2-5.7l-7.6,11.4
	C240,527.5,239.7,527.6,239.4,527.6z"/>
<path class="st1" d="M276.7,528.1c-1.9,0-3.8-0.6-5.3-1.7c-2.6-1.9-6.1-1.9-8.7,0c-3.2,2.3-7.4,2.3-10.6,0c-2.6-1.9-6.1-1.9-8.7,0
	c-3.2,2.3-7.4,2.3-10.6,0c-1.3-0.9-2.8-1.4-4.4-1.4c-0.5,0.1-0.9-0.3-1-0.8c-0.1-0.5,0.3-0.9,0.8-1c0.1,0,0.1,0,0.2,0
	c1.9,0,3.8,0.6,5.3,1.7c2.6,1.9,6.1,1.9,8.7,0c3.2-2.3,7.4-2.3,10.6,0c2.6,1.9,6.1,1.9,8.7,0c3.2-2.3,7.4-2.3,10.6,0
	c1.3,0.9,2.8,1.4,4.4,1.4c0.5-0.1,0.9,0.3,1,0.8c0.1,0.5-0.3,0.9-0.8,1C276.8,528.1,276.8,528.1,276.7,528.1z"/>
<path class="st1" d="M276.7,534.9c-1.9,0-3.8-0.6-5.3-1.7c-2.6-1.9-6.1-1.9-8.7,0c-3.2,2.3-7.4,2.3-10.6,0c-2.6-1.9-6.1-1.9-8.7,0
	c-3.2,2.3-7.4,2.3-10.6,0c-1.2-1-2.8-1.4-4.4-1.4c-0.5,0.1-0.9-0.3-1-0.8c-0.1-0.5,0.3-0.9,0.8-1c0.1,0,0.1,0,0.2,0
	c1.9,0,3.8,0.6,5.3,1.7c2.6,1.9,6.1,1.9,8.7,0c3.2-2.2,7.4-2.2,10.6,0c2.6,1.9,6.1,1.9,8.7,0c3.2-2.2,7.4-2.2,10.6,0
	c1.2,0.9,2.8,1.4,4.4,1.4c0.5,0,0.9,0.4,0.9,0.9C277.6,534.5,277.2,534.9,276.7,534.9C276.7,534.9,276.7,534.9,276.7,534.9
	L276.7,534.9z"/>
<circle class="st5" cx="253.5" cy="721.6" r="29.5"/>
<path class="st1" d="M260.2,703v36.3h-15V703H260.2z M258.4,737.5v-32.7H247v32.7H258.4z"/>
<rect x="246.1" y="732.7" class="st1" width="8.4" height="1.8"/>
<rect x="246.1" y="727.7" class="st1" width="5.4" height="1.8"/>
<rect x="246.1" y="722.8" class="st1" width="8.4" height="1.8"/>
<rect x="246.1" y="717.9" class="st1" width="5.4" height="1.8"/>
<rect x="246.1" y="713" class="st1" width="8.4" height="1.8"/>
<rect x="246.1" y="708" class="st1" width="5.4" height="1.8"/>
<circle class="st5" cx="253.5" cy="891.6" r="29.5"/>
<polygon class="st1" points="258.6,874.6 253.3,901.3 251.7,901.1 250,900.9 251.5,873.8 255.1,874.2 "/>
<circle class="st1" cx="251" cy="907.5" r="2.3"/>
<path class="st7" d="M1995.8,24.1c0,8.6,4.6,16.5,12,20.8l-24.3,90.4l-30.9-86.9c6.5-11.6,2.5-26.3-9.1-32.8
	c-11.6-6.5-26.3-2.5-32.8,9.1s-2.5,26.3,9.1,32.8c2.7,1.5,5.6,2.5,8.6,2.9l33.7,74.8l-67.7-43.2c-1.1-13.3-12.7-23.1-26-22
	s-23.1,12.7-22,26c1.1,13.3,12.7,23.1,26,22c4-0.3,7.8-1.6,11.2-3.8l48.6,38.2l81.3,267.4c-81.3-102.7-205.4-102.7-205.4-102.7
	c-113.4,40.6,0,233.2,0,233.2c-15,2.1-12.8,38.5-12.8,38.5c-59.9-51.4-311.1-85.4-311.1-85.4l3.2-24.1
	c59.3-110.7-219.8-181.3-219.8-181.3l-25.6-93.3c6.2-11.7,1.8-26.3-10-32.5c-11.7-6.2-26.3-1.8-32.5,10c-5.9,11.1-2.3,24.8,8.3,31.6
	l35.8,90.7l-118.6-38.2c-2.3-13.1-14.8-21.8-27.9-19.5c-13.1,2.3-21.8,14.8-19.5,27.9c2.3,13.1,14.8,21.8,27.9,19.5
	c3.9-0.7,7.6-2.3,10.7-4.8l119.4,37.5l-100,25.7c-10-8.7-25.2-7.7-34,2.3c-8.7,10-7.7,25.2,2.3,34c10,8.7,25.2,7.7,34-2.3
	c2.2-2.6,3.9-5.6,4.9-8.9l105.6-30l155.6,96.3l-69,46.5c-91.4,3.2-179.7,80.2-179.7,80.2c-62.6,20.8-36.9,61-36.9,61
	c-3.2,11.2-28.9,38.5-28.9,38.5c-32.1-16-35.3,55.3-35.3,55.3v51.7c0,0,3.2,71.4,35.3,55.3c0,0,25.7,27.3,28.9,38.5
	c0,0-25.7,40.1,36.9,61c0,0,88.2,77,179.7,80.2l69,46.5l-155.6,96.1l-105.6-30c-3.9-12.7-17.3-19.9-30-16.1
	c-12.7,3.9-19.9,17.3-16.1,30c3.9,12.7,17.3,19.9,30,16.1c3.3-1,6.3-2.7,8.8-4.9l100,25.7l-119.4,37.5c-10.5-8.2-25.6-6.4-33.8,4.1
	c-8.2,10.5-6.4,25.6,4.1,33.8c10.5,8.2,25.6,6.4,33.8-4.1c2.4-3.1,4.1-6.8,4.8-10.7l118.6-38.2l-35.8,90.7
	c-11.2,7.2-14.5,22-7.3,33.3c7.2,11.2,22,14.5,33.3,7.3c10.6-6.8,14.2-20.5,8.3-31.6l25.6-93.3c0,0,279.2-70.6,219.8-181.3l-3.1-24
	c0,0,251.2-34.1,311.1-85.4c0,0-2.1,36.4,12.8,38.5c0,0-113.4,192.6,0,233.2c0,0,124.1,0,205.4-102.7l-81.3,267.4l-48.6,38.2
	c-11.1-7.2-26.1-4.1-33.3,7.1c-7.2,11.1-4.1,26.1,7.1,33.3c11.1,7.2,26.1,4.1,33.3-7.1c2.2-3.3,3.5-7.2,3.8-11.1l67.7-43.3
	l-33.7,74.9c-13.2,1.8-22.4,13.9-20.6,27.1c1.8,13.2,13.9,22.4,27.1,20.6c13.2-1.8,22.4-13.9,20.6-27.1c-0.4-3-1.4-6-2.9-8.6
	l30.9-86.8l24.3,90.5c-11.5,6.7-15.4,21.4-8.7,32.9s21.4,15.4,32.9,8.7c11.5-6.7,15.4-21.4,8.7-32.9c-3-5.1-7.8-9-13.5-10.8
	l-24.5-103.3l32.9,48.6c-0.8,2.5-1.3,5.1-1.3,7.7c0,13.3,10.8,24.1,24.1,24.1s24.1-10.8,24.1-24.1c0-13.3-10.8-24.1-24.1-24.1
	c-2.3,0-4.5,0.3-6.7,0.9l-49-63c0,0,154-241.8,96.3-380.8c0,0-23.5-53.5-145.5,23.5c0,0,85.6-53.5,81.3-147.6
	c0,0,23.5-40.5,59.9-40.5c0,0,27.8,6.3,27.8-15.2v-21.5c0-21.4-27.8-15.2-27.8-15.2c-36.4,0-59.9-40.5-59.9-40.5
	c4.3-94.1-81.3-147.6-81.3-147.6c122,77,145.5,23.5,145.5,23.5c57.8-139.1-96.3-380.8-96.3-380.8l49-63.1c2.2,0.7,4.4,1,6.7,1
	c13.3,0,24.1-10.8,24.1-24.1S2071.6,70,2058.3,70c-13.3,0-24.1,10.8-24.1,24.1c0,2.6,0.4,5.2,1.3,7.7l-32.9,48.6L2027.1,47
	c10-3.2,16.8-12.5,16.8-22.9c0-13.3-10.8-24.1-24.1-24.1c0,0,0,0,0,0C2006.6,0,1995.8,10.8,1995.8,24.1
	C1995.8,24.1,1995.8,24.1,1995.8,24.1z"/>
<rect y="33.1" class="st8" width="1919" height="1076"/>
</svg>
