<?xml version="1.0" encoding="utf-8"?>
<!-- Generator: Adobe Illustrator 24.1.1, SVG Export Plug-In . SVG Version: 6.00 Build 0)  -->
<svg version="1.1" id="Layer_1" xmlns="http://www.w3.org/2000/svg" xmlns:xlink="http://www.w3.org/1999/xlink" x="0px" y="0px"
	 viewBox="0 0 2046 1137" style="enable-background:new 0 0 2046 1137;" xml:space="preserve">
<style type="text/css">
	.st0{fill:#F2E5D2;stroke:#8B0E3A;stroke-width:4;stroke-miterlimit:10;}
	.st1{fill:#8B0E3A;}
	.st2{fill:#F6F8FA;}
	.st3{fill:#E2BA50;}
	.st4{fill:none;stroke:#00555B;stroke-width:3;stroke-miterlimit:10;}
	.st5{fill:#00555B;stroke:#E2BA50;stroke-width:3;stroke-miterlimit:10;}
	.st6{fill-rule:evenodd;clip-rule:evenodd;fill:#E2BA50;}
	.st7{fill:#C5894D;}
	.st8{fill:#F2E5D2;}
	.st9{fill:none;stroke:#5F6029;stroke-width:3;stroke-miterlimit:10;}
	.st10{fill:#F2E5D2;stroke:#5F6029;stroke-width:4;stroke-miterlimit:10;}
	.st11{fill:#5F6029;}
	.st12{fill:#F2E5D2;stroke:#5F6029;stroke-width:3.7161;stroke-miterlimit:10;}
	.st13{fill-rule:evenodd;clip-rule:evenodd;fill:#F2E5D2;stroke:#5F6029;stroke-width:1.8581;stroke-miterlimit:10;}
	.st14{fill:#F2E5D2;stroke:#5F6029;stroke-width:2;stroke-miterlimit:10;}
	.st15{fill:#00555B;}
	.st16{fill:none;}
	.st17{fill:none;stroke:#8B0E3A;stroke-width:3;stroke-miterlimit:10;}
	.st18{fill:#8B0E3A;stroke:#F2E5D2;stroke-width:3;stroke-miterlimit:10;}
	.st19{fill-rule:evenodd;clip-rule:evenodd;fill:#F2E5D2;}
	.st20{fill:#FFFFFF;}
	.st21{fill:#E0C389;}
	.st22{font-family:'Lato-Regular';}
	.st23{font-size:30px;}
	.st24{fill-rule:evenodd;clip-rule:evenodd;fill:none;}
	.st25{font-family:'Lato-Bold';}
	.st26{fill-rule:evenodd;clip-rule:evenodd;fill:#8B0E3A;}
	.st27{fill:#F2E5D2;stroke:#8B0E3A;stroke-width:3.7161;stroke-miterlimit:10;}
	.st28{fill-rule:evenodd;clip-rule:evenodd;fill:#F2E5D2;stroke:#8B0E3A;stroke-width:1.8581;stroke-miterlimit:10;}
	.st29{fill:#F2E5D2;stroke:#8B0E3A;stroke-width:2;stroke-miterlimit:10;}
</style>
<rect class="st21" width="2046" height="1137"/>
<rect x="126" y="200" class="st8" width="1393" height="783.5"/>
<g>
	<g>
		<path d="M127.1,199.8v-5.5l3.3-0.5l14.5-39.6h9.3l14.4,39.6l3.3,0.5v5.5h-15.5v-5.5l3.2-0.6l-2-6.3h-16l-2,6.3l3.2,0.6v5.5H127.1z
			 M143.6,180.8h11.7l-5.3-15.6l-0.4-1.4h-0.2l-0.5,1.5L143.6,180.8z"/>
		<path d="M175.5,199.8v-5.5l4.4-0.9v-21h-5V166h5v-3.8c0-3.8,1.1-6.7,3.3-8.8c2.2-2.1,5.2-3.1,9.1-3.1c1,0,2,0.1,3.1,0.2
			c1.1,0.2,2,0.3,2.8,0.5l-0.8,6.8c-0.5-0.1-1.1-0.3-1.7-0.3c-0.6-0.1-1.3-0.1-2-0.1c-1.6,0-2.8,0.4-3.5,1.2c-0.8,0.8-1.2,2-1.2,3.5
			v3.8h7.7v6.4H189v21l6,0.9v5.5H175.5z"/>
		<path d="M200.7,199.8v-5.5l4.4-0.9v-21l-4.8-0.9V166h13.3l0.3,4.2l0.1,0.8c0.8-1.8,1.9-3.2,3.1-4.2c1.2-0.9,2.7-1.4,4.4-1.4
			c0.5,0,1.1,0,1.8,0.1c0.6,0.1,1.2,0.2,1.7,0.4l-1,8.4l-4.5-0.3c-1.3-0.1-2.3,0.2-3.1,0.7c-0.8,0.5-1.5,1.2-2.1,2.2v16.6l4.4,0.9
			v5.5H200.7z"/>
		<path d="M227.4,199.8v-5.5l4.4-0.9v-21l-4.9-0.9V166h14v27.4l4.4,0.9v5.5H227.4z M231.5,158.8V151h9.4v7.8H231.5z"/>
		<path d="M264.2,200.4c-3.3,0-6.1-0.7-8.4-2.2c-2.4-1.5-4.2-3.5-5.5-6c-1.3-2.6-1.9-5.5-1.9-8.8v-0.9c0-3.3,0.6-6.3,1.9-8.8
			c1.3-2.6,3.1-4.6,5.5-6c2.4-1.5,5.1-2.2,8.3-2.2c3,0,5.7,0.5,7.9,1.4c2.2,0.9,4,2,5.4,3.3l-0.1,9.7h-6.9l-1.2-6
			c-0.5-0.5-1.1-0.9-1.9-1.2c-0.8-0.3-1.6-0.5-2.3-0.5c-1.7,0-3,0.4-4.1,1.3c-1.1,0.8-1.9,2-2.5,3.6c-0.5,1.5-0.8,3.4-0.8,5.6v0.9
			c0,2.3,0.3,4.2,0.9,5.7c0.6,1.5,1.4,2.6,2.4,3.3c1,0.7,2.1,1.1,3.4,1.1c1.6,0,2.9-0.4,3.9-1.3s1.6-2,2-3.6h7.8l0.1,0.2
			c-0.4,2.4-1.1,4.5-2.1,6.2c-1.1,1.8-2.5,3.1-4.4,4S267.2,200.4,264.2,200.4z"/>
		<path d="M293.4,200.4c-3.4,0-6-0.9-8-2.7c-2-1.8-3-4.3-3-7.4c0-2.1,0.6-4,1.7-5.6c1.2-1.6,2.9-2.9,5.1-3.8c2.3-0.9,5-1.4,8.4-1.4
			h4.5v-2.5c0-1.6-0.5-2.9-1.4-4c-0.9-1-2.4-1.5-4.3-1.5c-1,0-1.9,0.1-2.6,0.4c-0.8,0.2-1.5,0.6-2.1,1l-0.7,4.5h-6.6l-0.1-8.8
			c1.8-1,3.7-1.8,5.8-2.4s4.4-0.9,6.9-0.9c4.4,0,7.9,1,10.5,3.1c2.6,2.1,3.8,5,3.8,8.8v13.9c0,0.5,0,0.9,0,1.4c0,0.4,0,0.9,0.1,1.3
			l3.5,0.5v5.5h-11.3c-0.2-0.6-0.5-1.2-0.7-1.9c-0.2-0.7-0.4-1.3-0.5-2c-1.1,1.4-2.4,2.5-3.8,3.3S295.4,200.4,293.4,200.4z
			 M295.9,193.7c1.3,0,2.5-0.3,3.6-0.9c1.1-0.6,2-1.3,2.7-2.3v-5.3h-4.5c-2,0-3.5,0.5-4.5,1.4c-1,0.9-1.5,2-1.5,3.3
			c0,1.2,0.4,2.1,1.1,2.8C293.5,193.4,294.5,193.7,295.9,193.7z"/>
		<path d="M317.8,199.8v-5.5l4.4-0.9v-21l-4.8-0.9V166h13.3l0.4,4.8c1.1-1.7,2.5-3.1,4.2-4c1.7-1,3.5-1.4,5.7-1.4
			c3.4,0,6,1.1,7.9,3.2c1.9,2.1,2.8,5.5,2.8,10.1v14.7l4.4,0.9v5.5h-17.4v-5.5l3.9-0.9v-14.7c0-2.3-0.4-3.9-1.3-4.8
			c-0.9-0.9-2.2-1.4-4-1.4c-1.3,0-2.5,0.3-3.4,0.8c-1,0.6-1.8,1.3-2.4,2.4v17.8l3.7,0.9v5.5H317.8z"/>
		<path d="M390.9,200.4c-3.2,0-6.1-0.7-8.5-2.1c-2.4-1.4-4.3-3.4-5.6-5.9c-1.3-2.5-2-5.4-2-8.6v-1.3c0-3.4,0.6-6.3,1.9-8.9
			s3-4.6,5.3-6.1c2.3-1.5,5-2.2,8.1-2.2c3.1,0,5.6,0.6,7.7,1.8c2.1,1.2,3.7,2.9,4.8,5.2c1.1,2.3,1.6,5,1.6,8.3v5h-19.9l-0.1,0.2
			c0.1,1.5,0.5,2.8,1.1,4c0.6,1.2,1.5,2.1,2.6,2.7s2.5,1,4.1,1c1.7,0,3.2-0.2,4.7-0.6c1.4-0.4,2.9-1.1,4.2-1.9l2.5,5.6
			c-1.4,1.1-3.2,2.1-5.3,2.8C396.1,200.1,393.6,200.4,390.9,200.4z M384.4,179.6h11.3v-0.8c0-1.4-0.2-2.6-0.5-3.5
			c-0.4-1-0.9-1.8-1.8-2.3c-0.8-0.5-1.8-0.8-3.1-0.8c-1.2,0-2.2,0.3-3.1,1c-0.8,0.6-1.5,1.5-2,2.6c-0.5,1.1-0.8,2.4-1,3.8
			L384.4,179.6z"/>
		<path d="M407.9,199.8v-5.5l4.4-0.9v-35.9l-4.9-0.9V151h14v42.3l4.4,0.9v5.5H407.9z"/>
		<path d="M445,200.4c-3.2,0-6.1-0.7-8.5-2.1c-2.4-1.4-4.3-3.4-5.6-5.9c-1.3-2.5-2-5.4-2-8.6v-1.3c0-3.4,0.6-6.3,1.9-8.9
			s3-4.6,5.3-6.1c2.3-1.5,5-2.2,8.1-2.2c3.1,0,5.6,0.6,7.7,1.8c2.1,1.2,3.7,2.9,4.8,5.2c1.1,2.3,1.6,5,1.6,8.3v5h-19.9l-0.1,0.2
			c0.1,1.5,0.5,2.8,1.1,4c0.6,1.2,1.5,2.1,2.6,2.7s2.5,1,4.1,1c1.7,0,3.2-0.2,4.7-0.6c1.4-0.4,2.9-1.1,4.2-1.9l2.5,5.6
			c-1.4,1.1-3.2,2.1-5.3,2.8C450.2,200.1,447.7,200.4,445,200.4z M438.5,179.6h11.3v-0.8c0-1.4-0.2-2.6-0.5-3.5
			c-0.4-1-0.9-1.8-1.8-2.3c-0.8-0.5-1.8-0.8-3.1-0.8c-1.2,0-2.2,0.3-3.1,1c-0.8,0.6-1.5,1.5-2,2.6c-0.5,1.1-0.8,2.4-1,3.8
			L438.5,179.6z"/>
		<path d="M462.3,212.8v-5.5l4.4-0.9v-33.9l-4.9-0.9V166h13.3l0.4,3.9c1-1.5,2.2-2.6,3.6-3.4c1.4-0.8,3.1-1.2,5.1-1.2
			c2.7,0,5.1,0.7,7,2.2c1.9,1.5,3.4,3.6,4.5,6.2c1,2.7,1.5,5.8,1.5,9.3v0.7c0,3.3-0.5,6.2-1.5,8.7c-1,2.5-2.5,4.4-4.5,5.8
			c-1.9,1.4-4.3,2.1-7,2.1c-1.8,0-3.4-0.3-4.8-1c-1.4-0.7-2.6-1.6-3.5-2.9v9.8l4.4,0.9v5.5H462.3z M481.4,193.4c2.3,0,4-0.9,5.1-2.6
			c1.1-1.7,1.6-4.1,1.6-7v-0.7c0-2.1-0.2-4-0.7-5.6c-0.5-1.6-1.2-2.8-2.2-3.8c-1-0.9-2.3-1.4-3.8-1.4c-1.3,0-2.3,0.3-3.3,0.8
			c-0.9,0.6-1.7,1.4-2.3,2.4v14.8c0.6,1,1.3,1.7,2.3,2.2C479,193.2,480.1,193.4,481.4,193.4z"/>
		<path d="M500.8,199.8v-5.5l4.4-0.9v-35.9l-4.9-0.9V151h14v19.3c1.1-1.6,2.4-2.8,4-3.6c1.6-0.9,3.4-1.3,5.4-1.3
			c3.4,0,6.1,1.1,8.1,3.4c2,2.3,3,5.8,3,10.5v14.2l4.4,0.9v5.5h-17.4v-5.5l3.9-0.9v-14.2c0-2.4-0.5-4.2-1.4-5.2
			c-0.9-1-2.3-1.5-4-1.5c-1.2,0-2.3,0.3-3.4,0.8c-1,0.5-1.8,1.3-2.5,2.2v17.9l3.9,0.9v5.5H500.8z"/>
		<path d="M553.3,200.4c-3.4,0-6-0.9-8-2.7c-2-1.8-3-4.3-3-7.4c0-2.1,0.6-4,1.7-5.6c1.2-1.6,2.9-2.9,5.1-3.8c2.3-0.9,5-1.4,8.4-1.4
			h4.5v-2.5c0-1.6-0.5-2.9-1.4-4c-0.9-1-2.4-1.5-4.3-1.5c-1,0-1.9,0.1-2.6,0.4c-0.8,0.2-1.5,0.6-2.1,1l-0.7,4.5h-6.6l-0.1-8.8
			c1.8-1,3.7-1.8,5.8-2.4s4.4-0.9,6.9-0.9c4.4,0,7.9,1,10.5,3.1c2.6,2.1,3.8,5,3.8,8.8v13.9c0,0.5,0,0.9,0,1.4c0,0.4,0,0.9,0.1,1.3
			l3.5,0.5v5.5h-11.3c-0.2-0.6-0.5-1.2-0.7-1.9c-0.2-0.7-0.4-1.3-0.5-2c-1.1,1.4-2.4,2.5-3.8,3.3S555.2,200.4,553.3,200.4z
			 M555.7,193.7c1.3,0,2.5-0.3,3.6-0.9c1.1-0.6,2-1.3,2.7-2.3v-5.3h-4.5c-2,0-3.5,0.5-4.5,1.4c-1,0.9-1.5,2-1.5,3.3
			c0,1.2,0.4,2.1,1.1,2.8C553.3,193.4,554.3,193.7,555.7,193.7z"/>
		<path d="M577.7,199.8v-5.5l4.4-0.9v-21l-4.8-0.9V166h13.3l0.4,4.8c1.1-1.7,2.5-3.1,4.2-4c1.7-1,3.5-1.4,5.7-1.4
			c3.4,0,6,1.1,7.9,3.2c1.9,2.1,2.8,5.5,2.8,10.1v14.7l4.4,0.9v5.5h-17.4v-5.5l3.9-0.9v-14.7c0-2.3-0.4-3.9-1.3-4.8
			c-0.9-0.9-2.2-1.4-4-1.4c-1.3,0-2.5,0.3-3.4,0.8c-1,0.6-1.8,1.3-2.4,2.4v17.8l3.7,0.9v5.5H577.7z"/>
		<path d="M632.1,200.4c-3.1,0-5.6-0.9-7.3-2.6c-1.7-1.7-2.5-4.5-2.5-8.2v-17.3h-4.7V166h4.7v-8.3h9.1v8.3h6.2v6.4h-6.2v17.2
			c0,1.3,0.3,2.3,0.8,2.8c0.6,0.6,1.3,0.8,2.3,0.8c0.5,0,1.1,0,1.6-0.1c0.6-0.1,1.1-0.2,1.5-0.2l0.8,6.6c-0.9,0.3-2,0.5-3,0.7
			C634.3,200.3,633.2,200.4,632.1,200.4z"/>
	</g>
</g>
<g>
	<g>
		<path d="M339.8,840.7c-1.6,0-3.1-0.3-4.4-0.9c-1.3-0.6-2.5-1.5-3.5-2.6c-1-1.1-1.7-2.4-2.2-3.9c-0.5-1.5-0.8-3.1-0.8-4.9v-0.4
			c0-1.8,0.3-3.4,0.8-4.9c0.5-1.5,1.3-2.8,2.2-3.9c1-1.1,2.1-2,3.5-2.6c1.3-0.6,2.8-0.9,4.4-0.9c1.6,0,3.1,0.3,4.5,0.9
			c1.4,0.6,2.5,1.5,3.5,2.6c1,1.1,1.7,2.4,2.2,3.9c0.5,1.5,0.8,3.1,0.8,4.9v0.4c0,1.8-0.3,3.4-0.8,4.9c-0.5,1.5-1.3,2.8-2.2,3.9
			c-1,1.1-2.1,2-3.5,2.6S341.4,840.7,339.8,840.7z M339.8,836.9c1.4,0,2.5-0.4,3.4-1.1c0.9-0.7,1.6-1.7,2.1-3
			c0.5-1.3,0.7-2.8,0.7-4.4V828c0-1.7-0.2-3.1-0.7-4.4c-0.5-1.3-1.2-2.3-2.1-3c-0.9-0.7-2.1-1.1-3.4-1.1c-1.4,0-2.5,0.4-3.4,1.1
			s-1.6,1.7-2,2.9s-0.7,2.7-0.7,4.4v0.4c0,1.7,0.2,3.2,0.7,4.4c0.4,1.3,1.1,2.3,2,3C337.3,836.6,338.4,836.9,339.8,836.9z"/>
		<path d="M353.1,840.3v-2.9l2.3-0.5v-11.2h-2.7v-3.4h2.7v-2c0-2,0.6-3.6,1.7-4.7c1.2-1.1,2.8-1.6,4.9-1.6c0.5,0,1.1,0,1.6,0.1
			c0.6,0.1,1.1,0.2,1.5,0.3l-0.4,3.6c-0.3-0.1-0.6-0.1-0.9-0.2c-0.3,0-0.7-0.1-1-0.1c-0.8,0-1.5,0.2-1.9,0.6
			c-0.4,0.4-0.6,1.1-0.6,1.9v2h4.1v3.4h-4.1v11.2l3.2,0.5v2.9H353.1z"/>
		<path d="M365.7,840.3v-2.9l2.6-0.5v-11.2h-2.7v-3.4h2.7v-1.2c0-2.3,0.7-4,2.1-5.2c1.4-1.2,3.3-1.8,5.8-1.8c0.9,0,1.7,0.1,2.6,0.3
			c0.8,0.2,1.8,0.4,2.9,0.7l-0.7,3.8c-0.8-0.2-1.5-0.4-2.2-0.6c-0.7-0.1-1.4-0.2-2.1-0.2c-1.2,0-2.1,0.3-2.7,0.8
			c-0.6,0.5-0.9,1.3-0.9,2.2v1.2H384v14.6l2.6,0.5v2.9h-9.8v-2.9l2.3-0.5v-11.2h-6v11.2l2.3,0.5v2.9H365.7z"/>
		<path d="M396.7,840.7c-1.7,0-3.2-0.4-4.5-1.2c-1.3-0.8-2.2-1.8-2.9-3.2c-0.7-1.4-1-2.9-1-4.7v-0.5c0-1.8,0.3-3.3,1-4.7
			c0.7-1.4,1.7-2.4,2.9-3.2c1.3-0.8,2.7-1.2,4.4-1.2c1.6,0,3,0.3,4.2,0.8c1.2,0.5,2.1,1.1,2.8,1.8l0,5.1H400l-0.6-3.2
			c-0.3-0.3-0.6-0.5-1-0.6c-0.4-0.2-0.8-0.2-1.2-0.2c-0.9,0-1.6,0.2-2.2,0.7s-1,1.1-1.3,1.9c-0.3,0.8-0.4,1.8-0.4,3v0.5
			c0,1.2,0.2,2.2,0.5,3c0.3,0.8,0.7,1.4,1.3,1.8c0.5,0.4,1.1,0.6,1.8,0.6c0.9,0,1.5-0.2,2.1-0.7c0.5-0.4,0.9-1.1,1.1-1.9h4.2l0,0.1
			c-0.2,1.3-0.6,2.4-1.1,3.3c-0.6,0.9-1.3,1.6-2.4,2.1S398.3,840.7,396.7,840.7z"/>
		<path d="M406.1,840.3v-2.9l2.3-0.5v-11.1l-2.6-0.5v-2.9h7.4v14.6l2.3,0.5v2.9H406.1z M408.3,818.6v-4.1h5v4.1H408.3z"/>
		<path d="M423.2,840.7c-1.8,0-3.2-0.5-4.3-1.4c-1.1-1-1.6-2.3-1.6-3.9c0-1.1,0.3-2.1,0.9-3s1.5-1.5,2.7-2c1.2-0.5,2.7-0.7,4.4-0.7
			h2.4v-1.3c0-0.9-0.3-1.6-0.8-2.1c-0.5-0.5-1.3-0.8-2.3-0.8c-0.5,0-1,0.1-1.4,0.2c-0.4,0.1-0.8,0.3-1.1,0.5l-0.4,2.4h-3.5l-0.1-4.7
			c0.9-0.5,2-1,3.1-1.3s2.3-0.5,3.7-0.5c2.3,0,4.2,0.5,5.6,1.6s2,2.6,2,4.7v7.4c0,0.2,0,0.5,0,0.7c0,0.2,0,0.5,0.1,0.7l1.9,0.3v2.9
			h-6c-0.1-0.3-0.2-0.6-0.4-1c-0.1-0.4-0.2-0.7-0.3-1.1c-0.6,0.7-1.3,1.3-2,1.8C425.2,840.5,424.3,840.7,423.2,840.7z M424.5,837.1
			c0.7,0,1.3-0.2,1.9-0.5c0.6-0.3,1.1-0.7,1.4-1.2v-2.8h-2.4c-1.1,0-1.9,0.2-2.4,0.7s-0.8,1.1-0.8,1.8c0,0.6,0.2,1.1,0.6,1.5
			C423.3,836.9,423.8,837.1,424.5,837.1z"/>
		<path d="M436.1,840.3v-2.9l2.3-0.5v-19.1l-2.6-0.5v-2.9h7.4v22.5l2.3,0.5v2.9H436.1z"/>
		<path d="M447,840.3v-2.9l2.3-0.5v-19.1l-2.6-0.5v-2.9h7.4v22.5l2.3,0.5v2.9H447z"/>
		<path d="M463.1,847.6c-0.4,0-0.9,0-1.3-0.1c-0.5-0.1-0.9-0.2-1.3-0.3l0.5-3.6c0.2,0,0.4,0.1,0.7,0.1c0.3,0,0.5,0,0.7,0
			c0.7,0,1.3-0.2,1.8-0.5c0.5-0.4,0.9-0.9,1.1-1.6l0.4-1.1l-6-14.9l-2.2-0.3v-2.9h9.5v2.9l-2.2,0.3l2.8,7.9l0.3,1h0.1l3.3-8.9
			l-2.1-0.3v-2.9h8.9v2.9l-2,0.3l-6.9,17.4c-0.3,0.8-0.8,1.6-1.3,2.3c-0.5,0.7-1.2,1.2-2,1.7C465.2,847.4,464.2,847.6,463.1,847.6z"
			/>
		<path d="M496.3,840.7c-1.7,0-3.2-0.4-4.5-1.1c-1.3-0.8-2.3-1.8-3-3.1c-0.7-1.3-1.1-2.8-1.1-4.5v-0.7c0-1.8,0.3-3.4,1-4.7
			c0.7-1.4,1.6-2.5,2.8-3.3s2.6-1.2,4.3-1.2c1.6,0,3,0.3,4.1,1c1.1,0.6,1.9,1.6,2.5,2.8c0.6,1.2,0.9,2.7,0.9,4.4v2.6h-10.6l0,0.1
			c0.1,0.8,0.3,1.5,0.6,2.1c0.3,0.6,0.8,1.1,1.4,1.4c0.6,0.3,1.3,0.5,2.2,0.5c0.9,0,1.7-0.1,2.5-0.3c0.8-0.2,1.5-0.6,2.2-1l1.3,3
			c-0.7,0.6-1.7,1.1-2.8,1.5C499.1,840.5,497.8,840.7,496.3,840.7z M492.9,829.6h6v-0.4c0-0.7-0.1-1.4-0.3-1.9
			c-0.2-0.5-0.5-0.9-0.9-1.2c-0.4-0.3-1-0.4-1.7-0.4c-0.6,0-1.2,0.2-1.6,0.5c-0.4,0.3-0.8,0.8-1,1.4S492.9,828.8,492.9,829.6
			L492.9,829.6z"/>
		<path d="M505.5,840.3v-2.9l2.3-0.5v-11.1l-2.6-0.5v-2.9h7.1l0.2,2.6c0.6-0.9,1.3-1.6,2.2-2.1s1.9-0.8,3-0.8c1.8,0,3.2,0.6,4.2,1.7
			c1,1.1,1.5,2.9,1.5,5.4v7.8l2.3,0.5v2.9h-9.3v-2.9l2.1-0.5v-7.8c0-1.2-0.2-2.1-0.7-2.6c-0.5-0.5-1.2-0.8-2.1-0.8
			c-0.7,0-1.3,0.1-1.8,0.4c-0.5,0.3-0.9,0.7-1.3,1.3v9.4l2,0.5v2.9H505.5z"/>
		<path d="M534.2,840.7c-1.4,0-2.7-0.4-3.7-1.1c-1-0.7-1.8-1.8-2.3-3.1c-0.5-1.3-0.8-2.9-0.8-4.6v-0.3c0-1.9,0.3-3.5,0.8-5
			c0.5-1.4,1.3-2.5,2.3-3.3c1-0.8,2.2-1.2,3.7-1.2c1,0,1.8,0.2,2.6,0.6c0.7,0.4,1.4,0.9,1.9,1.7v-6.4l-2.6-0.5v-2.9h2.6h4.8v22.5
			l2.3,0.5v2.9h-6.5l-0.4-2.2c-0.6,0.8-1.2,1.5-2,1.9S535.3,840.7,534.2,840.7z M535.7,836.9c0.7,0,1.3-0.1,1.8-0.4
			c0.5-0.3,0.9-0.7,1.3-1.2v-7.6c-0.3-0.6-0.8-1-1.3-1.3c-0.5-0.3-1.1-0.5-1.8-0.5c-0.8,0-1.5,0.2-2,0.7c-0.5,0.5-0.9,1.1-1.1,2
			c-0.2,0.9-0.4,1.8-0.4,3v0.3c0,1.6,0.3,2.8,0.8,3.7S534.5,836.9,535.7,836.9z"/>
		<path d="M553.5,840.7c-1.8,0-3.2-0.5-4.3-1.4c-1.1-1-1.6-2.3-1.6-3.9c0-1.1,0.3-2.1,0.9-3s1.5-1.5,2.7-2c1.2-0.5,2.7-0.7,4.4-0.7
			h2.4v-1.3c0-0.9-0.3-1.6-0.8-2.1c-0.5-0.5-1.3-0.8-2.3-0.8c-0.5,0-1,0.1-1.4,0.2c-0.4,0.1-0.8,0.3-1.1,0.5l-0.4,2.4h-3.5l-0.1-4.7
			c0.9-0.5,2-1,3.1-1.3s2.3-0.5,3.7-0.5c2.3,0,4.2,0.5,5.6,1.6s2,2.6,2,4.7v7.4c0,0.2,0,0.5,0,0.7c0,0.2,0,0.5,0.1,0.7l1.9,0.3v2.9
			h-6c-0.1-0.3-0.2-0.6-0.4-1c-0.1-0.4-0.2-0.7-0.3-1.1c-0.6,0.7-1.3,1.3-2,1.8C555.4,840.5,554.5,840.7,553.5,840.7z M554.8,837.1
			c0.7,0,1.3-0.2,1.9-0.5c0.6-0.3,1.1-0.7,1.4-1.2v-2.8h-2.4c-1.1,0-1.9,0.2-2.4,0.7s-0.8,1.1-0.8,1.8c0,0.6,0.2,1.1,0.6,1.5
			C553.5,836.9,554,837.1,554.8,837.1z"/>
		<path d="M566.4,840.3v-2.9l2.3-0.5v-11.1l-2.6-0.5v-2.9h7.1l0.2,2.6c0.6-0.9,1.3-1.6,2.2-2.1s1.9-0.8,3-0.8c1.8,0,3.2,0.6,4.2,1.7
			c1,1.1,1.5,2.9,1.5,5.4v7.8l2.3,0.5v2.9h-9.3v-2.9l2.1-0.5v-7.8c0-1.2-0.2-2.1-0.7-2.6c-0.5-0.5-1.2-0.8-2.1-0.8
			c-0.7,0-1.3,0.1-1.8,0.4c-0.5,0.3-0.9,0.7-1.3,1.3v9.4l2,0.5v2.9H566.4z"/>
		<path d="M596.2,847.6c-0.9,0-1.9-0.1-3.1-0.3s-2.1-0.6-3-1l0.9-3.5c0.8,0.3,1.6,0.6,2.5,0.8c0.9,0.2,1.7,0.3,2.4,0.3
			c1.3,0,2.2-0.4,2.8-1.1c0.6-0.7,0.9-1.7,0.9-3v-1.2c-0.5,0.7-1.2,1.2-1.9,1.5c-0.7,0.4-1.5,0.5-2.5,0.5c-1.5,0-2.7-0.4-3.8-1.1
			c-1.1-0.7-1.9-1.8-2.4-3.1c-0.6-1.3-0.8-2.9-0.8-4.6v-0.3c0-1.9,0.3-3.5,0.8-5c0.6-1.4,1.3-2.5,2.4-3.3c1-0.8,2.3-1.2,3.7-1.2
			c1.1,0,2,0.2,2.8,0.7c0.8,0.4,1.4,1.1,2,1.9l0.3-2.3h4.2v17.4c0,1.6-0.3,3-1,4.1c-0.7,1.2-1.6,2.1-2.9,2.7
			C599.5,847.3,598,847.6,596.2,847.6z M596.7,836.9c0.7,0,1.3-0.1,1.8-0.4c0.5-0.3,0.9-0.7,1.2-1.2v-7.8c-0.3-0.5-0.7-1-1.2-1.3
			c-0.5-0.3-1.1-0.4-1.8-0.4c-0.8,0-1.5,0.2-2,0.7c-0.5,0.5-0.9,1.1-1.1,2c-0.2,0.8-0.4,1.8-0.4,3v0.3c0,1.6,0.3,2.8,0.8,3.7
			C594.6,836.5,595.5,836.9,596.7,836.9z M604,825.9l-2.1-3.5h4.8v2.9L604,825.9z"/>
		<path d="M616.8,840.7c-1.7,0-3.2-0.4-4.5-1.1c-1.3-0.8-2.3-1.8-3-3.1c-0.7-1.3-1.1-2.8-1.1-4.5v-0.7c0-1.8,0.3-3.4,1-4.7
			c0.7-1.4,1.6-2.5,2.8-3.3s2.6-1.2,4.3-1.2c1.6,0,3,0.3,4.1,1c1.1,0.6,1.9,1.6,2.5,2.8c0.6,1.2,0.9,2.7,0.9,4.4v2.6h-10.6l0,0.1
			c0.1,0.8,0.3,1.5,0.6,2.1c0.3,0.6,0.8,1.1,1.4,1.4c0.6,0.3,1.3,0.5,2.2,0.5c0.9,0,1.7-0.1,2.5-0.3c0.8-0.2,1.5-0.6,2.2-1l1.3,3
			c-0.7,0.6-1.7,1.1-2.8,1.5C619.5,840.5,618.2,840.7,616.8,840.7z M613.3,829.6h6v-0.4c0-0.7-0.1-1.4-0.3-1.9
			c-0.2-0.5-0.5-0.9-0.9-1.2c-0.4-0.3-1-0.4-1.7-0.4c-0.6,0-1.2,0.2-1.6,0.5c-0.4,0.3-0.8,0.8-1,1.4S613.4,828.8,613.3,829.6
			L613.3,829.6z"/>
		<path d="M626.5,840.3v-2.9l2.3-0.5v-11.1l-2.6-0.5v-2.9h7.1l0.2,2.2l0,0.4c0.4-1,1-1.7,1.6-2.2c0.7-0.5,1.4-0.7,2.3-0.7
			c0.3,0,0.6,0,0.9,0.1c0.3,0,0.6,0.1,0.9,0.2l-0.5,4.5l-2.4-0.1c-0.7,0-1.2,0.1-1.7,0.3c-0.4,0.3-0.8,0.6-1.1,1.1v8.8l2.3,0.5v2.9
			H626.5z"/>
		<path d="M649.4,840.7c-1.7,0-3.2-0.4-4.5-1.1c-1.3-0.8-2.3-1.8-3-3.1c-0.7-1.3-1.1-2.8-1.1-4.5v-0.7c0-1.8,0.3-3.4,1-4.7
			c0.7-1.4,1.6-2.5,2.8-3.3s2.6-1.2,4.3-1.2c1.6,0,3,0.3,4.1,1c1.1,0.6,1.9,1.6,2.5,2.8c0.6,1.2,0.9,2.7,0.9,4.4v2.6h-10.6l0,0.1
			c0.1,0.8,0.3,1.5,0.6,2.1c0.3,0.6,0.8,1.1,1.4,1.4c0.6,0.3,1.3,0.5,2.2,0.5c0.9,0,1.7-0.1,2.5-0.3c0.8-0.2,1.5-0.6,2.2-1l1.3,3
			c-0.7,0.6-1.7,1.1-2.8,1.5C652.1,840.5,650.9,840.7,649.4,840.7z M645.9,829.6h6v-0.4c0-0.7-0.1-1.4-0.3-1.9
			c-0.2-0.5-0.5-0.9-0.9-1.2c-0.4-0.3-1-0.4-1.7-0.4c-0.6,0-1.2,0.2-1.6,0.5c-0.4,0.3-0.8,0.8-1,1.4S646,828.8,645.9,829.6
			L645.9,829.6z"/>
		<path d="M665.6,840.7c-1.4,0-2.7-0.4-3.7-1.1c-1-0.7-1.8-1.8-2.3-3.1c-0.5-1.3-0.8-2.9-0.8-4.6v-0.3c0-1.9,0.3-3.5,0.8-5
			c0.5-1.4,1.3-2.5,2.3-3.3c1-0.8,2.2-1.2,3.7-1.2c1,0,1.8,0.2,2.6,0.6c0.7,0.4,1.4,0.9,1.9,1.7v-6.4l-2.6-0.5v-2.9h2.6h4.8v22.5
			l2.3,0.5v2.9h-6.5l-0.4-2.2c-0.6,0.8-1.2,1.5-2,1.9S666.7,840.7,665.6,840.7z M667.1,836.9c0.7,0,1.3-0.1,1.8-0.4
			c0.5-0.3,0.9-0.7,1.3-1.2v-7.6c-0.3-0.6-0.8-1-1.3-1.3c-0.5-0.3-1.1-0.5-1.8-0.5c-0.8,0-1.5,0.2-2,0.7c-0.5,0.5-0.9,1.1-1.1,2
			c-0.2,0.9-0.4,1.8-0.4,3v0.3c0,1.6,0.3,2.8,0.8,3.7S665.8,836.9,667.1,836.9z"/>
		<path d="M687.4,840.3v-2.9l2.3-0.5v-11.2h-2.7v-3.4h2.7v-2c0-2,0.6-3.6,1.7-4.7c1.2-1.1,2.8-1.6,4.9-1.6c0.5,0,1.1,0,1.6,0.1
			c0.6,0.1,1.1,0.2,1.5,0.3l-0.4,3.6c-0.3-0.1-0.6-0.1-0.9-0.2c-0.3,0-0.7-0.1-1-0.1c-0.8,0-1.5,0.2-1.9,0.6
			c-0.4,0.4-0.6,1.1-0.6,1.9v2h4.1v3.4h-4.1v11.2l3.2,0.5v2.9H687.4z"/>
		<path d="M700.8,840.3v-2.9l2.3-0.5v-11.1l-2.6-0.5v-2.9h7.1l0.2,2.2l0,0.4c0.4-1,1-1.7,1.6-2.2c0.7-0.5,1.4-0.7,2.3-0.7
			c0.3,0,0.6,0,0.9,0.1c0.3,0,0.6,0.1,0.9,0.2l-0.5,4.5l-2.4-0.1c-0.7,0-1.2,0.1-1.7,0.3c-0.4,0.3-0.8,0.6-1.1,1.1v8.8l2.3,0.5v2.9
			H700.8z"/>
		<path d="M723.7,840.7c-1.8,0-3.3-0.4-4.6-1.2c-1.3-0.8-2.2-1.9-2.9-3.2c-0.7-1.4-1-3-1-4.8v-0.3c0-1.8,0.3-3.4,1-4.7
			c0.7-1.4,1.6-2.5,2.9-3.2c1.3-0.8,2.8-1.2,4.5-1.2c1.8,0,3.3,0.4,4.6,1.2c1.3,0.8,2.2,1.9,2.9,3.2c0.7,1.4,1,3,1,4.7v0.3
			c0,1.8-0.3,3.4-1,4.8c-0.7,1.4-1.6,2.5-2.9,3.2C727,840.3,725.5,840.7,723.7,840.7z M723.7,837c0.8,0,1.5-0.2,2.1-0.7
			s0.9-1.1,1.2-1.9c0.3-0.8,0.4-1.8,0.4-2.8v-0.3c0-1.1-0.1-2-0.4-2.8c-0.3-0.8-0.7-1.4-1.2-1.9c-0.5-0.5-1.2-0.7-2.1-0.7
			c-0.8,0-1.5,0.2-2.1,0.7c-0.5,0.5-0.9,1.1-1.2,1.9c-0.2,0.8-0.4,1.8-0.4,2.8v0.3c0,1.1,0.1,2,0.4,2.9s0.6,1.5,1.2,1.9
			C722.1,836.7,722.8,837,723.7,837z"/>
		<path d="M734.1,840.3v-2.9l2.3-0.5v-11.1l-2.6-0.5v-2.9h7.1l0.2,2.4c0.6-0.9,1.3-1.5,2.2-2c0.9-0.5,1.9-0.7,3-0.7
			c1.2,0,2.1,0.3,3,0.8c0.8,0.5,1.4,1.3,1.9,2.3c0.6-1,1.3-1.7,2.2-2.3c0.9-0.5,1.9-0.8,3.1-0.8c1.8,0,3.2,0.6,4.2,1.8
			c1,1.2,1.5,3,1.5,5.5v7.6l2.3,0.5v2.9h-9.3v-2.9l2.1-0.5v-7.6c0-1.3-0.2-2.2-0.7-2.8c-0.4-0.5-1.1-0.8-1.9-0.8
			c-0.8,0-1.4,0.2-1.9,0.6c-0.5,0.4-0.9,1-1.1,1.7v8.8l2,0.5v2.9h-8.7v-2.9l2-0.5v-7.6c0-1.3-0.2-2.2-0.7-2.7
			c-0.4-0.5-1.1-0.8-1.9-0.8c-0.7,0-1.3,0.1-1.8,0.4s-0.9,0.7-1.2,1.2v9.5l2.1,0.5v2.9H734.1z"/>
	</g>
</g>
<text transform="matrix(1 0 0 1 369.7832 889.335)" class="st22 st23">2008</text>
<rect x="369.8" y="468.5" class="st24" width="536.2" height="88.5"/>
<text transform="matrix(1 0 0 1 369.7832 494.2188)"><tspan x="0" y="0" class="st22 st23">Savannas of sub-Saharan Africa and the </tspan><tspan x="0" y="36" class="st22 st23">rainforests of central and West Africa</tspan></text>
<rect x="369.8" y="631.5" class="st24" width="536.2" height="151.5"/>
<text transform="matrix(1 0 0 1 369.7832 657.3154)"><tspan x="0" y="0" class="st25 st23">Height: </tspan><tspan x="104.8" y="0" class="st22 st23">10 ft.</tspan><tspan x="0" y="36" class="st25 st23">Weight: </tspan><tspan x="113.5" y="36" class="st22 st23">13,000 lbs</tspan><tspan x="0" y="72" class="st25 st23">Length of one tusk: </tspan><tspan x="259.9" y="72" class="st22 st23">6 feet</tspan><tspan x="0" y="108" class="st25 st23">Weight of one tusk: </tspan><tspan x="266.9" y="108" class="st22 st23">50 lbs</tspan></text>
<text transform="matrix(1 0 0 1 369.7832 351.335)" class="st22 st23">Africa</text>
<g>
	<g>
		<path d="M340,302.7c-2.4,0-4.4-0.5-6.1-1.5s-3-2.4-3.9-4.2c-0.9-1.8-1.4-3.8-1.4-6.2V290c0-2.4,0.4-4.5,1.3-6.4
			c0.9-1.8,2.2-3.3,3.8-4.3c1.6-1,3.6-1.6,5.8-1.6c1.7,0,3.4,0.2,4.9,0.7c1.5,0.5,2.9,1.2,4,2.1v5.4h-3.6l-0.7-3.2
			c-0.4-0.4-1-0.7-1.7-0.9c-0.7-0.2-1.6-0.3-2.5-0.3c-1.4,0-2.5,0.4-3.5,1.1s-1.7,1.7-2.2,3c-0.5,1.3-0.8,2.7-0.8,4.4v0.9
			c0,1.6,0.3,3.1,0.8,4.3s1.3,2.1,2.3,2.8s2.2,1,3.7,1c0.9,0,1.6-0.1,2.3-0.2c0.7-0.2,1.3-0.4,1.8-0.6V294l-3.5-0.3v-3.4h8.3v9.8
			c-1.1,0.8-2.4,1.4-3.9,1.8S341.9,302.7,340,302.7z"/>
		<path d="M360.2,302.7c-1.7,0-3.2-0.4-4.5-1.1c-1.3-0.8-2.3-1.8-3-3.1c-0.7-1.3-1.1-2.8-1.1-4.5v-0.7c0-1.8,0.3-3.4,1-4.7
			s1.6-2.5,2.8-3.3c1.2-0.8,2.6-1.2,4.3-1.2c1.6,0,3,0.3,4.1,1c1.1,0.6,1.9,1.6,2.5,2.8c0.6,1.2,0.9,2.7,0.9,4.4v2.6h-10.6l0,0.1
			c0.1,0.8,0.3,1.5,0.6,2.1c0.3,0.6,0.8,1.1,1.4,1.4s1.3,0.5,2.2,0.5c0.9,0,1.7-0.1,2.5-0.3c0.8-0.2,1.5-0.6,2.2-1l1.3,3
			c-0.7,0.6-1.7,1.1-2.8,1.5C363,302.5,361.7,302.7,360.2,302.7z M356.8,291.6h6v-0.4c0-0.7-0.1-1.4-0.3-1.9
			c-0.2-0.5-0.5-0.9-0.9-1.2c-0.4-0.3-1-0.4-1.7-0.4c-0.6,0-1.2,0.2-1.6,0.5c-0.4,0.3-0.8,0.8-1,1.4
			C357,290.1,356.8,290.8,356.8,291.6L356.8,291.6z"/>
		<path d="M378.1,302.7c-1.8,0-3.3-0.4-4.6-1.2c-1.3-0.8-2.2-1.9-2.9-3.2c-0.7-1.4-1-3-1-4.8v-0.3c0-1.8,0.3-3.4,1-4.7
			c0.7-1.4,1.6-2.5,2.9-3.2c1.3-0.8,2.8-1.2,4.5-1.2c1.8,0,3.3,0.4,4.6,1.2s2.2,1.9,2.9,3.2c0.7,1.4,1,3,1,4.7v0.3
			c0,1.8-0.3,3.4-1,4.8c-0.7,1.4-1.6,2.5-2.9,3.2C381.4,302.3,379.8,302.7,378.1,302.7z M378.1,299c0.8,0,1.5-0.2,2.1-0.7
			c0.5-0.5,0.9-1.1,1.2-1.9c0.3-0.8,0.4-1.8,0.4-2.8v-0.3c0-1.1-0.1-2-0.4-2.8c-0.3-0.8-0.7-1.4-1.2-1.9c-0.5-0.5-1.2-0.7-2.1-0.7
			c-0.8,0-1.5,0.2-2.1,0.7c-0.5,0.5-0.9,1.1-1.2,1.9s-0.4,1.8-0.4,2.8v0.3c0,1.1,0.1,2,0.4,2.9c0.2,0.8,0.6,1.5,1.2,1.9
			C376.5,298.7,377.2,299,378.1,299z"/>
		<path d="M396.6,309.6c-0.9,0-1.9-0.1-3.1-0.3s-2.1-0.6-3-1l0.9-3.5c0.8,0.3,1.6,0.6,2.5,0.8c0.9,0.2,1.7,0.3,2.4,0.3
			c1.3,0,2.2-0.4,2.8-1.1c0.6-0.7,0.9-1.7,0.9-3v-1.2c-0.5,0.7-1.2,1.2-1.9,1.5c-0.7,0.4-1.5,0.5-2.5,0.5c-1.5,0-2.7-0.4-3.8-1.1
			c-1.1-0.7-1.9-1.8-2.4-3.1c-0.6-1.3-0.8-2.9-0.8-4.6v-0.3c0-1.9,0.3-3.5,0.8-5c0.6-1.4,1.3-2.5,2.4-3.3c1-0.8,2.3-1.2,3.7-1.2
			c1.1,0,2,0.2,2.8,0.7c0.8,0.4,1.4,1.1,2,1.9l0.3-2.3h4.2v17.4c0,1.6-0.3,3-1,4.1c-0.7,1.2-1.6,2.1-2.9,2.7
			C399.8,309.3,398.4,309.6,396.6,309.6z M397.1,298.9c0.7,0,1.3-0.1,1.8-0.4c0.5-0.3,0.9-0.7,1.2-1.2v-7.8c-0.3-0.5-0.7-1-1.2-1.3
			c-0.5-0.3-1.1-0.4-1.8-0.4c-0.8,0-1.5,0.2-2,0.7c-0.5,0.5-0.9,1.1-1.1,2c-0.2,0.8-0.4,1.8-0.4,3v0.3c0,1.6,0.3,2.8,0.8,3.7
			C395,298.5,395.9,298.9,397.1,298.9z M404.4,287.9l-2.1-3.5h4.8v2.9L404.4,287.9z"/>
		<path d="M408.9,302.3v-2.9l2.3-0.5v-11.1l-2.6-0.5v-2.9h7.1l0.2,2.2l0,0.4c0.4-1,1-1.7,1.6-2.2c0.7-0.5,1.4-0.7,2.3-0.7
			c0.3,0,0.6,0,0.9,0.1c0.3,0,0.6,0.1,0.9,0.2l-0.5,4.5l-2.4-0.1c-0.7,0-1.2,0.1-1.7,0.3c-0.4,0.3-0.8,0.6-1.1,1.1v8.8l2.3,0.5v2.9
			H408.9z"/>
		<path d="M429.3,302.7c-1.8,0-3.2-0.5-4.3-1.4c-1.1-1-1.6-2.3-1.6-3.9c0-1.1,0.3-2.1,0.9-3c0.6-0.9,1.5-1.5,2.7-2
			c1.2-0.5,2.7-0.7,4.4-0.7h2.4v-1.3c0-0.9-0.3-1.6-0.8-2.1c-0.5-0.5-1.3-0.8-2.3-0.8c-0.5,0-1,0.1-1.4,0.2
			c-0.4,0.1-0.8,0.3-1.1,0.5l-0.4,2.4h-3.5l-0.1-4.7c0.9-0.5,2-1,3.1-1.3s2.3-0.5,3.7-0.5c2.3,0,4.2,0.5,5.6,1.6
			c1.4,1.1,2,2.6,2,4.7v7.4c0,0.2,0,0.5,0,0.7c0,0.2,0,0.5,0.1,0.7l1.9,0.3v2.9h-6c-0.1-0.3-0.2-0.6-0.4-1c-0.1-0.4-0.2-0.7-0.3-1.1
			c-0.6,0.7-1.3,1.3-2,1.8S430.4,302.7,429.3,302.7z M430.6,299.1c0.7,0,1.3-0.2,1.9-0.5c0.6-0.3,1.1-0.7,1.4-1.2v-2.8h-2.4
			c-1.1,0-1.9,0.2-2.4,0.7c-0.5,0.5-0.8,1.1-0.8,1.8c0,0.6,0.2,1.1,0.6,1.5C429.3,298.9,429.9,299.1,430.6,299.1z"/>
		<path d="M442.3,309.2v-2.9l2.3-0.5v-18l-2.6-0.5v-2.9h7l0.2,2.1c0.5-0.8,1.2-1.4,1.9-1.8c0.8-0.4,1.6-0.6,2.7-0.6
			c1.4,0,2.7,0.4,3.7,1.2c1,0.8,1.8,1.9,2.4,3.3c0.5,1.4,0.8,3.1,0.8,5v0.3c0,1.8-0.3,3.3-0.8,4.6c-0.5,1.3-1.3,2.4-2.4,3.1
			c-1,0.7-2.3,1.1-3.7,1.1c-1,0-1.8-0.2-2.5-0.5c-0.7-0.3-1.4-0.9-1.9-1.5v5.2l2.3,0.5v2.9H442.3z M452.5,299c1.2,0,2.1-0.5,2.7-1.4
			c0.6-0.9,0.8-2.2,0.8-3.7v-0.3c0-1.1-0.1-2.1-0.4-3c-0.3-0.8-0.6-1.5-1.2-2c-0.5-0.5-1.2-0.7-2-0.7c-0.7,0-1.2,0.1-1.8,0.4
			c-0.5,0.3-0.9,0.7-1.2,1.3v7.9c0.3,0.5,0.7,0.9,1.2,1.2C451.2,298.8,451.8,299,452.5,299z"/>
		<path d="M462.8,302.3v-2.9l2.3-0.5v-19.1l-2.6-0.5v-2.9h7.4v10.2c0.6-0.8,1.3-1.5,2.1-1.9c0.8-0.5,1.8-0.7,2.8-0.7
			c1.8,0,3.2,0.6,4.3,1.8c1.1,1.2,1.6,3.1,1.6,5.6v7.5l2.3,0.5v2.9h-9.3v-2.9l2.1-0.5v-7.6c0-1.3-0.2-2.2-0.7-2.8
			c-0.5-0.5-1.2-0.8-2.1-0.8c-0.7,0-1.2,0.1-1.8,0.4c-0.5,0.3-1,0.7-1.3,1.2v9.5l2.1,0.5v2.9H462.8z"/>
		<path d="M489.6,309.6c-0.4,0-0.9,0-1.3-0.1c-0.5-0.1-0.9-0.2-1.3-0.3l0.5-3.6c0.2,0,0.4,0.1,0.7,0.1c0.3,0,0.5,0,0.7,0
			c0.7,0,1.3-0.2,1.8-0.5c0.5-0.4,0.9-0.9,1.1-1.6l0.4-1.1l-6-14.9l-2.2-0.3v-2.9h9.5v2.9l-2.2,0.3l2.8,7.9l0.3,1h0.1l3.3-8.9
			l-2.1-0.3v-2.9h8.9v2.9l-2,0.3l-6.9,17.4c-0.3,0.8-0.8,1.6-1.3,2.3c-0.5,0.7-1.2,1.2-2,1.7C491.8,309.4,490.8,309.6,489.6,309.6z"
			/>
	</g>
</g>
<g>
	<g>
		<path d="M328.7,450.3v-2.9l2.6-0.5v-17.3l-2.6-0.5v-2.9h10v2.9l-2.6,0.5v7h9.9v-7l-2.6-0.5v-2.9h2.6h4.8h2.6v2.9l-2.6,0.5v17.3
			l2.6,0.5v2.9h-10v-2.9l2.6-0.5v-6.6h-9.9v6.6l2.6,0.5v2.9H328.7z"/>
		<path d="M361.4,450.7c-1.8,0-3.2-0.5-4.3-1.4c-1.1-1-1.6-2.3-1.6-3.9c0-1.1,0.3-2.1,0.9-3c0.6-0.9,1.5-1.5,2.7-2
			c1.2-0.5,2.7-0.7,4.4-0.7h2.4v-1.3c0-0.9-0.3-1.6-0.8-2.1c-0.5-0.5-1.3-0.8-2.3-0.8c-0.5,0-1,0.1-1.4,0.2
			c-0.4,0.1-0.8,0.3-1.1,0.5l-0.4,2.4h-3.5l-0.1-4.7c0.9-0.5,2-1,3.1-1.3s2.3-0.5,3.7-0.5c2.3,0,4.2,0.5,5.6,1.6
			c1.4,1.1,2,2.6,2,4.7v7.4c0,0.2,0,0.5,0,0.7c0,0.2,0,0.5,0.1,0.7l1.9,0.3v2.9h-6c-0.1-0.3-0.2-0.6-0.4-1c-0.1-0.4-0.2-0.7-0.3-1.1
			c-0.6,0.7-1.3,1.3-2,1.8S362.5,450.7,361.4,450.7z M362.7,447.1c0.7,0,1.3-0.2,1.9-0.5c0.6-0.3,1.1-0.7,1.4-1.2v-2.8h-2.4
			c-1.1,0-1.9,0.2-2.4,0.7c-0.5,0.5-0.8,1.1-0.8,1.8c0,0.6,0.2,1.1,0.6,1.5C361.4,446.9,362,447.1,362.7,447.1z"/>
		<path d="M385.1,450.7c-1.1,0-2.1-0.2-2.9-0.7c-0.8-0.4-1.4-1.1-2-1.9l-0.3,2.2h-4.2v-22.5l-2.6-0.5v-2.9h7.4v9.8
			c0.5-0.7,1.2-1.3,1.9-1.7c0.8-0.4,1.6-0.6,2.6-0.6c1.4,0,2.7,0.4,3.7,1.2s1.8,1.9,2.3,3.3c0.5,1.4,0.8,3.1,0.8,5v0.3
			c0,1.8-0.3,3.3-0.8,4.7c-0.5,1.3-1.3,2.3-2.3,3.1C387.8,450.3,386.5,450.7,385.1,450.7z M383.6,446.9c1.2,0,2.1-0.4,2.7-1.3
			c0.5-0.9,0.8-2.1,0.8-3.7v-0.3c0-1.2-0.1-2.2-0.4-3c-0.2-0.8-0.6-1.5-1.1-2c-0.5-0.5-1.2-0.7-2-0.7c-0.7,0-1.4,0.2-1.9,0.5
			c-0.5,0.3-0.9,0.8-1.2,1.4v7.5c0.3,0.6,0.8,1,1.3,1.3C382.3,446.8,382.9,446.9,383.6,446.9z"/>
		<path d="M394,450.3v-2.9l2.3-0.5v-11.1l-2.6-0.5v-2.9h7.4v14.6l2.3,0.5v2.9H394z M396.2,428.6v-4.1h5v4.1H396.2z"/>
		<path d="M412.2,450.7c-1.7,0-3-0.5-3.9-1.4c-0.9-0.9-1.4-2.4-1.4-4.4v-9.2h-2.5v-3.4h2.5V428h4.8v4.4h3.3v3.4h-3.3v9.1
			c0,0.7,0.1,1.2,0.4,1.5c0.3,0.3,0.7,0.4,1.2,0.4c0.3,0,0.6,0,0.9-0.1c0.3,0,0.6-0.1,0.8-0.1l0.4,3.5c-0.5,0.1-1,0.3-1.6,0.4
			C413.3,450.6,412.8,450.7,412.2,450.7z"/>
		<path d="M423.3,450.7c-1.8,0-3.2-0.5-4.3-1.4c-1.1-1-1.6-2.3-1.6-3.9c0-1.1,0.3-2.1,0.9-3c0.6-0.9,1.5-1.5,2.7-2
			c1.2-0.5,2.7-0.7,4.4-0.7h2.4v-1.3c0-0.9-0.3-1.6-0.8-2.1c-0.5-0.5-1.3-0.8-2.3-0.8c-0.5,0-1,0.1-1.4,0.2
			c-0.4,0.1-0.8,0.3-1.1,0.5l-0.4,2.4h-3.5l-0.1-4.7c0.9-0.5,2-1,3.1-1.3s2.3-0.5,3.7-0.5c2.3,0,4.2,0.5,5.6,1.6
			c1.4,1.1,2,2.6,2,4.7v7.4c0,0.2,0,0.5,0,0.7c0,0.2,0,0.5,0.1,0.7l1.9,0.3v2.9h-6c-0.1-0.3-0.2-0.6-0.4-1c-0.1-0.4-0.2-0.7-0.3-1.1
			c-0.6,0.7-1.3,1.3-2,1.8S424.4,450.7,423.3,450.7z M424.6,447.1c0.7,0,1.3-0.2,1.9-0.5c0.6-0.3,1.1-0.7,1.4-1.2v-2.8h-2.4
			c-1.1,0-1.9,0.2-2.4,0.7c-0.5,0.5-0.8,1.1-0.8,1.8c0,0.6,0.2,1.1,0.6,1.5C423.4,446.9,423.9,447.1,424.6,447.1z"/>
		<path d="M443.5,450.7c-1.7,0-3-0.5-3.9-1.4c-0.9-0.9-1.4-2.4-1.4-4.4v-9.2h-2.5v-3.4h2.5V428h4.8v4.4h3.3v3.4h-3.3v9.1
			c0,0.7,0.1,1.2,0.4,1.5c0.3,0.3,0.7,0.4,1.2,0.4c0.3,0,0.6,0,0.9-0.1c0.3,0,0.6-0.1,0.8-0.1l0.4,3.5c-0.5,0.1-1,0.3-1.6,0.4
			C444.7,450.6,444.1,450.7,443.5,450.7z"/>
		<path d="M464.1,450.7c-1.7,0-3-0.5-3.9-1.4c-0.9-0.9-1.4-2.4-1.4-4.4v-9.2h-2.5v-3.4h2.5V428h4.8v4.4h3.3v3.4h-3.3v9.1
			c0,0.7,0.1,1.2,0.4,1.5c0.3,0.3,0.7,0.4,1.2,0.4c0.3,0,0.6,0,0.9-0.1c0.3,0,0.6-0.1,0.8-0.1l0.4,3.5c-0.5,0.1-1,0.3-1.6,0.4
			C465.2,450.6,464.6,450.7,464.1,450.7z"/>
		<path d="M474.2,457.6c-0.4,0-0.9,0-1.3-0.1c-0.5-0.1-0.9-0.2-1.3-0.3l0.5-3.6c0.2,0,0.4,0.1,0.7,0.1c0.3,0,0.5,0,0.7,0
			c0.7,0,1.3-0.2,1.8-0.5c0.5-0.4,0.9-0.9,1.1-1.6l0.4-1.1l-6-14.9l-2.2-0.3v-2.9h9.5v2.9l-2.2,0.3l2.8,7.9l0.3,1h0.1l3.3-8.9
			l-2.1-0.3v-2.9h8.9v2.9l-2,0.3l-6.9,17.4c-0.3,0.8-0.8,1.6-1.3,2.3c-0.5,0.7-1.2,1.2-2,1.7C476.3,457.4,475.4,457.6,474.2,457.6z"
			/>
		<path d="M490.4,457.2v-2.9l2.3-0.5v-18l-2.6-0.5v-2.9h7l0.2,2.1c0.5-0.8,1.2-1.4,1.9-1.8c0.8-0.4,1.6-0.6,2.7-0.6
			c1.4,0,2.7,0.4,3.7,1.2c1,0.8,1.8,1.9,2.4,3.3c0.5,1.4,0.8,3.1,0.8,5v0.3c0,1.8-0.3,3.3-0.8,4.6c-0.5,1.3-1.3,2.4-2.4,3.1
			c-1,0.7-2.3,1.1-3.7,1.1c-1,0-1.8-0.2-2.5-0.5c-0.7-0.3-1.4-0.9-1.9-1.5v5.2l2.3,0.5v2.9H490.4z M500.6,447c1.2,0,2.1-0.5,2.7-1.4
			c0.6-0.9,0.8-2.2,0.8-3.7v-0.3c0-1.1-0.1-2.1-0.4-3c-0.3-0.8-0.6-1.5-1.2-2c-0.5-0.5-1.2-0.7-2-0.7c-0.7,0-1.2,0.1-1.8,0.4
			c-0.5,0.3-0.9,0.7-1.2,1.3v7.9c0.3,0.5,0.7,0.9,1.2,1.2C499.3,446.8,499.9,447,500.6,447z"/>
		<path d="M519.7,450.7c-1.7,0-3.2-0.4-4.5-1.1c-1.3-0.8-2.3-1.8-3-3.1c-0.7-1.3-1.1-2.8-1.1-4.5v-0.7c0-1.8,0.3-3.4,1-4.7
			s1.6-2.5,2.8-3.3c1.2-0.8,2.6-1.2,4.3-1.2c1.6,0,3,0.3,4.1,1c1.1,0.6,1.9,1.6,2.5,2.8c0.6,1.2,0.9,2.7,0.9,4.4v2.6h-10.6l0,0.1
			c0.1,0.8,0.3,1.5,0.6,2.1c0.3,0.6,0.8,1.1,1.4,1.4s1.3,0.5,2.2,0.5c0.9,0,1.7-0.1,2.5-0.3c0.8-0.2,1.5-0.6,2.2-1l1.3,3
			c-0.7,0.6-1.7,1.1-2.8,1.5C522.5,450.5,521.2,450.7,519.7,450.7z M516.3,439.6h6v-0.4c0-0.7-0.1-1.4-0.3-1.9
			c-0.2-0.5-0.5-0.9-0.9-1.2c-0.4-0.3-1-0.4-1.7-0.4c-0.6,0-1.2,0.2-1.6,0.5c-0.4,0.3-0.8,0.8-1,1.4
			C516.5,438.1,516.3,438.8,516.3,439.6L516.3,439.6z"/>
	</g>
</g>
<g>
	<g>
		<path d="M338.6,613.7c-1.8,0-3.4-0.2-4.9-0.6s-2.9-1.1-4.3-2.1v-5.8h3.8l0.5,3.4c0.5,0.4,1.2,0.8,2.1,1c0.9,0.3,1.8,0.4,2.9,0.4
			c0.9,0,1.6-0.1,2.2-0.4c0.6-0.2,1.1-0.6,1.4-1c0.3-0.4,0.5-1,0.5-1.6c0-0.6-0.1-1.1-0.4-1.5c-0.3-0.4-0.7-0.9-1.4-1.2
			c-0.6-0.4-1.5-0.7-2.6-1.1c-1.9-0.6-3.5-1.2-4.8-1.9c-1.3-0.7-2.2-1.5-2.8-2.4c-0.6-0.9-0.9-2.1-0.9-3.4c0-1.3,0.4-2.5,1.1-3.5
			c0.7-1,1.7-1.8,3-2.4c1.3-0.6,2.8-0.9,4.4-0.9c1.9,0,3.5,0.2,4.9,0.7c1.4,0.5,2.7,1.1,3.7,1.9v5.4h-3.6l-0.6-3.3
			c-0.4-0.3-1-0.5-1.7-0.7s-1.5-0.3-2.4-0.3c-0.8,0-1.5,0.1-2.1,0.3c-0.6,0.2-1.1,0.6-1.4,1c-0.3,0.4-0.5,1-0.5,1.6
			c0,0.5,0.1,1,0.4,1.4c0.3,0.4,0.8,0.8,1.5,1.1c0.7,0.4,1.7,0.7,2.9,1.2c2.7,0.7,4.7,1.7,6.1,2.9c1.4,1.2,2.1,2.8,2.1,4.8
			c0,1.4-0.4,2.6-1.1,3.6c-0.7,1-1.8,1.8-3.1,2.3C341.9,613.4,340.4,613.7,338.6,613.7z"/>
		<path d="M349.4,613.3v-2.9l2.3-0.5v-11.1l-2.6-0.5v-2.9h7.4v14.6l2.3,0.5v2.9H349.4z M351.6,591.6v-4.1h5v4.1H351.6z"/>
		<path d="M360.9,613.3v-2.9l9.3-11.7h-4.8l-0.5,3.1h-3.6v-6.5h14.8v3.1l-8.8,11.4h5.1l0.7-3.3h3.4v6.8H360.9z"/>
		<path d="M387.5,613.7c-1.7,0-3.2-0.4-4.5-1.1c-1.3-0.8-2.3-1.8-3-3.1c-0.7-1.3-1.1-2.8-1.1-4.5v-0.7c0-1.8,0.3-3.4,1-4.7
			c0.7-1.4,1.6-2.5,2.8-3.3s2.6-1.2,4.3-1.2c1.6,0,3,0.3,4.1,1c1.1,0.6,1.9,1.6,2.5,2.8c0.6,1.2,0.9,2.7,0.9,4.4v2.6H384l0,0.1
			c0.1,0.8,0.3,1.5,0.6,2.1c0.3,0.6,0.8,1.1,1.4,1.4c0.6,0.3,1.3,0.5,2.2,0.5c0.9,0,1.7-0.1,2.5-0.3c0.8-0.2,1.5-0.6,2.2-1l1.3,3
			c-0.7,0.6-1.7,1.1-2.8,1.5C390.2,613.5,388.9,613.7,387.5,613.7z M384,602.6h6v-0.4c0-0.7-0.1-1.4-0.3-1.9
			c-0.2-0.5-0.5-0.9-0.9-1.2c-0.4-0.3-1-0.4-1.7-0.4c-0.6,0-1.2,0.2-1.6,0.5c-0.4,0.3-0.8,0.8-1,1.4S384.1,601.8,384,602.6
			L384,602.6z"/>
	</g>
</g>
<path class="st26" d="M1958.9,141.7c-21.5-21.5-56.1-61.9-84.8-73.3c-27.9-11.1-76-4.6-112.2-6.9c-58.5-3.6-131.2-47-162.6,2.3
	c-28.8-18.6-58.6-36-98.5-43.5c-11.5,0-22.9,0-34.3,0c-26.1-3.1-72.4,31-98.5,32.1c-14.4,0.6-27-9.9-41.2-11.5
	c-12.1-1.3-25.1,3.2-36.6,2.3c-22.1-1.8-45.9-10.9-71-9.2c-26.4,10.9-54.1,32.2-96.2,29.8c-15.6-0.9-30.2-8.4-45.8-6.9
	c-38.8,3.9-66.7,57.8-87,80.2c-27.1,29.8-76,55.1-73.3,93.9c1.8,26.1,28.1,38,55,43.5c10.2,7.9,4.9,19.7,13.7,27.5
	c6.5,5.7,19.2,3.8,29.8,11.5c33,23.9,32.5,77.6,64.1,98.5c16.2,10.7,36.3,11.7,50.4,18.3c12.9,6.1,29.9,13.5,41.2,25.2
	c18.3,18.9,26.2,60.3,48.1,80.2c9.1,8.3,31.4,18.6,41.2,16c17-4.6,26.9-49.4,34.3-64.1c12.4-24.7,21.2-44.2,38.9-57.3
	c10.2,13.5,4.9,42.4,13.7,57.3c-39.6,110-27.4,269.7,84.7,286.3c-15.5-25.2-51.6-61.6-57.3-109.9c-5.9-50.3,3.6-101.8,25.2-135.1
	c28.7,16.3,16.3,41.8,22.9,73.3c4.5,21.5,19.1,56.3,25.2,82.5c9,38.8,10.5,73.4,13.7,119.1c3,42.2,22.3,82.3,20.6,114.5
	c-0.7,13.9-11,29-13.7,45.8c-1.9,11.5,2.8,23.1,0,32.1c-5.4,17.4-26.7,25.4-29.8,41.2c-32.7-8.4-31.1,14.1-38.9,43.5
	c-3.1,11.9-14.1,23.6-13.7,32.1c0.5,11.9,3.4,2.8,6.9,9.2c1.5,0,3,0,4.6,0c48.5-13.7,97.6-11.3,121.4-48.1
	c15.7-24.3,20.8-52.6,41.2-75.6c13.2-52,6.8-107.3,11.4-160.3c1.7-18.6,10.7-36.4,11.5-55c1.7-40.9-5.3-78.3-4.6-116.8
	c0.7-37,20.5-77.8,16-121.4c17.4,17.3,30.7,49.5,34.3,82.5c5.6,50.6-11.2,97.3-27.5,130.5c34.3-13.1,61.5-54.7,66.4-103.1
	c5.7-56.2-19.6-111.3-32.1-153.5c-0.4-6.5,15,2.8,11.4-6.9c1.1-29.5-18.7-49.8-13.8-75.6c34.8,28.5,46.5,80.3,82.5,107.7
	c13.3-6.3,12.8-20,22.9-29.8c13.1-12.6,33-16.1,43.5-29.8c8.7-11.3,6.7-26.2,20.6-34.4c53.7-6.6,55.4-65.2,91.6-89.3
	c-7.8-46.9,29.1-42.8,55-55c12.6-5.9,22.3-20.2,36.6-27.5c16.6-8.4,33.6-9.4,41.2-20.6c0-3.8,0-7.6,0-11.5
	C2010.5,203.8,1987.2,170.1,1958.9,141.7z M1379.1,405c-10-5.8-44.8-25.1-44.8-25.1s34.8-21.3,42.6-13.5s15.5,11.4,23.2,19.1
	C1407.8,393.2,1389.1,410.8,1379.1,405z M1605.9,405c-10,5.8-26-11.8-18.2-19.6c7.7-7.7,12.7-11.4,20.4-19.1
	c7.7-7.7,42.6,13.5,42.6,13.5S1615.9,399.2,1605.9,405z"/>
<g>
	<line class="st17" x1="226.5" y1="830.5" x2="226.5" y2="311"/>
	<g>
		<circle class="st0" cx="228.5" cy="444.5" r="36"/>
		<g>
			<path class="st1" d="M209.7,460.2h-2.4c-0.4,0-0.7,0.3-0.7,0.7s0.3,0.7,0.7,0.7c47.8,0,12.9,0,42.2,0c0.4,0,0.7-0.3,0.7-0.7
				s-0.3-0.7-0.7-0.7h-7c0-2.6,0.5-9.3,4.5-15c0.2-0.2,0.2-0.5,0-0.8c-0.2-0.2-0.4-0.3-0.7-0.3c-0.1,0-6,1.7-9.2,7.5
				c1.7-11,5.4-18.5,5.4-18.6c0.1-0.2,0.1-0.5-0.1-0.7c-0.2-0.2-0.4-0.3-0.7-0.2c-5.5,1.5-8.6,7.5-10.4,13.6
				c1-9.5,2.6-19.5,4.8-21.6c0.3-0.2,0.3-0.6,0.1-0.9c-0.2-0.3-0.6-0.3-0.9-0.2c-0.5,0.3-10.4,6.4-12.6,29.3
				c-1.3-7.7-4.4-18.5-12-20.5c-0.2-0.1-0.5,0-0.6,0.2s-0.2,0.4-0.2,0.6c0,0,0,0.1,0.1,0.2c0.8,1.7,4,9.2,5.5,19.1
				c-3.1-6.2-9.4-8-9.5-8.1c-0.3-0.1-0.5,0-0.7,0.3c-0.2,0.2-0.2,0.5,0,0.8C209.4,451,209.7,458.2,209.7,460.2z M244.7,446.1
				c-3.2,5.5-3.6,11.4-3.6,14h-4.8C236.1,451.4,241.7,447.6,244.7,446.1z M240.5,433.9c-1.5,3.6-5.3,13.6-5.7,26.2h-4.7
				C230.3,456.4,231.9,438,240.5,433.9z M233.2,426.8c-3.1,8.8-4.2,29.4-4.4,33.4l-5.2-0.1C223.9,440.4,229.7,430.8,233.2,426.8z
				 M222.2,460h-4.7c-0.4-12-4.1-22.3-5.7-26.2C220.4,437.8,222,456.3,222.2,460z M215.8,460H211c0-2.1-0.3-8.3-3.6-14
				C210.4,447.4,216,451.3,215.8,460z"/>
		</g>
	</g>
	<g>
		<circle class="st27" cx="226" cy="310" r="36"/>
		<g>
			<path class="st28" d="M226.3,290.3c8.4,0,15.3,6.8,15.3,15.3c0,8.2-10,18.8-15.3,25.5c-5.2-6.7-15.3-17.3-15.3-25.5
				C211,297.1,217.8,290.3,226.3,290.3L226.3,290.3z M226.3,297.2c4.6,0,8.4,3.8,8.4,8.4s-3.8,8.4-8.4,8.4s-8.4-3.8-8.4-8.4
				S221.6,297.2,226.3,297.2z"/>
		</g>
	</g>
	<g>
		<circle class="st0" cx="226.7" cy="621.9" r="36"/>
		<g>
			<path class="st1" d="M234.5,600.9v41.2h-17v-41.2H234.5z M232.4,640V603h-12.9V640H232.4z"/>
			<rect x="218.5" y="634.5" class="st1" width="9.5" height="2"/>
			<rect x="218.5" y="629" class="st1" width="6.1" height="2"/>
			<rect x="218.5" y="623.4" class="st1" width="9.5" height="2"/>
			<rect x="218.5" y="617.8" class="st1" width="6.1" height="2"/>
			<rect x="218.5" y="612.2" class="st1" width="9.5" height="2"/>
			<rect x="218.5" y="606.7" class="st1" width="6.1" height="2"/>
		</g>
	</g>
	<g>
		<circle class="st0" cx="226.7" cy="831.9" r="36"/>
		<g>
			<g>
				<polygon class="st29" points="232.7,811.8 226.3,843.8 224.4,843.5 222.4,843.2 224.1,810.8 228.4,811.3 				"/>
				<circle class="st29" cx="223.6" cy="851.2" r="2.8"/>
			</g>
		</g>
	</g>
</g>
</svg>
