<?xml version="1.0" encoding="utf-8"?>
<!-- Generator: Adobe Illustrator 24.1.0, SVG Export Plug-In . SVG Version: 6.00 Build 0)  -->
<svg version="1.1" id="Layer_1" xmlns="http://www.w3.org/2000/svg" xmlns:xlink="http://www.w3.org/1999/xlink" x="0px" y="0px"
	 viewBox="-80 0 400 125" style="enable-background:new 0 0 236.5 125;" xml:space="preserve">
<g>
	<path d="M70.5,97.8l-0.4-0.2c-15.8-6.5-26.3-21.7-26.6-38.8V34.3l1.7,1.7c9.1,9.1,18.6,6,24.6,0l0.7-0.7l0.7,0.7
		c2.9,3,6.7,5,10.8,5.6c4.8,0.6,9.5-1.3,13.8-5.6l1.7-1.7v24.5c-0.3,17.1-10.8,32.4-26.6,38.9L70.5,97.8z M45.5,39v19.8
		c0.4,16.1,10.1,30.6,25,36.9c19.7-8.3,25-27.1,25-36.9V39c-4.2,3.6-9,5.2-13.7,4.6c-4.3-0.6-8.2-2.5-11.3-5.5
		c-3.1,3-7.1,5-11.5,5.5C54.3,44.1,49.7,42.5,45.5,39z"/>
	<path d="M91.7,59.4c-0.8,1-2.2,2.6-3.5,3.1c0,0-0.2-0.3-0.7-0.9c0.2-0.3,0.8-1.1,0.9-2.5c0-0.4-0.1-0.9-0.3-1.2
		c-0.3-0.3-0.6-0.5-1-0.5c-0.2,0-0.5,0.1-0.7,0.2c-0.2,0.1-0.6,0.3-1,0.3h-0.8c-1.2-1.4-2.7-2.9-4.2-4.1c-0.4-0.4-0.9-0.6-1.5-0.7
		c-1.2-0.2-3.4-0.3-5.9,0.9c-0.3,0.1-0.6,0.3-0.9,0.4c-0.1,0-0.3,0.1-0.5,0.1c-0.5,0.2-1.1,0.2-1.6,0.2h-8.1c-3.9,0-7.1,3.6-7.1,8.1
		v0.4v-0.1c0,0-0.6,2.4-2.4,4.1l0,0c-0.4-0.2-1-0.3-1.9,0.2c0,0-0.7,0.3-1.5,0.4c-0.4,0-0.5,0.4-0.4,0.7c0.2,0.5,0.8,1.1,1.9,1.5
		c0.6,0.2,1.2,0.1,1.7-0.2c0.3-0.2,0.6-0.6,0.7-1.3c0.5-0.4,1.3-1,2-2v9c0,0.5,0.3,0.8,0.7,0.8h2.9c0.4,0,0.7-0.4,0.7-0.8l0.2-4.4
		h11.2v4.4c0,0.5,0.3,0.8,0.7,0.8h2.8c0.4,0,0.7-0.4,0.7-0.8v-4.9c0,0,2-1.5,3-3.5c0.1-0.2,0.4-0.3,0.6-0.1c0.5,0.5,1.2,1.3,1.8,2.2
		c0.4,0.6,1,1.1,1.6,1.2c0.8,0.1,1.8,0.3,2.8,0.2c0,0,1.5,0,2.7,0.3c0.2,0.1,0.4,0,0.5,0c0.6-0.2,2-1,1.6-3.4c0,0,3.7-2.6,3-7.7
		C92.5,59.2,92,59.1,91.7,59.4z M87.3,58.9c-0.1,0.9-0.4,1.4-0.5,1.7c-0.3-0.4-0.7-0.9-1.2-1.4c0.6-0.1,1.1-0.3,1.4-0.5h0.1
		C87.2,58.6,87.3,58.8,87.3,58.9z M83.1,63.3c-0.4,0-0.8-0.4-0.8-0.9s0.4-0.9,0.8-0.9c0.4,0,0.8,0.4,0.8,0.9
		C83.9,62.9,83.5,63.3,83.1,63.3z"/>
</g>
<g>
	<path d="M163.2,37.9c-16,0-29,13-29,29s13,29,29,29s29-13,29-29S179.2,37.9,163.2,37.9z M164.2,93.9V86h-2v7.9
		c-14.1-0.5-25.5-11.9-26-26h7.9v-2h-7.9c0.5-14.1,11.9-25.5,26-26v7.9h2v-7.9c14.1,0.5,25.5,11.9,26,26h-7.9v2h7.9
		C189.7,82,178.3,93.4,164.2,93.9z"/>
	<path d="M151.1,69v3.6c0,0.4-0.1,0.7-0.4,1l-0.9,0.9c-0.3,0.3-0.4,0.7-0.4,1.1l0.3,6.4c0,0.2,0.2,0.4,0.4,0.4h0.6
		c0.2,0,0.4-0.2,0.4-0.3l0.4-5.3c0,0,0.9-0.2,2.1-0.8l0.3,5c0,0.2,0.2,0.3,0.3,0.3h0.6c0.2,0,0.3-0.1,0.3-0.3l0.5-3.8
		c1.5-0.5,2.4-1.6,2.7-2.2c1.6,0.3,3.9,0.2,6.5-1.3L165,82c0,0.2,0.2,0.4,0.4,0.4h0.8c0.2,0,0.4-0.1,0.4-0.3l0.9-9.3
		c0,0,0.3-0.1,0.9-0.4l0.3,8.4c0,0.2,0.2,0.4,0.5,0.4h0.5c0.2,0,0.5-0.2,0.5-0.4l0.4-9.8c2.1-1.7,4.6-4.8,4.9-10.3l3-0.4
		c0.4-0.1,0.7-0.4,0.7-0.8v-0.6c0-0.4-0.3-0.7-0.6-0.8c-0.7-0.2-1.9-0.6-2.8-2c-0.1-0.1-0.2-0.3-0.4-0.4c-0.2-2.3-2.7-3.4-2.7-3.4
		c-2.5-1.3-2.1-3.6-1.6-4.9c0.1-0.3-0.3-0.6-0.6-0.4c-1.1,1-1.2,2.8-1.2,2.8c0,1.3,0.7,2.2,1.4,2.7c-2.6-0.9-2.6-3.2-2.3-4.5
		c0.1-0.3-0.4-0.5-0.6-0.3c-0.9,1.2-0.7,3-0.7,3c0.3,1.8,2.1,2.6,2.8,2.8c0.3,0.1,0.6,0.2,0.9,0.4c0.8,0.5,1.2,1.1,1.4,1.5h-3.1
		c0,0,0.5,2.3,3.3,1.3c0,2.5-0.3,7.8-5.6,8.2l-12,0.8c0,0-1.4-0.5-2.3-1.6c-0.3-0.3-0.8-0.1-0.8,0.3c-0.1,0.8,0,1.7,0.8,2.4
		l-0.7,0.7C151.3,68.1,151.1,68.6,151.1,69z M174.3,58.3c-0.4,0-0.6-0.3-0.6-0.6c0-0.3,0.3-0.6,0.6-0.6c0.4,0,0.6,0.3,0.6,0.6
		C175,58,174.7,58.3,174.3,58.3z"/>
</g>
</svg>
