<?xml version="1.0" encoding="utf-8"?>
<!-- Generator: Adobe Illustrator 24.1.0, SVG Export Plug-In . SVG Version: 6.00 Build 0)  -->
<svg version="1.1" id="Layer_1" xmlns="http://www.w3.org/2000/svg" xmlns:xlink="http://www.w3.org/1999/xlink" x="0px" y="0px"
	 viewBox="-195 0 450 65.8" style="enable-background:new 0 0 64 65.8;" xml:space="preserve">
<path d="M31.3,43.7c0.2,0.2,0.4,0.3,0.7,0.3c0.3,0,0.5-0.1,0.7-0.3l19.4-19.4c2.5-2.5,3.8-5.8,3.8-9.2c0-3.5-1.4-6.8-3.8-9.2
	c-5.1-5.1-13.4-5.1-18.5,0L32,7.4l-1.6-1.6c-5.1-5.1-13.4-5.1-18.5,0C9.4,8.3,8,11.6,8,15.1s1.4,6.8,3.8,9.2L31.3,43.7z M13.3,7.2
	c2.2-2.2,5-3.2,7.9-3.2s5.7,1.1,7.9,3.2l2.3,2.3c0.4,0.4,1,0.4,1.4,0L35,7.3c4.3-4.3,11.4-4.3,15.7,0c2.1,2.1,3.3,4.9,3.3,7.8
	c0,3-1.2,5.7-3.3,7.8L32,41.6L13.3,22.9C11.2,20.8,10,18,10,15.1S11.2,9.3,13.3,7.2z"/>
<path d="M9,62h2v-7c0-0.6-0.4-1-1-1H2v2h7V62z"/>
<path d="M56,52h6v-2h-5.9L52,49h0c0.6-0.8,1-1.9,1-3c0-2.8-2.2-5-5-5s-5,2.2-5,5c0,1.1,0.4,2.2,1,3h0l-4.1,1H24.1L20,49h0
	c0.6-0.8,1-1.9,1-3c0-2.8-2.2-5-5-5s-5,2.2-5,5c0,1.1,0.4,2.2,1,3h0l-4.1,1H2v2h6l4.1-1h7.8l3.9,1l7.2,0v2h-9c-0.6,0-1,0.4-1,1v7h2
	v-6h18v6h2v-7c0-0.6-0.4-1-1-1h-9v-2l7.2,0l3.9-1h7.8 M16,49c-1.7,0-3-1.3-3-3s1.3-3,3-3s3,1.3,3,3S17.7,49,16,49z M48,49
	c-1.7,0-3-1.3-3-3s1.3-3,3-3s3,1.3,3,3S49.7,49,48,49z"/>
<path d="M53,55v7h2v-6h7v-2h-8C53.4,54,53,54.4,53,55z"/>
<path d="M25.8,23.5v2.5c0,0.3-0.1,0.5-0.3,0.7L25,27.3c-0.2,0.2-0.3,0.5-0.3,0.7l0.2,4.4c0,0.1,0.1,0.2,0.2,0.2h0.4
	c0.1,0,0.2-0.1,0.2-0.2l0.2-3.7c0,0,0.6-0.2,1.3-0.6l0.2,3.4c0,0.1,0.1,0.2,0.2,0.2h0.4c0.1,0,0.2-0.1,0.2-0.2l0.3-2.6
	c1-0.3,1.5-1.1,1.7-1.5c1,0.2,2.5,0.1,4.1-0.9l0.1,5.7c0,0.1,0.1,0.3,0.2,0.3h0.5c0.1,0,0.2-0.1,0.2-0.2l0.6-6.4
	c0,0,0.2-0.1,0.6-0.3l0.2,5.8c0,0.2,0.1,0.3,0.3,0.3h0.3c0.2,0,0.3-0.1,0.3-0.3l0.3-6.7c1.3-1.1,2.9-3.3,3.1-7.1l1.9-0.3
	c0.3,0,0.4-0.3,0.4-0.5v-0.4c0-0.2-0.2-0.5-0.4-0.5c-0.4-0.1-1.2-0.4-1.7-1.4c-0.1-0.1-0.1-0.2-0.2-0.2c-0.1-1.6-1.7-2.3-1.7-2.3
	c-1.6-0.9-1.3-2.5-1-3.4c0.1-0.2-0.2-0.4-0.4-0.2c-0.7,0.7-0.8,2-0.8,2c0,0.9,0.5,1.5,0.9,1.9c-1.6-0.6-1.6-2.2-1.5-3.1
	c0-0.2-0.3-0.4-0.4-0.2c-0.6,0.8-0.4,2.1-0.4,2.1c0.2,1.3,1.3,1.8,1.7,1.9c0.2,0.1,0.4,0.1,0.5,0.2c0.5,0.3,0.8,0.7,0.9,1H37
	c0,0,0.3,1.6,2.1,0.9c0,1.7-0.2,5.3-3.5,5.6l-7.6,0.6c0,0-0.9-0.3-1.5-1.1c-0.2-0.2-0.5-0.1-0.5,0.2c-0.1,0.5,0,1.2,0.5,1.7
	l-0.4,0.5C25.9,22.8,25.8,23.2,25.8,23.5z M40.4,16.1c-0.2,0-0.4-0.2-0.4-0.4s0.2-0.4,0.4-0.4c0.2,0,0.4,0.2,0.4,0.4
	S40.7,16.1,40.4,16.1z"/>
</svg>
