<?xml version="1.0" encoding="utf-8"?>
<!-- Generator: Adobe Illustrator 24.1.0, SVG Export Plug-In . SVG Version: 6.00 Build 0)  -->
<svg version="1.1" id="Layer_1" xmlns="http://www.w3.org/2000/svg" xmlns:xlink="http://www.w3.org/1999/xlink" x="0px" y="0px"
	 viewBox="0 0 155 111" style="enable-background:new 0 0 155 111;" xml:space="preserve">
<g>
	<path d="M20,27.8c-0.7,0.3,1.2,0.8,1.7,0.6c3.1-1.2,6.1-3,5.8-5.6c-0.1-1.1-1-2.3-2.1-3.1c-0.4-0.3-2.4-0.4-1.9,0
		c0.9,0.7,1.4,1.5,1.8,2.3C26.2,24.6,23,26.6,20,27.8z"/>
	<path d="M39.4,22.3c-3,0.8-6.3,1.2-7.9-1c-0.6-0.8-0.9-1.8-0.9-2.6c0-0.5-2-0.8-2.1-0.3c0,1.3,0.5,2.7,1.7,3.7
		c2.4,2.3,7.1,1.9,10.5,1C41.8,22.7,40,22.1,39.4,22.3z"/>
	<path d="M42.3,26c0.6-0.1-0.4-1.4-1.2-1.2c-1.6,0.4-3,1.1-4.1,2c-2.4,1.9-1.5,4.5,0,6.5c0.4,0.6,1.7,0.8,1.1,0
		C35.9,30.2,37.6,27.1,42.3,26z"/>
	<path d="M21.2,30.7c-1.2,0.3,0.3,1.2,1.3,0.9c2.6-0.7,6.2-1.5,7.9,0.5c0.6,0.7,0.9,1.5,0.9,2.3c0,0.7,2.1,0.7,2.1-0.1
		c0-1.2-0.6-2.4-1.7-3.3C29,29,24.4,29.8,21.2,30.7z"/>
</g>
<path d="M15.3,66.5V73c0,0.7-0.3,1.3-0.7,1.8L13,76.4c-0.5,0.5-0.8,1.2-0.7,1.9l0.5,11.5c0,0.4,0.3,0.6,0.7,0.6h1.1
	c0.4,0,0.7-0.3,0.7-0.6l0.7-9.6c0,0,1.6-0.4,3.7-1.5l0.6,9c0,0.3,0.3,0.6,0.6,0.6h1c0.3,0,0.6-0.2,0.6-0.5l0.9-6.8
	c2.8-0.9,4.2-2.9,4.9-3.9c2.8,0.5,7,0.3,11.7-2.3l0.3,15c0,0.4,0.3,0.7,0.7,0.7h1.5c0.4,0,0.7-0.3,0.7-0.6l1.6-16.8
	c0,0,0.6-0.2,1.6-0.7l0.6,15.2c0,0.4,0.4,0.8,0.8,0.8h0.9c0.4,0,0.8-0.3,0.8-0.8l0.8-17.6c3.8-3,8.3-8.6,8.8-18.6l5.3-0.7
	c0.7-0.1,1.3-0.7,1.3-1.4v-1.1c0-0.7-0.5-1.2-1.1-1.4c-1.3-0.3-3.4-1.1-4.9-3.6c-0.2-0.3-0.4-0.5-0.6-0.6c-0.4-4.1-4.9-6.2-4.9-6.2
	c-4.5-2.3-3.7-6.5-2.8-8.8c0.2-0.6-0.5-1.1-1-0.6c-2,1.9-2.2,5.1-2.2,5.1c-0.1,2.3,1.3,3.9,2.5,4.9c-4.6-1.6-4.6-5.7-4.2-8.1
	c0.1-0.6-0.7-1-1.1-0.5c-1.7,2.2-1.3,5.4-1.3,5.4c0.5,3.3,3.7,4.6,5,5.1c0.5,0.2,1.1,0.4,1.5,0.6c1.5,0.9,2.2,2,2.5,2.7h-5.5
	c0,0,0.9,4.1,5.9,2.4c0,4.4-0.5,14-10,14.8L21.7,61c0,0-2.5-0.9-4.2-2.8c-0.5-0.6-1.4-0.3-1.5,0.5c-0.1,1.4,0,3.1,1.5,4.4l-1.2,1.2
	C15.6,64.9,15.3,65.7,15.3,66.5z M56.9,47.2c-0.6,0-1.2-0.5-1.2-1.1s0.5-1.1,1.2-1.1c0.6,0,1.2,0.5,1.2,1.1
	C58.1,46.7,57.6,47.2,56.9,47.2z"/>
<path d="M129.3,66.5V73c0,0.7,0.3,1.3,0.7,1.8l1.6,1.6c0.5,0.5,0.8,1.2,0.7,1.9l-0.5,11.5c0,0.4-0.3,0.6-0.7,0.6H130
	c-0.4,0-0.7-0.3-0.7-0.6l-0.7-9.6c0,0-1.6-0.4-3.7-1.5l-0.6,9c0,0.3-0.3,0.6-0.6,0.6h-1c-0.3,0-0.6-0.2-0.6-0.5l-0.9-6.8
	c-2.8-0.9-4.2-2.9-4.9-3.9c-2.8,0.5-7,0.3-11.7-2.3l-0.3,15c0,0.4-0.3,0.7-0.7,0.7h-1.5c-0.4,0-0.7-0.3-0.7-0.6l-1.6-16.8
	c0,0-0.6-0.2-1.6-0.7l-0.6,15.2c0,0.4-0.4,0.8-0.8,0.8H96c-0.4,0-0.8-0.3-0.8-0.8l-0.8-17.6c-3.8-3-8.3-8.6-8.8-18.6l-5.3-0.7
	c-0.7-0.1-1.3-0.7-1.3-1.4v-1.1c0-0.7,0.5-1.2,1.1-1.4c1.3-0.3,3.4-1.1,4.9-3.6c0.2-0.3,0.4-0.5,0.6-0.6c0.4-4.1,4.9-6.2,4.9-6.2
	c4.5-2.3,3.7-6.5,2.8-8.8c-0.2-0.6,0.5-1.1,1-0.6c2,1.9,2.2,5.1,2.2,5.1c0.1,2.3-1.3,3.9-2.5,4.9c4.6-1.6,4.6-5.7,4.2-8.1
	c-0.1-0.6,0.7-1,1.1-0.5c1.7,2.2,1.3,5.4,1.3,5.4c-0.5,3.3-3.7,4.6-5,5.1c-0.5,0.2-1.1,0.4-1.5,0.6c-1.5,0.9-2.2,2-2.5,2.7h5.5
	c0,0-0.9,4.1-5.9,2.4c0,4.4,0.5,14,10,14.8l21.5,1.5c0,0,2.5-0.9,4.2-2.8c0.5-0.6,1.4-0.3,1.5,0.5c0.1,1.4,0,3.1-1.5,4.4l1.2,1.2
	C128.9,64.9,129.3,65.7,129.3,66.5z M87.6,47.2c0.6,0,1.2-0.5,1.2-1.1S88.3,45,87.6,45c-0.6,0-1.2,0.5-1.2,1.1
	C86.5,46.7,87,47.2,87.6,47.2z"/>
<g>
	<path d="M125.5,28.6c0.7,0.3-1.2,0.8-1.7,0.6c-3.1-1.2-6.1-3-5.8-5.6c0.1-1.1,1-2.3,2.1-3.1c0.4-0.3,2.4-0.4,1.9,0
		c-0.9,0.7-1.4,1.5-1.8,2.3C119.2,25.4,122.5,27.4,125.5,28.6z"/>
	<path d="M106,23.1c3,0.8,6.3,1.2,7.9-1c0.6-0.8,0.9-1.8,0.9-2.6c0-0.5,2-0.8,2.1-0.3c0,1.3-0.5,2.7-1.7,3.7
		c-2.4,2.3-7.1,1.9-10.5,1C103.6,23.5,105.4,22.9,106,23.1z"/>
	<path d="M103.2,26.7c-0.6-0.1,0.4-1.4,1.2-1.2c1.6,0.4,3,1.1,4.1,2c2.4,1.9,1.5,4.5,0,6.5c-0.4,0.6-1.7,0.8-1.1,0
		C109.6,31,107.9,27.9,103.2,26.7z"/>
	<path d="M124.2,31.5c1.2,0.3-0.3,1.2-1.3,0.9c-2.6-0.7-6.2-1.5-7.9,0.5c-0.6,0.7-0.9,1.5-0.9,2.3c0,0.7-2.1,0.7-2.1-0.1
		c0-1.2,0.6-2.4,1.7-3.3C116.4,29.8,121.1,30.6,124.2,31.5z"/>
</g>
</svg>
