<?xml version="1.0" encoding="utf-8"?>
<!-- Generator: Adobe Illustrator 24.1.0, SVG Export Plug-In . SVG Version: 6.00 Build 0)  -->
<svg version="1.1" id="Layer_1" xmlns="http://www.w3.org/2000/svg" xmlns:xlink="http://www.w3.org/1999/xlink" x="0px" y="0px"
	 viewBox="0 0 64 80" style="enable-background:new 0 0 64 80;" xml:space="preserve">
<g>
	<path d="M59.6,21c-0.5,0-1.1,0.1-1.5,0.4c-2.1,1.1-4.5,1.6-6.9,1.6h-0.9c-1.4,0-2.8-0.1-4.2-0.4c-1.2-0.2-2-1.3-2-2.5v-2.3
		c0-3.4-1.5-6.6-4.1-8.7C38.6,8,37.6,6.5,37,4.9l-0.1-0.4C36.2,2.4,34.2,1,32,1c-2.2,0-4.2,1.4-4.9,3.5L27,4.9
		c-0.6,1.7-1.6,3.1-2.9,4.2c-2.6,2.2-4.1,5.4-4.1,8.7v2.3c0,1.2-0.8,2.2-2,2.5c-1.4,0.3-2.8,0.4-4.2,0.4h-0.9
		c-2.4,0-4.8-0.6-6.9-1.6C5.5,21.1,5,21,4.4,21C2.5,21,1,22.5,1,24.5c0,1.3,0.7,2.5,1.9,3.1l11.2,5.6c0.5,0.3,0.9,0.8,0.9,1.4v16
		c0,0.5-0.3,1.1-0.8,1.3l-7.5,4.5C5.7,57,5,58.2,5,59.4c0,2,1.6,3.6,3.6,3.6H24c3,0,5.9-1.3,8-3.5c2.1,2.2,5,3.5,8,3.5h15.4
		c2,0,3.6-1.6,3.6-3.6c0-1.2-0.7-2.4-1.7-3l-7.5-4.5c-0.5-0.3-0.8-0.8-0.8-1.3v-16c0-0.6,0.3-1.1,0.9-1.4l11.2-5.6
		c1.2-0.6,1.9-1.8,1.9-3.1C63,22.5,61.5,21,59.6,21z M32,3c0.9,0,1.8,0.4,2.4,1.1C33.7,4.5,32.8,5,32,5s-1.7-0.5-2.4-0.9
		C30.2,3.4,31.1,3,32,3z M60.2,25.8L49,31.4c-1.2,0.6-2,1.8-2,3.2v16c0,1.2,0.7,2.4,1.7,3l7.5,4.5c0.5,0.3,0.8,0.8,0.8,1.3
		c0,0.9-0.7,1.6-1.6,1.6H40c-2.8,0-5.5-1.3-7.2-3.6L32,56.3l-0.8,1.1C29.5,59.7,26.8,61,24,61H8.6C7.7,61,7,60.3,7,59.4
		c0-0.5,0.3-1.1,0.8-1.3l7.5-4.5c1.1-0.6,1.7-1.8,1.7-3v-16c0-1.4-0.8-2.6-2-3.2L3.8,25.8C3.3,25.5,3,25,3,24.4
		C3,23.6,3.6,23,4.4,23c0.2,0,0.4,0.1,0.6,0.2c2.4,1.2,5.1,1.8,7.8,1.8h0.9c1.5,0,3.1-0.2,4.6-0.5c2.1-0.4,3.6-2.3,3.6-4.4v-2.3
		c0-2.8,1.2-5.4,3.4-7.2c1.5-1.3,2.7-2.9,3.4-4.8C29.6,6.4,30.8,7,32,7c1.2,0,2.4-0.6,3.3-1.1c0.7,1.9,1.8,3.5,3.4,4.8
		c2.1,1.8,3.4,4.4,3.4,7.2v2.3c0,2.1,1.5,4,3.6,4.4c1.5,0.3,3.1,0.5,4.6,0.5h0.9c2.7,0,5.4-0.6,7.8-1.8c0.2-0.1,0.4-0.2,0.6-0.2
		c0.8,0,1.4,0.6,1.4,1.5C61,25,60.7,25.5,60.2,25.8z"/>
	<circle cx="37" cy="16" r="1"/>
	<circle cx="27" cy="16" r="1"/>
	<rect x="19" y="26" width="2" height="3"/>
	<rect x="27" y="26" width="2" height="3"/>
	<rect x="35" y="26" width="2" height="3"/>
	<rect x="43" y="26" width="2" height="3"/>
	<rect x="23" y="32" width="2" height="3"/>
	<rect x="31" y="32" width="2" height="3"/>
	<rect x="39" y="32" width="2" height="3"/>
	<rect x="19" y="38" width="2" height="3"/>
	<rect x="27" y="38" width="2" height="3"/>
	<rect x="35" y="38" width="2" height="3"/>
	<rect x="43" y="38" width="2" height="3"/>
	<rect x="23" y="44" width="2" height="3"/>
	<rect x="31" y="44" width="2" height="3"/>
	<rect x="39" y="44" width="2" height="3"/>
	<rect x="19" y="50" width="2" height="3"/>
	<rect x="27" y="50" width="2" height="3"/>
	<rect x="35" y="50" width="2" height="3"/>
	<rect x="43" y="50" width="2" height="3"/>
	<rect x="23" y="56" width="2" height="3"/>
	<rect x="39" y="56" width="2" height="3"/>
</g>
</svg>
