<?xml version="1.0" encoding="utf-8"?>
<!-- Generator: Adobe Illustrator 24.1.0, SVG Export Plug-In . SVG Version: 6.00 Build 0)  -->
<svg version="1.1" id="Layer_1" xmlns="http://www.w3.org/2000/svg" xmlns:xlink="http://www.w3.org/1999/xlink" x="0px" y="0px"
	 viewBox="0 0 64 80" style="enable-background:new 0 0 64 80;" xml:space="preserve">
<path d="M52,1c-6.1,0-11,4.9-11,11s4.9,11,11,11s11-4.9,11-11S58.1,1,52,1z M52,21c-5,0-9-4-9-9s4-9,9-9s9,4,9,9S57,21,52,21z"/>
<path d="M25.5,30.2c-0.3-0.2-0.7-0.1-1,0.1l-1.6,1.2L17,24.4l-1.6,1.3l5.7,7.1l-1.6,1.2c-0.3,0.2-0.5,0.6-0.4,1
	c0.1,0.4,0.3,0.7,0.7,0.8l4.8,1.4c0.1,0,0.2,0,0.3,0c0.2,0,0.4-0.1,0.6-0.2c0.3-0.2,0.4-0.5,0.4-0.8l0-5
	C26,30.7,25.8,30.4,25.5,30.2z M24,34.7l-1.6-0.5l1.6-1.2L24,34.7z"/>
<path d="M41.2,31.5l-1.6-1.2c-0.3-0.2-0.7-0.3-1-0.1c-0.3,0.2-0.5,0.5-0.5,0.9l0,5c0,0.3,0.2,0.6,0.4,0.8c0.2,0.1,0.4,0.2,0.6,0.2
	c0.1,0,0.2,0,0.3,0l4.8-1.4c0.4-0.1,0.6-0.4,0.7-0.8c0.1-0.4-0.1-0.8-0.4-1l-1.6-1.2l5.7-7.1L47,24.4L41.2,31.5z M40,34.7l0-1.7
	l1.6,1.2L40,34.7z"/>
<path d="M46.5,46.8c0-0.3-0.2-0.6-0.5-0.8l-1.3-0.7l3-2.5l-1.3-1.5l-4.1,3.4c-0.3,0.2-0.4,0.5-0.4,0.9c0,0.3,0.2,0.6,0.5,0.8
	l1.3,0.7l-3,2.5l1.3,1.5l4.2-3.4C46.4,47.4,46.5,47.1,46.5,46.8z"/>
<path d="M17.9,46.8c0,0.3,0.1,0.7,0.4,0.9l4.1,3.4l1.3-1.5l-3-2.5l1.3-0.7c0.3-0.2,0.5-0.5,0.5-0.8s-0.1-0.7-0.4-0.9L18,41.2
	l-1.3,1.5l3,2.5L18.4,46C18.1,46.1,17.9,46.4,17.9,46.8z"/>
<path d="M16.6,62.9v3.3c0,0.3-0.1,0.7-0.4,0.9L15.5,68c-0.2,0.3-0.4,0.6-0.4,1l0.2,5.9c0,0.2,0.2,0.3,0.3,0.3h0.6
	c0.2,0,0.3-0.1,0.3-0.3l0.3-5c0,0,0.8-0.2,1.9-0.8l0.3,4.7c0,0.2,0.1,0.3,0.3,0.3h0.5c0.2,0,0.3-0.1,0.3-0.3l0.4-3.5
	c1.4-0.4,2.1-1.5,2.4-2c1.4,0.2,3.5,0.2,5.8-1.2l0.2,7.7c0,0.2,0.2,0.3,0.3,0.3h0.7c0.2,0,0.3-0.1,0.3-0.3l0.8-8.6
	c0,0,0.3-0.1,0.8-0.3l0.3,7.8c0,0.2,0.2,0.4,0.4,0.4h0.4c0.2,0,0.4-0.2,0.4-0.4l0.4-9.1c1.9-1.6,4.1-4.5,4.4-9.6l2.6-0.4
	c0.4,0,0.6-0.4,0.6-0.7v-0.6c0-0.3-0.2-0.6-0.6-0.7c-0.6-0.1-1.7-0.6-2.4-1.8c-0.1-0.1-0.2-0.2-0.3-0.3c-0.2-2.1-2.4-3.2-2.4-3.2
	c-2.2-1.2-1.8-3.4-1.4-4.5c0.1-0.3-0.3-0.6-0.5-0.3c-1,1-1.1,2.6-1.1,2.6c0,1.2,0.6,2,1.2,2.5c-2.3-0.8-2.3-3-2.1-4.2
	c0.1-0.3-0.4-0.5-0.6-0.2c-0.8,1.1-0.6,2.8-0.6,2.8c0.3,1.7,1.8,2.4,2.5,2.6c0.3,0.1,0.5,0.2,0.8,0.3c0.8,0.5,1.1,1,1.3,1.4h-2.7
	c0,0,0.4,2.1,2.9,1.2c0,2.3-0.2,7.2-4.9,7.6L19.8,60c0,0-1.2-0.4-2.1-1.5c-0.2-0.3-0.7-0.1-0.7,0.2c-0.1,0.7,0,1.6,0.7,2.3l-0.6,0.6
	C16.8,62,16.6,62.4,16.6,62.9z M37.3,52.9c-0.3,0-0.6-0.3-0.6-0.6s0.3-0.6,0.6-0.6c0.3,0,0.6,0.3,0.6,0.6
	C37.8,52.7,37.6,52.9,37.3,52.9z"/>
<g>
	<path d="M12,23c6.1,0,11-4.9,11-11S18.1,1,12,1S1,5.9,1,12S5.9,23,12,23z M12,3c5,0,9,4,9,9s-4,9-9,9s-9-4-9-9S7,3,12,3z"/>
	<g>
		<ellipse cx="10.3" cy="10.6" rx="1" ry="0.7"/>
		<ellipse cx="11" cy="12.2" rx="0.6" ry="0.5"/>
		<ellipse cx="12.5" cy="12.4" rx="0.4" ry="0.3"/>
		<ellipse cx="13.8" cy="13.2" rx="0.6" ry="0.5"/>
		<path d="M17,13.3l-1.3-0.1c0-0.1,0-0.1,0-0.2c0-0.3-0.1-0.6-0.3-0.8l1.2-0.5c0.1-0.1,0.2-0.2,0.1-0.3c-0.1-0.1-0.3-0.1-0.4-0.1
			l-1.3,0.6c-0.4-0.3-0.8-0.4-1.4-0.4c-0.1,0-0.2,0-0.4,0l1.1-0.5c0.1-0.1,0.2-0.2,0.1-0.3c-0.1-0.1-0.3-0.1-0.4-0.1l-1.3,0.6
			c-0.2-0.2-0.3-0.4-0.3-0.6c0-0.2,0-0.3-0.1-0.5l1.2-0.5c0.1-0.1,0.2-0.2,0.1-0.3c-0.1-0.1-0.3-0.1-0.4-0.1l-1.2,0.5
			C11.9,9.4,11.5,9.2,11,9l0-1.1c0-0.1-0.1-0.2-0.3-0.2c-0.2,0-0.3,0.1-0.3,0.2l0,1c0,0,0,0,0,0C10,9,9.6,9.1,9.3,9.2L8.6,8.3
			C8.5,8.2,8.3,8.2,8.2,8.2C8.1,8.3,8,8.4,8.1,8.5l0.8,1c-0.3,0.3-0.5,0.6-0.5,1c0,0.2,0,0.4,0.1,0.6L7,11.2c-0.2,0-0.3,0.1-0.3,0.2
			c0,0.1,0.1,0.2,0.3,0.2c0,0,0,0,0,0l1.5-0.1C8.7,12,9,12.5,9.3,12.8l-1.2,0.5C8,13.4,7.9,13.6,8,13.7c0.1,0.1,0.2,0.1,0.3,0.1
			c0,0,0.1,0,0.1,0l1.3-0.6c0.3,0.3,0.7,0.5,1.1,0.7l-0.7,0.9c-0.1,0.1,0,0.2,0.1,0.3c0,0,0.1,0,0.1,0c0.1,0,0.2,0,0.3-0.1l0.7-0.9
			c0.4,0.2,0.9,0.3,1.4,0.4l-0.1,1.1c0,0.1,0.1,0.2,0.3,0.2c0,0,0,0,0,0c0.2,0,0.3-0.1,0.3-0.2l0.1-1c0.2,0,0.3,0,0.5,0
			c0.2,0,0.4,0,0.6-0.1l0.7,0.9c0.1,0.1,0.2,0.1,0.2,0.1c0.1,0,0.1,0,0.1,0c0.1-0.1,0.2-0.2,0.1-0.3l-0.7-0.9
			c0.3-0.2,0.6-0.4,0.7-0.7l1.4,0.1c0,0,0,0,0,0c0.1,0,0.3-0.1,0.3-0.2C17.3,13.5,17.2,13.4,17,13.3z M9,10.5c0-0.6,0.7-1.1,1.5-1.1
			c0.8,0,1.5,0.5,1.5,1.1c0,0.8,0.8,1.4,1.8,1.4c0.8,0,1.5,0.5,1.5,1.1c0,0.1,0,0.2,0,0.3c0,0,0,0,0,0.1c0,0,0,0,0,0
			c-0.2,0.5-0.7,0.8-1.4,0.8C11.1,14.2,9,12.5,9,10.5z"/>
	</g>
</g>
<path d="M47.7,13.8c-0.1-0.2-0.1-0.3-0.1-0.5c0-0.1,0-0.3,0-0.4l-0.8-0.3c-0.2-0.1-0.3-0.2-0.2-0.4c0.1-0.2,0.2-0.3,0.4-0.2l0.9,0.3
	c0.1-0.2,0.3-0.3,0.6-0.4l-0.2-0.6c-0.1-0.2,0-0.3,0.2-0.4c0.2-0.1,0.4,0,0.4,0.2l0.3,0.7c0.6,0,0.9-0.2,1.2-0.6l-0.8-0.4
	c-0.2-0.1-0.2-0.3-0.1-0.4c0.1-0.2,0.3-0.2,0.4-0.1l0.7,0.3c0.1-0.3,0.2-0.6,0.3-0.8l-0.6-0.4C50,9.4,50,9.2,50.1,9s0.3-0.2,0.4-0.1
	l0.6,0.4c0.2-0.2,0.4-0.5,0.6-0.6l-0.4-0.6c-0.1-0.1,0-0.3,0.1-0.4c0.2-0.1,0.4,0,0.4,0.1l0.4,0.6c0.3-0.1,0.5-0.2,0.8-0.2V7.4
	c0-0.2,0.1-0.3,0.3-0.3c0.2,0,0.3,0.1,0.3,0.3v0.6c0.4,0,0.7,0.1,1,0.2l0.3-0.5c0.2-0.4,0.8,0,0.6,0.3l-0.3,0.5
	C55.6,8.8,55.8,9,56,9.3l0.6-0.4c0.2-0.1,0.4,0,0.4,0.1s0,0.3-0.1,0.4l-0.7,0.4c0.1,0.3,0.2,0.6,0.3,0.9h0.7c0.2,0,0.3,0.1,0.3,0.3
	c0,0.2-0.1,0.3-0.3,0.3h-0.7c0,0.3,0,0.6-0.1,0.9l0.7,0.2c0.2,0.1,0.3,0.2,0.2,0.4c-0.1,0.2-0.2,0.3-0.4,0.2l-0.8-0.2
	c-0.1,0.2-0.2,0.4-0.3,0.5l0.6,0.6c0.1,0.1,0.1,0.3,0,0.4c-0.1,0.1-0.3,0.1-0.5,0l-0.6-0.6c-0.2,0.1-0.3,0.3-0.5,0.4l0.4,0.7
	c0.1,0.1,0,0.3-0.1,0.4c-0.2,0.1-0.4,0-0.4-0.1l-0.4-0.7c-0.2,0.1-0.5,0.2-0.7,0.3l0.3,0.8c0.1,0.2,0,0.3-0.2,0.4
	c-0.2,0.1-0.4,0-0.4-0.2l-0.3-0.8c-0.3,0.1-0.6,0.1-0.8,0.1l0.1,0.7c0,0.2-0.1,0.3-0.3,0.4s-0.3-0.1-0.4-0.3l-0.1-0.8
	c-0.3,0-0.6,0-0.9,0L50.7,16c0,0.2-0.2,0.3-0.4,0.3S50,16.1,50,15.9l0.1-0.7c-0.3,0-0.6-0.1-0.9-0.2L49,15.8
	C49,15.9,48.8,16,48.6,16c-0.2-0.1-0.3-0.2-0.2-0.4l0.3-0.8c-0.3-0.1-0.5-0.3-0.7-0.5l-0.6,0.4c-0.2,0.1-0.4,0-0.4-0.1
	s0-0.3,0.1-0.4L47.7,13.8z M49.5,14.4c0.9,0.3,2.5,0.3,3.9,0c1.4-0.3,2.7-1.6,2.7-3c0-1.6-1-2.7-2.4-2.7c-1.3,0-2.1,0.7-2.5,2.1
	c-0.3,1.2-1,1.7-2.1,1.7c-0.6,0-0.8,0.3-0.8,0.8C48.2,13.8,48.6,14.1,49.5,14.4z M53.6,12.5c-0.8,0-1.5-0.6-1.5-1.4s0.7-1.4,1.5-1.4
	c0.8,0,1.5,0.6,1.5,1.4S54.4,12.5,53.6,12.5z M53.6,11.9c0.4,0,0.8-0.4,0.8-0.8c0-0.4-0.4-0.8-0.8-0.8s-0.8,0.4-0.8,0.8
	C52.8,11.5,53.1,11.9,53.6,11.9z M49.8,13.9c-0.3,0-0.5-0.2-0.5-0.5s0.2-0.5,0.5-0.5c0.3,0,0.5,0.2,0.5,0.5S50.1,13.9,49.8,13.9z"/>
</svg>
