<?xml version="1.0" encoding="utf-8"?>
<!-- Generator: Adobe Illustrator 24.1.0, SVG Export Plug-In . SVG Version: 6.00 Build 0)  -->
<svg version="1.1" id="Layer_1" xmlns="http://www.w3.org/2000/svg" xmlns:xlink="http://www.w3.org/1999/xlink" x="0px" y="0px"
	 viewBox="0 0 130 125" style="enable-background:new 0 0 91 113.8;" xml:space="preserve">
<g>
	<g>
		<path d="M63,85.7l0.9,4.2c3-0.7,5.6-1.9,7.8-3.6l-2.6-3.3C67.5,84.3,65.4,85.2,63,85.7z"/>
		<path d="M75.8,67.3c-1.6-2.6-4.1-4.5-7.2-5.5l-1.4,4c2.1,0.7,3.8,2,4.9,3.7L75.8,67.3z"/>
		<path d="M77.8,74.4c0-0.4,0-0.8-0.1-1.2l-4.2,0.4c0,0.3,0,0.6,0,0.8c0,1.8-0.5,3.7-1.5,5.3l3.7,2.2C77.1,79.5,77.8,76.9,77.8,74.4
			z"/>
		<path d="M38.2,58c-2.3-1-3.7-2.4-4.4-4l-4,1.5c1,2.7,3.2,4.8,6.6,6.4L38.2,58z"/>
		<path d="M29.6,48.4c-0.1,0.3-0.1,0.6-0.2,0.9l4.2,0.7c0-0.2,0.1-0.4,0.1-0.7c0.4-1.6,1.4-2.9,3.2-4.1l-2.4-3.5
			C31.9,43.5,30.2,45.8,29.6,48.4z"/>
		<path d="M32.9,83.6c-3-0.4-5.6-0.8-7.6-1.2l-0.7,4.2c2.1,0.3,4.7,0.8,7.7,1.2L32.9,83.6z"/>
		<path d="M58.3,90.5L58.3,90.5v-4.3c-0.4,0-0.8,0-1.2,0c-1.9-0.1-4-0.2-6.3-0.4L50.4,90c2.4,0.2,4.5,0.4,6.5,0.5
			C57.4,90.5,57.9,90.5,58.3,90.5z"/>
		<path d="M50.1,60.5c-2.9-0.2-5.3-0.5-7.4-1l-0.9,4.2c2.3,0.5,4.9,0.9,8,1.1L50.1,60.5z"/>
		<path d="M45.7,85.2c-2.4-0.3-5-0.6-7.7-0.9l-0.6,4.2c2.7,0.4,5.3,0.7,7.8,1L45.7,85.2z"/>
		<path d="M60.3,40.7l0.5,0l0-4.3l-0.5,0c-2.6,0-5,0.1-7.4,0.3l0.3,4.2C55.5,40.8,57.8,40.7,60.3,40.7z"/>
		<path d="M41.1,43.2c2-0.7,4.4-1.3,7.2-1.7l-0.6-4.2c-3,0.5-5.7,1.1-7.9,1.9L41.1,43.2z"/>
		<path d="M62.8,65.2l0.2-4.3c-1.2-0.1-2.6-0.1-4.1-0.1c-1.2,0-2.4,0-3.7-0.1L55,65c1.3,0,2.6,0.1,3.8,0.1
			C60.3,65.1,61.6,65.1,62.8,65.2z"/>
		<path d="M11.8,90.5c4.4,0,8-3.6,8-8c0-4.4-3.6-8-8-8c-4.4,0-8,3.6-8,8C3.7,86.9,7.3,90.5,11.8,90.5z"/>
		<path d="M73.2,0.8C65.3,0.8,59,7.2,59,15c0,5.2,6,15.8,9.7,21.8c-0.8-0.1-1.7-0.1-2.6-0.2l-0.2,4.3c2.5,0.1,4.5,0.3,5.8,0.5
			c0.4,0.4,0.9,0.6,1.5,0.6c0.7,0,1.4-0.4,1.8-1c1.3-1.9,12.4-18.9,12.4-26.1C87.4,7.2,81,0.8,73.2,0.8z M73.2,21.4
			c-3.6,0-6.5-2.9-6.5-6.5s2.9-6.5,6.5-6.5s6.5,2.9,6.5,6.5S76.8,21.4,73.2,21.4z"/>
	</g>
</g>
</svg>
