<?xml version="1.0" encoding="utf-8"?>
<!-- Generator: Adobe Illustrator 24.1.0, SVG Export Plug-In . SVG Version: 6.00 Build 0)  -->
<svg version="1.1" id="Layer_1" xmlns="http://www.w3.org/2000/svg" xmlns:xlink="http://www.w3.org/1999/xlink" x="0px" y="0px"
	 viewBox="-300 0 700 97" style="enable-background:new 0 0 91 97;" xml:space="preserve">
<g>
	<path d="M39.4,78.7h13.2V47.4H39.4V78.7z M42.5,50.6h6.9v25h-6.9V50.6z"/>
	<path d="M88,78.7V30.4H74.8v48.3H88z M78,33.6h6.9v42H78V33.6z"/>
	<path d="M70.3,78.7V57H57.1v21.7H70.3z M60.3,60.2h6.9v15.3h-6.9C60.3,75.5,60.3,60.2,60.3,60.2z"/>
	<path d="M34.8,78.7V68.2H21.6v10.5H34.8z M24.8,71.4h6.9v4.2h-6.9V71.4z"/>
	<polygon points="35.3,25.9 16.4,46.4 18.8,48.5 35.3,30.7 45.9,42.9 74.6,13.1 74.6,23.2 77.8,23.2 77.8,7.8 62.5,7.8 62.5,11 
		72.2,11 46,38.2 	"/>
	<polygon points="88.3,83.3 5.7,83.3 5.7,79 11,79 11,75.8 5.7,75.8 5.7,65.5 11,65.5 11,62.3 5.7,62.3 5.7,51.9 11,51.9 11,48.8 
		5.7,48.8 5.7,38.4 11,38.4 11,35.2 5.7,35.2 5.7,24.9 11,24.9 11,21.7 5.7,21.7 5.7,11.3 11,11.3 11,8.2 5.7,8.2 5.7,4.6 2.5,4.6 
		2.5,86.5 88.3,86.5 	"/>
</g>
</svg>
