<?xml version="1.0" encoding="utf-8"?>
<!-- Generator: Adobe Illustrator 24.1.0, SVG Export Plug-In . SVG Version: 6.00 Build 0)  -->
<svg version="1.1" xmlns="http://www.w3.org/2000/svg" xmlns:xlink="http://www.w3.org/1999/xlink" x="0px" y="0px"
	 viewBox="0 0 792 1224" style="enable-background:new 0 0 792 1224;" xml:space="preserve">
<style type="text/css">
	.st0{fill:#E6E6E6;}
	.st1{fill:#B1AB91;stroke:#B1AB91;stroke-width:3;stroke-linecap:round;stroke-linejoin:round;stroke-miterlimit:10;}
	.st2{fill:#B1AB91;stroke:#B1AB91;stroke-miterlimit:10;}
	.st3{fill:#605D2B;}
	.st4{font-family:'Lato-Regular';}
	.st5{font-size:18.4599px;}
	.st6{font-family:'RobotoSlab-Regular';}
	.st7{font-size:16px;}
	.st8{fill:#FFFFFF;}
	.st9{fill:none;stroke:#605D2B;stroke-width:3;stroke-linecap:round;stroke-miterlimit:10;}
	.st10{fill:#B3B3B3;}
	.st11{fill:#808080;}
	.st12{fill:#4D4D4D;}
	.st13{fill:#1A1A1A;}
	.st14{fill:#F2F2F2;}
	.st15{fill:#BC8954;stroke:#605D2B;stroke-width:3;stroke-linecap:round;stroke-miterlimit:10;}
</style>
<g id="Set6">
	<g id="Foot12">
		<path class="st0" d="M425.8,1017c-4-0.8-11.1,1.3-11.4,7.2c-0.3,6.9,2.3,18.1,2.1,23.5c-0.2,4.2-2.4,9.3-2.4,11
			c0,1.7-0.5,5.1,3.8,3c4.4-2.1,9.1-9.7,11.1-15.4c2-5.8,4.4-13.1,2.6-20.4C430,1018.6,427.8,1017.4,425.8,1017z"/>
		<path class="st0" d="M411,1038.3c-0.3,4.9,1.5,14.5,2,16.7c0.5,2.2,0.2,6.4-1.6,7c-1.8,0.6-5.6-1.3-8.9-8.6
			c-3.3-7.2-8-21.2-6.8-28.4c1.2-7.1,3-8.6,8-9.4s8.6,0.6,9,6.5C413.3,1028.2,411.3,1033.2,411,1038.3z"/>
	</g>
	<g id="Foot11">
		<path class="st0" d="M384,917.2c-4-0.8-11.1,1.3-11.4,7.2c-0.3,6.9,2.3,18.1,2.1,23.5c-0.2,4.2-2.4,9.3-2.4,11s-0.5,5.1,3.8,3
			c4.4-2.1,9.1-9.7,11.1-15.4c2-5.8,4.4-13.1,2.6-20.4C388.2,918.8,386,917.6,384,917.2z"/>
		<path class="st0" d="M369.1,938.5c-0.3,4.9,1.5,14.5,2,16.7c0.5,2.2,0.2,6.4-1.6,7c-1.8,0.6-5.6-1.3-8.8-8.6
			c-3.3-7.2-8-21.2-6.8-28.4c1.2-7.1,3-8.6,8-9.4c5-0.8,8.6,0.6,9,6.5C371.4,928.5,369.4,933.4,369.1,938.5z"/>
	</g>
	<path id="Rectangle6" class="st1" d="M736,1126.8H580.9c-23.2,0-42.1-18.9-42.1-42.1v-81.3c0-23.2,18.9-42.1,42.1-42.1H736
		c23.2,0,42.1,18.9,42.1,42.1v81.3C778,1107.8,759.1,1126.8,736,1126.8z"/>
	<g id="Grass6">
		<g>
			<path class="st2" d="M711.9,954.3c-1.1-6.8-2.7-12.9-4.2-17.9c-1.6-5-3.2-8.9-4.7-11.5c-1.5-2.5-2.6-3.8-2.7-3.7
				c-0.2,0.1,0.6,1.5,1.8,4.1c1.1,2.6,2.5,6.6,3.9,11.5s2.7,10.9,3.7,17.7c0.8,5.2,1.4,10.9,1.9,16.8h2.5
				C713.5,965.5,712.8,959.7,711.9,954.3z"/>
			<path class="st2" d="M724.2,956.4c0.8-6.4,2.1-12.2,3.7-16.7c1.6-4.6,3.7-8,5.2-10.2c1.6-2.2,2.6-3.4,2.5-3.5
				c-0.1-0.1-1.4,0.8-3.2,2.9c-1.8,2.1-4.2,5.5-6.1,10.2c-2,4.6-3.5,10.5-4.4,17.1c-0.7,4.8-1,10-0.8,15.4h2.5
				C723.4,966.2,723.7,961.1,724.2,956.4z"/>
			<path class="st2" d="M735.9,953.6c-0.9-6.6-2.4-12.4-4.4-17.1c-1.9-4.6-4.2-8.1-6.1-10.2c-1.8-2.1-3.1-3.1-3.2-2.9
				c-0.1,0.1,0.9,1.3,2.5,3.5c1.6,2.2,3.6,5.7,5.2,10.2s3,10.2,3.7,16.7c0.6,5.4,0.9,11.4,0.4,17.6h2.5
				C736.9,965.2,736.7,959.2,735.9,953.6z"/>
			<path class="st2" d="M743.6,968.7c-1.5-2.4-3-4.6-4.5-6.7c-3-4.2-6-7.8-8.6-10.7c-1.3-1.5-2.5-2.7-3.6-3.8c-1.1-1.1-2.2-2-3-2.6
				c-1.8-1.3-3-1.6-3.1-1.5c-0.1,0.2,1,0.8,2.5,2.2c1.6,1.4,3.5,3.8,5.9,6.9s5.1,6.7,8,10.9c1.5,2.1,2.9,4.3,4.3,6.7
				c0.3,0.5,0.6,1,0.9,1.5h2.9C744.8,970.6,744.2,969.6,743.6,968.7z"/>
			<path class="st2" d="M740.7,944.9c2.5-8.7,4.8-13.7,4.4-13.9c-0.1-0.1-0.9,1.1-2,3.4c-1.1,2.3-2.6,5.7-4.1,10
				c-2.5,6.9-4.8,16.5-5.6,27.3h2.5C736.7,961.1,738.6,951.7,740.7,944.9z"/>
			<path class="st2" d="M707,959c-3.5-4.5-6.1-6.9-6.3-6.7c-0.5,0.4,5.5,8,11.9,19.3h2.8C712.5,966.5,709.5,962.2,707,959z"/>
			<path class="st2" d="M714.4,947.6c2.6-7.3,5.6-13.6,8.3-18.7c1.3-2.6,2.6-4.9,3.9-6.8c1.3-1.9,2.5-3.4,3.7-4.5
				c2.3-2.2,4-3,3.9-3.2c-0.1-0.1-0.5,0-1.3,0.4c-0.8,0.3-2,1-3.2,2c-1.3,1.1-2.7,2.5-4.2,4.5c-1.5,1.9-2.9,4.2-4.3,6.7
				c-3,5.1-6.1,11.5-8.9,18.8c-2.8,7.3-5.1,15.7-6.1,24.8c0,0,0,0,0,0.1h2.5C709.6,962.9,711.8,954.7,714.4,947.6z"/>
			<path class="st2" d="M751.3,948.4c-2,0.6-4.8,1.5-8.1,3.2c-1.6,0.9-3.4,2-5.1,3.4c-1.7,1.5-3.3,3.2-4.7,5.3
				c-1.4,2.1-2.6,4.3-3.7,6.7c-0.6,1.4-1.2,2.9-1.6,4.4h2.6c0.4-1.1,0.8-2.3,1.3-3.4c1-2.3,2.2-4.5,3.4-6.5c1.3-2,2.7-3.6,4.2-5
				s3.1-2.5,4.6-3.4c3-1.8,5.7-3,7.5-3.8c1.8-0.8,2.9-1.3,2.9-1.5C754.4,947.7,753.3,947.9,751.3,948.4z"/>
			<path class="st2" d="M723.4,965.8c-1.4-2.2-2.9-4.1-4.4-5.7s-3-3.1-4.6-4.3c-3-2.4-6-3.6-8.1-4.1c-2.2-0.4-3.4-0.2-3.4-0.1
				c0,0.2,1.1,0.3,3,1s4.6,2,7.2,4.5c1.4,1.2,2.7,2.7,4.1,4.3s2.7,3.5,4,5.6c0.9,1.4,1.6,2.9,2.3,4.5h2.7
				C725.5,969.5,724.4,967.5,723.4,965.8z"/>
			<path class="st2" d="M726.5,959.2c-1.9-5.5-3.9-10.2-5.7-14.2c-0.9-2-1.7-3.8-2.5-5.3c-0.8-1.6-1.6-2.9-2.6-3.8
				c-0.4-0.4-1-0.8-1.4-1c-0.4-0.2-0.8-0.4-1.2-0.4s-0.7,0.1-0.8,0.2s-0.2,0.3-0.1,0.3c0.1,0.1,0.3-0.2,0.8,0.1
				c0.3,0.1,0.6,0.3,0.9,0.6c0.4,0.3,0.7,0.6,1.1,1c0.8,0.9,1.4,2.1,2,3.7s1.3,3.4,2.1,5.4c1.6,4,3.4,8.8,5.1,14.2
				c1.1,3.6,2.2,7.5,2.9,11.6h2.5C728.9,967.1,727.7,963,726.5,959.2z"/>
		</g>
	</g>
	<text id="Year6" transform="matrix(0.9959 0 0 1 440.8873 1074.2906)" class="st3 st4 st5">2015-2016</text>
	<text id="Text6" transform="matrix(1 0 0 1 623.4767 982.6671)"><tspan x="0" y="0" class="st6 st7">Two more MMEs</tspan><tspan x="23.9" y="19.2" class="st6 st7">caused by </tspan><tspan x="-3.6" y="38.4" class="st6 st7">pasturellosis and </tspan><tspan x="2" y="57.6" class="st6 st7">Peste des Petits </tspan><tspan x="-3.1" y="76.8" class="st6 st7">Ruminants (PPR) </tspan><tspan x="-4.9" y="96" class="st6 st7">further decimated</tspan><tspan x="25.7" y="115.2" class="st6 st7">surviving </tspan><tspan x="16.7" y="134.4" class="st6 st7">populations.</tspan></text>
	<g id="Tab6">
		<path class="st3" d="M572,1127.6h1.5c18.8,0,34.2-15.4,34.2-34.2V995c0-18.8-15.4-34.2-34.2-34.2H572c-18.8,0-34.2,15.4-34.2,34.2
			v98.5C537.9,1112.2,553.2,1127.6,572,1127.6z"/>
		
			<rect x="570.5" y="960.4" transform="matrix(-1 -1.224647e-16 1.224647e-16 -1 1179.0433 2088.0496)" class="st3" width="38" height="167.2"/>
	</g>
	<g id="Icon6">
		<ellipse class="st8" cx="564.6" cy="1041.2" rx="5.1" ry="6.3"/>
		<ellipse class="st8" cx="567.9" cy="1055.4" rx="3.2" ry="4"/>
		<ellipse class="st8" cx="576.3" cy="1057.1" rx="2.1" ry="2.6"/>
		<ellipse class="st8" cx="583.3" cy="1063.6" rx="3.5" ry="4.2"/>
		<path class="st8" d="M600.5,1064.9l-7-1.1c0-0.5,0.1-1,0.1-1.4c0-2.5-0.6-4.9-1.6-6.9l6.5-4.6c0.7-0.5,1-1.7,0.6-2.6
			c-0.4-0.9-1.4-1.2-2.1-0.7l-6.9,4.9c-1.9-2.2-4.5-3.5-7.3-3.5c-0.7,0-1.3-0.1-1.9-0.3l5.7-4.1c0.7-0.5,1-1.7,0.6-2.6
			c-0.4-0.9-1.4-1.2-2.1-0.7l-7.2,5.1c-1.1-1.5-1.8-3.4-1.8-5.5c0-1.4-0.2-2.7-0.5-4l6.5-4.6c0.7-0.5,1-1.7,0.6-2.6
			c-0.4-0.9-1.4-1.2-2.1-0.7l-6.2,4.5c-1.4-2.5-3.4-4.4-5.9-5.3l0.2-9.3c0-1.1-0.7-1.9-1.5-2c-0.9,0-1.6,0.8-1.6,1.9l-0.2,8.8
			c0,0-0.1,0-0.1,0c-2.2,0-4.2,0.8-5.9,2.2l-3.8-7.8c-0.4-0.9-1.4-1.2-2.1-0.7c-0.7,0.5-1,1.7-0.5,2.6l4.1,8.4
			c-1.6,2.3-2.6,5.3-2.6,8.6c0,1.7,0.1,3.5,0.3,5.1l-7.8,0.9c-0.9,0.1-1.5,1-1.4,2.1c0.1,1,0.8,1.7,1.5,1.7c0,0,0.1,0,0.1,0l8.2-0.9
			c0.8,3.9,2.2,7.6,4.1,10.8l-6.6,4.7c-0.7,0.5-1,1.7-0.6,2.6c0.3,0.6,0.8,0.9,1.3,0.9c0.3,0,0.5-0.1,0.8-0.3l6.9-4.9
			c1.7,2.4,3.7,4.6,5.9,6.4l-3.8,7.9c-0.4,0.9-0.2,2.1,0.6,2.6c0.2,0.2,0.5,0.3,0.8,0.3c0.5,0,1.1-0.3,1.3-0.9l3.8-7.9
			c2.3,1.4,4.7,2.5,7.2,3.1l-0.4,9.1c0,1.1,0.6,1.9,1.5,2c0,0,0.1,0,0.1,0c0.8,0,1.5-0.8,1.6-1.8l0.3-8.8c0.8,0.1,1.7,0.1,2.5,0.1
			c1.2,0,2.3-0.2,3.4-0.7l3.9,7.9c0.3,0.6,0.8,0.9,1.3,0.9c0.3,0,0.6-0.1,0.8-0.3c0.7-0.5,1-1.7,0.5-2.6l-3.8-7.7
			c1.7-1.4,3.1-3.5,3.9-5.8l7.3,1.2c0.1,0,0.1,0,0.2,0c0.8,0,1.4-0.7,1.5-1.7C601.9,1066,601.3,1065,600.5,1064.9z M557.3,1040.8
			c0-5.3,3.5-9.5,7.8-9.5c4.3,0,7.8,4.3,7.8,9.5c0,6.6,4.4,12,9.8,12c4.3,0,7.8,4.3,7.8,9.5c0,0.8-0.1,1.6-0.2,2.3
			c-0.1,0.2-0.1,0.3-0.1,0.5c0,0,0,0,0,0c-1,3.9-3.9,6.7-7.4,6.7C568.7,1071.8,557.3,1057.9,557.3,1040.8z"/>
	</g>
	<line id="Line6" class="st9" x1="538.4" y1="1085.2" x2="450.2" y2="1085.2"/>
</g>
<g id="Set5">
	<g id="Foot10">
		<path class="st10" d="M425.6,821.7c-4-0.8-11.1,1.3-11.4,7.2c-0.3,6.9,2.3,18.1,2.1,23.5c-0.2,4.2-2.4,9.3-2.4,11s-0.5,5.1,3.8,3
			c4.4-2.1,9.1-9.7,11.1-15.4c2-5.8,4.4-13.1,2.6-20.4C429.9,823.3,427.7,822.1,425.6,821.7z"/>
		<path class="st10" d="M410.8,843c-0.3,4.9,1.5,14.5,2,16.7c0.5,2.2,0.2,6.4-1.6,7c-1.8,0.6-5.6-1.3-8.9-8.6
			c-3.3-7.2-8-21.2-6.8-28.4c1.2-7.1,3-8.6,8-9.4s8.6,0.6,9,6.5C413.1,832.9,411.1,837.9,410.8,843z"/>
	</g>
	<g id="Foot9">
		<path class="st10" d="M384.8,743.5c-4-0.8-11.1,1.3-11.4,7.2c-0.3,6.9,2.3,18.1,2.1,23.5c-0.2,4.2-2.4,9.3-2.4,11
			c0,1.7-0.5,5.1,3.8,3c4.4-2.1,9.1-9.7,11.1-15.4c2-5.8,4.4-13.1,2.6-20.4C389,745.1,386.8,743.9,384.8,743.5z"/>
		<path class="st10" d="M369.9,764.8c-0.3,4.9,1.5,14.5,2,16.7c0.5,2.2,0.2,6.4-1.6,7c-1.8,0.6-5.6-1.3-8.8-8.6
			c-3.3-7.2-8-21.2-6.8-28.4c1.2-7.1,3-8.6,8-9.4s8.6,0.6,9,6.5C372.2,754.7,370.2,759.7,369.9,764.8z"/>
	</g>
	<path id="Rectangle5" class="st1" d="M218,965.5H62.9c-23.2,0-42.1-18.9-42.1-42.1v-81.3c0-23.2,18.9-42.1,42.1-42.1H218
		c23.2,0,42.1,18.9,42.1,42.1v81.3C260.1,946.5,241.1,965.5,218,965.5z"/>
	<g id="Grass5">
		<g>
			<path class="st2" d="M56.3,793c-1.1-6.8-2.7-12.9-4.2-17.9c-1.6-5-3.2-8.9-4.7-11.5s-2.6-3.8-2.7-3.7c-0.2,0.1,0.6,1.5,1.8,4.1
				c1.1,2.6,2.5,6.6,3.9,11.5c1.3,5,2.7,10.9,3.7,17.7c0.8,5.2,1.4,10.9,1.9,16.8h2.5C57.9,804.2,57.3,798.4,56.3,793z"/>
			<path class="st2" d="M68.7,795.1c0.8-6.4,2.1-12.2,3.7-16.7c1.6-4.6,3.7-8,5.2-10.2c1.6-2.2,2.6-3.4,2.5-3.5
				c-0.1-0.1-1.4,0.8-3.2,2.9s-4.2,5.5-6.1,10.2c-2,4.6-3.5,10.5-4.4,17.1c-0.7,4.8-1,10-0.8,15.4h2.5
				C67.9,804.9,68.1,799.8,68.7,795.1z"/>
			<path class="st2" d="M80.4,792.3c-0.9-6.6-2.4-12.4-4.4-17.1c-1.9-4.6-4.2-8.1-6.1-10.2c-1.8-2.1-3.1-3.1-3.2-2.9
				c-0.1,0.1,0.9,1.3,2.5,3.5c1.6,2.2,3.6,5.7,5.2,10.2c1.6,4.6,3,10.2,3.7,16.7c0.6,5.4,0.9,11.4,0.4,17.6h2.5
				C81.4,803.9,81.1,797.9,80.4,792.3z"/>
			<path class="st2" d="M88.1,807.4c-1.5-2.4-3-4.6-4.5-6.7c-3-4.2-6-7.8-8.6-10.7c-1.3-1.5-2.5-2.7-3.6-3.8c-1.1-1.1-2.2-2-3-2.6
				c-1.8-1.3-3-1.6-3.1-1.5c-0.1,0.2,1,0.8,2.5,2.2c1.6,1.4,3.5,3.8,5.9,6.9c2.4,3.1,5.1,6.7,8,10.9c1.5,2.1,2.9,4.3,4.3,6.7
				c0.3,0.5,0.6,1,0.9,1.5h2.9C89.2,809.3,88.7,808.3,88.1,807.4z"/>
			<path class="st2" d="M85.1,783.5c2.5-8.7,4.8-13.7,4.4-13.9c-0.1-0.1-0.9,1.1-2,3.4c-1.1,2.3-2.6,5.7-4.1,10
				c-2.5,6.9-4.8,16.5-5.6,27.3h2.5C81.1,799.8,83.1,790.4,85.1,783.5z"/>
			<path class="st2" d="M51.5,797.7c-3.5-4.5-6.1-6.9-6.3-6.7c-0.5,0.4,5.5,8,11.9,19.3h2.8C57,805.2,54,800.9,51.5,797.7z"/>
			<path class="st2" d="M58.8,786.3c2.6-7.3,5.6-13.6,8.3-18.7c1.3-2.6,2.6-4.9,3.9-6.8c1.3-1.9,2.5-3.4,3.7-4.5
				c2.3-2.2,4-3,3.9-3.2c-0.1-0.1-0.5,0-1.3,0.4c-0.8,0.3-2,1-3.2,2c-1.3,1.1-2.7,2.5-4.2,4.5c-1.5,1.9-2.9,4.2-4.3,6.7
				c-3,5.1-6.1,11.5-8.9,18.8c-2.8,7.3-5.1,15.7-6.1,24.8c0,0,0,0,0,0.1h2.5C54.1,801.6,56.2,793.4,58.8,786.3z"/>
			<path class="st2" d="M95.8,787.1c-2,0.6-4.8,1.5-8.1,3.2c-1.6,0.9-3.4,2-5.1,3.4s-3.3,3.2-4.7,5.3c-1.4,2.1-2.6,4.3-3.7,6.7
				c-0.6,1.4-1.2,2.9-1.6,4.4h2.6c0.4-1.1,0.8-2.3,1.3-3.4c1-2.3,2.2-4.5,3.4-6.5c1.3-2,2.7-3.6,4.2-5s3.1-2.5,4.6-3.4
				c3-1.8,5.7-3,7.5-3.8s2.9-1.3,2.9-1.5C98.9,786.4,97.7,786.6,95.8,787.1z"/>
			<path class="st2" d="M67.8,804.5c-1.4-2.2-2.9-4.1-4.4-5.7s-3-3.1-4.6-4.3c-3-2.4-6-3.6-8.1-4.1c-2.2-0.4-3.4-0.2-3.4-0.1
				c0,0.2,1.1,0.3,3,1s4.6,2,7.2,4.5c1.4,1.2,2.7,2.7,4.1,4.3c1.4,1.7,2.7,3.5,4,5.6c0.9,1.4,1.6,2.9,2.3,4.5h2.7
				C70,808.2,68.9,806.2,67.8,804.5z"/>
			<path class="st2" d="M70.9,797.9c-1.9-5.5-3.9-10.2-5.7-14.2c-0.9-2-1.7-3.8-2.5-5.3c-0.8-1.6-1.6-2.9-2.6-3.8
				c-0.4-0.4-1-0.8-1.4-1c-0.4-0.2-0.8-0.4-1.2-0.4c-0.4-0.1-0.7,0.1-0.8,0.2c-0.1,0.1-0.2,0.3-0.1,0.3c0.1,0.1,0.3-0.2,0.8,0.1
				c0.3,0.1,0.6,0.3,0.9,0.6c0.4,0.3,0.7,0.6,1.1,1c0.8,0.9,1.4,2.1,2,3.7s1.3,3.4,2.1,5.4c1.6,4,3.4,8.8,5.1,14.2
				c1.1,3.6,2.2,7.5,2.9,11.6h2.5C73.4,805.8,72.2,801.7,70.9,797.9z"/>
		</g>
	</g>
	<text id="Year5" transform="matrix(0.9959 0 0 1 264.3067 876.8165)" class="st3 st4 st5">2010-2014</text>
	<text id="Text5" transform="matrix(1 0 0 1 34.2245 837.6388)"><tspan x="0" y="0" class="st6 st7">Two mass mortality</tspan><tspan x="2.7" y="19.2" class="st6 st7">events (MME) were</tspan><tspan x="26.4" y="38.4" class="st6 st7">attributed to </tspan><tspan x="-3" y="57.6" class="st6 st7">pasturellosis, which </tspan><tspan x="-1.6" y="76.8" class="st6 st7">is highly contagious</tspan><tspan x="-10.4" y="96" class="st6 st7">and fatal to the Saiga.  </tspan></text>
	<g id="Tab5">
		<path class="st3" d="M226.7,966.3h-1.5c-18.8,0-34.2-15.4-34.2-34.2v-98.5c0-18.8,15.4-34.2,34.2-34.2h1.5
			c18.8,0,34.2,15.4,34.2,34.2v98.5C260.9,950.9,245.5,966.3,226.7,966.3z"/>
		<rect x="190.2" y="799.1" class="st3" width="38" height="167.2"/>
	</g>
	<g id="Icon5">
		<ellipse class="st8" cx="215.3" cy="871.8" rx="5.1" ry="6.3"/>
		<ellipse class="st8" cx="218.6" cy="886" rx="3.2" ry="4"/>
		<ellipse class="st8" cx="226.9" cy="887.7" rx="2.1" ry="2.6"/>
		<ellipse class="st8" cx="233.9" cy="894.2" rx="3.5" ry="4.2"/>
		<path class="st8" d="M251.1,895.5l-7-1.1c0-0.5,0.1-1,0.1-1.4c0-2.5-0.6-4.9-1.6-6.9l6.5-4.6c0.7-0.5,1-1.7,0.6-2.6
			c-0.4-0.9-1.4-1.2-2.1-0.7l-6.9,4.9c-1.9-2.2-4.5-3.5-7.3-3.5c-0.7,0-1.3-0.1-1.9-0.3l5.7-4.1c0.7-0.5,1-1.7,0.6-2.6
			c-0.4-0.9-1.4-1.2-2.1-0.7l-7.2,5.1c-1.1-1.5-1.8-3.4-1.8-5.5c0-1.4-0.2-2.7-0.5-4l6.5-4.6c0.7-0.5,1-1.7,0.6-2.6
			c-0.4-0.9-1.4-1.2-2.1-0.7l-6.2,4.5c-1.4-2.5-3.4-4.4-5.9-5.3l0.2-9.3c0-1.1-0.7-1.9-1.5-2c-0.9,0-1.6,0.8-1.6,1.9l-0.2,8.8
			c0,0-0.1,0-0.1,0c-2.2,0-4.2,0.8-5.9,2.2l-3.8-7.8c-0.4-0.9-1.4-1.2-2.1-0.7c-0.7,0.5-1,1.7-0.5,2.6l4.1,8.4
			c-1.6,2.3-2.6,5.3-2.6,8.6c0,1.7,0.1,3.5,0.3,5.1l-7.8,0.9c-0.9,0.1-1.5,1-1.4,2.1c0.1,1,0.8,1.7,1.5,1.7c0,0,0.1,0,0.1,0l8.2-0.9
			c0.8,3.9,2.2,7.6,4.1,10.8l-6.6,4.7c-0.7,0.5-1,1.7-0.6,2.6c0.3,0.6,0.8,0.9,1.3,0.9c0.3,0,0.5-0.1,0.8-0.3l6.9-4.9
			c1.7,2.4,3.7,4.6,5.9,6.4l-3.8,7.9c-0.4,0.9-0.2,2.1,0.6,2.6c0.2,0.2,0.5,0.3,0.8,0.3c0.5,0,1.1-0.3,1.3-0.9l3.8-7.9
			c2.3,1.4,4.7,2.5,7.2,3.1l-0.4,9.1c0,1.1,0.6,1.9,1.5,2c0,0,0.1,0,0.1,0c0.8,0,1.5-0.8,1.6-1.8l0.3-8.8c0.8,0.1,1.7,0.1,2.5,0.1
			c1.2,0,2.3-0.2,3.4-0.7l3.9,7.9c0.3,0.6,0.8,0.9,1.3,0.9c0.3,0,0.6-0.1,0.8-0.3c0.7-0.5,1-1.7,0.5-2.6l-3.8-7.7
			c1.7-1.4,3.1-3.5,3.9-5.8l7.3,1.2c0.1,0,0.1,0,0.2,0c0.8,0,1.4-0.7,1.5-1.7C252.5,896.6,251.9,895.6,251.1,895.5z M207.9,871.4
			c0-5.3,3.5-9.5,7.8-9.5c4.3,0,7.8,4.3,7.8,9.5c0,6.6,4.4,12,9.8,12c4.3,0,7.8,4.3,7.8,9.5c0,0.8-0.1,1.6-0.2,2.3
			c-0.1,0.2-0.1,0.3-0.1,0.5c0,0,0,0,0,0c-1,3.9-3.9,6.7-7.4,6.7C219.3,902.4,207.9,888.5,207.9,871.4z"/>
	</g>
	<line id="Line5" class="st9" x1="343.9" y1="884.3" x2="255.8" y2="884.3"/>
</g>
<g id="Set4">
	<g id="Foot8">
		<path class="st11" d="M425.5,638.2c-4-0.8-11.1,1.3-11.4,7.2c-0.3,6.9,2.3,18.1,2.1,23.5c-0.2,4.2-2.4,9.3-2.4,11
			c0,1.7-0.5,5.1,3.8,3c4.4-2.1,9.1-9.7,11.1-15.4c2-5.8,4.4-13.1,2.6-20.4C429.7,639.9,427.5,638.6,425.5,638.2z"/>
		<path class="st11" d="M410.7,659.6c-0.3,4.9,1.5,14.5,2,16.7c0.5,2.2,0.2,6.4-1.6,7c-1.8,0.6-5.6-1.3-8.9-8.6
			c-3.3-7.2-8-21.2-6.8-28.4c1.2-7.1,3-8.6,8-9.4s8.6,0.6,9,6.5C413,649.5,411,654.5,410.7,659.6z"/>
	</g>
	<g id="Foot7">
		<path class="st11" d="M385.6,556.7c-4-0.8-11.1,1.3-11.4,7.2c-0.3,6.9,2.3,18.1,2.1,23.5c-0.2,4.2-2.4,9.3-2.4,11s-0.5,5.1,3.8,3
			c4.4-2.1,9.1-9.7,11.1-15.4c2-5.8,4.4-13.1,2.6-20.4C389.8,558.3,387.6,557.1,385.6,556.7z"/>
		<path class="st11" d="M370.7,578.1c-0.3,4.9,1.5,14.5,2,16.7c0.5,2.2,0.2,6.4-1.6,7c-1.8,0.6-5.6-1.3-8.9-8.6
			c-3.3-7.2-8-21.2-6.8-28.4c1.2-7.1,3-8.6,8-9.4s8.6,0.6,9,6.5C373,568,371,572.9,370.7,578.1z"/>
	</g>
	<path id="Rectangle4_1_" class="st1" d="M731.1,804.4H576c-23.2,0-42.1-18.9-42.1-42.1v-81.3c0-23.2,18.9-42.1,42.1-42.1h155.1
		c23.2,0,42.1,18.9,42.1,42.1v81.3C773.2,785.4,754.3,804.4,731.1,804.4z"/>
	<g id="Tab4">
		<path class="st3" d="M566.5,805.2h1.5c18.8,0,34.2-15.4,34.2-34.2v-98.5c0-18.8-15.4-34.2-34.2-34.2h-1.5
			c-18.8,0-34.2,15.4-34.2,34.2V771C532.3,789.8,547.7,805.2,566.5,805.2z"/>
		
			<rect x="565" y="638" transform="matrix(-1 -1.224647e-16 1.224647e-16 -1 1167.9548 1443.2056)" class="st3" width="38" height="167.2"/>
	</g>
	<g id="Grass4">
		<g>
			<path class="st2" d="M712.8,631.5c-1.1-6.8-2.7-12.9-4.2-17.9c-1.6-5-3.2-8.9-4.7-11.5s-2.6-3.8-2.7-3.7
				c-0.2,0.1,0.6,1.5,1.8,4.1c1.1,2.6,2.5,6.6,3.9,11.5c1.3,5,2.7,10.9,3.7,17.7c0.8,5.2,1.4,10.9,1.9,16.8h2.5
				C714.4,642.7,713.7,636.9,712.8,631.5z"/>
			<path class="st2" d="M725.1,633.6c0.8-6.4,2.1-12.2,3.7-16.7s3.7-8,5.2-10.2c1.6-2.2,2.6-3.4,2.5-3.5c-0.1-0.1-1.4,0.8-3.2,2.9
				c-1.8,2.1-4.2,5.5-6.1,10.2c-2,4.6-3.5,10.5-4.4,17.1c-0.7,4.8-1,10-0.8,15.4h2.5C724.3,643.4,724.6,638.3,725.1,633.6z"/>
			<path class="st2" d="M736.8,630.8c-0.9-6.6-2.4-12.4-4.4-17.1c-1.9-4.6-4.2-8.1-6.1-10.2c-1.8-2.1-3.1-3.1-3.2-2.9
				c-0.1,0.1,0.9,1.3,2.5,3.5c1.6,2.2,3.6,5.7,5.2,10.2s3,10.2,3.7,16.7c0.6,5.4,0.9,11.4,0.4,17.6h2.5
				C737.8,642.4,737.6,636.4,736.8,630.8z"/>
			<path class="st2" d="M744.5,645.9c-1.5-2.4-3-4.6-4.5-6.7c-3-4.2-6-7.8-8.6-10.7c-1.3-1.5-2.5-2.7-3.6-3.8c-1.1-1.1-2.2-2-3-2.6
				c-1.8-1.3-3-1.6-3.1-1.5c-0.1,0.2,1,0.8,2.5,2.2c1.6,1.4,3.5,3.8,5.9,6.9c2.4,3.1,5.1,6.7,8,10.9c1.5,2.1,2.9,4.3,4.3,6.7
				c0.3,0.5,0.6,1,0.9,1.5h2.9C745.7,647.7,745.1,646.8,744.5,645.9z"/>
			<path class="st2" d="M741.6,622c2.5-8.7,4.8-13.7,4.4-13.9c-0.1-0.1-0.9,1.1-2,3.4s-2.6,5.7-4.1,10c-2.5,6.9-4.8,16.5-5.6,27.3
				h2.5C737.6,638.3,739.5,628.9,741.6,622z"/>
			<path class="st2" d="M707.9,636.2c-3.5-4.5-6.1-6.9-6.3-6.7c-0.5,0.4,5.5,8,11.9,19.3h2.8C713.4,643.7,710.4,639.4,707.9,636.2z"
				/>
			<path class="st2" d="M715.3,624.8c2.6-7.3,5.6-13.6,8.3-18.7c1.3-2.6,2.6-4.9,3.9-6.8c1.3-1.9,2.5-3.4,3.7-4.5
				c2.3-2.2,4-3,3.9-3.2c-0.1-0.1-0.5,0-1.3,0.4c-0.8,0.3-2,1-3.2,2c-1.3,1.1-2.7,2.5-4.2,4.5c-1.5,1.9-2.9,4.2-4.3,6.7
				c-3,5.1-6.1,11.5-8.9,18.8c-2.8,7.3-5.1,15.7-6.1,24.8c0,0,0,0,0,0.1h2.5C710.5,640,712.7,631.9,715.3,624.8z"/>
			<path class="st2" d="M752.2,625.6c-2,0.6-4.8,1.5-8.1,3.2c-1.6,0.9-3.4,2-5.1,3.4s-3.3,3.2-4.7,5.3c-1.4,2.1-2.6,4.3-3.7,6.7
				c-0.6,1.4-1.2,2.9-1.6,4.4h2.6c0.4-1.1,0.8-2.3,1.3-3.4c1-2.3,2.2-4.5,3.4-6.5c1.3-2,2.7-3.6,4.2-5c1.5-1.4,3.1-2.5,4.6-3.4
				c3-1.8,5.7-3,7.5-3.8s2.9-1.3,2.9-1.5C755.3,624.9,754.2,625.1,752.2,625.6z"/>
			<path class="st2" d="M724.3,643c-1.4-2.2-2.9-4.1-4.4-5.7s-3-3.1-4.6-4.3c-3-2.4-6-3.6-8.1-4.1c-2.2-0.4-3.4-0.2-3.4-0.1
				c0,0.2,1.1,0.3,3,1s4.6,2,7.2,4.5c1.4,1.2,2.7,2.7,4.1,4.3c1.4,1.7,2.7,3.5,4,5.6c0.9,1.4,1.6,2.9,2.3,4.5h2.7
				C726.4,646.7,725.3,644.7,724.3,643z"/>
			<path class="st2" d="M727.4,636.4c-1.9-5.5-3.9-10.2-5.7-14.2c-0.9-2-1.7-3.8-2.5-5.3c-0.8-1.6-1.6-2.9-2.6-3.8
				c-0.4-0.4-1-0.8-1.4-1c-0.4-0.2-0.8-0.4-1.2-0.4s-0.7,0.1-0.8,0.2c-0.1,0.1-0.2,0.3-0.1,0.3c0.1,0.1,0.3-0.2,0.8,0.1
				c0.3,0.1,0.6,0.3,0.9,0.6c0.4,0.3,0.7,0.6,1.1,1c0.8,0.9,1.4,2.1,2,3.7c0.6,1.6,1.3,3.4,2.1,5.4c1.6,4,3.4,8.8,5.1,14.2
				c1.1,3.6,2.2,7.5,2.9,11.6h2.5C729.8,644.3,728.6,640.2,727.4,636.4z"/>
		</g>
	</g>
	<text id="Text4" transform="matrix(1 0 0 1 623.5037 683.6149)"><tspan x="0" y="0" class="st6 st7">CITES lists Saiga</tspan><tspan x="19.3" y="19.2" class="st6 st7">horn under </tspan><tspan x="-5.7" y="38.4" class="st6 st7">Category 2, which </tspan><tspan x="-5.2" y="57.6" class="st6 st7">allows for trading </tspan><tspan x="17" y="76.8" class="st6 st7">with permit.</tspan></text>
	<text id="Year4" transform="matrix(0.9959 0 0 1 469.443 710.1237)" class="st3 st4 st5">1995</text>
	<g id="Icon4">
		<path class="st8" d="M568.2,711.7c-5.2,0-9.4,4.3-9.4,9.5c0,5.2,4.2,9.5,9.4,9.5s9.4-4.3,9.4-9.5
			C577.6,716,573.4,711.7,568.2,711.7z M568.4,720.5c2.8,1,3.4,2.4,3.4,3.4c0,1.6-1.2,2.8-2.9,3.1v1.3h-1.6v-1.3
			c-1.6-0.3-2.8-1.6-2.9-3.2h1.6c0,0.9,1,1.7,2.1,1.7c1,0,2-0.5,2-1.5c0-1-1.6-1.6-2.3-1.9c-2.8-1-3.4-2.4-3.4-3.4
			c0-1.6,1.2-2.8,2.9-3.1v-1.3h1.6v1.3c1.6,0.3,2.8,1.6,2.9,3.2h-1.6c0-0.9-1-1.7-2.1-1.7c-1,0-2,0.5-2,1.5
			C566.1,719.6,567.7,720.2,568.4,720.5z"/>
		<ellipse class="st8" cx="583.1" cy="699.9" rx="5.5" ry="5.5"/>
		<path class="st8" d="M588.2,705.9c-2.9,2.5-7.2,2.5-10.1,0c-2.2,0.9-4,2.4-5.3,4.4c3.3,1.4,5.7,4.2,6.7,7.6
			c1.6,0.1,2.9,0.2,3.6,0.2c2.3,0,11.7-0.3,11.7-3.3C594.8,711.1,592.1,707.6,588.2,705.9z"/>
		<ellipse class="st8" cx="553.2" cy="730" rx="5.5" ry="5.5"/>
		<path class="st8" d="M553.2,748.1c2.3,0,11.7-0.3,11.7-3.3c0-3.6-2.7-7.1-6.7-8.8c-2.9,2.5-7.2,2.5-10.1,0c-4,1.7-6.7,5.2-6.7,8.8
			C541.5,747.8,550.9,748.1,553.2,748.1z"/>
		<path class="st8" d="M583.2,739.9h-10.4c-0.3,0-0.6,0.3-0.6,0.6v1.2c0,0.3,0.3,0.6,0.6,0.6h10.4c3.3,0,5.9-2.7,5.9-6v-8.2l3,3
			c0.2,0.2,0.6,0.2,0.8,0c0,0,0,0,0,0l0.8-0.8c0.2-0.2,0.2-0.6,0-0.8l0,0l-5.5-5.5c-0.2-0.2-0.6-0.2-0.8,0l-5.5,5.5
			c-0.2,0.2-0.2,0.6,0,0.8l0.8,0.8c0.2,0.2,0.6,0.2,0.8,0c0,0,0,0,0,0l3-3v8.2C586.7,738.3,585.1,739.9,583.2,739.9z"/>
		<path class="st8" d="M564.2,702v-1.2c0-0.3-0.3-0.6-0.6-0.6h-10.4c-3.3,0-5.9,2.7-5.9,6l0,0v8.2l-3-3c-0.2-0.2-0.6-0.2-0.8,0
			l-0.8,0.8c-0.2,0.2-0.2,0.6,0,0.8c0,0,0,0,0,0l5.5,5.5c0.2,0.2,0.6,0.2,0.8,0l5.5-5.5c0.2-0.2,0.2-0.6,0-0.8l-0.8-0.8
			c-0.2-0.2-0.6-0.2-0.8,0c0,0,0,0,0,0l-3,3v-8.2c0-2,1.6-3.6,3.6-3.6h10.4C563.9,702.6,564.2,702.3,564.2,702z"/>
	</g>
	<line id="Line4" class="st9" x1="533.5" y1="720.1" x2="445.4" y2="720.1"/>
</g>
<g id="Set3">
	<g id="Foot6">
		<path class="st12" d="M425.5,470.2c-4-0.8-11.1,1.3-11.4,7.2c-0.3,6.9,2.3,18.1,2.1,23.5c-0.2,4.2-2.4,9.3-2.4,11
			c0,1.7-0.5,5.1,3.8,3c4.4-2.1,9.1-9.7,11.1-15.4c2-5.8,4.4-13.1,2.6-20.4C429.7,471.8,427.5,470.6,425.5,470.2z"/>
		<path class="st12" d="M410.7,491.6c-0.3,4.9,1.5,14.5,2,16.7c0.5,2.2,0.2,6.4-1.6,7c-1.8,0.6-5.6-1.3-8.9-8.6
			c-3.3-7.2-8-21.2-6.8-28.4c1.2-7.1,3-8.6,8-9.4s8.6,0.6,9,6.5C413,481.5,411,486.4,410.7,491.6z"/>
	</g>
	<g id="Foot5">
		<path class="st12" d="M386.3,393c-4-0.8-11.1,1.3-11.4,7.2c-0.3,6.9,2.3,18.1,2.1,23.5c-0.2,4.2-2.4,9.3-2.4,11s-0.5,5.1,3.8,3
			c4.4-2.1,9.1-9.7,11.1-15.4c2-5.8,4.4-13.1,2.6-20.4C390.6,394.6,388.4,393.4,386.3,393z"/>
		<path class="st12" d="M371.5,414.3c-0.3,4.9,1.5,14.5,2,16.7c0.5,2.2,0.2,6.4-1.6,7c-1.8,0.6-5.6-1.3-8.9-8.6
			c-3.3-7.2-8-21.2-6.8-28.4c1.2-7.1,3-8.6,8-9.4s8.6,0.6,9,6.5C373.8,404.3,371.8,409.2,371.5,414.3z"/>
	</g>
	<path id="Rectangle3" class="st1" d="M218,621.8H62.9c-23.2,0-42.1-18.9-42.1-42.1v-81.3c0-23.2,18.9-42.1,42.1-42.1H218
		c23.2,0,42.1,18.9,42.1,42.1v81.3C260.1,602.9,241.1,621.8,218,621.8z"/>
	<g id="Grass3">
		<g>
			<path class="st2" d="M54.4,449.4c-1.1-6.8-2.7-12.9-4.2-17.9c-1.6-5-3.2-8.9-4.7-11.5c-1.5-2.5-2.6-3.8-2.7-3.7
				c-0.2,0.1,0.6,1.5,1.8,4.1c1.1,2.6,2.5,6.6,3.9,11.5s2.7,10.9,3.7,17.7c0.8,5.2,1.4,10.9,1.9,16.8h2.5
				C56,460.5,55.4,454.7,54.4,449.4z"/>
			<path class="st2" d="M66.8,451.5c0.8-6.4,2.1-12.2,3.7-16.7c1.6-4.6,3.7-8,5.2-10.2c1.6-2.2,2.6-3.4,2.5-3.5
				c-0.1-0.1-1.4,0.8-3.2,2.9c-1.8,2.1-4.2,5.5-6.1,10.2c-2,4.6-3.5,10.5-4.4,17.1c-0.7,4.8-1,10-0.8,15.4h2.5
				C66,461.3,66.2,456.2,66.8,451.5z"/>
			<path class="st2" d="M78.5,448.7c-0.9-6.6-2.4-12.4-4.4-17.1c-1.9-4.6-4.2-8.1-6.1-10.2c-1.8-2.1-3.1-3.1-3.2-2.9
				c-0.1,0.1,0.9,1.3,2.5,3.5c1.6,2.2,3.6,5.7,5.2,10.2c1.6,4.6,3,10.2,3.7,16.7c0.6,5.4,0.9,11.4,0.4,17.6h2.5
				C79.5,460.3,79.2,454.2,78.5,448.7z"/>
			<path class="st2" d="M86.2,463.8c-1.5-2.4-3-4.6-4.5-6.7c-3-4.2-6-7.8-8.6-10.7c-1.3-1.5-2.5-2.7-3.6-3.8c-1.1-1.1-2.2-2-3-2.6
				c-1.8-1.3-3-1.6-3.1-1.5c-0.1,0.2,1,0.8,2.5,2.2c1.6,1.4,3.5,3.8,5.9,6.9c2.4,3.1,5.1,6.7,8,10.9c1.5,2.1,2.9,4.3,4.3,6.7
				c0.3,0.5,0.6,1,0.9,1.5h2.9C87.3,465.6,86.8,464.6,86.2,463.8z"/>
			<path class="st2" d="M83.2,439.9c2.5-8.7,4.8-13.7,4.4-13.9c-0.1-0.1-0.9,1.1-2,3.4c-1.1,2.3-2.6,5.7-4.1,10
				c-2.5,6.9-4.8,16.5-5.6,27.3h2.5C79.2,456.1,81.2,446.8,83.2,439.9z"/>
			<path class="st2" d="M49.6,454c-3.5-4.5-6.1-6.9-6.3-6.7c-0.5,0.4,5.5,8,11.9,19.3h2.8C55.1,461.5,52.1,457.3,49.6,454z"/>
			<path class="st2" d="M56.9,442.6c2.6-7.3,5.6-13.6,8.3-18.7c1.3-2.6,2.6-4.9,3.9-6.8c1.3-1.9,2.5-3.4,3.7-4.5
				c2.3-2.2,4-3,3.9-3.2c-0.1-0.1-0.5,0-1.3,0.4c-0.8,0.3-2,1-3.2,2c-1.3,1.1-2.7,2.5-4.2,4.5c-1.5,1.9-2.9,4.2-4.3,6.7
				c-3,5.1-6.1,11.5-8.9,18.8c-2.8,7.3-5.1,15.7-6.1,24.8c0,0,0,0,0,0.1h2.5C52.2,457.9,54.3,449.8,56.9,442.6z"/>
			<path class="st2" d="M93.9,443.4c-2,0.6-4.8,1.5-8.1,3.2c-1.6,0.9-3.4,2-5.1,3.4s-3.3,3.2-4.7,5.3c-1.4,2.1-2.6,4.3-3.7,6.7
				c-0.6,1.4-1.2,2.9-1.6,4.4h2.6c0.4-1.1,0.8-2.3,1.3-3.4c1-2.3,2.2-4.5,3.4-6.5c1.3-2,2.7-3.6,4.2-5c1.5-1.4,3.1-2.5,4.6-3.4
				c3-1.8,5.7-3,7.5-3.8s2.9-1.3,2.9-1.5C97,442.7,95.8,442.9,93.9,443.4z"/>
			<path class="st2" d="M65.9,460.8c-1.4-2.2-2.9-4.1-4.4-5.7c-1.5-1.7-3-3.1-4.6-4.3c-3-2.4-6-3.6-8.1-4.1
				c-2.2-0.4-3.4-0.2-3.4-0.1c0,0.2,1.1,0.3,3,1c1.9,0.7,4.6,2,7.2,4.5c1.4,1.2,2.7,2.7,4.1,4.3c1.4,1.7,2.7,3.5,4,5.6
				c0.9,1.4,1.6,2.9,2.3,4.5h2.7C68.1,464.5,67,462.5,65.9,460.8z"/>
			<path class="st2" d="M69,454.2c-1.9-5.5-3.9-10.2-5.7-14.2c-0.9-2-1.7-3.8-2.5-5.3c-0.8-1.6-1.6-2.9-2.6-3.8
				c-0.4-0.4-1-0.8-1.4-1c-0.4-0.2-0.8-0.4-1.2-0.4c-0.4-0.1-0.7,0.1-0.8,0.2c-0.1,0.1-0.2,0.3-0.1,0.3c0.1,0.1,0.3-0.2,0.8,0.1
				c0.3,0.1,0.6,0.3,0.9,0.6c0.4,0.3,0.7,0.6,1.1,1c0.8,0.9,1.4,2.1,2,3.7s1.3,3.4,2.1,5.4c1.6,4,3.4,8.8,5.1,14.2
				c1.1,3.6,2.2,7.5,2.9,11.6h2.5C71.5,462.2,70.3,458,69,454.2z"/>
		</g>
	</g>
	<text id="Text3" transform="matrix(1 0 0 1 38.1074 486.8263)"><tspan x="0" y="0" class="st6 st7">The collapse of the</tspan><tspan x="-1.5" y="19.2" class="st6 st7">Soviet Union leads </tspan><tspan x="23" y="38.4" class="st6 st7">to increased </tspan><tspan x="2" y="57.6" class="st6 st7">poaching of Saiga </tspan><tspan x="27.3" y="76.8" class="st6 st7">antelope to </tspan><tspan x="3.5" y="96" class="st6 st7">supplement diets </tspan><tspan x="2.4" y="115.2" class="st6 st7">as well as income.</tspan></text>
	<text id="Year3" transform="matrix(0.9959 0 0 1 264.3067 526.3263)" class="st3 st4 st5">1980s-1990s</text>
	<g id="Tab3">
		<path class="st3" d="M227,622.7h-1.5c-18.8,0-34.2-15.4-34.2-34.2V490c0-18.8,15.4-34.2,34.2-34.2h1.5c18.8,0,34.2,15.4,34.2,34.2
			v98.5C261.2,607.3,245.8,622.7,227,622.7z"/>
		<rect x="190.5" y="455.5" class="st3" width="38" height="167.2"/>
	</g>
	<g id="Icon3">
		<path class="st8" d="M238.8,528.2h-31c-0.7,0-1.2-0.6-1.2-1.4c0-0.8,0.6-1.4,1.2-1.4h31c0.7,0,1.2,0.6,1.2,1.4
			C240,527.6,239.5,528.2,238.8,528.2z"/>
		<path class="st8" d="M238.8,550h-31c-0.7,0-1.2-0.6-1.2-1.4c0-0.8,0.6-1.4,1.2-1.4h31c0.7,0,1.2,0.6,1.2,1.4
			C240,549.4,239.5,550,238.8,550z"/>
		<path class="st8" d="M243.8,544.5c-0.7,0-1.2-0.6-1.2-1.4v-10.9c0-0.8,0.6-1.4,1.2-1.4s1.2,0.6,1.2,1.4v10.9
			C245,543.9,244.4,544.5,243.8,544.5z"/>
		<path class="st8" d="M248.1,554.8h-49.7c-0.7,0-1.2-0.6-1.2-1.4V522c0-0.8,0.6-1.4,1.2-1.4h49.7c0.7,0,1.2,0.6,1.2,1.4v31.4
			C249.3,554.1,248.8,554.8,248.1,554.8z M199.7,552h47.2v-28.6h-47.2V552z"/>
		<path class="st8" d="M252.4,559.5h-49.7c-0.7,0-1.2-0.6-1.2-1.4s0.6-1.4,1.2-1.4h48.4v-30c0-0.8,0.6-1.4,1.2-1.4s1.2,0.6,1.2,1.4
			v31.4C253.7,558.9,253.1,559.5,252.4,559.5z"/>
		<path class="st8" d="M243.8,533.6c-3.4,0-6.2-3.1-6.2-6.8c0-0.8,0.6-1.4,1.2-1.4s1.2,0.6,1.2,1.4c0,2.2,1.7,4.1,3.7,4.1
			c0.7,0,1.2,0.6,1.2,1.4S244.4,533.6,243.8,533.6z"/>
		<path class="st8" d="M238.8,550c-0.7,0-1.2-0.6-1.2-1.4c0-3.7,2.8-6.8,6.2-6.8c0.7,0,1.2,0.6,1.2,1.4c0,0.8-0.6,1.4-1.2,1.4
			c-2,0-3.7,1.8-3.7,4.1C240,549.4,239.5,550,238.8,550z"/>
		<path class="st8" d="M202.8,533.6c-0.7,0-1.2-0.6-1.2-1.4s0.6-1.4,1.2-1.4c2,0,3.7-1.8,3.7-4.1c0-0.8,0.6-1.4,1.2-1.4
			c0.7,0,1.2,0.6,1.2,1.4C209,530.6,206.2,533.6,202.8,533.6z"/>
		<path class="st8" d="M207.8,550c-0.7,0-1.2-0.6-1.2-1.4c0-2.2-1.7-4.1-3.7-4.1c-0.7,0-1.2-0.6-1.2-1.4c0-0.7,0.6-1.4,1.2-1.4
			c3.4,0,6.2,3.1,6.2,6.8C209,549.4,208.4,550,207.8,550z"/>
		<path class="st8" d="M223.3,550c-5.2,0-9.3-5.5-9.3-12.3c0-6.7,4.2-12.3,9.3-12.3c5.2,0,9.3,5.5,9.3,12.3
			C232.6,544.5,228.4,550,223.3,550z M223.3,528.2c-3.8,0-6.8,4.3-6.8,9.5s3,9.5,6.8,9.5c3.8,0,6.8-4.3,6.8-9.5
			S227.1,528.2,223.3,528.2z"/>
		<path class="st8" d="M223.3,545.2c-0.7,0-1.2-0.6-1.2-1.4v-1.4c0-0.8,0.6-1.4,1.2-1.4s1.2,0.6,1.2,1.4v1.4
			C224.5,544.6,224,545.2,223.3,545.2z"/>
		<path class="st8" d="M223.3,534.3c-0.7,0-1.2-0.6-1.2-1.4v-1.4c0-0.7,0.6-1.4,1.2-1.4s1.2,0.6,1.2,1.4v1.4
			C224.5,533.7,224,534.3,223.3,534.3z"/>
		<path class="st8" d="M223.3,543.7c-2.1,0-3.4-1.4-3.5-1.5c-0.5-0.5-0.5-1.4,0-1.9c0.5-0.5,1.2-0.5,1.7,0c0.1,0.1,0.7,0.7,1.8,0.7
			c0.6,0,1.4-0.2,1.4-0.8c0-0.4-0.6-0.6-1.7-1c-1.4-0.5-3.5-1.2-3.5-3.7c0-2,1.6-3.5,3.8-3.5c1.7,0,2.9,0.9,3,1
			c0.6,0.4,0.7,1.3,0.3,1.9c-0.4,0.6-1.2,0.8-1.7,0.3l0,0c0,0-0.7-0.5-1.6-0.5c-0.6,0-1.4,0.2-1.4,0.8c0,0.4,0.6,0.6,1.7,1
			c1.4,0.5,3.5,1.2,3.5,3.7C227.1,542.2,225.5,543.7,223.3,543.7z"/>
		<ellipse class="st8" cx="209.6" cy="537.7" rx="1.2" ry="1.4"/>
		<ellipse class="st8" cx="236.9" cy="537.7" rx="1.2" ry="1.4"/>
	</g>
	<line id="Line3" class="st9" x1="343.9" y1="534.2" x2="255.8" y2="534.2"/>
</g>
<g id="Set2">
	<g id="Foot4">
		<path class="st13" d="M386.5,236.3c-4-0.8-11.1,1.3-11.4,7.2c-0.3,6.9,2.3,18.1,2.1,23.5c-0.2,4.2-2.4,9.3-2.4,11s-0.5,5.1,3.8,3
			c4.4-2.1,9.1-9.7,11.1-15.4c2-5.8,4.4-13.1,2.6-20.4C390.7,237.9,388.5,236.7,386.5,236.3z"/>
		<path class="st13" d="M371.7,257.6c-0.3,4.9,1.5,14.5,2,16.7c0.5,2.2,0.2,6.4-1.6,7c-1.8,0.6-5.6-1.3-8.9-8.6
			c-3.3-7.2-8-21.2-6.8-28.4c1.2-7.1,3-8.6,8-9.4c5-0.8,8.6,0.6,9,6.5C374,247.5,372,252.5,371.7,257.6z"/>
	</g>
	<g id="Foot3">
		<path class="st13" d="M424.9,322c-4-0.8-11.1,1.3-11.4,7.2c-0.3,6.9,2.3,18.1,2.1,23.5c-0.2,4.2-2.4,9.3-2.4,11
			c0,1.7-0.5,5.1,3.8,3c4.4-2.1,9.1-9.7,11.1-15.4c2-5.8,4.4-13.1,2.6-20.4C429.1,323.6,426.9,322.4,424.9,322z"/>
		<path class="st13" d="M410,343.3c-0.3,4.9,1.5,14.5,2,16.7c0.5,2.2,0.2,6.4-1.6,7c-1.8,0.6-5.6-1.3-8.8-8.6
			c-3.3-7.2-8-21.2-6.8-28.4c1.2-7.1,3-8.6,8-9.4s8.6,0.6,9,6.5C412.3,333.3,410.3,338.2,410,343.3z"/>
	</g>
	<path id="Rectangle2" class="st1" d="M727.9,473.4H572.8c-23.2,0-42.1-18.9-42.1-42.1V350c0-23.2,18.9-42.1,42.1-42.1h155.1
		c23.2,0,42.1,18.9,42.1,42.1v81.3C770,454.5,751.1,473.4,727.9,473.4z"/>
	<g id="Grass2">
		<g>
			<path class="st2" d="M703.5,298.7c-1.1-6.8-2.7-12.9-4.2-17.9c-1.6-5-3.2-8.9-4.7-11.5c-1.5-2.5-2.6-3.8-2.7-3.7
				c-0.2,0.1,0.6,1.5,1.8,4.1c1.1,2.6,2.5,6.6,3.9,11.5c1.3,5,2.7,10.9,3.7,17.7c0.8,5.2,1.4,10.9,1.9,16.8h2.5
				C705.1,309.9,704.5,304.1,703.5,298.7z"/>
			<path class="st2" d="M715.9,300.8c0.8-6.4,2.1-12.2,3.7-16.7c1.6-4.6,3.7-8,5.2-10.2c1.6-2.2,2.6-3.4,2.5-3.5
				c-0.1-0.1-1.4,0.8-3.2,2.9s-4.2,5.5-6.1,10.2c-2,4.6-3.5,10.5-4.4,17.1c-0.7,4.8-1,10-0.8,15.4h2.5
				C715.1,310.6,715.3,305.6,715.9,300.8z"/>
			<path class="st2" d="M727.5,298c-0.9-6.6-2.4-12.4-4.4-17.1c-1.9-4.6-4.2-8.1-6.1-10.2c-1.8-2.1-3.1-3.1-3.2-2.9s0.9,1.3,2.5,3.5
				s3.6,5.7,5.2,10.2c1.6,4.6,3,10.2,3.7,16.7c0.6,5.4,0.9,11.4,0.4,17.6h2.5C728.6,309.6,728.3,303.6,727.5,298z"/>
			<path class="st2" d="M735.3,313.1c-1.5-2.4-3-4.6-4.5-6.7c-3-4.2-6-7.8-8.6-10.7c-1.3-1.5-2.5-2.7-3.6-3.8c-1.1-1.1-2.2-2-3-2.6
				c-1.8-1.3-3-1.6-3.1-1.5c-0.1,0.2,1,0.8,2.5,2.2c1.6,1.4,3.5,3.8,5.9,6.9c2.4,3.1,5.1,6.7,8,10.9c1.5,2.1,2.9,4.3,4.3,6.7
				c0.3,0.5,0.6,1,0.9,1.5h2.9C736.4,315,735.8,314,735.3,313.1z"/>
			<path class="st2" d="M732.3,289.3c2.5-8.7,4.8-13.7,4.4-13.9c-0.1-0.1-0.9,1.1-2,3.4s-2.6,5.7-4.1,10c-2.5,6.9-4.8,16.5-5.6,27.3
				h2.5C728.3,305.5,730.3,296.1,732.3,289.3z"/>
			<path class="st2" d="M698.6,303.4c-3.5-4.5-6.1-6.9-6.3-6.7c-0.5,0.4,5.5,8,11.9,19.3h2.8C704.1,310.9,701.2,306.6,698.6,303.4z"
				/>
			<path class="st2" d="M706,292c2.6-7.3,5.6-13.6,8.3-18.7c1.3-2.6,2.6-4.9,3.9-6.8c1.3-1.9,2.5-3.4,3.7-4.5c2.3-2.2,4-3,3.9-3.2
				c-0.1-0.1-0.5,0-1.3,0.4c-0.8,0.3-2,1-3.2,2c-1.3,1.1-2.7,2.5-4.2,4.5s-2.9,4.2-4.3,6.7c-3,5.1-6.1,11.5-8.9,18.8
				c-2.8,7.3-5.1,15.7-6.1,24.8c0,0,0,0,0,0.1h2.5C701.2,307.3,703.4,299.1,706,292z"/>
			<path class="st2" d="M742.9,292.8c-2,0.6-4.8,1.5-8.1,3.2c-1.6,0.9-3.4,2-5.1,3.4c-1.7,1.5-3.3,3.2-4.7,5.3
				c-1.4,2.1-2.6,4.3-3.7,6.7c-0.6,1.4-1.2,2.9-1.6,4.4h2.6c0.4-1.1,0.8-2.3,1.3-3.4c1-2.3,2.2-4.5,3.4-6.5c1.3-2,2.7-3.6,4.2-5
				c1.5-1.4,3.1-2.5,4.6-3.4c3-1.8,5.7-3,7.5-3.8c1.8-0.8,2.9-1.3,2.9-1.5C746.1,292.1,744.9,292.3,742.9,292.8z"/>
			<path class="st2" d="M715,310.2c-1.4-2.2-2.9-4.1-4.4-5.7c-1.5-1.7-3-3.1-4.6-4.3c-3-2.4-6-3.6-8.1-4.1c-2.2-0.4-3.4-0.2-3.4-0.1
				c0,0.2,1.1,0.3,3,1c1.9,0.7,4.6,2,7.2,4.5c1.4,1.2,2.7,2.7,4.1,4.3c1.4,1.7,2.7,3.5,4,5.6c0.9,1.4,1.6,2.9,2.3,4.5h2.7
				C717.1,313.9,716.1,311.9,715,310.2z"/>
			<path class="st2" d="M718.1,303.6c-1.9-5.5-3.9-10.2-5.7-14.2c-0.9-2-1.7-3.8-2.5-5.3c-0.8-1.6-1.6-2.9-2.6-3.8
				c-0.4-0.4-1-0.8-1.4-1c-0.4-0.2-0.8-0.4-1.2-0.4s-0.7,0.1-0.8,0.2s-0.2,0.3-0.1,0.3c0.1,0.1,0.3-0.2,0.8,0.1
				c0.3,0.1,0.6,0.3,0.9,0.6c0.4,0.3,0.7,0.6,1.1,1c0.8,0.9,1.4,2.1,2,3.7c0.6,1.6,1.3,3.4,2.1,5.4c1.6,4,3.4,8.8,5.1,14.2
				c1.1,3.6,2.2,7.5,2.9,11.6h2.5C720.6,311.5,719.4,307.4,718.1,303.6z"/>
		</g>
	</g>
	<g id="Tab2">
		<path class="st3" d="M563.5,474.2h1.5c18.8,0,34.2-15.4,34.2-34.2v-98.5c0-18.8-15.4-34.2-34.2-34.2h-1.5
			c-18.8,0-34.2,15.4-34.2,34.2V440C529.3,458.8,544.7,474.2,563.5,474.2z"/>
		
			<rect x="562" y="307" transform="matrix(-1 -1.224647e-16 1.224647e-16 -1 1161.9169 781.1891)" class="st3" width="38" height="167.2"/>
	</g>
	<text id="Year2" transform="matrix(0.9959 0 0 1 469.443 378.9942)" class="st3 st4 st5">1977</text>
	<text id="Text2" transform="matrix(0.9661 0 0 1 613.8047 338.8814)"><tspan x="0" y="0" class="st6 st7">The Convention on </tspan><tspan x="-1.8" y="19.2" class="st6 st7">International Trade </tspan><tspan x="16.4" y="38.4" class="st6 st7">in Endangered </tspan><tspan x="10.8" y="57.6" class="st6 st7">Species  (CITES) </tspan><tspan x="-12" y="76.8" class="st6 st7">declares international </tspan><tspan x="-7.9" y="96" class="st6 st7">trading of rhino horn </tspan><tspan x="48.6" y="115.2" class="st6 st7">illegal.</tspan></text>
	<g id="Icon2">
		<path class="st8" d="M565.1,414.4c-10.9,0.1-23.1-6.8-23.1-16.7l0-0.2l1.9-12.9c0-2.2,0.5-4.4,1.5-6.4c-1.3-0.6-2.6-1.4-3.7-2.4
			c-3.2-3-2.6-8.7-2.6-9l0.1-1.2l1.4,0c0.3,0,7.2,0.2,10.5,3.2c0.6,0.5,1.1,1.1,1.5,1.7c3.5-2.1,7.7-3.2,12.1-3.3
			c4.8,0,9.3,1.3,13,3.6c0.5-0.8,1.1-1.5,1.8-2.2c3.2-3.1,10.1-3.4,10.4-3.4l1.4-0.1l0.2,1.2c0,0.2,0.8,5.9-2.4,9
			c-1.4,1.3-3,2.3-4.7,2.9c0.9,1.9,1.4,3.9,1.4,6l2.2,13.1C588,407.3,575.9,414.3,565.1,414.4z M545,397.7
			c0.1,8.4,10.6,14.1,20,14.1c9.4-0.1,19.8-6,19.7-14.3l-2.2-13.1c0-2.2-0.6-4.4-1.8-6.4l-0.9-1.6l2.1-0.2c1.5-0.2,3.3-1.1,4.7-2.5
			c1.5-1.4,1.8-4,1.8-5.8c-2.1,0.3-5.2,0.9-6.6,2.3c-1,0.9-1.7,2-2,3.1l-0.7,2.1l-1.9-1.5c-3.4-2.7-7.8-4.2-12.6-4.2
			c-4.3,0-8.4,1.3-11.6,3.7l-1.7,1.2l-0.8-1.7c-0.4-0.8-1-1.7-1.8-2.4c-1.5-1.4-4.6-2-6.7-2.3c0,1.7,0.4,4.4,1.9,5.8
			c1.2,1.1,2.6,1.9,3.9,2.2l1.7,0.4l-0.8,1.3c-1.2,2.1-1.8,4.3-1.8,6.6l0,0.2L545,397.7z"/>
		<ellipse class="st8" cx="550.3" cy="389.8" rx="2.8" ry="2.3"/>
		<ellipse class="st8" cx="579.3" cy="389.8" rx="2.8" ry="2.3"/>
		<path class="st8" d="M571.9,399.8h-14.2c-0.5,0-1-0.2-1.3-0.5c-0.3-0.3-0.4-0.8-0.2-1.2l7.1-17.6c0.2-0.5,0.8-0.9,1.5-0.9
			c0.7,0,1.3,0.4,1.5,0.9l7.1,17.6c0.2,0.4,0.1,0.8-0.2,1.2C572.9,399.6,572.4,399.8,571.9,399.8z M559.9,397.2h9.9l-5-12.3
			L559.9,397.2z"/>
	</g>
	<line id="Line2" class="st9" x1="530.3" y1="389.2" x2="442.2" y2="389.2"/>
</g>
<g id="Set1">
	<g id="Foot2">
		<path d="M374.2,97c-4-0.8-11.1,1.3-11.4,7.2c-0.3,6.9,2.3,18.1,2.1,23.5c-0.2,4.2-2.4,9.3-2.4,11s-0.5,5.1,3.8,3
			c4.4-2.1,9.1-9.7,11.1-15.4c2-5.8,4.4-13.1,2.6-20.4C378.4,98.6,376.2,97.4,374.2,97z"/>
		<path d="M359.3,118.3c-0.3,4.9,1.5,14.5,2,16.7c0.5,2.2,0.2,6.4-1.6,7c-1.8,0.6-5.6-1.3-8.8-8.6c-3.3-7.2-8-21.2-6.8-28.4
			c1.2-7.1,3-8.6,8-9.4c5-0.8,8.6,0.6,9,6.5C361.6,108.3,359.6,113.2,359.3,118.3z"/>
	</g>
	<g id="Foot1">
		<path d="M428.1,163.7c-4-0.8-11.1,1.3-11.4,7.2c-0.3,6.9,2.3,18.1,2.1,23.5c-0.2,4.2-2.4,9.3-2.4,11s-0.5,5.1,3.8,3
			c4.4-2.1,9.1-9.7,11.1-15.4c2-5.8,4.4-13.1,2.6-20.4C432.3,165.3,430.1,164.1,428.1,163.7z"/>
		<path d="M413.3,185c-0.3,4.9,1.5,14.5,2,16.7c0.5,2.2,0.2,6.4-1.6,7c-1.8,0.6-5.6-1.3-8.8-8.6c-3.3-7.2-8-21.2-6.8-28.4
			c1.2-7.1,3-8.6,8-9.4c5-0.8,8.6,0.6,9,6.5C415.5,175,413.6,179.9,413.3,185z"/>
	</g>
	<path id="Rectangle1" class="st1" d="M218,297.4H62.9c-23.2,0-42.1-18.9-42.1-42.1V174c0-23.2,18.9-42.1,42.1-42.1H218
		c23.2,0,42.1,18.9,42.1,42.1v81.3C260.1,278.4,241.1,297.4,218,297.4z"/>
	<text id="Text1" transform="matrix(1 0 0 1 41.0645 168.5369)"><tspan x="0" y="0" class="st6 st7">The use of animal</tspan><tspan x="-2.7" y="19.2" class="st6 st7">horns, particularly</tspan><tspan x="6.6" y="38.4" class="st6 st7">rhino horns, for </tspan><tspan x="7" y="57.6" class="st6 st7">medicine began</tspan><tspan x="12.3" y="76.8" class="st6 st7">in the Eastern </tspan><tspan x="44" y="96" class="st6 st7">world.</tspan></text>
	<g id="Tab1">
		<path class="st3" d="M227,298.2h-1.5c-18.8,0-34.2-15.4-34.2-34.2v-98.5c0-18.8,15.4-34.2,34.2-34.2h1.5
			c18.8,0,34.2,15.4,34.2,34.2V264C261.2,282.8,245.8,298.2,227,298.2z"/>
		<rect x="190.5" y="131" class="st3" width="38" height="167.2"/>
	</g>
	<g id="Grass1">
		<g>
			<path class="st2" d="M61,125.3c-1.1-6.8-2.7-12.9-4.2-17.9c-1.6-5-3.2-8.9-4.7-11.5c-1.5-2.5-2.6-3.8-2.7-3.7
				c-0.2,0.1,0.6,1.5,1.8,4.1C52.3,99,53.7,103,55,108s2.7,10.9,3.7,17.7c0.8,5.2,1.4,10.9,1.9,16.8h2.5
				C62.6,136.5,61.9,130.7,61,125.3z"/>
			<path class="st2" d="M73.3,127.4c0.8-6.4,2.1-12.2,3.7-16.7c1.6-4.6,3.7-8,5.2-10.2c1.6-2.2,2.6-3.4,2.5-3.5
				c-0.1-0.1-1.4,0.8-3.2,2.9s-4.2,5.5-6.1,10.2c-2,4.6-3.5,10.5-4.4,17.1c-0.7,4.8-1,10-0.8,15.4h2.5
				C72.5,137.2,72.8,132.1,73.3,127.4z"/>
			<path class="st2" d="M85,124.6c-0.9-6.6-2.4-12.4-4.4-17.1c-1.9-4.6-4.2-8.1-6.1-10.2s-3.1-3.1-3.2-2.9c-0.1,0.1,0.9,1.3,2.5,3.5
				c1.6,2.2,3.6,5.7,5.2,10.2c1.6,4.6,3,10.2,3.7,16.7c0.6,5.4,0.9,11.4,0.4,17.6h2.5C86,136.2,85.8,130.2,85,124.6z"/>
			<path class="st2" d="M92.7,139.7c-1.5-2.4-3-4.6-4.5-6.7c-3-4.2-6-7.8-8.6-10.7c-1.3-1.5-2.5-2.7-3.6-3.8c-1.1-1.1-2.2-2-3-2.6
				c-1.8-1.3-3-1.6-3.1-1.5c-0.1,0.2,1,0.8,2.5,2.2c1.6,1.4,3.5,3.8,5.9,6.9c2.4,3.1,5.1,6.7,8,10.9c1.5,2.1,2.9,4.3,4.3,6.7
				c0.3,0.5,0.6,1,0.9,1.5h2.9C93.9,141.6,93.3,140.6,92.7,139.7z"/>
			<path class="st2" d="M89.8,115.8c2.5-8.7,4.8-13.7,4.4-13.9c-0.1-0.1-0.9,1.1-2,3.4c-1.1,2.3-2.6,5.7-4.1,10
				c-2.5,6.9-4.8,16.5-5.6,27.3H85C85.8,132.1,87.7,122.7,89.8,115.8z"/>
			<path class="st2" d="M56.1,130c-3.5-4.5-6.1-6.9-6.3-6.7c-0.5,0.4,5.5,8,11.9,19.3h2.8C61.6,137.5,58.6,133.2,56.1,130z"/>
			<path class="st2" d="M63.5,118.6c2.6-7.3,5.6-13.6,8.3-18.7c1.3-2.6,2.6-4.9,3.9-6.8c1.3-1.9,2.5-3.4,3.7-4.5
				c2.3-2.2,4-3,3.9-3.2c-0.1-0.1-0.5,0-1.3,0.4c-0.8,0.3-2,1-3.2,2c-1.3,1.1-2.7,2.5-4.2,4.5s-2.9,4.2-4.3,6.7
				c-3,5.1-6.1,11.5-8.9,18.8c-2.8,7.3-5.1,15.7-6.1,24.8c0,0,0,0,0,0.1h2.5C58.7,133.9,60.9,125.7,63.5,118.6z"/>
			<path class="st2" d="M100.4,119.4c-2,0.6-4.8,1.5-8.1,3.2c-1.6,0.9-3.4,2-5.1,3.4c-1.7,1.5-3.3,3.2-4.7,5.3
				c-1.4,2.1-2.6,4.3-3.7,6.7c-0.6,1.4-1.2,2.9-1.6,4.4h2.6c0.4-1.1,0.8-2.3,1.3-3.4c1-2.3,2.2-4.5,3.4-6.5c1.3-2,2.7-3.6,4.2-5
				c1.5-1.4,3.1-2.5,4.6-3.4c3-1.8,5.7-3,7.5-3.8c1.8-0.8,2.9-1.3,2.9-1.5C103.5,118.7,102.4,118.9,100.4,119.4z"/>
			<path class="st2" d="M72.5,136.8c-1.4-2.2-2.9-4.1-4.4-5.7c-1.5-1.7-3-3.1-4.6-4.3c-3-2.4-6-3.6-8.1-4.1
				c-2.2-0.4-3.4-0.2-3.4-0.1c0,0.2,1.1,0.3,3,1s4.6,2,7.2,4.5c1.4,1.2,2.7,2.7,4.1,4.3c1.4,1.7,2.7,3.5,4,5.6
				c0.9,1.4,1.6,2.9,2.3,4.5h2.7C74.6,140.5,73.5,138.5,72.5,136.8z"/>
			<path class="st2" d="M75.6,130.2c-1.9-5.5-3.9-10.2-5.7-14.2c-0.9-2-1.7-3.8-2.5-5.3c-0.8-1.6-1.6-2.9-2.6-3.8
				c-0.4-0.4-1-0.8-1.4-1c-0.4-0.2-0.8-0.4-1.2-0.4c-0.4-0.1-0.7,0.1-0.8,0.2c-0.1,0.1-0.2,0.3-0.1,0.3c0.1,0.1,0.3-0.2,0.8,0.1
				c0.3,0.1,0.6,0.3,0.9,0.6c0.4,0.3,0.7,0.6,1.1,1c0.8,0.9,1.4,2.1,2,3.7c0.6,1.6,1.3,3.4,2.1,5.4c1.6,4,3.4,8.8,5.1,14.2
				c1.1,3.6,2.2,7.5,2.9,11.6h2.5C78,138.1,76.8,134,75.6,130.2z"/>
		</g>
	</g>
	<text id="Year1" transform="matrix(0.9959 0 0 1 264.3067 208.8902)" class="st3 st4 st5">3rd century BC</text>
	<g id="Icon1">
		<path class="st14" d="M251.1,207.9c0-1.2-2.3-2.3-6-3.1l2.3-2.8c0.9-0.1,1.8-0.6,2.5-1.4c1.7-1.9,1.7-4.9,0-6.8
			c-0.8-0.9-1.9-1.4-3-1.4c-1.1,0-2.2,0.5-3,1.4c-0.7,0.8-1.1,1.8-1.2,2.8l-6.6,6.8c-3.3-0.3-7.1-0.5-11-0.5
			c-14.4,0-26.1,2.2-26.1,4.9v0c0,8.3,3.1,15.7,8,21l2.9,8.2h30.5l2.9-8.2C248,223.6,251.1,216.1,251.1,207.9z M247.2,207.9
			c-1.2,0.4-3,0.9-5.8,1.3c0,0-0.1,0-0.1,0l1.9-2.3C245.1,207.2,246.4,207.6,247.2,207.9z M243.7,200.6c0.3,0.3,0.7,0.6,1,0.8
			l-6.7,8.2c-1.7,0.2-3.5,0.3-5.4,0.4l10.3-10.6C243.2,199.9,243.4,200.3,243.7,200.6z M245.3,195.6c0.4-0.4,0.9-0.7,1.5-0.7l0,0
			c0.6,0,1.1,0.2,1.5,0.7c0.4,0.4,0.6,1,0.6,1.7c0,0.6-0.2,1.2-0.6,1.7c-0.4,0.4-0.9,0.7-1.5,0.7c-0.6,0-1.1-0.2-1.5-0.7
			c-0.4-0.4-0.6-1-0.6-1.7C244.7,196.6,244.9,196,245.3,195.6z M208.4,206.6c4.6-0.7,10.5-1.1,16.6-1.1c3,0,6,0.1,8.8,0.3l-4.4,4.5
			c-1.4,0-2.9,0.1-4.4,0.1c-6.1,0-12-0.4-16.6-1.1c-2.8-0.4-4.6-0.9-5.8-1.3C203.8,207.5,205.6,207,208.4,206.6z M201.1,210.3h1.2
			c4.5,1.5,13,2.4,22.6,2.4c9.7,0,18.1-1,22.6-2.4h1.2c-0.2,2.8-0.8,5.4-1.8,8c-1.2,3.2-2.9,6.1-5.1,8.5c-2.2,2.5-4.8,4.4-7.6,5.8
			c-3,1.4-6.1,2.1-9.3,2.1c-3.2,0-6.4-0.7-9.3-2.1c-2.9-1.4-5.4-3.3-7.6-5.8c-2.2-2.5-3.9-5.3-5.1-8.5
			C201.9,215.8,201.3,213.1,201.1,210.3z M211.1,234.7l-0.9-2.6c1.3,1,2.7,1.9,4.2,2.6H211.1z M238.7,234.7h-3.3
			c1.5-0.7,2.9-1.6,4.2-2.6L238.7,234.7z"/>
		<path class="st14" d="M221.7,231h6.5v-3.7h3.3v-7.3h-3.3v-3.7h-6.5v3.7h-3.3v7.3h3.3V231z M220.6,224.9v-2.4h3.3v-3.7h2.2v3.7h3.3
			v2.4H226v3.7h-2.2v-3.7H220.6z"/>
	</g>
	<line id="Line1" class="st15" x1="343.9" y1="218.4" x2="255.8" y2="218.4"/>
</g>
</svg>
