<?xml version="1.0" encoding="utf-8"?>
<!-- Generator: Adobe Illustrator 24.1.0, SVG Export Plug-In . SVG Version: 6.00 Build 0)  -->
<svg version="1.1" id="Layer_1" xmlns="http://www.w3.org/2000/svg" xmlns:xlink="http://www.w3.org/1999/xlink" x="0px" y="0px"
	 viewBox="-45 0 400 125" style="enable-background:new 0 0 326.8 138.6;" xml:space="preserve">
<style type="text/css">
	.st0{fill:#010101;}
	.st1{font-family:'RobotoSlab-Bold';}
	.st2{font-size:12px;}
	.st3{font-family:'RobotoSlab-Regular';}
	.st4{font-family:'RobotoSlab-Light';}
	.st5{fill:none;}
</style>
<g>
	<path class="st0" d="M69,60.3C69,60.4,69,60.4,69,60.3c2,1.7,3.6,2.3,5.1,2.2c1.7-0.2,3-1.5,4.1-3.7l0,0c-0.1-1.7-0.2-3.7-0.5-5.8
		c-1.1,1.6-2.4,2.5-3.9,2.7c-1.5,0.2-3.3-0.5-5.2-2C68.8,55.8,69,58,69,60.3L69,60.3z M121.1,41.4c-0.2,0.5-0.4,0.9-0.6,1.4
		c-0.2,0.3-0.4,0.6-0.6,1c1,0.2,1.9,0.3,2.8,0.2c0.7-0.8,1.2-1.6,1.5-2.5c0.1-0.3,0.2-0.6,0.3-0.9C123.4,41,122.3,41.2,121.1,41.4z
		 M118.7,43.5c0.4-0.5,0.7-1,1-1.5c0.1-0.1,0.1-0.3,0.2-0.4c-1.6,0.2-3.2,0.2-5.1,0.1c1,0.6,2,1.2,3.2,1.6
		C118.3,43.4,118.5,43.4,118.7,43.5L118.7,43.5z M125.6,40.3c-0.1,0.6-0.3,1.3-0.6,2c-0.2,0.5-0.5,1-0.8,1.5
		c2.8-0.8,4.5-3.2,6.3-6.1C128.9,38.8,127.3,39.6,125.6,40.3L125.6,40.3z M95.1,62c-1.9,1.5-3.6,2.1-5.2,1.9c-1.6-0.2-3-1.2-4.1-3
		c0,0.9-0.1,1.7-0.1,2.4c0,0,0,0.1,0,0.1c-0.1,2.4,0.8,3.9,2,4.7c0.7,0.4,1.4,0.6,2.2,0.6c0.8,0,1.6-0.3,2.3-0.8
		C93.8,66.8,94.9,64.9,95.1,62L95.1,62z M85.9,58.8L85.9,58.8c1.1,2.2,2.4,3.5,4.1,3.7c1.5,0.2,3.2-0.5,5.1-2.1c0,0,0-0.1,0-0.1
		c0.1-2.3,0.2-4.5,0.4-6.6c-2,1.5-3.7,2.1-5.2,2c-1.5-0.2-2.8-1.1-3.9-2.7C86.2,55.1,86,57.1,85.9,58.8L85.9,58.8z M86.6,51.3
		c1,1.8,2.3,2.9,3.8,3c1.5,0.2,3.3-0.6,5.3-2.3c0.2-1.9,0.5-3.7,0.8-5.4c-0.2,0-0.5,0.1-0.7,0.1c-2.8,0.3-5.8,0.6-8.2-1.2
		C87.2,47.5,86.8,49.4,86.6,51.3z M87.9,44.2c2.2,1.7,5.1,1.4,7.8,1.1c0.4,0,0.7-0.1,1.1-0.1c0.2-1,0.4-1.9,0.7-2.8
		c0.1-0.4,0.2-0.8,0.3-1.1c-1.3-1.4-2.6-2.4-4.1-2.8c-1.4-0.3-2.8,0-4.4,1.1c-0.1,0.3-0.2,0.6-0.3,0.9C88.5,41.8,88.2,43,87.9,44.2
		L87.9,44.2z M90,37.7c1.3-0.6,2.6-0.8,3.8-0.5c1.6,0.3,3.1,1.4,4.4,2.8c0.6-1.8,1.3-3.5,2.1-4.9c-1-1.5-2.1-2.7-3.3-3.2
		c-1.1-0.4-2.3-0.5-3.6,0.1C92,33.7,90.9,35.6,90,37.7z M95,30.3c0.7,0,1.4,0.1,2.1,0.4c1.4,0.6,2.6,1.8,3.7,3.4
		c0.6-0.9,1.2-1.8,1.8-2.5c0.2-0.3,0.5-0.5,0.7-0.8c-0.3-0.7-0.7-1.4-1.2-1.9c-0.7-0.7-1.5-1.1-2.8-1.2C97.7,28.3,96.3,29.1,95,30.3
		L95,30.3z M101.9,27.1c0.3,0.2,0.5,0.4,0.8,0.7c0.6,0.6,1.1,1.5,1.5,2.3c1.5-1.2,3.1-2,4.9-2.1c-0.9-0.4-1.7-0.7-2.6-0.8l0,0
		C104.8,26.9,103.3,26.9,101.9,27.1L101.9,27.1z M134.9,34.1c-1.1,1.4-1.9,2.9-2.8,4.3c-3.3,5.4-6,9.9-14.4,7.1
		c-1.7-0.6-3-1.4-4.3-2.3c-2-1.3-3-1.9-5.1-2.3l0,0c-4.2-0.7-6.9,2.3-8.6,6.4c-1.8,4.2-2.6,9.5-3.1,13.4c0.1,4.7-1.5,7.7-3.7,9.1
		c-0.9,0.6-1.9,1-2.9,1c-1,0-2-0.2-2.8-0.7c-1.8-1.1-3.1-3.4-3-6.9l0,0c0.1-4.7,0.4-14.9,3.3-23.6c3-8.9,8.5-16.2,19-14.6l0,0l0,0
		c3.2,0.5,6.2,2.6,9.2,4.7c0,0,0,0,0,0l0.1,0.1c5.6,4,11.3,8,17.9,0.8c1.2-1.3,2-1.9,2.4-2c0.6-0.2,0.9,0.1,1.1,0.7
		c0.1,0.4,0.1,0.9-0.1,1.4c-0.3,0.7-1,1.9-2,2.8C135.2,33.7,135.1,33.9,134.9,34.1L134.9,34.1z M115.4,31.8l-0.1-0.1
		c-1.7-1-3.4-1.5-4.9-1.6c-2.6-0.1-4.8,1-6.8,3.2c-2,2.2-3.5,5.6-4.7,10c-0.4,1.3-0.7,2.8-1,4.3c0.2-0.5,0.4-0.9,0.6-1.4
		c2-4.8,5.2-8.3,10.1-7.5l0,0l0,0c6.8,1.3,11.8,1.1,15.8-0.2c1.5-0.5,2.8-1.1,4.1-1.8C123.8,37.8,119.6,34.8,115.4,31.8L115.4,31.8z
		 M44.2,41.6c0.1,0.1,0.1,0.3,0.2,0.4c0.3,0.5,0.6,1,1,1.5c0.2-0.1,0.4-0.1,0.6-0.2c1.2-0.4,2.2-1,3.2-1.6
		C47.5,41.8,45.8,41.7,44.2,41.6L44.2,41.6z M44.3,43.8c-0.2-0.3-0.4-0.6-0.6-1c-0.2-0.5-0.4-0.9-0.6-1.4c-1.2-0.2-2.3-0.4-3.4-0.8
		c0.1,0.3,0.2,0.6,0.3,0.9c0.3,0.8,0.8,1.7,1.5,2.5C42.4,44.1,43.3,44,44.3,43.8L44.3,43.8z M40,43.8c-0.3-0.5-0.6-1-0.8-1.5
		c-0.3-0.7-0.4-1.3-0.6-2c-1.8-0.7-3.4-1.5-4.9-2.6C35.5,40.6,37.1,43,40,43.8z M69.1,62c0.2,2.9,1.3,4.9,2.8,5.9
		c0.7,0.5,1.5,0.8,2.3,0.8c0.8,0,1.5-0.2,2.2-0.6c1.2-0.8,2.1-2.3,2-4.7c0,0,0-0.1,0-0.1c0-0.7,0-1.5-0.1-2.4
		c-1.1,1.8-2.5,2.9-4.1,3C72.7,64,71,63.4,69.1,62L69.1,62z M77.6,51.3c-0.2-1.9-0.6-3.8-1-5.7c-2.4,1.8-5.4,1.5-8.2,1.2
		c-0.2,0-0.5-0.1-0.7-0.1c0.3,1.7,0.6,3.5,0.8,5.4c2.1,1.7,3.8,2.5,5.3,2.3C75.3,54.2,76.6,53.1,77.6,51.3L77.6,51.3z M76.3,44.2
		c-0.3-1.2-0.6-2.5-1-3.7c-0.1-0.3-0.2-0.6-0.3-0.9c-1.5-1.1-3-1.4-4.4-1.1c-1.5,0.3-2.9,1.3-4.1,2.8c0.1,0.4,0.2,0.8,0.3,1.1
		c0.2,0.9,0.5,1.8,0.7,2.8c0.4,0,0.7,0.1,1.1,0.1C71.2,45.7,74.1,46,76.3,44.2L76.3,44.2z M74.2,37.7c-0.9-2.1-2-4-3.3-5.6
		c-1.3-0.6-2.5-0.6-3.6-0.1c-1.3,0.5-2.4,1.6-3.3,3.2c0.8,1.4,1.5,3.1,2.1,4.9c1.3-1.5,2.8-2.5,4.4-2.8
		C71.6,36.9,72.9,37.1,74.2,37.7z M69.1,30.3c-1.3-1.1-2.7-2-4.3-2.6c-1.3,0-2.1,0.5-2.8,1.2c-0.5,0.5-0.9,1.2-1.2,1.9
		c0.2,0.2,0.5,0.5,0.7,0.8c0.6,0.7,1.2,1.6,1.8,2.5c1-1.6,2.3-2.9,3.7-3.4C67.7,30.3,68.4,30.2,69.1,30.3L69.1,30.3z M62.3,27.1
		c-1.4-0.2-2.9-0.2-4.5,0.1l0,0c-0.9,0.1-1.8,0.4-2.6,0.8c1.8,0.2,3.4,0.9,4.9,2.1c0.4-0.9,0.9-1.7,1.5-2.3
		C61.7,27.5,62,27.3,62.3,27.1z M54.4,41.1c-1.3,0.5-2.5,1.3-3.6,2c-1.3,0.9-2.7,1.8-4.3,2.3c-8.4,2.8-11.1-1.7-14.4-7.1
		c-1-1.6-2-3.5-3.3-4.7c-1-1-1.7-2.1-2-2.8c-0.2-0.5-0.2-1-0.1-1.4c0.2-0.6,0.5-0.9,1.1-0.7c0.4,0.1,1.2,0.7,2.4,2
		c6.6,7.2,12.3,3.2,17.9-0.8l0.1-0.1c0,0,0,0,0,0c3-2.1,6-4.2,9.2-4.7l0,0l0,0c10.5-1.6,16.1,5.7,19,14.6c2.9,8.7,3.2,18.9,3.3,23.6
		l0,0c0.1,3.4-1.2,5.7-3,6.9c-0.9,0.5-1.8,0.8-2.8,0.7c-1,0-2-0.4-2.9-1c-2.1-1.5-3.8-4.5-3.7-9.1c-0.4-3.9-1.3-9.2-3.1-13.4
		c-1.8-4.1-4.5-7.1-8.6-6.4l0,0C55.3,40.9,54.8,41,54.4,41.1L54.4,41.1z M48.9,31.7l-0.1,0.1c-4.2,3-8.4,5.9-13.1,4.8
		c1.3,0.7,2.6,1.4,4.1,1.8c4,1.3,9,1.5,15.8,0.2l0,0l0,0c4.9-0.8,8,2.7,10.1,7.5c0.2,0.5,0.4,0.9,0.6,1.4c-0.3-1.5-0.6-2.9-1-4.3
		c-1.2-4.3-2.8-7.7-4.7-10c-1.9-2.2-4.2-3.3-6.8-3.2C52.3,30.2,50.7,30.7,48.9,31.7L48.9,31.7z"/>
</g>
<g>
	<path class="st0" d="M263.7,59.6h-7c-0.6,0-1.2,0.5-1.2,1.1v10.1h-4.6V50.6c0-0.6-0.5-1.1-1.2-1.1h-7c-0.6,0-1.2,0.5-1.2,1.1v20.2
		H237V40.5c0-0.6-0.5-1.1-1.2-1.1h-7c-0.6,0-1.2,0.5-1.2,1.1v30.3h-4.6V31.5c0-0.6-0.5-1.1-1.2-1.1h-7c-0.6,0-1.2,0.5-1.2,1.1v39.3
		h-4.6V18.1c0-0.6-0.5-1.1-1.2-1.1c-0.6,0-1.2,0.5-1.2,1.1v53.9c0,0.6,0.5,1.1,1.2,1.1h7h7h7h7h7h7h7h7c0.6,0,1.2-0.5,1.2-1.1V60.7
		C264.8,60.1,264.3,59.6,263.7,59.6z M216.1,70.8V32.7h4.6v38.2H216.1z M230,70.8V41.6h4.6v29.2H230z M243.9,70.8V51.7h4.6v19.1
		H243.9z M257.9,70.8v-9h4.6v9H257.9z"/>
	<path class="st0" d="M220.9,18.6c-0.4,0.5-0.2,1.2,0.3,1.6l33.9,21.5h-3.1c-0.6,0-1.2,0.5-1.2,1.1s0.5,1.1,1.2,1.1h7
		c0.1,0,0.2,0,0.3,0c0,0,0,0,0,0c0.1,0,0.2,0,0.2-0.1c0,0,0,0,0.1,0c0.1,0,0.1-0.1,0.2-0.1c0,0,0,0,0.1-0.1c0,0,0.1-0.1,0.1-0.1
		c0,0,0,0,0,0c0,0,0,0,0,0c0,0,0,0,0,0c0.1-0.1,0.1-0.2,0.1-0.4c0,0,0,0,0,0c0-0.1,0-0.2,0-0.4c0,0,0-0.1,0-0.1c0,0,0-0.1,0-0.1
		l-2.3-6.7c-0.2-0.6-0.9-0.9-1.5-0.7c-0.6,0.2-0.9,0.8-0.7,1.4l1.3,3.7l-34.3-21.8C222,17.9,221.3,18.1,220.9,18.6z"/>
</g>
<text transform="matrix(1 0 0 1 23.6817 94.8882)"><tspan x="0" y="0" class="st1 st2">$4600</tspan><tspan x="33.7" y="0" class="st3 st2"> </tspan><tspan x="36.6" y="0" class="st4 st2">average price</tspan><tspan x="32.2" y="14.4" class="st4 st2">per horn</tspan></text>
<text transform="matrix(1 0 0 1 169.8941 94.8883)"><tspan x="0" y="0" class="st1 st2">95%</tspan><tspan x="21.5" y="0" class="st3 st2"> </tspan><tspan x="24.4" y="0" class="st4 st2">population decline</tspan><tspan x="27.9" y="14.4" class="st4 st2">in 10 years to</tspan><tspan x="-4.7" y="28.8" class="st4 st2">below 40,000 individuals</tspan></text>
<rect x="303.5" y="120.4" class="st5" width="4.4" height="2.2"/>
</svg>
