<?xml version="1.0" encoding="utf-8"?>
<!-- Generator: Adobe Illustrator 24.1.0, SVG Export Plug-In . SVG Version: 6.00 Build 0)  -->
<svg version="1.1" id="Layer_1" xmlns="http://www.w3.org/2000/svg" xmlns:xlink="http://www.w3.org/1999/xlink" x="0px" y="0px"
	 viewBox="-225 0 500 72" style="enable-background:new 0 0 64 72;" xml:space="preserve">
<g>
	<path d="M60,21h-2c-1.3,0-2.4,0.8-2.8,2H47V1H6C3.2,1,1,3.2,1,6v44c0,2.8,2.2,5,5,5h36.5L42,60.2l0.1,0.3c0.1,0.1,1.3,2.6,4.9,2.6
		s4.8-2.4,4.9-2.6l0.1-0.3L50.1,39h5.1c0.4,1.2,1.5,2,2.8,2h2c1.7,0,3-1.3,3-3V24C63,22.3,61.7,21,60,21z M39,37V25h16v12H39z
		 M35.5,9l-3.2,8H31v2c0,1,0.3,2.1,0.8,3c-0.5,0.5-0.8,1.2-0.8,2v14c0,0.4,0.1,0.7,0.2,1H29V9H35.5z M37,10.7l2.5,6.3h-5L37,10.7z
		 M33,38V24c0-0.6,0.4-1,1-1h2c0.6,0,1,0.4,1,1v14c0,0.6-0.4,1-1,1h-1h-1C33.4,39,33,38.6,33,38z M36,21h-2c-0.1,0-0.3,0-0.4,0
		c-0.4-0.6-0.6-1.3-0.6-2h8c0,1.6-1,3-2.3,3.6C38.2,21.7,37.2,21,36,21z M45,23h-3.6c1-1.1,1.6-2.5,1.6-4v-2h-1.3l-3.2-8H41V7H15v2
		h2.5l-3.2,8H13v2c0,3.3,2.7,6,6,6s6-2.7,6-6v-2h-1.3l-3.2-8H27v30h-2v2h9h1h1c1.3,0,2.4-0.8,2.8-2h5.1l-0.5,6H11V3h34V23z M23,19
		c0,2.2-1.8,4-4,4s-4-1.8-4-4H23z M16.5,17l2.5-6.3l2.5,6.3H16.5z M6,3h3v42H6c-1.1,0-2.2,0.4-3,1V6C3,4.3,4.3,3,6,3z M6,53
		c-1.7,0-3-1.3-3-3s1.3-3,3-3h37.2l-0.5,6H6z M50,59.7c-0.3,0.4-1.2,1.3-3,1.3c-1.8,0-2.7-0.9-3-1.3L45.9,39h2.2L50,59.7z M61,38
		c0,0.6-0.4,1-1,1h-2c-0.6,0-1-0.4-1-1V24c0-0.6,0.4-1,1-1h2c0.6,0,1,0.4,1,1V38z"/>
	<rect x="5" y="49" width="2" height="2"/>
	<rect x="9" y="49" width="32" height="2"/>
</g>
</svg>
