<?xml version="1.0" encoding="utf-8"?>
<!-- Generator: Adobe Illustrator 24.1.1, SVG Export Plug-In . SVG Version: 6.00 Build 0)  -->
<svg version="1.1" xmlns="http://www.w3.org/2000/svg" xmlns:xlink="http://www.w3.org/1999/xlink" x="0px" y="0px"
	 viewBox="0 0 1561 582" style="enable-background:new 0 0 1561 582;" xml:space="preserve">
<style type="text/css">
	.st0{fill:#E0C389;}
	.st1{fill:#8B0E3A;}
	.st2{font-family:'MyriadPro-Regular';}
	.st3{font-size:42px;}
	.st4{font-size:61px;}
	.st5{fill:#F2E5D2;stroke:#8B0E3A;stroke-width:2.8473;stroke-miterlimit:10;}
	.st6{fill:#F2E5D2;stroke:#8B0E3A;stroke-width:2.455;stroke-miterlimit:10;}
	.st7{fill:none;}
	.st8{font-size:30px;}
	.st9{font-family:'Rockwell-Bold';}
</style>
<g id="Layer_1">
	<path id="Rect2" class="st0" d="M1388.6,208.3H427.1c-6.6,0-12-5.4-12-12v-45c0-6.6,5.4-12,12-12h961.5c6.6,0,12,5.4,12,12v45
		C1400.6,202.9,1395.2,208.3,1388.6,208.3z"/>
	<path id="Rect1" class="st0" d="M747.6,285.3H427.1c-6.6,0-12-5.4-12-12v-45c0-6.6,5.4-12,12-12h320.5c6.6,0,12,5.4,12,12v45
		C759.6,279.9,754.2,285.3,747.6,285.3z"/>
	<text transform="matrix(1 0 0 1 549.3645 187.8623)" class="st1 st2 st3">2014</text>
	<text transform="matrix(1 0 0 1 1236.3645 115.8623)"><tspan x="0" y="0" class="st1 st2 st4">$2100</tspan><tspan x="156.5" y="0" class="st1 st2 st3">/kg</tspan></text>
	<text transform="matrix(1 0 0 1 620.3645 349.8624)"><tspan x="0" y="0" class="st1 st2 st4">$730</tspan><tspan x="125.2" y="0" class="st1 st2 st3">/kg</tspan></text>
	<text transform="matrix(1 0 0 1 549.3645 264.8623)" class="st1 st2 st3">2017</text>
	<path id="Head" class="st1" d="M405.7,163.5c-1-16.6-55.8-26.8-55.8-26.8c-28.4-8.8-50.7-9.7-67.1-5.8
		c-24.4,5.7-69.1,29.6-92.8,37.7c-52.1,17.9-56.9,36.7-59.6,57.2c-2.4,18.1-4,52.5-5.2,72.8c-1.5,24.5,4.2,45.6,5.7,59.8
		c0.6,5.7,2.1,12.8,4.1,20.3c-5.5,3.2-9.8,5.3-9.9,5.3l-8.2,4.4L127,387c2.3-0.8,5.7-1.7,9.5-2.8c4,13.8,9.3,28.1,14,36.9
		c29.7,56.5,56.7,55,56.7,55s7.9,2.1,16.6-1c13.1-4.6,28.7-17,27.4-35.2c-2.2-30.2-16.7-17.4-29.2-7.3c-12.4,10.1-0.4,14.3,0,18.2
		c0.4,3.8-23.9-9.9-31.9-24.6c-12.7-23.3-18.8-41.6-21.3-55.8c7.3-4.8,14.4-10.5,21.2-16.9c1.3-1.3,2.7-2.6,3.9-3.9
		c13.4-13.5,21.4-25.9,24-30.2l1.3-1.1c18.3-15.8,21.7-1,28.8-0.1c5,0.7,13.1-8.6,15.1-13.2c1.2-2.6,0.6-11.2-0.3-19.7
		c3.4,19.7,10.1,47.2,21.4,49.1c23.1,3.7,54.7-26.6,64.6-43.3c3.8-6.5,10.3-28.2,10.3-28.2l13.2,0.4c21.5-0.7,20.2-10,20.2-10
		c-3.1-18.6,3.8-21.1,3.8-21.1C415.1,216.2,406.6,180,405.7,163.5z M167.7,348.1c1.7-15.2,8.2-20.2,6.4-18.3
		c4.6-5.3,9.3-7.8,13.6-8.6C185.3,325.7,180.1,333.7,167.7,348.1z M200.8,247.7c-4.9,4.6-13.2,1.7-7.7-7.5c2.5-4.2,7.3-6.5,18.5-6.1
		C211.6,234.2,207.5,241.6,200.8,247.7z"/>
	<g id="Money">
		<g>
			<circle class="st5" cx="384.1" cy="217.3" r="85.7"/>
		</g>
		<path class="st1" d="M389.2,210.8h-9.6c-4.3,0-8-3.2-8.3-7.4c-0.3-4.7,3.4-8.5,8-8.5h10.4c3.7,0,6.9,2.6,7.7,6
			c0.3,1.1,1.3,1.9,2.4,1.9h8.8c1.5,0,2.7-1.3,2.5-2.8c-1.3-10-9.6-17.8-19.8-18.6v-8.8c0-1.4-1.1-2.5-2.5-2.5h-8.6
			c-1.4,0-2.5,1.1-2.5,2.5v8.7c-11.6,0.9-20.7,10.8-20,22.8c0.7,11.5,10.6,20.3,22.1,20.3h9.6c4.3,0,8,3.2,8.2,7.4
			c0.3,4.7-3.4,8.5-8,8.5h-10.3c-3.7,0-6.9-2.6-7.7-6c-0.3-1.1-1.3-1.9-2.4-1.9h-8.8c-1.5,0-2.7,1.3-2.5,2.8
			c1.3,10,9.6,17.8,19.8,18.6v8.8c0,1.4,1.1,2.5,2.5,2.5h8.6c1.4,0,2.5-1.1,2.5-2.5v-8.7c11.6-0.9,20.7-10.8,20-22.8
			C410.6,219.6,400.7,210.8,389.2,210.8z"/>
	</g>
	<g>
		<rect x="984" y="326" class="st6" width="413" height="197"/>
		<rect x="1022.8" y="357.3" class="st7" width="333.7" height="166.2"/>
		<text transform="matrix(1 0 0 1 1022.804 382.4893)"><tspan x="0" y="0" class="st1 st2 st8">The </tspan><tspan x="52.9" y="0" class="st1 st9 st8">tusks </tspan><tspan x="139.5" y="0" class="st1 st2 st8">of a </tspan><tspan x="191.9" y="0" class="st1 st9 st8">single </tspan><tspan x="0" y="36" class="st1 st9 st8">elephant </tspan><tspan x="136.6" y="36" class="st1 st2 st8">could be worth </tspan><tspan x="0" y="72" class="st1 st9 st8">more </tspan><tspan x="85" y="72" class="st1 st2 st8">than </tspan><tspan x="149.1" y="72" class="st1 st9 st8">100,000 USD </tspan><tspan x="0" y="108" class="st1 st2 st8">today</tspan></text>
	</g>
</g>
<g id="Layer_2">
</g>
</svg>
