<svg id="a6831a14-457a-4eb1-8dda-f2df759899c0" data-name="Layer 1" xmlns="http://www.w3.org/2000/svg" viewBox="0 0 310 310"><defs><style>.b29cd8da-8386-493e-8410-696428ba5a01{fill:#f2e5d2;stroke:#8b0e3a;stroke-miterlimit:10;stroke-width:5px;}.acbb6b77-02a9-4a45-850c-9a7d0d59ff99{fill:#8b0e3a;}</style></defs><circle class="b29cd8da-8386-493e-8410-696428ba5a01" cx="155" cy="155" r="150.54"/><path class="acbb6b77-02a9-4a45-850c-9a7d0d59ff99" d="M82,177.48c-1.17.86-2.47.22-3.39-.78s-.81-2.95-1.87-3.83c-.85-.71-3-1-4.05-1.39a26.7,26.7,0,0,0-3.88-1.28,8,8,0,0,1-.92-1.83c-.31-1.6.41-1.57,1.09-2.77,1.09-1.91,0-2.08-1.69-3.38-1.39-1.05-2.06-2.26-3.55-3.16a16.08,16.08,0,0,1-3.65-2.84c2.43-.24-.76-2.41-1-3.29-.47-1.79,1.24-3.59,1.08-5.4s-1.9-3.26-2.37-5.22-.63-4.2-.94-6.27-1.57-3.94-1.87-6c-.14-1,.33-4.25,1.5-4.72,1-.39,2.53,1.29,3.67,1.7,2.29.81,2.79.61,3.25,3.14,1.28,0,2-.51,2.58.64s.15,3.74-1.28,3.7c-.38,1.43.69,2.11,2,2.15,1.69.06,1.21-1.12,2.79-1.44.93-.19,2.48,1.27,3.35,1.17a2.21,2.21,0,0,0,1.21-3.6c2-.15,2.39-.05,3-2,1.28,1.07,1,2.5,2.64,3.47a19.66,19.66,0,0,1,7.31,8.66c2.25,4.62,4.67,3.82,4.61,6.81-.06,3.18-2,6.79-1.62,9.85.19,1.39.42,3.21.75,4.71.62,2.8.65,5.39,3.48,6.9,1.82-2.43,1.58,2.5,1.87,3.29.39,1.08.71.84,1.3,1.71.7,1,.37,1.54.73,2.79.47,1.62,3.37,3.63,2,5.59-1.77,2.55-2.11-1.48-2.88-2.23-.19.62,0,2.1-.22,2.45-.74,1.47-1.06.35-1.83.28A4.86,4.86,0,0,1,93,184.6c-.83-.42-1.11-1.1-2-1.48-3.3-1.36-7.86-1.83-8.93-5.82"/><path class="acbb6b77-02a9-4a45-850c-9a7d0d59ff99" d="M158,178.6c.71,1.52,2.44,2.34,2.81,4.08,3.68-1.29,8,1.06,11.5,2-.23-.54,0-1.12-.14-1.65,2.65-.18,1.08-5.21,1.82-6.73.86-1.74,4.86-2.81,6.5-1.88.33-1.87-1.46-2.84-.68-4.6,1.51.63,3.18-.75,4.63-1.19a23.11,23.11,0,0,0,4.45-1.29,11.36,11.36,0,0,0,3.78-3.68c.49-.67,1-1.53,1.44-2.23.16-.25,0-.86.22-1.13s.7-.14.91-.36c.91-1,2.38-2.18,3.35-3.36.27-.33.48-1,.76-1.37.62-.77,2.09-1.27,2.46-2.27.55-1.45-1.23-1.82-.87-2.88s3.5-1.74,3.43.17c1.62.81,2,6.89,5.2,5,2.93-1.75-1.09-6.69,2.18-7.77.61,1.5-.3,3.36.23,4.83.65,1.8,2.63,1.59,3-.42.24-1.43-1.4-3.43-1.08-4.61.35-1.34,2.94-.92,2.7-3-.92.15-3.74,1.59-2.95-.35-.51,0-1.11-.12-1.62-.06a19.35,19.35,0,0,1,4.62-2.59c1.73-.71,2.14-1.94,3.52-3.13s1.69-1.94,2.47-3.8,2.7-3.69,3.15-5.7c1.66.13.6-3.89,2.92-4.09.54,1.26-.16,2.79-.32,4,2.76,0,2.89-5.41,4.65-4.79,1.44.51.64,2.56.91,3.33s2.06,2,3,2.39c0-.1,0-.21.06-.31a3.44,3.44,0,0,1,2.21,1.26c1.39,1.82-.07.41-.72,1.68a12.07,12.07,0,0,0-.23,3c.31,1.07,1.59,1.19,1.34,2.6,1.94-1.15,1.47-2.57,3.81-1.45A4.74,4.74,0,0,0,240.8,138c.29.13,1.16,1.11,1.27,1.12.7.06.73-.77,1.32-.92a5.34,5.34,0,0,1,3.18.23c.49.23.36.86.91,1.1.39.18,1,0,1.49.22,1,.38,1.92.74,1.89,2,1.83,0,5.91.76,3.28,3-1.57,1.33-4.75.62-6.28.55-.59,0-2.07-.29-2.61.1-1.32.93-.28,1.08-.17,2.18.1.95-.68,1.78,0,2.81.59.86,1.75,1,2.19,2-.95,2-1.58.85-3.15,1.12a8.6,8.6,0,0,0-2.56,1.3c-1-1-3.4-4.09-3.63-1-1.27-1.67-2.4-1.2-4.22-1.29s-2.48-.52-4.33-.33c-2.31.24-5.59.19-7.43-1.1-1.79,1.8-2.93,2.22-2.25,4.58-.28.14-.35.34-.69.46a20.66,20.66,0,0,1,0,3.69c-.29,1.19-1,2.07-1.3,3.35-.67,2.82-.6,4.56-2.48,6.9-1.75,2.18-2.3,4.71-4,6.93-.78,1-3.17,5.23-4.1,5.19.25.34.56,1,.88,1.42a11.86,11.86,0,0,0-4.82.73c-1.2.5-2.58,1.16-3.7,1.75-2.17,1.15-1.45,1.4-3.19.54.14.07-.49-.7-.55-.74-.3-.23-.8-.22-1.13-.38a9.08,9.08,0,0,0-2-1c-2.75-.66-5,1.28-7.29,2a12.66,12.66,0,0,0-3.13,1.31,6.72,6.72,0,0,1-1.9,1c-1.44.24-3.33-.5-4.84-.48a10.34,10.34,0,0,0-4.48.7c-.49.27-.46,1-1.29,1.31a12.6,12.6,0,0,1-3,.56c-1.42-.1-1.54-.74-2.41-2a13,13,0,0,0-2.26-2.42c1.29-1.33-2-1.92-2.76-2.65-1.28-1.25-1.13-3.1-2.35-4.61.46-.15,1.38-.12,1.23-.18"/><path class="acbb6b77-02a9-4a45-850c-9a7d0d59ff99" d="M231.67,120.9c.54-.2,4.08-3.43,4.06-.71,0,1.72-3,1.42-3.93,1.11-.2.06-.14.21-.32.35"/></svg>