<svg id="bec66cb2-24fc-4ec5-b7c6-b5e4b66cdcd1" data-name="Layer 1" xmlns="http://www.w3.org/2000/svg" viewBox="0 0 310 310"><defs><style>.bad7a9e0-e139-4351-9823-85b71608789d{fill:#f2e5d2;stroke:#8b0e3a;stroke-miterlimit:10;stroke-width:5px;}.a9e1d89d-837c-4fd7-9482-fb21dbdcc524{fill:#8b0e3a;}</style></defs><circle class="bad7a9e0-e139-4351-9823-85b71608789d" cx="155" cy="155" r="150.54"/><path class="a9e1d89d-837c-4fd7-9482-fb21dbdcc524" d="M204.8,193.44l-3.45-10.78-4.3-19.45a4.13,4.13,0,0,0-.76-1.63l-7-9.09a4.32,4.32,0,0,0-.34-.39l-21.55-21.6-2.43-5.33a4.16,4.16,0,0,0-1.43-1.68L160,121.08l-1.42-3.42,1.35-3.9a3.67,3.67,0,0,0,.2-.87l.59-5,6.71-3.93a4.11,4.11,0,0,0,2-3.19l.28-3.2,1.81-1.73h2.29a4.13,4.13,0,0,0,2.71-1l3.31-2.9a4.15,4.15,0,0,0,1.24-2l.33-1.16,3.35-1.67a4.11,4.11,0,0,0-1.09-7.71l-10.09-1.87-2-1.74-.65-6c0-.15-.05-.3-.08-.45l-1.24-5.58a4.11,4.11,0,0,0-4-3.22h-9l-3.52-4.44a4.13,4.13,0,0,0-3.22-1.56,4.22,4.22,0,0,0-1.94.48l-6.2,3.31a4.17,4.17,0,0,0-.78.54l-4.49,4-6.71,2-7.68,2-4.89-1.52a4.12,4.12,0,0,0-1.21-.18,4.24,4.24,0,0,0-1.61.32l-6.82,2.9a4.12,4.12,0,0,0-1.88,6l3.1,5a4.16,4.16,0,0,0,1,1.11l5,3.73V88a4.09,4.09,0,0,0,1.65,3.29l11.37,8.48a4.11,4.11,0,0,0,5.14-.19l2.8-2.42,3.5,4.9-.59,2.3h-5.5a4.1,4.1,0,0,0-3.76,2.45L127.06,112a4.1,4.1,0,0,0,1.83,5.28l13,6.9v.64a4.1,4.1,0,0,0,2.21,3.64l5.48,2.85.8,3.35a4,4,0,0,0,1,1.8l18.47,20.4.11,1.91a4.19,4.19,0,0,0,.87,2.27l4,5.15-.46,2.39-2.86,11.25a3.83,3.83,0,0,0-.13,1v3.31a4.11,4.11,0,0,0,1.29,3l1.67,1.59-1,2a4.09,4.09,0,0,0-.45,2.3l.7,7.11-2.67.73a5.71,5.71,0,0,0-.58.21l-13.44,6a4,4,0,0,0-1.84,1.64l-2.49,4.13a4.15,4.15,0,0,0,.25,4.6l-.28.1-11.16,4.34a3.29,3.29,0,0,0-.79.41l-4.34,2.89a4.11,4.11,0,0,0-1.21,5.6l1,1.65a4.08,4.08,0,0,0,2,1.65l2.9,1.13a4.41,4.41,0,0,0-.49,1.31l-2.06,11a3.84,3.84,0,0,0-.07.76v3.1a4.1,4.1,0,0,0,4.1,4.11h7.24a4.08,4.08,0,0,0,3.47-1.92l4.08-6.46,5.85-1.46a4.07,4.07,0,0,0,2.61-2l5.93-11,2.22-.11a4.11,4.11,0,0,0,1.34-.28l12.41-5a4.17,4.17,0,0,0,1.38-.9l11-11a4.14,4.14,0,0,0,1.2-2.64l.76-12,2.51-3.85A4.12,4.12,0,0,0,204.8,193.44Z"/><polygon points="130.51 228.88 131.59 229.78 132.66 233.49 133.73 229.7 132.66 227.4 130.51 228.88"/><polygon points="163.94 250.91 164.51 251.33 165.63 251.33 165.08 248.67 163.94 250.91"/></svg>