<svg id="ad604b0f-70cf-4be6-9c31-bdf5d292fefe" data-name="Layer 1" xmlns="http://www.w3.org/2000/svg" viewBox="0 0 310 310"><defs><style>.bf96f062-3247-4f99-82ac-a11d3ffafc33{fill:#f2e5d2;stroke:#8b0e3a;stroke-miterlimit:10;stroke-width:5px;}.bfed1b28-6e76-4f79-8347-0655970243a9{fill:#8b0e3a;}</style></defs><circle class="bf96f062-3247-4f99-82ac-a11d3ffafc33" cx="155" cy="155" r="150.54"/><path class="bfed1b28-6e76-4f79-8347-0655970243a9" d="M146.29,180v.8l.4.4h.6l.8-.4v-.6l-.4-.41-1.4.21Zm-16.62-1.61h-.8l-.4.4v.6l.2.2h.8l.4-.8-.2-.4Zm-4,9.41-.4.8v.8l1,1h.6l.6-.81,1-.2.2-.6V188l-.6-.8Zm-.8,4v-1.4l-1-.81h-1.8l-.2-.2h-1l-.2.2h-1.41l-.6.81v.6l.6.4h1l1.2,1,.2.8h.6l.2-.2.2.2.6,2,1,1h.8l.4-.4.2-2-.8-.8ZM130.08,160h0l-.21.8.41.4h.6l.2-.2v-.6l-.4-.4Zm15.61-5.81h0l.2-1-.8-.8h-.6l-.2.2v.8l.6.8Zm-.2,10.21v-2.6l.6-1.2.6-.81-.4-.8.2-.6v-1.2l-1-1.4-1,.2.2-.6v-.8l-1-.8v-.6l-.4-.4h-1.8l-.2.2h-3.41l-.8.6h-.8l-.6.8v.4l.4.4.4.2-.2.2v.8l.4.4h.8l.4.4.2,2h1.2l.6.4-.6.81v.6l.2.2h.61l.2-.2.2.2-.61,1.2v.6l-.6.8v.8l.2.6,1.61.4.2-.2h1l.2-.2h2.2Zm-11,15.41-.2,1.21.4.4h1.4l.2-1.61-1.2-.2Zm-3-24.82-2.21.2-.6-.2-.4.4.2,1.2-1,.8v.2l1.2.4v.6l-.4.4.8.8.6.21.2-.21h.61l.6-.4v-1.2l-.6-.8v-.6l.6-.4Zm-8.81,52.45h-1.6l-1-1-.21-.6.21-.4,2-.8-.4-.8h-.6l.6-.6v-.8l-.6-.4-.2.4h-1.81l-.6,1.4.2.2v.6l-1,1.2v.6l.6.2.6-.2.4.4.2.8-.2.2v.6l-.4.4-.6-.2-.8.2-.6,1.21-.2-.41h-.6l-.2,1.61.6.2.2.6h.6l.2-.2h.6l1-.8h.2l.2-.6.81-.61h.8l.6.81h.2l.2-.81,1-.8v-.6l.4-.2Zm-6.41-7,.6-.61-.4-.8-.2.2h-.8l-.6-.6h-.8l-.6-.8h-.6l-.6.6h-.6l-.6-.8h-.8l-.2.4-1.41-1.2-.8.2-.4-.8,1.4-.8V195l1.21-1.4.2-.4h1.4l.6-.6h.6l.6-.6.6-.2v-.6l-1.4-1.41-.2-.8-.6-.8h-.6l-.2-.4h-.6l-.2.6-.61-.8h-1.2l-.2.2-.4-.2.2-.4.6-.4.2-.8.4-.4h.6l.41-.4,1.4-.2,1,.8h.6l.4.4v.2l.8.4h3l.4-.8v-1.2l-1.2.2.6-.6v-1.2l.6-.2v-.6l-.2-.4v-1.8l-1.2-.41v-.6l.2-.4v-1.2l-.2-.2.4-.4.2.6.8-.6h.6l.2-1.4-.4-.8h-.6l-1,1.2-1.8-.4.2-.8h1.4l.4-.4-.4-.8-1.6-.4.6-.8v-.6l.4-.4h2.8l1.41-.8.8,1.2h1l.4-.4v-.8l-.2-.2v-1.81l-1-1.6.2-1h1l.6-.2.6,1.4-.2.2.8,1.4.6.2.2.4.6-.6,1.6-.2.2-.6.6.2.4-.2v-.6l-.6-.6.2-.4v-.8l.6-.6-.2-.8-.4-.2v-.8l.8-.8-.6-1-.2-1.2-.6-.81h-.2l-.6-1-1-.2-.2-.4h-.8l-.4,2.21-.6.2-.4.6-.4.8-1.6.6-.8,1.4h-.81l-.6.8-.4.6-.8.2-.2.6h-.4l.8-1.8-.4-.8-1.2-.2-1.4,1.4h-.6l-1,.8v.6l-.6.8h-.8l-.8.8h-.8l-.2.6-.41.6-.2-.4-.6.2v1.4l-.4.81h-.2l-.4.4v.8l-.4.4h-1.4l-.2.4h-1l-2,2v2l-.4.4-.2-.4-.8-.4h-1.4l-.21.2h-2.4l-.6.6h-1.6l-1,1.2-1.8.8-.8.4-1.2.81H88l-.2.8-.6.2-.2.6v1l-.6-.2-.6.2-.4-.4v-.6l-.8-.8-.2-1.21-.4-.4h-.2l-.8-.6H80l-.81.2-1-.6h-.6l-.8,1-.2-.4H76l-.6-.8-.4.6-.6.8v.81l-.6,1.4-.6.8H73l-1.2,1.6v.8l.6.8-.2.4h-.8l-.2-.8-.6-.4-.6.6-1.41.6-2,.2L65,189l-.4.4H64l-.2-.2h-1.4l-.8.6H61l-.6,1v.6l.4.4,2.4-.2.4.4-.2,1v.8l-.8,1.2h-.8l-1.2,1v1.8l.2.2v1.4l-.4.4H59.8l-1.4-1.2h-.8l-.4.8v.61l-.8,1.2.2.6-.2,2.4,1.4,1.4-.2.8-.4.6v1.2l.2.6.6.8h.6l.6.41-.6,1.4-.6.6.4,1,1-.6,1.41.2.6-.4-.4-.8,1.4-1H63l.8-.61.6.81h.8l.6-.81v-.4l1-.4v-.2l1.2-1,1.4-.2-.2-1.2.4-.2,1-1v-.4l1-1h.6l.2.2h1l.2-.8.4.4,1.4.2-.2.6.2,1.4.4.4h.6l.6.8.8.2,1.6,1.4h.81l1.2-1.4.8.6,1,.8,1-.6H85l1.2-1v-1.4l-.6-1-2.8.4-.4-.4.6-.4,1-1,.2-.4h2.2l1-.6,1.2-.6h.6l2.41-1.4h.6l.6-.61h1.6l.6.61h.8l.2-.2,2-1.21h.6l1.61-1.2,2.8.2V199l-.8.8v.81l-.2.2.4.8h.2l.6.8v.4l.6.2v.6l-.8.8-.2.8.4.4h.8l.2.4.6.8h.6l.6-.8h1.4l.6-1h1l.2.8.6.4.41-.6.2-.4h1l.4-.4v-.6l.6-.4h.8l.2-.8,1-1,1.4-.2.4-.8ZM84.43,218.06h-.6l-.2.2v.6l.6.8.6-.4v-.6l-.4-.2Zm6.21-48v-.61l.8-.6v-1.2l-.4-.2L88.83,170l-.4-.41V169l-.6-.4-2,1.81-1,.4v2l.2.2v.6l.2.6.6.6v.4l.6.6V177l.6.6-.2.6.2,1h.8l1-.8-.6-1.2.6-.6v-1.2l.4-.8.4-.2V172l.2-.2v-1.4l.41-.2Zm15.81,41.44-.6-1h-1.4l-1.2,2v1.4l.6.4h.6l.8.8h.8l.2-.2,1-.2.2-1.8-1.2-.2v-1.2Zm18.42-32.84V178l-.4-.4h-1l-.6.6h-.8l-.8.4.6.8.2,1.81.4.8h.6l.2.2h1l1-.8v-1.2l-.2-.61h-1l-.2.2-.4-.2.6-.8Zm-26-13,.2-.8-.4-.4-.8-.2-.4.4v1.2l.4.4H98Zm6.81-12,.4-.4-.4-.4h-.2l-.2.2v.6l.2.2h.2Zm-2,8-1,.8-.2,1.4.6.2.6-.8Zm-24.23,15-.2-1.6h-.8l-.2.8.6.6.2.4ZM149.09,180v-.41l-.2-.2h-.6l-.2.2v.81l.2.2Zm5.41-11.62.8-.2,1.4,1.81h.6l.6-1v-.6l.8-.6v-.6l-.4-.4-.8.6h-.8l-.6-.2-.6-.8h-.8l-.6,1-1.4.2-.2.8.4.8h1Zm41.24,31.43-1.6.21.8.8h.6l.4-.4Zm4,22-.2-.2.61-1.2-.61-.81v-.6l-.4-.6h-.6l-1-1.2-1,.8-.4.8h-.8l-1.4,1-1.4,2.41v1.2l.4.4.2-.4.2.2.2,1,1.2.4v.4l-.6.6.2,1,.8-.2,1.2-1v-.8l1-1,.4.2.2.4h2.41l.2-1-.4-.6Zm-6.4-3.81,1.2-1v-2.4l-.4-.4-3.6.4-.61.4v.6l.21.4v1.8l.4,1,.6-.4.2-.8,1.2.6Zm-5.21,1h-.4v.6l.2.2h.2l.2-.2-.2-.6Zm6.41-17.81-.2.4.2.2h1l.2-.4-.2-.2Zm-2,23-.2.2h-.2l-.2.2v.2l.2.2h.8l.2-.2v-.6l-.2-.2Zm-30.23-17.42h-1.4l-.2.2-.4-.4-.2-.8h-.61l-.4.8h-.6l-.8.8h-1l-.6-.2-.2.2h-1l-.2.4h-.6l-1,.6-.4,1-1-1.4.2-.8h.2l.6-.8.2-.4h.6l1.6-.8.2-.6h-.2v-1.2l-.6-.8-1.2.6-.6.8-.8-.6-.4-.8v-1.4l-.4-.4h-.6l-.2-.4-.81-.61.2-.4v-.6l.61-.6v-1.4l-.41-.4h-.6l-.2-.6h-.6l-.6,1.2-1.4.2-.8.6h-.6l-.4.4v.8l1,.8.6.21-.6.6v.6l.8.6-1.2.2-1,.8-.2.6v1.2l.2.2.2-.4h1.6l.2-.2,1.6-.2,1.2.6.4.4v1.8l.2.2-.6,1.2.8,1.2-.2.2v2l-.2.2v1.8l-1,1-.8.2-.4.4.2,1.8,1.2,1h1.41l.2-.2.8.6h.8l.6-.8h.6l.6-.6,1.4,1.8h.6l-.2-2-.8-1.4v-1.2h.6l.6,1,1.2.6.6.8,1.2.4.2.6h.6l.2-.8-.8-.8v-.6l-1.2-1.4-.2-1.4-.4-.4-.6-.2.2-.4h.6l.8-.6.2.2.6-.2.2-1.21.81-.6.2-.4h.2l.8.8h.8l.8-1.2.4-.2-.2-1Zm33,1.8h0l-.2.4.4.4h.2l.2-.2v-.6l-.2-.2ZM156.7,195.24v-.4l-.2-.2h-.6l-.2.4-.4.2v.4l.2.2h.8Zm5.61-.8h-.8l-.2.2h-.8l-1.21-.6h-.6l-1.2,1,.4.4h.2l.4.4.4.8.6.2h.81l.2.8.4.4.6.2h1.4l.2-1-.2-.4v-2.4Zm-7.41,7.81v-.8l-.2-.2h-.2l-.6.8v.4l.2.2.8-.4Zm28.23,5.6-.4.4.4.4h.6l.2-.2v-.6l-.2-.2ZM163.31,199h0l-1-.2-.2.4.6.6v.41l.4.4h.2l.2-1-.2-.2Zm9.41,3v.4l.2.2h.2l.4-.4-.4-.8Zm-1.8-4-.2-.4h-.6l-.41.4,1,1.4h.8l1-.8-.4-.8h-1.2Zm.2,6.41-.2-.4h-.2l-.2.2v1.2l.4.4h.2l.2-.4h.6l.2-.8-.4-.4Zm19.42,3.8h2l.2-.2.2.4h1.2l.2-.2.2.2h.8l.2-.2.4-.2-.2-.4h-.2l-.8-.8-1-.2.2-.2-.2-.4v-2.4l-1.2-1.8v-.8h1.6l-1-1.41-.6-.2.6-.6v-1.2l-.8-.8v-.6l-.6-.6v-.4l-.6-.2v-.4l.6-.2.4-.4.2-.8.2.4h.6l.4-.4.2-1.8.2-.2-.2-.6v-1.21l.2-.2v-.6l-.6-1h-1l-.6.6h-.2l-.8-2h-.2l-1,.8h-.6l-.2-.4.6-.4v-2.4l-.6-.2-.8-.6.4-.2.4-.8-1.6-2h-.6l-.2.6h-.8l-.4,1.6-.8-.2-1.2-1.4V180l-.4-.81h-3l-.4-1.4-.4-.4-.6-.2h-.8l-.4-.2-.2.2h-1.6l-.2.4h-1l-1.4,1.8h-.2l.2.4-1,.81h-.8l-.6-.2-1,.6-.2-.2-.4.2h-.6l-.2.2h-2.2l-.2.2h-1l-.8-.8-1.6-.6-1.6-1h-.81l-.2-.4h-3.4l-.4.4-2.4.4-.8.81-.6.4h-1l-2,.8-.6,1v1.8l.4.4h.2l1.81,1.6.6,1.2v.6l.6.8h.6l.2-.6.4.8.2.6-.2,2,.2.6,1,.8.2.4,1.2-.6.8.6h.6l.2.4h3.61l.2.4h1.4l.6.6h.8l.2.2-.2.4v.6l.6.2v.4l-.6.4-.2.4,1.4.8-.2.2v.6l.4.4h.2l1,.81h.6l.4-.81.2-2.4.2-.6.6-.2.6-1.4h2.21l.2.4-.2.2v1.2l.6.8h.2l.6.6.8-.6h.8l.4.4.2.6v.8l-.6.6v.61l.2.2-.4.8-.8.2.2.8,2,.8.2.8-.6.2-1,1v.6l.2.4.2,1,1.2-.2,1-.8h.8l.2-1,1-.8h.6l.4.4.2.6v.8l-.6.2-.2.6v2l-.2.2v.81l.2.2v1.2l.4.8h2l.2-.2h1.4l.4-.4v-1.2l-.2-.4-.2-.61-.6-.6v-.6l-.6-.6,1.6-1.4-.2-.2-.4-1-1-.6-1-1v-.8l1.4-1.4.2-.4h.6l.8-1.21.8.81h.8l.4-.4-.2-.61v-1.2l-.8-1.2-1-.4-.2-2,.2-.2.4.4v.6l.4.8,1.2-.4,1,.8.2-.2.2.2-.2,1.2.6,1.2v.6l.2.2v2l-.2.4.2.4v.6l.6.2v.6l1,.2.4.4.21,1.4-.81,1,.4,1h.61ZM209,98.94h0l.2-.4-.2-.2h-.6l-.2.2v.4l.2.2Zm-2.2-.8-.4.4v.2l.2.2.4-.4-.2-.4Zm2.8,5h0l-.2.4.2.2h.61l.2-.2v-.4l-.2-.2Zm1.41-2.4.4.6h.6l.8-1.2h.6l1.2-.61.2-.4,1-1.2v-.6l-1.2-.2-.2-1.4-2-1.4h-.6l-.4.8.6.2v1.8l-.6.6v.4L210,99.34l-.2.4-.6-.6h-1.6l-.4-.2-.4.4v.6l.8.61-.4,1,.6.8.6-.4h1l.81-1.2Zm1-11.82h-1.6l-.41.8v.61l.41.4h.6l.6-.2Zm-6.61,10.81h0l-.2.41.2.2h.2l.2-.2v-.21l-.2-.2Zm-.4-7.6h-.6l-.2.2.4.4.4-.6Zm7.81-2.81v-.6l-.2-.2h-.2l-.2.2v.6l.2.2.4-.2ZM206,91.74l.2-.2.2.4h.6l1-.8h.2l.4.4-.8.6.2.4h1.4l.6.2.41-.8v-.8l-.41-.4h-.8l-.8-.81h-.2l-.4-.4v-.8l-.6-.4-.4-.4v-.6l.4-.4h1.4l1,1.2h.61l1.4-1.2,1.4.2.2-.6h.6l.4-.4-.4-.4-.6.2-.2-.4h-2.2l-.2-.2-.2.2h-2l-.2-.2-.2.2-.2-.2H207l-.2-1.2h-1.4l-.2,1.6.4.2.4.8h-1.4v.8l.6.8,1.2.6.4,1-.4.21-.2-.61-1,.2-.4.41v.6l-.6.6.4.4Zm26.63,18.82h0l.2-.81-.6-.4h-.6l-.2.4.6.81Zm7.4,12,.41-.4v-.4l-.2-.2h-.61l-.4.4.4.4ZM203.55,96.34l-.2.4.4.8.2-.2h.6l.4-.4-.6-.4ZM241.79,128h0l.6.2.2-.2v-.2l-.2-.2h-.6l-.2.2Zm.6-.8h0l.2-.8-.2-.2h-.2l-.2.2v.6l.2.2ZM214,93.34h-.2l-.6-.8-.4-1-1-.2-.4,2,.6.8,2.4,1.2.6.6h.8l.2-1.4-.2-.2v-1.4l.6-.6v-.8l-.6-.2-.2-.8H215l-.4.4v1.2l.2.4Zm5.2-3.61h0l.2-.4-.4-.8h-.8l-.2.4.4.8ZM227,104.35v.6l.4.4.2-.4h.8l.2-1.4,1-1.2v-.2l-.6-.2-.2-.4-1.4.2-.4.4v.6l-.6.2v.6Zm-.4,6.81.4.4v.8l.2.2v1.2h.8l-.6.8v.8l.2.6,1,.2,1-1V114l.81-.6v-.6l.2-.4-.2-.8-.41-.2-.6-.4v-.6l.6-.61v-.6l-.4-.2H229l-.6-.6-1,.2-.8,1.2-.6.41.4.8h.2ZM197.34,89.93v.41l.4.4h.2l.2-.2v-.61l-.2-.2-.6.2Zm5,2.81h0l-.2-.4v-.4l-.2-.2h-.2l-.2.2v.6l.2.2ZM71.42,157.6l.4.4h.6l.4-.8v-.6l-.2-.2H72l-.6.8ZM56,204.85h-.8l-.2.8.4.2.2.4h.6l.4-.4v-.6ZM72.22,159.6l.6.61v.6l.8.2V159.2h-1.2Zm-1.8-11L70,151l1,.2.4-.8-.2-1.21.6-1.2-.2-.8-.6-.4H69.41l-.4,1,1,.2Zm9.4,73.48-.4.4.2,1.2-.6.2-.6.6-.2-.2h-.8l-1,.6-.2,1.4.6.8h.6l.2.2.8-.8h1l.2.2.61-.6.6.2.6-.8v-.6l-.8-.8.4-.4h.8l.2-.8-1-.8Zm-1.2-1.2v-.4l-.4-.4h-.6l-.2.2v.2l.4.4ZM82,217.06h-1.4l-.6-.4-.81-1.2h-.8l-.4.8v.8l.2.4-.2,1.2.4.4H79l.4-.4.2-.8h.61l.4.4v.8l1.2.4.2-.8,1-.2v-.8l-.8-.2Zm-5.41,5,1-.8-.6-.8-1,.4-.4.4.6.8ZM189.53,86.13h.2l.2-.2v-.4l-.2-.2h-.2l-.2.2.2.6Zm10.21,5.61h-.2l-.2.2v.4l.2.2h.2l.2-.2-.2-.6Zm-.8-1v.2l.4.4.4-.4v-.2l-.2-.2-.6.2Zm2.21,1.6.2-.4-.6-.8h-.2l-.2.2v.8l.2.2Zm-1.81-6.41v-.2l-1-1h-.2l-.2-.4-.2.8,1,1ZM83.83,226.67l-.2.4h-.2l-.2.2v.6l.2.2h.8l.2-.2v-.8l-.2-.2ZM196.34,85.93h0l.2-.8-.2-.2h-.8l-.2.2v.6l.2.2Zm.6,3.6h.2l.2-.4h.2l.2-.2-.2-.4v-.4l-.2-.2h-.2l-.4.4.2,1.2Zm-2-2.2h0l.2.6h.6l.4-.4v-.2l-.4-.2-.2.4Zm19.82,86.89h0l-.2.8.2.2h.2l.2-.2h.2l.2-.2v-.4l-.2-.2Zm16.82-2.8v-2L231,168l-1.21-.6H229l-.4.4v1.4l1.81,3.41.8-.2v-1.2Zm-1,15h-.2l-.2.2v.4l.2.2h.2l.2-.2-.2-.6ZM232,158.8h0l-.4-.2-.2.2v.2l-.2.2.2.2h.2l.4-.4Zm-.6,28v.6l.2.2h.2l.2-.2v-.2l-.6-.4Zm-3-22.42,1.2.2.61.6.4-.2.2-1.2-.2-.6.6-.8v-.6l-.6-.8h-.81l-.6.2-1,1,.2,1.2-.2.4Zm5.81-10.61h0l-.2.4.4.4h.2l.2-.2v-.6l-.2-.2Zm4.4-2h0l-.2,1,.2.2h.6l.2-.2v-.6l-.4-.4Zm-6.2,18.62h-.2l-.2.2v.6l.2.2h.2l.2-.2-.2-.8Zm1.6-6-1.4-1.2h-.8l-.2.8,1,1.4,2-.2v-.4l-.4-.4Zm-2-1.6v-.4l-.2-.2h-.2l-.2.2v.2l.2.2Zm-3.21-3.21-.4-.6.2-.6-.2-.6.2-1h.6l.6.8h.81l.6-.4-.6-1-.4-.2.2-.2h.8l.6.6h.6l.2-.2.6-.2v-.6l.2-.2-.2-.6.4-.2.2-.4-.4-.2-.8-1.2-.6-.2h-.8l-.8-.8h-2.21l-.6-.2-.4-1v-.81l-.4-.6h-.6l-.6.6-.4-.2h-.8l-.2.6-.6-.6h-1.4l-.6.4-.2-.2h-.6l-.2.61-.2-.2-.2.8.2.4-.61.2-1,.8v1.2l.4.4h.2l.81.8h.6l1.4,1.4-1,.2v.4l1.2,1.6h.8l.8-1.2h.6l.2-.8.4-.4h.6l.4,1,.6.6-.4.4h-.6l-.2.4,1,2.61V162l1.2.2,1-2ZM223.17,149v-.2l-.2-.2h-.2l-.4.4.2.2.6-.2Zm2.2,11.22h0l.4.2.2-.2V160l-.4-.41-.2.2Zm.2-3.81h0l-.6.2.2.2h.2l.2-.2Zm6,9.41v-.4l-.2-.2h-.8l-.2.2v.6l.2.2h.6ZM233,161v.4l.2.2h.6l.2-.2v-.2l-.4-.4Zm-2.8,5.8h0l.2.6h.2l.2-.2V167l-.2-.2Zm13-33.63-.6-.2-.2-.8-1.4-.6-.4-.4v-1.41l-.2-.2V129l.8-.6.6-1.4-.4-.4h-.8l-.2.2-.81-1.2h-.4l-.2-.2-.2-1h-.2l-.8.8-1.6.4-.6.6h-1l-1-.8-1.2.4-.2.6-.6-.2V125l-.2-.2v-.6l-.6-1.2.4-.4.6-.2V120l-.6-.4-.8-1.2-.61-.2-1.2.2v1.81l.2.2v.6h-1.4l-.8.6-.2-.2-.6.2v.8l.2.6.4.8.4.2v.8l-.4.2.2.2-.2.2v1.8l-.2.2v.6l.2.2-.2.4v.6l.6.8v.21l-.6.4.2.2-.2.4h-.6l-.2-.4-.6.2-.6-.4.4-.81.6-.2V129h-.4v-1.2l-.6-.8v-1.2l-.4-.4h-.6l-1,1v1.4l-.4.4-.2-.2-.6.2.6.8-1.61.4-.2-.4.81-.6V127l-.2-.6-.81-.8.4-.4h1.61l.6-.8V123l-.4-.4-.6-.4.2-.4-.6-2,.6-.8v-1.4l.4-.2.8.6h.8l.6-.4v-1.2l-.8-1.8V113l-.2-.4-.2-1.2-.4-.4-.4.2v.2l-.8,1v1.2l.2.4-.2.2v1.2l-.6.6.2.2-.4.4-.61.4-1.2-.4-1,.8-.2-.2.6-1.2.2-1.4.6-.2.2-.4-.6-1h-.6l-.2.6h-.8l-.2-.4-.4-.2.2-.6L216,111l-.8-.2v.8l-.4.4h-1l-1.4,1.8h-.6l-1.81,1.6-.2,1.6-.6.2.2.4v1.8l-.6.81-.6-1-.2.4h-1l-.2-.6H206l-.2,2.61-.2.2-.6-.8v-.2l-.6-.4h-.6l-2,2-.2.6h-.2l-.4.4.2,1h.2l.6-.6.2.2h.6l.2.4-.6.6v.6l.8,1.4v1.2l.6.8,1,.2v.2L203,131l-.8.2-1.8,1.8-.2,2.6-.41-1-1.6-1.8v-.2l.8-.6v-3l-.2-.2v-.6l-.6-.8h-1.6l-.8.6h-1l-.2.2-.6-.8h-.8l-.6.6h-1.4l-.6.6-.2-.8.6-.2.4-.4-.2-.4h-1l-1-.6-.6.2h-.8v.6l.6.8-1,1.2h-.6l-.6,2.61-1,.6-.2.8-.8.6.6.8-1.2.8-.2,1.2-.6.2v.8l-.4.4h-.8l-.4,1-1,.2-.21.6-.4.2-1,2.61.2.2.6,1.2-.8,1.4-.2.8-1.6-.2-.4-.4-.2-.8h-.6l-.2.4h-.6l-.4.8-1.2,1-.4-.2,1-1.2.2-1.8.8-1.4,1.6-1.8.2-.81,1.8-2h.2l1-.8-.2-.6v-1.4l.6-.2.21-.6v-2l-1-1.2v-.6l-.6-.21h-1.6l-.2-.4-.6-.2V127l-.6-.8h-.6l-.8-.8h-1.4l-.2.4-.6-.2-1-.8-1.21-.2-.6-.8.2-.2-.4-.4h-2l-1.4-1.2h-.6l-.2-1,.4-1,.6.21.2-.61,1.4.2.2-.4h.6l.2.4h.6l.2-1.4,1-.2,1.4-1.2,2,.6.2.2h.6l.6.8h.8l.6-.6h.8l.6.6.6.2.6-.2.2.2h.6l.41.4-.61,1.41-.6.6.4.4h.6l.21-.2.6.8h.4l.6-.8.6.2.6-.2.2-.4-.4-.4-1.4.4-.6-1.61-.4-.4h-.61l-1-.8.6-3.2.81-.6.2-.4h.2l.6.8.4,1,.6-.2h1l.8-.8,2-.6.2.4-.2.6.6.8,1-.8.2-1.2.8-.8.2-.8,1-1.2v-.6l.2-.4v-1.81l-.6-.8v-.8l-.2-.2.2-.8.6,1,.21.8,1.4.6.6.6h.8l.2.2h.6l1.2.6h.8l.2,1.21h.6l.6-.81v-.8l.6-.8h.6l.2-.2.2.2h.8l1.61-.8,1.6.2-.4.8-.4.2.4,1.61h.6l.8-1.41.6.4-.2.81-.6.6v.6l-1.4.8-.2.8h-1.6l-.61,1,.2-1h-1l-.6-.2-.6.8h-1.4l-.6,1-.4.2v.6l-.6.8.4.4h.6l.2-.4.4.2-2,2.6-.6-.2.2-.2-.4-.4h-.8l-1.8,2v.8h-.2l.2.8h.6l.2-.8.6-.4h2l.8-.61h.2l.6-.8.2-.8,1.6-1.6,1.4-.8,1-.2v-.6l-1,.4h-1V115l.8.2,1-.8h2l.2-.2h.6l.8-.6h.6l.6-.6.6.2.6-.6.8-.2.6-.8.2.2.2-.2,1.6-.2,1.61-1.2.4-.41v-.6l-.6-.2.4-.4h.6l.6-.6.2.8,1.6-1.4h.2l2.4-3.2h.6l.8-.8h.6l1.41-1V101l-.61-.8-1.6.8-1,1.2h-.8l-.4.2H215l-.2.4h-1l-.2.4h-1l-.6.2-.2.2h-.6l-.6.8-.61.2-1.6-1.4-.6.2-.2-.4-.2-1h-.8l-.2-1.2-1.4.2v.4l.6.6h-.4l-1-.4.2-.2-.2-.4h-1.4v-.2l1-.2-1-.81-.2.2h-1.4v.41l-.8.2-.41.4h-.6l.81-.6v-.81l-.61-.2v-.8l.61-.2.8,1.2h.6l.2-1,.4-.8.4-.2v-.6l1.6-1.4-.4-.8h-.6l-1.6,1.6-.2-.8.8-1.2-.2-.8-.6.2h-.8l-.61-.8-.2,1.4-1.2.2-.2-.2h-1l-.2.2-1-.2.6-1v-.6l1.6-1.2-.6-.6-1.2-.4v-.61l-.4-.8-.2.4h-.6l-.6.61-.4-.21.6-.8-.2-1.8.6-.2.4-.4-.2-.4h-1l-.2-.2h-.6l-.2.8h-.6l-.2-.4-.2.2-.6.2-.2.4h-.2l-.2-.8-.4-.4-1.41.2-.6.8v.6l-.8,1.4v.6l-.2.2v.81l-.8,1-1,.2-1-.4-.4.8v.6l-1,.4-.6-.6h-.6l-.6,1v.6l-.4.4h-.4v-.8l-.8.6h-1.21l-.2.4-.2-.2.2-.6v-.8l-.2-.4v-2l.2-.2.4.4v.4l1,.2.6-.8.2-1.41,1.6-1.6.4.2-.6.6.2.4h1l.6-.6-.2-.2v-.4h0v-.4h0v-.6h.4l-.2-.2-.2-.2-.2-.2v-.2h-1.2v-.6h0v-.2h-.2l-.2-.4h0v-.6l-.2-.2-.2-.2h-.2v.2h-1.4l-.41-.2-.2-.2h-.4l-.2.2h-.2l-.2-.2h-2.2l-.2-.2v-.2h0v-.2h-1.6v.2h0v.4l-.4.2h-2.4l-.2.2v.2h-2v.2h0l-.2.2-.2-.2-.6-.4h-.2v-1h0v-.6l-.4.4-.2-.2h-.8v.2h-1.2l-.2-.2v-.2h-1.2v.6h-.8v-.6l-.2-.4-.2-.2-.2.2h-.4l-.2.2v.2l-.2.4-.2.2v1.2l-.2.2v.4l-.2.2h-1.4l-.2.2v1.2h-.41l-.2.2v.8h0v.2h.4v-.4h.41l.2.2v.4h-.61l-.2.2v.2l-.6-.2h0l-.2.2h0v.4h0l.2.2-.2.2h-.4l-.2.2h-.4l-.2.2h-.2v-.4h-1v-.2h-.8l-.2-.2h-1l.2.2h-.2l-.2.2h0l-.2-.2h-.4v-.2h-.2l-.2.2h-.4l-.2-.2h-.4v.6l-.4.4h-.2l-.2-.2v-.2h.2v-.2l-.2-.2-.2.2v.4l-.2.2h-1l-.21.2-.2.21v1l.2.2v.2h-.2l-.2-.2h-.2l-.2.2v.2h0v.2h-.6l-.4-.2h-.4l-.2.2v1l-.2.2h-.2l-.4.2h-.2l-.4-.2-.2-.2-.2-.2.4.2v-1.8l-.2-.2h-.2l-.2.2v.4l-.2.2h-1l-.2.2v.8h-.4v-1h0v-.4h-2.8l-.2-.2-.2-.2h0v-.2l.6.4-.2-.2h-2l.2.2-.2.2-.2.2-.2.2v.6h0l-.2.2v.6h-.8l-.4-.2h-.6l-.4.2h-.2l-.2.2-.2.2v.6l.2.2.2.2.2.2h0l.4.2h.2l.2.2.2.2h.2l.2.2.2.2h0v.6l-.2.2v.4l-.4.6v.2l-.8.8-1.2.4-1.2-1h-1.4l-1,.4-.8.8h-.2l-.61,1-.2,1.4-1,1-.6.4-1,.2-1.4-.4h-2.8l-1.6,1.6-.8.2-1.21,1.4-.2,1.2.2.4.2,1.8.61.6v.81l-.41.2v1.2l.2.4-.2.2-.2,1.6-.4-2.2-.6-.8h-.6l-1,.8-2,.8-.6.6h-1.2l-.2-1.6.2-.2v-1.4l1.4-1.81-.4-.8h-.8l-.2.4h-1.6l-.4-.4h-.8l-.2.6h-.81l-1,.8-.8,2-1,1.8h-.2l-1.2,1.2h-.2l-1.4,1.6v.2l-1.4,2-.2,1.2-1.2,1.41-4.41,2H95l-.6.8v.2l-2.4,2.6-.6,2.6-1.2,1H90l-1,1-.2,1.4-1.6.8h-1.4l-.2.4H84l-.2.4-.8-.4H82l-.2.2h-.6l-1,1v.6l-.61,1-.6.4H78l-.6.8v.8l1,.8h1.4l1.61,1.41.2.6-.6.2v1.2l.6,1h.2l.6.8v.6l.2.4v2l-.6.6v.8l1.4,1.4.2.41,1,.6H87l.2.4,1.4.2,1,.8h.61l.6.2.6-.2.6-.8,2-.8.6-.6,1.6-.21v-.6l1.4-1.4v-1.4l.6-.6v-.2l1-1,.4-.2v-.8l-.2-.2.2-1,.2.2,2,.2v.6l.8.8v1.2l-.2.4-.2.6v1.2l.2.2v.6l.6.8h.6l1.4,1.21h1.4l.6.4-.4.8h-.2l-.4.4.4.8,1.4.4.2-.2.6.6h.8l.2.2.41-.4.2-.6h.8l1-.8h.6l.4.4.2.8,1-.6,1.2.4v.8l.6,1.4h1.6l.2.4h1.6l.2-.4h1l.8-.6h.6l2-1.2h1.6l.2-.2h.6l2.2-1.8h.6l1.61.8.2.4,1.6-.2.6-1,.6-.2h1.6l.2-.6,1.6,1h.8l.2-.2h1.6l.21-.4,2-.2,1-1.21,2,.21,1.2,1.6V153l1.4,1.8v.8l.2.6-.2.8.2.6.4.4h.6l.6-1,.61-.4.2-.8h.6l.2.8-.4.4v1.2h-.2l-.4-.8-.41.8.61,1.4,1.4.41,2,2.4h.8l.8-1.4.2.8-.6,1.2.6.4h.6l.2.4h2.4l.6-.4.6.6h.21l2.6,2.6-.2.4v1.8l.4.8.2-.2h1l.4.81v1.4l.2.6-.8.6v.6l.2.4,1,4.6h2.4l.8-1.2h.2l.2-.6h.6l.6-.4V175l.41-.8,2.2,1.2.4-.4v-.8l.2-.2v-1.2l-.4-.4-.6-.2v-.8l.4-.2,1-1v-.61l.6-.4,2,2h.2l3.81,3.8.6-1-1.21-1.6h-.8l-.6-.8h-.2l-4-4,.4-.2,1,1.2.4-.8V167l-.2-.2.2-.4h2.2l1,.8-.2,2-.6-.4V168l-.4-.2.4-.8-.8.8v.6l1,1h.2l.8.81,1.21-.61.2.61h.2l1.8,2,.2.4h.2l1,1,1.2,2.2.6-.4,1.2.2v.2l-.8.6.2.6v.4l.6.2.2.4.6.2.2,1.4.6.2h.8l.2.21.61-.41v-.2l3.2-3.8.2-.6v-.8l-.6-1.2h-.2l.4-.2.6-.8.2-.8.6-.6-.2-3.21-1-1h-.2l-.6.6-.2-.8.4-.4h1.6l.6.2.2.8.6,1v.6l.6.8h.8l.2-.8.4-.4.2.4.6.2-.6.4-.2.8h-.6l-.2.41V172l.6.2v.2l.6.2.2.6v.8l.2.6.6.8.6.2v.6l.21.2v.8l.2.4-.2,2,.4.81h.8l.2.8.2.2-1.2,1.6.2,3.2.4.8h.8l.2-.6.4-.2.2-1,.2.4,2,.2.2.8.4.4h.8l.6.2.8,2h.6l.4-.4v-1.4l.4-.2.8.6.81-.4.2-.8-.4-1-1,.6-.4-.2v-1.8l-.2-.2v-.8l.6-.6-.4-.8h-.6l-.6.8-.2.8-1,1-.4-.2.6-1,.2-.2v-.6l-1.8-.2-.2-.2-.4-.2V181l.6-.2v-.6l-.6-.81,1-.8h.6l.2.4,1,.8h2l1-1.2,1.4-.6.4-.4v-1.4l.6-.2-.8-1.2v-.6l-1.6-1.8v-.6l-.81-.8h-.6l-.2.4h-1l-1,1v.6h-.4l-.4-.8-.6-.2.6-.2V171l-.2-.2v-.6l-.6-.2-.2-2.81h-.6l-.2.4-1.6-.4-.8.6h-.6l-.2-.6-1-.2-.41-.4v-2l-.8-1.4v-.6l-.8-.4-.6-1.2V159.2l.2-.2v-.8l.6-.8-.4-.4h-.8l-.4-.4V156l-1.2-1h-.2l-.6.8h-1.6l-.2-.4,1.4-.8.2-.8,1-1.2v-1.2l.4-.2.2.4.4-.4.2-1,1.2,1v.6l.2.2-.2.2v.8l-.8,1v1l.6-.4,1,.4.4,1.4,1,1,.6-.4v-.8l.6-.2-.2-.8.2-.4v-1.2l-1.2-.6v-.6l-.81-1.8.6-1.21v-1.8l-1-.6-.6-.2.4-.4h.6l.2-.4,1-1.2v-.6l.6-.6.2-1.2.4-.4.2.2h.6l.2-.4.6-.4h.8l.6,1,1,1.4h1l.6-.8.2.8.6.6.2,1h.6l.4-.4v-.6l.2-.2.81,1.2h.6l.2-.4h.8l.2-.8-.2-.2v-.6l.6-1h.6l.2-.2h.8l1.2-.6.4.2-.2.4-1,.4v.8l.6.2L215,146l.4.2.8-.6.2.4.6.8,2.2,1.2,1-.6.2.4,1,.8h.8l.2-.6.6.2.4-.4-.8-1.8-.6-.2.2-1,.8.6h.6l.2.8,1,.2v.8l1.2,1h.6l.2.2h1.4l.2-.8.4.8-.2.4v.8l1,1,1.61.2.6.6h.6l.6.8h.8l.2.2h1.4l.4-.4v-.6l-.6-.8-1.2-.81V149h-.8l.6-.8.6.6h.6l.6-.6.4.4v.8l.8,1.81.4.4h.8l.6-.8V150l-.4-.8-.4-.2-.6-1.2,1.4-.2-.2-3.2-.2-.2v-.8l-.4-.2-.6-.6h-.6l-.4.6-.2-.6-.8-.4v-1l-1.2-1.41h-.8l-.8,1.41-.4-.2.2-.2V140l-.8-.6,1-.2,1-.8V136l.6-.4.2.6h.2l.4-.4-.4-.8.2-1.2.4-.4h1l.8-1.2h.6l.2.4H239l.6,1.6.4.4h.21l.8.8.2-.4h.6l.6.2.6-.8.2-.2Zm-16.42,32.23-.8,1.2-.6-.6h-.6l-.6,1.4v.6l-.6.6v.6l.2.2V170l.4.4h.2l.4-.4.2-.81.6.2,1-.8v-.8l-.2-.2,1-1,.2-.6-.2-.4Zm-44.24-39h0l.8-.6-.2-1-.6,1Zm2-4.6h.8l.6-1,.6-.4v-.61l.6-.6v-.4l-.6-.4h-1l-.2.6-.8.6v.81l-1,.8v.6l1,.2Zm-3-2.61-.2-.2h-.4v.4l.4.4h.8l.2-.2-.2-.4Zm1.4-1,.4-.4V117l-.2-.2h-.2l-.6.4v.8l.2.2Zm67.67-2.8v.6l-.2.4.2.2h.6l.2-.2v-.6l-.8-.4Zm-50.86,12.81v-.6l-.2-.2h-.2l-.4.4v.2l.2.2ZM253.4,88.53l-.8-.8H252l-.4-.4.2-2.6-1.4.2-.41.4-.2,1.6.2.4v1.4l.41.4h.8l1,.8h.6l.2.21h1.4l.6-.81v-.8ZM248,117.36h0l-.2.4.4.4h.2l.2-.2v-.4l-.4-.4Zm-4.2,17.22h0l-.2.8.2.2.4-.4v-.4l-.2-.2ZM184.13,92.14h0l.2.6.2-.2v-.4l-.2-.2h-.2Zm-4.81,2h0l.4.2.2-.2-.4-.4-.2.2Zm40,16.62v.2l.4.4.2-.2v-.6l-.2-.2-.4.4Zm17.42,28.62h.6l.2-.4-.4-.4V138l-.2-.2h-.6l-.2.2.2.4.4,1Zm-17.62-26.22h0l.2-.4-.2-.2H219l-.2.2v.2l.2.2ZM204,118.76h.6l.4-.4v-.2l-.2-.2h-.6l-.2.2v.6ZM199.74,131l.41-.4v-.4l-.21-.21h-.2l-.4.41v.4l.2.2Zm5.41-13.62h.6l.2-.2v-.6l-.2-.2h-.2l-.2.2v.4l-.2.4Zm14-5.2v-.6l-.2-.4-.2-.8-.4.2v1.2l.4.4Zm-15,36.83h0l.2-.8-.2-.2h-.6l-.2.2v.6l.2.2Zm-6.21,34.84.6.2.6-.8h.8l.41-.4v-.6l-.41-.4-2.2-.4-1,1.6v1.2l.4.4h.2Zm4.21-37.64-.2-.4-.2.2v.8l.2.2h.2l.2.4h.2l.4-.4-.6-.8Zm2.8.6-.2-.4h-.2l-.2.2v.2l.4.4h.2l.4-.4H205Zm-1.4-3.4v-.2l-.2-.2h-.2v.4l-.2.2.2.2h.2Zm3.6,6.2h0l-.2.4.2.21h.2l.2-.21v-.4l-.2-.2h-.2Zm-1,5,.8.2-.2,1.2,1.2.2.2-.4-.2-.2v-.8l-.2-.2v-1.4l.6-.6-.2-.2v-.6L207,151v-1.21l.6-.2.2-.4-1-.8h-.2l-.6.8-.6-.2-.2,1.21-.8.6v.6l1.4,1.4Zm3.6.8v1.4l.61,1.2,1,1,1.4.6.6-.8h.2l.6.8h.8l.2.2h1.4l.4-.8-.6-.8.8-.2v-.6l.6-.6-.2-.6.2-.6-.2-1.4-1.2-.2-.8-.6-1-.2.6-.6v-1.8L214,149l.2-.2v-1.2l-.4-.6-.8.8v.6l-.6.6H212l.8-.8.2-1.4h-1l-.2.8-.6.2-.2.8-.4.2-.2.4-1.21,1.21v.8l.6.2.2-.4.21.2v1.2l.6.8-.81.2.21.2v.8Zm-4.8-7h0l.4.2.2-.2v-.2l-.2-.2h-.2l-.2.2Zm-.6,4.81h0l.2-1-.2-.2h-.2l-.2.2v.2l-.2.4.4.4Zm1,60.86h0l-.2.4.4.4.2-.2v-.6l-.2-.2h-.2Zm-.4,0-.6.2-.2.6-1,.4v1.2l.2.4v.6l.4.4h.8l.6-.4v-2.4Zm-3-26.63h0l-.4-.2-.2.2v.4l.2.2h.2l.2-.2Zm-1.4.2-.4.4.2.2h.2l.2.2h.2l.2-.2v-.6l-.2-.2Zm6.6-20.42.6.2h.6l.2-.2.2.4.4-.2.2-1.8-.6-.2-2-1.8-.6.2v2l.8.8Zm.8,23.43-.6-.2-.2-.81-1.4.2-.6.61H205l-.6.8-.2-.2h-1l-1,1v1.4l-.2.4v.6l1.2,1h.6l.6.4-.2.2v.8l1,.2.4-.4.2-1,.6-.2.8.6.4-.2.2-.6v-.8l-.2-.4.8-.6v-1.2l-.6-.2Zm2.21,24v1.6l.4.2.4-.4-.2-1.4Zm-.61,2h0l-.2.8.2.2h.2l.41-.4v-.4l-.21-.2Zm4-33.83H213l-.2.4-.4.2v.6l.4.4.8.2.4-.8v-.6Zm-2-36.44h0l.2-.4-.2-.2h-.2l-.2.2v.4l.2.2Zm3.4,24.83v-.6l.2-.4-.2-.2h-.6l-.2.2v.8l.2.2Zm3.8-8.41-1-.8v-.6l-.6-1h-2.8l-.8.6v.8l.6.6.2,1.2.2.4v.6l.6,1.4.6-.2h.8l.8.6.8-.8h.6l.2-1.4-.2-.4Zm-2.6-12h0l-.2.4.4.4h.6l.2-.2V151l-.4-.4Zm4,11-.81-.2-.2.2V163l.2.2h.81l.2-.2-.2-1.2Zm-7.61,12.81.4-.2v-.8l-.4-.6-.4.2v.8Zm10.61,13.21h0v.6l.4.4.4-.4-.4-.4Zm2.2-3.4h-.2l-.2.2v.6l.2.2h.6l.2-.2-.2-.2-.4-.6Zm-15.21-38-.21.4-.2-.4h-.6l-.2,1.4,1,1,1-1-.2-.2V147Zm14.41,39.24-.8.6v1.2l.6.8.4-.2v-.6l.8-.8-.4-1-.6-.2Zm-.4,5.41-.4-.4-.4.4v.2l.4.4h.6l.2-.2-.2-.2Zm-15.42-41.65h0l-.2.81.2.2.4-.41v-.4l-.2-.2Zm17.42,40.44-.4-1-.4.2-.2,1-.6-.21-.4.41.6,1.6.6-.2.6.2.2-.2-.2-1.2ZM217.36,152l.6.2.2-1.4.2-.2v-1.21l-1.8-1.6h-1l-.4,1.2.6,1h.6l.6-.6.2.2Zm-9-3.81h0l-.2.4.4.4h.6l.2-.2-.8-.8Zm2.41-1.4v.4l.2.2h.2l.2-.2V147l-.2-.2Zm4.4,1.2-.4-.4-.2.2v.6l.2.2Zm-2-5.2H213l-.2.2v.6l.2.2h.2l.2-.2-.2-.8Zm.2,2.4h.6l.4-.4v-.2l.2-.4-.2-.4h-.8l-.2.2v.4h-.2l.2.8Z"/></svg>