<svg id="ba76edb0-7fe9-41fa-b690-c3195e3f13cf" data-name="Layer 1" xmlns="http://www.w3.org/2000/svg" viewBox="0 0 310 310"><defs><style>.ab799144-2ee3-4c92-94d9-fee92c75475f{fill:#f2e5d2;stroke:#8b0e3a;stroke-miterlimit:10;stroke-width:5px;}.ec8b40ec-2f48-4eb2-aef0-c3f635500717{fill:#8b0e3a;}</style></defs><circle class="ab799144-2ee3-4c92-94d9-fee92c75475f" cx="155" cy="155" r="150.54"/><polygon class="ec8b40ec-2f48-4eb2-aef0-c3f635500717" points="68.31 138.45 68.31 133.68 68.31 133.51 55 133.51 55 138.62 68.31 138.62 68.31 138.45"/><path class="ec8b40ec-2f48-4eb2-aef0-c3f635500717" d="M96.14,119.45l-.41.08-.4.11-.39.15-.36.19-.35.23-.32.26-.3.28-.26.32-.23.34-.2.37-.13.32v9.45l.36,1.42,1.53,6,2.39,9.36h2.41l.33-.57h0s0,0,0,0l.17-.24h0a0,0,0,0,0,0,0l.19-.22h0a0,0,0,0,1,0,0l.21-.2s0,0,0,0v0l.23-.19h0l0,0,.24-.16h0a0,0,0,0,0,0,0l.26-.14a0,0,0,0,1,0,0l0,0,.27-.12a0,0,0,0,0,0,0h0l.28-.09h0l.29-.07h0a0,0,0,0,0,0,0l.3,0h0l.29,0h3l0-.3s0,0,0,0,0,0,0-.06l.26-.62,0-.05s0,0,0-.05l.41-.54s0,0,0,0,0,0,0,0l.54-.41s0,0,0,0l0,0,.62-.26s0,0,0,0,0,0,0,0l.67-.09.06,0,0,0,.67.09s0,0,0,0,0,0,0,0l.63.26s0,0,0,0,0,0,.05,0l.54.41s0,0,0,.05l0,0,.41.54s0,0,0,.05l0,.05.26.62s0,0,0,0,0,0,0,.05l0,.3h.51l0-.3s0,0,0,0,0,0,0-.06l.25-.62,0-.05s0,0,0-.05l.41-.54,0,0s0,0,0-.05l.53-.41s0,0,.06,0,0,0,0,0l.62-.26s0,0,.06,0,0,0,0,0l.67-.09,0,0,.06,0,.66.09,0,0s0,0,.06,0l.62.26,0,0s0,0,.06,0l.53.41s0,0,0,0l0,0,.41.54s0,0,0,.05l0,.05.26.62s0,0,0,.06,0,0,0,0l.05.3h.51l0-.3s0,0,0,0,0,0,0-.06l.26-.62,0-.05s0,0,0-.05l.4-.54,0,0s0,0,0-.05l.54-.41s0,0,0,0l0,0,.62-.26s0,0,0,0,0,0,0,0l.67-.09.06,0,0,0,.67.09s0,0,0,0,0,0,0,0l.63.26s0,0,0,0,0,0,0,0l.54.41s0,0,0,.05l0,0,.4.54s0,0,0,.05,0,0,0,.05l.26.62s0,0,0,0,0,0,0,.05l0,.3h.44l0-.3s0,0,0,0,0,0,0-.06l.26-.62,0-.05s0,0,0-.05l.41-.54,0,0s0,0,0-.05l.53-.41s0,0,.06,0l0,0,.62-.26s0,0,.06,0,0,0,0,0l.66-.09.06,0,0,0,.67.09s0,0,0,0,0,0,.06,0l.62.26s0,0,0,0,0,0,.06,0l.53.41s0,0,0,.05l.05,0,.41.54a.11.11,0,0,1,0,.05l.05.05.25.62s0,0,0,.06,0,0,0,0l0,.3h24.88l6-.89v-3.45l0-.2s0,0,0,0,0,0,0,0v-.23s0,0,0,0v0l0-.23s0,0,0,0,0,0,0,0l.07-.22s0,0,0,0,0,0,0,0l.11-.21,0,0s0,0,0,0l.14-.19s0,0,0,0,0,0,0,0l.15-.16,0,0s0,0,0,0l.19-.14h0l0,0,.2-.12h0l0,0,.22-.08h0l0,0,.23-.05h0l0,0,.23,0h0a0,0,0,0,1,0,0H183v-7.73a.43.43,0,0,1,.42-.43h1.33v-2.54l-1.77-8h0l-.1-.45-.13-.41-.17-.41-.2-.38-.25-.36-.28-.34-.31-.3-.34-.28-.35-.23-.39-.22-.4-.14-.37-.11-83.11,2.39ZM174.32,129s0,0,0-.06,0,0,0,0l.2-.73s0,0,0,0,0,0,0-.06l.38-.65s0,0,0,0,0,0,0,0l.54-.53.05,0s0,0,0,0l.66-.38s0,0,.05,0l0,0,.73-.19h.05l.05,0H178l.05,0s0,0,.06,0l.72.19,0,0h.05l.65.38s0,0,0,0,0,0,0,0l.53.53s0,0,0,0,0,0,.05,0l.37.66s0,0,0,0,0,0,0,.05l.19.73s0,0,0,.05,0,0,0,0v.75s0,0,0,.06,0,0,0,.06l-.2.72,0,.05s0,0,0,0l-.38.65s0,0,0,0,0,0,0,.07l-.53.53-.06,0s0,0,0,0l-.65.37-.08,0,0,0-.73.19h-.86l-.11,0-.73-.2s0,0,0,0l-.07,0-.65-.38s0,0,0,0,0,0-.06,0l-.52-.53s0,0,0-.07,0,0,0,0l-.37-.66s0,0,0,0l0-.06-.19-.72s0,0,0-.06,0,0,0-.05Zm-73.39-4s0,0,0,0,0,0,0,0l.12-.51s0,0,0,0,0,0,0,0l.18-.49s0,0,0,0v0l.23-.47h0s0,0,0,0l.29-.44h0a0,0,0,0,1,0,0l.33-.4h0v0l.38-.36h0a0,0,0,0,0,0,0l.42-.31h0l0,0,.45-.26s0,0,0,0l0,0,.48-.2s0,0,0,0l0,0,.5-.15s0,0,0,0h0l.51-.09h0l.52,0h64.31l0,0h0l.45.06h0s0,0,0,0l.44.12h.06l.41.18s0,0,0,0,0,0,0,0l.39.23,0,0h0l.36.27a0,0,0,0,1,0,0h0l.32.32s0,0,0,0l0,0,.27.36a0,0,0,0,0,0,0s0,0,0,0l.22.39v0l0,0,.16.42s0,0,0,0l0,0,.11.43s0,0,0,0,0,0,0,0l.06.45s0,0,0,0,0,0,0,0V125h0l-.42,5.23s0,0,0,0,0,0,0,0l-.06.22s0,0,0,0v0l-.09.21s0,0,0,0v0l-.12.2s0,0,0,0,0,0,0,0l-.14.18,0,0s0,0,0,0l-.16.17h0l0,0-.17.14h0s0,0,0,0l-.2.12h-.05l-.21.09h0a0,0,0,0,1,0,0l-.22.06h-.06l-.24,0H102.89l-.21,0h-.05l-.2-.05h-.06l-.19-.08h-.05l-.19-.1h0l0,0-.17-.12v0h0l-.15-.14a0,0,0,0,1,0,0h0l-.13-.16a0,0,0,0,1,0,0l0,0-.11-.17s0,0,0,0l0,0-.09-.19v0s0,0,0,0l-.06-.2a0,0,0,0,1,0,0l0,0,0-.21v0s0,0,0,0V130h0v-5Z"/><path class="ec8b40ec-2f48-4eb2-aef0-c3f635500717" d="M186.15,132h-2.32v5.85l0,0h0s0,0,0,0l.31-.2h0l0,0,.34-.14h0s0,0,0,0l.36-.07s0,0,0,0h.41l0,0s0,0,0,0l.36.06,0,0h0l.35.12s0,0,0,0h0l.32.19s0,0,0,0,0,0,0,0L188,139l-.74-5.48Z"/><path class="ec8b40ec-2f48-4eb2-aef0-c3f635500717" d="M229.88,130.52l-2.23,3.06h0a.43.43,0,0,1-.32.16H188.16L189,140l7.31,7.51,0,0h0s0,.05,0,.08a.42.42,0,0,1,.09.19l.06,1s0,0,0,.06,0,0,0,.05l-.14.67h18.3l.06,0a.3.3,0,0,1,.14.06.4.4,0,0,1,.12.1s0,0,.06.05l2.39,4.85h19.88s0,0,.06,0a.42.42,0,0,1,.14.06.41.41,0,0,1,.13.1s0,0,0,0l3.9,6.89h0l.87,1.53h10.87l1.67-5.48v-20l-2.19-7.27Z"/><rect class="ec8b40ec-2f48-4eb2-aef0-c3f635500717" x="69.17" y="134.1" width="18.96" height="3.92"/><polygon class="ec8b40ec-2f48-4eb2-aef0-c3f635500717" points="188.29 140.49 186.3 138.44 186.06 138.3 185.79 138.2 185.51 138.15 185.21 138.16 184.93 138.22 184.66 138.33 184.42 138.49 184.22 138.68 184.04 138.92 183.93 139.18 183.85 139.46 183.84 139.67 189.79 150.77 190.43 151.34 191.21 151.72 192.07 151.9 192.95 151.85 193.78 151.57 194.51 151.09 195.09 150.43 195.41 149.81 195.48 149.65 195.66 148.79 195.61 148.01 188.29 140.49"/><polygon class="ec8b40ec-2f48-4eb2-aef0-c3f635500717" points="175.65 130.85 176.1 131.31 176.65 131.63 177.27 131.8 177.91 131.8 178.53 131.64 179.09 131.32 179.54 130.88 179.86 130.32 180.03 129.71 180.04 129.06 179.87 128.45 179.56 127.89 179.11 127.43 178.55 127.11 177.94 126.94 177.29 126.94 176.68 127.1 176.12 127.42 175.67 127.86 175.34 128.42 175.17 129.03 175.17 129.68 175.33 130.3 175.65 130.85"/><polygon class="ec8b40ec-2f48-4eb2-aef0-c3f635500717" points="237.08 155.51 217.34 155.51 240.37 161.33 237.08 155.51"/><polygon class="ec8b40ec-2f48-4eb2-aef0-c3f635500717" points="88.98 133.51 88.98 133.68 88.98 138.45 88.98 138.62 93.72 138.62 92.41 133.51 88.98 133.51"/><path class="ec8b40ec-2f48-4eb2-aef0-c3f635500717" d="M137.51,130h0l0-.74-.06-.71-.13-.72-.19-.68-.27-.68-.33-.64-.26-.41a0,0,0,0,1,0,0s0,0,0,0l.08.77s0,0,0,0,0,0,0,0l-.08.77a.05.05,0,0,1,0,0s0,0,0,0l-.22.75s0,0,0,0,0,0,0,0l-.35.68,0,0a0,0,0,0,0,0,0l-.48.62h0s0,0,0,.05l-.59.51h0s0,0,0,0l-.67.39a.39.39,0,0,1-.21.06h-8.92v.74H137.5V130Z"/><path class="ec8b40ec-2f48-4eb2-aef0-c3f635500717" d="M196.05,150.42l-.22.44s0,0-.05,0,0,0,0,0l-.66.74s0,0-.05,0,0,0,0,.05l-.83.54s0,0-.07,0,0,0,0,0l-.94.31a.16.16,0,0,1-.1,0h0l-1,.06H192l-1-.2,0,0-.08,0-.88-.44s0,0,0,0l-.05,0-.75-.66s0,0,0,0l-.07-.08-5.92-11H163.73l-.17,0-.15.06-.15.08-.14.11-.11.12-.1.14-.08.15-.05.16,0,.17v.16l0,.21s0,0,0,0a0,0,0,0,1,0,0V145l8.13-1.2H171l2.52-.21h.07l2.53.18,0,0h0l2.47.58,0,0h0l2.35.95,0,0h0l2.18,1.3s0,0,0,0h0l1.95,1.63s0,0,0,0h0l1.67,1.91s0,0,0,0l0,0,1.36,2.14s0,0,0,0l0,0,1,2.33s0,0,0,0l0,0,.63,2.46s0,0,0,0,0,0,0,0l.25,2.53s0,0,0,0,0,0,0,0l-.12,2.09h4.46l3-1.45,11.45-5.46.18-.12h0s0,0,0,0l.22-.11s0,0,0,0,0,0,0,0l.23-.09h0l0,0,.24-.06s0,0,0,0h0l.25,0h6l-2.09-4.23H196.05Z"/><path class="ec8b40ec-2f48-4eb2-aef0-c3f635500717" d="M211.92,155.51h-1.34l-.2,0-.2.05-.18.07-.19.1-.18.13h0l0,0-11.23,5.36v28.87l13.58,2.8V155.51Z"/><polygon class="ec8b40ec-2f48-4eb2-aef0-c3f635500717" points="129.94 145.37 129.6 144.93 129.15 144.58 128.63 144.37 128.08 144.29 127.52 144.37 127 144.58 126.55 144.93 126.21 145.37 126 145.89 125.98 146.02 130.18 146.02 130.16 145.89 129.94 145.37"/><polygon class="ec8b40ec-2f48-4eb2-aef0-c3f635500717" points="110.74 145.37 110.4 144.93 109.95 144.58 109.43 144.37 108.88 144.29 108.32 144.37 107.8 144.58 107.36 144.92 107.01 145.37 106.79 145.89 106.78 146.02 110.97 146.02 110.96 145.89 110.74 145.37"/><path class="ec8b40ec-2f48-4eb2-aef0-c3f635500717" d="M132.32,149.31s0,0,0,0l.25-.57s0,0,0,0,0,0,0,0l.32-.53h0s0,0,0,0l.39-.48,0,0s0,0,0,0l.46-.42h0s0,0,0,0l.34-.24h-6.46l.26.13,0,0h0l.62.4s0,0,0,0h0l.58.46v0h0l.52.52s0,0,0,0,0,0,0,0l.47.57s0,0,0,0l0,0,.41.61v0h0l.34.65v0l0,0,.27.68h0a0,0,0,0,0,0,0l9.17,27.25,11.1,3.4h14l10.28-2.69.4-2.23.24-2.52,0-2.53-.17-2.52-.38-2.5-.58-2.45L174.8,162l-1-2.32-1.17-2.25-1.35-2.13-1.51-2-1.7-1.9h0s0,0,0,0l-.47-.59a.06.06,0,0,1,0,0l0,0-.35-.67s0,0,0,0,0,0,0,0l-.23-.73s0,0,0,0,0,0,0,0l-.08-.75s0,0,0,0,0,0,0-.05l.07-.75s0,0,0,0,0,0,0-.05l.2-.73,0,0s0,0,0,0l.34-.68s0,0,0,0,0,0,0,0l.46-.6s0,0,0,0a.06.06,0,0,1,0,0l.16-.13-5.78.85-6.41,1h-1.27l.21.17,0,0s0,0,0,0l.54.59s0,0,0,0,0,0,0,0l.47.65v0l0,0,.37.7s0,0,0,0l0,0,.28.75s0,0,0,0l0,0,.18.78s0,0,0,0l0,0,.08.79s0,0,0,0v0l0,.8s0,0,0,0,0,0,0,0l-.12.79v0a0,0,0,0,0,0,0l-.23.77s0,0,0,0,0,0,0,0l-.19.42.42.3s0,0,0,0h0l.63.58s0,0,0,0,0,0,0,0l.56.65s0,0,0,0h0l.48.72v0s0,0,0,0l.39.76v0s0,0,0,0l.3.81a0,0,0,0,0,0,0l0,0,.2.84a0,0,0,0,1,0,0s0,0,0,0l.11.85s0,0,0,0v.88s0,0,0,0,0,0,0,0l-.1.85v0s0,0,0,0l-.19.83,0,0s0,0,0,0l-.21.54.38.36v0h0l.52.61v0s0,0,0,0l.46.65v0a0,0,0,0,0,0,0l.4.69s0,0,0,0,0,0,0,0l.33.72s0,0,0,0v0l.27.75s0,0,0,0h0l.2.77s0,0,0,0h0l.13.79v0s0,0,0,0l0,.79v.88l-.09.79s0,0,0,0h0l-.12.56.41.39v0h0l.52.6v0h0l.46.65s0,0,0,0h0l.4.69a0,0,0,0,1,0,0h0l.33.73s0,0,0,0,0,0,0,0l.27.74s0,0,0,0h0l.2.77s0,0,0,0h0l.13.79v0s0,0,0,0l0,.79v.86s0,0,0,0l-.09.8h0v0l-.16.77a.67.67,0,0,1-.09.14s0,.06-.05.08a.4.4,0,0,1-.28.12H151.77a.32.32,0,0,1-.13,0l-10.41-3.23s0,0,0,0a.48.48,0,0,1-.16-.13.35.35,0,0,1-.05-.08l0,0L132,151.43s0,0,0-.07,0,0,0-.06v-.63s0,0,0,0,0,0,0,0l.09-.61s0,0,0,0,0,0,0,0l.17-.59S132.31,149.32,132.32,149.31Z"/><polygon class="ec8b40ec-2f48-4eb2-aef0-c3f635500717" points="117.16 145.37 116.81 144.92 116.37 144.58 115.85 144.37 115.29 144.29 114.74 144.37 114.22 144.58 113.77 144.93 113.43 145.37 113.21 145.89 113.19 146.02 117.39 146.02 117.37 145.89 117.16 145.37"/><polygon class="ec8b40ec-2f48-4eb2-aef0-c3f635500717" points="123.8 145.89 123.59 145.37 123.24 144.93 122.8 144.58 122.28 144.37 121.72 144.29 121.16 144.37 120.64 144.58 120.2 144.93 119.86 145.37 119.64 145.89 119.62 146.02 123.82 146.02 123.8 145.89"/><polygon class="ec8b40ec-2f48-4eb2-aef0-c3f635500717" points="150.31 152.24 150.39 152.46 150.39 152.39 150.32 151.71 150.18 151 150 150.32 149.75 149.66 149.46 149.01 149.11 148.4 148.71 147.81 148.26 147.26 147.89 146.87 147.22 146.87 147.63 147.42 147.63 147.43 147.64 147.43 148.08 148.07 148.08 148.07 148.09 148.08 148.51 148.73 148.51 148.74 148.51 148.74 148.91 149.4 148.91 149.41 148.92 149.41 149.3 150.09 149.3 150.1 149.3 150.11 149.66 150.8 149.66 150.8 149.66 150.81 149.99 151.51 149.99 151.52 150 151.52 150.3 152.23 150.3 152.24 150.31 152.24"/><polygon class="ec8b40ec-2f48-4eb2-aef0-c3f635500717" points="194.37 189.34 194.37 162.94 192.72 162.94 192.72 189 194.37 189.34"/><polygon class="ec8b40ec-2f48-4eb2-aef0-c3f635500717" points="195.22 162.78 195.22 189.52 197.49 189.99 197.49 161.7 195.22 162.78"/></svg>