<svg id="e039ce50-c3ed-4646-a7e5-32fda97673ad" data-name="Layer 1" xmlns="http://www.w3.org/2000/svg" viewBox="0 0 310 310"><defs><style>.a532cc20-3510-4f0f-9332-4bb55b1010d9{fill:#f2e5d2;stroke:#8b0e3a;stroke-miterlimit:10;stroke-width:5px;}.a0c6d721-6ffb-45d1-9e64-25e9ccba8969{fill:#8b0e3a;}</style></defs><circle class="a532cc20-3510-4f0f-9332-4bb55b1010d9" cx="155" cy="155" r="150.54"/><path class="a0c6d721-6ffb-45d1-9e64-25e9ccba8969" d="M254.85,90.94a4.39,4.39,0,0,0-.81-1.81c-.37-2.53-2.14-2.75-2.73-2.75a3.13,3.13,0,0,0-2.22,1c-.52.51-.81.86-1,1.09l-.07.09-.09,0a5.78,5.78,0,0,0-3,2.81,10.46,10.46,0,0,0-2.11.8c0-.16-.07-.31-.1-.45a2.3,2.3,0,0,0-1-1.57,8.49,8.49,0,0,1-.7-.51,5.85,5.85,0,0,0-3-2.17,4.42,4.42,0,0,0-3.4-1.8,3.89,3.89,0,0,0-2.08.61,4.79,4.79,0,0,1-1.23.57c-.28-.29-.53-.58-.65-.73l-.56-.91v-.51a2.36,2.36,0,0,0-.77-1.74l-1-.85v-.06a2.39,2.39,0,0,0-.54-1.51l-1.49-1.76a2.28,2.28,0,0,0-.63-1.45L223.37,75l-.1-.11a10,10,0,0,0-2.73-2,4.27,4.27,0,0,0-1.51-.25,5,5,0,0,0-.81.06l-1.87-.44-.08,0-2.57-.51a2.28,2.28,0,0,0-.45,0,2.36,2.36,0,0,0-1.08.26c-.26.13-2.49,1.29-3.5,2A16.11,16.11,0,0,1,206.29,75a2.31,2.31,0,0,0-1.08.8A7.47,7.47,0,0,0,204,78.06a2.19,2.19,0,0,1-.16.39,2.31,2.31,0,0,0,.05,2.52,2.35,2.35,0,0,0,1.65,1c0,.09.08.19.11.28-1.11.84-1.83,2.11-2.12,5.08a2.83,2.83,0,0,0,0,.29,3.53,3.53,0,0,0-1,3.65,14.93,14.93,0,0,0-1.87,1.81h-.49l-.1-.08a2.77,2.77,0,0,0-1.81-.72h0a2.57,2.57,0,0,0-2,1c-.42.51-2.08,3.45-2.08,5.28v2.23a2.39,2.39,0,0,0-.79,1.19,2.45,2.45,0,0,0-.11.78c0,.89.58,4.48,3.28,4.48a2.69,2.69,0,0,0,2.16-1.11.91.91,0,0,1,.4-.3,1.44,1.44,0,0,0,.23-.07,8.64,8.64,0,0,1,1.07-.31,2.52,2.52,0,0,0,.67.09,3,3,0,0,0,2.39-1.37,10.33,10.33,0,0,1,1.14.24,11.49,11.49,0,0,1,.92.93l.19.2h-.07a8.39,8.39,0,0,0-3.25,1.18h0a2.34,2.34,0,0,0-1.83.88l-.41.51a4.86,4.86,0,0,0-3.13,3.34l-.35,1.2-.45.38c-1.73,0-3.39.25-4.11,1.69-.13.26-.25.55-.36.81l-1,.8a7.21,7.21,0,0,1-1.06.09,2.47,2.47,0,0,1-.34,0l-.19-.06a2.42,2.42,0,0,0-1-.59,5,5,0,0,0-1.39-.19,4.1,4.1,0,0,0-3,1.23,4.83,4.83,0,0,0-1.17,3.71,6.2,6.2,0,0,0,.79,3,4.91,4.91,0,0,0-2.52,2.77,6.36,6.36,0,0,1-.69.92,10.09,10.09,0,0,1-2,1.08,11.43,11.43,0,0,1-1.39.06c-.64,0-1.14,0-1.34,0a2.44,2.44,0,0,0-.55-.06,5.29,5.29,0,0,0-1.74.41,3.34,3.34,0,0,0-.83-.11,4,4,0,0,0-2.37.86.66.66,0,0,1-.37.14,1.55,1.55,0,0,0-.6-.13,2.46,2.46,0,0,0-1,.27,25.27,25.27,0,0,0-4.37,2.41,3.22,3.22,0,0,0-.53-.25,5.84,5.84,0,0,0-2.2-.31c-.62,0-1.26,0-1.68.07l-3.76-1.18a3,3,0,0,0-2.61-2c-.86-.08-3.07-.1-4.78-.1l-.34,0c-.33,0-.78,0-1.26,0a6.57,6.57,0,0,0-2,.26,5.47,5.47,0,0,1-1.08-.36,2.71,2.71,0,0,0-.67-.2c-1.09-.15-4.27-.58-6-.73a15.33,15.33,0,0,1-.74-2c-.29-2-1.14-5.27-3.71-5.68a6.92,6.92,0,0,1-2-1,5.24,5.24,0,0,0-4.38-2.63,29.54,29.54,0,0,1-4.16-.55h-.07a12.08,12.08,0,0,1-1.38-.33,4,4,0,0,0,1.28-2.58,4,4,0,0,0,.45-3.5,14.85,14.85,0,0,0-1.08-2.29,4.91,4.91,0,0,0-.89-2.5,4.23,4.23,0,0,0-1.83-1.58,2.63,2.63,0,0,0-2.4-1.48l-.39,0a4.22,4.22,0,0,0-1.68-1.94.88.88,0,0,0,0-.15,3.26,3.26,0,0,0-.31-2.91,2.52,2.52,0,0,0-2-1h0a2.89,2.89,0,0,0-.91.15l-.1,0-.21,0-.36-.07-.51,0a3,3,0,0,0-3,2.19,4,4,0,0,0-2.51,1.43l-.08.1A5,5,0,0,0,102,102.7c0,.31,0,.62,0,.92H102a7.2,7.2,0,0,0-1,.34l-.66-.17a5,5,0,0,1-.8-.55,5.43,5.43,0,0,0-2.81-1.32h-.29c-.89,0-3,.36-3.8,3.74a10,10,0,0,1-.92,1.56,6.92,6.92,0,0,0-1.13,2.07l0,.13a3.19,3.19,0,0,0-1.24-.24,3,3,0,0,0-.59,0,23.82,23.82,0,0,1-2.57.14,1.23,1.23,0,0,0-.27,0s-.62.07-1.23.16c-1,.17-3,.47-3.12,2.48a2.42,2.42,0,0,0,1.25,2.23,3.54,3.54,0,0,0,0,.45,13.78,13.78,0,0,0,.33,1.83,13.06,13.06,0,0,1,.33,1.77,1,1,0,0,1-.49.75,1.39,1.39,0,0,1-.33.17,3.12,3.12,0,0,0-2.1,3,4.91,4.91,0,0,0,0,.67c-.73.1-1.51.25-2.19.39-2.56.54-3.67,1-4.26,1.87a1.35,1.35,0,0,1-.32.09h0a5,5,0,0,0-2.64-.71,3.83,3.83,0,0,0-3.45,2.16,2.76,2.76,0,0,0-.44-.69,2.82,2.82,0,0,0-2.16-.94,3.88,3.88,0,0,0-.67.06,2.6,2.6,0,0,1-.3,0c-.26,0-.58,0-.88,0s-.67-.06-1-.06a3,3,0,0,0-2.45,1l-.6.36c-.23.13-.47.26-.69.41l-.15.08a2.62,2.62,0,0,0-1.36,1.9c0,.05,0,.12,0,.21l-.11.12a3.63,3.63,0,0,0-1.17,2.37v.06h0v0l-.18.43a6.1,6.1,0,0,0-.42,1.29,2.71,2.71,0,0,0,2.66,3.25l.33,0a11.38,11.38,0,0,0-.17,2,3.11,3.11,0,0,0-1.2.28,2.56,2.56,0,0,0-1.48,2.33c0,2.1,2.22,3.15,3.44,3.48l.22.22a5.43,5.43,0,0,0,.65.61l.14.1v.27a6.15,6.15,0,0,0,.25,2.51,3.25,3.25,0,0,0,1.79,2.31,4.68,4.68,0,0,1,.77.87,2.3,2.3,0,0,0,.85.73,13.06,13.06,0,0,0,2.25,1,.51.51,0,0,1,0,.09c0,.14,0,.29,0,.43a5.22,5.22,0,0,0,.62,3.15,3.09,3.09,0,0,0,.82.83,8,8,0,0,0-.32,3.41,6.65,6.65,0,0,0,.27,1,2.54,2.54,0,0,0-2.39,2.66s.08,0,.06,0a2.32,2.32,0,0,0-.73,1.89,2.37,2.37,0,0,0,.84,1.64,16.21,16.21,0,0,0-.13,1.91c0,.86.79,3.88,3.28,3.88l.55,0h.07a3,3,0,0,0,.7,1.82,2.61,2.61,0,0,0,1.35.85l.3.23.41.45.27.28c.31.85,1,2.48,2.83,2.48a2.56,2.56,0,0,0,1.67-.62,2.61,2.61,0,0,0,.63.4A16.08,16.08,0,0,1,78.23,181a8.56,8.56,0,0,0,1,1.2c.24.24.47.46.7.65a2.8,2.8,0,0,0,2.34,2.89,3,3,0,0,0,1.61,2.07,15,15,0,0,0,2.08.91,3.13,3.13,0,0,0,2.79,1.83,4.64,4.64,0,0,1,.45.28,3.09,3.09,0,0,0,2.89,2,3.54,3.54,0,0,0,.85-.11l.39-.06a5.1,5.1,0,0,0,2.9,1.31,3.07,3.07,0,0,0,.53,0,4.6,4.6,0,0,0,1.11.12,9.7,9.7,0,0,0,1.5-.14,2.54,2.54,0,0,0,.51,1.84,2.41,2.41,0,0,0,1.92.95,2.52,2.52,0,0,0,1.29-.36,8.1,8.1,0,0,0,2.29-2.38,3.22,3.22,0,0,1,.89-.78l.13,0a4,4,0,0,0,1.07.73l.49.28a3.78,3.78,0,0,0,2.07.71h.41a4.35,4.35,0,0,0,1.38,2.64,3,3,0,0,0,1.19,2.06,4.16,4.16,0,0,0,2.64.85,5.45,5.45,0,0,0,.85-.06l.23,0a6.29,6.29,0,0,0,2.09.3,6.73,6.73,0,0,0,2.25-.35,6.13,6.13,0,0,0,2.91-2.46,1,1,0,0,1,.14-.15h0c1.32,0,3.58-.42,4.45-1.86a6.58,6.58,0,0,1,2.3.35l.45.48a4.43,4.43,0,0,0,3.19,1.92,2.75,2.75,0,0,0,2.28-1.19,2.81,2.81,0,0,0,1.6,1.3l.27.09c.08,1.11.16,2.36.16,2.38a.93.93,0,0,0,0,.26.47.47,0,0,1,0,.25,4.37,4.37,0,0,0-.94,2.42,2.69,2.69,0,0,0-1.67,1.17,2.19,2.19,0,0,0-.75.48,4.33,4.33,0,0,0-1.42,3,2.67,2.67,0,0,0-.28,2.69,2.69,2.69,0,0,0,.71,3.07,2.64,2.64,0,0,0,1.75.64,3.86,3.86,0,0,0,2.05-.68h.1s0,0,0,0a2.46,2.46,0,0,0-.22.73,2.75,2.75,0,0,0,1.12,2.44.44.44,0,0,1,.09.11,3.34,3.34,0,0,0,1.23,1.12v.14c-.06.12-.12.22-.15.27l-.07.09a2.68,2.68,0,0,0-.42,2.92,2.64,2.64,0,0,0,2.49,1.4,5.13,5.13,0,0,1,.67.09,2.56,2.56,0,0,0,.54,1.37,2.62,2.62,0,0,0,.44.44h0a3,3,0,0,0,2.53,1.27,3.44,3.44,0,0,0,2-.58,3.15,3.15,0,0,0,2.89,2,3.46,3.46,0,0,0,1.21-.23c3.29-1.23,2.23-4.51,1.88-5.59l0-.1a3.17,3.17,0,0,0,1.67-.64,3,3,0,0,0,1.3.29,3.79,3.79,0,0,0,1.79-.48,4.35,4.35,0,0,1,1.06-.39,2.7,2.7,0,0,0,1.58.53,2.53,2.53,0,0,0,1.67-.62h.62a3.22,3.22,0,0,0,3.24-2.2h0a4.36,4.36,0,0,0,2.93,1.12h.37a3.86,3.86,0,0,0,.81,2.71,3.66,3.66,0,0,0,2.09,1.66l.24.06c.71,1.19,2,1.31,3.6,1.45.44,0,.82.06,1.16.06a4.33,4.33,0,0,0,2.47-.62h0a5.26,5.26,0,0,0,.55-.16,2.56,2.56,0,0,0,2,.93H184a2.46,2.46,0,0,0,.15.94A2.26,2.26,0,0,0,185,229a2.55,2.55,0,0,0,.14.95,2.42,2.42,0,0,0,.78,1.07c-.22.23-.91.25-1.19.25h-.11l-.23,1.1a13.52,13.52,0,0,0-1.42,1.28,3.2,3.2,0,0,0-.27,2.33c.27.74-.78,1.24,1,1.7a17.21,17.21,0,0,0,3.1.63.54.54,0,0,0,.25,0c.31-.13-.47-.82.45-.87s1.73-.41,1.73-.82,1-.05,1-.51.23-2.61.73-3.11,1.15-1,1.15-1.47-.15-1.89-.53-1.89l-.07,0h0a2.72,2.72,0,0,0,.47-.93,3.18,3.18,0,0,0-.63-2.78l.14-.1a2.57,2.57,0,0,0,1.28-.67,4.51,4.51,0,0,0,3.45-1.24h.41a4,4,0,0,0,2.72-.91.64.64,0,0,1,.14-.06h0a2.19,2.19,0,0,0,1.92-1.14,1.66,1.66,0,0,0,.16-.33,4,4,0,0,0,1.95-1.33,2.72,2.72,0,0,0,.58.06,2.18,2.18,0,0,0,.5-.05,2.94,2.94,0,0,0,2.17-1.28,7.64,7.64,0,0,0,2.19-1.13,2.31,2.31,0,0,0,.62.09c.49,0,.78-.08,2.36-.77,2.57-.74,3.16-1.32,3.41-1.57a3.8,3.8,0,0,0,1-1.73,2.53,2.53,0,0,0,1.16-1.29,4.46,4.46,0,0,0,.43-.28,3.75,3.75,0,0,0,.8-.84,2.72,2.72,0,0,0,1.57-1.78,4.38,4.38,0,0,0,.87-1.77,3.71,3.71,0,0,0,.64-.15,2.74,2.74,0,0,0,1.91-2.27,2.84,2.84,0,0,1,.22-.36,3.23,3.23,0,0,0,.69-1.37l.19-.25A2.64,2.64,0,0,0,225,203l.23-.05a2.35,2.35,0,0,0,1.72-1.55,3,3,0,0,0-.49-2.85c0-.14,0-.32,0-.5a3.23,3.23,0,0,0,.24-1.88s0,0,0-.06a3.4,3.4,0,0,0,1.45-2.19,1.77,1.77,0,0,1,.17-.2,2.5,2.5,0,0,0,.59-1.14,15.29,15.29,0,0,0,.34-2.43h0a2.67,2.67,0,0,0,1.64-1.07v0a2.48,2.48,0,0,0,1-2.65c0-.13,0-.28.06-.46s.13-.91.19-1.22a3.85,3.85,0,0,0,.45-3c-.05-.26-.1-.5-.16-.73a3.27,3.27,0,0,0,.63-2.52,2.67,2.67,0,0,0-2.34-2.27,2.67,2.67,0,0,0,0-.5c0-.07,0-.22,0-.38a5.94,5.94,0,0,0,0-1.57,3.87,3.87,0,0,0-.21-.75,2.86,2.86,0,0,0,.23-.77,3.46,3.46,0,0,0-1.18-2.85,6.24,6.24,0,0,0-1.54-1.12l0-.06a2.91,2.91,0,0,0-2.13-1.48c-.57-1.21-1.65-3.05-1.67-3.07-1.77-3-2.61-3.83-3.48-4.18-.13-.08-.4-.32-.58-.47a9.67,9.67,0,0,0-1.19-.94,3.66,3.66,0,0,0,1-2.15h0a2.63,2.63,0,0,0,2.22-2.89v-.2a11,11,0,0,0,2.59-1.89h.22a3.58,3.58,0,0,0,3.54-3.45,3,3,0,0,0-2.55-3.34l-.49-.08a8.66,8.66,0,0,0-1.43-.14,5.76,5.76,0,0,0-1.16.11c-.31.06-.6.1-.86.13a5.74,5.74,0,0,0-1-.92,7.2,7.2,0,0,0,3.24-2.85c-.07.17-.13.28-.13.29a19.82,19.82,0,0,1,1.43-1.79,5.84,5.84,0,0,0,2.78-1.8,1,1,0,0,1,.24-.09,3.33,3.33,0,0,0,3.11-3c.3-.42,1-1.21,2-2.34a7.54,7.54,0,0,0,.81-1c.22-.31,1.09-1.43,1.83-2.36a2.12,2.12,0,0,0,.38-.71,5.42,5.42,0,0,0,.19-.72,4.18,4.18,0,0,0,1.31.21,6.08,6.08,0,0,0,1.63-.21h0a2.93,2.93,0,0,0,2.51-1.43,2.52,2.52,0,0,0,.16-2.16,4.23,4.23,0,0,0,2.35-2.19,3.26,3.26,0,0,0,1.38-2.32,4.49,4.49,0,0,0,1.64-.65l0,0a4.93,4.93,0,0,0,2.06-4,4.55,4.55,0,0,0-.49-2.21.79.79,0,0,1,0-.09,2.87,2.87,0,0,1,0-.41,7.28,7.28,0,0,0-1.16-3.6,2.81,2.81,0,0,0,.33-1c0-.11.11-.27.18-.43a4.07,4.07,0,0,0,2.25.85,2.57,2.57,0,0,0,1.92-.86,2.69,2.69,0,0,0,.61-2.16c-.06-.47-.09-.81-.11-1a7.39,7.39,0,0,0,.58-3.18v.06c0-.13,0-.6,0-.95,0-.67,0-1.43,0-2,0-.25,0-.67-.08-1.17s-.08-1-.11-1.55a3.65,3.65,0,0,0,.31-.36A3.57,3.57,0,0,0,254.85,90.94Z"/></svg>