<svg id="f2dec691-8c76-4aa8-944e-cdc48d76ae8c" data-name="Layer 1" xmlns="http://www.w3.org/2000/svg" viewBox="0 0 310 310"><defs><style>.bbacdcd4-170f-4c00-8bdd-dd0ada483fe1{fill:#f2e5d2;stroke:#8b0e3a;stroke-miterlimit:10;stroke-width:5px;}.ec9d06fd-a6c5-45d1-8cd2-baef460fcbc5{fill:#8b0e3a;}</style></defs><circle class="bbacdcd4-170f-4c00-8bdd-dd0ada483fe1" cx="155" cy="155" r="150.54"/><path class="ec9d06fd-a6c5-45d1-8cd2-baef460fcbc5" d="M252.05,153.18l.68-7.73,1.59-17.72h-13l-7.5,17.72H174.32l-8.87-10.22H147.73v-7.5h-4.32v-4.32l85-.91v-.91l-85-1.59v-4.32H140V120l-85,1.82v.91l85,.68v4.32h-4.32v7.5H120.45l-10.68,10.22h-17L69.09,166.82l6.82,15h.23a8.15,8.15,0,0,0-2,5,7.57,7.57,0,0,0,7.5,7.5h73.64v-3.41H81.59a4.32,4.32,0,0,1-4.32-4.32,4.18,4.18,0,0,1,4.32-4.32h73.64v-3.41h-.68l12-16.13,67.27-5.91,1.59-.23,5.91,10.23H255ZM108.64,168.41H74.77l18.64-17.73h15.23Zm22,0H113V150.68h17.73Z"/></svg>