<svg id="ad50886d-50c5-4035-8d9b-ec6e59fc5c95" data-name="Layer 1" xmlns="http://www.w3.org/2000/svg" viewBox="0 0 310 310"><defs><style>.aefe3728-fa10-4fdf-b3c2-ac312a6293e2{fill:#f2e5d2;stroke:#8b0e3a;stroke-miterlimit:10;stroke-width:5px;}.bc404ade-0cb3-4550-ab5d-b650918ef04c{fill:none;}.b73f521f-04f0-4462-9a74-c53768780e89{fill:#8b0e3a;}</style></defs><circle class="aefe3728-fa10-4fdf-b3c2-ac312a6293e2" cx="155" cy="155" r="150.54"/><path class="bc404ade-0cb3-4550-ab5d-b650918ef04c" d="M228.21,117.58a1.39,1.39,0,0,1-.14-.45l-.59-4.74c0-.12-.43-1.15-1-2.43a25.87,25.87,0,0,0-1.56-3.24,3.1,3.1,0,0,1-.4-2.68,19.17,19.17,0,0,1,.61-2.77c.52-1.84,1.15-3.49,1.15-3.49a1.3,1.3,0,0,1,.46-.6l1.73-1.24.29-1.31a1.34,1.34,0,0,1-1.2-.29l-1.7-1.48-9,5.89a1.22,1.22,0,0,1-.37.16l-7.67,2.15a1.33,1.33,0,0,1-1.5-.61l-2-3.48-4.92-4.18h0L197.91,96a1.34,1.34,0,0,1-1.55.41l-2.29-1-.52,1.92a1.32,1.32,0,0,1-1,.94l-6.05,1.45,4.16,8.33.06.14a1.32,1.32,0,0,1-.79,1.69l-7.67,2.77a1.34,1.34,0,0,1-1.28-.22l-8.64-6.91-4.84,1.61a1.32,1.32,0,0,1-1.4-.36L162,102.21v.05a1.32,1.32,0,0,1-1.2,1l-4.6.31a1.32,1.32,0,0,1-1.34-.9L153,97.26l-15.8,2a1.13,1.13,0,0,1-.26,0l-20.64-1.52-18.92,5-11.69,18a1.26,1.26,0,0,1-.76.56l-7.21,1.94.5,12.91L82,141.68a1.33,1.33,0,0,1,.22.83l-.56,9.32,8.51,5.1a1.32,1.32,0,0,1,.58,1.54l-2.92,9.06,5,12.6,6.66,9.38a1.3,1.3,0,0,1,.23.9l-.59,5.66,1.56,9.64,2.21-.74a1.26,1.26,0,0,1,1,.06l2.63,1.21,2.61-8.09a1.13,1.13,0,0,1,.26-.45,1.32,1.32,0,0,1,1.86-.15l4.3,3.68a1.36,1.36,0,0,1,.44.81l1.23,8a1.32,1.32,0,0,1-.46,1.22l-3,2.51,1,3.37,3.33-.19,1.83-4.45a1.36,1.36,0,0,1,.49-.6,1.33,1.33,0,0,1,1.84.37l2.6,3.91,5.93-.81a1.4,1.4,0,0,1,.83.16l8,4.51.93-2.06a1.34,1.34,0,0,1,1.25-.78l8.9.29,3-3.23.09-.08,3.19-2.93-.55-5.79a1.19,1.19,0,0,1,.06-.53,1.31,1.31,0,0,1,1.66-.85l7,2.22,2.5-2.25a1.29,1.29,0,0,1,.77-.34s1.74-.15,3.69-.41c1-.14,2-.3,2.89-.47a10.18,10.18,0,0,0,1.84-.52,2.47,2.47,0,0,1,1.72-.13,4,4,0,0,1,1.29.68,11.81,11.81,0,0,1,2.06,2.06c.52.65.95,1.27,1.32,1.81l1-.86a1.3,1.3,0,0,1,1.79.06l1.8,1.8,1.5.1-.75-1.17a1.38,1.38,0,0,1-.2-.86l.25-2.26-1.13-1.58-5.68-4.48a1.36,1.36,0,0,1-.47-.77l-2.11-10.23-1.12-2a1.28,1.28,0,0,1-.14-.37,1.33,1.33,0,0,1,1-1.58l5-1.12,1.55-2.06a1.32,1.32,0,0,1,1.33-.5l9.41,1.93,1.79-3.82-1.09-3.82a1.84,1.84,0,0,1,0-.41,1.33,1.33,0,0,1,1.38-1.27l7.18.28,1.75-3a1.31,1.31,0,0,1,1.35-.64l5.19.82,7.81-7.23a1.32,1.32,0,0,1,1-.35l5.57.51,2.45-11.7-2.35-7.33a1.36,1.36,0,0,1,0-.89l4.18-10.75-.56-6.79Z"/><path class="b73f521f-04f0-4462-9a74-c53768780e89" d="M235,131.27l-.62-7.36a1.2,1.2,0,0,0-.14-.5l-3.57-6.85-.59-4.67a1.63,1.63,0,0,0-.07-.3s-.47-1.24-1-2.65a19.31,19.31,0,0,0-1.89-3.81c.27.36,0-.09.1-.75a18.17,18.17,0,0,1,.53-2.39c.43-1.51.85-2.62,1-2.91l1.8-1.28A1.35,1.35,0,0,0,231,97l1.84-8.59a1.31,1.31,0,0,0-1-1.57,1.55,1.55,0,0,0-.31,0h0a1.32,1.32,0,0,0-1.12.65l-2.26,3.84-1.25-1.1a1.34,1.34,0,0,0-1.6-.11l-9.64,6.33-6.49,1.82-1.63-2.8a1.3,1.3,0,0,0-.28-.34l-6.14-5.22a1.33,1.33,0,0,0-1.86.15l0,0-2.75,3.51-2.75-1.15a1.32,1.32,0,0,0-1.73.71l-.06.16-.71,2.62-6.91,1.66a1.33,1.33,0,0,0-1,1.6,1.62,1.62,0,0,0,.11.28l4.24,8.48-5.57,2-8.63-6.9a1.3,1.3,0,0,0-1.24-.22l-4.7,1.56-5.25-5.8a1.33,1.33,0,0,0-1.87-.09,1.46,1.46,0,0,0-.4.66l-.38,1.52-2.61.17-1.83-5.47a1.31,1.31,0,0,0-1.42-.89L137,96.62,116.3,95.09a1.6,1.6,0,0,0-.44,0l-19.63,5.22a1.28,1.28,0,0,0-.77.56l-11.69,18-6.19,1.66A1.32,1.32,0,0,0,75,121l.61,15.65a1.29,1.29,0,0,0,.23.69l3.74,5.46L79,152.47a1.32,1.32,0,0,0,.64,1.21l8.3,5-2.74,8.51a1.3,1.3,0,0,0,0,.89l5.22,13.19a1.51,1.51,0,0,0,.15.28l6.46,9.1L96.48,196a1.36,1.36,0,0,0,0,.35l1.84,11.35a1.33,1.33,0,0,0,1.52,1.1l.2,0,3.19-1.06,3.51,1.62a1.33,1.33,0,0,0,1.75-.65.94.94,0,0,0,.06-.15l2.46-7.62,2.41,2.07,1,6.75-3.11,2.59a1.33,1.33,0,0,0-.42,1.39l1.53,5.22a1.33,1.33,0,0,0,1.35.94l5.22-.3a1.32,1.32,0,0,0,1.14-.82l1.2-2.92,1.69,2.54a1.32,1.32,0,0,0,1.28.57l6.31-.86,8.81,5a1.31,1.31,0,0,0,1.8-.5l.06-.1,1.17-2.58,8.62.28a1.28,1.28,0,0,0,1-.43l3.34-3.63,3.63-3.34a1.32,1.32,0,0,0,.43-1.1l-.43-4.44,5.76,1.84a1.32,1.32,0,0,0,1.29-.28l2.75-2.48c.36,0,1.58-.13,3.37-.37,1-.14,2.09-.3,3.05-.5a10.38,10.38,0,0,0,2.33-.68,1.5,1.5,0,0,1,.43.25,10,10,0,0,1,1.57,1.6,28.08,28.08,0,0,1,2,2.8,1.32,1.32,0,0,0,1.82.45l.18-.13,1.22-1,1.28,1.28a1.35,1.35,0,0,0,.85.39l4.6.3a1.31,1.31,0,0,0,1.4-1.23,1.33,1.33,0,0,0-.2-.8l-1.9-3,.26-2.3a1.34,1.34,0,0,0-.24-.91l-1.53-2.15a1.66,1.66,0,0,0-.26-.27l-5.45-4.3-2.05-10a1.43,1.43,0,0,0-.15-.39l-.33-.59,3.77-.83a1.37,1.37,0,0,0,.77-.5l1.33-1.78,9.61,2a1.33,1.33,0,0,0,1.47-.74l2.45-5.21a1.3,1.3,0,0,0,.07-.93l-.72-2.54,6.15.24a1.3,1.3,0,0,0,1.19-.66l1.69-2.9,4.94.78a1.3,1.3,0,0,0,1.1-.33l7.85-7.27,6.17.56a1.33,1.33,0,0,0,1.41-1l2.76-13.19a1.27,1.27,0,0,0,0-.67l-2.31-7.22,4.12-10.61A1.49,1.49,0,0,0,235,131.27Z"/></svg>