<svg id="bb3e3b32-3330-4004-ae33-13c4b4d05acd" data-name="Layer 1" xmlns="http://www.w3.org/2000/svg" viewBox="0 0 310 310"><defs><style>.e657853b-e851-4b07-9d84-65c4d3c5898d{fill:#f2e5d2;stroke:#8b0e3a;stroke-miterlimit:10;stroke-width:5px;}.ba951b73-01b4-40f9-bf32-ff5a968d736d{fill:#8b0e3a;}</style></defs><circle class="e657853b-e851-4b07-9d84-65c4d3c5898d" cx="155" cy="155" r="150.54"/><path class="ba951b73-01b4-40f9-bf32-ff5a968d736d" d="M212.28,104.71s7.24,5,7.79,5.41,7.57,6.49,7.57,6.49l5.08-7.9,8.11-5.94,5.09,1.08L252,101.9l3-2.05-1.95-.22-1.4-6.92L255,85.46,248.72,90l-11-4.54L221.9,61.77h-2.7l-2.06,2.81v13l-4.22,8.87-2.27,1.4v6.28l-3.13,1.3-7-4.65L199,92.38l1.4,3.78-6.92,4.22-2.7,4.76,3.13,4.87-3.13,5.62,1.4,4.22,7.25-4.76,3.57.44,1.73-1-8.11-7.68,1.84-4.21,4.32.86,1,3.79Z"/><path class="ba951b73-01b4-40f9-bf32-ff5a968d736d" d="M66.67,212.19l3.22,4.4-1.76,3.32,3.13-.58,2.35,2.34-1.47-7.92,3.72,1.86v4.2l-2.25,5.87-3,2.44-.1,3.52,1.36,1.66-1.27,4.4,3.23,2,.59-7,2.64.68-1.86,7.43,3.62-1.85.48-2,2.45.78,8.7-16.91-.59-3.42-2.25-1.56L89,212.48l-1.56-2.24L81.82,209l.48-4.1,9.58.78,1.57,2.06,3.23-4.6L99,204.37l4.79-1,2.25.68,4.59-2.44,2.74,1.36,2.25-2.15,5.18-1.07,4.4,2.54h5l.2,1.17-3.81,3.91.87,7.82,4.21,2.06,8.11-8.51,3.72.1-1.57-4.2,2.84-4.21,3.52,1.86,2.05,2.64,7.72,2.15L165,202l2.15.58-2.15,4.3,1.28,1.57,3.32-7.63,4.3-.78,1.56,1.08,3.13-4.89,2,1.37-4.1,8.21,5.47-1.47,3.13-5.28,3.33-1.66-2.35-9.38,6.65-8.12,1.37-12.8,2.15-4.5,3.81-.1.68.59,2.62-7,4.81-5.67,1.17-2.64V137.6L206.26,133l-.49-8.21.88-2.93-2.73-.68-2.47-2.85-2.29,4.24,4.24,2.29-.57,2.92-4.81-.52-1.2-4.21-4.07,4.73L189,128.88s-1.26,8.07-1.26,8.24-1.55,2.69-1.55,2.69l1.44,1.32-.17,6-8.21,15.07L173,165.86,170.09,170l-9.58,5.37-5.28,3.13-3.81-1.76-3-7-1.37,8.8-8.8,8v3.81l-12.12-.78-19-1.18-7.63,3.33-12.9,8.5H82l-.87,5.18-6.06,4.59-3.72-.48-2.25,2.73Z"/><path class="ba951b73-01b4-40f9-bf32-ff5a968d736d" d="M204.5,123.1l-1-.25a1.66,1.66,0,0,1-.88-.54l-.84-1-.29.54,2.73,1.48.17.1Z"/><path class="ba951b73-01b4-40f9-bf32-ff5a968d736d" d="M69.91,213.72l.64.87-.1-.51a1.82,1.82,0,0,1,.08-.9l-.09.11A1.82,1.82,0,0,1,69.91,213.72Z"/><polygon class="ba951b73-01b4-40f9-bf32-ff5a968d736d" points="93.2 214.14 96.09 213.54 96.09 215.45 97.34 215.45 95.87 218.99 96.09 220.95 98.38 220.95 100.34 223.3 102.57 222.64 102.57 220.25 104.53 218.88 104.81 215.56 109.38 213.65 113.14 215.45 114.56 218.18 117.07 214.31 120.83 212.46 120.83 210.82 120.01 209.62 120.83 207.55 118.91 206.9 116.57 204.44 113.3 204.44 110.91 205.97 110.52 207.39 109.05 208.69 106.71 208.53 104.8 208.53 102.57 206.3 100.17 208.91 100.17 210.44 93.2 214.14"/><polygon class="ba951b73-01b4-40f9-bf32-ff5a968d736d" points="119.08 203 118.15 202.37 116.57 202.81 117.72 203.63 119.08 203"/><polygon class="ba951b73-01b4-40f9-bf32-ff5a968d736d" points="121.53 207.55 123.49 207.55 124.31 206.62 123.87 205.28 125.45 203.35 124.91 203 122.45 205.32 121.53 207.55"/><polygon class="ba951b73-01b4-40f9-bf32-ff5a968d736d" points="97.66 208.37 95.32 207.17 94.78 208.37 97.66 208.37"/><polygon class="ba951b73-01b4-40f9-bf32-ff5a968d736d" points="69.55 206.16 68.46 205.37 67.31 206.62 68.46 206.95 69.55 206.16"/><polygon class="ba951b73-01b4-40f9-bf32-ff5a968d736d" points="67.58 193.87 66.11 194.53 64.92 197.63 65.52 198.83 67.58 195.94 67.58 193.87"/><polygon class="ba951b73-01b4-40f9-bf32-ff5a968d736d" points="63.5 200.03 63.5 201.23 63.83 201.99 64.78 201.39 65.19 199.38 64.37 198.83 63.5 200.03"/><polygon class="ba951b73-01b4-40f9-bf32-ff5a968d736d" points="64.34 212.89 66.67 211.26 64.92 211.26 64.34 212.89"/><polygon class="ba951b73-01b4-40f9-bf32-ff5a968d736d" points="60.67 217.85 62.41 215.61 61.54 215.61 61.1 213.38 60.67 217.85"/><polygon class="ba951b73-01b4-40f9-bf32-ff5a968d736d" points="55 219.54 58.27 219.54 58.27 218.07 57.4 217.25 55.65 217.25 55 219.54"/><polygon class="ba951b73-01b4-40f9-bf32-ff5a968d736d" points="68.84 226.68 71.51 224.66 71.73 222.81 70.53 221.99 68.84 225.04 68.84 226.68"/><polygon class="ba951b73-01b4-40f9-bf32-ff5a968d736d" points="72.33 223.3 72.79 224.88 73.96 223.68 73.25 222.92 72.33 223.3"/><polygon class="ba951b73-01b4-40f9-bf32-ff5a968d736d" points="75.2 248.86 76.14 249.43 78.85 245.63 78.54 243.75 77.13 245.47 77.13 247.45 75.2 248.86"/><polygon class="ba951b73-01b4-40f9-bf32-ff5a968d736d" points="70.72 250.37 72.91 250.37 73.43 249.25 72.33 248.13 70.72 248.13 70.72 250.37"/><polygon class="ba951b73-01b4-40f9-bf32-ff5a968d736d" points="113.37 178.63 109.74 178.63 108.89 179.54 110.2 180.72 113.37 178.63"/><polygon class="ba951b73-01b4-40f9-bf32-ff5a968d736d" points="169.72 159.15 168.72 159.15 165.55 161.93 166.71 163.09 164.62 165.95 169.11 163.71 168.1 162.55 169.72 159.15"/><polygon class="ba951b73-01b4-40f9-bf32-ff5a968d736d" points="188.5 106.35 187.99 105.82 186.65 106.17 186.08 109.01 187.75 106.95 188.5 106.35"/><polygon class="ba951b73-01b4-40f9-bf32-ff5a968d736d" points="211.77 60.38 211.16 59.63 210.68 61.53 211.16 63.03 211.77 60.38"/><polygon class="ba951b73-01b4-40f9-bf32-ff5a968d736d" points="213.98 64.52 212.54 63.6 212.03 64.29 213.55 66.82 213.98 64.52"/></svg>