<svg id="b3127d73-d6d2-41fd-992c-87ceaa1f71dc" data-name="Layer 1" xmlns="http://www.w3.org/2000/svg" viewBox="0 0 310 310"><defs><style>.adef6aba-811c-4d97-9b26-7ac5daffa093{fill:#f2e5d2;stroke:#8b0e3a;stroke-miterlimit:10;stroke-width:5px;}.e1e0f26f-0c14-4bcc-ad33-9e2003853d24{fill:#8b0e3a;}</style></defs><circle class="adef6aba-811c-4d97-9b26-7ac5daffa093" cx="155" cy="155" r="150.54"/><path class="e1e0f26f-0c14-4bcc-ad33-9e2003853d24" d="M162.89,111.73c-.41-5.71,4-9.93,5.72-11.42l-3.81-6.13c-10.48,2.59-15.24,15.24-16.33,19.19a18.13,18.13,0,0,1-6.12,9.11c1.49-.13,3-.13,4.49-.13a28.84,28.84,0,0,1,8,1,32,32,0,0,1,8.44-1,47.43,47.43,0,0,1,6.39.41C165.48,119.22,163.16,115.54,162.89,111.73Z"/><path class="e1e0f26f-0c14-4bcc-ad33-9e2003853d24" d="M121,206.43c-.41-.41-1-.82-1.36-1.23-5.58-5.3-12.39-15.1-12.39-30.88,0-21.63,13.07-42.45,29.12-48.84C114.86,130.1,95,148.61,95,176.09,95,190.92,106.16,201.12,121,206.43Z"/><path class="e1e0f26f-0c14-4bcc-ad33-9e2003853d24" d="M145.07,213.78c-5.58-5.85-8.57-18.78-8.57-46,0-11.84,1.63-21.91,4.49-29.39,1.08-4.35,2.72-8,5.44-10.75a12.45,12.45,0,0,1,2.58-2,13.71,13.71,0,0,0-2.31-.13c-18.77,0-37.28,24.21-37.28,48.84C109.42,193.1,121.94,213,145.07,213.78Z"/><path class="e1e0f26f-0c14-4bcc-ad33-9e2003853d24" d="M173.1,125.2c16.32,6.26,29.66,27.35,29.66,49.39-.14,15.65-6.94,25.44-12.52,30.75-.41.41-1,.82-1.36,1.22,14.83-5.3,26-15.51,26.12-30.34a53.66,53.66,0,0,0-13.33-35A49.62,49.62,0,0,0,173.1,125.2Z"/><path class="e1e0f26f-0c14-4bcc-ad33-9e2003853d24" d="M188.74,203.71c7.76-7.21,11.84-17.42,11.84-29.25.13-24.63-18.23-49-37-49.12h-1.63c8.71,4.76,14.15,20.54,14.15,42.31,0,27.49-3.27,40-8.16,45.72A36.19,36.19,0,0,0,188.74,203.71Z"/><path class="e1e0f26f-0c14-4bcc-ad33-9e2003853d24" d="M156.36,215.82c7.48,0,17.69,0,17.69-48,0-24.49-7.35-41.63-17.69-41.63s-17.69,17.14-17.69,41.63C138.67,212.14,147,215.82,156.36,215.82Z"/></svg>