<svg id="e443b9fd-bfbf-4fdc-85f2-40995efb6607" data-name="Layer 1" xmlns="http://www.w3.org/2000/svg" viewBox="0 0 1561 582"><defs><style>.b39f8d80-b720-469f-9ea8-e23626c4c3cf{fill:#e0c389;}.a6a4abe6-4f68-4d86-b018-a6310bf8fbbf,.be094110-3040-4e0c-a3c8-2eacccb86f14{font-size:42px;}.a6a4abe6-4f68-4d86-b018-a6310bf8fbbf,.a6e800ef-8a3c-47d8-b306-c364844bb311,.a83f5187-8170-4f33-85ec-aedef31f54d7,.b6c63f61-82b2-4061-b770-96f47a5b8aa2{fill:#8b0e3a;}.a6a4abe6-4f68-4d86-b018-a6310bf8fbbf,.a6e800ef-8a3c-47d8-b306-c364844bb311,.be094110-3040-4e0c-a3c8-2eacccb86f14,.e1a9eb8a-b35f-48c8-8573-727d67779ad8{font-family:Karla-Regular, Karla;}.a83f5187-8170-4f33-85ec-aedef31f54d7{font-size:61px;}.a83f5187-8170-4f33-85ec-aedef31f54d7,.bd2a1826-884f-4587-a3ad-a4a04ea5a50b{font-family:Karla-Bold, Karla;font-weight:700;}.be094110-3040-4e0c-a3c8-2eacccb86f14,.e1a9eb8a-b35f-48c8-8573-727d67779ad8{font-weight:400;}.b9b63589-92da-49df-8fdb-f17b79873440,.bebcdd36-ab85-4e39-9d50-5481b97b8fb0{fill:#f2e5d2;stroke:#8b0e3a;stroke-miterlimit:10;}.b9b63589-92da-49df-8fdb-f17b79873440{stroke-width:2.85px;}.bebcdd36-ab85-4e39-9d50-5481b97b8fb0{stroke-width:2.48px;}.a6e800ef-8a3c-47d8-b306-c364844bb311{font-size:30px;}</style></defs><rect id="a32b2f05-4b31-4ccd-9231-1a594a22c93a" data-name="Rect2" class="b39f8d80-b720-469f-9ea8-e23626c4c3cf" x="415.11" y="139.27" width="985.5" height="69" rx="12"/><rect id="bd56b904-5a11-42b8-b4f2-21a774bb6b57" data-name="Rect1" class="b39f8d80-b720-469f-9ea8-e23626c4c3cf" x="415.11" y="216.27" width="344.5" height="69" rx="12"/><text class="a6a4abe6-4f68-4d86-b018-a6310bf8fbbf" transform="translate(549.36 187.86)">2014</text><text class="a83f5187-8170-4f33-85ec-aedef31f54d7" transform="translate(1236.36 115.86)">$2100 <tspan class="be094110-3040-4e0c-a3c8-2eacccb86f14" x="193.37" y="0">/kg</tspan></text><text class="a83f5187-8170-4f33-85ec-aedef31f54d7" transform="translate(620.36 349.86)">$730 <tspan class="be094110-3040-4e0c-a3c8-2eacccb86f14" x="164.39" y="0">/kg</tspan></text><text class="a6a4abe6-4f68-4d86-b018-a6310bf8fbbf" transform="translate(549.36 264.86)">2017</text><path id="f2d64110-da8a-4a72-9be2-74b2b70353cb" data-name="Head" class="b6c63f61-82b2-4061-b770-96f47a5b8aa2" d="M405.66,163.47c-1-16.58-55.78-26.8-55.78-26.8-28.39-8.76-50.74-9.66-67.15-5.8-24.38,5.73-69.15,29.56-92.84,37.68-52.11,17.87-56.86,36.72-59.56,57.19-2.39,18.08-4,52.53-5.18,72.79-1.46,24.55,4.16,45.56,5.73,59.78a147.46,147.46,0,0,0,4.1,20.32c-5.47,3.22-9.85,5.3-9.88,5.33l-8.22,4.43L127,387c2.27-.76,5.7-1.73,9.51-2.81,4,13.82,9.35,28.13,14,36.94,29.72,56.5,56.7,55,56.7,55a31.23,31.23,0,0,0,16.58-1c13.09-4.6,28.7-17,27.36-35.19-2.23-30.23-16.74-17.4-29.18-7.33s-.38,14.34,0,18.16-23.87-9.88-31.91-24.57c-12.73-23.27-18.83-41.61-21.29-55.82a156.23,156.23,0,0,0,21.17-16.87c1.35-1.3,2.65-2.58,3.93-3.86a171,171,0,0,0,24-30.2l1.31-1.06c18.27-15.77,21.68-1,28.82-.08,5,.66,13.12-8.58,15.14-13.18,1.16-2.63.61-11.2-.33-19.71,3.36,19.75,10.05,47.23,21.44,49.06,23.12,3.72,54.7-26.57,64.63-43.3,3.84-6.46,10.26-28.24,10.26-28.24l13.15.42c21.51-.73,20.16-10,20.16-10-3.13-18.64,3.77-21.09,3.77-21.09C415.08,216.25,406.63,180,405.66,163.47ZM167.73,348.14c1.67-15.16,8.21-20.19,6.4-18.3,4.63-5.27,9.3-7.76,13.62-8.61C185.34,325.66,180.06,333.74,167.73,348.14Zm33.1-100.39c-4.94,4.59-13.19,1.69-7.71-7.48,2.49-4.18,7.32-6.51,18.49-6.06A63.34,63.34,0,0,1,200.83,247.75Z"/><g id="f3651dde-9e1b-4401-a9ab-dd515338a011" data-name="Money"><circle class="b9b63589-92da-49df-8fdb-f17b79873440" cx="384.11" cy="217.27" r="85.73"/><path class="b6c63f61-82b2-4061-b770-96f47a5b8aa2" d="M389.2,210.76h-9.59a8.18,8.18,0,0,1-8.29-7.39,8,8,0,0,1,8-8.49H389.7a8,8,0,0,1,7.69,6,2.55,2.55,0,0,0,2.39,1.89h8.79a2.49,2.49,0,0,0,2.5-2.79,21.6,21.6,0,0,0-19.78-18.58v-8.79a2.47,2.47,0,0,0-2.49-2.5h-8.59a2.48,2.48,0,0,0-2.5,2.5v8.69a21.59,21.59,0,0,0-20,22.77c.7,11.49,10.59,20.28,22.08,20.28h9.59a7.94,7.94,0,1,1,.2,15.88H379.31a7.94,7.94,0,0,1-7.69-6,2.55,2.55,0,0,0-2.4-1.9h-8.79a2.5,2.5,0,0,0-2.5,2.8,21.6,21.6,0,0,0,19.78,18.57v8.79a2.48,2.48,0,0,0,2.5,2.5h8.59a2.47,2.47,0,0,0,2.49-2.5v-8.69a21.58,21.58,0,0,0,20-22.77C410.57,219.55,400.68,210.76,389.2,210.76Z"/></g><rect class="bebcdd36-ab85-4e39-9d50-5481b97b8fb0" x="984" y="326" width="413" height="201"/><text class="a6e800ef-8a3c-47d8-b306-c364844bb311" transform="translate(1031.8 382.04)">The tusks of <tspan class="bd2a1826-884f-4587-a3ad-a4a04ea5a50b" x="174.63" y="0">one </tspan><tspan class="bd2a1826-884f-4587-a3ad-a4a04ea5a50b"><tspan x="0" y="36">elephant</tspan><tspan class="e1a9eb8a-b35f-48c8-8573-727d67779ad8" x="125.97" y="36" xml:space="preserve"> could be </tspan></tspan><tspan x="0" y="72">worth </tspan><tspan class="bd2a1826-884f-4587-a3ad-a4a04ea5a50b" x="86.1" y="72">more </tspan><tspan x="167.52" y="72">than </tspan><tspan class="bd2a1826-884f-4587-a3ad-a4a04ea5a50b" x="238.95" y="72">USD </tspan><tspan class="bd2a1826-884f-4587-a3ad-a4a04ea5a50b"><tspan x="0" y="108">100,000</tspan><tspan class="e1a9eb8a-b35f-48c8-8573-727d67779ad8" x="113.25" y="108" xml:space="preserve"> today</tspan></tspan></text></svg>