<svg id="bc9a59ad-9dad-41c6-834c-a1d1f9dcd7f6" data-name="b2042465-33c4-44b4-a2c4-3e3e12faca1c" xmlns="http://www.w3.org/2000/svg" viewBox="0 0 1842.7 596.71"><defs><style>.a5b94aeb-4b0a-43bb-95ce-e391e6263813{fill:#f2e5d2;stroke-width:2px;}.a5b94aeb-4b0a-43bb-95ce-e391e6263813,.b677da4d-b73f-4ca3-b870-e6c7b3b68ff5,.e8adcf3a-5b9d-4977-9bd5-c7e7c9c426ae,.f488a2df-f4b3-4b46-81d3-34bf73374008,.f85ce13f-dc07-4e01-968e-1a3ef134664b,.f879bd94-61e7-4f66-ad63-a1da18ada2f4{stroke:#8b0e3a;}.a5b94aeb-4b0a-43bb-95ce-e391e6263813,.f85ce13f-dc07-4e01-968e-1a3ef134664b{stroke-miterlimit:10;}.b0b4d91e-4e75-4367-9773-f217cc5acb37,.b6a314bb-ed2d-484c-910f-2b8036afa744,.f488a2df-f4b3-4b46-81d3-34bf73374008,.fb12aa11-229d-4fe9-aa35-fe239adee4e5{fill:#8b0e3a;}.aeb8f996-246f-4850-83a5-a3a20f4015a8,.b677da4d-b73f-4ca3-b870-e6c7b3b68ff5,.e8adcf3a-5b9d-4977-9bd5-c7e7c9c426ae,.f85ce13f-dc07-4e01-968e-1a3ef134664b{fill:none;}.b677da4d-b73f-4ca3-b870-e6c7b3b68ff5,.e8adcf3a-5b9d-4977-9bd5-c7e7c9c426ae,.f488a2df-f4b3-4b46-81d3-34bf73374008,.f879bd94-61e7-4f66-ad63-a1da18ada2f4{stroke-linecap:round;stroke-linejoin:round;}.b677da4d-b73f-4ca3-b870-e6c7b3b68ff5{stroke-width:0.75px;}.b6a314bb-ed2d-484c-910f-2b8036afa744{fill-rule:evenodd;}.f85ce13f-dc07-4e01-968e-1a3ef134664b{stroke-width:4px;}.f879bd94-61e7-4f66-ad63-a1da18ada2f4{fill-opacity:0;}.e8adcf3a-5b9d-4977-9bd5-c7e7c9c426ae,.f488a2df-f4b3-4b46-81d3-34bf73374008,.f879bd94-61e7-4f66-ad63-a1da18ada2f4{stroke-width:1.3px;}.a93bcd20-3820-415a-bcea-5afcedc4f6c2,.ab3e663a-1180-421e-90aa-2f56786318da,.b0b4d91e-4e75-4367-9773-f217cc5acb37{isolation:isolate;font-size:18px;}.ab3e663a-1180-421e-90aa-2f56786318da,.b0b4d91e-4e75-4367-9773-f217cc5acb37{font-family:Karla-Bold, Karla;font-weight:700;}.a93bcd20-3820-415a-bcea-5afcedc4f6c2{font-family:Karla-Regular, Karla;}</style></defs><g id="a439afe5-9a10-4c51-b71a-628c5722ef74" data-name="a201a6c6-e11f-4f5a-a1e5-fb96ed9549b7"><g id="a109b5ea-2b53-48d1-8068-66213927a4d7" data-name="a5b2ceba-32df-4bad-bee2-2a393d6169cd"><circle class="a5b94aeb-4b0a-43bb-95ce-e391e6263813" cx="214.8" cy="55.91" r="45" transform="translate(131.45 261.63) rotate(-82.53)"/></g><path class="fb12aa11-229d-4fe9-aa35-fe239adee4e5" d="M213.9,34.81a.45.45,0,0,1-.9-.1,16.24,16.24,0,0,1,.5-2.3,11.72,11.72,0,0,0-6.8.6,24.66,24.66,0,0,0-5.8,3.6c-.8.6-1.8,1.4-2.8,2.1-3.9,2.9-8.5,6.4-10.2,9.9a22.7,22.7,0,0,0-2.2,7.2,22.4,22.4,0,0,0,.7,7.9.41.41,0,0,1-.8.2,24.11,24.11,0,0,1-.7-8.2,22.39,22.39,0,0,1,2.3-7.5c1.8-3.7,6.5-7.2,10.5-10.2,1-.7,1.9-1.4,2.8-2.1a24.09,24.09,0,0,1,6-3.7,12.44,12.44,0,0,1,7.5-.7,7.3,7.3,0,0,1,2.2-2.7,10.3,10.3,0,0,1,3.2-1.5A10.92,10.92,0,0,1,223,27a8.6,8.6,0,0,1,6.2,3.2,6.65,6.65,0,0,1,1.4,3.2,10.67,10.67,0,0,1-.2,3.9l-.1.2a2.9,2.9,0,0,0,.2,2.7,10.14,10.14,0,0,0,.8,1.4,8,8,0,0,1,1.5,5.2,12.23,12.23,0,0,0,1,5.6v.1c.2,0,.3-.1.5-.1a6,6,0,0,0,.8-.3,10.49,10.49,0,0,0,2.8-1.4,6.9,6.9,0,0,0,2.7-3.5,7,7,0,0,0-.1-4.3,9.92,9.92,0,0,0-1.3-2.5c-.1-.2-.1-.5.1-.6s.5-.1.6.1a11.73,11.73,0,0,1,1.4,2.7,7.81,7.81,0,0,1,.4,3,12.74,12.74,0,0,1-1.3,5.1,10,10,0,0,1-3.7,3.9,10.59,10.59,0,0,1-1.1.6c-.2.1-.5.2-.7.3,0,.1,0,.1.1.2a7.24,7.24,0,0,0,.4,1.1,9,9,0,0,0,5-.5,8.63,8.63,0,0,0,1.9-1,7.82,7.82,0,0,0,3.5-4.4,8.65,8.65,0,0,0-.3-5.7,11.05,11.05,0,0,0-1.1-2.1c-.1-.2-.1-.5.1-.6s.5-.1.6.1a7.87,7.87,0,0,1,1.1,2.3,9.91,9.91,0,0,1,.7,4.1,14,14,0,0,1-1.3,5.7,10.82,10.82,0,0,1-3.7,4.4,10,10,0,0,1-5.7,1.6,19.69,19.69,0,0,1,.2,4.2,12.8,12.8,0,0,1-1.4,4.6,5.1,5.1,0,0,1-3.2,2.7,4.36,4.36,0,0,1-2-.1,3.5,3.5,0,0,1-1.6-1.1,3.8,3.8,0,0,1-.9-3.5c0-.2.3-.4.5-.4s.4.3.4.5a3.23,3.23,0,0,0,.7,2.8,2.33,2.33,0,0,0,1.2.8,3.62,3.62,0,0,0,1.5.1,4.14,4.14,0,0,0,2.7-2.3,13.49,13.49,0,0,0,1.3-4.2,19.69,19.69,0,0,0-.2-4.2h-.2a16.56,16.56,0,0,1-4.4-.9,2.73,2.73,0,0,1-.8,2.2,2.3,2.3,0,0,0-.6,2c0,.2-.1.5-.3.5s-.5-.1-.5-.3a3.14,3.14,0,0,1,.7-2.6,2.21,2.21,0,0,0,.5-2.1c-.6-.2-1.1-.5-1.6-.7a4,4,0,0,1-.4,1.9,2.89,2.89,0,0,0-.2,2.1.41.41,0,1,1-.8.2,3.48,3.48,0,0,1,.2-2.7,2.59,2.59,0,0,0,.1-2.3.3.3,0,0,1,0-.4.37.37,0,0,1,.51-.16l.09.06a17.37,17.37,0,0,0,7.4,2.4,9.28,9.28,0,0,0,6.2-1.4,11.31,11.31,0,0,0,3.4-4h0a10.52,10.52,0,0,1-2.2,1.9,10.12,10.12,0,0,1-2.1,1c-5.2,2-8.9-.6-12.1-2.8-.1,0,.1.1-.4-.3-.2-.1-.2-.4-.1-.6s.4-.2.6-.1.1.1.4.3a19.13,19.13,0,0,0,5.3,2.9c-.1-.2-.1-.4-.2-.6s-.1-.3-.2-.5l-.1-.1v-.1c0-.1-.1-.2-.1-.3-.3-.9-.6-1.6-.8-2.1a12,12,0,0,1-1.1-5.9,7.28,7.28,0,0,0-1.3-4.7,5,5,0,0,1-.8-1.5,3.87,3.87,0,0,1-.3-3.3c0-.1,0-.2.1-.2a8.61,8.61,0,0,0,.2-3.5,6,6,0,0,0-1.2-2.8,8.3,8.3,0,0,0-5.6-2.9,12.2,12.2,0,0,0-3.3.2,7.89,7.89,0,0,0-2.9,1.4,7,7,0,0,0-2.6,5Zm12.7,7.8a.45.45,0,0,1-.4-.8,3.1,3.1,0,0,1,2.1-.2,3,3,0,0,1,1.7,1.1c.1.2.1.5-.1.6s-.5.1-.6-.1a2,2,0,0,0-1.2-.8A2.66,2.66,0,0,0,226.6,42.61Zm-41.3,6.1a.42.42,0,1,1,.6.6,10.34,10.34,0,0,0-1.8,4.1,21.48,21.48,0,0,0-.3,6.3.68.68,0,0,1-.4.5c-.2.1-.4-.2-.5-.4a23.57,23.57,0,0,1,.3-6.6,10,10,0,0,1,2.1-4.5Zm11,27.4a.37.37,0,0,1,.1.3,2,2,0,0,0,.9.9,3.37,3.37,0,0,0,2,.3,3.55,3.55,0,0,0,1.9-1c1.3-1.3.8-3.4.6-4.5h0a.41.41,0,1,1,.8-.2h0c.3,1.3.8,3.7-.8,5.3a5,5,0,0,1-2.4,1.2,3.89,3.89,0,0,1-2.6-.3,6.68,6.68,0,0,1-.8-.6h0l-.6.9a5,5,0,0,1-2.4,1.2,3.89,3.89,0,0,1-2.6-.3,3,3,0,0,1-1.3-1.4,4.69,4.69,0,0,1-.3-1.7,13.62,13.62,0,0,1,.4-2,17.55,17.55,0,0,0,.8-4.6.4.4,0,0,1,.8,0h0a19.43,19.43,0,0,1-.9,4.9,12.31,12.31,0,0,0-.4,1.8,3.24,3.24,0,0,0,.3,1.4,2.88,2.88,0,0,0,.9,1,3.37,3.37,0,0,0,2,.3,3.55,3.55,0,0,0,1.9-1,1.84,1.84,0,0,0,.5-.7,1.42,1.42,0,0,0,.2-.6,9.4,9.4,0,0,1-.1-3.7v-.3a.45.45,0,0,1,.9.1v.3a16.75,16.75,0,0,0,.2,3Zm19.4-9.6a19.11,19.11,0,0,0-.7,2.8c-.3,1.5-.5,3.2-.6,4.3,0,.2-.1.4-.1.6a.22.22,0,0,1,.2.2,2.39,2.39,0,0,0,.9.8,3,3,0,0,0,3.5-1,4.11,4.11,0,0,0,.7-2.5,13.45,13.45,0,0,0-.2-1.9,18.49,18.49,0,0,1-.1-5.2.38.38,0,0,1,.43-.32l.07,0c.2.1.4.3.3.5a16.43,16.43,0,0,0,.1,4.9c.1.7.1,1.4.2,1.9a4.67,4.67,0,0,1-.8,3.1,4,4,0,0,1-4.5,1.3,4.37,4.37,0,0,1-1.1-.8l-.3.6a3.62,3.62,0,0,1-1.6,1.4,4.14,4.14,0,0,1-2.9.1,3.74,3.74,0,0,1-2.3-1.7,2.85,2.85,0,0,1-.4-1.2,2.6,2.6,0,0,1,.2-1.2c.3-.6.6-1.3.8-1.8a12.7,12.7,0,0,0,.6-1.7c.1-.2.3-.4.5-.3s.4.3.3.5c-.1.4-.4,1-.6,1.7a14.41,14.41,0,0,1-.8,1.9,1.66,1.66,0,0,0-.1.7,2.59,2.59,0,0,0,2.1,2.2,3.62,3.62,0,0,0,2.3,0,3.38,3.38,0,0,0,1.3-1.1,4.79,4.79,0,0,0,.6-1.8c.1-1.2.3-2.8.6-4.4a18.44,18.44,0,0,1,.8-3V66c.9-1.6.5-2.8.1-4.1a7.45,7.45,0,0,1-.4-3,.45.45,0,1,1,.9.1,6.37,6.37,0,0,0,.4,2.7C216.3,63.21,216.7,64.61,215.7,66.51Zm-20.5-1.9a.46.46,0,0,1,.58-.27.45.45,0,0,1,.26.58.36.36,0,0,1,0,.09,10.74,10.74,0,0,0-1,3.6,21.66,21.66,0,0,0,.1,3.6.68.68,0,0,1-.4.5c-.2.1-.4-.2-.5-.4a15.27,15.27,0,0,1,0-3.7,10.26,10.26,0,0,1,1-4Zm-1.9-2.5a.46.46,0,0,1,.58-.27.45.45,0,0,1,.26.58.36.36,0,0,1,0,.09,10.74,10.74,0,0,0-1,3.6,21.66,21.66,0,0,0,.1,3.6.68.68,0,0,1-.4.5c-.2.1-.4-.2-.5-.4a15.27,15.27,0,0,1,0-3.7,9,9,0,0,1,1-4Zm-2.1-3.5a.46.46,0,0,1,.58-.27.45.45,0,0,1,.26.58.36.36,0,0,1,0,.09,9.23,9.23,0,0,0-1.2,4.2,21.87,21.87,0,0,0,.2,4.5c0,.2-.1.5-.4.5s-.5-.1-.5-.4a23.84,23.84,0,0,1-.2-4.7,11.45,11.45,0,0,1,1.3-4.5Zm-2.2-3.2a.46.46,0,0,1,.58-.27.45.45,0,0,1,.26.58.36.36,0,0,1,0,.09,11.39,11.39,0,0,0-1.4,5.1,32.49,32.49,0,0,0,.3,5.4c0,.2-.1.5-.4.5s-.5-.1-.5-.4a35,35,0,0,1-.3-5.6,11.89,11.89,0,0,1,1.5-5.4Zm8.2,9.2a.45.45,0,1,1,.9.1,6.37,6.37,0,0,0,.4,2.7c.5,1.7,1,3.3-.8,5.6-.1.2-.4.2-.6.1s-.2-.4-.1-.6c1.5-1.9,1-3.4.6-4.9a7.45,7.45,0,0,1-.4-3Zm2.5-.8a.45.45,0,1,1,.9.1,6.37,6.37,0,0,0,.4,2.7c.5,1.7,1,3.3-.8,5.6-.1.2-.4.2-.6.1s-.2-.4-.1-.6c1.5-1.9,1-3.4.6-4.9a7.45,7.45,0,0,1-.4-3Zm2.5-.8a.45.45,0,1,1,.9.1,6.37,6.37,0,0,0,.4,2.7c.5,1.7,1,3.3-.8,5.6-.1.2-.4.2-.6.1s-.2-.4-.1-.6c1.5-1.9,1-3.4.6-4.9a7.45,7.45,0,0,1-.4-3Zm2.5-.8a.45.45,0,1,1,.9.1h0A6.37,6.37,0,0,0,206,65c.5,1.7,1,3.3-.8,5.6-.1.2-.4.2-.6.1s-.2-.4-.1-.6c1.5-1.9,1-3.4.6-4.9a6.14,6.14,0,0,1-.4-3Zm2.5-.8a.45.45,0,1,1,.9.1,6.37,6.37,0,0,0,.4,2.7c.5,1.7,1,3.3-.8,5.6-.1.2-.4.2-.6.1s-.2-.4-.1-.6c1.5-1.9,1-3.4.6-4.9a6.14,6.14,0,0,1-.4-3Zm2.5-.8a.45.45,0,1,1,.9.1h0a6.37,6.37,0,0,0,.4,2.7c.5,1.7,1,3.3-.8,5.6-.1.2-.4.2-.6.1s-.2-.4-.1-.6c1.5-1.9,1-3.4.6-4.9a6.14,6.14,0,0,1-.4-3Zm2.5-.8a.45.45,0,1,1,.9.1h0a6.37,6.37,0,0,0,.4,2.7c.5,1.7,1,3.3-.8,5.6-.1.2-.4.2-.6.1s-.2-.4-.1-.6c1.5-1.9,1-3.4.6-4.9A6.14,6.14,0,0,1,212.2,59.81Zm5-1.7a.45.45,0,1,1,.9.1h0a6.37,6.37,0,0,0,.4,2.7,5.36,5.36,0,0,1,0,4.3.46.46,0,0,1-.58.27.45.45,0,0,1-.26-.58.36.36,0,0,1,0-.09,4.71,4.71,0,0,0-.1-3.7,5.71,5.71,0,0,1-.4-3Zm5.1-1.5c-.1-.2-.1-.5.1-.6s.5-.1.6.1a3,3,0,0,1,.3,3.1,2.44,2.44,0,0,0,.1,2.2.45.45,0,0,1-.8.4,3.32,3.32,0,0,1-.2-2.9A1.81,1.81,0,0,0,222.3,56.61Zm2.7.6a.45.45,0,0,1,.8-.4,2.89,2.89,0,0,1,0,3,2.21,2.21,0,0,0-.1,2.1.45.45,0,0,1-.8.4,3.34,3.34,0,0,1,.1-2.8A2.65,2.65,0,0,0,225,57.21Zm6.5,4.1c0-.2.1-.5.4-.5s.5.1.5.4a3.14,3.14,0,0,1-1,2.8,2.41,2.41,0,0,0-.8,1.9.45.45,0,1,1-.9.1h0a3.59,3.59,0,0,1,1-2.6A2.28,2.28,0,0,0,231.5,61.31Zm1,2.3a.45.45,0,0,1,.9-.1,3,3,0,0,1-1.3,2.7A2.79,2.79,0,0,0,231,68a.4.4,0,0,1-.8,0,3.24,3.24,0,0,1,1.3-2.5A2,2,0,0,0,232.5,63.61Zm.6,2.9a.4.4,0,1,1,.8,0,3,3,0,0,1-1.6,2.6,3.84,3.84,0,0,0-1.1,1.1.46.46,0,0,1-.58.27.45.45,0,0,1-.26-.58.36.36,0,0,1,0-.09,3.58,3.58,0,0,1,1.3-1.4,2.23,2.23,0,0,0,1.4-1.9Zm-5.4-23a2.16,2.16,0,0,1,1.2.4,1.31,1.31,0,0,1,.39,1.81,1.21,1.21,0,0,1-.39.39,2.45,2.45,0,0,1-1.2.4,2.16,2.16,0,0,1-1.2-.4,1.31,1.31,0,0,1-.39-1.81,1.21,1.21,0,0,1,.39-.39,2.16,2.16,0,0,1,1.2-.4Zm.7,1.1a1.31,1.31,0,0,0-1.4,0,.5.5,0,0,0-.1.7l.1.1a1.31,1.31,0,0,0,1.4,0,.5.5,0,0,0,.1-.7Zm-8.7,12.7a.45.45,0,1,1,.9.1h0a6.37,6.37,0,0,0,.4,2.7,6.84,6.84,0,0,1,.3,3.5c-.1.2-.3.4-.5.3s-.4-.3-.3-.5a5.48,5.48,0,0,0-.3-3.1,4.94,4.94,0,0,1-.5-3Zm-1.6-12a.4.4,0,0,1,.8,0,6.11,6.11,0,0,0,.9,3.2,9.09,9.09,0,0,1,.9,6.5c0,.2-.3.4-.5.4s-.4-.3-.4-.5A8.63,8.63,0,0,0,219,49,7,7,0,0,1,218.1,45.31Zm-8-9.6c0-.2.3-.4.5-.4s.4.3.4.5l-.9,5.7c0,.2-.3.4-.5.4s-.4-.3-.4-.5Zm1.8.4c0-.2.3-.4.5-.4s.4.3.4.5l-.8,4.7c0,.2-.3.4-.5.4s-.4-.3-.4-.5Zm1.7.1a.45.45,0,1,1,.9.1h0l-.6,4.2a.45.45,0,0,1-.9-.1Zm1.8.1a.45.45,0,1,1,.9.1l-.4,3.2a.45.45,0,0,1-.9-.1h0Zm8.5,2.3a.4.4,0,0,1,.4-.4.39.39,0,0,1,.4.4h0l-.3,8a.4.4,0,1,1-.8,0Zm-1.9.3a.4.4,0,0,1,.8,0l-.1,6.7a.4.4,0,0,1-.4.4.39.39,0,0,1-.4-.4h0Zm-1.7-.2a.46.46,0,0,1,.5-.4c.3,0,.4.2.4.5l-.3,5.9a.45.45,0,0,1-.9-.1Zm-1.8-.1a.45.45,0,1,1,.9.1l-.3,4.5a.45.45,0,0,1-.9-.1h0ZM234,53.51a5.74,5.74,0,0,0,.5,1.2v.1c.2-.1.5-.2.7-.3a4.68,4.68,0,0,0,1-.5,9.24,9.24,0,0,0,3.3-3.5,10.72,10.72,0,0,1-4.2,2.5l-.9.3A.52.52,0,0,1,234,53.51Z" transform="translate(0 0)"/><g id="abc20dce-ad61-4d24-8a06-62bec87b8c74" data-name="bf3fa57e-c76b-42ef-a95e-8b950ab6f99a"><circle class="a5b94aeb-4b0a-43bb-95ce-e391e6263813" cx="493.3" cy="55.91" r="45"/></g><path class="fb12aa11-229d-4fe9-aa35-fe239adee4e5" d="M480.9,49.71c-3.6,0-3.5,4.4-6.5,6.8-2.2,1.6-2.4,9.8-1.7,15a49.57,49.57,0,0,1-.3,11.8c0,.4-.2,2.5.6,3.4a1.45,1.45,0,0,0,2.05.05l.05-.05c.8-.9,0-1.3.9-3.8.7-2,1.5-11.3,1.8-14.4a1.09,1.09,0,0,0,.5.1c.7,0,.9-.5,1-1.2v-.3a2.72,2.72,0,0,1,1.2.1,5.2,5.2,0,0,0,3.5-.1c.2-.1.5-.2.6-.1.5.3.6,1.3,1.6,2.7s.3,3.7-.3,6.3-1.2,5.1-.8,7.3v.1c.1.6.2.9-.9,1.4a.86.86,0,0,0-.5.9c.2.9,1.9,1.6,3.9,1.6,2.7,0,3.2-1.4,2.8-2.5-.8-2.4,0-7.6,1.8-10.3.4,1.6,1.2,4.3,1.5,6a4.56,4.56,0,0,0,3.8,3.6l1.3,2.7c.1,0,3.7,1.4,4.5-4.6a2.15,2.15,0,0,0-1.86-2.39h-.34c-.8,0-2.1-.5-2.2-1.4a3,3,0,0,0-.1-.9c-.1-1-.3-3.8.3-4.3,1.9-1.3,4.5,1,6,2.8a2,2,0,0,1,.6,1.5c0,1.3,0,4.5-1.6,5.6-.9.7-1.3,1.3-1.1,2,.5,1.6,4.2,1.4,5.9,1.2,1.5-.2,1.5-1.5,1.6-2.2,0-1.1.7-1,0-3-.5-1.4.1-4.1,1.1-5.5.3-.5.7-.8,1.2-.5a8.38,8.38,0,0,1,3,9.9,4.63,4.63,0,0,0,3.6,1.6c.9,0,3.3-.5,3.6-1.4.2-.4.2-1.3-1.1-4-1.4-3-.9-3.8-.6-5.3a22.56,22.56,0,0,0,0-4.5,32.3,32.3,0,0,1,0-4.4c.3-3.1.7-7.3-2-10.5-1.9-2.3-5.2-3.6-9.7-3.9a6.6,6.6,0,0,1-4.1-1.8V40.71h9.9V40a10.5,10.5,0,1,0-21,0v.7h9.8v9.4a8.12,8.12,0,0,0-3.7-.7,12,12,0,0,0-1.9.1v-1.7l1.8-.3,1.8-5.3-1.2-.4-1.6,4.5-5.5.8.2,1.3,3.2-.4v1.7c-1.4.2-2.8.5-4.1.8a18.83,18.83,0,0,1-4.6.7h0C485,51.21,482.9,49.71,480.9,49.71Zm24.6-10.3V31a3.59,3.59,0,0,1,1.9,1.8h-1.1v1.3h1.8c.2.4.3.9.5,1.3h-1.4v1.3h1.7a11.12,11.12,0,0,1,.3,2.7Zm6.1-5.5h-.8v1.3h1.8a9.52,9.52,0,0,1,1.4,4.2h-3.6v-.7h1.8v-1.3h-2a12.11,12.11,0,0,0-2.2-5.9,8.38,8.38,0,0,1,3.6,2.4Zm-15.9,5.5c0-.4.1-.7.1-1.1h2V37h-1.6a9.45,9.45,0,0,1,5.4-5.5,10.24,10.24,0,0,0-1.3,2.3h-1.8v1.3h1.3a14.19,14.19,0,0,0-.6,4.3Zm5.9-5.3h1.7v-1.3h-1a4.58,4.58,0,0,1,1.9-1.8v6h-1.8v1.3h1.8v1.1h-3.6a14.17,14.17,0,0,1,1-5.3Zm2.8,17.7c.6.4,1.1.8,1.5,1.1v.9h-.3v1.3h.3v2.3h-.3v1.3h.3V61h-.3v1.3h.3v2.4H493.4v-2.4h.3V61h-.3v-2.3h.3v-1.3h-.3v-2.3h.3v-1.3h-.3v-2.1a33.11,33.11,0,0,1,7-1A7.07,7.07,0,0,1,504.4,51.81Zm-15.9.7a21.8,21.8,0,0,0,3.6-.4v14.1h15.2V53.61a9.75,9.75,0,0,0,2.2.5c4.2.3,7.1,1.4,8.8,3.4,2.3,2.7,1.9,6.6,1.7,9.5a17.71,17.71,0,0,0,0,4.6,18.37,18.37,0,0,1-.1,4.8c-.3,1.2-.6,2.5.9,5.5a7,7,0,0,1,1,2.8,5.65,5.65,0,0,1-2.4.7,3.45,3.45,0,0,1-2.1-.7,9.56,9.56,0,0,0-3.7-10.6,2,2,0,0,0-2.79.44,2.12,2.12,0,0,0-.21.36,8.59,8.59,0,0,0-1.3,6.7c.6,1.7-.1.9-.1,2.5,0,.8-.1.9-.4.9-1,.1-3.7.3-4.4-.3,0-.1.2-.3.6-.5,2-1.4,2.2-4.8,2.1-6.7a3.38,3.38,0,0,0-.9-2.3c-2-2.4-5.1-4.8-7.7-3-1.2.8-1.1,3-.9,5.5,0,.3.1.6.1.9.1,1.7,1.8,2.6,3.4,2.6.6,0,1,.3.9.9-.3,2.3-1.1,3.6-2.3,3.6l-1.3-2.8c-.1,0-2.9-.1-3.3-2.6a60.83,60.83,0,0,0-1.9-7.4l-.3-1.1-.8.8c-2.6,2.6-3.9,9.4-2.9,12.6.2.7-.8.8-1.6.8a5.6,5.6,0,0,1-2.1-.4,2.18,2.18,0,0,0,.9-2.5c-.4-1.9.2-4.4.8-6.7.7-2.9,1.4-5.7.1-7.4-1-1.4-1-2.5-2-3.1-1.3-.8-1.9.8-4.4.1a8.17,8.17,0,0,0-1.3-.2,1.48,1.48,0,0,0-1.6,1.33v.07a.76.76,0,0,0-.4-.2l-.9-.6-.1,1.1c-.3,3.5-1.1,13.1-1.8,15-.9,2.5-.3,3.4-.7,3.4a4.12,4.12,0,0,1-.3-2.4,46.69,46.69,0,0,0,.3-12.1c-.8-5.8-.2-12.7,1.2-13.8,3.4-2.6,3.1-6.5,5.7-6.5,1.5-.1,3.8,1.4,7.5,1.4Z" transform="translate(0 0)"/><path class="fb12aa11-229d-4fe9-aa35-fe239adee4e5" d="M478,57.31a1.8,1.8,0,1,0,1.8,1.8h0a1.68,1.68,0,0,0-1.55-1.8A1,1,0,0,0,478,57.31Zm0,2.3a.5.5,0,1,1,.5-.5C478.6,59.41,478.3,59.61,478,59.61Z" transform="translate(0 0)"/><path class="fb12aa11-229d-4fe9-aa35-fe239adee4e5" d="M481.8,59.71c0,2.5,1.6,4.5,3.6,4.5s3.6-2,3.6-4.5-1.6-4.5-3.6-4.5v1.3c1.3,0,2.3,1.4,2.3,3.2s-1,3.2-2.3,3.2-2.3-1.4-2.3-3.2Z" transform="translate(0 0)"/><rect class="fb12aa11-229d-4fe9-aa35-fe239adee4e5" x="502.2" y="53.91" width="2.1" height="1.3"/><rect class="fb12aa11-229d-4fe9-aa35-fe239adee4e5" x="495.2" y="53.91" width="2.1" height="1.3"/><rect class="fb12aa11-229d-4fe9-aa35-fe239adee4e5" x="498.7" y="53.91" width="2.1" height="1.3"/><rect class="fb12aa11-229d-4fe9-aa35-fe239adee4e5" x="495.2" y="57.51" width="2.1" height="1.3"/><rect class="fb12aa11-229d-4fe9-aa35-fe239adee4e5" x="502.2" y="57.51" width="2.1" height="1.3"/><rect class="fb12aa11-229d-4fe9-aa35-fe239adee4e5" x="498.7" y="57.51" width="2.1" height="1.3"/><rect class="fb12aa11-229d-4fe9-aa35-fe239adee4e5" x="495.2" y="61.11" width="2.1" height="1.3"/><rect class="fb12aa11-229d-4fe9-aa35-fe239adee4e5" x="498.7" y="61.11" width="2.1" height="1.3"/><rect class="fb12aa11-229d-4fe9-aa35-fe239adee4e5" x="502.2" y="61.11" width="2.1" height="1.3"/><rect class="fb12aa11-229d-4fe9-aa35-fe239adee4e5" x="473.8" y="40.71" width="1.6" height="1.3"/><path class="fb12aa11-229d-4fe9-aa35-fe239adee4e5" d="M488.3,29.91a3,3,0,0,1,.8,2.2h.7l.6.1a3.28,3.28,0,0,1,1.3-2,1.89,1.89,0,0,1,1.7.3l.7-1.1a3.1,3.1,0,0,0-2.9-.4,2.91,2.91,0,0,0-1.2,1,2.68,2.68,0,0,0-.9-1.2,2.88,2.88,0,0,0-2.9-.3l.4,1.3A2,2,0,0,1,488.3,29.91Z" transform="translate(0 0)"/><path class="fb12aa11-229d-4fe9-aa35-fe239adee4e5" d="M518.7,30.51l.7.1a2.06,2.06,0,0,1,.7-1.4,1.45,1.45,0,0,1,1.1.1l.5-1.2a2.26,2.26,0,0,0-2.3,0,4.44,4.44,0,0,0-.7.6c-.2-.2-.4-.5-.7-.6a2.26,2.26,0,0,0-2.3,0l.5,1.2a1.45,1.45,0,0,1,1.1-.1,2.06,2.06,0,0,1,.7,1.4Z" transform="translate(0 0)"/><path class="fb12aa11-229d-4fe9-aa35-fe239adee4e5" d="M466.3,51.31l.7.1c0-.3.2-1.2.7-1.4a1.45,1.45,0,0,1,1.1.1l.5-1.2a2.26,2.26,0,0,0-2.3,0,4.44,4.44,0,0,0-.7.6c-.2-.2-.4-.5-.7-.6a2.26,2.26,0,0,0-2.3,0l.5,1.2a1.45,1.45,0,0,1,1.1-.1,2.06,2.06,0,0,1,.7,1.4Z" transform="translate(0 0)"/><path class="fb12aa11-229d-4fe9-aa35-fe239adee4e5" d="M517.2,66.61l1.3.2c.8-4.6-1-7.4-2.6-8.9l-.9,1C517,60.81,517.7,63.41,517.2,66.61Z" transform="translate(0 0)"/><path class="fb12aa11-229d-4fe9-aa35-fe239adee4e5" d="M514.2,58.21l.8-1.1a11.24,11.24,0,0,0-3-1.6l-.4,1.3A11.25,11.25,0,0,1,514.2,58.21Z" transform="translate(0 0)"/><path class="fb12aa11-229d-4fe9-aa35-fe239adee4e5" d="M465.7,34.91a4.35,4.35,0,0,0,1.3,3,2.6,2.6,0,0,0-.2,1.2,3,3,0,0,0,3,3h2.4v-1.4h-2.4a1.7,1.7,0,1,1,0-3.4h2.4l.1-.6a3.51,3.51,0,0,1,7,0l.1.6h2.4a1.7,1.7,0,0,1,0,3.4h-4.2V42h4.2a3,3,0,1,0,0-6h-1.2a4.92,4.92,0,0,0-4.8-3.8,4.68,4.68,0,0,0-2.4.6,3.92,3.92,0,0,0-3.5-2.1A4.21,4.21,0,0,0,465.7,34.91Zm4.1-2.8a2.74,2.74,0,0,1,2.5,1.6A4.82,4.82,0,0,0,471,36h-1.2a3,3,0,0,0-2,.8,2.76,2.76,0,0,1-.8-1.9,2.8,2.8,0,0,1,2.8-2.8Z" transform="translate(0 0)"/><rect class="fb12aa11-229d-4fe9-aa35-fe239adee4e5" x="469.1" y="26.11" width="1.3" height="3"/><rect class="fb12aa11-229d-4fe9-aa35-fe239adee4e5" x="464.01" y="28.29" width="1.3" height="3" transform="translate(115.09 337.35) rotate(-45.01)"/><rect class="fb12aa11-229d-4fe9-aa35-fe239adee4e5" x="461" y="34.21" width="3" height="1.3"/><rect class="fb12aa11-229d-4fe9-aa35-fe239adee4e5" x="463.08" y="39.35" width="3" height="1.3" transform="translate(107.79 340.23) rotate(-45)"/><rect class="fb12aa11-229d-4fe9-aa35-fe239adee4e5" x="473.37" y="29.08" width="3" height="1.3" transform="translate(118.06 344.5) rotate(-45)"/><g id="e33e7c58-5ded-4b7a-a055-3ae8a2c728e5" data-name="b4671898-2dc0-44e8-9c3e-7b3c2dbed4e1"><circle class="a5b94aeb-4b0a-43bb-95ce-e391e6263813" cx="771.8" cy="55.91" r="45"/></g><path class="fb12aa11-229d-4fe9-aa35-fe239adee4e5" d="M802.1,82.11l-6-13.9a8.63,8.63,0,0,0-6.3-5.1,101.69,101.69,0,0,0-12.9-1.6l.3-1.5a14.08,14.08,0,0,1,.9-3.5c.9-.9,5.3-2.4,8.8-3.6,2.9-1,5.5-1.9,7.3-2.7,2.8-1.3,3.5-3.1,3.6-4.3a1,1,0,0,0-.89-1.1.74.74,0,0,0-.21,0l-1.8.1h-15l-1-1a3,3,0,0,0-2-.8h-3.4l-6.9-20.5a.88.88,0,0,0-.8-.5.87.87,0,0,0-.6.7l.5,18.7c-1.3-3.4-3.2-11.5-4.6-18.8a.76.76,0,0,0-.7-.6h0a.74.74,0,0,0-.7.5c-.1.6-3.5,14-1.8,21.9a27.8,27.8,0,0,0-18.8,26.4,26,26,0,0,0,.9,6.8l-1.8,4.4a.6.6,0,0,0,.23.83.51.51,0,0,0,.17.07c.1,0,.2.1.3.1a1,1,0,0,0,.7-.4l5.6-13.4a7.57,7.57,0,0,1,2.7-3.2c.6,1.7,2,5.9,3.4,10.3v.1l-2.6,5.6a.6.6,0,0,0,.23.83.51.51,0,0,0,.17.07c.1,0,.2.1.3.1a.68.68,0,0,0,.6-.4l1.9-4.2c.4,1.4.7,2.8,1,4.1a.87.87,0,0,0,.7.6h.2a.71.71,0,0,0,.5-.88v0c-1.5-6.4-4.3-14.5-5.1-16.8a4.9,4.9,0,0,1,1.3-.4h.1a19.9,19.9,0,0,0,10.3,13.2v4.2a.67.67,0,0,0,.66.7h7.34a.67.67,0,0,0,.7-.66v-2h.2a19.9,19.9,0,0,0,19.5-16,.63.63,0,0,1,.4.1l1.1.3c-.6,1.7-3.6,10.6-5.2,17.4a.81.81,0,0,0,.5.9h.2a.73.73,0,0,0,.7-.6c.3-1.5.8-3.1,1.2-4.7l2.4,4.9a.62.62,0,0,0,.6.4.37.37,0,0,0,.3-.1.69.69,0,0,0,.35-.91l-.05-.09-3.1-6.3c1.4-4.7,2.8-9,3.3-10.4a7.49,7.49,0,0,1,2.8,3.3l6,13.9a.67.67,0,0,0,.7.4.37.37,0,0,0,.3-.1C802.1,82.91,802.3,82.51,802.1,82.11Zm-17.4-18.3a15.32,15.32,0,0,1-15,12.1h-.2v-3.8c4.5-.4,6.2-5,7.1-9.1C779.9,63.21,782.5,63.51,784.7,63.81Zm-12.6-20.7h-4.9l-.4-15.6Zm-11.6-16.7c.4,2,.9,4.6,1.6,7.1,2.6,11,3.8,11,4.5,11h10.5a1.29,1.29,0,0,1,1,.4l1.2,1.2a.72.72,0,0,0,.5.2h15.3l1.4-.1a4.31,4.31,0,0,1-2.7,2.7q-3.48,1.47-7.1,2.6c-5.2,1.7-8.4,2.9-9.4,4-.6.6-.8,1.9-1.3,4.3-.8,4.4-1.9,10.2-6.2,10.8V53.71a.67.67,0,0,0-.66-.7h0c-.1,0-6.8.1-7.3-4.5a.47.47,0,0,0-.1-.3l-.2-.2a6,6,0,0,1-1.7-3.1C758.2,39.71,759.5,31.11,760.5,26.41Zm.3,46.6a15.55,15.55,0,0,1-5.9-8.7c2-.3,4.3-.7,6.6-.9-.4,3.2-.6,6.6-.7,9.6Zm-9.9-9.5c2-5.9,5.5-10.8,9.6-13.5l.3.6c-2.8,2.8-5.2,7.2-6.8,12.4h0c-1.2.2-2.2.4-3.1.5Zm4.6-.7a28.8,28.8,0,0,1,6.1-11c.1.2.3.3.5.5a32.09,32.09,0,0,0-4,10.1,20.94,20.94,0,0,0-2.6.4Zm6.2-.9-2.1.3a33.12,33.12,0,0,1,3.6-9.1c.1.1.2.1.3.2a46.63,46.63,0,0,0-1.8,8.6Zm-21.1,9a26.29,26.29,0,0,1,17.8-25,3.77,3.77,0,0,0,.5,1.1c-8.1,3.8-14.1,12.5-15.3,22.4l-2.5,6a21.32,21.32,0,0,1-.5-4.5Zm5-4.8c2-8,7.2-14.7,14-17.8.1.1.2.3.3.4-4.7,3-8.5,8.5-10.6,15.2a8.69,8.69,0,0,0-3.7,2.2Zm6.2-1.3c.5-.1,1.1-.2,1.7-.3a16.76,16.76,0,0,0,7.3,10.2v2a19,19,0,0,1-9-11.9Zm10.4,13.1h0c0-6.3.5-17.6,2.6-24.1.3.1.7.2,1,.3-1.3,7-1.3,23.9-1.3,27.6h-2.3Zm3.7,3.8c0-3.6,0-20.6,1.3-27.4.4,0,.7.1,1,.1v16.9l-.1,10.3h-2.2Zm3.9-2.7h-.2v-1.7h.2A16.71,16.71,0,0,0,786.2,64l1.7.3A18.51,18.51,0,0,1,769.8,79Zm-.3-31.2a.67.67,0,0,1,.66-.7h2.54a4.68,4.68,0,0,1,2.9-1.1,3.1,3.1,0,0,1,2.5.8c.3.3.4.6.2.9a1.33,1.33,0,0,1-1.3.7h-6.7a.61.61,0,0,1-.77-.39.76.76,0,0,1,0-.21Z" transform="translate(0 0)"/><g id="a731967b-535d-4e71-bb23-2fe38b813a2f" data-name="e90dcaa4-d972-44ff-a841-70a4a932e7d7"><circle class="a5b94aeb-4b0a-43bb-95ce-e391e6263813" cx="1050.4" cy="55.91" r="45"/></g><path class="fb12aa11-229d-4fe9-aa35-fe239adee4e5" d="M1079.9,28.31c-4.4-4.7-18.1-1.2-25.6,2.1a9,9,0,0,1-7.2,0c-7.6-3.3-21.2-6.7-25.6-2.1-3.3,3.5-3.5,9.7-.5,14.9a17.28,17.28,0,0,0,.6,5.9c.6,1.5,4.2,2.3,6.4,2.3h.6a2.63,2.63,0,0,0,1.2-.3c1.3,1.3,4.7,1.9,7,1.9h.9a5.81,5.81,0,0,0,1.8-.4,2.63,2.63,0,0,0,1.8,1.1,30.39,30.39,0,0,0,5.3.5,16,16,0,0,0,2.3-.1,3.2,3.2,0,0,0,2-.8,3.53,3.53,0,0,0,2,.8,16,16,0,0,0,2.3.1,24.17,24.17,0,0,0,5.3-.5,2.63,2.63,0,0,0,1.8-1.1,5.87,5.87,0,0,0,1.8.4h.9c2.3,0,5.7-.6,7-1.9l1.2.3h.6c2.2,0,5.7-.7,6.4-2.3a23.89,23.89,0,0,0,.6-5.9C1083.4,38,1083.2,31.71,1079.9,28.31Zm-54.7,21.2c-1.6-.4-2.2-.8-2.3-1-.4-1.1-.8-6.7.1-8.3a2.13,2.13,0,0,1,2.3-.8,4.74,4.74,0,0,1,3.6,3.6,1.1,1.1,0,0,1,0,.8,24.1,24.1,0,0,0,.1,6,15.17,15.17,0,0,1-3.8-.3Zm8.9,1.7c-2.4-.4-3.4-1-3.5-1.3-.5-1.2-.5-7.6.6-9.7.4-.8,1.6-1.1,3.1-.8a5.2,5.2,0,0,1,4.3,4.3v.5c-.1,2.2-.1,4.3,0,6.5a.79.79,0,0,0,.1.4C1038.3,51.41,1036.5,51.61,1034.1,51.21Zm15.6.9a1.49,1.49,0,0,1-1.1.4,29,29,0,0,1-7.2-.3,1.51,1.51,0,0,1-1.2-1.5,42.38,42.38,0,0,1,.2-8.5,3.19,3.19,0,0,1,3.3-2.8,5.79,5.79,0,0,1,5.6,4.2c.9,3.6.8,7.7.4,8.5Zm11.5-1.5a1.51,1.51,0,0,1-1.2,1.5,29,29,0,0,1-7.2.3,1.49,1.49,0,0,1-1.1-.4c-.4-.8-.5-4.9.4-8.5a5.63,5.63,0,0,1,5.4-4.2h.1a3.26,3.26,0,0,1,3.3,2.8,37.76,37.76,0,0,1,.3,8.5Zm9.5-.7c-.1.3-1.1.9-3.5,1.3s-4.1.2-4.6-.1a51.43,51.43,0,0,0,.1-6.8v-.5a5.41,5.41,0,0,1,4.3-4.4c1.4-.3,2.7,0,3.1.8C1071.2,42.31,1071.2,48.71,1070.7,49.91Zm7.8-1.4c-.1.2-.7.7-2.3,1a9,9,0,0,1-3.9.2,24.1,24.1,0,0,0,.1-6v-.8a5.22,5.22,0,0,1,3.6-3.6,2.13,2.13,0,0,1,2.3.8c1,1.6.7,7.3.2,8.4Zm1.2-9.1a3.59,3.59,0,0,0-3.9-1.6,6.47,6.47,0,0,0-4,2.7,4.83,4.83,0,0,0-.4-1.1c-.7-1.4-2.6-2-4.8-1.6a7.71,7.71,0,0,0-4.5,3,4.62,4.62,0,0,0-4.5-3.1,7.08,7.08,0,0,0-7,5.1,7.08,7.08,0,0,0-7-5.1,4.76,4.76,0,0,0-4.5,3.1,7.71,7.71,0,0,0-4.5-3c-2.2-.5-4,.2-4.8,1.6a3.54,3.54,0,0,0-.4,1.1,6,6,0,0,0-4-2.7,3.59,3.59,0,0,0-3.9,1.6,3.64,3.64,0,0,0-.4.9c-1.5-4.1-1.1-8.5,1.3-11.1,3.3-3.5,15-1.5,23.9,2.4a10.25,10.25,0,0,0,8.4,0c8.9-3.9,20.6-5.9,23.9-2.4,2.4,2.5,2.8,7,1.3,11.1A1,1,0,0,0,1079.7,39.41Z" transform="translate(0 0)"/><path class="fb12aa11-229d-4fe9-aa35-fe239adee4e5" d="M1077.5,67.81a7.57,7.57,0,0,0-.1-1.5,2.91,2.91,0,0,0-1.7-2.3,9.8,9.8,0,0,0-6.5.3,1.76,1.76,0,0,0-.5.4,2.58,2.58,0,0,0-1.7-.5h-.4c-3.4-.2-5.6.3-6.7,1.3a3.32,3.32,0,0,0-1.9-.6,20.6,20.6,0,0,0-5.6.2,2,2,0,0,1-2.8.4,1.9,1.9,0,0,1-.4-.4,21,21,0,0,0-5.6-.2,3.09,3.09,0,0,0-1.9.6c-1.1-1-3.4-1.4-7-1.2h-.1a3.3,3.3,0,0,0-1.7.5c-.2-.1-.3-.3-.5-.4a9.87,9.87,0,0,0-6.5-.3,2.61,2.61,0,0,0-1.7,2.3,7.57,7.57,0,0,0-.1,1.5c-6.4,8-6.3,15.8-2.9,19.4,1.6,1.7,4.3,2.3,7.5,2.3,5.6,0,12.7-2,17.7-4a12,12,0,0,1,9.1,0c7.7,3.2,20.8,6.3,25.2,1.7C1083.8,83.61,1083.9,75.81,1077.5,67.81Zm-8.1,3.8a16.06,16.06,0,0,0,.2-5.7,1.31,1.31,0,0,1,.4-.3c1.3-.7,4.4-.5,5.2-.2a1.17,1.17,0,0,1,.8,1.1c.4,2.6-1,7.4-2.5,8.4a2.57,2.57,0,0,1-2.1-.1,3.38,3.38,0,0,1-1.9-2A1.66,1.66,0,0,1,1069.4,71.61Zm-2.6-6h.1a1.09,1.09,0,0,1,1.2.7c.3.6.1,4.4-.6,6.6-.6,1.9-1.6,3.1-2.7,3.4a2.49,2.49,0,0,1-2.3-.7,5,5,0,0,1-1.8-3.1v-.6a17.43,17.43,0,0,0-.1-5.2C1061,66.21,1062.1,65.31,1066.8,65.61Zm-14.2.8a18.13,18.13,0,0,1,5.2-.2c1,.1,1.3.4,1.4.7.3.6.2,4.9-.3,6.6-.6,2.1-2,3.6-3.6,3.8a3.25,3.25,0,0,1-3-1.9c0-.1-.2-.3-.2-.5-.3-.8-.7-2.6-.8-6.7V68c.1-1,.4-1.4,1.3-1.6Zm-10.5.5a1.34,1.34,0,0,1,1.4-.7c.6,0,1.3-.1,2-.1a17.25,17.25,0,0,1,3.2.3c.9.2,1.2.6,1.2,1.6v.2c-.1,3.9-.4,5.8-.7,6.6l-.3.6a3.25,3.25,0,0,1-3,1.9c-1.5-.2-2.9-1.6-3.6-3.8-.4-1.7-.5-6-.2-6.6Zm-8.8-.6a1.09,1.09,0,0,1,1.2-.7h.1c4.6-.2,5.8.6,6,1a17.43,17.43,0,0,0-.1,5.2v.6a5,5,0,0,1-1.8,3.1,2.43,2.43,0,0,1-2.3.7c-1.1-.3-2.1-1.5-2.7-3.4A22.53,22.53,0,0,1,1033.3,66.31Zm-7.8.2a1.31,1.31,0,0,1,.8-1.1c.8-.3,3.9-.5,5.2.2.1.1.3.2.4.3a16.29,16.29,0,0,0,.2,5.7,1.66,1.66,0,0,1-.1,1.2,3.38,3.38,0,0,1-1.9,2,2.23,2.23,0,0,1-2.1.1C1026.5,73.81,1025.1,69.11,1025.5,66.51Zm53.8,19.6c-3.2,3.4-14.5,1.6-23.5-2.1a13.83,13.83,0,0,0-10.2,0c-9,3.7-20.2,5.5-23.5,2.1-2.7-2.9-2.8-9.3,2-16.1.5,2.5,1.6,5.2,2.9,6.2a2.54,2.54,0,0,0,1.7.4,5.16,5.16,0,0,0,4.1-2.2c.8,1.8,1.9,3,3.3,3.3a2.74,2.74,0,0,0,.9.1,4,4,0,0,0,2.8-1.2,7.86,7.86,0,0,0,1.5-1.7,5.84,5.84,0,0,0,4.5,3.9h.4a4.76,4.76,0,0,0,4.2-2.9,6,6,0,0,0,.3-.8c.1.3.2.5.3.8a4.76,4.76,0,0,0,4.2,2.9h.4a5.84,5.84,0,0,0,4.5-3.9,6.1,6.1,0,0,0,1.5,1.7,4.53,4.53,0,0,0,2.8,1.2,2.74,2.74,0,0,0,.9-.1,5.35,5.35,0,0,0,3.3-3.3,4.77,4.77,0,0,0,4.1,2.2,3.36,3.36,0,0,0,1.7-.4c1.4-1,2.5-3.6,2.9-6.2C1082.1,76.81,1082,83.21,1079.3,86.11Z" transform="translate(0 0)"/><g id="b35cc1e6-3984-4612-9db6-192beb6711c1" data-name="faa7c0cf-64f6-4826-9ec0-3982b927319e"><circle class="a5b94aeb-4b0a-43bb-95ce-e391e6263813" cx="1328.9" cy="55.91" r="45"/></g><path class="fb12aa11-229d-4fe9-aa35-fe239adee4e5" d="M1334.9,65.91a1.94,1.94,0,0,1-.7-.2l-5.6-4.1-5.6,4.1a1.36,1.36,0,0,1-1.5,0,1.25,1.25,0,0,1-.4-1.4l2.1-6.6-5.6-4.1a1.25,1.25,0,0,1-.4-1.4,1.17,1.17,0,0,1,1.1-.8h6.9l2.1-6.6a1.17,1.17,0,0,1,1.1-.8,1.08,1.08,0,0,1,1.1.8l2.1,6.6h6.9a1.08,1.08,0,0,1,1.1.8,1.25,1.25,0,0,1-.4,1.4l-5.6,4.1,2.1,6.6a1.25,1.25,0,0,1-.4,1.4C1335.4,65.91,1335.1,65.91,1334.9,65.91Zm-6.4-7a1.94,1.94,0,0,1,.7.2l3.3,2.4-1.3-3.9a1.25,1.25,0,0,1,.4-1.4l3.3-2.4h-4.1a1.08,1.08,0,0,1-1.1-.8l-1.3-3.8-1.3,3.9a1.17,1.17,0,0,1-1.1.8h-4.1l3.3,2.4a1.25,1.25,0,0,1,.4,1.4l-1.3,3.9,3.3-2.4A2.89,2.89,0,0,1,1328.5,58.91Z" transform="translate(0 0)"/><path class="fb12aa11-229d-4fe9-aa35-fe239adee4e5" d="M1352.1,71.81l4.6-3.5a5.37,5.37,0,0,0,1.9-6l-1.7-5.6a2.78,2.78,0,0,1,0-1.8l1.7-5.6a5.7,5.7,0,0,0-1.9-6l-4.6-3.5a4.2,4.2,0,0,1-1.1-1.5l-1.9-5.5a5.36,5.36,0,0,0-5.1-3.7l-5.8-.1a2.69,2.69,0,0,1-1.7-.6l-4.8-3.3a5.58,5.58,0,0,0-6.3,0l-4.8,3.3a3.45,3.45,0,0,1-1.7.6l-5.8.1a5.61,5.61,0,0,0-5.1,3.7l-1.9,5.5a3.24,3.24,0,0,1-1.1,1.5l-4.6,3.5a5.53,5.53,0,0,0-1.9,6l1.7,5.6a2.77,2.77,0,0,1,0,1.8l-1.7,5.6a5.7,5.7,0,0,0,1.9,6l4.6,3.5a4.2,4.2,0,0,1,1.1,1.5l1.9,5.5a5.36,5.36,0,0,0,5.1,3.7l5.8.1a2.69,2.69,0,0,1,1.7.6l4.8,3.3a5.79,5.79,0,0,0,3.2,1,5.49,5.49,0,0,0,3.2-1l4.8-3.3a3.45,3.45,0,0,1,1.7-.6l5.8-.1a5.61,5.61,0,0,0,5.1-3.7l1.9-5.5A2.51,2.51,0,0,1,1352.1,71.81Zm-1.5-2a5.05,5.05,0,0,0-1.9,2.6l-1.9,5.5a2.9,2.9,0,0,1-2.8,2l-5.8.2a4.72,4.72,0,0,0-3,1l-4.8,3.3a3.18,3.18,0,0,1-3.5,0l-4.8-3.3a5.39,5.39,0,0,0-3-1l-5.9-.2a3,3,0,0,1-2.8-2l-1.9-5.5a4.91,4.91,0,0,0-1.9-2.6l-4.6-3.5a2.89,2.89,0,0,1-1.1-3.3l1.7-5.6a5.8,5.8,0,0,0,0-3.2l-1.7-5.6a3,3,0,0,1,1.1-3.3l4.6-3.5a5.05,5.05,0,0,0,1.9-2.6l1.9-5.5a2.9,2.9,0,0,1,2.8-2l5.8-.1a4.72,4.72,0,0,0,3-1l4.8-3.3a3.51,3.51,0,0,1,1.8-.6,3,3,0,0,1,1.8.6l4.8,3.3a5.39,5.39,0,0,0,3,1l5.8.1a3,3,0,0,1,2.8,2l1.9,5.5a4.91,4.91,0,0,0,1.9,2.6l4.6,3.5a2.89,2.89,0,0,1,1.1,3.3l-1.6,5.5a5.8,5.8,0,0,0,0,3.2l1.7,5.6a3,3,0,0,1-1.1,3.3Z" transform="translate(0 0)"/><path class="fb12aa11-229d-4fe9-aa35-fe239adee4e5" d="M1323.3,34.51h.2a16.27,16.27,0,0,1,2.3-.4,1.42,1.42,0,0,0,1.1-1.4,1.26,1.26,0,0,0-1.4-1.1,21,21,0,0,0-2.5.4,1.27,1.27,0,0,0-.9,1.5A1.19,1.19,0,0,0,1323.3,34.51Z" transform="translate(0 0)"/><path class="fb12aa11-229d-4fe9-aa35-fe239adee4e5" d="M1318.6,75.41a11.59,11.59,0,0,1-1.9-1.1,1.36,1.36,0,0,0-1.7.3,1.25,1.25,0,0,0,.3,1.7c.71.47,1.45.9,2.2,1.3a1.42,1.42,0,0,0,.6.2,1.25,1.25,0,0,0,1.1-.6A1.38,1.38,0,0,0,1318.6,75.41Z" transform="translate(0 0)"/><path class="fb12aa11-229d-4fe9-aa35-fe239adee4e5" d="M1315.9,37.61a1,1,0,0,0,.6-.2,19.94,19.94,0,0,1,1.9-1.1,1.19,1.19,0,0,0-1.1-2.1c-.75.4-1.49.83-2.2,1.3a1.17,1.17,0,0,0-.36,1.62l.06.08A1.49,1.49,0,0,0,1315.9,37.61Z" transform="translate(0 0)"/><path class="fb12aa11-229d-4fe9-aa35-fe239adee4e5" d="M1325.9,77.51a22.57,22.57,0,0,1-2.3-.4,1.24,1.24,0,0,0-.6,2.4,21,21,0,0,0,2.5.4h.2a1.28,1.28,0,0,0,1.2-1.1A1.18,1.18,0,0,0,1325.9,77.51Z" transform="translate(0 0)"/><path class="fb12aa11-229d-4fe9-aa35-fe239adee4e5" d="M1307.6,62.21a1.2,1.2,0,1,0-2.3.7h0a24.64,24.64,0,0,0,.9,2.4,1.09,1.09,0,0,0,1.1.7.87.87,0,0,0,.5-.1,1.17,1.17,0,0,0,.63-1.53l0-.07C1308.1,63.71,1307.9,62.91,1307.6,62.21Z" transform="translate(0 0)"/><path class="fb12aa11-229d-4fe9-aa35-fe239adee4e5" d="M1306.1,50.31c.1,0,.2.1.3.1a1.07,1.07,0,0,0,1.1-.9,19.28,19.28,0,0,1,.8-2.2,1.21,1.21,0,0,0-2.15-1.12l-.05.12-.9,2.4A1.33,1.33,0,0,0,1306.1,50.31Z" transform="translate(0 0)"/><path class="fb12aa11-229d-4fe9-aa35-fe239adee4e5" d="M1331.1,34a22.57,22.57,0,0,1,2.3.4h.2a1.19,1.19,0,0,0,1.2-1,1.22,1.22,0,0,0-.87-1.49h0a21,21,0,0,0-2.5-.4,1.3,1.3,0,0,0-1.4,1.1C1330,33.31,1330.5,34,1331.1,34Z" transform="translate(0 0)"/><path class="fb12aa11-229d-4fe9-aa35-fe239adee4e5" d="M1311.1,69a1.21,1.21,0,0,0-1.9,1.5h0l1.6,1.9a1.52,1.52,0,0,0,.9.4,1.12,1.12,0,0,0,.8-.3,1.24,1.24,0,0,0,.1-1.7A11.74,11.74,0,0,1,1311.1,69Z" transform="translate(0 0)"/><path class="fb12aa11-229d-4fe9-aa35-fe239adee4e5" d="M1309.3,42.91a1,1,0,0,0,.7.2,1.39,1.39,0,0,0,1-.5l1.5-1.8a1.2,1.2,0,1,0-1.8-1.6h0c-.6.6-1.1,1.3-1.6,1.9A1.19,1.19,0,0,0,1309.3,42.91Z" transform="translate(0 0)"/><path class="fb12aa11-229d-4fe9-aa35-fe239adee4e5" d="M1305.5,58.21a1.16,1.16,0,0,0,1.11-1.21s0-.06,0-.09v-2.2a1.2,1.2,0,0,0-2.4-.2V57l1.2-.1-1.2.1A1.3,1.3,0,0,0,1305.5,58.21Z" transform="translate(0 0)"/><path class="fb12aa11-229d-4fe9-aa35-fe239adee4e5" d="M1349.5,49.31a1.27,1.27,0,0,0,1.1.9.37.37,0,0,0,.3-.1,1.24,1.24,0,0,0,.8-1.5,24.64,24.64,0,0,0-.9-2.4,1.21,1.21,0,1,0-2.25.88.61.61,0,0,0,0,.12A13.41,13.41,0,0,1,1349.5,49.31Z" transform="translate(0 0)"/><path class="fb12aa11-229d-4fe9-aa35-fe239adee4e5" d="M1333.5,77.11a16.27,16.27,0,0,1-2.3.4,1.33,1.33,0,0,0-1.1,1.4,1.28,1.28,0,0,0,1.2,1.1h.2a21,21,0,0,0,2.5-.4,1.27,1.27,0,0,0,.9-1.5A1.22,1.22,0,0,0,1333.5,77.11Z" transform="translate(0 0)"/><path class="fb12aa11-229d-4fe9-aa35-fe239adee4e5" d="M1352.9,54.41a1.2,1.2,0,0,0-2.4.2h0v2.3a1.38,1.38,0,0,0,1.1,1.3h.1a1.2,1.2,0,0,0,1.2-1.1v-2.7Z" transform="translate(0 0)"/><path class="fb12aa11-229d-4fe9-aa35-fe239adee4e5" d="M1347.8,68.71a1.24,1.24,0,0,0-1.7.2l-1.5,1.8a1.15,1.15,0,0,0,0,1.63l.08.07a1.32,1.32,0,0,0,.8.3,1.88,1.88,0,0,0,.9-.4c.6-.6,1.1-1.3,1.6-1.9A1.25,1.25,0,0,0,1347.8,68.71Z" transform="translate(0 0)"/><path class="fb12aa11-229d-4fe9-aa35-fe239adee4e5" d="M1351,61.41a1.24,1.24,0,0,0-1.5.8,19.28,19.28,0,0,1-.8,2.2,1.3,1.3,0,0,0,.6,1.6.87.87,0,0,0,.5.1,1.09,1.09,0,0,0,1.1-.7l.9-2.4a1.23,1.23,0,0,0-.73-1.58Z" transform="translate(0 0)"/><path class="fb12aa11-229d-4fe9-aa35-fe239adee4e5" d="M1338.4,36.21a21.56,21.56,0,0,1,2,1.1.74.74,0,0,0,.6.2,1.39,1.39,0,0,0,1.1-.6,1.25,1.25,0,0,0-.3-1.7c-.71-.47-1.45-.9-2.2-1.3a1.12,1.12,0,0,0-1.53.45,1,1,0,0,0-.07.15,1.16,1.16,0,0,0,.25,1.61Z" transform="translate(0 0)"/><path class="fb12aa11-229d-4fe9-aa35-fe239adee4e5" d="M1346,42.61a1.23,1.23,0,0,0,1,.5,1.94,1.94,0,0,0,.7-.2,1.15,1.15,0,0,0,.28-1.6l-.08-.1-1.6-1.9a1.2,1.2,0,0,0-1.8,1.6A12.76,12.76,0,0,1,1346,42.61Z" transform="translate(0 0)"/><path class="fb12aa11-229d-4fe9-aa35-fe239adee4e5" d="M1340.5,74.11a19.94,19.94,0,0,1-1.9,1.1,1.34,1.34,0,0,0-.6,1.6,1.16,1.16,0,0,0,1.1.6,1.42,1.42,0,0,0,.6-.2c.75-.4,1.49-.83,2.2-1.3a1.17,1.17,0,0,0,.36-1.62l-.06-.08A2,2,0,0,0,1340.5,74.11Z" transform="translate(0 0)"/><path class="fb12aa11-229d-4fe9-aa35-fe239adee4e5" d="M1360.6,71.51a3.72,3.72,0,0,0-2.3-.7,6.8,6.8,0,0,0-5.1,2.9c-2,2.8-1.9,6.2.2,7.7a3.72,3.72,0,0,0,2.3.7,6.82,6.82,0,0,0,5.1-2.9C1362.7,76.41,1362.6,73.11,1360.6,71.51Zm-1.9,6.3a4.27,4.27,0,0,1-3.2,1.9,1.86,1.86,0,0,1-.8-.2c-.8-.6-.9-2.5.4-4.3a4.27,4.27,0,0,1,3.2-1.9,1.86,1.86,0,0,1,.8.2c.9.6.9,2.5-.4,4.3Z" transform="translate(0 0)"/><g id="bc707c4f-4026-4889-8ac8-55529a4c5090" data-name="f9d395f7-8b40-470e-9f7b-faeeaa5de12d"><circle class="a5b94aeb-4b0a-43bb-95ce-e391e6263813" cx="1607.4" cy="55.91" r="45"/></g><path class="fb12aa11-229d-4fe9-aa35-fe239adee4e5" d="M1619.9,47.11c13.3-4.5,12.5-19.4,12.5-19.5a1.08,1.08,0,0,0-1-1h-47.1a1,1,0,0,0-1,1c0,.1-.9,15,12.4,19.5a6.49,6.49,0,0,1,3.7,6.3c-.2,1.7.2,5,3.2,6.4l2.2,3.9v14.9c-4,1.8-11.8,5.9-11.3,9.2a1.06,1.06,0,0,0,1,.9h26.7a1,1,0,0,0,1-.9c.5-3.3-7.3-7.4-11.3-9.2v-15l2.2-3.9c3-1.4,3.4-4.7,3.2-6.4A6.26,6.26,0,0,1,1619.9,47.11Zm-8,10.8a1.21,1.21,0,0,0-.5.5l-2.5,4.4a.87.87,0,0,0-.1.5v15.9a.88.88,0,0,0,.6.9c4.7,2.1,9,4.8,10.3,6.4h-23.9c1.3-1.6,5.6-4.3,10.3-6.4a1,1,0,0,0,.6-.9V63.31a.74.74,0,0,0-.1-.5l-2.5-4.4a1.21,1.21,0,0,0-.5-.5c-2.4-.9-2.3-3.8-2.2-4.3a12.26,12.26,0,0,0,6.7,2.3,10.19,10.19,0,0,0,6.1-2.1C1614.2,54.51,1614.2,57.11,1611.9,57.91Zm2.6-7.3c-.1.1-.2.1-.3.2a8.64,8.64,0,0,1-6.2,3c-3.8,0-6.8-3-6.8-3a.35.35,0,0,0-.2-.1,8.37,8.37,0,0,0-4.7-5.5c-10.1-3.4-11.1-13.3-11.1-16.4h45.1c0,3.2-1,13-11.1,16.4h-.1a8,8,0,0,0-4.6,5.4Z" transform="translate(0 0)"/><path class="fb12aa11-229d-4fe9-aa35-fe239adee4e5" d="M1597.5,42.91a1,1,0,1,0,.7-1.9h0c-4.2-1.6-6.5-4.7-7.5-10.1a1,1,0,0,0-2,.4h0C1589.8,37.41,1592.6,41.11,1597.5,42.91Z" transform="translate(0 0)"/><g id="abffdac4-3b69-4161-88db-d8d4d2e8e2dc" data-name="f6829e5a-ef49-489b-aade-d6cf21c30070"><circle class="a5b94aeb-4b0a-43bb-95ce-e391e6263813" cx="493.3" cy="274.71" r="45"/></g><path class="b677da4d-b73f-4ca3-b870-e6c7b3b68ff5" d="M496.4,276.81l1.4.8v.4a3.5,3.5,0,0,0,2,3,4.36,4.36,0,0,0-2.8,4,4.3,4.3,0,0,0,.6,2.4l-.4.4h-6.6l4.8-8.8h0Z" transform="translate(0 0)"/><polygon class="b677da4d-b73f-4ca3-b870-e6c7b3b68ff5" points="473.2 295.61 506.8 295.61 506.8 301.41 473.2 301.41 473.2 295.61"/><line class="b677da4d-b73f-4ca3-b870-e6c7b3b68ff5" x1="473.2" y1="297.41" x2="480.6" y2="297.41"/><line class="b677da4d-b73f-4ca3-b870-e6c7b3b68ff5" x1="473.4" y1="299.41" x2="477.8" y2="299.41"/><line class="b677da4d-b73f-4ca3-b870-e6c7b3b68ff5" x1="506.8" y1="299.41" x2="504.2" y2="299.41"/><line class="b677da4d-b73f-4ca3-b870-e6c7b3b68ff5" x1="502.4" y1="299.41" x2="501.4" y2="299.41"/><path class="b677da4d-b73f-4ca3-b870-e6c7b3b68ff5" d="M503.2,289l2.6,6.4h-15l6.8-8a4.47,4.47,0,0,0,3.6,2A6,6,0,0,0,503.2,289Z" transform="translate(0 0)"/><line class="b677da4d-b73f-4ca3-b870-e6c7b3b68ff5" x1="504" y1="291.41" x2="501.4" y2="291.41"/><line class="b677da4d-b73f-4ca3-b870-e6c7b3b68ff5" x1="504.6" y1="293.41" x2="498" y2="293.41"/><polygon class="b677da4d-b73f-4ca3-b870-e6c7b3b68ff5" points="480.6 268.21 496.6 276.61 495.4 279.01 479.2 270.41 480.6 268.21"/><polygon class="b677da4d-b73f-4ca3-b870-e6c7b3b68ff5" points="482.4 276.81 490.6 281.21 488.4 285.21 480.2 280.61 482.4 276.81"/><polygon class="b677da4d-b73f-4ca3-b870-e6c7b3b68ff5" points="489.2 259.01 499 264.21 497.8 266.61 488 261.41 489.2 259.01"/><polygon class="b677da4d-b73f-4ca3-b870-e6c7b3b68ff5" points="504.2 237.41 511 240.81 507.2 247.81 500.6 244.21 504.2 237.41"/><polygon class="b677da4d-b73f-4ca3-b870-e6c7b3b68ff5" points="504.2 237.41 511 240.81 509.2 244.01 502.6 240.41 504.2 237.41"/><path class="b677da4d-b73f-4ca3-b870-e6c7b3b68ff5" d="M499.2,247.41l6.6,3.6-6.8,13.2-.4-.2h0l-6.2-3.4Zm-.2,17-.2.4h0Z" transform="translate(0 0)"/><line class="b677da4d-b73f-4ca3-b870-e6c7b3b68ff5" x1="494.2" y1="257.21" x2="496.2" y2="258.21"/><line class="b677da4d-b73f-4ca3-b870-e6c7b3b68ff5" x1="493.6" y1="258.81" x2="496.8" y2="260.61"/><path class="b677da4d-b73f-4ca3-b870-e6c7b3b68ff5" d="M504.2,259.21a2.6,2.6,0,1,1-2.6,2.6h0A2.66,2.66,0,0,1,504.2,259.21Z" transform="translate(0 0)"/><circle class="b677da4d-b73f-4ca3-b870-e6c7b3b68ff5" cx="504.2" cy="261.81" r="0.8"/><path class="b677da4d-b73f-4ca3-b870-e6c7b3b68ff5" d="M504.4,253.81l4,2.2-2,4.2a3.18,3.18,0,0,0-2.2-1,2.6,2.6,0,1,0,0,5.2h0l-1.8,3.6-4.2-2.2.6-1h0l.2-.4v-.2h0Z" transform="translate(0 0)"/><path class="b677da4d-b73f-4ca3-b870-e6c7b3b68ff5" d="M503.6,281.41a17.24,17.24,0,0,0,4.2-11.2,20.73,20.73,0,0,0-1.4-7,2.87,2.87,0,0,0,.4-1.4,3.71,3.71,0,0,0-.4-1.6h0l1.2-2.4a21.94,21.94,0,0,1-2,27.2A4.19,4.19,0,0,0,503.6,281.41Z" transform="translate(0 0)"/><line class="b677da4d-b73f-4ca3-b870-e6c7b3b68ff5" x1="481.6" y1="278.21" x2="486.4" y2="280.81"/><polygon class="b677da4d-b73f-4ca3-b870-e6c7b3b68ff5" points="505.8 247.01 504.2 250.01 500.8 248.21 502.4 245.21 505.8 247.01"/><polygon class="b677da4d-b73f-4ca3-b870-e6c7b3b68ff5" points="490 282.41 492.8 283.81 491.8 285.61 489 284.01 490 282.41"/><path class="b677da4d-b73f-4ca3-b870-e6c7b3b68ff5" d="M501.2,280.81a4.27,4.27,0,0,1,4.4,4.14V285a4.44,4.44,0,0,1-4.4,4.4,4.27,4.27,0,0,1-4.2-4.34V285a4.1,4.1,0,0,1,4-4.2Z" transform="translate(0 0)"/><polygon class="b677da4d-b73f-4ca3-b870-e6c7b3b68ff5" points="489.4 262.21 490.8 263.01 489.4 265.81 487.8 265.21 489.4 262.21"/><polygon class="b677da4d-b73f-4ca3-b870-e6c7b3b68ff5" points="492.4 263.81 494 264.61 492 268.01 490.6 267.41 492.4 263.81"/><g id="a7466e2b-32c6-43d7-b6b1-b6bba5a60a82" data-name="accd0bea-e963-492e-8099-7efd99cbba77"><circle class="a5b94aeb-4b0a-43bb-95ce-e391e6263813" cx="771.8" cy="274.71" r="45"/></g><circle class="aeb8f996-246f-4850-83a5-a3a20f4015a8" cx="768.7" cy="300.31" r="1.2"/><path class="aeb8f996-246f-4850-83a5-a3a20f4015a8" d="M777.8,245.21a20.72,20.72,0,0,0-8.2-1.5,1,1,0,0,0-1,.6c-.1.2-.1.3,0,.4a.52.52,0,0,0,.4.2,11,11,0,0,0,1.9.2,12.13,12.13,0,0,1,1.9.2c3.9.8,3.9,4.7,3.9,6a153.43,153.43,0,0,1-1.9,17.9c-.1.3-.1.7-.2,1.1-.4,2.6-.9,6.5-4.2,7-.4,0-.9-.1-2-.2a19.84,19.84,0,0,0-3.6-.4,1.82,1.82,0,0,0-1,.2v.1c0,.8,2.7,1.2,3.7,1.4.3,0,.5.1.7.1,1.8.3,3.8,1.5,3.6,5s-1.9,6.3-3.4,9.1a25.83,25.83,0,0,0-1.9,3.7,13.27,13.27,0,0,0-1.3,6.5c.2,2.2,2.6,2.5,3.3,2.6,1.7.1,3-1.1,3.9-3.7,4.5-13.3,6.2-26.6,7.9-40.6l.1-.4C780.8,256,780.7,246.51,777.8,245.21Zm-9.1,57.5a2.4,2.4,0,1,1,2.4-2.4,2.31,2.31,0,0,1-2.22,2.4Z" transform="translate(0 0)"/><path class="fb12aa11-229d-4fe9-aa35-fe239adee4e5" d="M778.3,244.11a19.83,19.83,0,0,0-8.7-1.6,2.26,2.26,0,0,0-2.1,1.3,2,2,0,0,0,0,1.5,1.66,1.66,0,0,0,1.2.9,14.78,14.78,0,0,0,2.1.2,10.9,10.9,0,0,1,1.8.2,3,3,0,0,1,2.3,1.6c-2.4-.4-7.1-.9-7.3-.9a.61.61,0,1,0-.29,1.18l.09,0c.1,0,5.9.7,7.9,1,.1.4.1.9.2,1.5l-7.9-1.1-.2,1.2s6.2.9,8.1,1.2a7.57,7.57,0,0,1-.1,1.5c-2.1-.3-7.6-1.1-7.9-1.2a.59.59,0,0,0-.7.5c0,.3.2.7.5.7.1,0,6,.9,8,1.2,0,.5-.1,1-.1,1.5-2.1-.4-8.2-1.2-8.5-1.2s-.7.2-.7.5.2.7.5.7c.1,0,6.7.9,8.5,1.2,0,.4-.1.9-.1,1.4-2.4-.4-8-1.2-8.2-1.2s-.7.2-.7.5.2.7.5.7c.1,0,6,.8,8.2,1.2a5.68,5.68,0,0,1-.2,1.3c-2.4-.5-8.1-1.2-8.4-1.3a.59.59,0,0,0-.7.5c0,.3.2.7.5.7.1,0,6.2.8,8.4,1.3-.1.4-.1.8-.2,1.3a69.07,69.07,0,0,0-8.1-1.2.61.61,0,0,0-.74.45.62.62,0,0,0,.45.74h.09c1.8.2,6.5.8,8.1,1.2-.1.4-.1.8-.2,1.1-2-.3-8.5-1.3-8.6-1.3a.61.61,0,0,0-.2,1.2c.3,0,6.5,1,8.6,1.3-.1.5-.1.9-.2,1.3h0c-2.1-.3-8.3-1.3-8.3-1.3a.61.61,0,0,0-.2,1.2c.3,0,6.2,1,8.4,1.3-.1.4-.1.9-.2,1.3l-8.9-1.5a.61.61,0,0,0-.74.45.62.62,0,0,0,.45.74h.09c.1,0,5.9.9,8.9,1.5a5.64,5.64,0,0,1-.4,1.2,70.55,70.55,0,0,0-8.3-1.3.61.61,0,0,0-.74.45.62.62,0,0,0,.45.74h.09a73.45,73.45,0,0,1,7.8,1.2,2.38,2.38,0,0,1-1.5.9c-.2,0-1-.1-1.7-.2-2.6-.5-4.7-.8-5.6,0a1.39,1.39,0,0,0-.5,1c0,1.9,3,2.3,4.7,2.6.2,0,.5.1.6.1,1.9.4,2.7,1.5,2.6,3.7-.2,3.1-1.8,5.9-3.3,8.6-.7,1.2-1.4,2.5-2,3.8a14.49,14.49,0,0,0-1.4,7.1c.2,2.1,1.9,3.5,4.4,3.7h.3c1.6,0,3.6-.8,4.8-4.5,4.5-13.5,6.2-26.7,8-40.8l.1-.4C781.5,260.61,783.1,246.21,778.3,244.11Zm1.9,16.5-.1.4c-1.8,14-3.4,27.2-7.9,40.6-.9,2.6-2.2,3.8-3.9,3.7-.7-.1-3.1-.4-3.3-2.6a12.29,12.29,0,0,1,1.3-6.5c.6-1.2,1.3-2.5,1.9-3.7,1.6-2.8,3.2-5.7,3.4-9.1.2-3.6-1.8-4.7-3.6-5-.2,0-.4-.1-.7-.1-1-.1-3.6-.5-3.7-1.4v-.1a2.16,2.16,0,0,1,1-.2c1.1,0,2.6.3,3.6.4a5.64,5.64,0,0,0,2,.2c3.2-.4,3.8-4.4,4.2-7,.1-.4.1-.8.2-1.1a151.3,151.3,0,0,0,1.9-17.9c0-1.3,0-5.2-3.9-6a12.13,12.13,0,0,0-1.9-.2,11,11,0,0,1-1.9-.2.52.52,0,0,1-.4-.2c-.1-.1,0-.2,0-.4a1.1,1.1,0,0,1,1-.6,19.07,19.07,0,0,1,8.2,1.5c3.1,1.4,3.2,10.9,2.6,15.5Z" transform="translate(0 0)"/><path class="fb12aa11-229d-4fe9-aa35-fe239adee4e5" d="M768.7,297.91a2.4,2.4,0,1,0,2.4,2.4,2.37,2.37,0,0,0-2.34-2.4Zm0,3.6a1.2,1.2,0,1,1,1.2-1.2,1.16,1.16,0,0,1-1.12,1.2Z" transform="translate(0 0)"/><g id="b484c8f4-7960-4178-a968-00f3ad91534f" data-name="b7d9bd99-b4c4-4ef3-8e28-5161e7402425"><circle class="a5b94aeb-4b0a-43bb-95ce-e391e6263813" cx="214.8" cy="274.71" r="45" transform="translate(-90.77 442.73) rotate(-80.78)"/></g><path class="fb12aa11-229d-4fe9-aa35-fe239adee4e5" d="M230.3,300.31h-.8a5.32,5.32,0,0,0,.8-2.8c0-3.1-1.3-4.5-2.3-5.1a2.69,2.69,0,0,1-1.4-2.4h1.9a.88.88,0,0,0,.9-.8c.5-4.1.7-6.8,1-10.3a.74.74,0,0,0-.1-.5,85.73,85.73,0,0,0-5.6-8.4c-1.7-2.4-3.4-4.8-4.9-7.2l2.9-.8,3.3,1.7a.58.58,0,0,0,.4.1h2.9a.9.9,0,0,0,.9-.9v-2.7h0v-5.7a1.09,1.09,0,0,0-.3-.7l-3.1-3.1a1,1,0,0,0-.9-.2l-4.2,1.1-4.9-1.3-1.4-1.1a8.45,8.45,0,0,0-4.8-1.9,11,11,0,0,1,.7-2.7l.1-.3a.91.91,0,0,0-.3-1,1.09,1.09,0,0,0-1.1-.1c-3.8,2.1-6.7,4.3-8.9,7.7v.1a9.1,9.1,0,0,0-1.6,2.7.89.89,0,0,0-.3.7.79.79,0,0,0,.1.4c0,.3-.1.6-.1.9v17.5c0,.5.3.8.7,1.4,1.3,1.7,4.3,5.7-.6,14.1a.75.75,0,0,0,0,.9,1,1,0,0,0,.8.5h2.8v.1a2.59,2.59,0,0,1-1.4,2.4c-1.1.6-2.3,2-2.3,5a5.32,5.32,0,0,0,.8,2.8h-.8a.9.9,0,0,0-.9.9v3.8a.9.9,0,0,0,.9.9h31a.9.9,0,0,0,.9-.9v-3.8a.86.86,0,0,0-.69-1Zm-27.3-15h1.6a.9.9,0,0,0,0-1.8h-1a6.85,6.85,0,0,0,.3-1.9h.7a.9.9,0,0,0,0-1.8h-.71a5.81,5.81,0,0,0-.3-1.9h.9a.9.9,0,0,0,0-1.8h-1.6a6.69,6.69,0,0,0-1.1-1.9h2.6a.9.9,0,0,0,0-1.8h-3.5v-1.9h3.5a.9.9,0,0,0,0-1.8H200.9v-1.9h3.5a.9.9,0,0,0,0-1.8H200.9v-1.9h3.5a.9.9,0,0,0,0-1.8H200.9v-1.9h3.5a.9.9,0,0,0,0-1.8h-3.5v-1.8h3.4a.9.9,0,0,0,0-1.8H201.4a7,7,0,0,1,1-1.4h-.1l.1-.1a19.42,19.42,0,0,1,6.2-5.9,8.54,8.54,0,0,0,.4,4.9.95.95,0,1,0,1.83-.51l0-.09a5,5,0,0,1-.3-1.2,6.49,6.49,0,0,1,3.5,1.5l1.5,1.2c.1.1.2.1.3.2l5.3,1.4h.5l3.9-1.1,2.4,2.4v3.9l-1.9-.8a.92.92,0,1,0-.77,1.67l.07,0,2.6,1.1v1.2h-1.8l-3.4-1.8a1.51,1.51,0,0,0-.7-.1l-4.4,1.2a1,1,0,0,0-.6.5.78.78,0,0,0,.1.8,85.73,85.73,0,0,0,5.6,8.4,93.08,93.08,0,0,1,5.3,8c-.3,3.1-.5,5.6-.9,9.1H201.3a11.2,11.2,0,0,0,1.7-3.2Zm26.4,18.8H200.3v-1.9h4.3a.9.9,0,0,0,0-1.8h-2a3.72,3.72,0,0,1-1.3-2.8c0-1.7.5-2.8,1.4-3.4a4.63,4.63,0,0,0,2.4-4.1V290h19.7a4.74,4.74,0,0,0,2.4,4.1c.9.5,1.4,1.7,1.4,3.4a3.72,3.72,0,0,1-1.3,2.8H209.7a.9.9,0,1,0,0,1.8h19.9v2Z" transform="translate(0 0)"/><path class="fb12aa11-229d-4fe9-aa35-fe239adee4e5" d="M215.1,254.81a.92.92,0,0,1,.9.94v.06a1,1,0,0,0,.9,1h.1a.9.9,0,0,0,.9-.9v-.2a2.8,2.8,0,0,0-2.8-2.8.9.9,0,0,0-.9.9A1,1,0,0,0,215.1,254.81Z" transform="translate(0 0)"/><g id="b9bdf8f0-031c-49b7-8302-b41ffd789aa6" data-name="e5382239-269b-4f72-ab80-f27ed6de06f3"><circle class="a5b94aeb-4b0a-43bb-95ce-e391e6263813" cx="1328.8" cy="274.71" r="45"/></g><path class="fb12aa11-229d-4fe9-aa35-fe239adee4e5" d="M1339,306.71a4.82,4.82,0,0,1-2.4-.7,4.06,4.06,0,0,1-1-5.63l0-.07h0l9.7-13.7a4.15,4.15,0,0,1,5.8-1h0a4.06,4.06,0,0,1,1.05,5.63l-.05.07h0a4.08,4.08,0,0,1-3.8,1.7l-5.5,7.8a4.28,4.28,0,0,1-.3,4.1A4.63,4.63,0,0,1,1339,306.71Zm9.6-20a2.14,2.14,0,0,0-1.8.9h0l-9.7,13.7a2.11,2.11,0,0,0,.43,2.95l.07.05h0a2.21,2.21,0,0,0,3-.5,2.27,2.27,0,0,0,0-2.5,1.27,1.27,0,0,1,0-1.2l6.3-8.9a1.11,1.11,0,0,1,1.1-.4,2.19,2.19,0,0,0,2.3-.8,2.11,2.11,0,0,0-.43-2.95l-.07-.05h0A2.11,2.11,0,0,0,1348.6,286.71Z" transform="translate(0 0)"/><path class="fb12aa11-229d-4fe9-aa35-fe239adee4e5" d="M1334.8,298.71a90.42,90.42,0,0,1-27.6-14.2c-6.6-5-9-12.1-9.9-15.8a19.88,19.88,0,0,1-.5-4.8v-4.2c0-7.8,2.4-14.1,6.4-16.8a1,1,0,0,1,1.39.28v0a.09.09,0,0,0,.1.1c1.3,2.6,2.7,5.3,4.3,7.9l-1.7,1c-1.4-2.3-2.6-4.6-3.8-7-2.4,2.2-4.7,6.9-4.7,14.4v4.1a16.75,16.75,0,0,0,.5,4.4,26,26,0,0,0,9.1,14.7,89.53,89.53,0,0,0,27,13.8Z" transform="translate(0 0)"/><path class="fb12aa11-229d-4fe9-aa35-fe239adee4e5" d="M1309.8,256.21c-.4-.7-.9-1.3-1.3-2l1.7-1.1a22.09,22.09,0,0,0,1.3,2Z" transform="translate(0 0)"/><path class="fb12aa11-229d-4fe9-aa35-fe239adee4e5" d="M1343.1,291.41c-2.5-1.5-18.8-13.8-32-33.2l1.7-1.1c12.9,19,28.9,31.1,31.3,32.6Z" transform="translate(0 0)"/><path class="fb12aa11-229d-4fe9-aa35-fe239adee4e5" d="M1340.5,295.61c-.5-.2-48.8-17.7-37.6-52.3l1.9.6c-10.6,32.7,35.9,49.6,36.4,49.7Z" transform="translate(0 0)"/><path class="fb12aa11-229d-4fe9-aa35-fe239adee4e5" d="M1356.2,306.71a5.91,5.91,0,0,1-2.3-.5l-11.6-6,.9-1.8,11.6,6a3.08,3.08,0,0,0,3.2-.3,1.91,1.91,0,0,0,.7-1.4v-1.3a2,2,0,0,0-1.2-1.7l-11.3-6,.9-1.8,11.3,6a4,4,0,0,1,2.2,3.5v1.3a3.71,3.71,0,0,1-1.4,2.9A4.25,4.25,0,0,1,1356.2,306.71Z" transform="translate(0 0)"/><path class="fb12aa11-229d-4fe9-aa35-fe239adee4e5" d="M1345.8,301.71v-2a10.44,10.44,0,0,0,8.2-3.6l1.6,1.2A12.24,12.24,0,0,1,1345.8,301.71Z" transform="translate(0 0)"/><path class="fb12aa11-229d-4fe9-aa35-fe239adee4e5" d="M1351.9,304.61l-.2-2a7.62,7.62,0,0,0,6.2-4.3l1.9.7A9.66,9.66,0,0,1,1351.9,304.61Z" transform="translate(0 0)"/><path class="fb12aa11-229d-4fe9-aa35-fe239adee4e5" d="M1318.6,306.71a4.16,4.16,0,0,1-3.4-1.8,3.81,3.81,0,0,1-.3-4.1l-5.5-7.8a4.3,4.3,0,0,1-3.8-1.7,4.17,4.17,0,0,1,1-5.8h0a4.16,4.16,0,0,1,5.8,1h0l9.7,13.7a4,4,0,0,1-.85,5.59l-.15.11h0A4.66,4.66,0,0,1,1318.6,306.71Zm-8.8-15.8a1.23,1.23,0,0,1,.8.4l6.3,8.9a1.28,1.28,0,0,1,0,1.2,2.27,2.27,0,0,0,0,2.5,2.15,2.15,0,1,0,3.5-2.5h0l-9.7-13.7h0a2.15,2.15,0,0,0-3.5,2.5h0a2.1,2.1,0,0,0,2.3.8.37.37,0,0,1,.3-.1Z" transform="translate(0 0)"/><path class="fb12aa11-229d-4fe9-aa35-fe239adee4e5" d="M1319.9,299.51l-.5-1.9a67.85,67.85,0,0,0,9-3l.7,1.9C1326.1,297.61,1323,298.61,1319.9,299.51Z" transform="translate(0 0)"/><path class="fb12aa11-229d-4fe9-aa35-fe239adee4e5" d="M1350.4,284.51l-1.2-1.6a25.17,25.17,0,0,0,9.1-14.7,21,21,0,0,0,.5-4.4v-4.1c0-7.5-2.3-12.2-4.7-14.4a126.17,126.17,0,0,1-18.7,27.1l-1.5-1.3a119.52,119.52,0,0,0,18.9-27.8,1,1,0,0,1,1.3-.5.09.09,0,0,1,.1.1c4,2.7,6.4,9,6.4,16.8v4.1a26.68,26.68,0,0,1-.5,4.8A26.36,26.36,0,0,1,1350.4,284.51Z" transform="translate(0 0)"/><path class="fb12aa11-229d-4fe9-aa35-fe239adee4e5" d="M1331.5,276.61l-1.4-1.4c.7-.7,1.3-1.4,2-2.1l1.5,1.4Z" transform="translate(0 0)"/><path class="fb12aa11-229d-4fe9-aa35-fe239adee4e5" d="M1314.5,291.41l-1-1.7c.1-.1.6-.4,1.7-1.2l1.2,1.6A16.35,16.35,0,0,1,1314.5,291.41Z" transform="translate(0 0)"/><path class="fb12aa11-229d-4fe9-aa35-fe239adee4e5" d="M1336.3,285.51l-1.1-1.6c11.4-8,23.7-21.3,17.7-39.9l1.9-.6C1361.1,263.11,1348.2,277.21,1336.3,285.51Z" transform="translate(0 0)"/><path class="fb12aa11-229d-4fe9-aa35-fe239adee4e5" d="M1317.1,295.61l-.7-1.9q2.5-.93,4.9-2.1l.8,1.8A32.71,32.71,0,0,1,1317.1,295.61Z" transform="translate(0 0)"/><path class="fb12aa11-229d-4fe9-aa35-fe239adee4e5" d="M1301.4,306.71a5.15,5.15,0,0,1-3.2-1.1,3.71,3.71,0,0,1-1.4-2.9v-1.3a4,4,0,0,1,2.2-3.5l11.3-6,.9,1.8-11.3,6a2.13,2.13,0,0,0-1.2,1.7v1.3a1.91,1.91,0,0,0,.7,1.4,2.88,2.88,0,0,0,3.2.3l11.6-6,.9,1.8-11.6,6A4.64,4.64,0,0,1,1301.4,306.71Z" transform="translate(0 0)"/><path class="fb12aa11-229d-4fe9-aa35-fe239adee4e5" d="M1311.8,301.71a12.24,12.24,0,0,1-9.8-4.4l1.6-1.2a10.44,10.44,0,0,0,8.2,3.6v2Z" transform="translate(0 0)"/><path class="fb12aa11-229d-4fe9-aa35-fe239adee4e5" d="M1305.7,304.61a9.39,9.39,0,0,1-7.8-5.6l1.9-.7a7.48,7.48,0,0,0,6.2,4.3Z" transform="translate(0 0)"/><g id="ef9c3d4f-bd59-4be8-984a-7be25f82565f" data-name="ae1c7b5a-f626-42a1-a5bb-256642118687"><circle class="a5b94aeb-4b0a-43bb-95ce-e391e6263813" cx="1050.3" cy="274.71" r="45"/></g><path class="fb12aa11-229d-4fe9-aa35-fe239adee4e5" d="M1058.4,264.21c.6.5-.2,1.5-.7.9a7.59,7.59,0,0,1-.9-1.4,5.44,5.44,0,0,1-1.8,0c-.8-.2-.3-1.4.4-1.1a1.66,1.66,0,0,0,1.2.1c-.2-2.5,1.5-5.1.4-7.8-1.3-3-5.6-5.1-6.6-7.3-1,2.2-5.2,4.3-6.6,7.3-1.1,2.6.6,5.2.4,7.7a2.06,2.06,0,0,0,1.1-.1c.7-.3,1.2.9.4,1.1a4.85,4.85,0,0,1-1.7,0,6.64,6.64,0,0,1-.9,1.6c-.5.6-1.3-.4-.7-.9a3.47,3.47,0,0,0,.7-1c-2.3-1-3.7-3.9-6.6-4.2-3.3-.4-7.2,2.3-9.6,2,1.4,1.9,1.1,6.7,3.1,9.3,1.7,2.3,4.8,2.1,6.8,3.5a1.81,1.81,0,0,0,.4-1c.1-.8,1.4-.6,1.2.2a5,5,0,0,1-.8,1.5,3.45,3.45,0,0,1,.9,1.6c.2.7-1.1.9-1.2.2a2.14,2.14,0,0,0-.5-1.1c-2,1.5-5.2,1.2-6.9,3.6-2,2.7-1.6,7.4-3.1,9.3,2.4-.3,6.3,2.4,9.6,2,2.8-.3,4.2-3.1,6.4-4.2a2.37,2.37,0,0,0-.6-.9c-.6-.5.2-1.5.7-.9a7.59,7.59,0,0,1,.9,1.4,5.44,5.44,0,0,1,1.8,0c.8.2.3,1.4-.4,1.1a1.66,1.66,0,0,0-1.2-.1c.2,2.5-1.5,5.1-.4,7.8,1.3,3,5.6,5.1,6.6,7.3,1-2.2,5.2-4.3,6.6-7.3,1.1-2.6-.6-5.2-.4-7.7a2.06,2.06,0,0,0-1.1.1c-.7.3-1.2-.9-.4-1.1a4.85,4.85,0,0,1,1.7,0,6.64,6.64,0,0,1,.9-1.6c.5-.6,1.3.4.7.9a3.47,3.47,0,0,0-.7,1c2.3,1,3.7,3.9,6.6,4.2,3.3.4,7.2-2.3,9.6-2-1.4-1.9-1.1-6.7-3.1-9.3-1.7-2.3-4.8-2.1-6.8-3.5a1.81,1.81,0,0,0-.4,1c-.1.8-1.4.6-1.2-.2a5,5,0,0,1,.8-1.5,3.45,3.45,0,0,1-.9-1.6c-.2-.7,1.1-.9,1.2-.2a2.14,2.14,0,0,0,.5,1.1c2-1.5,5.2-1.2,6.9-3.6,2-2.7,1.6-7.4,3.1-9.3-2.4.3-6.3-2.4-9.6-2-2.8.3-4.2,3.1-6.4,4.2A1.44,1.44,0,0,0,1058.4,264.21Zm6.3,10.6c2,1.1,5.5,1.4,7,3.6,2.2,3.1,1.4,9.9,3.7,9.6,3.7-.4,5.9-3.7,4-5.9s-4.5.1-3.7,1.5c0-.2.1-.3.2-.5a1.46,1.46,0,0,1,2-.5,1.37,1.37,0,0,1,.67,1.82,1.17,1.17,0,0,1-.17.28,1.67,1.67,0,0,1-1.8.8c-3.3-.8-2.7-4.5.1-5.3,4.2-1.3,7.5,6.1,0,8.7a5.46,5.46,0,0,1-1.6.3,3.4,3.4,0,0,1,.6,1.5c1.4,7.8-6.6,8.6-7.6,4.4-.7-2.8,2.2-5.2,4.6-2.7a1.83,1.83,0,0,1,.2,2,1.47,1.47,0,0,1-2,.67l-.13-.07a1.46,1.46,0,0,1-.5-2,1.31,1.31,0,0,1,.3-.4c-1.6,0-2.3,3.5.5,3.9s4.6-3,3.2-6.4c-.9-2.1-6.4,1.8-10.2,1.5-2.8-.2-4.8-3.2-6.8-4.3,0,2.2,1.5,5.4.4,7.9-1.6,3.4-7.8,6.2-6.4,8,2.2,3,6.1,3.2,7.1.5s-2.4-3.8-3.1-2.4a.87.87,0,0,1,.5-.1,1.54,1.54,0,0,1,1.5,1.5,1.42,1.42,0,0,1-1.34,1.5h-.16a1.62,1.62,0,0,1-1.6-1.1c-1-3.3,2.5-4.6,4.6-2.6,3.2,3-1.5,9.5-7.6,4.4a3.84,3.84,0,0,1-1-1.3,5.07,5.07,0,0,1-1,1.3c-6,5.1-10.8-1.4-7.6-4.4,2.1-2,5.6-.7,4.6,2.6a1.62,1.62,0,0,1-1.6,1.1,1.42,1.42,0,0,1-1.5-1.34v-.16a1.54,1.54,0,0,1,1.5-1.5.74.74,0,0,1,.5.1c-.8-1.4-4.1-.2-3.1,2.4,1,2.8,4.9,2.5,7.1-.5,1.4-1.9-4.8-4.6-6.4-8-1.2-2.5.4-5.8.4-8-1.9,1.2-3.9,4-6.7,4.3-3.8.3-9.2-3.7-10.2-1.5-1.5,3.4.2,6.9,3.2,6.4,2.8-.5,2.1-3.9.5-3.9.1.1.3.2.3.4a1.48,1.48,0,0,1-2.53,1.53s-.05-.08-.07-.13a1.83,1.83,0,0,1,.2-2c2.3-2.5,5.2-.1,4.6,2.7-1,4.3-9,3.4-7.6-4.4a2.65,2.65,0,0,1,.6-1.5,3.39,3.39,0,0,1-1.6-.3c-7.4-2.6-4.2-10,0-8.7,2.8.8,3.4,4.5.1,5.3a1.85,1.85,0,0,1-1.8-.8,1.51,1.51,0,0,1,.47-2.08l0,0a1.46,1.46,0,0,1,2,.5c.1.2.2.3.2.5.8-1.4-1.9-3.7-3.7-1.5s.3,5.5,4,5.9c2.3.3,1.6-6.5,3.7-9.6,1.6-2.3,5.2-2.6,7.1-3.7-2-1.1-5.5-1.4-7-3.6-2.2-3.1-1.4-9.9-3.7-9.6-3.7.4-5.9,3.7-4,5.9s4.5-.1,3.7-1.5c0,.2-.1.3-.2.5a1.46,1.46,0,0,1-2,.5A1.37,1.37,0,0,1,1022,265a1.17,1.17,0,0,1,.17-.28,1.67,1.67,0,0,1,1.8-.8c3.3.8,2.7,4.5-.1,5.3-4.2,1.3-7.5-6.1,0-8.7a5.46,5.46,0,0,1,1.6-.3,3.4,3.4,0,0,1-.6-1.5c-1.4-7.8,6.6-8.6,7.6-4.4.7,2.8-2.2,5.2-4.6,2.7a1.83,1.83,0,0,1-.2-2,1.47,1.47,0,0,1,2-.67l.13.07a1.46,1.46,0,0,1,.5,2,1.31,1.31,0,0,1-.3.4c1.6,0,2.3-3.5-.5-3.9s-4.6,3-3.2,6.4c.9,2.1,6.4-1.8,10.2-1.5,2.8.2,4.8,3.2,6.8,4.3,0-2.2-1.5-5.4-.4-7.9,1.6-3.4,7.8-6.2,6.4-8-2.2-3-6.1-3.2-7.1-.5s2.4,3.8,3.1,2.4a.87.87,0,0,1-.5.1,1.54,1.54,0,0,1-1.5-1.5,1.42,1.42,0,0,1,1.34-1.5h.16a1.62,1.62,0,0,1,1.6,1.1c1,3.3-2.5,4.6-4.6,2.6-3.2-3,1.5-9.5,7.6-4.4a3.84,3.84,0,0,1,1,1.3,5.07,5.07,0,0,1,1-1.3c6-5.1,10.8,1.4,7.6,4.4-2.1,2-5.6.7-4.6-2.6a1.62,1.62,0,0,1,1.6-1.1,1.42,1.42,0,0,1,1.5,1.34v.16a1.54,1.54,0,0,1-1.5,1.5.74.74,0,0,1-.5-.1c.8,1.4,4.1.2,3.1-2.4-1-2.8-4.9-2.5-7.1.5-1.4,1.9,4.8,4.6,6.4,8,1.2,2.5-.4,5.8-.4,8,1.9-1.2,3.9-4,6.7-4.3,3.8-.3,9.2,3.7,10.2,1.5,1.5-3.4-.2-6.9-3.2-6.4-2.8.5-2.1,3.9-.5,3.9-.1-.1-.3-.2-.3-.4a1.48,1.48,0,0,1,2.53-1.53s0,.08.07.13a1.83,1.83,0,0,1-.2,2c-2.3,2.5-5.2.1-4.6-2.7,1-4.3,9-3.4,7.6,4.4a2.65,2.65,0,0,1-.6,1.5,3.39,3.39,0,0,1,1.6.3c7.4,2.6,4.2,10,0,8.7-2.8-.8-3.4-4.5-.1-5.3a1.85,1.85,0,0,1,1.8.8,1.51,1.51,0,0,1-.47,2.08l0,0a1.46,1.46,0,0,1-2-.5c-.1-.2-.2-.3-.2-.5-.8,1.4,1.9,3.7,3.7,1.5s-.3-5.5-4-5.9c-2.3-.3-1.6,6.5-3.7,9.6C1070.2,273.41,1066.7,273.71,1064.7,274.81Z" transform="translate(0 0)"/><path class="fb12aa11-229d-4fe9-aa35-fe239adee4e5" d="M1062.4,282.21c.2.6,1.2.3.9-.2-1.8-4.1-6.5-.2-8.7-6.5,1.3-2.1-.8-2.7-1-3.2,6.1,1.1,6.3-5.2,9.3-4.3.6.2.9-.8.3-.9-4.4-.5-3.4,5.5-10,4.3-1.2-2.2-2.7-.6-3.3-.7,3.9-4.7-1.3-8.1.9-10.2.4-.4-.3-1.2-.7-.7-2.5,3.4,2.9,5.9-1.2,10.8-2.5,0-1.9,2.1-2.3,2.5-2.1-5.8-7.7-2.9-8.4-5.9-.1-.6-1.2-.3-.9.2,1.8,4.1,6.5.2,8.7,6.5-1.3,2.1.8,2.7,1,3.2-6.1-1.1-6.3,5.2-9.3,4.3-.6-.2-.9.8-.3.9,4.4.5,3.4-5.5,10-4.3,1.2,2.2,2.7.6,3.3.7-3.9,4.7,1.3,8.1-.9,10.2-.4.4.3,1.2.7.7,2.5-3.4-2.9-5.9,1.2-10.8,2.5,0,1.9-2.1,2.3-2.5C1056.1,282.21,1061.7,279.21,1062.4,282.21Z" transform="translate(0 0)"/><g id="e448d45f-774f-4513-9899-1b6d7ccb72a7" data-name="a5ea0966-2962-4650-a9cf-7e89f613bdd4"><circle class="a5b94aeb-4b0a-43bb-95ce-e391e6263813" cx="1607.3" cy="274.71" r="45"/></g><path class="fb12aa11-229d-4fe9-aa35-fe239adee4e5" d="M1621.6,243.61a2.73,2.73,0,0,0-2.1.9,2.37,2.37,0,0,0-.6.9c0,.1-.1.2-.1.3a3.15,3.15,0,0,0,.8,3,3.31,3.31,0,0,0,2.1.9,2.73,2.73,0,0,0,2.1-.9,3.12,3.12,0,0,0,.9-2.1,2.73,2.73,0,0,0-.9-2.1,3.34,3.34,0,0,0-2.2-.9Zm8.2,28.7c0-.2.1-.3.3-.2s.3.1.2.3a19.57,19.57,0,0,0-.1,2.3,16,16,0,0,0,.1,2.3c0,.2-.1.3-.2.3s-.3-.1-.3-.2a19.27,19.27,0,0,1-.1-2.4c0-.8.1-1.6.1-2.4Zm-45.6.1c0-.2.1-.3.2-.3s.3.1.3.2a29.59,29.59,0,0,1,0,4.8c0,.2-.1.3-.3.2s-.3-.1-.2-.3a19.57,19.57,0,0,0,.1-2.3,16,16,0,0,0-.1-2.3Zm25.5,24.8c.2,0,.3.1.2.3s-.1.3-.3.2a19.57,19.57,0,0,0-2.3-.1,16,16,0,0,0-2.3.1c-.2,0-.3-.1-.3-.2s.1-.3.2-.3a19.27,19.27,0,0,1,2.4-.1c.8,0,1.6.1,2.4.1Zm-.1-45.6c.2,0,.3.1.3.2s-.1.3-.2.3a29.59,29.59,0,0,1-4.8,0c-.2,0-.3-.1-.2-.3s.1-.3.3-.2a19.57,19.57,0,0,0,2.3.1,16,16,0,0,0,2.3-.1Zm13.3,39.2-14.3-14.3a2.85,2.85,0,0,0,.2,1.5h0c.2.4.4.9.7,1.5a31.29,31.29,0,0,0,4.7,6.1,23.44,23.44,0,0,0,5.1,3.8A22.17,22.17,0,0,0,1622.9,290.81Zm-13.7-14.9,14.4,14.4a1.42,1.42,0,0,0-.2-.6,22.37,22.37,0,0,0-1.5-3.4,28.52,28.52,0,0,0-3.6-4.8,25.81,25.81,0,0,0-6.1-4.7c-.6-.3-1.2-.6-1.7-.8h-.1a5.41,5.41,0,0,0-1.2-.1Zm15,15.8c-.5.3-2.7-.2-5.3-1.6a22.53,22.53,0,0,1-5.3-3.9,33.4,33.4,0,0,1-4-4.8,43.59,43.59,0,0,0,4.6,10.9c2.1,3.4,4.7,6,7.5,6.7a3.7,3.7,0,0,1,2.7,1.1,4,4,0,0,1-5.6,5.6,3.84,3.84,0,0,1-.9-1.5c-.6-1.3-2.1-2.3-4.1-3a23.92,23.92,0,0,0-13,0c-2,.7-3.5,1.7-4.1,3a3.84,3.84,0,0,1-.9,1.5,4,4,0,0,1-5.6-5.6,3.84,3.84,0,0,1,2.7-1.1c2.8-.7,5.4-3.3,7.5-6.7a42,42,0,0,0,4.6-10.9,33.4,33.4,0,0,1-4,4.8,22.53,22.53,0,0,1-5.3,3.9c-2.4,1.3-4.4,1.8-5.1,1.6-.1,0-.2,0-.2-.1a.09.09,0,0,1-.1-.1c-.3-.3-.3-1.1.1-2.2a15,15,0,0,1,1.6-3.5,21.26,21.26,0,0,1,3.8-4.9,33.4,33.4,0,0,1,4.8-4,41.22,41.22,0,0,0-10.8,4.6c-3.4,2.1-6,4.7-6.7,7.5a3.7,3.7,0,0,1-1.1,2.7,4,4,0,0,1-5.6-5.6,3.84,3.84,0,0,1,1.5-.9c1.3-.6,2.3-2.1,3-4.1a23.92,23.92,0,0,0,0-13c-.7-2-1.7-3.5-3-4.1a3.84,3.84,0,0,1-1.5-.9,4,4,0,0,1,5.6-5.6,3.84,3.84,0,0,1,1.1,2.7c.7,2.8,3.4,5.4,6.9,7.6a49.08,49.08,0,0,0,10.5,4.6,33.4,33.4,0,0,1-4.8-4,23.15,23.15,0,0,1-3.8-4.9,17.29,17.29,0,0,1-1.6-3.5c-.3-1.1-.4-1.9-.1-2.2a.09.09,0,0,0,.1-.1c.1-.1.1-.1.2-.1a11.78,11.78,0,0,1,5.1,1.6,22.53,22.53,0,0,1,5.3,3.9,33.4,33.4,0,0,1,4,4.8,43.59,43.59,0,0,0-4.6-10.9c-2.1-3.4-4.7-6-7.5-6.7a3.7,3.7,0,0,1-2.7-1.1,4,4,0,0,1,5.6-5.6,3.84,3.84,0,0,1,.9,1.5,4.31,4.31,0,0,0,2,2,16.34,16.34,0,0,0,4.4,1.6,24.28,24.28,0,0,0,8.2.1,13.82,13.82,0,0,0,4.6-1.5,5.48,5.48,0,0,0,2-2,3.84,3.84,0,0,1,.9-1.5,4,4,0,0,1,5.6,5.6,3.84,3.84,0,0,1-2.7,1.1c-2.8.7-5.4,3.3-7.5,6.7a42,42,0,0,0-4.6,10.9,33.4,33.4,0,0,1,4-4.8h0a22.53,22.53,0,0,1,5.3-3.9c2.6-1.4,4.8-1.8,5.3-1.6l.1.1c.3.3.3,1.1-.1,2.2a15,15,0,0,1-1.6,3.5,21.26,21.26,0,0,1-3.8,4.9h0a33.4,33.4,0,0,1-4.8,4,40.79,40.79,0,0,0,10.5-4.6c3.5-2.2,6.2-4.8,6.9-7.6a3.7,3.7,0,0,1,1.1-2.7,4,4,0,0,1,5.6,5.6,3.84,3.84,0,0,1-1.5.9c-1.3.6-2.3,2.1-3,4.1a23.92,23.92,0,0,0,0,13c.7,2,1.7,3.5,3,4.1a3.84,3.84,0,0,1,1.5.9,4,4,0,0,1-5.6,5.6,3.84,3.84,0,0,1-1.1-2.7c-.7-2.8-3.4-5.4-6.8-7.5a42.25,42.25,0,0,0-10.7-4.6,39.23,39.23,0,0,1,4.9,4,23.15,23.15,0,0,1,3.8,4.9,17.29,17.29,0,0,1,1.6,3.5c.3,1.1.4,1.9.1,2.2C1624.3,291.61,1624.3,291.71,1624.2,291.71Zm-16.2-13.5a2.72,2.72,0,0,1,.2-2.7,2.37,2.37,0,0,1,2.4-.3h0a41.7,41.7,0,0,1,14.6,5.6c3,1.9,5.5,4.1,6.6,6.6a8.64,8.64,0,0,1,.8-1.2,3.81,3.81,0,0,1,2.3-1.1,9.48,9.48,0,0,1-2.1-3.7,20.86,20.86,0,0,1-1-6.7,20.59,20.59,0,0,1,1-6.7,9.48,9.48,0,0,1,2.1-3.7,3.81,3.81,0,0,1-2.3-1.1,3.61,3.61,0,0,1-.8-1.2c-1.2,2.5-3.7,4.8-6.8,6.7a47.28,47.28,0,0,1-14.9,5.7h0a2.27,2.27,0,0,1-1.9-.4,2.67,2.67,0,0,1-.2-2.7h0a42.92,42.92,0,0,1,5.5-14.5c1.9-3,4.1-5.4,6.6-6.6a8.64,8.64,0,0,1-1.2-.8,3.81,3.81,0,0,1-1.1-2.3,16.52,16.52,0,0,1-1.4,1.1,15.52,15.52,0,0,1-4.9,1.7,26.69,26.69,0,0,1-8.6-.1,12.37,12.37,0,0,1-4.7-1.7,6.62,6.62,0,0,1-1.3-1,3.81,3.81,0,0,1-1.1,2.3,3.61,3.61,0,0,1-1.2.8c2.5,1.2,4.7,3.6,6.6,6.6a45,45,0,0,1,5.5,14.5h0a2.72,2.72,0,0,1-.2,2.7h0a2,2,0,0,1-1.8.4h-.1a44.88,44.88,0,0,1-14.9-5.7c-3.1-1.9-5.6-4.2-6.8-6.7a8.64,8.64,0,0,1-.8,1.2,3.81,3.81,0,0,1-2.3,1.1,9.48,9.48,0,0,1,2.1,3.7,20.86,20.86,0,0,1,1,6.7,20.06,20.06,0,0,1-1,6.7,9.48,9.48,0,0,1-2.1,3.7,3.81,3.81,0,0,1,2.3,1.1,3.61,3.61,0,0,1,.8,1.2c1.2-2.5,3.6-4.7,6.5-6.6a44.39,44.39,0,0,1,14.4-5.5h0a2.72,2.72,0,0,1,2.7.2h0a2.67,2.67,0,0,1,.2,2.7h0a42.92,42.92,0,0,1-5.5,14.5c-1.9,3-4.1,5.4-6.6,6.6a8.64,8.64,0,0,1,1.2.8,3.81,3.81,0,0,1,1.1,2.3,9.48,9.48,0,0,1,3.7-2.1,23.68,23.68,0,0,1,13.6,0,9.48,9.48,0,0,1,3.7,2.1,3.81,3.81,0,0,1,1.1-2.3,3.61,3.61,0,0,1,1.2-.8c-2.5-1.2-4.7-3.6-6.6-6.6a39.28,39.28,0,0,1-5.6-14.5Zm10.8,25.5c0,.1.1.2.1.3l.6.9a3.12,3.12,0,0,0,2.1.9,2.73,2.73,0,0,0,2.1-.9,3.31,3.31,0,0,0,.9-2.1,2.73,2.73,0,0,0-.9-2.1,3.31,3.31,0,0,0-2.1-.9,2.73,2.73,0,0,0-2.1.9,3.31,3.31,0,0,0-.9,2.1,3.09,3.09,0,0,0,.2.9Zm-23.1.3c0-.1.1-.2.1-.3a3.15,3.15,0,0,0-.8-3,3.31,3.31,0,0,0-2.1-.9,2.73,2.73,0,0,0-2.1.9,3.31,3.31,0,0,0-.9,2.1,2.73,2.73,0,0,0,.9,2.1,3.12,3.12,0,0,0,2.1.9,2.73,2.73,0,0,0,2.1-.9,1.28,1.28,0,0,0,.7-.9Zm10.1-26h0c0-.1,0-.1.1-.2a3.4,3.4,0,0,0,.2-1.3l-14.3,14.3a17.45,17.45,0,0,0,3.6-1.5,23.44,23.44,0,0,0,5.1-3.8,25.81,25.81,0,0,0,4.7-6.1c.2-.4.4-.9.6-1.4Zm-14.8,12.3,14.4-14.4a2.16,2.16,0,0,0-1.3.2.09.09,0,0,0-.1.1h0c-.4.2-.9.4-1.5.7a31.29,31.29,0,0,0-6.1,4.7,19.23,19.23,0,0,0-3.6,4.8,15.17,15.17,0,0,0-1.5,3.4c-.2.1-.2.3-.3.5Zm18.9-16.8h0c.1,0,.2-.1.3-.1a6.91,6.91,0,0,0,1.9-.8,31.29,31.29,0,0,0,6.1-4.7h0a19.23,19.23,0,0,0,3.6-4.8,15.17,15.17,0,0,0,1.5-3.4c.1-.2.1-.4.2-.6l-14.4,14.4Zm27.6-11a3.12,3.12,0,0,0,.9-2.1,2.73,2.73,0,0,0-.9-2.1,3.31,3.31,0,0,0-2.1-.9,2.73,2.73,0,0,0-2.1.9,3.31,3.31,0,0,0-.9,2.1,2.73,2.73,0,0,0,.9,2.1,3.31,3.31,0,0,0,2.1.9c.3,0,.6-.1.9-.1.1,0,.2-.1.3-.1a2.14,2.14,0,0,0,.9-.7Zm.9,26.5a2.73,2.73,0,0,0-.9-2.1,2.37,2.37,0,0,0-.9-.6c-.1,0-.2-.1-.3-.1a3.15,3.15,0,0,0-3,.8,3.31,3.31,0,0,0-.9,2.1,2.73,2.73,0,0,0,.9,2.1,3.12,3.12,0,0,0,2.1.9,2.73,2.73,0,0,0,2.1-.9,3.12,3.12,0,0,0,.9-2.2Zm-29.8-16.1,14.3-14.3a17.45,17.45,0,0,0-3.6,1.5,23.44,23.44,0,0,0-5.1,3.8h0a25.81,25.81,0,0,0-4.7,6.1,10.23,10.23,0,0,0-.7,1.5h0a2.33,2.33,0,0,0-.2,1.4Zm-12.8-27.2c0-.1-.1-.2-.1-.3l-.6-.9a3.12,3.12,0,0,0-2.1-.9,2.73,2.73,0,0,0-2.1.9,3.12,3.12,0,0,0-.9,2.1,2.73,2.73,0,0,0,.9,2.1,3.12,3.12,0,0,0,2.1.9,2.73,2.73,0,0,0,2.1-.9,3.31,3.31,0,0,0,.9-2.1,3.09,3.09,0,0,0-.2-.9Zm-19.6,14.7a2.73,2.73,0,0,0,.9,2.1,2.37,2.37,0,0,0,.9.6c.1,0,.2.1.3.1a3.15,3.15,0,0,0,3-.8,3.12,3.12,0,0,0,.9-2.1,2.73,2.73,0,0,0-.9-2.1,3.12,3.12,0,0,0-2.1-.9,2.73,2.73,0,0,0-2.1.9A3.34,3.34,0,0,0,1576.2,260.41Zm.9,26.4a3.12,3.12,0,0,0-.9,2.1,2.73,2.73,0,0,0,.9,2.1,3.12,3.12,0,0,0,2.1.9,2.73,2.73,0,0,0,2.1-.9,3.12,3.12,0,0,0,.9-2.1,2.73,2.73,0,0,0-.9-2.1,3.12,3.12,0,0,0-2.1-.9c-.3,0-.6.1-.9.1-.1,0-.2.1-.3.1-.31.22-.61.45-.9.7Zm27.2-13.4a.79.79,0,0,1,.4.1h.7l-14.4-14.4a1.42,1.42,0,0,0,.2.6,22.37,22.37,0,0,0,1.5,3.4,28.52,28.52,0,0,0,3.6,4.8,25.81,25.81,0,0,0,6.1,4.7A13.18,13.18,0,0,0,1604.3,273.41Zm1.5-2h0c-.2-.5-.4-.9-.7-1.5a31.29,31.29,0,0,0-4.7-6.1,23.44,23.44,0,0,0-5.1-3.8,17.45,17.45,0,0,0-3.6-1.5l14.3,14.3a2.16,2.16,0,0,0-.2-1.3v-.1Z" transform="translate(0 0)"/><g id="bc6e7fc9-78c8-4ab2-8fbf-5ac8d3183bfd" data-name="f58ecb33-428b-4bc4-adab-60f753e30c11"><circle class="a5b94aeb-4b0a-43bb-95ce-e391e6263813" cx="1330.3" cy="493.51" r="45"/></g><path class="fb12aa11-229d-4fe9-aa35-fe239adee4e5" d="M1332.9,480.31v-1.2a3.24,3.24,0,0,0,2.7-3.6,3.33,3.33,0,0,0-3.3-2.8h-.8a1.19,1.19,0,0,1-1.2-1,1.26,1.26,0,0,1,1.13-1.39h1.27a.88.88,0,0,1,.8.5.56.56,0,0,0,.5.3h1.1a.5.5,0,0,0,.51-.49.41.41,0,0,0,0-.11,3,3,0,0,0-2.5-2.3V467a.54.54,0,0,0-.5-.5h-1a.54.54,0,0,0-.5.5v1.2a3.24,3.24,0,0,0-2.7,3.6,3.33,3.33,0,0,0,3.3,2.8h.8a1.19,1.19,0,0,1,1.2,1,1.26,1.26,0,0,1-1.13,1.39h-1.27a.88.88,0,0,1-.8-.5.56.56,0,0,0-.5-.3h-1.1a.5.5,0,0,0-.51.49.41.41,0,0,0,0,.11,3,3,0,0,0,2.5,2.3v1.2a.54.54,0,0,0,.5.5h1A.54.54,0,0,0,1332.9,480.31Z" transform="translate(0 0)"/><path class="fb12aa11-229d-4fe9-aa35-fe239adee4e5" d="M1347.6,507.61a3.65,3.65,0,0,0-4.1-2.7l-7,1.4a3,3,0,0,0-2.3-1.3l-1.4-.1v-4.2c1.7,0,5-.4,7.2-2.6,3-3,2.6-8.1,2.6-8.4a1.28,1.28,0,0,0-1-1c-.2,0-5.3-.5-8.4,2.6-.2.2-.3.5-.5.7v-6a12.4,12.4,0,1,0-2.2,0v6c-.2-.2-.3-.5-.5-.7-3-3-8.1-2.6-8.4-2.6a1.28,1.28,0,0,0-1,1c0,.2-.5,5.3,2.6,8.4,2.2,2.2,5.5,2.6,7.2,2.6v4.2l-7-.5a6.2,6.2,0,0,0-4.1,1.2l-5.7,4.4-4.8,4.8a1.09,1.09,0,0,0,0,1.5l6.7,6.7a1.09,1.09,0,0,0,.7.3.89.89,0,0,0,.7-.3l4.3-4.3,7.2.9a10.85,10.85,0,0,0,7-1.6l10.4-6.6A3.42,3.42,0,0,0,1347.6,507.61Zm-12.7-14.8c1.7-1.7,4.4-2,5.8-2-.1,1.4-.3,4.1-2,5.8s-4.4,2-5.8,2c0-1.4.3-4.1,2-5.8Zm-13.4-19.1a10.3,10.3,0,1,1,10.3,10.3,10.3,10.3,0,0,1-10.3-10.3Zm3.5,22.9c-1.7-1.7-2-4.4-2-5.8,1.4.1,4.1.3,5.8,2s2,4.4,2,5.8A8.92,8.92,0,0,1,1325,496.61Zm-8.5,24.1-5.3-5.3,3.1-3.1,5.3,5.3Zm28.4-11.1-10.4,6.6a8.47,8.47,0,0,1-5.6,1.2l-7.4-.9-5.7-5.7,5-3.7a4.49,4.49,0,0,1,2.7-.8l10.4.8a1.06,1.06,0,0,1,.9.9.9.9,0,0,1-.77,1h0l-2.5.6a16.12,16.12,0,0,1-3.1.3l-2.9-.1a1.05,1.05,0,1,0-.1,2.1l2.9.1a14.49,14.49,0,0,0,3.6-.3l2.7-.5a3,3,0,0,0,2.4-2.7l6.8-1.4a1.39,1.39,0,0,1,1.6,1A1.23,1.23,0,0,1,1344.9,509.61Z" transform="translate(0 0)"/><g id="aa589a13-6651-4fdb-aaeb-61f89d206b16" data-name="ba6fcf5a-1fbe-44f0-9126-1f6f2ebdba12"><circle class="a5b94aeb-4b0a-43bb-95ce-e391e6263813" cx="214.3" cy="493.51" r="45" transform="translate(-307.16 625.99) rotate(-80.78)"/></g><circle class="fb12aa11-229d-4fe9-aa35-fe239adee4e5" cx="195.2" cy="480.31" r="2.4"/><path class="fb12aa11-229d-4fe9-aa35-fe239adee4e5" d="M200.2,471.81c.7.2.9-.7.2-.9-1.7-.5-1.7-1.4-2.4-2.4a4.31,4.31,0,0,0-4.5-.9,4.43,4.43,0,0,0-2.6,3.8,4.1,4.1,0,0,0,3.5,4v1.7c0,.7,1.2.7,1.2,0V475c0-.2-.2-.7-.5-.7a2.93,2.93,0,0,1-3.1-2.75v-.05a2.76,2.76,0,0,1,1.9-2.6,2.54,2.54,0,0,1,3.1.7C198.1,470.41,197.8,471.31,200.2,471.81Z" transform="translate(0 0)"/><circle class="fb12aa11-229d-4fe9-aa35-fe239adee4e5" cx="195.2" cy="486.21" r="3.1"/><circle class="fb12aa11-229d-4fe9-aa35-fe239adee4e5" cx="231.4" cy="480.31" r="2.4"/><path class="fb12aa11-229d-4fe9-aa35-fe239adee4e5" d="M226.7,471.81c-.7.2-1.2-.7-.5-.9,1.7-.5,1.7-1.4,2.4-2.4a4.31,4.31,0,0,1,4.5-.9,4.43,4.43,0,0,1,2.6,3.8,4.1,4.1,0,0,1-3.5,4v1.7c0,.7-1.2.7-1.2,0V475c0-.2.2-.7.5-.7a2.93,2.93,0,0,0,3.1-2.75v-.05a2.76,2.76,0,0,0-1.9-2.6,2.54,2.54,0,0,0-3.1.7C228.5,470.41,228.8,471.31,226.7,471.81Z" transform="translate(0 0)"/><circle class="fb12aa11-229d-4fe9-aa35-fe239adee4e5" cx="231.4" cy="486.21" r="3.1"/><path class="b6a314bb-ed2d-484c-910f-2b8036afa744" d="M195.2,498.21a6.06,6.06,0,0,1,6.1,6v.08a6.19,6.19,0,0,1-6.1,6.1,6.11,6.11,0,1,1,0-12.2Zm1.5-7.8a13,13,0,0,1,7.3,3.1c-2.6.2-6.1,4.3-4.3,6.1s6.1-1.4,6.4-4a12.13,12.13,0,0,1,2.8,7.3c-1.9-1.7-7.1-1.2-7.1,1.4s5.2,3.1,7.1,1.4a13.4,13.4,0,0,1-2.8,7.3c-.2-2.6-4.5-5.9-6.4-4s1.7,5.9,4.3,6.1a15.45,15.45,0,0,1-7.3,3.1c1.7-2.1,1.2-7.3-1.4-7.3-2.8,0-3.3,5.2-1.7,7.3a14.72,14.72,0,0,1-7.1-3.1c2.6-.2,5.9-4.3,4-6.1s-5.9,1.4-6.1,4a13.67,13.67,0,0,1-3.1-7.3c1.9,1.7,7.3,1.2,7.3-1.4s-5.4-3.1-7.3-1.4a12.45,12.45,0,0,1,3.1-7.3c.2,2.6,4.3,5.9,6.1,4s-1.4-5.9-4-6.1a13,13,0,0,1,7.1-3.1c-1.7,2.1-1.2,7.3,1.7,7.3C197.8,497.81,198.3,492.61,196.7,490.41Z" transform="translate(0 0)"/><path class="b6a314bb-ed2d-484c-910f-2b8036afa744" d="M231.4,498.21a6.19,6.19,0,0,1,6.4,6v.12a6.26,6.26,0,0,1-6.4,6.1,6.19,6.19,0,0,1-6.1-6.1,6,6,0,0,1,5.9-6.1Zm1.6-7.8a12.36,12.36,0,0,1,7.1,3.1c-2.6.2-5.9,4.3-4,6.1s5.9-1.4,6.1-4a13.06,13.06,0,0,1,3.1,7.3c-1.9-1.7-7.3-1.2-7.3,1.4s5.4,3.1,7.3,1.4a13,13,0,0,1-3.1,7.3c-.2-2.6-4.3-5.9-6.1-4s1.4,5.9,4,6.1a14.72,14.72,0,0,1-7.1,3.1c1.7-2.1,1.2-7.3-1.7-7.3-2.6,0-3.1,5.2-1.4,7.3a15.45,15.45,0,0,1-7.3-3.1c2.6-.2,6.1-4.3,4.3-6.1s-6.1,1.4-6.4,4a12.67,12.67,0,0,1-2.8-7.3c1.9,1.7,7.1,1.2,7.1-1.4s-5.2-3.1-7.1-1.4a12.8,12.8,0,0,1,2.8-7.3c.2,2.6,4.5,5.9,6.4,4s-1.7-5.9-4.3-6.1a13.67,13.67,0,0,1,7.3-3.1c-1.7,2.1-1.2,7.3,1.4,7.3C234.2,497.81,234.7,492.61,233,490.41Z" transform="translate(0 0)"/><g id="aa0b7b87-68b7-4f88-a35b-0cb3d31c94ad" data-name="f8e948eb-707b-4576-a1a4-54b2a0f5615f"><circle class="a5b94aeb-4b0a-43bb-95ce-e391e6263813" cx="772.3" cy="493.51" r="45"/></g><path class="fb12aa11-229d-4fe9-aa35-fe239adee4e5" d="M772.6,500.81h.3a8.69,8.69,0,0,1,3.2-4.1,8.07,8.07,0,0,1,3.7-1.5,7.47,7.47,0,0,0-2.5-3.8,7.73,7.73,0,0,0-4.7-1.7,7.15,7.15,0,0,0-4.7,1.7,7.47,7.47,0,0,0-2.5,3.8,9.31,9.31,0,0,1,3.9,1.5,9.17,9.17,0,0,1,3.2,4.1Zm1.3.1a11,11,0,0,1,6,2.9,10,10,0,0,1,3,7.2v.9a8.21,8.21,0,0,0,4.6-2.6,8.12,8.12,0,0,0-.4-11.1,8,8,0,0,0-10.4-.9,9.87,9.87,0,0,0-2.8,3.6Zm5.3,3.5a9.42,9.42,0,1,0,2.7,6.6,8.81,8.81,0,0,0-2.7-6.6Zm3.5,8.5a10.82,10.82,0,0,1-2.8,5.4,10,10,0,0,1-7.2,3,9.86,9.86,0,0,1-7.2-3,9.69,9.69,0,0,1-2.8-5.4,9.76,9.76,0,0,1-5.3-3,8.5,8.5,0,0,1-2-4.4,8.15,8.15,0,0,1-5-2.8,8.45,8.45,0,0,1-2.1-4.8,8.22,8.22,0,0,1-7.1-6.5,7.44,7.44,0,0,1-4.1-2.8,7.92,7.92,0,0,1-1.6-4.8,7.72,7.72,0,0,1,2.3-5.5,7.89,7.89,0,0,1,5.5-2.3,7.38,7.38,0,0,1,4.8,1.7,7.75,7.75,0,0,1,2.6,3.6,8.09,8.09,0,0,1,2.6-3.7,7.92,7.92,0,0,1,4.8-1.6,8.14,8.14,0,0,1,4.8,1.6,7.59,7.59,0,0,1,2.6,3.7,8.09,8.09,0,0,1,2.6-3.7,7.92,7.92,0,0,1,4.8-1.6,8.14,8.14,0,0,1,4.8,1.6,8.44,8.44,0,0,1,2.7,3.7,7.29,7.29,0,0,1,2.6-3.6,8,8,0,0,1,9.6,0,7.75,7.75,0,0,1,2.6,3.6,7.76,7.76,0,0,1,2.7-3.7,7.61,7.61,0,0,1,4.7-1.6,7.83,7.83,0,0,1,6,12.8,7.44,7.44,0,0,1-4.3,2.6,8.23,8.23,0,0,1-2.1,3.9,8,8,0,0,1-5,2.5,9,9,0,0,1-2,4.8,8.7,8.7,0,0,1-4.8,2.8,8.29,8.29,0,0,1-2.2,4.5,9.41,9.41,0,0,1-5.5,3Zm-20.3-1V511a9.86,9.86,0,0,1,3-7.2,10,10,0,0,1,6.2-2.9,7.81,7.81,0,0,0-2.8-3.4,8.17,8.17,0,0,0-4.6-1.5,7.84,7.84,0,0,0-5.7,2.4,8,8,0,0,0-2.4,5.7,8.2,8.2,0,0,0,1.9,5.3,8.34,8.34,0,0,0,4.4,2.5Zm-7.3-7.4V504a9.27,9.27,0,0,1,2.6-6.4,8.91,8.91,0,0,1,6-2.6,6.88,6.88,0,0,0-2.5-3.7,7.61,7.61,0,0,0-4.7-1.6,7.14,7.14,0,0,0-5.3,2.2,7.33,7.33,0,0,0-2.2,5.3,7.56,7.56,0,0,0,1.9,5,8.31,8.31,0,0,0,4.2,2.3Zm26.3-9.5a9.21,9.21,0,0,1,6.3,2.6,9.07,9.07,0,0,1,2.6,6.4v.5a7.41,7.41,0,0,0,4-2.4,7.57,7.57,0,0,0,1.8-4.9,7.14,7.14,0,0,0-2.2-5.3,7.33,7.33,0,0,0-5.3-2.2,7.15,7.15,0,0,0-4.7,1.7,7.83,7.83,0,0,0-2.5,3.6Zm-33.3,2a8.35,8.35,0,0,1,2.5-5.7,8.61,8.61,0,0,1,5.8-2.5,7.16,7.16,0,0,0-2.2-4.4,7.25,7.25,0,0,0-12.3,5.3,7.37,7.37,0,0,0,1.9,5,7.55,7.55,0,0,0,4.3,2.3Zm9.4-8.2a8.29,8.29,0,0,1,4.3,1.8,8.14,8.14,0,0,1,2.8,4,8.14,8.14,0,0,1,2.8-4,8,8,0,0,1,4.7-1.8,7.16,7.16,0,0,0-2.2-4.4,7.24,7.24,0,0,0-10,0,6.28,6.28,0,0,0-2.4,4.4Zm15.7,0a8.48,8.48,0,0,1,7.4,5.9,8.65,8.65,0,0,1,2.7-4,8.29,8.29,0,0,1,4.4-1.8,7,7,0,0,0-2.3-4.5,7.48,7.48,0,0,0-5-2,7.25,7.25,0,0,0-7.2,6.4Zm15.6,0a8.82,8.82,0,0,1,5.8,2.5,8.61,8.61,0,0,1,2.5,5.8,7,7,0,0,0,4.4-2.3,7.48,7.48,0,0,0,2-5h0a7.17,7.17,0,0,0-7-7.3h-.26a7,7,0,0,0-5,2,6.39,6.39,0,0,0-2.4,4.3Zm-47.9,1.6v-.7a8.09,8.09,0,0,1,2.4-5.8,8.25,8.25,0,0,1,5.8-2.4h.6a6,6,0,0,0-2.3-3.1,7.19,7.19,0,0,0-4.3-1.5,7,7,0,0,0-4.9,2,6.81,6.81,0,0,0-2,4.9,6.65,6.65,0,0,0,1.4,4.2,7.8,7.8,0,0,0,3.3,2.4Zm10.4-8.7a8.13,8.13,0,0,1,3.4,1.9,8.73,8.73,0,0,1,2.2,3.4,7.77,7.77,0,0,1,2.2-3.4,8,8,0,0,1,5.4-2.2,7.5,7.5,0,0,0-2.3-3.2,6.85,6.85,0,0,0-4.2-1.4,6.65,6.65,0,0,0-4.2,1.4,8.49,8.49,0,0,0-2.5,3.5Zm14.9-.1a8,8,0,0,1,4.2,2.1,8.73,8.73,0,0,1,2.2,3.4,8.58,8.58,0,0,1,2.2-3.5,8.21,8.21,0,0,1,4.5-2.1,6.81,6.81,0,0,0-6.5-4.6,6.65,6.65,0,0,0-4.2,1.4,7.26,7.26,0,0,0-2.4,3.3Zm14.9-.1a8.22,8.22,0,0,1,5,2.2,7.77,7.77,0,0,1,2.2,3.4,8.58,8.58,0,0,1,2.2-3.5,7.47,7.47,0,0,1,3.7-2,7.87,7.87,0,0,0-2.3-3.4,7.19,7.19,0,0,0-4.3-1.5,6.65,6.65,0,0,0-4.2,1.4,7.64,7.64,0,0,0-2.3,3.4Zm14.8-.1h.2a8.19,8.19,0,0,1,8.2,8.18v0h0v.8a7,7,0,0,0,3.5-2.3,6.75,6.75,0,0,0,1.6-4.4,6.89,6.89,0,0,0-11.1-5.5,7.6,7.6,0,0,0-2.4,3.2Z" transform="translate(0 0)"/><g id="b33442d8-0300-4bee-a714-c682d37dd0a9" data-name="e4a9e002-5bf4-4cdc-a70a-f2c07a5df20f"><circle class="a5b94aeb-4b0a-43bb-95ce-e391e6263813" cx="1050.3" cy="493.51" r="45"/></g><path class="fb12aa11-229d-4fe9-aa35-fe239adee4e5" d="M1062.6,491.31h1a8.12,8.12,0,0,0,6.2-2.1l10-10a2.9,2.9,0,0,0,.1-4.1l-.1-.1a3.41,3.41,0,0,0-1.9-.9,2.45,2.45,0,0,0-.9-1.9,3.41,3.41,0,0,0-1.9-.9,2.45,2.45,0,0,0-.9-1.9,3.13,3.13,0,0,1-2.8-2.8,2.9,2.9,0,0,0-4.1-.1l-.1.1-10,10c-2.1,2.1-2.1,4.4-2.1,6.7a24.37,24.37,0,0,1-.1,2.7c-.1.7-1.2,2.4-3.6,4.8l-22.1-22.1-.2-.2c-2.8-2.4-5.6-2.5-7.6-.4-1.3,1.3-1.7,3.3-1.2,5.8,1.6,8.4,13,22.2,21.3,25.8h.1c-7.4,6.4-16.2,13.8-16.4,13.9l-.1.1a5.44,5.44,0,0,0,0,7.5,5.29,5.29,0,0,0,3.8,1.6,5.47,5.47,0,0,0,3.8-1.6l.1-.1c.1-.1,8.9-10.6,15.6-18.3l18.2,18.2a5.29,5.29,0,0,0,3.8,1.6h0a5.47,5.47,0,0,0,3.8-1.6,5.29,5.29,0,0,0,1.6-3.8,5.47,5.47,0,0,0-1.6-3.8h0l-18.5-18.5c2.4-2.3,4.1-3.5,4.8-3.6Zm-40.4-17.7c-.4-1.9-.1-3.2.7-4a2.62,2.62,0,0,1,1.9-.9,4.91,4.91,0,0,1,3.1,1.5l.1.1,23.3,23.3-3.6,3.6-1.4,1.4a9.86,9.86,0,0,1-3.9-.8c-7.8-3.3-18.7-16.4-20.2-24.2Zm9,46.2a3.17,3.17,0,0,1-2.3.9,2.93,2.93,0,0,1-2.3-1,3.17,3.17,0,0,1,0-4.48l0,0c.9-.7,10-8.4,17.3-14.8a12.82,12.82,0,0,0,2.3.3h.1l.6.6c-6.5,7.6-15,17.7-15.7,18.5Zm41.4-4.9h0a3.23,3.23,0,0,1,1,2.3,2.93,2.93,0,0,1-1,2.3,3.23,3.23,0,0,1-2.3,1h0a2.93,2.93,0,0,1-2.3-1l-19.9-19.9,2.3-2.3,2.3-2.3Zm-18.5-21.4-.6-.6-.6-.6c2.6-2.7,4-4.7,4.1-6,.1-1.1.1-2.1.1-3,0-2.1,0-3.7,1.5-5.2l10-10a1.05,1.05,0,0,1,1.3,0,.89.89,0,0,1,.3.7,1.09,1.09,0,0,1-.3.7l-8.4,8.4a1.05,1.05,0,0,0,0,1.48,1,1,0,0,0,.72.32.89.89,0,0,0,.7-.3l8.4-8.4a1.05,1.05,0,0,1,1.3,0,.85.85,0,0,1,.1,1.2.94.94,0,0,1-.1.1l-8.4,8.4a1.05,1.05,0,0,0,0,1.48,1,1,0,0,0,.72.32.89.89,0,0,0,.7-.3l8.4-8.4h0a1.05,1.05,0,0,1,1.3,0,.85.85,0,0,1,.1,1.2l-.1.1-8.4,8.4a1.05,1.05,0,0,0,0,1.48,1,1,0,0,0,.72.32.89.89,0,0,0,.7-.3l8.4-8.4h0a1.05,1.05,0,0,1,1.3,0,.85.85,0,0,1,.1,1.2l-.1.1-10,10c-1.4,1.4-2.8,1.5-4.7,1.5h-1a23.22,23.22,0,0,0-2.5.1c-1,0-3,1.4-5.7,4Z" transform="translate(0 0)"/><g id="adf2b517-9246-45c8-b30e-b44a0d275cce" data-name="b12d15e2-c583-41e5-869a-e68d3aa6c71e"><circle class="a5b94aeb-4b0a-43bb-95ce-e391e6263813" cx="1608.8" cy="493.51" r="45"/></g><path class="fb12aa11-229d-4fe9-aa35-fe239adee4e5" d="M1596.3,475.81a.83.83,0,0,1,1-.5l4.6,1.7a.83.83,0,0,1,.5,1,.74.74,0,0,1-.7.5h-.3l-4.6-1.7A.83.83,0,0,1,1596.3,475.81Zm6,4a.83.83,0,0,0-1-.5l-4.6,1.7a.83.83,0,0,0-.5,1,.74.74,0,0,0,.7.5h.3l4.6-1.7a.69.69,0,0,0,.57-.79A.74.74,0,0,0,1602.3,479.81Zm11.1-1.8a.74.74,0,0,0,.7.5h.3l4.6-1.7a.79.79,0,0,0-.5-1.5h0l-4.6,1.7c-.4.2-.7.6-.5,1Zm5.6,3-4.6-1.7a.79.79,0,1,0-.5,1.5h0l4.6,1.7h.3a.74.74,0,0,0,.7-.5.83.83,0,0,0-.5-1Zm13.7-2.6V497a5.38,5.38,0,0,1-5.36,5.4h-3.14a20.48,20.48,0,0,1,.3,14.6,7.3,7.3,0,0,1,4.3,6.6.86.86,0,0,1-.8.8h-40.2a.86.86,0,0,1-.8-.8,7.18,7.18,0,0,1,4.3-6.6,19.14,19.14,0,0,1-1.2-6.9,18.23,18.23,0,0,1,2.1-8.8,5.87,5.87,0,0,1,.2-8,6.39,6.39,0,0,1,3.5-1.7v-2.5a.86.86,0,0,1,.8-.8h.5a15.21,15.21,0,0,1-4.8-11.2,15.58,15.58,0,0,1,1.6-6.8c0-.1-.1-.2-.1-.3l-1.9-7.2a1.89,1.89,0,0,1,.3-1.8,1.75,1.75,0,0,1,1.4-.7,2.08,2.08,0,0,1,.7.1l7.2,1.9c.2.1.5.2.7.3a15.81,15.81,0,0,1,11.6,0,4.34,4.34,0,0,1,.7-.3l7.2-1.9a1.66,1.66,0,0,1,.7-.1,1.49,1.49,0,0,1,1.4.7,1.89,1.89,0,0,1,.3,1.8l-1.9,7.2c0,.1-.1.2-.1.3a14,14,0,0,1,1.4,4.5,5.24,5.24,0,0,1,9.1,3.6Zm-17-14.8a15.5,15.5,0,0,1,5.1,4.8l1.6-6c.1-.3,0-.4,0-.4h-.5Zm-20.7,4.7a16.69,16.69,0,0,1,5.1-4.8l-6.3-1.7h-.5a.47.47,0,0,0,0,.4Zm4.5,20h16.7a14.1,14.1,0,0,0,5.7-11.2,13.06,13.06,0,0,0-1.2-5.6c-.1-.2-.2-.5-.3-.7-.2-.4-.5-.8-.7-1.2a14,14,0,0,0-4.2-4.2,15.83,15.83,0,0,0-1.8-1c-.3-.1-.5-.2-.8-.3a13.79,13.79,0,0,0-9.8,0c-.3.1-.5.2-.8.3a10.57,10.57,0,0,0-1.8,1,14,14,0,0,0-4.2,4.2,8,8,0,0,0-.7,1.2c-.1.2-.2.5-.3.7a13.06,13.06,0,0,0-1.2,5.6,13.45,13.45,0,0,0,5.4,11.2Zm20.4.8v2.4h1.9v-7.6a15.18,15.18,0,0,1-3.2,4.3h.5a1,1,0,0,1,.8.9Zm-9,2.4h7.4v-1.7h-20.9v1.7Zm-3,1.6a2.3,2.3,0,1,0,2.3,2.3A2.4,2.4,0,0,0,1607.9,493.11Zm-5.6,4.7a6.67,6.67,0,0,1-.5,1.9,18.42,18.42,0,0,1,1.8-1.1c.3-.1.5-.2.8-.3a1.42,1.42,0,0,1,.7-.2,1.84,1.84,0,0,1-.5-.7,3.64,3.64,0,0,1-.6-2,4.46,4.46,0,0,1,.7-2.3h-4.3l.1.1a6.39,6.39,0,0,1,1.6,2.9,2.74,2.74,0,0,1,.1.9,2,2,0,0,1,.1.8Zm-9.3,2a1.21,1.21,0,0,0,.5.5.09.09,0,0,1,.1.1c.2.2.4.3.6.5l.6.3a4.75,4.75,0,0,0,1.7.4h.3l-.8-.8a.64.64,0,0,1,.9-.9l1.3,1.3a3.47,3.47,0,0,0,.8-.5l-1.5-1.5a.64.64,0,0,1,.8-1l.1.1,1.5,1.5c.2-.3.3-.5.5-.8l-1.3-1.3c-.1-.1-.1-.2-.2-.3s0-.4.2-.6a.75.75,0,0,1,.9,0l.5.5.3.3v-.2a2.18,2.18,0,0,0-.1-.8,2.41,2.41,0,0,0-.2-.8,4.15,4.15,0,0,0-.9-1.4,4,4,0,0,0-2.4-1.2h-.6a4.24,4.24,0,0,0-3,1.2,4.13,4.13,0,0,0-.6,5.4Zm-1.4,10.2a18.61,18.61,0,0,0,1.1,6.4,6.56,6.56,0,0,1,1.4-.1,5.15,5.15,0,0,1,1.3.1,20.54,20.54,0,0,1-.2-2.6,19.23,19.23,0,0,1,1.5-7.6,16.06,16.06,0,0,1,2-3.6,6,6,0,0,1-2.4.5,7.78,7.78,0,0,1-1.6-.2,10.23,10.23,0,0,1-1.5-.7,21.32,21.32,0,0,0-1.6,7.8Zm8.2,12.7h0a5.52,5.52,0,0,0-2.2-3.7,9.12,9.12,0,0,0-1-.6,3.18,3.18,0,0,0-.9-.3,4.57,4.57,0,0,0-1.6-.2,2.18,2.18,0,0,0-.8.1,2.41,2.41,0,0,0-.8.2,4.76,4.76,0,0,0-.7.3,5.63,5.63,0,0,0-3.3,4.4h2.8v-1.8a.6.6,0,1,1,1.2,0h0v1.8h.9v-1.8h0a.63.63,0,0,1,.5-.6h.1a.65.65,0,0,1,.6.6V523h.9v-1.8h0a.65.65,0,0,1,.6-.6h.1a.65.65,0,0,1,.6.6V523h2.3l.7-.3Zm18.8-5.8a16.12,16.12,0,0,0,.3-3.1,18.89,18.89,0,0,0-1.8-8.1,11.68,11.68,0,0,0-6.1-5.9c-.3-.1-.5-.2-.8-.3s-.6-.1-.9-.2a8.72,8.72,0,0,0-2.6,0,3.09,3.09,0,0,0-.9.2c-.3.1-.5.2-.8.3-2.7,1-4.9,3.4-6.4,6.5a18.31,18.31,0,0,0-1.6,7.5,16.12,16.12,0,0,0,.3,3.1,7.43,7.43,0,0,1,4.2,5.6v.2h12.9v-.2a7,7,0,0,1,4.2-5.6Zm5.3,1.4c-.2-.1-.5-.2-.7-.3s-.5-.1-.8-.2a2.2,2.2,0,0,0-.8-.1,7.78,7.78,0,0,0-1.6.2l-.9.3c-.3.2-.7.4-1,.6a6.37,6.37,0,0,0-2.2,3.7h2.9v-1.6a.58.58,0,0,1,.56-.6h.14a.65.65,0,0,1,.6.6h0v1.8h.9v-1.9a.65.65,0,0,1,.6-.6h.1a.63.63,0,0,1,.5.6h0v1.8h.9v-1.8a.6.6,0,0,1,1.2,0v1.8h2.8a5.5,5.5,0,0,0-3.2-4.3Zm7.2-39.9a3.84,3.84,0,0,0-1.1-2.7v1.2a.6.6,0,0,1-1.2,0v-2.1l-.9-.3v2.3a.6.6,0,0,1-1.2,0v-2.3a3.18,3.18,0,0,0-.9.3v2.1a.6.6,0,0,1-1.2,0v-1.2a3.7,3.7,0,0,0-1.1,2.7v13.9a.86.86,0,0,1-.8.8h-11.6a3.51,3.51,0,0,1,.7,2.3,3.64,3.64,0,0,1-.6,2c-.2.2-.3.5-.5.7.2.1.5.1.7.2a6,6,0,0,1,.8.3,10.44,10.44,0,0,1,2.7,1.8c.3.2.5.5.8.7.1.2.3.3.4.5a4.84,4.84,0,0,0,.7.8l.1.1a15.47,15.47,0,0,1,1.8,3.1,20.65,20.65,0,0,1,1.8,8.3,22.58,22.58,0,0,1-.2,2.6,5.66,5.66,0,0,1,1.3-.1,6,6,0,0,1,1.4.1,18.61,18.61,0,0,0,1.1-6.4,17.38,17.38,0,0,0-1.7-7.7h-2.8v-1.6h7.6a3.8,3.8,0,0,0,3.8-3.8h0l.1-18.6Zm-31.3-4.3a1.42,1.42,0,0,0,.6-.2l.6-.6,1.6-1.6,1.5,1.5.5.5a.78.78,0,0,0,1.1-1.1l-2.6-2.6a.78.78,0,0,0-1.1,0l-2.7,2.7a.78.78,0,0,0,0,1.1.56.56,0,0,0,.5.3Zm10.9,0a1.42,1.42,0,0,0,.6-.2l.6-.6,1.6-1.6,1.5,1.5.5.5a.78.78,0,0,0,1.18-1,.6.6,0,0,0-.08-.08L1614,470a.78.78,0,0,0-1.1,0l-2.7,2.7a.78.78,0,0,0,0,1.1.56.56,0,0,0,.5.3Zm-5.3,2.3h4.9a1.75,1.75,0,0,1,1.4.7,1.43,1.43,0,0,1-.3,1.5l-2.2,2.8c0,.1-.1.1-.1.2l2,2a.78.78,0,0,1-1,1.18l-.08-.08-.5-.5-1.5-1.5-1.6,1.6-.6.6a.74.74,0,0,1-.6.2,1.42,1.42,0,0,1-.6-.2.78.78,0,0,1,0-1.1l2-2c-.1-.1-.1-.2-.2-.2l-2.2-2.8a1.47,1.47,0,0,1-.3-1.5,1.78,1.78,0,0,1,1.5-.9Zm.4,1.6,2,2.6.1.1a.09.09,0,0,0,.1-.1l2-2.6Z" transform="translate(0 0)"/><line class="f85ce13f-dc07-4e01-968e-1a3ef134664b" x1="259.4" y1="55.71" x2="448.4" y2="55.71"/><line class="f85ce13f-dc07-4e01-968e-1a3ef134664b" x1="538.4" y1="55.71" x2="726.4" y2="55.71"/><line class="f85ce13f-dc07-4e01-968e-1a3ef134664b" x1="817.4" y1="55.71" x2="1005.4" y2="55.71"/><line class="f85ce13f-dc07-4e01-968e-1a3ef134664b" x1="1095.4" y1="55.71" x2="1283.4" y2="55.71"/><line class="f85ce13f-dc07-4e01-968e-1a3ef134664b" x1="1374.4" y1="55.71" x2="1562.4" y2="55.71"/><line class="f85ce13f-dc07-4e01-968e-1a3ef134664b" x1="259.4" y1="277.71" x2="448.4" y2="277.71"/><line class="f85ce13f-dc07-4e01-968e-1a3ef134664b" x1="538.4" y1="277.71" x2="726.4" y2="277.71"/><line class="f85ce13f-dc07-4e01-968e-1a3ef134664b" x1="817.4" y1="277.71" x2="1005.4" y2="277.71"/><line class="f85ce13f-dc07-4e01-968e-1a3ef134664b" x1="1095.4" y1="277.71" x2="1283.4" y2="277.71"/><line class="f85ce13f-dc07-4e01-968e-1a3ef134664b" x1="1374.4" y1="277.71" x2="1562.4" y2="277.71"/><line class="f85ce13f-dc07-4e01-968e-1a3ef134664b" x1="259.4" y1="492.71" x2="448.4" y2="492.71"/><line class="f85ce13f-dc07-4e01-968e-1a3ef134664b" x1="538.4" y1="492.71" x2="726.4" y2="492.71"/><line class="f85ce13f-dc07-4e01-968e-1a3ef134664b" x1="817.4" y1="492.71" x2="1005.4" y2="492.71"/><line class="f85ce13f-dc07-4e01-968e-1a3ef134664b" x1="1095.4" y1="492.71" x2="1283.4" y2="492.71"/><line class="f85ce13f-dc07-4e01-968e-1a3ef134664b" x1="1374.4" y1="492.71" x2="1562.4" y2="492.71"/><line class="f85ce13f-dc07-4e01-968e-1a3ef134664b" x1="1607.4" y1="100.71" x2="1607.4" y2="229.71"/><line class="f85ce13f-dc07-4e01-968e-1a3ef134664b" x1="214.4" y1="319.71" x2="214.4" y2="448.71"/><g id="b0b2eabb-cdd1-4773-91a8-395508853b52" data-name="b40c53bf-ae44-4449-a6ee-3716577bb5c3"><circle class="a5b94aeb-4b0a-43bb-95ce-e391e6263813" cx="493.3" cy="493.51" r="45"/></g><rect class="f879bd94-61e7-4f66-ad63-a1da18ada2f4" x="468.3" y="465.05" width="50" height="56.62"/><rect class="f488a2df-f4b3-4b46-81d3-34bf73374008" x="490" y="465.05" width="6.6" height="24.26"/><rect class="f488a2df-f4b3-4b46-81d3-34bf73374008" x="503.2" y="465.05" width="6.6" height="24.26"/><rect class="f488a2df-f4b3-4b46-81d3-34bf73374008" x="476.9" y="465.05" width="6.6" height="24.26"/><path class="e8adcf3a-5b9d-4977-9bd5-c7e7c9c426ae" d="M480.2,489.21v32.35" transform="translate(0 0)"/><path class="e8adcf3a-5b9d-4977-9bd5-c7e7c9c426ae" d="M493.3,489.21v32.35" transform="translate(0 0)"/><path class="e8adcf3a-5b9d-4977-9bd5-c7e7c9c426ae" d="M506.5,489.21v32.35" transform="translate(0 0)"/></g><g id="a9b3f27f-b858-4459-9ffb-d04204594d58" data-name="b12ebc93-49b3-4962-beae-a3e1249b4db4"><rect class="aeb8f996-246f-4850-83a5-a3a20f4015a8" x="151.7" y="112.01" width="149.7" height="85.7"/><text class="ab3e663a-1180-421e-90aa-2f56786318da" transform="translate(162.39 126.84)">Paleolithic era:</text><text class="a93bcd20-3820-415a-bcea-5afcedc4f6c2" transform="translate(159.99 148.44)">Hunters scratch</text><text class="a93bcd20-3820-415a-bcea-5afcedc4f6c2" transform="translate(185.79 170.04)">images of</text><text class="a93bcd20-3820-415a-bcea-5afcedc4f6c2" transform="translate(154.69 191.64)">animals on tusks</text><rect class="aeb8f996-246f-4850-83a5-a3a20f4015a8" x="407.3" y="112.01" width="172" height="85.7"/><text class="ab3e663a-1180-421e-90aa-2f56786318da" transform="translate(413.45 126.84)">3500 BC, Harappa:</text><text class="a93bcd20-3820-415a-bcea-5afcedc4f6c2" transform="translate(436.45 148.44)">Elephants are</text><text class="a93bcd20-3820-415a-bcea-5afcedc4f6c2" transform="translate(424.55 170.04)">tamed, beasts of</text><text class="a93bcd20-3820-415a-bcea-5afcedc4f6c2" transform="translate(427.45 191.64)">burden, mounts</text><rect class="aeb8f996-246f-4850-83a5-a3a20f4015a8" x="685" y="112.01" width="173.7" height="85.7"/><text class="ab3e663a-1180-421e-90aa-2f56786318da" transform="translate(704.59 126.84)">3500 BC, E</text><text class="ab3e663a-1180-421e-90aa-2f56786318da" transform="translate(796.29 126.84)">g</text><text class="ab3e663a-1180-421e-90aa-2f56786318da" transform="translate(807.09 126.84)">ypt:</text><text class="a93bcd20-3820-415a-bcea-5afcedc4f6c2" transform="translate(716.69 148.44)">Ivory statues,</text><text class="a93bcd20-3820-415a-bcea-5afcedc4f6c2" transform="translate(688.59 170.04)">unguent containers,</text><text class="a93bcd20-3820-415a-bcea-5afcedc4f6c2" transform="translate(723.29 191.64)">arrowheads</text><rect class="aeb8f996-246f-4850-83a5-a3a20f4015a8" x="975.7" y="112.01" width="149.7" height="85.7"/><text class="ab3e663a-1180-421e-90aa-2f56786318da" transform="translate(984.75 126.84)">Roman Empire:</text><text class="a93bcd20-3820-415a-bcea-5afcedc4f6c2" transform="translate(1011.25 148.44)">Dentures.</text><text class="a93bcd20-3820-415a-bcea-5afcedc4f6c2" transform="translate(976.35 170.04)">Elephants used in</text><text class="a93bcd20-3820-415a-bcea-5afcedc4f6c2" transform="translate(985.05 191.64)">Coliseum fights</text><rect class="aeb8f996-246f-4850-83a5-a3a20f4015a8" x="1241" y="112.01" width="175.7" height="85.7"/><text class="ab3e663a-1180-421e-90aa-2f56786318da" transform="translate(1265.68 126.84)">Ancient Japan:</text><text class="a93bcd20-3820-415a-bcea-5afcedc4f6c2" transform="translate(1257.98 148.44)">Ivory was used to</text><text class="a93bcd20-3820-415a-bcea-5afcedc4f6c2" transform="translate(1243.68 170.04)">make personal seals</text><rect class="aeb8f996-246f-4850-83a5-a3a20f4015a8" x="1667" y="0.01" width="175.7" height="111.7"/><text class="ab3e663a-1180-421e-90aa-2f56786318da" transform="translate(1683.77 14.84)">Early Christians:</text><text class="a93bcd20-3820-415a-bcea-5afcedc4f6c2" transform="translate(1688.27 36.44)">Ivory believed to</text><text class="a93bcd20-3820-415a-bcea-5afcedc4f6c2" transform="translate(1667.27 58.04)">sweat when touching</text><text class="a93bcd20-3820-415a-bcea-5afcedc4f6c2" transform="translate(1702.07 79.64)">poison; royal</text><text class="a93bcd20-3820-415a-bcea-5afcedc4f6c2" transform="translate(1687.07 101.24)">drinking vessels</text><rect class="aeb8f996-246f-4850-83a5-a3a20f4015a8" x="1667" y="244.01" width="175.7" height="111.7"/><text class="ab3e663a-1180-421e-90aa-2f56786318da" transform="translate(1683.77 258.84)">Early Christians:</text><text class="a93bcd20-3820-415a-bcea-5afcedc4f6c2" transform="translate(1668.37 280.44)">Iconography, statues</text><text class="a93bcd20-3820-415a-bcea-5afcedc4f6c2" transform="translate(1690.37 302.04)">of the Madonna</text><rect class="aeb8f996-246f-4850-83a5-a3a20f4015a8" x="1239" y="333.01" width="175.7" height="111.7"/><text class="ab3e663a-1180-421e-90aa-2f56786318da" transform="translate(1287.23 347.84)">Muslims:</text><text class="a93bcd20-3820-415a-bcea-5afcedc4f6c2" transform="translate(1260.33 369.44)">Ivory believed to</text><text class="a93bcd20-3820-415a-bcea-5afcedc4f6c2" transform="translate(1265.33 391.04)">staunch blood;</text><text class="a93bcd20-3820-415a-bcea-5afcedc4f6c2" transform="translate(1241.83 412.64)">knife/sword handles</text><rect class="aeb8f996-246f-4850-83a5-a3a20f4015a8" x="962" y="333.01" width="175.7" height="111.7"/><text class="ab3e663a-1180-421e-90aa-2f56786318da" transform="translate(1025.38 347.84)">India:</text><text class="a93bcd20-3820-415a-bcea-5afcedc4f6c2" transform="translate(979.98 369.44)">Fine lattice work,</text><text class="a93bcd20-3820-415a-bcea-5afcedc4f6c2" transform="translate(963.38 391.04)">boxes, pens, caskets,</text><text class="a93bcd20-3820-415a-bcea-5afcedc4f6c2" transform="translate(975.98 412.64)">costumes, jewelry</text><rect class="aeb8f996-246f-4850-83a5-a3a20f4015a8" x="682" y="333.01" width="175.7" height="74.7"/><text class="ab3e663a-1180-421e-90aa-2f56786318da" transform="translate(755.5 347.84)">US:</text><text class="a93bcd20-3820-415a-bcea-5afcedc4f6c2" transform="translate(741 369.44)">Combs</text><rect class="aeb8f996-246f-4850-83a5-a3a20f4015a8" x="405" y="333.01" width="175.7" height="74.7"/><text class="ab3e663a-1180-421e-90aa-2f56786318da" transform="translate(430.71 347.84)">1800s, Europe:</text><text class="a93bcd20-3820-415a-bcea-5afcedc4f6c2" transform="translate(453.61 369.44)">Scientific</text><text class="a93bcd20-3820-415a-bcea-5afcedc4f6c2" transform="translate(441.21 391.04)">instruments</text><rect class="aeb8f996-246f-4850-83a5-a3a20f4015a8" y="242.01" width="175.7" height="74.7"/><text class="ab3e663a-1180-421e-90aa-2f56786318da" transform="translate(7.35 256.84)">1900s, Everywhere:</text><text class="a93bcd20-3820-415a-bcea-5afcedc4f6c2" transform="translate(32.15 278.44)">Chess pieces,</text><text class="a93bcd20-3820-415a-bcea-5afcedc4f6c2" transform="translate(55.15 300.04)">bangles</text><rect class="aeb8f996-246f-4850-83a5-a3a20f4015a8" y="471.01" width="175.7" height="42.7"/><text class="ab3e663a-1180-421e-90aa-2f56786318da" transform="translate(33.98 485.84)">1900s, India:</text><text class="a93bcd20-3820-415a-bcea-5afcedc4f6c2" transform="translate(58.18 507.44)">Jewelry</text><rect class="aeb8f996-246f-4850-83a5-a3a20f4015a8" x="407" y="554.01" width="175.7" height="42.7"/><text class="ab3e663a-1180-421e-90aa-2f56786318da" transform="translate(433.04 568.84)">1900s, Europe:</text><text class="a93bcd20-3820-415a-bcea-5afcedc4f6c2" transform="translate(450.84 590.44)">Piano keys</text><rect class="aeb8f996-246f-4850-83a5-a3a20f4015a8" x="684" y="554.01" width="175.7" height="42.7"/><text class="ab3e663a-1180-421e-90aa-2f56786318da" transform="translate(710.04 568.84)">1900s, Europe:</text><text class="a93bcd20-3820-415a-bcea-5afcedc4f6c2" transform="translate(719.84 590.44)">Billiard balls</text><rect class="aeb8f996-246f-4850-83a5-a3a20f4015a8" x="962" y="554.01" width="175.7" height="42.7"/><text class="ab3e663a-1180-421e-90aa-2f56786318da" transform="translate(988.04 568.84)">1900s, Europe:</text><text class="a93bcd20-3820-415a-bcea-5afcedc4f6c2" transform="translate(985.34 590.44)">Cutlery handles</text><rect class="aeb8f996-246f-4850-83a5-a3a20f4015a8" x="1243" y="554.01" width="175.7" height="42.7"/><text class="ab3e663a-1180-421e-90aa-2f56786318da" transform="translate(1271.49 568.84)">2000s, China:</text><text class="a93bcd20-3820-415a-bcea-5afcedc4f6c2" transform="translate(1283.79 590.44)">Investment</text><rect class="aeb8f996-246f-4850-83a5-a3a20f4015a8" x="1519" y="554.01" width="175.7" height="42.7"/><text class="ab3e663a-1180-421e-90aa-2f56786318da" transform="translate(1547.49 568.84)">2000s, China:</text><text class="a93bcd20-3820-415a-bcea-5afcedc4f6c2" transform="translate(1532.29 590.44)">Good luck charms</text><rect class="aeb8f996-246f-4850-83a5-a3a20f4015a8" y="318.01" width="175.7" height="25.7"/><text class="b0b4d91e-4e75-4367-9773-f217cc5acb37" transform="translate(22.57 332.84)">PEAK OF TRADE</text></g></svg>