<svg xmlns="http://www.w3.org/2000/svg" viewBox="0 0 1561 664"><defs><style>.b90df4c2-ce84-480e-a4f5-1ff9b0ef8e0c,.f0a78f00-54fd-4b83-9ee4-f4bd78ab8d39{fill:none;}.abd536d0-8940-4568-9e6f-dd56132ddb6f,.b90df4c2-ce84-480e-a4f5-1ff9b0ef8e0c,.f0a78f00-54fd-4b83-9ee4-f4bd78ab8d39{stroke:#8b0e3a;stroke-miterlimit:10;}.b90df4c2-ce84-480e-a4f5-1ff9b0ef8e0c{stroke-width:6px;}.a549ff9c-8b8d-4405-9451-8c4145950449,.ebe84663-5f63-407b-be83-796c9c72e431{font-size:40px;}.a549ff9c-8b8d-4405-9451-8c4145950449,.b9cfc9ca-5e19-4725-b2b3-61ff6605b208,.bd0d479f-b6aa-4058-98ea-1ddf07fc4923,.f347a2db-99df-4667-804d-ff1140133765,.f43ee890-3321-47ca-a4cf-1314fbaee5e5{fill:#8b0e3a;}.a549ff9c-8b8d-4405-9451-8c4145950449,.ad8ef3de-5975-4cd9-82b1-ac3a31eadda1,.f347a2db-99df-4667-804d-ff1140133765{font-family:Karla-Bold, Karla;}.a549ff9c-8b8d-4405-9451-8c4145950449,.ad8ef3de-5975-4cd9-82b1-ac3a31eadda1,.bd0d479f-b6aa-4058-98ea-1ddf07fc4923,.f347a2db-99df-4667-804d-ff1140133765{font-weight:700;}.ba1f183d-84c0-476e-9a11-afc3292feda9,.bd0959a7-6651-4f97-af03-0666855c6cb4{font-size:36px;}.a4e5da70-d627-412a-9a2c-567edad58218,.ba1f183d-84c0-476e-9a11-afc3292feda9,.bd0959a7-6651-4f97-af03-0666855c6cb4,.ebe84663-5f63-407b-be83-796c9c72e431,.f43ee890-3321-47ca-a4cf-1314fbaee5e5,.f5267879-59f3-4a62-88b5-c98d4c290430{font-family:Karla-Regular, Karla;}.a4e5da70-d627-412a-9a2c-567edad58218,.ba1f183d-84c0-476e-9a11-afc3292feda9,.bd0959a7-6651-4f97-af03-0666855c6cb4,.ebe84663-5f63-407b-be83-796c9c72e431{font-weight:400;}.bd0959a7-6651-4f97-af03-0666855c6cb4{letter-spacing:-0.02em;}.f347a2db-99df-4667-804d-ff1140133765{font-size:46px;}.bd0d479f-b6aa-4058-98ea-1ddf07fc4923{font-size:73px;font-family:Rockwell-Bold, Rockwell;}.f5267879-59f3-4a62-88b5-c98d4c290430{font-size:28px;}.abd536d0-8940-4568-9e6f-dd56132ddb6f{fill:#f2e5d2;stroke-width:4px;}.f43ee890-3321-47ca-a4cf-1314fbaee5e5{font-size:34px;}.b2f51df4-53da-4c1a-b777-8e15a048be19{fill:#e0c389;}</style></defs><g id="ae5b0526-773e-45d9-95c9-1033b0a129e3" data-name="Layer 3"><line class="b90df4c2-ce84-480e-a4f5-1ff9b0ef8e0c" x1="257" y1="159" x2="1304" y2="159"/><text class="a549ff9c-8b8d-4405-9451-8c4145950449" transform="translate(658.23 72.63)">175 <tspan class="ba1f183d-84c0-476e-9a11-afc3292feda9" x="67.6" y="0">la</tspan><tspan class="bd0959a7-6651-4f97-af03-0666855c6cb4" x="97.84" y="0">r</tspan><tspan class="ba1f183d-84c0-476e-9a11-afc3292feda9" x="110.83" y="0">ge scale </tspan><tspan class="ba1f183d-84c0-476e-9a11-afc3292feda9"><tspan x="53.09" y="43.2">seizures</tspan></tspan></text><text class="f347a2db-99df-4667-804d-ff1140133765" transform="translate(657.36 235.58)">293 tonnes<tspan class="a4e5da70-d627-412a-9a2c-567edad58218" x="246.28" y="0"> </tspan><tspan class="ebe84663-5f63-407b-be83-796c9c72e431"><tspan x="56.34" y="48">of ivory</tspan></tspan></text><text class="bd0d479f-b6aa-4058-98ea-1ddf07fc4923" transform="translate(759.22 448.27)">~</text><text class="a549ff9c-8b8d-4405-9451-8c4145950449" transform="translate(713.82 577.63)">43,834 <tspan x="-27.84" y="48">elephants</tspan></text><text class="f5267879-59f3-4a62-88b5-c98d4c290430" transform="translate(257.71 325.46)">Fraction of seizures <tspan x="-15.5" y="33.6">Vietnam is implicated </tspan><tspan x="79.32" y="67.2">in: </tspan><tspan class="ad8ef3de-5975-4cd9-82b1-ac3a31eadda1" x="117.71" y="67.2">22%</tspan></text><text class="f5267879-59f3-4a62-88b5-c98d4c290430" transform="translate(1043.21 325.46)">Fraction of seizures <tspan x="52.09" y="33.6">resulting in </tspan><tspan x="17.93" y="67.2">conviction: </tspan><tspan class="ad8ef3de-5975-4cd9-82b1-ac3a31eadda1" x="165.6" y="67.2">13.7%</tspan></text><g id="bd71103c-093c-45a8-b179-b5fe1028844c" data-name="Money"><circle class="abd536d0-8940-4568-9e6f-dd56132ddb6f" cx="257.49" cy="159.07" r="59.49"/></g><g id="b37e9853-d6f6-4c74-a022-3dc3eb45ab0b" data-name="Money"><circle class="abd536d0-8940-4568-9e6f-dd56132ddb6f" cx="1303.47" cy="159.56" r="59.49"/></g><text class="f43ee890-3321-47ca-a4cf-1314fbaee5e5" transform="translate(217.34 169.05)">2000</text><text class="f43ee890-3321-47ca-a4cf-1314fbaee5e5" transform="translate(1268.01 169.54)">2019</text><rect class="b9cfc9ca-5e19-4725-b2b3-61ff6605b208" x="287.88" y="427" width="21" height="21"/><rect class="f0a78f00-54fd-4b83-9ee4-f4bd78ab8d39" x="330.63" y="427" width="21" height="21"/><rect class="f0a78f00-54fd-4b83-9ee4-f4bd78ab8d39" x="373.38" y="427" width="21" height="21"/><rect class="f0a78f00-54fd-4b83-9ee4-f4bd78ab8d39" x="416.13" y="427" width="21" height="21"/><rect class="f0a78f00-54fd-4b83-9ee4-f4bd78ab8d39" x="458.88" y="427" width="21" height="21"/><rect class="f0a78f00-54fd-4b83-9ee4-f4bd78ab8d39" x="1073.88" y="427" width="21" height="21"/><rect class="f0a78f00-54fd-4b83-9ee4-f4bd78ab8d39" x="1116.63" y="427" width="21" height="21"/><rect class="f0a78f00-54fd-4b83-9ee4-f4bd78ab8d39" x="1159.38" y="427" width="21" height="21"/><rect class="f0a78f00-54fd-4b83-9ee4-f4bd78ab8d39" x="1202.13" y="427" width="21" height="21"/><rect class="f0a78f00-54fd-4b83-9ee4-f4bd78ab8d39" x="1244.88" y="427" width="21" height="21"/><rect class="b9cfc9ca-5e19-4725-b2b3-61ff6605b208" x="1073.88" y="427" width="15.12" height="21"/><path class="b9cfc9ca-5e19-4725-b2b3-61ff6605b208" d="M638.67,80.89a5.08,5.08,0,0,1,2.19.64,1.17,1.17,0,0,1,.56.71.92.92,0,0,0,1.84.14A2.79,2.79,0,0,0,641.85,80a5.55,5.55,0,0,0-3-.91,7.28,7.28,0,0,0-2.55.28,6.21,6.21,0,0,0-3-1.49,6,6,0,0,0-3.18.07,3.81,3.81,0,0,0-1.27.71,11.26,11.26,0,0,0-1.56,0c-.35.07-.64.07-1,.14a4.91,4.91,0,0,0-4.52-.28A6.64,6.64,0,0,0,619,80.05l-.36-1.21a2.72,2.72,0,0,0-1.27-1.55,2.13,2.13,0,0,0-2-.14l-3.89,1.2c-.28-.28-.49-.64-.77-.92A14.75,14.75,0,0,0,587.19,81a14.51,14.51,0,0,0-1.06,11.24,15.11,15.11,0,0,0,3.67,6.08,14.78,14.78,0,0,0,25.11-8.42h.14l4-1.27a2.55,2.55,0,0,0,1.7-3.25l-.36-1.06a6.05,6.05,0,0,0,3.11-.28,6.44,6.44,0,0,0,3-1.84,4.55,4.55,0,0,1,1,0c.5-.07.92-.07,1.42-.14h0A6.19,6.19,0,0,0,632,83.65c2.61.5,4.88-.35,5.16-2.05v-.85A12.88,12.88,0,0,0,638.67,80.89ZM604,100.41a13,13,0,0,1-15.91-7.71l3.46-1.06a8.51,8.51,0,0,0,2,3A9.29,9.29,0,0,0,603,97a9.51,9.51,0,0,0,5.58-4.6,9,9,0,0,0,.64-7.14,9.47,9.47,0,0,0-2.33-3.89A9.29,9.29,0,0,0,597.44,79,9.42,9.42,0,0,0,591,89.8l-3.47,1.06A13,13,0,0,1,609.32,78.7,12.36,12.36,0,0,1,612.5,84,12.92,12.92,0,0,1,604,100.41ZM593,90.23h0a7.54,7.54,0,0,1,12.58-7.5,7.7,7.7,0,0,1,1.35,8.84,7.82,7.82,0,0,1-4.46,3.75,7.5,7.5,0,0,1-7.56-1.91A7.37,7.37,0,0,1,593,90.23Zm25.45-3.11L615,88.18a17,17,0,0,0-.64-4.6,17.3,17.3,0,0,0-1.7-3.68L616,78.84a.69.69,0,0,1,.92.5l2.05,6.72A.79.79,0,0,1,618.44,87.12ZM623,82.59c-1.42.43-2.55.28-3-.14l-.14-.14c-.07-.21.07-.5.42-.85a4.5,4.5,0,0,1,2-1.13l.64-.21a.73.73,0,0,0-.21.77,1.13,1.13,0,0,0,.35.78h0a1.91,1.91,0,0,0,.92.5C623.68,82.31,623.25,82.45,623,82.59Zm4.17-2h.14a1.8,1.8,0,0,0,.64-.07h0c-.21.07-.43,0-.64.07s-.07.07-.14,0Zm5.23,1.56a3.4,3.4,0,0,1-1.27-.43,1.47,1.47,0,0,0,.92-1.34.92.92,0,0,0-.28-.71,5.63,5.63,0,0,1,1.13.14,3.64,3.64,0,0,1,1.69.71,2.46,2.46,0,0,0-.7,1.41.54.54,0,0,0,.07.36A6.43,6.43,0,0,1,632.37,82.1Z"/><path class="b9cfc9ca-5e19-4725-b2b3-61ff6605b208" d="M646.66,84.78a.68.68,0,0,0,.63.21h7.5a.92.92,0,1,0,0-1.83h-7.5a.86.86,0,0,0-.92.92A1,1,0,0,0,646.66,84.78Z"/><path class="b9cfc9ca-5e19-4725-b2b3-61ff6605b208" d="M638.88,76.58a.88.88,0,0,0,.21.64.72.72,0,0,0,.64.21.86.86,0,0,0,.92-.92V69a.92.92,0,0,0-1.84,0Z"/><path class="b9cfc9ca-5e19-4725-b2b3-61ff6605b208" d="M643.55,80.4a.9.9,0,0,0,1.27,0l4.95-5a.9.9,0,1,0-1.28-1.27l-4.94,4.95A.88.88,0,0,0,643.55,80.4Z"/><path class="b9cfc9ca-5e19-4725-b2b3-61ff6605b208" d="M951.74,71.83a15,15,0,0,0-13.37,4A16.36,16.36,0,0,0,937,77.49a.1.1,0,0,0-.14,0l-4.24-.85a2.5,2.5,0,0,0-1.91.35,2.46,2.46,0,0,0-1.06,1.63v.14a6.4,6.4,0,0,0-2.41-1.13,5.12,5.12,0,0,0-4.45.49c-.36-.07-.71,0-1.06-.07a13.44,13.44,0,0,0-1.49.07,4.31,4.31,0,0,0-1.27-.7A7.18,7.18,0,0,0,912.85,79a2.63,2.63,0,0,0-.85,2.55,2.7,2.7,0,0,0,.71,1.13l-.29.28a5,5,0,0,1-2,1.06c-.49.08-.77.08-1-.14A.9.9,0,0,0,908,85.05a2.53,2.53,0,0,0,2.69.71,5.94,5.94,0,0,0,2.82-1.41l.5-.5.35-.35a8.17,8.17,0,0,0,2.9-.07,7.05,7.05,0,0,0,3-1.56l.14-.14c.5.07.92.07,1.42.14a4.55,4.55,0,0,0,1,0,5.28,5.28,0,0,0,3,1.7,7.78,7.78,0,0,0,3,.21l-.43,2a2.58,2.58,0,0,0,2,3l4,.78a15.88,15.88,0,0,0,2.2,5.16A14.45,14.45,0,0,0,946,101a15.31,15.31,0,0,0,13.29-4.24,14.79,14.79,0,0,0-7.56-25ZM921.9,79.89h-.14a1.77,1.77,0,0,1-.64-.07h0a2.4,2.4,0,0,1,.71,0c-.07.07,0,0,.07.07Zm-8.13.78a.51.51,0,0,1-.14.42h0A.51.51,0,0,1,913.77,80.67Zm1.55,1a2.73,2.73,0,0,0,0-2.26,2.55,2.55,0,0,1,.78-.21,4.9,4.9,0,0,1,1.13-.15,1.18,1.18,0,0,0-.28.71,1.3,1.3,0,0,0,1,1.27,3.23,3.23,0,0,1-1.27.43A1.81,1.81,0,0,1,915.32,81.66Zm10.75,0a4.21,4.21,0,0,1-1-.42,2,2,0,0,0,.92-.5,1.91,1.91,0,0,0,.42-.85.9.9,0,0,0-.28-.7,1.77,1.77,0,0,0,.64.07c1.41.42,2.26,1.13,2.4,1.69l-.14.43C928.69,81.87,927.56,82,926.07,81.66Zm4.6,5.16a.77.77,0,0,1-.57-.85l.78-3.89c.07-.07.07-.21.14-.28a2.16,2.16,0,0,0,.07-.63l.43-2.13a1.26,1.26,0,0,1,.35-.49.84.84,0,0,1,.56-.14l3.54.7a16.15,16.15,0,0,0-1.63,4.32,19.43,19.43,0,0,0-.21,4Zm31,1.13-3.47-.63a9.45,9.45,0,0,0-16.12-7.64,8.64,8.64,0,0,0-2.54,4.81,9.46,9.46,0,0,0,7.42,11.1A9.58,9.58,0,0,0,955.49,93a9.18,9.18,0,0,0,2.33-3.89l3.54.71A13.37,13.37,0,0,1,958,95.52a13,13,0,0,1-11.74,3.54,12.82,12.82,0,0,1-8.2-5.52,13,13,0,0,1,1.56-16.41,13,13,0,0,1,19.94,2A12.65,12.65,0,0,1,961.64,88Zm-7.43,3.75a7.8,7.8,0,0,1-6.93,2.12,7.58,7.58,0,0,1-4.8-3.25,7.68,7.68,0,0,1-1.14-5.66,8.06,8.06,0,0,1,2-3.89,7.87,7.87,0,0,1,6.93-2.12,7.69,7.69,0,0,1,6,9A7.83,7.83,0,0,1,954.21,91.7Z"/><path class="b2f51df4-53da-4c1a-b777-8e15a048be19" d="M769.42,328.37V317.23H662.82V305.9H897.34v11.33H790.74v11.14C908,338.73,908,519.76,908,519.76H652.17S652.18,338.73,769.42,328.37Zm10.66,10.28a85.18,85.18,0,1,0,85.18,85.17A85.18,85.18,0,0,0,780.08,338.65Z"/></g></svg>