<svg xmlns="http://www.w3.org/2000/svg" viewBox="0 0 440 662"><g id="tusks"><path d="M351.73,613.47c.44-2.19.44-4.59,1.38-6.54,20.71-42.87,19.09-86.65,5.46-130.92-8.9-28.94-21.52-56.25-36.74-82.36-3.57-6.12-3.07-11.09,1.1-16.44,4.74-6.08,10.36-10.77,17.84-13,7.78-2.34,13.07-.74,16.67,6.71,7.67,15.88,15.21,31.86,21.87,48.17,12.18,29.83,19.93,60.73,19.39,93.25-.64,38.61-14.87,71.59-41.75,99.19a30,30,0,0,1-3.71,2.86Z"/><path d="M86.56,614.64a148.69,148.69,0,0,1-24.25-29.47C45.87,559,40,530.22,41.52,499.72c1.87-36.54,13.76-70.36,28.7-103.29,4-8.79,8.26-17.45,12.19-26.27,1.92-4.29,4.56-5.54,9.12-4.07,10.56,3.4,19.33,9.51,27.3,17,3,2.8,2.15,5.42.4,8.45-13.6,23.72-25.69,48.16-34.47,74.13-7.71,22.82-13.19,46.07-13.61,70.3-.42,23.73,4.82,46.22,14.54,67.79,1.42,3.14,1.91,6.7,2.82,10.06Z"/></g><g id="skull"><path d="M136.89,94.68c-7.92,8.59-17.59,14.74-28.24,19.37-4.45,1.94-6.06,1.15-6.38-3.4-1.91-27.11,5.71-40,26.66-50.12a141.84,141.84,0,0,1,19.94-7.9c21.73-6.71,43.56-6.76,65.55-.76A24.79,24.79,0,0,0,227,51.78c30.28-8.47,59.12-4.52,86.69,9.76,11.68,6.05,21.77,14.26,23.8,28.34,1.06,7.35.58,14.94.59,22.43,0,4-2.53,2.91-4.84,2a85.44,85.44,0,0,1-34.36-25c-3.7-4.39-7.36-8.81-11.42-12.89,8.43,24.8,20.47,46.63,46.65,56.84,2.17.85,4.27,1.88,6.43,2.75,11,4.4,16.11,12.61,16.83,24.28.29,4.74,1.84,9.43,3.07,14.07,2.82,10.66,3.43,21.33.8,32.12s-9,18.79-17.72,25.17c-3.33,2.43-6.83,2.73-10.26.5-3.87-2.5-7.55-5.28-11.75-8.25-2.83,10.65-4.58,21.93-.4,32.65a116.4,116.4,0,0,0,13.84,24.62c7.75,10.92,15.62,21.51,18.41,35,2.62,12.73,1.19,25.18-1.61,37.58-.25,1.09-2.89,2.75-3.78,2.42-13.84-5.05-26.16-1.94-37.56,6.9-2.59-6-4.57-11.87-7.49-17.2-10.61-19.33-27.21-31.52-48.27-36.73-30.35-7.51-60.21-6.06-88.34,9.11-17.22,9.28-29.48,23-35.73,41.86-2.29,6.89-3.84,7.36-10.06,3.49-8.21-5.11-16.82-8.83-26.78-8-3.25.28-4.39-1.71-5-4.39-5.4-23.77-1.63-45.61,13.61-65.08,3.8-4.85,7.75-9.61,11.15-14.73,8.55-12.87,10.81-27,7.54-42.06-.38-1.72-1.08-3.37-1.84-5.67-3.17,2.57-5.76,4.83-8.51,6.86-6.08,4.47-9.87,4.23-15.6-.73-14.88-12.86-20-28.9-16-48.09,1.25-6,2-12.13,2.69-18.23,1.71-15.16,9.84-25,24.09-30.13,26.28-9.48,39.25-30.49,47.64-55.4"/></g></svg>