<svg id="Layer_1" data-name="Layer 1" xmlns="http://www.w3.org/2000/svg" viewBox="0 0 310 310"><defs><style>.cls-1{fill:#f2e5d2;stroke:#8b0e3a;stroke-miterlimit:10;stroke-width:5px;}.cls-2{fill:#8b0e3a;}</style></defs><circle class="cls-1" cx="155" cy="155" r="150.54"/><path class="cls-2" d="M147.55,117.8h0a7.41,7.41,0,0,0,.23-10,5.8,5.8,0,0,0-4.78-2,13.73,13.73,0,0,0-.91-1.37l-1.36-2a14.71,14.71,0,0,0-4.55-3.87,18.74,18.74,0,0,0-9.55-3c-6.82,0-13.18,4.1-16.82,10.24a.22.22,0,0,1-.23.22,9,9,0,0,0-3,.68,6.77,6.77,0,0,0-4.1,6.37,6.48,6.48,0,0,0,2.28,5,24.6,24.6,0,0,0-3.87,3h0c-.22,0-.45-.23-.68-.23A20.51,20.51,0,0,0,88,121c-.45.23-1.59.45-1.81,1.59a2.4,2.4,0,0,0,.45,1.36,2.15,2.15,0,0,0,2,0,18.52,18.52,0,0,1,9.09-.22c-1.36,1.36-2.73,3-4.09,4.54h0c-5,.46-8.64,1.82-11.82,4.32-.46.23-1.37,1.14-1.14,2a2.3,2.3,0,0,0,.91,1.14c.91.22,1.59-.46,2-.69a19.73,19.73,0,0,1,6.6-3.18,32.36,32.36,0,0,0-3.64,6.82,30.65,30.65,0,0,0-4.32,3.18,2.41,2.41,0,0,0-.91,2.28,1.52,1.52,0,0,0,1.14.91,1.68,1.68,0,0,0,1.82-.91h0a56.49,56.49,0,0,0-3,16.59c-.45.69-1.14,2-1.59,2.73q-2.39,4.44-3.41,12.28c-.23,2.27-.23,5.45-.23,8.41a70.2,70.2,0,0,0,1.14,8.18c-1.14-.68-3-7.5-3.18-8.18h0a8.13,8.13,0,0,0-2.5-.45,10.53,10.53,0,0,0-2.73.22c-.68.46-.91.91-.68,2,0,0,4.31,2.73,5.68,6.82-.46-.46-3.18-4.32-7.28-5.91-.22,0-.22,0-.45-.23a15.63,15.63,0,0,0-4.32-.68c-.91,0-1.59.45-1.59.68-.23.23,0,1.14.45,2.05a26.74,26.74,0,0,1,12.73,9.55c-4.54-4.1-11.14-8.64-17.5-8.19-.68,0-1.37.23-1.37.91-.22.46,0,.68,0,1.14,2,6.59,8,11.59,13.42,14.77a41.41,41.41,0,0,0,8.64,3.87c7.73,2.27,16.59,4.32,23.41-.91C86.85,199.42,83.89,180.1,83.66,179a.71.71,0,0,0,.23.46h0c10.23,35,37.74,35,37.74,35,16.6.68,25.46-6.14,25.24-6.37-6.82-8.86,2-22.28,8.64-24.55a23.59,23.59,0,0,0-8.64,15.69,10.77,10.77,0,0,0,2.95,8.18,14.05,14.05,0,0,0,5.91,3.86c6.6,2.73,14.1,1.82,20.69-.22a41.12,41.12,0,0,0,14.1-7.73c2.95-2.5,8.18-7,8.18-11.6,0-3.63-9.09.23-10.46.91a40.12,40.12,0,0,0-4.09,2.5,30.51,30.51,0,0,0-4.32,3.19,28.1,28.1,0,0,1,12.51-9.55,2.46,2.46,0,0,0,.45-2.05c-.68-1.36-3.64-.68-4.55-.45-3.63.68-6.82,3.18-9.32,6.36,1.37-4.09,5.69-6.82,5.69-6.82.91-.68-.46-2-1.14-2a7.39,7.39,0,0,0-3.18,0c-.46,0-3.41.45-3.64,1.13,0,.23-.23.46-.23.68a2.34,2.34,0,0,1-.45,1.14c-1.14,3.18-2.28,5.46-3.19,6.37a59.91,59.91,0,0,0,2.51-9.78v-.68a45.72,45.72,0,0,0-2-22.28c3,4.09,6.37,12.73,3.64,23.19.22,0,.45-.23.91-.23a11.19,11.19,0,0,1,4.77-.91c1.36,0,3.18.46,3.64,2,0,.22.23.45.23.68,0-.46,4.77-.91,5-.91,2,.23,3.86,1.36,3.41,3.87,0-.46,2.73,0,2.95,0,2.28.45,3.19,2.5,2.73,4.77-.68,4.09-3.41,7.5-6.14,10.23,3,.91,7.28-.91,10-2.05.45-.22,6.82-3.18,6.82-3.18-3.41-1.14-1.59-7.73,4.09-8.87-.23,0-5-5.68,8.41-10.45,4.32-1.59,8.64-3,12-6.14,3.18-3,4.09-7.5.91-10.91,1.59,1.59,3,3.41,3,5.91,0,4.77-4.77,8.18-8.18,10-3.64,1.82-8,3-11.37,5.23-1.36.91-5,2.73-2.95,5.68,0,0,5.23-2.27,10.23,0,0,0-13.87,0-15.23,6.6-.69,3.18,4.77.22,5.45-.23,8.41-3.18,11.14-1.37,11.14-1.37a42.78,42.78,0,0,0-8.86,2.05c-2.28.91-8.64,3.18-9.1,6.59-.45,4.32,9.78,3.41,11.6,3.41a39.52,39.52,0,0,0,23.41-10c8.64-8.18,13-23.42,7.05-34.78a33.45,33.45,0,0,0-7.27-9.33c-9.33-8.41-21.6-11.82-33.2-12.73h-1.82s3.41,4.55,3.41,8.42a41,41,0,0,0-2.27-4.55c-7.5-13-21.14-20.46-34.78-19.1-1.14.23-1.59.23-2.73.46,10.23,8.41,11.59,18.87,11.59,20a1.73,1.73,0,0,0-.45-.91c-.23-.22-.23-.68-.46-.91a12.81,12.81,0,0,0-.91-1.82c-.68-1.13-1.36-2.5-2-3.63a65.38,65.38,0,0,0-4.55-6.37,39.91,39.91,0,0,0-5.23-5.45,56.17,56.17,0,0,0-5.91-4.55,60.5,60.5,0,0,0-6.59-3.64,39.49,39.49,0,0,0-7.28-2.73,3.09,3.09,0,0,0-1.13-.22A7.83,7.83,0,0,1,147.55,117.8ZM145.73,126a25.64,25.64,0,0,1,7.28-3.87h.22a.87.87,0,0,0,.69-.22,18.44,18.44,0,0,1,11.59.22,1.55,1.55,0,0,1,1.14.69c0,.68-.69.45-1.14.22-.23-.22-4.55-1.59-10-.22a.87.87,0,0,0-.69.22.83.83,0,0,0-.68.23,19,19,0,0,0-7.73,4.32c-.22.23-.68.68-.91.46a1.22,1.22,0,0,1-.45-.91A1.41,1.41,0,0,1,145.73,126Zm9.32,2.5h-.68a20.07,20.07,0,0,0-1.14-3.18A21,21,0,0,1,155.05,128.49Zm-13.64-17.73a2.76,2.76,0,0,1,2.73,2.73,2.22,2.22,0,0,1-.91,2,2.76,2.76,0,0,1-2,.68,2.62,2.62,0,0,1-2.72-2.72h0A3,3,0,0,1,141.41,110.76Zm1.37,25.46a.91.91,0,1,1,.9-.91C143.91,136,143.46,136.22,142.78,136.22Zm1.13,6.14a.91.91,0,1,1-.91-.91A1,1,0,0,1,143.91,142.36Zm-5.68-13.42a.91.91,0,0,1,0,1.82.91.91,0,0,1,0-1.82Zm-3,7.51a.91.91,0,1,1,0,1.82.91.91,0,1,1,0-1.82Zm-13.41-16.83c.23-.22.68-.22,1.36,0a.71.71,0,0,1,.46.23c.23,0,.23,0,.23.23h0a4.06,4.06,0,0,1,1.59,3,4.11,4.11,0,0,1,1.82-3h0a.22.22,0,0,0,.22-.23.71.71,0,0,1,.46-.23c.45-.22.91,0,1.36,0,.46.46.23,1.14-.45,1.59a2.44,2.44,0,0,1-2,.46c-1.14,1.14-1.36,13-1.36,13s0-11.6-1.37-13a2.42,2.42,0,0,1-2-.46A1.11,1.11,0,0,1,121.86,119.62Zm-5.46,16.83a.91.91,0,0,1,0,1.82.91.91,0,1,1,0-1.82Zm-3-7.51a.91.91,0,0,1,0,1.82.91.91,0,0,1,0-1.82Zm-3.64-18.18a2.76,2.76,0,0,1,2.73,2.73v.45a2.92,2.92,0,0,1-2.73,2.5,3.35,3.35,0,0,1-1.59-.45,2.83,2.83,0,0,1-1.14-2.28A2.58,2.58,0,0,1,109.81,110.76Zm-.91,25.46a.91.91,0,1,1,.91-.91C110,136,109.58,136.22,108.9,136.22Zm1.14,6.14a.91.91,0,0,1-1.82,0,.91.91,0,0,1,1.82,0ZM87.53,123c-.23,0-1.14.46-1.14-.22,0-.23.91-.46,1.14-.69a20.24,20.24,0,0,1,11.59-.22h0a23.07,23.07,0,0,1,8,4.09c.23.23.68.45.68.91a.91.91,0,0,1-.45.91c-.46.23-.68-.23-.91-.46A18.73,18.73,0,0,0,98,123h0C92.3,121.44,87.76,122.81,87.53,123Zm10.91,2.28a21.54,21.54,0,0,0-1.13,3.18h-.69C97.31,127.35,97.76,126.44,98.44,125.31ZM82.76,134.4c-.23.23-.91.68-1.14,0,0-.23.45-.91.68-.91a20.25,20.25,0,0,1,9.55-4.09h5.23a19.18,19.18,0,0,1,4.77.91c.46.23.91.23,1.14.45a.69.69,0,0,1,0,.91c-.23.23-.68,0-1.14,0a14.37,14.37,0,0,0-5-1.13H92.3a3,3,0,0,0-1.36.22A19.05,19.05,0,0,0,82.76,134.4Zm13.86,1.82H95a17.2,17.2,0,0,1,.68-4.55h1.14A28.74,28.74,0,0,0,96.62,136.22ZM92.76,139A20.46,20.46,0,0,0,85,142.36h0a16.32,16.32,0,0,0-1.59,1.36c-.23.23-.91.91-1.14.23a3.13,3.13,0,0,1,.68-1.14,23.77,23.77,0,0,1,2.73-2.27,20.78,20.78,0,0,1,7.5-3c.69,0,1.37-.22,1.82-.22h1.82a31.16,31.16,0,0,1,5.46.45c.45,0,.91,0,1.13.46a.69.69,0,0,1,0,.91,1,1,0,0,1-1.13,0,21.82,21.82,0,0,0-5.23-.69H95.26A8.07,8.07,0,0,0,92.76,139Zm20.91,43c.23.68,0,1.13-.9,1.13-1.82,0-11.6-14.77-10.24-29.78A15.57,15.57,0,0,0,116,154C114.58,156.45,110,167.14,113.67,181.92Zm25.24,1.13c-.68,0-.91-.45-.91-1.13a42.69,42.69,0,0,0-2.27-28,16.41,16.41,0,0,0,13.41-.68C150.5,168.05,140.73,183.05,138.91,183.05Zm10.23-33.19c-12,6.82-21.6-4.55-22.73-5.46a.73.73,0,0,0-.46-.22c-.23,0-.45,0-.45.22-1.14.91-11.37,11.83-22.74,5.46a17.19,17.19,0,0,1-7.27-10.23h1.82a12.45,12.45,0,0,0,5.68,7.73,13.15,13.15,0,0,0,14.09.45,97,97,0,0,0,8-5.68,1.72,1.72,0,0,1,1.14-.45c.45,0,.68.22,1.14.45,1.81,1.37,6.13,4.55,8,5.68a13.16,13.16,0,0,0,14.1-.45,14.91,14.91,0,0,0,5.68-7.73h1.82A18.4,18.4,0,0,1,149.14,149.86Zm20.23-6.14a12.75,12.75,0,0,0-2.72-2,36.62,36.62,0,0,0-3.19-1.82,29.33,29.33,0,0,0-3.41-1.14,17.24,17.24,0,0,0-3.41-.45h-1.82a15.32,15.32,0,0,0-4.32.68c-.45,0-.9.23-1.13,0a.69.69,0,0,1,0-.91c.23-.23.68-.23,1.13-.46a19.87,19.87,0,0,1,4.32-.45h1.6a16.2,16.2,0,0,1,3,.45,11.37,11.37,0,0,1,3.64,1.14,15.77,15.77,0,0,1,2.73,1.36h0a14.88,14.88,0,0,1,3.86,3,1.92,1.92,0,0,1,.68,1.14C170.28,144.63,169.6,144,169.37,143.72ZM155.05,131.9c.46,0,.68-.23,1.14-.23a15.63,15.63,0,0,1,.68,4.32h-1.59A24.4,24.4,0,0,0,155.05,131.9Zm15,2.5h0a1.73,1.73,0,0,1-.91-.45,22.39,22.39,0,0,0-9.55-3.41h-1.14a11.44,11.44,0,0,0-2.73.22,2.43,2.43,0,0,0-1.13.23,14,14,0,0,0-4.1,1.14,1,1,0,0,1-1.13,0,.69.69,0,0,1,0-.91.9.9,0,0,1,.91-.46s1.59-.45,3.86-.91h.91a12.73,12.73,0,0,1,4.09,0h.23a2.88,2.88,0,0,1,1.37.23,2,2,0,0,1,1.13.23,18.53,18.53,0,0,1,8.19,3.64c.22.22.91.68.91.91S170.28,134.63,170.06,134.4Z"/></svg>