<svg id="Layer_1" data-name="Layer 1" xmlns="http://www.w3.org/2000/svg" viewBox="0 0 310 310"><defs><style>.cls-1{fill:#f2e5d2;stroke:#8b0e3a;stroke-miterlimit:10;stroke-width:5px;}.cls-2{fill:#8b0e3a;fill-rule:evenodd;}</style></defs><circle class="cls-1" cx="155" cy="155" r="150.54"/><path class="cls-2" d="M105.94,89.94c-.17-.89-.41-2.16-.67-3.07l-2.09-1.06c.08.41.17.82.25,1.25a32.31,32.31,0,0,0,.91,3.84l2,1C106.2,91.28,106.07,90.62,105.94,89.94Z"/><path class="cls-2" d="M101.54,87.62c-.17-.86-.4-2.07-.65-3l-2.26-1.13c.13.56.26,1.15.39,1.76a30.34,30.34,0,0,0,.85,3.34l2.1,1.06C101.82,89,101.68,88.33,101.54,87.62Z"/><path class="cls-2" d="M110.34,92c-.15-.82-.36-2-.59-2.85L107.56,88c.09.45.18.9.27,1.38.19,1,.5,2.57.85,3.72l2.1,1.08C110.63,93.49,110.49,92.74,110.34,92Z"/><path class="cls-2" d="M114.83,94.27c-.15-.84-.36-2-.59-2.9L112,90.27c.08.38.15.78.23,1.19a39.21,39.21,0,0,0,.89,4l2.14,1.12C115.12,95.82,115,95.05,114.83,94.27Z"/><path class="cls-2" d="M97.14,85.89a13.72,13.72,0,0,0-1.06-3.62c-.77-.39-1.5-.74-2.15-1.06.09.43.18.88.27,1.34A37,37,0,0,0,95,86.18l2.44,1.24C97.37,86.92,97.25,86.41,97.14,85.89Z"/><path class="cls-2" d="M121.29,95.71a27.67,27.67,0,0,0,1.13,4.52c.87.47,1.72,1,2.54,1.49-.2-.89-.37-1.84-.55-2.82a34.67,34.67,0,0,0-.84-3.86c-.89-.38-1.77-.74-2.62-1.07C121.07,94.52,121.18,95.1,121.29,95.71Z"/><path class="cls-2" d="M119.41,96.24c-.18-.9-.42-2.2-.68-3.12l-2.28-.85c.09.47.18,1,.27,1.49.2,1,.51,2.79.88,4,.78.41,1.57.8,2.37,1.2C119.77,98.11,119.58,97.19,119.41,96.24Z"/><path class="cls-2" d="M87.91,81c-.17-.84-.41-2-.67-2.89l-2.12-1c.09.4.18.8.27,1.22a30.75,30.75,0,0,0,.86,3.36l2,1.06Z"/><path class="cls-2" d="M238.37,186.54a65.17,65.17,0,0,0-6-42c-6.07-12.19-17.08-24.94-23.57-30.45S177,97.58,162.47,89.9c-9.25-4.88-17.79-5.21-25.55,3.89-1.25,1.47-3,2.35-4.46,3.53-1,.79-2,1.22-3.15.55s-2.24-1.24-3.44-1.81c.15.72.29,1.5.44,2.33.3,1.7.94,5.23,1.57,5.44l0,.13a14.6,14.6,0,0,1,3.76,5.63c4,1.13,7.11,5.28,11.41,3.57,1.19-.48,1.7,1.81.51,2.28-4.41,1.76-7.4-1.6-11.19-3.14,0,.14.06.27.09.42C134,122.22,153.66,135,160,148.49c2.48,5.3,4.36,10.09,5,16,.48,4.66.52,9.51,2.87,13.61,2.14,3.74,4.46,4.42,7,.58,3.29-5,6.86-9.89,6.4-17.58a1.49,1.49,0,0,1-.09-.39,55.64,55.64,0,0,0-7-23.32c-.71-1.27,1-2.45,1.67-1.2A58.49,58.49,0,0,1,183,160.68a1.3,1.3,0,0,1-.08.55c7.05,4,13.66,7.73,20.16,11.62,10.13,6.06,16.64,20.1,15.89,33.87-.41,7.77-2.89,10.61-9.23,10.46a33.55,33.55,0,0,1-3.84-.57c-1.13-.16-2.33-.43-3,1.09a4.12,4.12,0,0,0,.54,3.87c2.44,4.15,5.54,7.54,9.76,8,2.57.29,3.92,1.54,5.43,3.81,2.65,4,6.21,6.33,10.56,6.14a4.2,4.2,0,0,0,4-2.82c.88-2.43-1.08-2.84-2.12-3.89a14.33,14.33,0,0,1-2.51-16.77A112.53,112.53,0,0,0,238.37,186.54ZM141.8,104.31a1.5,1.5,0,0,1-2.07.14,1.34,1.34,0,0,1-.44-1.34,3.36,3.36,0,0,1,.92-1.76.88.88,0,0,1,1.38,0,1.18,1.18,0,0,1,.22.51A2,2,0,0,1,141.8,104.31Z"/><path class="cls-2" d="M74.38,74.38c-.18-.88-.45-2.16-.72-3-1-.5-1.7-.83-1.86-.88-.86-.28-2,.74-.92,2a16.6,16.6,0,0,0,3.72,2.91C74.53,75.08,74.45,74.73,74.38,74.38Z"/><path class="cls-2" d="M83.51,78.92a26.12,26.12,0,0,0-.76-3l-2.07-1c.1.43.2.85.3,1.3a25,25,0,0,0,.88,3.18c.66.36,1.32.7,2,1C83.73,79.93,83.62,79.43,83.51,78.92Z"/><path class="cls-2" d="M79.11,76.82a17.16,17.16,0,0,0-.91-3.17L76,72.55c.09.4.18.82.27,1.25.17.81.42,2,.7,3l2.45,1.31C79.3,77.65,79.21,77.24,79.11,76.82Z"/><path class="cls-2" d="M89.8,80.45a31.4,31.4,0,0,0,.84,3.49l2.06,1c-.13-.61-.26-1.25-.39-1.89-.16-.86-.4-2.07-.65-3-.36-.16-.65-.29-.82-.35s-.71-.29-1.3-.56C89.63,79.63,89.71,80,89.8,80.45Z"/></svg>