<svg id="Layer_1" data-name="Layer 1" xmlns="http://www.w3.org/2000/svg" viewBox="0 0 310 310"><defs><style>.cls-1{fill:#f2e5d2;stroke:#8b0e3a;stroke-miterlimit:10;stroke-width:5px;}.cls-2{fill:#8b0e3a;}</style></defs><circle class="cls-1" cx="155" cy="155" r="150.54"/><path class="cls-2" d="M256,141.21A59.58,59.58,0,0,1,246,137a22.86,22.86,0,0,0-6.72,10.69,3.7,3.7,0,0,1-1.31,1.89,7.42,7.42,0,0,1-4.37,1.47,6.62,6.62,0,0,1-1.54-.18,7.26,7.26,0,0,1-4.5-3.23,3.68,3.68,0,0,1-.5-2.51,19.6,19.6,0,0,1,5.84-11.06,18.62,18.62,0,0,1,4.67-3.18c-10.33-10-10-21.8-27.32-28a32.22,32.22,0,0,0-6.37-1.63c-2-2.07-6.32-5.82-12.2-6a.62.62,0,0,0-.55,1l.3.48a32,32,0,0,1,4.06,9.8l.4,1.88a1.61,1.61,0,0,1-1.23,1.92l-.34,0a1.6,1.6,0,0,1-1.58-1.27l-.41-1.87a26.3,26.3,0,0,0-2-5.73,82.54,82.54,0,0,0-11.3,2.34c-44.3,12.23-38.4,16.07-78.53,17.18,0,0-23,.73-27,24.54-5.14,16-11.83,25.88-18.39,27.09a2.18,2.18,0,0,0,.39,4.32l.4,0c7.71-1.43,13.54-10.21,17.53-19,1.27,5.85,4.72,10.47,9.83,14,0,.08-.09.22-.09.22-8.36,18.52-4.59,18.34,7.47,32.49a2.65,2.65,0,0,1,.64,1.72v7.27a1,1,0,0,0,1,1h14.47a1,1,0,0,0,1-1.25c-2-8.34-6.76-12.26-11.4-24.2a2.62,2.62,0,0,1,.79-3,41.45,41.45,0,0,0,6.37-6.44c18.32,3.76,41.81,2.77,61.92-.34l.61,5.66a14.38,14.38,0,0,0,1.26,4.5l5.79,12.28a13.8,13.8,0,0,1,1.15,3.66l1.39,8.26a1,1,0,0,0,1,.85h13.55a1,1,0,0,0,1-1.23c-2.94-13.71-7.76-14.69-9.48-26a14,14,0,0,1,.32-5.69l1.56-5.92a102.1,102.1,0,0,0,17.08-5.55c12-5.46,22.77-11,33.4-12.6a132.37,132.37,0,0,0,17.85-3.88,1.06,1.06,0,0,0,.71-.66l4.08-10.56A1.1,1.1,0,0,0,256,141.21ZM217.79,130.5a4.13,4.13,0,1,1,4.13-4.13A4.12,4.12,0,0,1,217.79,130.5Zm12.42,15.18a.38.38,0,0,0,.06.29,4,4,0,0,0,2.46,1.79A3.95,3.95,0,0,0,236,147a.4.4,0,0,0,.16-.22,27.14,27.14,0,0,1,9.62-13.9.43.43,0,0,0-.26-.78h0a16,16,0,0,0-15.27,13.56Z"/></svg>