<svg id="Layer_1" data-name="Layer 1" xmlns="http://www.w3.org/2000/svg" viewBox="0 0 310 310"><defs><style>.cls-1{fill:#f2e5d2;stroke:#8b0e3a;stroke-miterlimit:10;stroke-width:5px;}.cls-2{fill:#8b0e3a;}</style></defs><circle class="cls-1" cx="155" cy="155" r="150.54"/><path class="cls-2" d="M262.69,152.67a41.61,41.61,0,0,0-.24-4.48A37.17,37.17,0,0,0,254,128.41a51.71,51.71,0,0,0-8.84-8.52q-17.62-13.58-42.49-13.58-18.66,0-33.2,7.63a59.24,59.24,0,0,0-9.29,6c-1,.78-2,1.59-2.94,2.4H121.65a8.68,8.68,0,0,0-1-1.3,6.37,6.37,0,0,0-3-1.71,6.24,6.24,0,0,0-1.51-.17,5.7,5.7,0,0,0-1.47.17,5.82,5.82,0,0,0-2.81,1.51v8.56a6.74,6.74,0,0,0-.82-.78c-.28-.24-.57-.48-.85-.69a12,12,0,0,0-7.42-2.36,12.33,12.33,0,0,0-8.36,3,10.58,10.58,0,0,0-2.61,3.51H85.31a18.08,18.08,0,0,0-3.58-4.16,21.29,21.29,0,0,0-14.27-5.18,21.2,21.2,0,0,0-14.24,5.1,16,16,0,0,0-5.91,12.48,15.86,15.86,0,0,0,1.18,6.07H57v5.3h6.52v-5.3H77.4c.45,0,.86,0,1.31,0s.9,0,1.34,0a17.1,17.1,0,0,1,5.51,1.27l.32.12a18,18,0,0,1,2.94,1.8c2.81,2.15,4.24,4.77,4.24,7.82a9.32,9.32,0,0,1-.57,3.19,10.48,10.48,0,0,1-3.67,4.61,15.19,15.19,0,0,1-8.77,3.22c-.44,0-.89,0-1.34,0-.61,0-1.22,0-1.84-.08H63.54v-5.19H57v5.19H53.1a13.32,13.32,0,0,0,5.51,6.72,24.29,24.29,0,0,0,12.88,4.08h42.29v4q18.28.48,28.74,12v8.48h11.71v-8.48h4v8.48h11.71v-8.48h8.23a75.21,75.21,0,0,0,24.51,3.87A71.76,71.76,0,0,0,233,192.84v10.85h11.71v-17.9c1.55-1.22,2.85-2.33,3.95-3.27v21.17h11.7l.29-34.91A19.47,19.47,0,0,1,258,171h0a28.76,28.76,0,0,1-17.25,5.14,29.64,29.64,0,0,1-14.72-3.55v-3.83a26,26,0,0,0,14.72,4.12,25.77,25.77,0,0,0,15.33-4.52,18,18,0,0,0,3.92-3.72v0a13.49,13.49,0,0,0,1.3-2.25,36,36,0,0,0,1.31-9.67ZM103.34,134.28a3.25,3.25,0,0,1,0,5.14,4.42,4.42,0,0,1-3,1.06,4.6,4.6,0,0,1-3-1.06,3.32,3.32,0,0,1,0-5.14,4.65,4.65,0,0,1,3-1.06,4.47,4.47,0,0,1,3,1.06Z"/></svg>