<svg id="Layer_1" data-name="Layer 1" xmlns="http://www.w3.org/2000/svg" viewBox="0 0 310 310"><defs><style>.cls-1{fill:#f2e5d2;stroke:#8b0e3a;stroke-miterlimit:10;stroke-width:5px;}.cls-2{fill:#8b0e3a;}</style></defs><circle class="cls-1" cx="155" cy="155" r="150.54"/><path class="cls-2" d="M184.22,196.65a32.48,32.48,0,0,0-3.7,7.82,26.41,26.41,0,0,0-.87,3.91,12.21,12.21,0,0,1-.43,3.92c-.44.87-1.74,1.52-2.61,2.39A43.81,43.81,0,0,0,169,225.77c-.65-.43-3.69-1.74-3.91-2.61s.65-3.69.87-4.56a37.28,37.28,0,0,1,3.69-8.48A43.2,43.2,0,0,1,184.22,196.65Zm75-92.17a104.11,104.11,0,0,1-63,40c-4.56.87-9.34,1.74-13.91,2.61-.22,0-1.08,0-1.3.21a12.33,12.33,0,0,0-.22,3,44.22,44.22,0,0,1-1.52,9.34,63.27,63.27,0,0,1-18.69,31.74c-.87.87-4.13,4.56-5.44,4.13a13,13,0,0,1-2.61-2.17,20.77,20.77,0,0,1-3.48-3.92,27.86,27.86,0,0,1-5-20.21,52.4,52.4,0,0,0-6.09,9.34c-.87,1.74-1.74,3.7-2.61,5.44a9.28,9.28,0,0,0-1.3,4.78,31.07,31.07,0,0,0,3.69,9.35,77.64,77.64,0,0,0,5.44,9.13,85.5,85.5,0,0,0,28.25,24.56,40,40,0,0,1,14.13-19.13c8-5.43,18.26-5.65,26.3-11.3a61.43,61.43,0,0,1-58.25,37.38c-35.65-1.52-63.91-31.73-62.6-67.6a63.22,63.22,0,0,1-12.83,2.61c10-19.56,24.57-40.65,46.3-48a32.3,32.3,0,0,1,11.09-2c-15.22.22-30.43,8-40.87,18.69a92.93,92.93,0,0,1,9.78-21.08A61.48,61.48,0,0,0,73.58,113a115.65,115.65,0,0,0-19.35,2.39A171.27,171.27,0,0,1,74.45,99.92a102.24,102.24,0,0,1,46.08-13.7,113.41,113.41,0,0,1,11.95,0,27.45,27.45,0,0,0,6.09.44,41.39,41.39,0,0,0,4.57-1.74,165,165,0,0,1,22.6-8.26A102.91,102.91,0,0,1,241,86.22,98,98,0,0,1,252,93.4c2.39,1.74,8.91,5.43,5.43,8.91C259.43,102.31,260.08,103.18,259.21,104.48Zm-89.56-7.61a37.9,37.9,0,0,0,38.91-1.52c1.74-1.08,6.31-3.91,3.05-6.08a25.3,25.3,0,0,0-7-1.74,49.34,49.34,0,0,0-17-.65,46.31,46.31,0,0,0-11.09,3,44.32,44.32,0,0,0-6.52,3C168.79,93.83,167.92,96,169.65,96.87Zm84.34,7.4a97,97,0,0,0-31.73-2,98.4,98.4,0,0,0-15.65,2.82c-2.39.66-5,1.53-7.39,2.18-1.53.43-5,1.08-5.87,2.39a23.31,23.31,0,0,1,3.91.22h3.91a76.68,76.68,0,0,1-10,3,27.62,27.62,0,0,1-7.39.87,8.85,8.85,0,0,1-3.26-.65c-1.3-.87-.21-2.61.44-3.48a141.73,141.73,0,0,0-21.52,5.65,90.61,90.61,0,0,0-10.65,4.13,32.3,32.3,0,0,0-4.78,2.39,20.27,20.27,0,0,0-4.79,2.61c-.87.87-.87,2.17-1.3,3.48-.65,2-1.31,4.13-2,6.08a55.22,55.22,0,0,1-5.21,10.87,64.61,64.61,0,0,1-15.87,17.61c-1.74,1.3-3.48,2.61-5.44,3.91a8.34,8.34,0,0,0-2.82,5.44,33.56,33.56,0,0,0-1.09,13.91c5-8.05,12.39-12.39,20.43-16.74h0a52.3,52.3,0,0,0-5.43,16.09,35.89,35.89,0,0,0,5.87,24.34,66,66,0,0,1,33-58.91,11.58,11.58,0,0,1-2.18,2.4,33.06,33.06,0,0,0-3.69,4.13,30.88,30.88,0,0,0-5.87,17.38,22.21,22.21,0,0,0,2.83,9.79,28.62,28.62,0,0,0,2.82,4.13c.44.43,1.09,1.52,1.52,1.73s1.74-1.08,2.39-1.73a72.48,72.48,0,0,0,13.48-18,93.65,93.65,0,0,0,8.7-22.82l-2.83.65c.22-.87,2.39-1.52,3-1.74,2.18-.87,4.13-1.73,6.31-2.6,4.13-1.74,8.26-3.05,12.39-4.35a98.79,98.79,0,0,0,37.82-18.26A88.61,88.61,0,0,0,254,104.27Z"/></svg>