<svg xmlns="http://www.w3.org/2000/svg" viewBox="0 0 357.45 567.28"><defs><style>.cls-1{fill:#fff;}</style></defs><g id="Layer_2" data-name="Layer 2"><g id="Layer_1-2" data-name="Layer 1"><path d="M77.93,176.32c-3.17,2.57-5.76,4.83-8.52,6.86-6.07,4.47-9.86,4.23-15.6-.73-14.87-12.86-20-28.9-16-48.09,1.24-6,2-12.13,2.69-18.23,1.7-15.15,9.84-25,24.09-30.13,26.28-9.48,39.25-30.49,47.63-55.4a9.89,9.89,0,0,0,.13-2.24c-5.77,6.55-11.14,12.87-16.76,19C87.7,55.91,78,62.06,67.38,66.69c-4.46,1.94-6.06,1.15-6.38-3.39-1.92-27.12,5.71-40,26.66-50.13A141.79,141.79,0,0,1,107.6,5.28c21.72-6.72,43.56-6.77,65.54-.77a24.79,24.79,0,0,0,12.57-.09C216-4,244.84-.1,272.41,14.18c11.68,6.05,21.76,14.26,23.8,28.35,1.06,7.35.58,14.94.58,22.42,0,4-2.53,2.91-4.83,2a85.41,85.41,0,0,1-34.37-25c-3.7-4.39-7.35-8.81-11.41-12.89,8.43,24.81,20.46,46.63,46.65,56.85,2.17.84,4.27,1.87,6.43,2.74,10.95,4.4,16.11,12.61,16.83,24.28.29,4.74,1.84,9.43,3.06,14.07,2.83,10.66,3.44,21.33.8,32.12s-8.95,18.79-17.72,25.18c-3.32,2.42-6.82,2.72-10.25.49-3.87-2.5-7.56-5.28-11.75-8.25-2.83,10.65-4.58,21.93-.4,32.65a116.8,116.8,0,0,0,13.83,24.62c7.76,10.92,15.62,21.51,18.41,35,2.63,12.72,1.19,25.17-1.61,37.57-.24,1.09-2.88,2.75-3.78,2.42-13.84-5.05-26.16-1.94-37.55,6.9-2.59-6-4.57-11.87-7.5-17.2C251,279.19,234.43,267,213.36,261.79c-30.35-7.51-60.21-6.05-88.33,9.11-17.23,9.29-29.49,23-35.74,41.86-2.29,6.89-3.83,7.36-10.05,3.49-8.21-5.11-16.82-8.83-26.79-8-3.24.27-4.38-1.72-5-4.39-5.39-23.78-1.63-45.62,13.61-65.09,3.8-4.84,7.76-9.6,11.16-14.73C80.78,211.18,83,197,79.76,182,79.39,180.27,78.68,178.62,77.93,176.32ZM76,298.26l1.53.61c1.34-2.62,2.69-5.24,4-7.87,11.68-23.38,29.86-39.28,54.76-47.28,23.25-7.47,47-8.92,71.07-5.13,28.32,4.46,50.32,18.24,65,43.2,1.37,2.34,2.84,4.64,4.27,6.95l1.3-.48c-.47-2.65-.54-5.44-1.45-7.93-8.27-22.6-23.38-38.84-45.61-48.27-31-13.13-62.43-11.44-93.93-2.36-26.71,7.7-45,25-55.68,50.5C78.86,286,77.74,292.23,76,298.26ZM92.74,88.94C152,51.5,211.07,45.17,270.53,89.62c-21.52-22.68-47.16-37-78.28-38.28C154,49.81,119.89,61,92.74,88.94Zm215,48.83a49.67,49.67,0,0,0-1.12-7.36c-1.71-5.64-7.71-7.91-12.88-5.1-12.13,6.6-20.1,29.18-14.8,41.91,2,4.85,6.66,6.75,11.49,4.18a25.7,25.7,0,0,0,6.91-5.61C304.4,157.85,307.62,148.42,307.74,137.77ZM52.25,140c.35,11.69,5.57,20.86,13.69,28.67,3.08,3,6.6,4.64,10.88,3,4.09-1.6,5.54-5.14,5.86-9.15.68-8.67-.68-17.17-5-24.61a43,43,0,0,0-10.86-12c-5.11-3.91-10.56-1.71-12.62,4.44C53.13,133.41,52.86,136.78,52.25,140Z"/><path d="M310.46,566.11c.44-2.19.44-4.59,1.38-6.54,20.7-42.87,19.08-86.65,5.46-130.92-8.9-28.94-21.52-56.25-36.75-82.35-3.57-6.13-3.07-11.1,1.11-16.45,4.74-6.08,10.35-10.77,17.83-13,7.78-2.34,13.08-.74,16.68,6.72,7.67,15.87,15.2,31.85,21.86,48.16,12.18,29.83,19.93,60.74,19.4,93.25-.64,38.62-14.87,71.59-41.75,99.19A31.53,31.53,0,0,1,312,567Z"/><path d="M45.28,567.28A148.29,148.29,0,0,1,21,537.81C4.6,511.66-1.32,482.86.24,452.36,2.12,415.82,14,382,29,349.07c4-8.79,8.26-17.45,12.19-26.27,1.91-4.29,4.56-5.53,9.11-4.07,10.56,3.41,19.33,9.51,27.31,17,3,2.8,2.14,5.42.4,8.45-13.61,23.73-25.69,48.16-34.47,74.13-7.72,22.82-13.19,46.07-13.62,70.3-.41,23.73,4.83,46.22,14.55,67.79,1.41,3.14,1.9,6.7,2.82,10.06Z"/><path class="cls-1" d="M76,298.26c1.71-6,2.83-12.31,5.23-18.06,10.63-25.46,29-42.8,55.68-50.5,31.5-9.08,62.95-10.77,93.93,2.36,22.23,9.43,37.34,25.67,45.61,48.27.91,2.49,1,5.28,1.45,7.93l-1.3.48c-1.43-2.31-2.9-4.61-4.27-6.95-14.64-25-36.64-38.74-65-43.2-24.11-3.79-47.82-2.34-71.07,5.13-24.9,8-43.08,23.9-54.76,47.28-1.32,2.63-2.67,5.25-4,7.87Z"/><path class="cls-1" d="M92.74,88.94c27.15-28,61.26-39.13,99.51-37.6,31.12,1.24,56.76,15.6,78.28,38.28C211.07,45.17,152,51.5,92.74,88.94Z"/><path class="cls-1" d="M307.74,137.77c-.12,10.65-3.34,20.08-10.4,28a25.7,25.7,0,0,1-6.91,5.61c-4.83,2.57-9.47.67-11.49-4.18-5.3-12.73,2.67-35.31,14.8-41.91,5.17-2.81,11.17-.54,12.88,5.1A49.67,49.67,0,0,1,307.74,137.77Z"/><path class="cls-1" d="M52.25,140c.61-3.25.88-6.62,1.92-9.73,2.06-6.15,7.51-8.35,12.62-4.44a43,43,0,0,1,10.86,12c4.35,7.44,5.71,15.94,5,24.61-.32,4-1.77,7.55-5.86,9.15-4.28,1.68-7.8,0-10.88-3C57.82,160.89,52.6,151.72,52.25,140Z"/></g></g></svg>