<svg id="a7ce09a1-8c6c-4750-bc53-34f6da598377" data-name="Layer 1" xmlns="http://www.w3.org/2000/svg" viewBox="0 0 2122 1503"><defs><style>.bd948493-b091-495b-af23-78c42e570435{fill:#f6f8fa;}.ba611543-d57f-42b2-a331-d3d43a3fca99,.ed1f28c8-302d-4fd8-8050-e524f00845a2{fill:#e2ba50;}.ba9ebdca-dad4-4672-b15b-3e15ee29e8ce,.e56b6842-7b82-4637-9e8f-6a8f40e18a03{fill:none;}.e56b6842-7b82-4637-9e8f-6a8f40e18a03{stroke:#00555b;}.ae1f4876-f5f4-44e7-a7cf-ff85f1611d81,.e56b6842-7b82-4637-9e8f-6a8f40e18a03{stroke-miterlimit:10;stroke-width:3px;}.ae1f4876-f5f4-44e7-a7cf-ff85f1611d81,.f76623e9-1f98-44ba-b771-2838e9bebd20{fill:#00555b;}.ae1f4876-f5f4-44e7-a7cf-ff85f1611d81{stroke:#e2ba50;}.ba611543-d57f-42b2-a331-d3d43a3fca99{fill-rule:evenodd;}</style></defs><rect class="bd948493-b091-495b-af23-78c42e570435" y="33" width="1920" height="1080"/><rect class="ed1f28c8-302d-4fd8-8050-e524f00845a2" x="126" y="233" width="1393" height="783.5"/><path d="M153.56,202.7q-1-5.44-7.68-5.44a8.63,8.63,0,0,0-5.09,1.31,3.84,3.84,0,0,0-1.82,3.17,3.68,3.68,0,0,0,1.18,2.91,11.37,11.37,0,0,0,3.68,1.95l9,3.52a18.65,18.65,0,0,1,7.11,4.51,9.74,9.74,0,0,1,2.5,6.82,10.72,10.72,0,0,1-4.23,8.93c-2.81,2.2-6.83,3.29-12,3.29q-6.91,0-11.2-3.39a13.16,13.16,0,0,1-5.06-10.49h7.49q0,5.11,5.31,6.46a16.15,16.15,0,0,0,4.23.45,9.47,9.47,0,0,0,4.86-1.31,4,4,0,0,0,2.24-3.52,4.49,4.49,0,0,0-1.22-3.4,11.62,11.62,0,0,0-4-2.2L140.63,213a21.62,21.62,0,0,1-7.36-4.35,9.19,9.19,0,0,1-2.56-6.91,9.68,9.68,0,0,1,4-8.19q4.09-3.13,11.11-3.14t10.81,3.23a13.06,13.06,0,0,1,4.39,9.06Z"/><path d="M172.31,191.63a4.32,4.32,0,0,1,1.22-3.24,4.78,4.78,0,0,1,3.45-1.18,4.84,4.84,0,0,1,3.43,1.18,4.84,4.84,0,0,1,0,6.47A4.8,4.8,0,0,1,177,196a4.73,4.73,0,0,1-3.45-1.18A4.31,4.31,0,0,1,172.31,191.63Zm.9,10h7.55v31.17h-7.55Z"/><path d="M217.65,210.12a17.18,17.18,0,0,1,.8,4.93,28.82,28.82,0,0,1-.25,4H198.1a10.89,10.89,0,0,0,1.86,6.15,6.08,6.08,0,0,0,5.25,2.36c3.11,0,5-1.36,5.56-4.09h7.62a11.15,11.15,0,0,1-4.29,7.36,14.1,14.1,0,0,1-8.89,2.81,13.49,13.49,0,0,1-10.31-4.48,17,17,0,0,1-4.29-12q0-7.5,4.29-12a13.56,13.56,0,0,1,10.31-4.35,12.07,12.07,0,0,1,10,4.55A14,14,0,0,1,217.65,210.12Zm-12.38-3.26a6.22,6.22,0,0,0-5,2.08,9.31,9.31,0,0,0-2.11,5.34h13.24c0-3.37-1.06-5.63-3.2-6.78A6.2,6.2,0,0,0,205.27,206.86Z"/><path d="M235,207.82q2.82-6.72,8.45-6.72a11,11,0,0,1,2.75.45l-.13,7.55a16.5,16.5,0,0,0-3.52-.39q-7.54,0-7.55,10.44v13.63h-7.55V201.61H235Z"/><path d="M261.65,207.82q2.82-6.72,8.45-6.72a10.93,10.93,0,0,1,2.75.45l-.13,7.55a16.43,16.43,0,0,0-3.52-.39q-7.54,0-7.55,10.44v13.63H254.1V201.61h7.55Z"/><path d="M291,214.6a36,36,0,0,1,8.58,1.22v-3.07a7.48,7.48,0,0,0-1.31-4.84,5.33,5.33,0,0,0-4.29-1.56,7.62,7.62,0,0,0-4.58,1.18,4,4,0,0,0-1.6,3.36h-8.25q0-5.31,3.74-7.68t10.47-2.37q9.6,0,12.41,6.72a14.1,14.1,0,0,1,1,5.44v19.78H300.5l-.58-4.16a10,10,0,0,1-9.21,5q-6,0-9.35-2.94a9.3,9.3,0,0,1-3.07-7.14,7.6,7.6,0,0,1,3.39-6.65C283.94,215.38,287,214.6,291,214.6Zm8.58,6a27.12,27.12,0,0,0-7-1c-4.1,0-6.14,1.37-6.14,4.1a3.86,3.86,0,0,0,1.4,3,6.75,6.75,0,0,0,4.52,1.24,6.84,6.84,0,0,0,5.12-2.08A7.68,7.68,0,0,0,299.54,220.62Z"/><path d="M342.42,191.24l18.3,29.44V191.24h7.55v41.54h-7.68l-18.88-30.47v30.47h-7.55V191.24Z"/><path d="M404.27,210.12a17.18,17.18,0,0,1,.8,4.93,28.82,28.82,0,0,1-.25,4h-20.1a10.89,10.89,0,0,0,1.86,6.15,6.08,6.08,0,0,0,5.25,2.36c3.11,0,5-1.36,5.56-4.09H405a11.15,11.15,0,0,1-4.29,7.36,14.1,14.1,0,0,1-8.89,2.81,13.5,13.5,0,0,1-10.31-4.48,17,17,0,0,1-4.29-12q0-7.5,4.29-12a13.56,13.56,0,0,1,10.31-4.35,12.06,12.06,0,0,1,10,4.55A14,14,0,0,1,404.27,210.12Zm-12.38-3.26a6.22,6.22,0,0,0-5,2.08,9.31,9.31,0,0,0-2.11,5.34H398c0-3.37-1.06-5.63-3.2-6.78A6.2,6.2,0,0,0,391.89,206.86Z"/><path d="M417.62,201.67l7.1,23.62,7.17-23.62h8.7L429,232.78H420.5l-11.59-31.11Z"/><path d="M457.55,214.6a36,36,0,0,1,8.58,1.22v-3.07a7.48,7.48,0,0,0-1.31-4.84,5.33,5.33,0,0,0-4.29-1.56,7.62,7.62,0,0,0-4.58,1.18,4,4,0,0,0-1.6,3.36H446.1q0-5.31,3.74-7.68t10.47-2.37q9.6,0,12.41,6.72a14.1,14.1,0,0,1,1,5.44v19.78h-6.59l-.58-4.16a10,10,0,0,1-9.21,5q-6,0-9.35-2.94a9.3,9.3,0,0,1-3.07-7.14,7.6,7.6,0,0,1,3.39-6.65Q451.68,214.6,457.55,214.6Zm8.58,6a27.12,27.12,0,0,0-7-1c-4.1,0-6.14,1.37-6.14,4.1a3.89,3.89,0,0,0,1.4,3,6.75,6.75,0,0,0,4.52,1.24,6.82,6.82,0,0,0,5.12-2.08A7.68,7.68,0,0,0,466.13,220.62Z"/><path d="M505,228q-2.88,5.7-8.83,5.69a12.82,12.82,0,0,1-10-4.54,17.59,17.59,0,0,1-4.16-12q0-7.31,4-11.84a12.44,12.44,0,0,1,9.73-4.42,9.71,9.71,0,0,1,8.77,4.67V188.88h7.61v43.9h-6.21Zm-7.87-20.35a6.66,6.66,0,0,0-5.35,2.59,10.54,10.54,0,0,0-2.14,6.94,10.72,10.72,0,0,0,2.17,7,6.86,6.86,0,0,0,10.44.48,7.64,7.64,0,0,0,2.24-5.63v-4a7.85,7.85,0,0,0-2.24-5.44A6.92,6.92,0,0,0,497.11,207.63Z"/><path d="M534.23,214.6a36,36,0,0,1,8.57,1.22v-3.07a7.48,7.48,0,0,0-1.31-4.84q-1.31-1.56-4.29-1.56a7.56,7.56,0,0,0-4.57,1.18,3.93,3.93,0,0,0-1.6,3.36h-8.26q0-5.31,3.74-7.68T537,200.84q9.6,0,12.41,6.72a14.1,14.1,0,0,1,1,5.44v19.78h-6.59l-.57-4.16a10,10,0,0,1-9.22,5q-6,0-9.34-2.94a9.27,9.27,0,0,1-3.08-7.14,7.58,7.58,0,0,1,3.4-6.65Q528.34,214.6,534.23,214.6Zm8.57,6a27.12,27.12,0,0,0-7-1q-6.13,0-6.14,4.1a3.87,3.87,0,0,0,1.41,3,6.7,6.7,0,0,0,4.51,1.24,6.82,6.82,0,0,0,5.12-2.08A7.63,7.63,0,0,0,542.8,220.62Z"/><path d="M581.59,191.24l9.15,16.58,9.6-16.58h8.89l-14.78,24.39v17.15H586.9V215.63l-14.27-24.39Z"/><path d="M635.12,210.12a17.53,17.53,0,0,1,.8,4.93,28.82,28.82,0,0,1-.25,4h-20.1a10.74,10.74,0,0,0,1.86,6.15,6.08,6.08,0,0,0,5.24,2.36c3.12,0,5-1.36,5.57-4.09h7.62a11.15,11.15,0,0,1-4.29,7.36,14.11,14.11,0,0,1-8.9,2.81,13.48,13.48,0,0,1-10.3-4.48,17,17,0,0,1-4.29-12q0-7.5,4.29-12a13.54,13.54,0,0,1,10.3-4.35,12.08,12.08,0,0,1,10.05,4.55A14,14,0,0,1,635.12,210.12Zm-12.38-3.26a6.21,6.21,0,0,0-5,2.08,9.38,9.38,0,0,0-2.12,5.34h13.25q0-5.06-3.2-6.78A6.2,6.2,0,0,0,622.74,206.86Z"/><path d="M645,188.88h7.55v43.9H645Z"/><path d="M664.4,188.88H672v43.9H664.4Z"/><path d="M696.08,200.84a17.3,17.3,0,0,1,5.89,1,12.37,12.37,0,0,1,4.73,3q4.42,4.47,4.42,12.41t-4.42,12.29q-4,4.09-10.62,4.09a14.53,14.53,0,0,1-10.75-4.09q-4.43-4.43-4.42-12.29t4.42-12.41Q689.37,200.85,696.08,200.84Zm7.49,16.39c0-3.29-.64-5.75-1.92-7.4a6.4,6.4,0,0,0-5.35-2.46,7.14,7.14,0,0,0-5.6,2.46c-1.45,1.65-2.17,4.11-2.17,7.4s.65,5.75,2,7.39a6.44,6.44,0,0,0,5.34,2.46,7.1,7.1,0,0,0,5.57-2.46C702.84,223,703.57,220.51,703.57,217.23Z"/><path d="M722.83,201.67l6.27,22.21,6-20.48h6.84l6,20.55,6.34-22.28h7.55L751.5,232.78h-7.42l-5.76-18.63-5.63,18.63H725.2l-10.3-31.11Z"/><path d="M792.33,226.19h17.09v6.59H784.78V191.24h7.55Z"/><path d="M840.49,210.12a17.18,17.18,0,0,1,.8,4.93,28.82,28.82,0,0,1-.25,4h-20.1a10.89,10.89,0,0,0,1.86,6.15,6.08,6.08,0,0,0,5.25,2.36c3.11,0,5-1.36,5.56-4.09h7.62a11.15,11.15,0,0,1-4.29,7.36,14.1,14.1,0,0,1-8.89,2.81,13.49,13.49,0,0,1-10.31-4.48,17,17,0,0,1-4.29-12q0-7.5,4.29-12a13.56,13.56,0,0,1,10.31-4.35,12.07,12.07,0,0,1,10,4.55A14,14,0,0,1,840.49,210.12Zm-12.38-3.26a6.22,6.22,0,0,0-5,2.08,9.31,9.31,0,0,0-2.11,5.34h13.24c0-3.37-1.06-5.63-3.2-6.78A6.2,6.2,0,0,0,828.11,206.86Z"/><path d="M853,220a10.05,10.05,0,0,1-3.78-8,9.93,9.93,0,0,1,4-8.19,13.9,13.9,0,0,1,8.8-3,16.83,16.83,0,0,1,8.29,1.86,8.42,8.42,0,0,1,3.13-5.89,9.62,9.62,0,0,1,6.34-2.24l-.39,7.23c-3.67,0-5.56,1.22-5.69,3.65a9.54,9.54,0,0,1,2.37,6,11.12,11.12,0,0,1-1.09,5.15,10.36,10.36,0,0,1-3,3.49,14.52,14.52,0,0,1-9.34,3.07,16.15,16.15,0,0,1-5.7-1,3.07,3.07,0,0,0-2.56,3.07q0,2.88,4.87,2.88h10.43q10.62,0,10.62,7.42a10.51,10.51,0,0,1-1.24,4.9,13.21,13.21,0,0,1-3.62,4.26q-5.25,4.09-13.18,4.09-7.68,0-12.48-3.13-4.48-3-4.48-7.36a6,6,0,0,1,1.76-4.58,8.33,8.33,0,0,1,4.64-2.14q-3.78-2.31-3.78-5.7a5.25,5.25,0,0,1,1.41-3.74A7.77,7.77,0,0,1,853,220Zm5.76,13.44c-4,.17-6,1.69-6,4.55q0,2.17,2.53,3.48a12.74,12.74,0,0,0,6,1.32,20.06,20.06,0,0,0,5.41-.58,11,11,0,0,0,3.3-1.54q2.88-1.92,2.88-4.6a2.46,2.46,0,0,0-.8-1.89,3.37,3.37,0,0,0-2.34-.74ZM868.56,212a6.16,6.16,0,0,0-1.44-4.23,5.54,5.54,0,0,0-4.39-1.63,5.86,5.86,0,0,0-4.48,1.63,5.94,5.94,0,0,0-1.53,4.23,6,6,0,0,0,1.53,4.25,5.81,5.81,0,0,0,4.48,1.67,5.49,5.49,0,0,0,4.39-1.67A6.27,6.27,0,0,0,868.56,212Z"/><path d="M890.25,220a10.41,10.41,0,0,1,.19-16.19,13.92,13.92,0,0,1,8.8-3,16.8,16.8,0,0,1,8.29,1.86,8.43,8.43,0,0,1,3.14-5.89,9.59,9.59,0,0,1,6.33-2.24l-.38,7.23q-5.5,0-5.7,3.65a9.54,9.54,0,0,1,2.37,6,11,11,0,0,1-1.09,5.15,10.22,10.22,0,0,1-2.94,3.49,14.52,14.52,0,0,1-9.34,3.07,16.15,16.15,0,0,1-5.7-1c-1.71.51-2.56,1.53-2.56,3.07q0,2.88,4.86,2.88H907q10.62,0,10.62,7.42a10.53,10.53,0,0,1-1.25,4.9,13.18,13.18,0,0,1-3.61,4.26q-5.25,4.09-13.19,4.09-7.68,0-12.48-3.13c-3-2-4.48-4.46-4.48-7.36a6.08,6.08,0,0,1,1.76-4.58,8.36,8.36,0,0,1,4.64-2.14c-2.52-1.54-3.77-3.44-3.77-5.7a5.29,5.29,0,0,1,1.4-3.74A7.82,7.82,0,0,1,890.25,220ZM896,233.48q-6,.26-6,4.55,0,2.17,2.52,3.48a12.79,12.79,0,0,0,6,1.32,20.16,20.16,0,0,0,5.41-.58,10.79,10.79,0,0,0,3.29-1.54q2.88-1.92,2.88-4.6a2.43,2.43,0,0,0-.8-1.89,3.32,3.32,0,0,0-2.33-.74ZM905.8,212a6.16,6.16,0,0,0-1.44-4.23,5.53,5.53,0,0,0-4.38-1.63,5.85,5.85,0,0,0-4.48,1.63A6,6,0,0,0,894,212a6,6,0,0,0,1.54,4.25,5.79,5.79,0,0,0,4.48,1.67,5.48,5.48,0,0,0,4.38-1.67A6.27,6.27,0,0,0,905.8,212Z"/><path d="M948.91,210.12a17.53,17.53,0,0,1,.8,4.93,28.72,28.72,0,0,1-.26,4H929.36a10.81,10.81,0,0,0,1.85,6.15,6.08,6.08,0,0,0,5.25,2.36q4.66,0,5.57-4.09h7.61a11.18,11.18,0,0,1-4.28,7.36,14.13,14.13,0,0,1-8.9,2.81,13.46,13.46,0,0,1-10.3-4.48,17,17,0,0,1-4.29-12q0-7.5,4.29-12a13.54,13.54,0,0,1,10.3-4.35,12.08,12.08,0,0,1,10,4.55A14.36,14.36,0,0,1,948.91,210.12Zm-12.39-3.26a6.23,6.23,0,0,0-5,2.08,9.38,9.38,0,0,0-2.11,5.34h13.25q0-5.06-3.2-6.78A6.21,6.21,0,0,0,936.52,206.86Z"/><path d="M979,228q-2.88,5.7-8.83,5.69a12.82,12.82,0,0,1-10-4.54,17.59,17.59,0,0,1-4.16-12q0-7.31,4-11.84a12.44,12.44,0,0,1,9.73-4.42,9.71,9.71,0,0,1,8.77,4.67V188.88h7.61v43.9h-6.2Zm-7.87-20.35a6.66,6.66,0,0,0-5.35,2.59,10.54,10.54,0,0,0-2.14,6.94,10.67,10.67,0,0,0,2.18,7,6.85,6.85,0,0,0,10.43.48,7.64,7.64,0,0,0,2.24-5.63v-4a7.81,7.81,0,0,0-2.24-5.44A6.92,6.92,0,0,0,971.15,207.63Z"/><path d="M1014.22,191.24h26.17v6.53h-18.62v10.94h17v6.47h-17v17.6h-7.55Z"/><path d="M1056.78,207.82q2.82-6.72,8.45-6.72a11,11,0,0,1,2.75.45l-.13,7.55a16.5,16.5,0,0,0-3.52-.39q-7.55,0-7.55,10.44v13.63h-7.55V201.61h7.55Z"/><path d="M1088.07,200.84a17.26,17.26,0,0,1,5.89,1,12.41,12.41,0,0,1,4.74,3q4.41,4.47,4.41,12.41t-4.41,12.29q-4,4.09-10.63,4.09a14.54,14.54,0,0,1-10.75-4.09q-4.41-4.43-4.41-12.29t4.41-12.41Q1081.36,200.85,1088.07,200.84Zm7.49,16.39c0-3.29-.64-5.75-1.92-7.4a6.39,6.39,0,0,0-5.34-2.46,7.12,7.12,0,0,0-5.6,2.46c-1.45,1.65-2.18,4.11-2.18,7.4s.65,5.75,2,7.39a6.46,6.46,0,0,0,5.35,2.46,7.12,7.12,0,0,0,5.57-2.46C1094.84,223,1095.56,220.51,1095.56,217.23Z"/><path d="M1114.76,220a10.41,10.41,0,0,1,.19-16.19,13.92,13.92,0,0,1,8.8-3,16.8,16.8,0,0,1,8.29,1.86,8.43,8.43,0,0,1,3.14-5.89,9.59,9.59,0,0,1,6.33-2.24l-.38,7.23q-5.51,0-5.7,3.65a9.54,9.54,0,0,1,2.37,6,11,11,0,0,1-1.09,5.15,10.22,10.22,0,0,1-2.94,3.49,14.55,14.55,0,0,1-9.35,3.07,16.1,16.1,0,0,1-5.69-1c-1.71.51-2.56,1.53-2.56,3.07q0,2.88,4.86,2.88h10.43q10.63,0,10.63,7.42a10.53,10.53,0,0,1-1.25,4.9,13.09,13.09,0,0,1-3.62,4.26q-5.23,4.09-13.18,4.09-7.68,0-12.48-3.13-4.49-3-4.48-7.36a6.08,6.08,0,0,1,1.76-4.58,8.33,8.33,0,0,1,4.64-2.14c-2.52-1.54-3.77-3.44-3.77-5.7a5.25,5.25,0,0,1,1.4-3.74A7.82,7.82,0,0,1,1114.76,220Zm5.76,13.44q-6,.26-6,4.55c0,1.45.85,2.61,2.53,3.48a12.79,12.79,0,0,0,6,1.32,20,20,0,0,0,5.4-.58,10.74,10.74,0,0,0,3.3-1.54q2.88-1.92,2.88-4.6a2.46,2.46,0,0,0-.8-1.89,3.33,3.33,0,0,0-2.34-.74Zm9.79-21.53a6.16,6.16,0,0,0-1.44-4.23,5.53,5.53,0,0,0-4.38-1.63,5.85,5.85,0,0,0-4.48,1.63,6,6,0,0,0-1.54,4.23,6,6,0,0,0,1.54,4.25,5.79,5.79,0,0,0,4.48,1.67,5.48,5.48,0,0,0,4.38-1.67A6.27,6.27,0,0,0,1130.31,212Z"/><path d="M339.41,850.83a10.85,10.85,0,0,1,4,.73,8.53,8.53,0,0,1,3.16,2.16q2.79,3,2.79,8.57T346.62,871a9.41,9.41,0,0,1-7.24,2.85,9.24,9.24,0,0,1-7.21-2.92q-2.79-3-2.79-8.6t2.79-8.64A9.39,9.39,0,0,1,339.41,850.83Zm5.85,11.51a9.45,9.45,0,0,0-1.58-5.85,5.47,5.47,0,0,0-8.55,0,9.32,9.32,0,0,0-1.6,5.85,9.18,9.18,0,0,0,1.6,5.81,5.53,5.53,0,0,0,8.55,0A9.3,9.3,0,0,0,345.26,862.34Z"/><path d="M352.37,856.81h2.44v-1.94a5,5,0,0,1,1.5-3.91,5.11,5.11,0,0,1,3.54-1.22,18.28,18.28,0,0,1,3.43.41l-.78,3.09a5.12,5.12,0,0,0-1.72-.34,2.15,2.15,0,0,0-1.34.43,1.83,1.83,0,0,0-.58,1.58v1.9h3v2.69h-3v13.83h-4.05V859.5h-2.44Z"/><path d="M364.81,856.81h2.45v-1.94a5,5,0,0,1,1.49-3.91,5.13,5.13,0,0,1,3.54-1.22,18.19,18.19,0,0,1,3.43.41l-.78,3.09a5.08,5.08,0,0,0-1.72-.34,2.17,2.17,0,0,0-1.34.43,1.86,1.86,0,0,0-.58,1.58v1.9h3v2.69h-3v13.83h-4V859.5h-2.45Z"/><path d="M378.92,851.47a2.28,2.28,0,0,1,.64-1.71,3,3,0,0,1,3.66,0,2.56,2.56,0,0,1,0,3.43,3,3,0,0,1-3.66,0A2.29,2.29,0,0,1,378.92,851.47Zm.48,5.31h4v16.55h-4Z"/><path d="M396.5,856.37a7,7,0,0,1,2.8.53,6.49,6.49,0,0,1,2.09,1.37,6.65,6.65,0,0,1,2,4.12l-4,.1a3.63,3.63,0,0,0-1-1.8,2.34,2.34,0,0,0-1.68-.72,4.26,4.26,0,0,0-1.64.29,3.22,3.22,0,0,0-1.19.9,6.13,6.13,0,0,0-1.15,4,5.68,5.68,0,0,0,1.09,3.79,3.33,3.33,0,0,0,2.63,1.27,3,3,0,0,0,2.25-.73,2.77,2.77,0,0,0,.69-2h4a6.12,6.12,0,0,1-1.8,4.52,6.94,6.94,0,0,1-5.14,1.84,7.15,7.15,0,0,1-5.47-2.38,9,9,0,0,1-2.35-6.36,8.8,8.8,0,0,1,2.35-6.42A7.35,7.35,0,0,1,396.5,856.37Z"/><path d="M408.09,851.47a2.28,2.28,0,0,1,.65-1.71,3,3,0,0,1,3.65,0,2.56,2.56,0,0,1,0,3.43,3,3,0,0,1-3.65,0A2.29,2.29,0,0,1,408.09,851.47Zm.48,5.31h4v16.55h-4Z"/><path d="M424.82,863.68a18.61,18.61,0,0,1,4.55.65v-1.64a4,4,0,0,0-.69-2.56,2.82,2.82,0,0,0-2.28-.84,4,4,0,0,0-2.43.63,2.09,2.09,0,0,0-.85,1.79h-4.39a4.48,4.48,0,0,1,2-4.08,10.38,10.38,0,0,1,5.56-1.26q5.1,0,6.6,3.57a7.46,7.46,0,0,1,.51,2.89v10.5h-3.51l-.3-2.2a5.32,5.32,0,0,1-4.9,2.68,7.25,7.25,0,0,1-5-1.56,4.91,4.91,0,0,1-1.63-3.79,4,4,0,0,1,1.8-3.54A8.54,8.54,0,0,1,424.82,863.68Zm4.55,3.2a14,14,0,0,0-3.74-.55c-2.17,0-3.26.73-3.26,2.18a2,2,0,0,0,.75,1.58,3.59,3.59,0,0,0,2.4.66,3.67,3.67,0,0,0,2.72-1.1A4.07,4.07,0,0,0,429.37,866.88Z"/><path d="M439.23,850h4v23.32h-4Z"/><path d="M449.57,850h4v23.32h-4Z"/><path d="M462,856.81l4,11.9,3.47-11.9h4.08l-6.32,19.52a10.11,10.11,0,0,1-2.4,4.25,5.12,5.12,0,0,1-3.59,1.29,9.9,9.9,0,0,1-4.42-1.09v-3.53a6.68,6.68,0,0,0,3.57,1.12,2.41,2.41,0,0,0,2-1,7.63,7.63,0,0,0,1.24-2.49l.51-1.6-6.63-16.52Z"/><path d="M498.44,861.3a9,9,0,0,1,.43,2.62,15.37,15.37,0,0,1-.14,2.14H488.06a5.7,5.7,0,0,0,1,3.26,3.22,3.22,0,0,0,2.79,1.26,2.66,2.66,0,0,0,3-2.18h4a5.92,5.92,0,0,1-2.27,3.91,7.51,7.51,0,0,1-4.73,1.5,7.14,7.14,0,0,1-5.47-2.38,9,9,0,0,1-2.28-6.36,8.93,8.93,0,0,1,2.28-6.39,7.19,7.19,0,0,1,5.47-2.31,6.41,6.41,0,0,1,5.34,2.41A7.67,7.67,0,0,1,498.44,861.3Zm-6.58-1.74a3.31,3.31,0,0,0-2.65,1.11,5,5,0,0,0-1.12,2.84h7c0-1.79-.57-3-1.7-3.61A3.4,3.4,0,0,0,491.86,859.56Z"/><path d="M507.61,859.67a6,6,0,0,1,9.84-1.29,8.43,8.43,0,0,1,1.55,5.3v9.65h-4v-9.65a3.89,3.89,0,0,0-.88-2.77,3.27,3.27,0,0,0-2.48-.94,3.41,3.41,0,0,0-2.74,1.43,7.09,7.09,0,0,0-1.21,4.29v7.64h-4V856.81h3.5Z"/><path d="M535.62,870.79a5,5,0,0,1-4.69,3,6.78,6.78,0,0,1-5.3-2.41,10.42,10.42,0,0,1-.11-12.69,6.64,6.64,0,0,1,5.17-2.34,5.16,5.16,0,0,1,4.66,2.48V850h4v23.32h-3.3ZM531.44,860a3.54,3.54,0,0,0-2.84,1.38,5.61,5.61,0,0,0-1.14,3.69,5.69,5.69,0,0,0,1.16,3.72,3.65,3.65,0,0,0,5.54.26,4.08,4.08,0,0,0,1.19-3v-2.15a4.18,4.18,0,0,0-1.19-2.89A3.68,3.68,0,0,0,531.44,860Z"/><path d="M551.16,863.68a18.75,18.75,0,0,1,4.56.65v-1.64a4,4,0,0,0-.7-2.56,2.82,2.82,0,0,0-2.28-.84,4,4,0,0,0-2.43.63,2.09,2.09,0,0,0-.85,1.79h-4.39a4.48,4.48,0,0,1,2-4.08,10.38,10.38,0,0,1,5.56-1.26q5.1,0,6.6,3.57a7.46,7.46,0,0,1,.51,2.89v10.5h-3.5l-.31-2.2a5.32,5.32,0,0,1-4.9,2.68,7.25,7.25,0,0,1-5-1.56,4.91,4.91,0,0,1-1.63-3.79,4,4,0,0,1,1.8-3.54A8.54,8.54,0,0,1,551.16,863.68Zm4.56,3.2a14.11,14.11,0,0,0-3.74-.55c-2.18,0-3.27.73-3.27,2.18a2,2,0,0,0,.75,1.58,3.59,3.59,0,0,0,2.4.66,3.65,3.65,0,0,0,2.72-1.1A4.12,4.12,0,0,0,555.72,866.88Z"/><path d="M569.52,859.67a6,6,0,0,1,9.84-1.29,8.43,8.43,0,0,1,1.55,5.3v9.65h-4v-9.65a3.89,3.89,0,0,0-.89-2.77,3.26,3.26,0,0,0-2.48-.94,3.42,3.42,0,0,0-2.74,1.43,7.09,7.09,0,0,0-1.2,4.29v7.64h-4V856.81h3.5Z"/><path d="M588.19,866.57a5.34,5.34,0,0,1-2-4.25,5.27,5.27,0,0,1,2.11-4.35,7.35,7.35,0,0,1,4.67-1.6,8.93,8.93,0,0,1,4.41,1,4.45,4.45,0,0,1,1.66-3.13A5.07,5.07,0,0,1,602.4,853l-.21,3.84c-2,0-3,.65-3,1.94a5,5,0,0,1,1.26,3.19,5.94,5.94,0,0,1-.58,2.74,5.5,5.5,0,0,1-1.57,1.85,7.67,7.67,0,0,1-5,1.63,8.6,8.6,0,0,1-3-.51,1.65,1.65,0,0,0-1.36,1.64c0,1,.86,1.53,2.59,1.53h5.54q5.64,0,5.64,3.94a5.61,5.61,0,0,1-.66,2.6,6.83,6.83,0,0,1-1.92,2.26,11,11,0,0,1-7,2.18,11.93,11.93,0,0,1-6.63-1.67,4.63,4.63,0,0,1-2.38-3.91,3.22,3.22,0,0,1,.93-2.43,4.45,4.45,0,0,1,2.47-1.14,3.52,3.52,0,0,1-2-3,2.78,2.78,0,0,1,.75-2A4.18,4.18,0,0,1,588.19,866.57Zm3.06,7.14c-2.14.09-3.2.89-3.2,2.41a2.11,2.11,0,0,0,1.34,1.86,6.9,6.9,0,0,0,3.18.69,10.74,10.74,0,0,0,2.87-.3,6,6,0,0,0,1.76-.82,2.93,2.93,0,0,0,1.53-2.45,1.32,1.32,0,0,0-.43-1,1.77,1.77,0,0,0-1.24-.39Zm5.2-11.44a3.28,3.28,0,0,0-.77-2.25,3,3,0,0,0-2.33-.86,2.89,2.89,0,0,0-3.19,3.11,3.21,3.21,0,0,0,.81,2.26,3.09,3.09,0,0,0,2.38.88,2.9,2.9,0,0,0,2.33-.88A3.33,3.33,0,0,0,596.45,862.27Z"/><path d="M619.35,861.3a9.31,9.31,0,0,1,.42,2.62,15.47,15.47,0,0,1-.13,2.14H609a5.63,5.63,0,0,0,1,3.26,3.21,3.21,0,0,0,2.78,1.26,2.65,2.65,0,0,0,3-2.18h4a5.89,5.89,0,0,1-2.28,3.91,7.49,7.49,0,0,1-4.73,1.5,7.15,7.15,0,0,1-5.47-2.38,9,9,0,0,1-2.28-6.36,8.93,8.93,0,0,1,2.28-6.39,7.19,7.19,0,0,1,5.47-2.31,6.41,6.41,0,0,1,5.34,2.41A7.69,7.69,0,0,1,619.35,861.3Zm-6.58-1.74a3.29,3.29,0,0,0-2.65,1.11,5,5,0,0,0-1.13,2.84h7c0-1.79-.57-3-1.7-3.61A3.39,3.39,0,0,0,612.77,859.56Z"/><path d="M628.58,860.08c1-2.38,2.49-3.58,4.49-3.58a5.84,5.84,0,0,1,1.46.24l-.07,4a9.37,9.37,0,0,0-1.87-.2c-2.68,0-4,1.85-4,5.54v7.24h-4V856.78h4Z"/><path d="M651.51,861.3a9.31,9.31,0,0,1,.42,2.62,15.47,15.47,0,0,1-.13,2.14H641.12a5.78,5.78,0,0,0,1,3.26,3.22,3.22,0,0,0,2.79,1.26,2.64,2.64,0,0,0,3-2.18h4a5.89,5.89,0,0,1-2.28,3.91,7.49,7.49,0,0,1-4.72,1.5,7.17,7.17,0,0,1-5.48-2.38,9,9,0,0,1-2.28-6.36,8.93,8.93,0,0,1,2.28-6.39,7.21,7.21,0,0,1,5.48-2.31,6.39,6.39,0,0,1,5.33,2.41A7.5,7.5,0,0,1,651.51,861.3Zm-6.58-1.74a3.3,3.3,0,0,0-2.65,1.11,4.91,4.91,0,0,0-1.12,2.84h7c0-1.79-.56-3-1.7-3.61A3.39,3.39,0,0,0,644.93,859.56Z"/><path d="M667.51,870.79a5,5,0,0,1-4.7,3,6.81,6.81,0,0,1-5.3-2.41,9.36,9.36,0,0,1-2.21-6.4,9.2,9.2,0,0,1,2.11-6.29,6.61,6.61,0,0,1,5.17-2.34,5.14,5.14,0,0,1,4.65,2.48V850h4v23.32H668ZM663.32,860a3.51,3.51,0,0,0-2.83,1.38,5.61,5.61,0,0,0-1.14,3.69,5.68,5.68,0,0,0,1.15,3.72A3.65,3.65,0,0,0,666,869a4,4,0,0,0,1.19-3v-2.15A4.14,4.14,0,0,0,666,861,3.67,3.67,0,0,0,663.32,860Z"/><path d="M684.4,856.81h2.45v-1.94a5,5,0,0,1,1.5-3.91,5.08,5.08,0,0,1,3.53-1.22,18.28,18.28,0,0,1,3.44.41l-.78,3.09a5.12,5.12,0,0,0-1.72-.34,2.15,2.15,0,0,0-1.34.43,1.83,1.83,0,0,0-.58,1.58v1.9h3v2.69h-3v13.83h-4V859.5H684.4Z"/><path d="M702.66,860.08c1-2.38,2.5-3.58,4.49-3.58a5.77,5.77,0,0,1,1.46.24l-.07,4a9.22,9.22,0,0,0-1.87-.2q-4,0-4,5.54v7.24h-4V856.78h4Z"/><path d="M719.29,856.37a9,9,0,0,1,3.13.53,6.57,6.57,0,0,1,2.51,1.61,9,9,0,0,1,2.35,6.6,8.85,8.85,0,0,1-2.35,6.52,7.44,7.44,0,0,1-5.64,2.18,7.68,7.68,0,0,1-5.71-2.18,8.79,8.79,0,0,1-2.35-6.52,8.9,8.9,0,0,1,2.35-6.6A7.69,7.69,0,0,1,719.29,856.37Zm4,8.7a6.31,6.31,0,0,0-1-3.92,3.38,3.38,0,0,0-2.84-1.31,3.76,3.76,0,0,0-3,1.31,5.77,5.77,0,0,0-1.15,3.92,6.25,6.25,0,0,0,1,3.93,3.44,3.44,0,0,0,2.84,1.31,3.78,3.78,0,0,0,3-1.31A5.78,5.78,0,0,0,723.27,865.07Z"/><path d="M746.73,859.94a5.66,5.66,0,0,1,5.61-3.57,5.58,5.58,0,0,1,4.59,2,8.11,8.11,0,0,1,1.56,5.3v9.65h-4v-9.65a3.89,3.89,0,0,0-.88-2.77,3.27,3.27,0,0,0-2.48-.94,3.12,3.12,0,0,0-2.62,1.4,7.47,7.47,0,0,0-1.09,4.21v7.75h-4v-9.65a3.93,3.93,0,0,0-.88-2.77A3.28,3.28,0,0,0,740,860a3.41,3.41,0,0,0-2.73,1.43,7,7,0,0,0-1.21,4.29v7.64h-4V856.81h3.5l.44,2.86a5.46,5.46,0,0,1,5.24-3.3,6,6,0,0,1,3.45,1A5.8,5.8,0,0,1,746.73,859.94Z"/><path d="M374.07,920.14H385v2.19H371.7v-2.79a5.36,5.36,0,0,1,2.52-4.89,11.62,11.62,0,0,1,1.8-.9l3.72-1.5q2.88-1.12,2.88-3.75a3.05,3.05,0,0,0-1-2.35,3.92,3.92,0,0,0-2.77-.92A5.23,5.23,0,0,0,376,906a3,3,0,0,0-1.31,2.25H372a4.76,4.76,0,0,1,2-3.77,7.85,7.85,0,0,1,4.7-1.33,6.86,6.86,0,0,1,4.66,1.57,4.89,4.89,0,0,1,1.8,3.85A5.36,5.36,0,0,1,384,912.2a8.45,8.45,0,0,1-3.26,2.16l-3.81,1.52a6.17,6.17,0,0,0-2.14,1.37,2.84,2.84,0,0,0-.71,2Z"/><path d="M396.12,903.13a6.5,6.5,0,0,1,5.4,2.52q2,2.52,2,7.25t-2,7.24a7.07,7.07,0,0,1-10.81,0c-1.33-1.65-2-4.08-2-7.27s.67-5.61,2-7.27A6.54,6.54,0,0,1,396.12,903.13ZM401,912.9a10.47,10.47,0,0,0-1.26-5.64,4.41,4.41,0,0,0-7.35,0,13.25,13.25,0,0,0,0,11.28,4.43,4.43,0,0,0,7.35,0A10.47,10.47,0,0,0,401,912.9Z"/><path d="M413.94,903.13a6.5,6.5,0,0,1,5.4,2.52q2,2.52,2,7.25t-2,7.24a7.07,7.07,0,0,1-10.81,0c-1.33-1.65-2-4.08-2-7.27s.67-5.61,2-7.27A6.54,6.54,0,0,1,413.94,903.13Zm4.92,9.77a10.47,10.47,0,0,0-1.26-5.64,4.41,4.41,0,0,0-7.35,0,13.25,13.25,0,0,0,0,11.28,4.43,4.43,0,0,0,7.35,0A10.47,10.47,0,0,0,418.86,912.9Z"/><path d="M428.85,912.79c-2.5-1.14-3.75-2.68-3.75-4.65a4.29,4.29,0,0,1,1.86-3.62,8.11,8.11,0,0,1,4.94-1.39,8.24,8.24,0,0,1,5.05,1.48,4.5,4.5,0,0,1,2,3.77,4.17,4.17,0,0,1-1,2.79,4.69,4.69,0,0,1-3,1.54l.51.17a9.46,9.46,0,0,1,3.18,1.85,3.83,3.83,0,0,1,1.11,2.9,4.24,4.24,0,0,1-2,3.66,9.56,9.56,0,0,1-5.46,1.38,9.34,9.34,0,0,1-5.57-1.54,4.55,4.55,0,0,1-2.13-3.84,4,4,0,0,1,1.22-3A5.66,5.66,0,0,1,428.85,912.79Zm2.25.88a5.4,5.4,0,0,0-3,1.18,3,3,0,0,0-1.14,2.42,2.71,2.71,0,0,0,1.44,2.34,7,7,0,0,0,3.77.89,7.33,7.33,0,0,0,3.69-.78,2.2,2.2,0,0,0,1.36-1.89,2.34,2.34,0,0,0-.72-1.78,5.64,5.64,0,0,0-2-1.13Zm-3.51-5.22a1.81,1.81,0,0,0,.66,1.39,6.11,6.11,0,0,0,1.89,1.06l2.19.85a5.08,5.08,0,0,0,3-1,2.76,2.76,0,0,0,1.17-2.31,2.72,2.72,0,0,0-1.23-2.31,5.32,5.32,0,0,0-3.18-.89,5.6,5.6,0,0,0-3.21.86A2.64,2.64,0,0,0,427.59,908.45Z"/><path d="M372.84,507l4.59,15.69L382.08,509h1.59l4.62,13.74L393.57,507h2.61l-6.66,18.87H387l-4.11-12.09-4.26,12.09h-2.49l-6-18.87Z"/><path d="M403.62,524.32q3,0,3.39-2.61h2.43a4.91,4.91,0,0,1-1.9,3.34,6.34,6.34,0,0,1-3.92,1.19,5.93,5.93,0,0,1-4.68-2.06,8,8,0,0,1-1.8-5.47,7.91,7.91,0,0,1,1.82-5.46,6.15,6.15,0,0,1,4.83-2,5,5,0,0,1,4.5,2.34,8.28,8.28,0,0,1,1,5.7h-9.81a5.85,5.85,0,0,0,1.08,3.64A3.59,3.59,0,0,0,403.62,524.32Zm1.74-10.86a4,4,0,0,0-4.57.88,5.47,5.47,0,0,0-1.25,3.11h7.65Q407.19,514.45,405.36,513.46Z"/><path d="M421.62,525.49a6.33,6.33,0,0,1-4.71.51,3.32,3.32,0,0,1-2.16-2,4.45,4.45,0,0,1-.33-1.8v-8.82h-2.31v-1.8h2.31v-4h2.34v4h4.5v1.8h-4.5v8.79q0,2.19,2,2.19a6.92,6.92,0,0,0,2.49-.54Z"/><path d="M425.4,505.48h2.37v20.43H425.4Z"/><path d="M442.68,516.61a3.94,3.94,0,0,0-.81-2.79,3.11,3.11,0,0,0-2.35-.84,4.5,4.5,0,0,0-2.49.61,2.15,2.15,0,0,0-.95,1.94h-2.61q0-3.3,3.54-4.08a10.78,10.78,0,0,1,2.34-.24,6,6,0,0,1,4.17,1.35,5.25,5.25,0,0,1,1.5,4.11v9.24h-2l-.24-2.4a4.83,4.83,0,0,1-4.77,2.73,5.23,5.23,0,0,1-3.7-1.29,4.2,4.2,0,0,1-1.4-3.21,3.46,3.46,0,0,1,1.55-3,6.55,6.55,0,0,1,3.85-1.08,12.56,12.56,0,0,1,4.41.78Zm0,3.33a14,14,0,0,0-3.72-.6,5.14,5.14,0,0,0-2.58.57,1.93,1.93,0,0,0-1,1.8q0,2.7,3.06,2.7a4.09,4.09,0,0,0,3-1.25A4.35,4.35,0,0,0,442.68,519.94Z"/><path d="M452.88,514.33a5.4,5.4,0,0,1,8.81-1.44,6.87,6.87,0,0,1,1.42,4.59v8.43h-2.34v-8.43a4.44,4.44,0,0,0-1-3.12,3.61,3.61,0,0,0-2.78-1.05,3.48,3.48,0,0,0-2.91,1.47,6.91,6.91,0,0,0-1.17,4.08v7h-2.37V511.57h2Z"/><path d="M478.08,513.7v-8.22h2.34v20.43H478.5l-.3-2.4a4.93,4.93,0,0,1-1.83,2,4.72,4.72,0,0,1-2.49.69,5.84,5.84,0,0,1-4.57-2.1,8,8,0,0,1-1.85-5.48,7.83,7.83,0,0,1,1.82-5.41,5.88,5.88,0,0,1,4.59-2A4.59,4.59,0,0,1,478.08,513.7Zm-4.08-.39a3.61,3.61,0,0,0-2.92,1.47,7.08,7.08,0,0,0,0,7.87,3.6,3.6,0,0,0,2.88,1.49,4,4,0,0,0,2.87-1.13,4.14,4.14,0,0,0,1.24-3v-2.34a4.3,4.3,0,0,0-1.17-3.18A4,4,0,0,0,474,513.31Z"/><path d="M487.28,512.26a7.06,7.06,0,0,1,4.09-1.05,6.66,6.66,0,0,1,4,1.08,3.44,3.44,0,0,1,1.51,2.73h-2.31q-.27-1.95-3.3-1.95a3.44,3.44,0,0,0-2.26.66,1.86,1.86,0,0,0-.8,1.42,1.65,1.65,0,0,0,.6,1.29,5.19,5.19,0,0,0,1.92.92l2.88,1a7.45,7.45,0,0,1,2.81,1.45,3.11,3.11,0,0,1,1,2.43,3.54,3.54,0,0,1-1.59,2.79,7,7,0,0,1-4.44,1.25A6.92,6.92,0,0,1,487,525a4.27,4.27,0,0,1-1.68-3.28h2.28a2.39,2.39,0,0,0,1.1,2,5.32,5.32,0,0,0,5.17,0,1.89,1.89,0,0,0,1-1.58,1.67,1.67,0,0,0-.6-1.39,5.47,5.47,0,0,0-1.95-.84l-2.79-.93q-3.75-1.11-3.75-3.9A3.27,3.27,0,0,1,487.28,512.26Z"/><path d="M511.05,516.7q0,6.15,5.19,11.4l-1.71,1.2a18.46,18.46,0,0,1-4.44-5.91,15.71,15.71,0,0,1,0-13.4,18.83,18.83,0,0,1,4.44-5.92l1.71,1.23Q511.05,510.55,511.05,516.7Z"/><path d="M521.43,508.18a1.51,1.51,0,0,1-1.12-.41,1.63,1.63,0,0,1,0-2.16,1.51,1.51,0,0,1,1.12-.4,1.64,1.64,0,0,1,1.16.4,1.57,1.57,0,0,1,0,2.16A1.64,1.64,0,0,1,521.43,508.18Zm-1.17,3.36h2.37v14.37h-2.37Z"/><path d="M531.36,514.33a5.4,5.4,0,0,1,8.81-1.44,6.87,6.87,0,0,1,1.42,4.59v8.43h-2.34v-8.43a4.44,4.44,0,0,0-1-3.12,3.61,3.61,0,0,0-2.78-1.05,3.48,3.48,0,0,0-2.91,1.47,6.91,6.91,0,0,0-1.17,4.08v7h-2.37V511.57h2Z"/><path d="M547.17,505.48h2.37v20.43h-2.37Z"/><path d="M564.45,516.61a3.94,3.94,0,0,0-.81-2.79,3.11,3.11,0,0,0-2.35-.84,4.5,4.5,0,0,0-2.49.61,2.15,2.15,0,0,0-.95,1.94h-2.61q0-3.3,3.54-4.08a10.78,10.78,0,0,1,2.34-.24,6,6,0,0,1,4.17,1.35,5.25,5.25,0,0,1,1.5,4.11v9.24h-2l-.24-2.4a4.83,4.83,0,0,1-4.77,2.73A5.23,5.23,0,0,1,556,525a4.2,4.2,0,0,1-1.4-3.21,3.46,3.46,0,0,1,1.55-3,6.55,6.55,0,0,1,3.85-1.08,12.56,12.56,0,0,1,4.41.78Zm0,3.33a14,14,0,0,0-3.72-.6,5.14,5.14,0,0,0-2.58.57,1.93,1.93,0,0,0-1,1.8q0,2.7,3.06,2.7a4.09,4.09,0,0,0,3-1.25A4.35,4.35,0,0,0,564.45,519.94Z"/><path d="M574.65,514.33a5.4,5.4,0,0,1,8.81-1.44,6.87,6.87,0,0,1,1.42,4.59v8.43h-2.34v-8.43a4.44,4.44,0,0,0-1-3.12,3.61,3.61,0,0,0-2.78-1.05,3.48,3.48,0,0,0-2.91,1.47,6.91,6.91,0,0,0-1.17,4.08v7h-2.37V511.57h2Z"/><path d="M599.85,513.7v-8.22h2.34v20.43h-1.92l-.3-2.4a4.93,4.93,0,0,1-1.83,2,4.72,4.72,0,0,1-2.49.69,5.84,5.84,0,0,1-4.57-2.1,8,8,0,0,1-1.85-5.48,7.83,7.83,0,0,1,1.82-5.41,5.88,5.88,0,0,1,4.59-2A4.59,4.59,0,0,1,599.85,513.7Zm-4.08-.39a3.61,3.61,0,0,0-2.92,1.47,7.08,7.08,0,0,0,0,7.87,3.6,3.6,0,0,0,2.88,1.49,4,4,0,0,0,2.87-1.13,4.14,4.14,0,0,0,1.24-3v-2.34a4.3,4.3,0,0,0-1.17-3.18A4,4,0,0,0,595.77,513.31Z"/><path d="M611.28,516.7q0-6.15-5.19-11.4l1.71-1.23a18.83,18.83,0,0,1,4.44,5.92,15.71,15.71,0,0,1,0,13.4,18.46,18.46,0,0,1-4.44,5.91l-1.71-1.2Q611.28,522.85,611.28,516.7Z"/><path d="M382.86,373.05q-.51-2.76-4.05-2.76a4.52,4.52,0,0,0-2.91.83,2.47,2.47,0,0,0-1,2,2.32,2.32,0,0,0,.63,1.76,5.2,5.2,0,0,0,2,1l3.93,1.35a8.24,8.24,0,0,1,3.2,1.89,4.62,4.62,0,0,1,1.18,3.38,4.52,4.52,0,0,1-1.86,3.66,7.76,7.76,0,0,1-5,1.49,8,8,0,0,1-5.11-1.58,5.47,5.47,0,0,1-2.06-4.42h2.31a3.36,3.36,0,0,0,1.31,2.85,5.47,5.47,0,0,0,3.36,1,5.23,5.23,0,0,0,3.25-.91,2.74,2.74,0,0,0,.47-4.13,5.51,5.51,0,0,0-2.18-1.19L377,378a10,10,0,0,1-3.54-1.87,4,4,0,0,1-1.2-3.16,4.34,4.34,0,0,1,1.68-3.48,7.17,7.17,0,0,1,4.71-1.4,7.09,7.09,0,0,1,4.64,1.34,5.16,5.16,0,0,1,1.84,3.58Z"/><path d="M392.28,369.61a1.51,1.51,0,0,1-1.12-.41,1.63,1.63,0,0,1,0-2.16,1.51,1.51,0,0,1,1.12-.41,1.64,1.64,0,0,1,1.16.41,1.57,1.57,0,0,1,0,2.16A1.64,1.64,0,0,1,392.28,369.61ZM391.11,373h2.37v14.37h-2.37Z"/><path d="M404.88,385.75q3,0,3.39-2.62h2.43a4.91,4.91,0,0,1-1.9,3.35,6.34,6.34,0,0,1-3.92,1.19,5.93,5.93,0,0,1-4.68-2.06,9.17,9.17,0,0,1,0-10.94,6.15,6.15,0,0,1,4.83-2,5,5,0,0,1,4.5,2.34,8.3,8.3,0,0,1,1,5.7h-9.81a5.86,5.86,0,0,0,1.08,3.65A3.59,3.59,0,0,0,404.88,385.75Zm1.74-10.87a4.06,4.06,0,0,0-4.57.89,5.44,5.44,0,0,0-1.25,3.11h7.65C408.45,376.88,407.84,375.54,406.62,374.88Z"/><path d="M421.23,375c-2.26,0-3.43,1.79-3.51,5.34v7h-2.37V373h2.37v2.76q1.08-3,3.81-3a4.77,4.77,0,0,1,1.65.28l-.12,2.3A6,6,0,0,0,421.23,375Z"/><path d="M432.66,375c-2.26,0-3.43,1.79-3.51,5.34v7h-2.37V373h2.37v2.76q1.08-3,3.81-3a4.77,4.77,0,0,1,1.65.28l-.12,2.3A6,6,0,0,0,432.66,375Z"/><path d="M447.12,378a3.92,3.92,0,0,0-.81-2.79,3.11,3.11,0,0,0-2.35-.85,4.5,4.5,0,0,0-2.49.62,2.15,2.15,0,0,0-1,1.94h-2.61c0-2.21,1.18-3.56,3.54-4.08a10.18,10.18,0,0,1,2.34-.25A6,6,0,0,1,448,374a5.25,5.25,0,0,1,1.5,4.11v9.24h-2l-.24-2.39a4.84,4.84,0,0,1-4.77,2.73,5.23,5.23,0,0,1-3.7-1.29,4.2,4.2,0,0,1-1.4-3.21,3.44,3.44,0,0,1,1.55-3,6.55,6.55,0,0,1,3.85-1.09,12.57,12.57,0,0,1,4.41.79Zm0,3.33a13.59,13.59,0,0,0-3.72-.6,5.25,5.25,0,0,0-2.58.56,1.93,1.93,0,0,0-1,1.8c0,1.81,1,2.7,3.06,2.7a4.08,4.08,0,0,0,3-1.24A4.35,4.35,0,0,0,447.12,381.37Z"/><path d="M464.94,368.46l9.36,15.16V368.46h2.37v18.87H474L464.52,372v15.36h-2.4V368.46Z"/><path d="M487.68,385.75q3,0,3.39-2.62h2.43a4.91,4.91,0,0,1-1.9,3.35,6.34,6.34,0,0,1-3.92,1.19,5.93,5.93,0,0,1-4.68-2.06,9.17,9.17,0,0,1,0-10.94,6.15,6.15,0,0,1,4.83-2,5,5,0,0,1,4.5,2.34,8.3,8.3,0,0,1,1,5.7h-9.81a5.86,5.86,0,0,0,1.08,3.65A3.59,3.59,0,0,0,487.68,385.75Zm1.74-10.87a4.06,4.06,0,0,0-4.57.89,5.44,5.44,0,0,0-1.25,3.11h7.65C491.25,376.88,490.64,375.54,489.42,374.88Z"/><path d="M498.36,373l4.32,11.84L507,373h2.67L504,387.33h-2.61L495.69,373Z"/><path d="M522.15,378a3.92,3.92,0,0,0-.81-2.79,3.11,3.11,0,0,0-2.35-.85,4.5,4.5,0,0,0-2.49.62,2.15,2.15,0,0,0-1,1.94h-2.61c0-2.21,1.18-3.56,3.54-4.08a10.18,10.18,0,0,1,2.34-.25A6,6,0,0,1,523,374a5.25,5.25,0,0,1,1.5,4.11v9.24h-2l-.24-2.39a4.84,4.84,0,0,1-4.77,2.73,5.23,5.23,0,0,1-3.7-1.29,4.2,4.2,0,0,1-1.4-3.21,3.44,3.44,0,0,1,1.55-3,6.55,6.55,0,0,1,3.85-1.09,12.57,12.57,0,0,1,4.41.79Zm0,3.33a13.59,13.59,0,0,0-3.72-.6,5.25,5.25,0,0,0-2.58.56,1.93,1.93,0,0,0-1,1.8c0,1.81,1,2.7,3.06,2.7a4.08,4.08,0,0,0,3-1.24A4.35,4.35,0,0,0,522.15,381.37Z"/><path d="M539.46,375.13V366.9h2.34v20.43h-1.92l-.3-2.39a4.9,4.9,0,0,1-1.83,2,4.73,4.73,0,0,1-2.49.7,5.85,5.85,0,0,1-4.57-2.11,8,8,0,0,1-1.85-5.47,7.88,7.88,0,0,1,1.82-5.42,5.88,5.88,0,0,1,4.59-2A4.58,4.58,0,0,1,539.46,375.13Zm-4.08-.4a3.6,3.6,0,0,0-2.92,1.48,7.08,7.08,0,0,0,0,7.87,3.59,3.59,0,0,0,2.88,1.48,4,4,0,0,0,2.87-1.12,4.15,4.15,0,0,0,1.24-3v-2.34a4.33,4.33,0,0,0-1.17-3.18A4,4,0,0,0,535.38,374.73Z"/><path d="M556.77,378a3.92,3.92,0,0,0-.81-2.79,3.11,3.11,0,0,0-2.35-.85,4.5,4.5,0,0,0-2.49.62,2.15,2.15,0,0,0-1,1.94h-2.61c0-2.21,1.18-3.56,3.54-4.08a10.18,10.18,0,0,1,2.34-.25,6,6,0,0,1,4.17,1.35,5.25,5.25,0,0,1,1.5,4.11v9.24h-2l-.24-2.39a4.84,4.84,0,0,1-4.77,2.73,5.23,5.23,0,0,1-3.7-1.29,4.2,4.2,0,0,1-1.4-3.21,3.44,3.44,0,0,1,1.55-3,6.55,6.55,0,0,1,3.85-1.09,12.57,12.57,0,0,1,4.41.79Zm0,3.33a13.59,13.59,0,0,0-3.72-.6,5.25,5.25,0,0,0-2.58.56,1.93,1.93,0,0,0-1,1.8c0,1.81,1,2.7,3.06,2.7a4.08,4.08,0,0,0,3-1.24A4.35,4.35,0,0,0,556.77,381.37Z"/><path d="M574.11,375.75a4.93,4.93,0,0,1,4.83-3.12,4.93,4.93,0,0,1,4.95,3.45,5.44,5.44,0,0,1,9-1.77,6.94,6.94,0,0,1,1.41,4.59v8.43H592V378.9a4.43,4.43,0,0,0-1-3.11,3.62,3.62,0,0,0-2.81-1.06,3.23,3.23,0,0,0-2.83,1.5,7.43,7.43,0,0,0-1,4.15v6.95H582V378.9a4.43,4.43,0,0,0-1-3.11,3.58,3.58,0,0,0-2.78-1.06,3.46,3.46,0,0,0-2.91,1.48,6.89,6.89,0,0,0-1.17,4.08v7H571.8V373h2Z"/><path d="M605,372.63a6.41,6.41,0,0,1,4.85,1.95,7.83,7.83,0,0,1,1.84,5.59,7.74,7.74,0,0,1-1.84,5.54,7,7,0,0,1-9.69,0,7.74,7.74,0,0,1-1.85-5.54,7.84,7.84,0,0,1,1.85-5.59A6.39,6.39,0,0,1,605,372.63Zm4.29,7.52a6.62,6.62,0,0,0-1.08-4,3.69,3.69,0,0,0-3.16-1.46,3.79,3.79,0,0,0-3.2,1.46,6.49,6.49,0,0,0-1.11,4,6.76,6.76,0,0,0,1.05,4,3.63,3.63,0,0,0,3.14,1.46,3.85,3.85,0,0,0,3.22-1.46A6.36,6.36,0,0,0,609.33,380.15Z"/><path d="M626,384.48a4.94,4.94,0,0,1-4.77,3.13,5.59,5.59,0,0,1-3.91-1.36,5.35,5.35,0,0,1-1.49-4.17V373h2.37v8.94q0,3.64,3.36,3.64a3.89,3.89,0,0,0,3.17-1.5A6.19,6.19,0,0,0,626,380.2V373h2.37v14.37H626Z"/><path d="M636.72,375.75a5.4,5.4,0,0,1,8.81-1.44A6.89,6.89,0,0,1,647,378.9v8.43h-2.34V378.9a4.43,4.43,0,0,0-1-3.11,3.58,3.58,0,0,0-2.78-1.06,3.46,3.46,0,0,0-2.91,1.48,6.89,6.89,0,0,0-1.17,4.08v7h-2.37V373h2Z"/><path d="M660,386.92a6.37,6.37,0,0,1-4.71.5,3.28,3.28,0,0,1-2.16-2,4.45,4.45,0,0,1-.33-1.8v-8.83h-2.31V373h2.31v-4h2.34v4h4.5v1.79h-4.5v8.79c0,1.46.68,2.2,2,2.2a7,7,0,0,0,2.49-.55Z"/><path d="M672.69,378a3.92,3.92,0,0,0-.81-2.79,3.11,3.11,0,0,0-2.35-.85A4.5,4.5,0,0,0,667,375a2.15,2.15,0,0,0-.95,1.94h-2.61c0-2.21,1.18-3.56,3.54-4.08a10.18,10.18,0,0,1,2.34-.25,6,6,0,0,1,4.17,1.35,5.25,5.25,0,0,1,1.5,4.11v9.24h-2l-.24-2.39a4.84,4.84,0,0,1-4.77,2.73,5.23,5.23,0,0,1-3.7-1.29,4.2,4.2,0,0,1-1.4-3.21,3.44,3.44,0,0,1,1.55-3,6.55,6.55,0,0,1,3.85-1.09,12.57,12.57,0,0,1,4.41.79Zm0,3.33a13.59,13.59,0,0,0-3.72-.6,5.25,5.25,0,0,0-2.58.56,1.93,1.93,0,0,0-1,1.8c0,1.81,1,2.7,3.06,2.7a4.08,4.08,0,0,0,3-1.24A4.39,4.39,0,0,0,672.69,381.37Z"/><path d="M681.93,369.61a1.51,1.51,0,0,1-1.12-.41,1.63,1.63,0,0,1,0-2.16,1.51,1.51,0,0,1,1.12-.41,1.62,1.62,0,0,1,1.15.41,1.55,1.55,0,0,1,0,2.16A1.62,1.62,0,0,1,681.93,369.61ZM680.76,373h2.37v14.37h-2.37Z"/><path d="M691.86,375.75a5.4,5.4,0,0,1,8.81-1.44,6.94,6.94,0,0,1,1.42,4.59v8.43h-2.34V378.9a4.47,4.47,0,0,0-1-3.11,3.58,3.58,0,0,0-2.78-1.06,3.46,3.46,0,0,0-2.91,1.48,6.89,6.89,0,0,0-1.17,4.08v7h-2.37V373h2Z"/><path d="M720.66,375c-2.26,0-3.43,1.79-3.51,5.34v7h-2.37V373h2.37v2.76q1.08-3,3.81-3a4.77,4.77,0,0,1,1.65.28l-.12,2.3A6,6,0,0,0,720.66,375Z"/><path d="M735.12,378a3.92,3.92,0,0,0-.81-2.79,3.13,3.13,0,0,0-2.35-.85,4.51,4.51,0,0,0-2.5.62,2.15,2.15,0,0,0-.94,1.94h-2.61c0-2.21,1.18-3.56,3.54-4.08a10.18,10.18,0,0,1,2.34-.25A6,6,0,0,1,736,374a5.25,5.25,0,0,1,1.5,4.11v9.24h-2l-.24-2.39a4.84,4.84,0,0,1-4.77,2.73,5.21,5.21,0,0,1-3.7-1.29,4.16,4.16,0,0,1-1.4-3.21,3.43,3.43,0,0,1,1.54-3,6.59,6.59,0,0,1,3.86-1.09,12.57,12.57,0,0,1,4.41.79Zm0,3.33a13.59,13.59,0,0,0-3.72-.6,5.25,5.25,0,0,0-2.58.56,1.93,1.93,0,0,0-1,1.8c0,1.81,1,2.7,3.06,2.7a4.09,4.09,0,0,0,3-1.24A4.39,4.39,0,0,0,735.12,381.37Z"/><path d="M745.32,375.75a4.93,4.93,0,0,1,4.83-3.12,5,5,0,0,1,4,1.68,6.94,6.94,0,0,1,1.42,4.59v8.43h-2.34V378.9a4.43,4.43,0,0,0-1-3.11,3.56,3.56,0,0,0-2.77-1.06,3.46,3.46,0,0,0-2.91,1.48,6.89,6.89,0,0,0-1.17,4.08v7H743V373h2Z"/><path d="M761.73,386.88a2.82,2.82,0,0,1-1.8-2.67,2.24,2.24,0,0,1,.7-1.63,3.56,3.56,0,0,1,1.76-.95,4.79,4.79,0,0,1-1.62-3.77,4.74,4.74,0,0,1,1.66-3.78,5.86,5.86,0,0,1,4-1.45,6.8,6.8,0,0,1,3.87,1.08,4,4,0,0,1,1.27-2.54,4,4,0,0,1,2.81-1l-.21,2.33c-1.76,0-2.68.75-2.76,2.23a4.72,4.72,0,0,1,1,3.09,4.85,4.85,0,0,1-1.67,3.79,6,6,0,0,1-4.15,1.48,6.44,6.44,0,0,1-3-.68,2.23,2.23,0,0,0-1.08.55,1.53,1.53,0,0,0-.48,1.19q0,1.59,2.64,1.59h5.58a5.29,5.29,0,0,1,3.18.85,2.79,2.79,0,0,1,1.17,2.39,4.9,4.9,0,0,1-2.3,4,9.44,9.44,0,0,1-5.8,1.71,10.06,10.06,0,0,1-5.52-1.3,3.83,3.83,0,0,1-2-3.28,2.9,2.9,0,0,1,.76-2.1A4.19,4.19,0,0,1,761.73,386.88Zm-.45,3.16a2.35,2.35,0,0,0,1.24,2,6.92,6.92,0,0,0,3.78.83,7.65,7.65,0,0,0,4.23-1.1,3.1,3.1,0,0,0,1.7-2.56,1.63,1.63,0,0,0-.5-1.19,2.05,2.05,0,0,0-1.51-.5h-5.79a3.88,3.88,0,0,0-2.34.74A2.24,2.24,0,0,0,761.28,390Zm8.82-12.2a3.5,3.5,0,0,0-.93-2.52,3.85,3.85,0,0,0-5.13,0,3.53,3.53,0,0,0-.93,2.54,3.6,3.6,0,0,0,.94,2.56,3.36,3.36,0,0,0,2.57,1,3.28,3.28,0,0,0,2.55-1A3.65,3.65,0,0,0,770.1,377.84Z"/><path d="M783,385.75q3,0,3.39-2.62h2.43a4.92,4.92,0,0,1-1.91,3.35,6.31,6.31,0,0,1-3.91,1.19,5.93,5.93,0,0,1-4.68-2.06,9.19,9.19,0,0,1,0-10.94,6.15,6.15,0,0,1,4.83-2,5,5,0,0,1,4.5,2.34,8.3,8.3,0,0,1,1,5.7h-9.81a5.86,5.86,0,0,0,1.08,3.65A3.59,3.59,0,0,0,783,385.75Zm1.74-10.87a4.08,4.08,0,0,0-4.58.89,5.44,5.44,0,0,0-1.24,3.11h7.65C786.6,376.88,786,375.54,784.77,374.88Z"/><path d="M344.48,331.83a5.41,5.41,0,0,1-5.48,4,8.6,8.6,0,0,1-6.83-3.13,12.17,12.17,0,0,1-2.79-8.26,12,12,0,0,1,3-8.5,9.75,9.75,0,0,1,7.45-3.09,9.43,9.43,0,0,1,5.18,1.34,8.88,8.88,0,0,1,3.29,4.23l-4.12,1q-1.8-2.89-4.55-2.9a5.11,5.11,0,0,0-4.19,2.15,9.1,9.1,0,0,0-1.73,5.81,9.26,9.26,0,0,0,1.56,5.58,5.11,5.11,0,0,0,7.65.71,5.24,5.24,0,0,0,1.43-3.91v-.13l-5-.11V324h8.8v11.35h-3.26Z"/><path d="M366.76,323.3a9,9,0,0,1,.43,2.62,15.37,15.37,0,0,1-.14,2.14H356.38a5.7,5.7,0,0,0,1,3.26,3.22,3.22,0,0,0,2.79,1.26,2.65,2.65,0,0,0,3-2.18h4a5.92,5.92,0,0,1-2.27,3.91,7.51,7.51,0,0,1-4.73,1.5,7.14,7.14,0,0,1-5.47-2.38,9,9,0,0,1-2.28-6.36,8.93,8.93,0,0,1,2.28-6.39,7.19,7.19,0,0,1,5.47-2.31,6.41,6.41,0,0,1,5.34,2.41A7.48,7.48,0,0,1,366.76,323.3Zm-6.58-1.74a3.31,3.31,0,0,0-2.65,1.11,5,5,0,0,0-1.12,2.84h7c0-1.79-.57-3-1.7-3.61A3.4,3.4,0,0,0,360.18,321.56Z"/><path d="M378.48,318.37a8.89,8.89,0,0,1,3.12.53,6.53,6.53,0,0,1,2.52,1.61,9,9,0,0,1,2.35,6.6,8.89,8.89,0,0,1-2.35,6.52,7.46,7.46,0,0,1-5.64,2.18,7.72,7.72,0,0,1-5.72-2.18,8.82,8.82,0,0,1-2.34-6.52,8.94,8.94,0,0,1,2.34-6.6A7.73,7.73,0,0,1,378.48,318.37Zm4,8.7a6.31,6.31,0,0,0-1-3.92,3.36,3.36,0,0,0-2.83-1.31,3.76,3.76,0,0,0-3,1.31,5.77,5.77,0,0,0-1.16,3.92,6.25,6.25,0,0,0,1,3.93,3.44,3.44,0,0,0,2.84,1.31,3.78,3.78,0,0,0,3-1.31A5.78,5.78,0,0,0,382.45,327.07Z"/><path d="M392.65,328.57a5.36,5.36,0,0,1-2-4.25,5.27,5.27,0,0,1,2.11-4.35,7.33,7.33,0,0,1,4.67-1.6,8.87,8.87,0,0,1,4.4,1,4.5,4.5,0,0,1,1.67-3.13,5.05,5.05,0,0,1,3.37-1.19l-.21,3.84c-2,0-3,.65-3,1.94a5.08,5.08,0,0,1,1.25,3.19,5.94,5.94,0,0,1-.57,2.74,5.5,5.5,0,0,1-1.57,1.85,7.67,7.67,0,0,1-5,1.63,8.6,8.6,0,0,1-3-.51,1.65,1.65,0,0,0-1.36,1.64c0,1,.86,1.53,2.59,1.53h5.54q5.64,0,5.64,3.94a5.61,5.61,0,0,1-.66,2.6,6.83,6.83,0,0,1-1.92,2.26,11.07,11.07,0,0,1-7,2.18A11.93,11.93,0,0,1,391,342.2a4.65,4.65,0,0,1-2.38-3.91,3.23,3.23,0,0,1,.94-2.43,4.42,4.42,0,0,1,2.46-1.14,3.53,3.53,0,0,1-2-3,2.78,2.78,0,0,1,.75-2A4.15,4.15,0,0,1,392.65,328.57Zm3.06,7.14c-2.13.09-3.19.89-3.19,2.41a2.11,2.11,0,0,0,1.34,1.86,6.9,6.9,0,0,0,3.18.69,10.79,10.79,0,0,0,2.87-.3,5.92,5.92,0,0,0,1.75-.82,2.93,2.93,0,0,0,1.53-2.45,1.31,1.31,0,0,0-.42-1,1.77,1.77,0,0,0-1.24-.39Zm5.21-11.44a3.28,3.28,0,0,0-.77-2.25,3,3,0,0,0-2.33-.86,2.89,2.89,0,0,0-3.19,3.11,3.21,3.21,0,0,0,.81,2.26,3.09,3.09,0,0,0,2.38.88,2.92,2.92,0,0,0,2.33-.88A3.33,3.33,0,0,0,400.92,324.27Z"/><path d="M415,322.08c1-2.38,2.49-3.58,4.48-3.58a5.83,5.83,0,0,1,1.47.24l-.07,4a9.37,9.37,0,0,0-1.87-.2c-2.68,0-4,1.85-4,5.54v7.24h-4V318.78h4Z"/><path d="M430.6,325.68a18.61,18.61,0,0,1,4.55.65v-1.64a4,4,0,0,0-.69-2.56,2.82,2.82,0,0,0-2.28-.84,4,4,0,0,0-2.43.63,2.09,2.09,0,0,0-.85,1.79h-4.39a4.46,4.46,0,0,1,2-4.08,10.38,10.38,0,0,1,5.56-1.26q5.1,0,6.6,3.57a7.46,7.46,0,0,1,.51,2.89v10.5h-3.51l-.3-2.2a5.32,5.32,0,0,1-4.9,2.68,7.25,7.25,0,0,1-5-1.56,4.91,4.91,0,0,1-1.63-3.79,4,4,0,0,1,1.8-3.54A8.54,8.54,0,0,1,430.6,325.68Zm4.55,3.2a14,14,0,0,0-3.74-.55c-2.17,0-3.26.73-3.26,2.18a2,2,0,0,0,.75,1.58,3.56,3.56,0,0,0,2.39.66,3.64,3.64,0,0,0,2.72-1.1A4,4,0,0,0,435.15,328.88Z"/><path d="M448.69,321.05a5.13,5.13,0,0,1,4.76-2.68,6.92,6.92,0,0,1,5.23,2.31,10,10,0,0,1,0,12.82,6.91,6.91,0,0,1-5.2,2.31A5.23,5.23,0,0,1,449,334v9.38h-4V318.81h3.3Zm4,11.12a4,4,0,0,0,1.48-.3,4,4,0,0,0,1.38-.95,5.37,5.37,0,0,0,1.36-3.83,5.54,5.54,0,0,0-1.18-3.76,3.65,3.65,0,0,0-2.85-1.36,4,4,0,0,0-2.76,1,3.74,3.74,0,0,0-1.13,2.77v3a3.24,3.24,0,0,0,1.12,2.58A3.74,3.74,0,0,0,452.73,332.17Z"/><path d="M469.76,321.5a5.38,5.38,0,0,1,5-3.13,5.69,5.69,0,0,1,4.81,2,8.43,8.43,0,0,1,1.55,5.3v9.65h-4v-9.65a3.89,3.89,0,0,0-.88-2.77,3.27,3.27,0,0,0-2.48-.94A3.41,3.41,0,0,0,471,323.4a7.09,7.09,0,0,0-1.21,4.29v7.64h-4V312h4Z"/><path d="M489,318.81l4,11.9,3.47-11.9h4.08l-6.32,19.52a10.11,10.11,0,0,1-2.4,4.25,5.12,5.12,0,0,1-3.59,1.29,9.9,9.9,0,0,1-4.42-1.09v-3.53a6.68,6.68,0,0,0,3.57,1.12,2.41,2.41,0,0,0,2-.95,7.63,7.63,0,0,0,1.24-2.49l.51-1.6-6.63-16.52Z"/><path d="M335,461.27v9.21h9.62v-9.21h4v22.06h-4V474H335v9.35h-4V461.27Z"/><path d="M360.39,473.68a18.75,18.75,0,0,1,4.56.65v-1.64a4,4,0,0,0-.7-2.56,2.82,2.82,0,0,0-2.28-.84,4,4,0,0,0-2.43.63,2.09,2.09,0,0,0-.85,1.79H354.3a4.48,4.48,0,0,1,2-4.08,10.38,10.38,0,0,1,5.56-1.26q5.1,0,6.6,3.57a7.46,7.46,0,0,1,.51,2.89v10.5h-3.5l-.31-2.2a5.32,5.32,0,0,1-4.9,2.68,7.25,7.25,0,0,1-5-1.56,4.91,4.91,0,0,1-1.63-3.79,4,4,0,0,1,1.8-3.54A8.54,8.54,0,0,1,360.39,473.68Zm4.56,3.2a14.11,14.11,0,0,0-3.74-.55c-2.18,0-3.27.73-3.27,2.18a2,2,0,0,0,.75,1.58,3.59,3.59,0,0,0,2.4.66,3.65,3.65,0,0,0,2.72-1.1A4.12,4.12,0,0,0,365,476.88Z"/><path d="M388.69,468.75a9.11,9.11,0,0,1,2.1,6.25,9.36,9.36,0,0,1-2.21,6.4,6.85,6.85,0,0,1-5.34,2.41,5.14,5.14,0,0,1-2.81-.81,5.57,5.57,0,0,1-2-2.52l-1,2.85h-2.61V460h4v8.87a5.15,5.15,0,0,1,4.67-2.51A6.62,6.62,0,0,1,388.69,468.75Zm-9.87,5.3v2.18a3.92,3.92,0,0,0,1.26,2.85,3.75,3.75,0,0,0,2.73,1.09,3.47,3.47,0,0,0,2.77-1.41,5.69,5.69,0,0,0,1.16-3.72,5.61,5.61,0,0,0-1.14-3.69,3.54,3.54,0,0,0-2.84-1.38,3.86,3.86,0,0,0-2.82,1.12A4,4,0,0,0,378.82,474.05Z"/><path d="M395.54,461.47a2.28,2.28,0,0,1,.65-1.71,2.52,2.52,0,0,1,1.84-.63,2.55,2.55,0,0,1,1.82.63,2.56,2.56,0,0,1,0,3.43,2.55,2.55,0,0,1-1.82.63,2.52,2.52,0,0,1-1.84-.63A2.29,2.29,0,0,1,395.54,461.47Zm.48,5.31h4v16.55h-4Z"/><path d="M416.15,482.93a10.43,10.43,0,0,1-3.54.88,7.35,7.35,0,0,1-2.26-.31,5.07,5.07,0,0,1-1.72-.91,4.89,4.89,0,0,1-1.56-3.84V469.5h-2.31v-2.69h2.31v-4.35h4v4.35h4.49v2.69h-4.49v9.11c0,1.36.65,2,1.94,2a8.2,8.2,0,0,0,2.55-.54Z"/><path d="M425.7,473.68a18.62,18.62,0,0,1,4.56.65v-1.64a3.89,3.89,0,0,0-.7-2.56,2.79,2.79,0,0,0-2.28-.84,4,4,0,0,0-2.43.63,2.12,2.12,0,0,0-.85,1.79h-4.38a4.47,4.47,0,0,1,2-4.08,10.38,10.38,0,0,1,5.56-1.26q5.1,0,6.6,3.57a7.46,7.46,0,0,1,.51,2.89v10.5h-3.5l-.31-2.2a5.3,5.3,0,0,1-4.89,2.68,7.27,7.27,0,0,1-5-1.56,4.91,4.91,0,0,1-1.63-3.79,4,4,0,0,1,1.8-3.54A8.57,8.57,0,0,1,425.7,473.68Zm4.56,3.2a14.11,14.11,0,0,0-3.74-.55c-2.18,0-3.27.73-3.27,2.18a2,2,0,0,0,.75,1.58,3.59,3.59,0,0,0,2.4.66,3.64,3.64,0,0,0,2.72-1.1A4.12,4.12,0,0,0,430.26,476.88Z"/><path d="M449.43,482.93a10.33,10.33,0,0,1-3.53.88,7.31,7.31,0,0,1-2.26-.31,5,5,0,0,1-1.72-.91,4.89,4.89,0,0,1-1.56-3.84V469.5H438v-2.69h2.32v-4.35h4v4.35h4.49v2.69h-4.49v9.11c0,1.36.64,2,1.94,2a8.31,8.31,0,0,0,2.55-.54Z"/><path d="M471.47,482.93a10.43,10.43,0,0,1-3.54.88,7.31,7.31,0,0,1-2.26-.31,5,5,0,0,1-1.72-.91,4.89,4.89,0,0,1-1.56-3.84V469.5h-2.31v-2.69h2.31v-4.35h4v4.35h4.49v2.69H466.4v9.11c0,1.36.65,2,1.94,2a8.31,8.31,0,0,0,2.55-.54Z"/><path d="M477.62,466.81l4,11.9,3.46-11.9h4.09l-6.33,19.52a10.11,10.11,0,0,1-2.4,4.25,5.09,5.09,0,0,1-3.58,1.29,9.84,9.84,0,0,1-4.42-1.09v-3.53a6.68,6.68,0,0,0,3.57,1.12,2.41,2.41,0,0,0,1.95-.95,7.43,7.43,0,0,0,1.24-2.49l.51-1.6-6.63-16.52Z"/><path d="M496.39,469.05a5.14,5.14,0,0,1,4.76-2.68,6.92,6.92,0,0,1,5.23,2.31,10,10,0,0,1,0,12.82,6.91,6.91,0,0,1-5.2,2.31,5.24,5.24,0,0,1-4.42-1.8v9.38h-4V466.81H496Zm4,11.12a4,4,0,0,0,1.48-.3,4,4,0,0,0,1.38-.95,5.37,5.37,0,0,0,1.36-3.83,5.59,5.59,0,0,0-1.17-3.76,3.68,3.68,0,0,0-2.86-1.36,4,4,0,0,0-2.75,1,3.71,3.71,0,0,0-1.14,2.77v3a3.24,3.24,0,0,0,1.12,2.58A3.74,3.74,0,0,0,500.43,480.17Z"/><path d="M526.26,471.3a9.31,9.31,0,0,1,.42,2.62,15.37,15.37,0,0,1-.14,2.14H515.87a5.7,5.7,0,0,0,1,3.26,3.24,3.24,0,0,0,2.79,1.26,2.65,2.65,0,0,0,3-2.18h4a6,6,0,0,1-2.28,3.91,7.49,7.49,0,0,1-4.73,1.5,7.15,7.15,0,0,1-5.47-2.38,9,9,0,0,1-2.28-6.36,8.93,8.93,0,0,1,2.28-6.39,7.19,7.19,0,0,1,5.47-2.31,6.41,6.41,0,0,1,5.34,2.41A7.69,7.69,0,0,1,526.26,471.3Zm-6.58-1.74a3.32,3.32,0,0,0-2.66,1.11,5,5,0,0,0-1.12,2.84h7c0-1.79-.57-3-1.7-3.61A3.39,3.39,0,0,0,519.68,469.56Z"/><path d="M342.54,630.36q-.54-2.9-4.08-2.9a4.57,4.57,0,0,0-2.7.7,2,2,0,0,0-1,1.68,2,2,0,0,0,.63,1.55,6,6,0,0,0,1.95,1l4.8,1.87a9.73,9.73,0,0,1,3.77,2.4,5.16,5.16,0,0,1,1.33,3.62,5.7,5.7,0,0,1-2.25,4.74,10.17,10.17,0,0,1-6.39,1.75,9.31,9.31,0,0,1-5.95-1.8,7,7,0,0,1-2.69-5.58h4a3.29,3.29,0,0,0,2.82,3.44,8.58,8.58,0,0,0,2.25.24,5,5,0,0,0,2.58-.7,2.12,2.12,0,0,0,1.19-1.87,2.4,2.4,0,0,0-.64-1.8,6.38,6.38,0,0,0-2.11-1.18l-4.39-1.73a11.64,11.64,0,0,1-3.91-2.31,4.9,4.9,0,0,1-1.36-3.68,5.17,5.17,0,0,1,2.14-4.35,9.48,9.48,0,0,1,5.9-1.66,8.67,8.67,0,0,1,5.75,1.71,7,7,0,0,1,2.33,4.82Z"/><path d="M352.5,624.47a2.28,2.28,0,0,1,.65-1.71,3,3,0,0,1,3.65,0,2.56,2.56,0,0,1,0,3.43,3,3,0,0,1-3.65,0A2.29,2.29,0,0,1,352.5,624.47Zm.48,5.31h4v16.55h-4Z"/><path d="M362.56,643.07l8.57-10h-8.57v-3.27h13v3.27l-8.29,10h8.29v3.26h-13Z"/><path d="M393.42,634.3a9.31,9.31,0,0,1,.42,2.62,15.47,15.47,0,0,1-.13,2.14H383a5.78,5.78,0,0,0,1,3.26,3.22,3.22,0,0,0,2.79,1.26,2.64,2.64,0,0,0,2.95-2.18h4.05a5.89,5.89,0,0,1-2.28,3.91,7.49,7.49,0,0,1-4.72,1.5,7.17,7.17,0,0,1-5.48-2.38,9,9,0,0,1-2.28-6.36,8.93,8.93,0,0,1,2.28-6.39,7.21,7.21,0,0,1,5.48-2.31,6.39,6.39,0,0,1,5.33,2.41A7.5,7.5,0,0,1,393.42,634.3Zm-6.58-1.74a3.3,3.3,0,0,0-2.65,1.11,4.91,4.91,0,0,0-1.12,2.84h7c0-1.79-.56-3-1.7-3.61A3.39,3.39,0,0,0,386.84,632.56Z"/><line class="e56b6842-7b82-4637-9e8f-6a8f40e18a03" x1="253.5" y1="899.5" x2="253.5" y2="380"/><circle class="ae1f4876-f5f4-44e7-a7cf-ff85f1611d81" cx="253.5" cy="357.5" r="29.5"/><path class="ba611543-d57f-42b2-a331-d3d43a3fca99" d="M253.72,341.36a12.5,12.5,0,0,1,12.5,12.5c0,6.69-8.21,15.45-12.5,20.9-4.28-5.45-12.5-14.21-12.5-20.9a12.5,12.5,0,0,1,12.5-12.5Zm0,5.61a6.89,6.89,0,1,1-6.89,6.89A6.89,6.89,0,0,1,253.72,347Z"/><circle class="ae1f4876-f5f4-44e7-a7cf-ff85f1611d81" cx="253.5" cy="523.5" r="29.5"/><path class="ed1f28c8-302d-4fd8-8050-e524f00845a2" d="M239.38,527.54a.82.82,0,0,1-.47-.15.87.87,0,0,1-.25-1.2L247,513.57a.86.86,0,0,1,1.47,0l3.14,5.58L258,508.14a.87.87,0,0,1,.75-.43h0a.89.89,0,0,1,.75.43l8.77,15.08a.88.88,0,0,1-.31,1.19.86.86,0,0,1-1.18-.32l-8-13.78-6.39,11.07a.86.86,0,0,1-.75.43h0a.87.87,0,0,1-.75-.44l-3.18-5.66-7.57,11.44A.88.88,0,0,1,239.38,527.54Z"/><path class="ed1f28c8-302d-4fd8-8050-e524f00845a2" d="M276.71,528a8.69,8.69,0,0,1-5.29-1.69,7.45,7.45,0,0,0-8.72,0,9.14,9.14,0,0,1-10.59,0,7.45,7.45,0,0,0-8.72,0,9.14,9.14,0,0,1-10.59,0,7,7,0,0,0-4.35-1.41.87.87,0,1,1,0-1.73,8.69,8.69,0,0,1,5.29,1.69,7.45,7.45,0,0,0,8.72,0,9.14,9.14,0,0,1,10.59,0,7.43,7.43,0,0,0,8.71,0,9.16,9.16,0,0,1,10.6,0,7,7,0,0,0,4.35,1.41.87.87,0,1,1,0,1.73Z"/><path class="ed1f28c8-302d-4fd8-8050-e524f00845a2" d="M276.71,534.84a8.69,8.69,0,0,1-5.29-1.69,7.45,7.45,0,0,0-8.72,0,9.14,9.14,0,0,1-10.59,0,7.45,7.45,0,0,0-8.72,0,9.14,9.14,0,0,1-10.59,0,6.91,6.91,0,0,0-4.35-1.41.87.87,0,1,1,0-1.73,8.69,8.69,0,0,1,5.29,1.68,7.45,7.45,0,0,0,8.72,0,9.18,9.18,0,0,1,10.59,0,7.43,7.43,0,0,0,8.71,0,9.2,9.2,0,0,1,10.6,0,6.93,6.93,0,0,0,4.35,1.41.87.87,0,1,1,0,1.74Z"/><circle class="ae1f4876-f5f4-44e7-a7cf-ff85f1611d81" cx="253.5" cy="721.5" r="29.5"/><path class="ed1f28c8-302d-4fd8-8050-e524f00845a2" d="M260.22,702.9v36.32h-15V702.9Zm-1.8,34.52V704.7H247v32.72Z"/><rect class="ed1f28c8-302d-4fd8-8050-e524f00845a2" x="246.13" y="732.57" width="8.38" height="1.8"/><rect class="ed1f28c8-302d-4fd8-8050-e524f00845a2" x="246.13" y="727.65" width="5.41" height="1.8"/><rect class="ed1f28c8-302d-4fd8-8050-e524f00845a2" x="246.13" y="722.72" width="8.38" height="1.8"/><rect class="ed1f28c8-302d-4fd8-8050-e524f00845a2" x="246.13" y="717.81" width="5.41" height="1.8"/><rect class="ed1f28c8-302d-4fd8-8050-e524f00845a2" x="246.13" y="712.88" width="8.38" height="1.8"/><rect class="ed1f28c8-302d-4fd8-8050-e524f00845a2" x="246.13" y="707.96" width="5.41" height="1.8"/><circle class="ae1f4876-f5f4-44e7-a7cf-ff85f1611d81" cx="253.5" cy="891.5" r="29.5"/><polygon class="ed1f28c8-302d-4fd8-8050-e524f00845a2" points="258.64 874.56 253.27 901.25 251.66 901.01 250.03 900.78 251.46 873.73 255.06 874.14 258.64 874.56"/><circle class="ed1f28c8-302d-4fd8-8050-e524f00845a2" cx="250.99" cy="907.42" r="2.35"/><path class="f76623e9-1f98-44ba-b771-2838e9bebd20" d="M1995.78,24a24,24,0,0,0,12,20.79l-24.35,90.45L1952.5,48.36a24.07,24.07,0,1,0-24.2,12L1962,135.2,1894.28,92a24.09,24.09,0,1,0-10.87,22.17L1932,152.33l81.31,267.44c-81.31-102.7-205.4-102.7-205.4-102.7-113.39,40.65,0,233.21,0,233.21-15,2.13-12.84,38.51-12.84,38.51C1735.2,537.44,1484,503.36,1484,503.36l3.21-24.07C1546.52,368.58,1267.37,298,1267.37,298l-25.58-93.26a24.07,24.07,0,1,0-34.23,9l35.75,90.74L1124.7,266.25a24.08,24.08,0,1,0-8.86,23.13l119.45,37.49-100,25.73a24.07,24.07,0,1,0,7.21,25.11l105.64-30L1403.74,444l-69,46.52c-91.45,3.22-179.69,80.22-179.69,80.22-62.57,20.85-36.9,61-36.9,61-3.2,11.22-28.87,38.5-28.87,38.5-32.09-16-35.3,55.34-35.3,55.34v51.69s3.21,71.39,35.3,55.34c0,0,25.67,27.27,28.87,38.5,0,0-25.67,40.12,36.9,61,0,0,88.24,77,179.69,80.21l69,46.53L1248.12,1155l-105.64-30a24.07,24.07,0,1,0-7.21,25.12l100,25.72-119.45,37.5a24.07,24.07,0,1,0,8.86,23.12l118.61-38.17-35.75,90.74a24.08,24.08,0,1,0,34.23,9l25.58-93.29s279.15-70.59,219.79-181.27L1484,999.42S1735.2,965.33,1795.1,914c0,0-2.13,36.37,12.84,38.5,0,0-113.39,192.57,0,233.21,0,0,124.09,0,205.4-102.69L1932,1350.45l-48.62,38.2a24.07,24.07,0,1,0,10.87,22.17l67.71-43.27-33.69,74.87a24.08,24.08,0,1,0,24.2,12l30.88-86.85,24.35,90.46a24.06,24.06,0,1,0,19.41-2.15l-24.51-103.28,32.91,48.56a23.83,23.83,0,0,0-1.26,7.68,24.07,24.07,0,1,0,24.08-24.06,24.49,24.49,0,0,0-6.68.92l-49-63s154-241.77,96.28-380.83c0,0-23.53-53.49-145.49,23.53,0,0,85.58-53.48,81.31-147.63,0,0,23.53-40.48,59.9-40.48,0,0,27.82,6.25,27.82-15.15V740.69c0-21.4-27.82-15.15-27.82-15.15-36.37,0-59.9-40.48-59.9-40.48,4.27-94.13-81.31-147.62-81.31-147.62,122,77,145.49,23.54,145.49,23.54,57.77-139.08-96.28-380.83-96.28-380.83l49-63.09a23.4,23.4,0,0,0,6.68,1,24.08,24.08,0,1,0-24.08-24.09,23.78,23.78,0,0,0,1.26,7.68l-32.91,48.58,24.51-103.28A24.08,24.08,0,1,0,1995.78,24Z"/><rect class="ba9ebdca-dad4-4672-b15b-3e15ee29e8ce" y="33" width="1919" height="1076"/></svg>