<svg id="bd86d86a-22d9-4498-b9cf-497023e85563" data-name="Layer 1" xmlns="http://www.w3.org/2000/svg" viewBox="0 0 1920 1080"><defs><style>.fc164486-42c0-4aa3-987d-083d9213bf84{fill:#c5894d;}.b2bd5044-10ba-497d-bb65-0376c57df42b,.e9c84953-254b-41b5-be38-fb9468e8b658,.f296d0e4-590b-4031-85f3-d4ae1b065534,.f2987226-f772-47f3-b4c1-2d4ab8798075,.fa5fc85f-e5e8-4900-b2a3-b2a14682e787{fill:#f2e5d2;}.a2fa264f-e83e-4d51-8cf9-fe396ef24bb7,.fb785961-ca78-4d72-acbc-79c34a775025{fill:none;}.e9c84953-254b-41b5-be38-fb9468e8b658,.f296d0e4-590b-4031-85f3-d4ae1b065534,.f2987226-f772-47f3-b4c1-2d4ab8798075,.fa5fc85f-e5e8-4900-b2a3-b2a14682e787,.fb785961-ca78-4d72-acbc-79c34a775025{stroke:#5f6029;stroke-miterlimit:10;}.fb785961-ca78-4d72-acbc-79c34a775025{stroke-width:3px;}.fa5fc85f-e5e8-4900-b2a3-b2a14682e787{stroke-width:4px;}.f58ead12-9a68-4fb3-ab2e-19f7ea49df52{fill:#5f6029;}.f2987226-f772-47f3-b4c1-2d4ab8798075{stroke-width:3.72px;}.e9c84953-254b-41b5-be38-fb9468e8b658{stroke-width:1.86px;fill-rule:evenodd;}.f296d0e4-590b-4031-85f3-d4ae1b065534{stroke-width:2px;}</style></defs><rect class="fc164486-42c0-4aa3-987d-083d9213bf84" width="1920" height="1080"/><rect class="b2bd5044-10ba-497d-bb65-0376c57df42b" x="126" y="200" width="1393" height="783.5"/><path d="M153.56,169.7q-1-5.44-7.68-5.44a8.63,8.63,0,0,0-5.09,1.31,3.84,3.84,0,0,0-1.82,3.17,3.68,3.68,0,0,0,1.18,2.91,11.37,11.37,0,0,0,3.68,1.95l9,3.52a18.65,18.65,0,0,1,7.11,4.51,9.74,9.74,0,0,1,2.5,6.82,10.72,10.72,0,0,1-4.23,8.93c-2.81,2.2-6.83,3.29-12,3.29q-6.91,0-11.2-3.39a13.16,13.16,0,0,1-5.06-10.49h7.49q0,5.11,5.31,6.46a16.15,16.15,0,0,0,4.23.45,9.47,9.47,0,0,0,4.86-1.31,4,4,0,0,0,2.24-3.52,4.49,4.49,0,0,0-1.22-3.4,11.62,11.62,0,0,0-4-2.2L140.63,180a21.62,21.62,0,0,1-7.36-4.35,9.19,9.19,0,0,1-2.56-6.91,9.68,9.68,0,0,1,4-8.19q4.09-3.13,11.11-3.14t10.81,3.23a13.06,13.06,0,0,1,4.39,9.06Z"/><path d="M182.81,181.6a36,36,0,0,1,8.57,1.22v-3.07a7.48,7.48,0,0,0-1.31-4.84q-1.31-1.56-4.29-1.56a7.56,7.56,0,0,0-4.57,1.18,3.93,3.93,0,0,0-1.6,3.36h-8.26q0-5.31,3.74-7.68t10.47-2.37q9.6,0,12.41,6.72a14.1,14.1,0,0,1,1,5.44v19.78h-6.59l-.57-4.16a10,10,0,0,1-9.22,5q-6,0-9.34-2.94a9.27,9.27,0,0,1-3.08-7.14,7.58,7.58,0,0,1,3.4-6.65Q176.92,181.6,182.81,181.6Zm8.57,6a27.12,27.12,0,0,0-7-1q-6.14,0-6.14,4.1a3.87,3.87,0,0,0,1.41,3,6.7,6.7,0,0,0,4.51,1.24,6.82,6.82,0,0,0,5.12-2.08A7.63,7.63,0,0,0,191.38,187.62Z"/><path d="M209.69,158.63a4.31,4.31,0,0,1,1.21-3.24,5.6,5.6,0,0,1,6.88,0,4.81,4.81,0,0,1,0,6.47,5.6,5.6,0,0,1-6.88,0A4.31,4.31,0,0,1,209.69,158.63Zm.89,10h7.55v31.17h-7.55Z"/><path d="M233.62,187a10.41,10.41,0,0,1,.19-16.19,13.92,13.92,0,0,1,8.8-3,16.8,16.8,0,0,1,8.29,1.86,8.43,8.43,0,0,1,3.14-5.89,9.59,9.59,0,0,1,6.33-2.24L260,168.8q-5.51,0-5.7,3.65a9.54,9.54,0,0,1,2.37,6,11,11,0,0,1-1.09,5.15,10.22,10.22,0,0,1-2.94,3.49,14.54,14.54,0,0,1-9.34,3.07,16.11,16.11,0,0,1-5.7-1c-1.71.51-2.56,1.53-2.56,3.07q0,2.88,4.86,2.88h10.44q10.62,0,10.62,7.42a10.53,10.53,0,0,1-1.25,4.9,13.18,13.18,0,0,1-3.61,4.26q-5.25,4.09-13.19,4.09-7.68,0-12.48-3.13-4.48-3-4.48-7.36a6.08,6.08,0,0,1,1.76-4.58,8.33,8.33,0,0,1,4.64-2.14c-2.52-1.54-3.77-3.44-3.77-5.7a5.25,5.25,0,0,1,1.4-3.74A7.82,7.82,0,0,1,233.62,187Zm5.76,13.44q-6,.26-6,4.55,0,2.17,2.52,3.48a12.79,12.79,0,0,0,6,1.32,20.16,20.16,0,0,0,5.41-.58,10.79,10.79,0,0,0,3.29-1.54q2.88-1.92,2.88-4.6a2.46,2.46,0,0,0-.8-1.89,3.32,3.32,0,0,0-2.33-.74ZM249.17,179a6.16,6.16,0,0,0-1.44-4.23,5.53,5.53,0,0,0-4.38-1.63,5.85,5.85,0,0,0-4.48,1.63,6,6,0,0,0-1.54,4.23,6,6,0,0,0,1.54,4.25,5.79,5.79,0,0,0,4.48,1.67,5.48,5.48,0,0,0,4.38-1.67A6.27,6.27,0,0,0,249.17,179Z"/><path d="M278.42,181.6a36.09,36.09,0,0,1,8.58,1.22v-3.07a7.42,7.42,0,0,0-1.32-4.84,5.29,5.29,0,0,0-4.28-1.56,7.6,7.6,0,0,0-4.58,1.18,3.93,3.93,0,0,0-1.6,3.36H267q0-5.31,3.75-7.68t10.46-2.37q9.6,0,12.42,6.72a14.1,14.1,0,0,1,1,5.44v19.78H288l-.58-4.16a10,10,0,0,1-9.22,5q-6,0-9.34-2.94a9.26,9.26,0,0,1-3.07-7.14,7.6,7.6,0,0,1,3.39-6.65Q272.53,181.6,278.42,181.6Zm8.58,6a27.18,27.18,0,0,0-7-1q-6.15,0-6.15,4.1a3.87,3.87,0,0,0,1.41,3,6.72,6.72,0,0,0,4.51,1.24,6.81,6.81,0,0,0,5.12-2.08A7.64,7.64,0,0,0,287,187.62Z"/><path d="M332,181.6a36,36,0,0,1,8.57,1.22v-3.07a7.42,7.42,0,0,0-1.31-4.84q-1.31-1.56-4.29-1.56a7.56,7.56,0,0,0-4.57,1.18,3.93,3.93,0,0,0-1.6,3.36h-8.26q0-5.31,3.75-7.68t10.46-2.37q9.6,0,12.42,6.72a14.1,14.1,0,0,1,1,5.44v19.78h-6.6l-.57-4.16a10,10,0,0,1-9.22,5q-6,0-9.34-2.94a9.26,9.26,0,0,1-3.07-7.14,7.6,7.6,0,0,1,3.39-6.65Q326.1,181.6,332,181.6Zm8.57,6a27.06,27.06,0,0,0-7-1q-6.13,0-6.14,4.1a3.87,3.87,0,0,0,1.41,3,6.72,6.72,0,0,0,4.51,1.24,6.81,6.81,0,0,0,5.12-2.08A7.63,7.63,0,0,0,340.56,187.62Z"/><path d="M366.55,174.05a10.28,10.28,0,0,1,9.85-6.21q5.76,0,8.68,3.78t2.91,10v18.18h-7.55V181.6a7.31,7.31,0,0,0-1.67-5.21,6.1,6.1,0,0,0-4.67-1.76,6.39,6.39,0,0,0-5.15,2.68c-1.43,1.8-2.19,4.48-2.27,8.07v14.4h-7.56V168.67h6.6Z"/><path d="M416.53,199a19.58,19.58,0,0,1-6.65,1.66,14.27,14.27,0,0,1-4.26-.57,9.67,9.67,0,0,1-3.23-1.73,9.17,9.17,0,0,1-2.95-7.23V173.73h-4.35v-5.06h4.35v-8.19H407v8.19h8.44v5.06H407v17.15q0,3.84,3.64,3.84a15.41,15.41,0,0,0,4.8-1Z"/><path d="M448.37,177.12a17.53,17.53,0,0,1,.8,4.93,28.72,28.72,0,0,1-.26,4H428.82a10.81,10.81,0,0,0,1.85,6.15,6.11,6.11,0,0,0,5.25,2.36c3.12,0,5-1.36,5.57-4.09h7.62a11.23,11.23,0,0,1-4.29,7.36,14.11,14.11,0,0,1-8.9,2.81,13.48,13.48,0,0,1-10.3-4.48,17,17,0,0,1-4.29-12q0-7.5,4.29-12a13.54,13.54,0,0,1,10.3-4.35A12.08,12.08,0,0,1,446,172.39,14,14,0,0,1,448.37,177.12ZM436,173.86a6.24,6.24,0,0,0-5,2.08,9.45,9.45,0,0,0-2.11,5.34h13.25q0-5.06-3.2-6.78A6.2,6.2,0,0,0,436,173.86Z"/><path d="M458.19,155.88h7.56v43.9h-7.56Z"/><path d="M489.87,167.84a17.26,17.26,0,0,1,5.89,1,12.41,12.41,0,0,1,4.74,3q4.41,4.47,4.41,12.41t-4.41,12.29q-4,4.09-10.63,4.09a14.54,14.54,0,0,1-10.75-4.09q-4.41-4.43-4.41-12.29t4.41-12.41Q483.16,167.85,489.87,167.84Zm7.49,16.39c0-3.29-.64-5.75-1.92-7.4a6.39,6.39,0,0,0-5.34-2.46,7.12,7.12,0,0,0-5.6,2.46c-1.45,1.65-2.18,4.11-2.18,7.4s.65,5.75,1.95,7.39a6.46,6.46,0,0,0,5.35,2.46,7.12,7.12,0,0,0,5.57-2.46C496.64,190,497.36,187.51,497.36,184.23Z"/><path d="M520.78,172.9a9.71,9.71,0,0,1,9-5.06,13.06,13.06,0,0,1,9.85,4.35q4.35,4.62,4.35,12t-4.41,12.09a13,13,0,0,1-9.79,4.35q-5.7,0-8.33-3.39V215h-7.55V168.67h6.21Zm7.62,20.93a7.58,7.58,0,0,0,2.79-.58,7.24,7.24,0,0,0,2.59-1.79,10,10,0,0,0,2.56-7.2,10.47,10.47,0,0,0-2.21-7.07,6.84,6.84,0,0,0-5.38-2.56,7.4,7.4,0,0,0-5.18,1.82,7.11,7.11,0,0,0-2.15,5.22v5.56a6.17,6.17,0,0,0,2.12,4.87A7.14,7.14,0,0,0,528.4,193.83Z"/><path d="M577,177.12a17.53,17.53,0,0,1,.8,4.93,28.72,28.72,0,0,1-.26,4H557.46a10.81,10.81,0,0,0,1.85,6.15,6.08,6.08,0,0,0,5.25,2.36q4.66,0,5.57-4.09h7.61a11.18,11.18,0,0,1-4.28,7.36,14.13,14.13,0,0,1-8.9,2.81,13.46,13.46,0,0,1-10.3-4.48,17,17,0,0,1-4.29-12q0-7.5,4.29-12a13.54,13.54,0,0,1,10.3-4.35,12.08,12.08,0,0,1,10.05,4.55A14.36,14.36,0,0,1,577,177.12Zm-12.39-3.26a6.23,6.23,0,0,0-5,2.08,9.38,9.38,0,0,0-2.11,5.34h13.25q0-5.06-3.2-6.78A6.21,6.21,0,0,0,564.62,173.86Z"/><path d="M339.41,817.83a10.85,10.85,0,0,1,4,.73,8.53,8.53,0,0,1,3.16,2.16q2.79,3,2.79,8.57T346.62,838a9.41,9.41,0,0,1-7.24,2.85,9.24,9.24,0,0,1-7.21-2.92q-2.79-3-2.79-8.6t2.79-8.64A9.39,9.39,0,0,1,339.41,817.83Zm5.85,11.51a9.45,9.45,0,0,0-1.58-5.85,5.47,5.47,0,0,0-8.55,0,9.32,9.32,0,0,0-1.6,5.85,9.18,9.18,0,0,0,1.6,5.81,5.53,5.53,0,0,0,8.55,0A9.3,9.3,0,0,0,345.26,829.34Z"/><path d="M352.37,823.81h2.44v-1.94a5,5,0,0,1,1.5-3.91,5.11,5.11,0,0,1,3.54-1.22,18.28,18.28,0,0,1,3.43.41l-.78,3.09a5.12,5.12,0,0,0-1.72-.34,2.15,2.15,0,0,0-1.34.43,1.83,1.83,0,0,0-.58,1.58v1.9h3v2.69h-3v13.83h-4.05V826.5h-2.44Z"/><path d="M364.81,823.81h2.45v-1.94a5,5,0,0,1,1.49-3.91,5.13,5.13,0,0,1,3.54-1.22,18.19,18.19,0,0,1,3.43.41l-.78,3.09a5.08,5.08,0,0,0-1.72-.34,2.17,2.17,0,0,0-1.34.43,1.86,1.86,0,0,0-.58,1.58v1.9h3v2.69h-3v13.83h-4V826.5h-2.45Z"/><path d="M378.92,818.47a2.28,2.28,0,0,1,.64-1.71,3,3,0,0,1,3.66,0,2.56,2.56,0,0,1,0,3.43,3,3,0,0,1-3.66,0A2.29,2.29,0,0,1,378.92,818.47Zm.48,5.31h4v16.55h-4Z"/><path d="M396.5,823.37a7,7,0,0,1,2.8.53,6.49,6.49,0,0,1,2.09,1.37,6.65,6.65,0,0,1,2,4.12l-4,.1a3.63,3.63,0,0,0-1-1.8,2.34,2.34,0,0,0-1.68-.72,4.26,4.26,0,0,0-1.64.29,3.22,3.22,0,0,0-1.19.9,6.13,6.13,0,0,0-1.15,4,5.68,5.68,0,0,0,1.09,3.79,3.33,3.33,0,0,0,2.63,1.27,3,3,0,0,0,2.25-.73,2.77,2.77,0,0,0,.69-2h4a6.12,6.12,0,0,1-1.8,4.52,6.94,6.94,0,0,1-5.14,1.84,7.15,7.15,0,0,1-5.47-2.38,9,9,0,0,1-2.35-6.36,8.8,8.8,0,0,1,2.35-6.42A7.35,7.35,0,0,1,396.5,823.37Z"/><path d="M408.09,818.47a2.28,2.28,0,0,1,.65-1.71,3,3,0,0,1,3.65,0,2.56,2.56,0,0,1,0,3.43,3,3,0,0,1-3.65,0A2.29,2.29,0,0,1,408.09,818.47Zm.48,5.31h4v16.55h-4Z"/><path d="M424.82,830.68a18.61,18.61,0,0,1,4.55.65v-1.64a4,4,0,0,0-.69-2.56,2.82,2.82,0,0,0-2.28-.84,4,4,0,0,0-2.43.63,2.09,2.09,0,0,0-.85,1.79h-4.39a4.48,4.48,0,0,1,2-4.08,10.38,10.38,0,0,1,5.56-1.26q5.1,0,6.6,3.57a7.46,7.46,0,0,1,.51,2.89v10.5h-3.51l-.3-2.2a5.32,5.32,0,0,1-4.9,2.68,7.25,7.25,0,0,1-5-1.56,4.91,4.91,0,0,1-1.63-3.79,4,4,0,0,1,1.8-3.54A8.54,8.54,0,0,1,424.82,830.68Zm4.55,3.2a14,14,0,0,0-3.74-.55c-2.17,0-3.26.73-3.26,2.18a2,2,0,0,0,.75,1.58,3.59,3.59,0,0,0,2.4.66,3.67,3.67,0,0,0,2.72-1.1A4.07,4.07,0,0,0,429.37,833.88Z"/><path d="M439.23,817h4v23.32h-4Z"/><path d="M449.57,817h4v23.32h-4Z"/><path d="M462,823.81l4,11.9,3.47-11.9h4.08l-6.32,19.52a10.11,10.11,0,0,1-2.4,4.25,5.12,5.12,0,0,1-3.59,1.29,9.9,9.9,0,0,1-4.42-1.09v-3.53a6.68,6.68,0,0,0,3.57,1.12,2.41,2.41,0,0,0,2-1,7.63,7.63,0,0,0,1.24-2.49l.51-1.6-6.63-16.52Z"/><path d="M498.44,828.3a9,9,0,0,1,.43,2.62,15.37,15.37,0,0,1-.14,2.14H488.06a5.7,5.7,0,0,0,1,3.26,3.22,3.22,0,0,0,2.79,1.26,2.66,2.66,0,0,0,3-2.18h4a5.92,5.92,0,0,1-2.27,3.91,7.51,7.51,0,0,1-4.73,1.5,7.14,7.14,0,0,1-5.47-2.38,9,9,0,0,1-2.28-6.36,8.93,8.93,0,0,1,2.28-6.39,7.19,7.19,0,0,1,5.47-2.31,6.41,6.41,0,0,1,5.34,2.41A7.67,7.67,0,0,1,498.44,828.3Zm-6.58-1.74a3.31,3.31,0,0,0-2.65,1.11,5,5,0,0,0-1.12,2.84h7c0-1.79-.57-3-1.7-3.61A3.4,3.4,0,0,0,491.86,826.56Z"/><path d="M507.61,826.67a6,6,0,0,1,9.84-1.29,8.43,8.43,0,0,1,1.55,5.3v9.65h-4v-9.65a3.89,3.89,0,0,0-.88-2.77,3.27,3.27,0,0,0-2.48-.94,3.41,3.41,0,0,0-2.74,1.43,7.09,7.09,0,0,0-1.21,4.29v7.64h-4V823.81h3.5Z"/><path d="M535.62,837.79a5,5,0,0,1-4.69,3,6.78,6.78,0,0,1-5.3-2.41,10.42,10.42,0,0,1-.11-12.69,6.64,6.64,0,0,1,5.17-2.34,5.16,5.16,0,0,1,4.66,2.48V817h4v23.32h-3.3ZM531.44,827a3.54,3.54,0,0,0-2.84,1.38,5.61,5.61,0,0,0-1.14,3.69,5.69,5.69,0,0,0,1.16,3.72,3.65,3.65,0,0,0,5.54.26,4.08,4.08,0,0,0,1.19-3v-2.15a4.18,4.18,0,0,0-1.19-2.89A3.68,3.68,0,0,0,531.44,827Z"/><path d="M551.16,830.68a18.75,18.75,0,0,1,4.56.65v-1.64a4,4,0,0,0-.7-2.56,2.82,2.82,0,0,0-2.28-.84,4,4,0,0,0-2.43.63,2.09,2.09,0,0,0-.85,1.79h-4.39a4.48,4.48,0,0,1,2-4.08,10.38,10.38,0,0,1,5.56-1.26q5.1,0,6.6,3.57a7.46,7.46,0,0,1,.51,2.89v10.5h-3.5l-.31-2.2a5.32,5.32,0,0,1-4.9,2.68,7.25,7.25,0,0,1-5-1.56,4.91,4.91,0,0,1-1.63-3.79,4,4,0,0,1,1.8-3.54A8.54,8.54,0,0,1,551.16,830.68Zm4.56,3.2a14.11,14.11,0,0,0-3.74-.55c-2.18,0-3.27.73-3.27,2.18a2,2,0,0,0,.75,1.58,3.59,3.59,0,0,0,2.4.66,3.65,3.65,0,0,0,2.72-1.1A4.12,4.12,0,0,0,555.72,833.88Z"/><path d="M569.52,826.67a6,6,0,0,1,9.84-1.29,8.43,8.43,0,0,1,1.55,5.3v9.65h-4v-9.65a3.89,3.89,0,0,0-.89-2.77,3.26,3.26,0,0,0-2.48-.94,3.42,3.42,0,0,0-2.74,1.43,7.09,7.09,0,0,0-1.2,4.29v7.64h-4V823.81h3.5Z"/><path d="M588.19,833.57a5.34,5.34,0,0,1-2-4.25,5.27,5.27,0,0,1,2.11-4.35,7.35,7.35,0,0,1,4.67-1.6,8.93,8.93,0,0,1,4.41,1,4.45,4.45,0,0,1,1.66-3.13A5.07,5.07,0,0,1,602.4,820l-.21,3.84c-2,0-3,.65-3,1.94a5,5,0,0,1,1.26,3.19,5.94,5.94,0,0,1-.58,2.74,5.5,5.5,0,0,1-1.57,1.85,7.67,7.67,0,0,1-5,1.63,8.6,8.6,0,0,1-3-.51,1.65,1.65,0,0,0-1.36,1.64c0,1,.86,1.53,2.59,1.53h5.54q5.64,0,5.64,3.94a5.61,5.61,0,0,1-.66,2.6,6.83,6.83,0,0,1-1.92,2.26,11,11,0,0,1-7,2.18,11.93,11.93,0,0,1-6.63-1.67,4.63,4.63,0,0,1-2.38-3.91,3.22,3.22,0,0,1,.93-2.43,4.45,4.45,0,0,1,2.47-1.14,3.52,3.52,0,0,1-2-3,2.78,2.78,0,0,1,.75-2A4.18,4.18,0,0,1,588.19,833.57Zm3.06,7.14c-2.14.09-3.2.89-3.2,2.41a2.11,2.11,0,0,0,1.34,1.86,6.9,6.9,0,0,0,3.18.69,10.74,10.74,0,0,0,2.87-.3,6,6,0,0,0,1.76-.82,2.93,2.93,0,0,0,1.53-2.45,1.32,1.32,0,0,0-.43-1,1.77,1.77,0,0,0-1.24-.39Zm5.2-11.44a3.28,3.28,0,0,0-.77-2.25,3,3,0,0,0-2.33-.86,2.89,2.89,0,0,0-3.19,3.11,3.21,3.21,0,0,0,.81,2.26,3.09,3.09,0,0,0,2.38.88,2.9,2.9,0,0,0,2.33-.88A3.33,3.33,0,0,0,596.45,829.27Z"/><path d="M619.35,828.3a9.31,9.31,0,0,1,.42,2.62,15.47,15.47,0,0,1-.13,2.14H609a5.63,5.63,0,0,0,1,3.26,3.21,3.21,0,0,0,2.78,1.26,2.65,2.65,0,0,0,3-2.18h4a5.89,5.89,0,0,1-2.28,3.91,7.49,7.49,0,0,1-4.73,1.5,7.15,7.15,0,0,1-5.47-2.38,9,9,0,0,1-2.28-6.36,8.93,8.93,0,0,1,2.28-6.39,7.19,7.19,0,0,1,5.47-2.31,6.41,6.41,0,0,1,5.34,2.41A7.69,7.69,0,0,1,619.35,828.3Zm-6.58-1.74a3.29,3.29,0,0,0-2.65,1.11,5,5,0,0,0-1.13,2.84h7c0-1.79-.57-3-1.7-3.61A3.39,3.39,0,0,0,612.77,826.56Z"/><path d="M628.58,827.08c1-2.38,2.49-3.58,4.49-3.58a5.84,5.84,0,0,1,1.46.24l-.07,4a9.37,9.37,0,0,0-1.87-.2c-2.68,0-4,1.85-4,5.54v7.24h-4V823.78h4Z"/><path d="M651.51,828.3a9.31,9.31,0,0,1,.42,2.62,15.47,15.47,0,0,1-.13,2.14H641.12a5.78,5.78,0,0,0,1,3.26,3.22,3.22,0,0,0,2.79,1.26,2.64,2.64,0,0,0,3-2.18h4a5.89,5.89,0,0,1-2.28,3.91,7.49,7.49,0,0,1-4.72,1.5,7.17,7.17,0,0,1-5.48-2.38,9,9,0,0,1-2.28-6.36,8.93,8.93,0,0,1,2.28-6.39,7.21,7.21,0,0,1,5.48-2.31,6.39,6.39,0,0,1,5.33,2.41A7.5,7.5,0,0,1,651.51,828.3Zm-6.58-1.74a3.3,3.3,0,0,0-2.65,1.11,4.91,4.91,0,0,0-1.12,2.84h7c0-1.79-.56-3-1.7-3.61A3.39,3.39,0,0,0,644.93,826.56Z"/><path d="M667.51,837.79a5,5,0,0,1-4.7,3,6.81,6.81,0,0,1-5.3-2.41,9.36,9.36,0,0,1-2.21-6.4,9.2,9.2,0,0,1,2.11-6.29,6.61,6.61,0,0,1,5.17-2.34,5.14,5.14,0,0,1,4.65,2.48V817h4v23.32H668ZM663.32,827a3.51,3.51,0,0,0-2.83,1.38,5.61,5.61,0,0,0-1.14,3.69,5.68,5.68,0,0,0,1.15,3.72A3.65,3.65,0,0,0,666,836a4,4,0,0,0,1.19-3v-2.15A4.14,4.14,0,0,0,666,828,3.67,3.67,0,0,0,663.32,827Z"/><path d="M684.4,823.81h2.45v-1.94a5,5,0,0,1,1.5-3.91,5.08,5.08,0,0,1,3.53-1.22,18.28,18.28,0,0,1,3.44.41l-.78,3.09a5.12,5.12,0,0,0-1.72-.34,2.15,2.15,0,0,0-1.34.43,1.83,1.83,0,0,0-.58,1.58v1.9h3v2.69h-3v13.83h-4V826.5H684.4Z"/><path d="M702.66,827.08c1-2.38,2.5-3.58,4.49-3.58a5.77,5.77,0,0,1,1.46.24l-.07,4a9.22,9.22,0,0,0-1.87-.2q-4,0-4,5.54v7.24h-4V823.78h4Z"/><path d="M719.29,823.37a9,9,0,0,1,3.13.53,6.57,6.57,0,0,1,2.51,1.61,9,9,0,0,1,2.35,6.6,8.85,8.85,0,0,1-2.35,6.52,7.44,7.44,0,0,1-5.64,2.18,7.68,7.68,0,0,1-5.71-2.18,8.79,8.79,0,0,1-2.35-6.52,8.9,8.9,0,0,1,2.35-6.6A7.69,7.69,0,0,1,719.29,823.37Zm4,8.7a6.31,6.31,0,0,0-1-3.92,3.38,3.38,0,0,0-2.84-1.31,3.76,3.76,0,0,0-3,1.31,5.77,5.77,0,0,0-1.15,3.92,6.25,6.25,0,0,0,1,3.93,3.44,3.44,0,0,0,2.84,1.31,3.78,3.78,0,0,0,3-1.31A5.78,5.78,0,0,0,723.27,832.07Z"/><path d="M746.73,826.94a5.66,5.66,0,0,1,5.61-3.57,5.58,5.58,0,0,1,4.59,2,8.11,8.11,0,0,1,1.56,5.3v9.65h-4v-9.65a3.89,3.89,0,0,0-.88-2.77,3.27,3.27,0,0,0-2.48-.94,3.12,3.12,0,0,0-2.62,1.4,7.47,7.47,0,0,0-1.09,4.21v7.75h-4v-9.65a3.93,3.93,0,0,0-.88-2.77A3.28,3.28,0,0,0,740,827a3.41,3.41,0,0,0-2.73,1.43,7,7,0,0,0-1.21,4.29v7.64h-4V823.81h3.5l.44,2.86a5.46,5.46,0,0,1,5.24-3.3,6,6,0,0,1,3.45,1A5.8,5.8,0,0,1,746.73,826.94Z"/><path d="M374.07,887.14H385v2.19H371.7v-2.79a5.36,5.36,0,0,1,2.52-4.89,11.62,11.62,0,0,1,1.8-.9l3.72-1.5q2.88-1.12,2.88-3.75a3.05,3.05,0,0,0-1-2.35,3.92,3.92,0,0,0-2.77-.92A5.23,5.23,0,0,0,376,873a3,3,0,0,0-1.31,2.25H372a4.76,4.76,0,0,1,2-3.77,7.85,7.85,0,0,1,4.7-1.33,6.86,6.86,0,0,1,4.66,1.57,4.89,4.89,0,0,1,1.8,3.85A5.36,5.36,0,0,1,384,879.2a8.45,8.45,0,0,1-3.26,2.16l-3.81,1.52a6.17,6.17,0,0,0-2.14,1.37,2.84,2.84,0,0,0-.71,2Z"/><path d="M396.12,870.13a6.5,6.5,0,0,1,5.4,2.52q2,2.52,2,7.25t-2,7.24a7.07,7.07,0,0,1-10.81,0c-1.33-1.65-2-4.08-2-7.27s.67-5.61,2-7.27A6.54,6.54,0,0,1,396.12,870.13ZM401,879.9a10.47,10.47,0,0,0-1.26-5.64,4.41,4.41,0,0,0-7.35,0,13.25,13.25,0,0,0,0,11.28,4.43,4.43,0,0,0,7.35,0A10.47,10.47,0,0,0,401,879.9Z"/><path d="M413.94,870.13a6.5,6.5,0,0,1,5.4,2.52q2,2.52,2,7.25t-2,7.24a7.07,7.07,0,0,1-10.81,0c-1.33-1.65-2-4.08-2-7.27s.67-5.61,2-7.27A6.54,6.54,0,0,1,413.94,870.13Zm4.92,9.77a10.47,10.47,0,0,0-1.26-5.64,4.41,4.41,0,0,0-7.35,0,13.25,13.25,0,0,0,0,11.28,4.43,4.43,0,0,0,7.35,0A10.47,10.47,0,0,0,418.86,879.9Z"/><path d="M427.11,887.14h10.95v2.19H424.74v-2.79a5.36,5.36,0,0,1,2.52-4.89,11.62,11.62,0,0,1,1.8-.9l3.72-1.5q2.88-1.12,2.88-3.75a3.05,3.05,0,0,0-1-2.35,3.92,3.92,0,0,0-2.77-.92A5.23,5.23,0,0,0,429,873a3,3,0,0,0-1.31,2.25h-2.61a4.76,4.76,0,0,1,2-3.77,7.85,7.85,0,0,1,4.7-1.33,6.86,6.86,0,0,1,4.66,1.57,4.89,4.89,0,0,1,1.8,3.85A5.36,5.36,0,0,1,437,879.2a8.45,8.45,0,0,1-3.26,2.16L430,882.88a6.17,6.17,0,0,0-2.14,1.37,2.84,2.84,0,0,0-.71,2Z"/><path d="M384.48,489.67a4.82,4.82,0,0,1-4.89,3.57,7.57,7.57,0,0,1-5.95-2.64,10.38,10.38,0,0,1-2.33-7.11,9.84,9.84,0,0,1,2.54-7.11,8.39,8.39,0,0,1,6.31-2.64,8.07,8.07,0,0,1,3.89.9,7.67,7.67,0,0,1,2.86,2.88l-2.28.78a5.73,5.73,0,0,0-4.56-2.43,5.6,5.6,0,0,0-4.42,2.13,8.23,8.23,0,0,0-1.82,5.53,8.89,8.89,0,0,0,1.56,5.48,5,5,0,0,0,4.2,2.07,4.5,4.5,0,0,0,3.48-1.44,6.11,6.11,0,0,0,1.32-4.26v-.06l-4.74-.18v-1.56h7.05v9.33h-1.92Z"/><path d="M398,480.58q-3.39,0-3.51,5.34v7h-2.37V478.54h2.37v2.76q1.08-3,3.81-3a5,5,0,0,1,1.65.27l-.12,2.31A5.75,5.75,0,0,0,398,480.58Z"/><path d="M412.47,483.61a3.94,3.94,0,0,0-.81-2.79,3.11,3.11,0,0,0-2.35-.84,4.5,4.5,0,0,0-2.49.61,2.15,2.15,0,0,0-.95,1.94h-2.61q0-3.3,3.54-4.08a10.78,10.78,0,0,1,2.34-.24,6,6,0,0,1,4.17,1.35,5.25,5.25,0,0,1,1.5,4.11v9.24h-2l-.24-2.4a4.83,4.83,0,0,1-4.77,2.73,5.23,5.23,0,0,1-3.7-1.29,4.2,4.2,0,0,1-1.4-3.21,3.46,3.46,0,0,1,1.55-3,6.55,6.55,0,0,1,3.85-1.08,12.56,12.56,0,0,1,4.41.78Zm0,3.33a14,14,0,0,0-3.72-.6,5.14,5.14,0,0,0-2.58.57,1.93,1.93,0,0,0-1,1.8q0,2.7,3.06,2.7a4.09,4.09,0,0,0,3-1.25A4.35,4.35,0,0,0,412.47,486.94Z"/><path d="M421.16,479.26a7.06,7.06,0,0,1,4.09-1.05,6.66,6.66,0,0,1,4,1.08A3.44,3.44,0,0,1,430.8,482h-2.31q-.27-1.95-3.3-1.95a3.44,3.44,0,0,0-2.26.66,1.86,1.86,0,0,0-.8,1.42,1.65,1.65,0,0,0,.6,1.29,5.19,5.19,0,0,0,1.92.92l2.88,1a7.45,7.45,0,0,1,2.81,1.45,3.11,3.11,0,0,1,1,2.43,3.54,3.54,0,0,1-1.59,2.79,7,7,0,0,1-4.44,1.25,6.92,6.92,0,0,1-4.44-1.28,4.27,4.27,0,0,1-1.68-3.28h2.28a2.39,2.39,0,0,0,1.1,2,5.32,5.32,0,0,0,5.17,0,1.89,1.89,0,0,0,1-1.58,1.67,1.67,0,0,0-.6-1.39,5.47,5.47,0,0,0-1.95-.84l-2.79-.93q-3.75-1.11-3.75-3.9A3.27,3.27,0,0,1,421.16,479.26Z"/><path d="M436.94,479.26a7.06,7.06,0,0,1,4.09-1.05,6.66,6.66,0,0,1,4,1.08,3.44,3.44,0,0,1,1.51,2.73h-2.31q-.27-1.95-3.3-1.95a3.44,3.44,0,0,0-2.26.66,1.86,1.86,0,0,0-.8,1.42,1.65,1.65,0,0,0,.6,1.29,5.19,5.19,0,0,0,1.92.92l2.88,1a7.45,7.45,0,0,1,2.81,1.45,3.11,3.11,0,0,1,1,2.43A3.54,3.54,0,0,1,445.5,492a7,7,0,0,1-4.44,1.25,6.92,6.92,0,0,1-4.44-1.28,4.27,4.27,0,0,1-1.68-3.28h2.28a2.39,2.39,0,0,0,1.1,2,5.32,5.32,0,0,0,5.17,0,1.89,1.89,0,0,0,1-1.58,1.67,1.67,0,0,0-.6-1.39,5.47,5.47,0,0,0-2-.84l-2.79-.93q-3.75-1.11-3.75-3.9A3.27,3.27,0,0,1,436.94,479.26Z"/><path d="M452,472.48h2.37v20.43H452Z"/><path d="M469.23,483.61a3.94,3.94,0,0,0-.81-2.79,3.11,3.11,0,0,0-2.35-.84,4.5,4.5,0,0,0-2.49.61,2.15,2.15,0,0,0-.95,1.94H460q0-3.3,3.54-4.08a10.78,10.78,0,0,1,2.34-.24,6,6,0,0,1,4.17,1.35,5.25,5.25,0,0,1,1.5,4.11v9.24h-2l-.24-2.4a4.83,4.83,0,0,1-4.77,2.73,5.23,5.23,0,0,1-3.7-1.29,4.2,4.2,0,0,1-1.4-3.21,3.46,3.46,0,0,1,1.55-3,6.55,6.55,0,0,1,3.85-1.08,12.56,12.56,0,0,1,4.41.78Zm0,3.33a14,14,0,0,0-3.72-.6,5.14,5.14,0,0,0-2.58.57,1.93,1.93,0,0,0-1,1.8q0,2.7,3.06,2.7a4.09,4.09,0,0,0,3-1.25A4.35,4.35,0,0,0,469.23,486.94Z"/><path d="M479.43,481.33a5.4,5.4,0,0,1,8.81-1.44,6.87,6.87,0,0,1,1.42,4.59v8.43h-2.34v-8.43a4.44,4.44,0,0,0-1-3.12,3.61,3.61,0,0,0-2.78-1.05,3.48,3.48,0,0,0-2.91,1.47,6.91,6.91,0,0,0-1.17,4.08v7.05h-2.37V478.57h2Z"/><path d="M504.63,480.7v-8.22H507v20.43h-1.92l-.3-2.4a4.93,4.93,0,0,1-1.83,2,4.72,4.72,0,0,1-2.49.69,5.84,5.84,0,0,1-4.57-2.1,8,8,0,0,1-1.85-5.48,7.83,7.83,0,0,1,1.82-5.41,5.88,5.88,0,0,1,4.59-2A4.59,4.59,0,0,1,504.63,480.7Zm-4.08-.39a3.61,3.61,0,0,0-2.92,1.47,7.08,7.08,0,0,0,0,7.87,3.6,3.6,0,0,0,2.88,1.49,4,4,0,0,0,2.87-1.13,4.14,4.14,0,0,0,1.24-3v-2.34a4.3,4.3,0,0,0-1.17-3.18A4,4,0,0,0,500.55,480.31Z"/><path d="M512,492.61a1.32,1.32,0,0,1-.45-1.05,1.49,1.49,0,0,1,.47-1.11,1.82,1.82,0,0,1,1.32-.45,1.78,1.78,0,0,1,1.42.67,2.55,2.55,0,0,1,.57,1.7,3.93,3.93,0,0,1-.66,2.08,4.73,4.73,0,0,1-2,1.73l-1.77-.87a3.85,3.85,0,0,0,2.25-2.25A2,2,0,0,1,512,492.61Z"/><path d="M535.89,480.7v-8.22h2.34v20.43h-1.92l-.3-2.4a4.93,4.93,0,0,1-1.83,2,4.72,4.72,0,0,1-2.49.69,5.84,5.84,0,0,1-4.57-2.1,8,8,0,0,1-1.85-5.48,7.83,7.83,0,0,1,1.82-5.41,5.88,5.88,0,0,1,4.59-2A4.59,4.59,0,0,1,535.89,480.7Zm-4.08-.39a3.61,3.61,0,0,0-2.92,1.47,7.08,7.08,0,0,0,0,7.87,3.6,3.6,0,0,0,2.88,1.49,4,4,0,0,0,2.87-1.13,4.14,4.14,0,0,0,1.24-3v-2.34a4.3,4.3,0,0,0-1.17-3.18A4,4,0,0,0,531.81,480.31Z"/><path d="M549.27,491.32q3,0,3.39-2.61h2.43a4.91,4.91,0,0,1-1.9,3.34,6.34,6.34,0,0,1-3.92,1.19,5.93,5.93,0,0,1-4.68-2.06,8,8,0,0,1-1.8-5.47,7.91,7.91,0,0,1,1.82-5.46,6.15,6.15,0,0,1,4.83-2,5,5,0,0,1,4.5,2.34,8.28,8.28,0,0,1,1,5.7h-9.81a5.85,5.85,0,0,0,1.08,3.64A3.59,3.59,0,0,0,549.27,491.32ZM551,480.46a4,4,0,0,0-4.57.88,5.47,5.47,0,0,0-1.25,3.11h7.65Q552.84,481.45,551,480.46Z"/><path d="M560.54,479.26a7.06,7.06,0,0,1,4.09-1.05,6.66,6.66,0,0,1,4,1.08,3.44,3.44,0,0,1,1.51,2.73h-2.31q-.27-1.95-3.3-1.95a3.44,3.44,0,0,0-2.26.66,1.86,1.86,0,0,0-.8,1.42,1.65,1.65,0,0,0,.6,1.29,5.19,5.19,0,0,0,1.92.92l2.88,1a7.45,7.45,0,0,1,2.81,1.45,3.11,3.11,0,0,1,1,2.43A3.54,3.54,0,0,1,569.1,492a7,7,0,0,1-4.44,1.25,6.92,6.92,0,0,1-4.44-1.28,4.27,4.27,0,0,1-1.68-3.28h2.28a2.39,2.39,0,0,0,1.1,2,5.32,5.32,0,0,0,5.17,0,1.89,1.89,0,0,0,1-1.58,1.67,1.67,0,0,0-.6-1.39,5.47,5.47,0,0,0-2-.84l-2.79-.93q-3.75-1.11-3.75-3.9A3.27,3.27,0,0,1,560.54,479.26Z"/><path d="M580.5,491.32q3,0,3.39-2.61h2.43a4.91,4.91,0,0,1-1.9,3.34,6.34,6.34,0,0,1-3.92,1.19,5.93,5.93,0,0,1-4.68-2.06,8,8,0,0,1-1.8-5.47,7.91,7.91,0,0,1,1.82-5.46,6.15,6.15,0,0,1,4.83-2,5,5,0,0,1,4.5,2.34,8.28,8.28,0,0,1,1,5.7h-9.81a5.85,5.85,0,0,0,1.08,3.64A3.59,3.59,0,0,0,580.5,491.32Zm1.74-10.86a4,4,0,0,0-4.57.88,5.47,5.47,0,0,0-1.25,3.11h7.65Q584.07,481.45,582.24,480.46Z"/><path d="M596.85,480.58q-3.39,0-3.51,5.34v7H591V478.54h2.37v2.76q1.08-3,3.81-3a5,5,0,0,1,1.65.27l-.12,2.31A5.75,5.75,0,0,0,596.85,480.58Z"/><path d="M609.93,492.49a6.33,6.33,0,0,1-4.71.51,3.32,3.32,0,0,1-2.16-2,4.45,4.45,0,0,1-.33-1.8v-8.82h-2.31v-1.8h2.31v-4h2.34v4h4.5v1.8h-4.5v8.79q0,2.19,2,2.19a6.92,6.92,0,0,0,2.49-.54Z"/><path d="M375.21,335.46v8.74l8.43-8.74h3.27l-8.25,8.5,8.76,10.37h-3.06l-7.29-8.72-1.86,1.92v6.8h-2.4V335.46Z"/><path d="M400,345a3.92,3.92,0,0,0-.81-2.79,3.11,3.11,0,0,0-2.35-.85,4.5,4.5,0,0,0-2.49.62,2.15,2.15,0,0,0-.95,1.94h-2.61c0-2.21,1.18-3.56,3.54-4.08a10.18,10.18,0,0,1,2.34-.25A6,6,0,0,1,400.8,341a5.25,5.25,0,0,1,1.5,4.11v9.24h-2l-.24-2.39a4.84,4.84,0,0,1-4.77,2.73,5.23,5.23,0,0,1-3.7-1.29,4.2,4.2,0,0,1-1.4-3.21,3.44,3.44,0,0,1,1.55-3,6.55,6.55,0,0,1,3.85-1.09,12.57,12.57,0,0,1,4.41.79Zm0,3.33a13.59,13.59,0,0,0-3.72-.6,5.25,5.25,0,0,0-2.58.56,1.93,1.93,0,0,0-1,1.8c0,1.81,1,2.7,3.06,2.7a4.08,4.08,0,0,0,3-1.24A4.35,4.35,0,0,0,400,348.37Z"/><path d="M406.44,352.42l8.43-10.5h-8.43V340h11.1v1.92l-8.31,10.5h8.31v1.91h-11.1Z"/><path d="M431,345a3.92,3.92,0,0,0-.81-2.79,3.11,3.11,0,0,0-2.35-.85,4.5,4.5,0,0,0-2.49.62,2.15,2.15,0,0,0-.95,1.94H421.8c0-2.21,1.18-3.56,3.54-4.08a10.18,10.18,0,0,1,2.34-.25,6,6,0,0,1,4.17,1.35,5.25,5.25,0,0,1,1.5,4.11v9.24h-2l-.24-2.39a4.84,4.84,0,0,1-4.77,2.73,5.23,5.23,0,0,1-3.7-1.29,4.2,4.2,0,0,1-1.4-3.21,3.44,3.44,0,0,1,1.55-3,6.55,6.55,0,0,1,3.85-1.09,12.57,12.57,0,0,1,4.41.79Zm0,3.33a13.59,13.59,0,0,0-3.72-.6,5.25,5.25,0,0,0-2.58.56,1.93,1.93,0,0,0-1,1.8c0,1.81,1,2.7,3.06,2.7a4.08,4.08,0,0,0,3-1.24A4.35,4.35,0,0,0,431,348.37Z"/><path d="M443.22,346.75l-1.92,1.55v6h-2.37V333.9h2.37v11.89l6.93-5.79h3.3l-6.6,5.37,6.93,9H449Z"/><path d="M458.22,342.63a4.92,4.92,0,0,1,4.77-3,5,5,0,0,1,4,1.68,6.89,6.89,0,0,1,1.42,4.59v8.43h-2.34V345.9a4.43,4.43,0,0,0-1-3.11,3.62,3.62,0,0,0-2.81-1.06,3.46,3.46,0,0,0-2.94,1.55,7.22,7.22,0,0,0-1.11,4.27v6.78h-2.37V333.9h2.37Z"/><path d="M474.74,340.69a7.06,7.06,0,0,1,4.09-1.06,6.73,6.73,0,0,1,4,1.08,3.47,3.47,0,0,1,1.51,2.74h-2.31c-.18-1.31-1.28-1.95-3.3-1.95a3.44,3.44,0,0,0-2.26.65,1.9,1.9,0,0,0-.8,1.43,1.65,1.65,0,0,0,.6,1.29,5.19,5.19,0,0,0,1.92.92l2.88,1a7.45,7.45,0,0,1,2.81,1.45,3.11,3.11,0,0,1,1,2.43,3.54,3.54,0,0,1-1.59,2.79,7,7,0,0,1-4.44,1.25,6.92,6.92,0,0,1-4.44-1.28,4.27,4.27,0,0,1-1.68-3.28H475a2.4,2.4,0,0,0,1.1,2,5.36,5.36,0,0,0,5.17,0,1.86,1.86,0,0,0,1-1.57,1.7,1.7,0,0,0-.6-1.4,5.85,5.85,0,0,0-1.95-.84L477,347.4q-3.75-1.09-3.75-3.9A3.26,3.26,0,0,1,474.74,340.69Z"/><path d="M497.25,353.92a6.37,6.37,0,0,1-4.71.5,3.28,3.28,0,0,1-2.16-2,4.45,4.45,0,0,1-.33-1.8v-8.83h-2.31V340h2.31v-4h2.34v4h4.5v1.79h-4.5v8.79c0,1.46.68,2.2,2,2.2a7,7,0,0,0,2.49-.55Z"/><path d="M509.91,345a3.92,3.92,0,0,0-.81-2.79,3.11,3.11,0,0,0-2.35-.85,4.5,4.5,0,0,0-2.49.62,2.15,2.15,0,0,0-.95,1.94H500.7c0-2.21,1.18-3.56,3.54-4.08a10.18,10.18,0,0,1,2.34-.25,6,6,0,0,1,4.17,1.35,5.25,5.25,0,0,1,1.5,4.11v9.24h-2l-.24-2.39a4.84,4.84,0,0,1-4.77,2.73,5.23,5.23,0,0,1-3.7-1.29,4.2,4.2,0,0,1-1.4-3.21,3.44,3.44,0,0,1,1.55-3,6.55,6.55,0,0,1,3.85-1.09,12.57,12.57,0,0,1,4.41.79Zm0,3.33a13.59,13.59,0,0,0-3.72-.6,5.25,5.25,0,0,0-2.58.56,1.93,1.93,0,0,0-1,1.8c0,1.81,1,2.7,3.06,2.7a4.08,4.08,0,0,0,3-1.24A4.35,4.35,0,0,0,509.91,348.37Z"/><path d="M520.11,342.75a5.4,5.4,0,0,1,8.81-1.44,6.89,6.89,0,0,1,1.42,4.59v8.43H528V345.9a4.43,4.43,0,0,0-1-3.11,3.58,3.58,0,0,0-2.78-1.06,3.46,3.46,0,0,0-2.91,1.48,6.89,6.89,0,0,0-1.17,4.08v7H517.8V340h2Z"/><path d="M534.9,354a1.33,1.33,0,0,1-.45-1.06,1.45,1.45,0,0,1,.47-1.1,1.82,1.82,0,0,1,1.32-.46,1.78,1.78,0,0,1,1.42.68,2.54,2.54,0,0,1,.57,1.69,4,4,0,0,1-.66,2.09,4.73,4.73,0,0,1-2,1.73l-1.77-.88a3.85,3.85,0,0,0,2.25-2.25A1.94,1.94,0,0,1,534.9,354Z"/><path d="M562.5,340.87a5.55,5.55,0,0,1-1.24,3.77,6,6,0,0,1-3.68,1.86l5.4,7.83h-3.06l-4.89-7.7h-3.3v7.7h-2.37V335.46h6.57a7,7,0,0,1,4.88,1.54A5,5,0,0,1,562.5,340.87Zm-6.75,4.1a4.54,4.54,0,0,0,3.23-1,3.58,3.58,0,0,0,1.09-2.73,3.53,3.53,0,0,0-1.06-2.7,4.33,4.33,0,0,0-3.08-1h-4.2V345Z"/><path d="M577.5,351.48a4.94,4.94,0,0,1-4.77,3.13,5.59,5.59,0,0,1-3.91-1.36,5.35,5.35,0,0,1-1.49-4.17V340h2.37v8.94q0,3.64,3.36,3.64a3.89,3.89,0,0,0,3.17-1.5,6.19,6.19,0,0,0,1.27-3.84V340h2.37v14.37H577.5Z"/><path d="M586.69,340.69a7.09,7.09,0,0,1,4.1-1.06,6.7,6.7,0,0,1,4,1.08,3.48,3.48,0,0,1,1.52,2.74H594c-.18-1.31-1.28-1.95-3.3-1.95a3.47,3.47,0,0,0-2.27.65,1.88,1.88,0,0,0-.79,1.43,1.65,1.65,0,0,0,.6,1.29,5.19,5.19,0,0,0,1.92.92l2.88,1a7.53,7.53,0,0,1,2.81,1.45,3.15,3.15,0,0,1,1,2.43,3.54,3.54,0,0,1-1.59,2.79,7,7,0,0,1-4.44,1.25,6.92,6.92,0,0,1-4.44-1.28,4.27,4.27,0,0,1-1.68-3.28H587a2.39,2.39,0,0,0,1.09,2,5.38,5.38,0,0,0,5.18,0,1.86,1.86,0,0,0,1-1.57,1.7,1.7,0,0,0-.6-1.4,5.85,5.85,0,0,0-1.95-.84l-2.79-.93q-3.75-1.09-3.75-3.9A3.25,3.25,0,0,1,586.69,340.69Z"/><path d="M602.47,340.69a7.09,7.09,0,0,1,4.1-1.06,6.7,6.7,0,0,1,4,1.08,3.48,3.48,0,0,1,1.52,2.74h-2.31c-.18-1.31-1.28-1.95-3.3-1.95a3.47,3.47,0,0,0-2.27.65,1.88,1.88,0,0,0-.79,1.43,1.65,1.65,0,0,0,.6,1.29,5.19,5.19,0,0,0,1.92.92l2.88,1a7.4,7.4,0,0,1,2.8,1.45,3.12,3.12,0,0,1,1,2.43,3.54,3.54,0,0,1-1.59,2.79,7,7,0,0,1-4.44,1.25,6.92,6.92,0,0,1-4.44-1.28,4.27,4.27,0,0,1-1.68-3.28h2.28a2.39,2.39,0,0,0,1.09,2,5.38,5.38,0,0,0,5.18,0,1.86,1.86,0,0,0,1-1.57,1.7,1.7,0,0,0-.6-1.4,5.85,5.85,0,0,0-2-.84l-2.79-.93q-3.75-1.09-3.75-3.9A3.25,3.25,0,0,1,602.47,340.69Z"/><path d="M618.81,336.61a1.54,1.54,0,0,1-1.13-.41,1.66,1.66,0,0,1,0-2.16,1.54,1.54,0,0,1,1.13-.41A1.62,1.62,0,0,1,620,334a1.55,1.55,0,0,1,0,2.16A1.62,1.62,0,0,1,618.81,336.61ZM617.64,340H620v14.37h-2.37Z"/><path d="M635.34,345a3.92,3.92,0,0,0-.81-2.79,3.14,3.14,0,0,0-2.36-.85,4.5,4.5,0,0,0-2.49.62,2.15,2.15,0,0,0-.94,1.94h-2.61c0-2.21,1.18-3.56,3.54-4.08a10.18,10.18,0,0,1,2.34-.25,6,6,0,0,1,4.17,1.35,5.25,5.25,0,0,1,1.5,4.11v9.24h-2l-.24-2.39a4.84,4.84,0,0,1-4.77,2.73,5.25,5.25,0,0,1-3.71-1.29,4.19,4.19,0,0,1-1.39-3.21,3.43,3.43,0,0,1,1.54-3,6.59,6.59,0,0,1,3.86-1.09,12.57,12.57,0,0,1,4.41.79Zm0,3.33a13.59,13.59,0,0,0-3.72-.6,5.25,5.25,0,0,0-2.58.56,1.93,1.93,0,0,0-1,1.8c0,1.81,1,2.7,3.06,2.7a4.06,4.06,0,0,0,3-1.24A4.36,4.36,0,0,0,635.34,348.37Z"/><path d="M642.24,354a1.33,1.33,0,0,1-.45-1.06,1.44,1.44,0,0,1,.46-1.1,1.82,1.82,0,0,1,1.32-.46,1.8,1.8,0,0,1,1.43.68,2.54,2.54,0,0,1,.57,1.69,4,4,0,0,1-.66,2.09,4.73,4.73,0,0,1-2,1.73l-1.77-.88a3.85,3.85,0,0,0,2.25-2.25A1.94,1.94,0,0,1,642.24,354Z"/><path d="M660.09,335.46l6.36,12.79,6.3-12.79h3.33v18.87h-2.37v-15.5L667.23,352h-1.59l-6.57-13.34v15.71H656.7V335.46Z"/><path d="M687.3,339.63a6.39,6.39,0,0,1,4.84,1.95,7.84,7.84,0,0,1,1.85,5.59,7.74,7.74,0,0,1-1.85,5.54,7,7,0,0,1-9.69,0,7.74,7.74,0,0,1-1.84-5.54,7.83,7.83,0,0,1,1.84-5.59A6.41,6.41,0,0,1,687.3,339.63Zm4.29,7.52a6.62,6.62,0,0,0-1.08-4,3.71,3.71,0,0,0-3.17-1.46,3.77,3.77,0,0,0-3.19,1.46,6.49,6.49,0,0,0-1.11,4,6.76,6.76,0,0,0,1.05,4,3.61,3.61,0,0,0,3.13,1.46,3.87,3.87,0,0,0,3.23-1.46A6.36,6.36,0,0,0,691.59,347.15Z"/><path d="M700.8,342.75a5.39,5.39,0,0,1,8.8-1.44A6.89,6.89,0,0,1,711,345.9v8.43h-2.34V345.9a4.43,4.43,0,0,0-1-3.11,3.56,3.56,0,0,0-2.77-1.06,3.46,3.46,0,0,0-2.91,1.48,6.89,6.89,0,0,0-1.17,4.08v7h-2.37V340h2Z"/><path d="M717.21,353.88a2.82,2.82,0,0,1-1.8-2.67,2.24,2.24,0,0,1,.7-1.63,3.56,3.56,0,0,1,1.76-.95,4.79,4.79,0,0,1-1.62-3.77,4.74,4.74,0,0,1,1.66-3.78,5.86,5.86,0,0,1,4-1.45,6.8,6.8,0,0,1,3.87,1.08,4,4,0,0,1,1.27-2.54,4,4,0,0,1,2.81-1l-.21,2.33c-1.76,0-2.68.75-2.76,2.23a4.72,4.72,0,0,1,1,3.09,4.85,4.85,0,0,1-1.67,3.79,6,6,0,0,1-4.15,1.48,6.44,6.44,0,0,1-3-.68A2.23,2.23,0,0,0,718,350a1.53,1.53,0,0,0-.48,1.19q0,1.59,2.64,1.59h5.58a5.29,5.29,0,0,1,3.18.85,2.79,2.79,0,0,1,1.17,2.39,4.9,4.9,0,0,1-2.3,4,9.44,9.44,0,0,1-5.8,1.71,10.06,10.06,0,0,1-5.52-1.3,3.83,3.83,0,0,1-2-3.28,2.9,2.9,0,0,1,.76-2.1A4.19,4.19,0,0,1,717.21,353.88Zm-.45,3.16a2.35,2.35,0,0,0,1.24,2,6.92,6.92,0,0,0,3.78.83,7.65,7.65,0,0,0,4.23-1.1,3.1,3.1,0,0,0,1.7-2.56,1.63,1.63,0,0,0-.5-1.19,2.05,2.05,0,0,0-1.51-.5h-5.79a3.88,3.88,0,0,0-2.34.74A2.24,2.24,0,0,0,716.76,357Zm8.82-12.2a3.5,3.5,0,0,0-.93-2.52,3.85,3.85,0,0,0-5.13,0,3.53,3.53,0,0,0-.93,2.54,3.6,3.6,0,0,0,.94,2.56,3.36,3.36,0,0,0,2.57,1,3.28,3.28,0,0,0,2.55-1A3.65,3.65,0,0,0,725.58,344.84Z"/><path d="M738.72,339.63a6.39,6.39,0,0,1,4.84,1.95,7.84,7.84,0,0,1,1.85,5.59,7.74,7.74,0,0,1-1.85,5.54,7,7,0,0,1-9.69,0,7.74,7.74,0,0,1-1.84-5.54,7.83,7.83,0,0,1,1.84-5.59A6.41,6.41,0,0,1,738.72,339.63Zm4.29,7.52a6.62,6.62,0,0,0-1.08-4,3.71,3.71,0,0,0-3.17-1.46,3.77,3.77,0,0,0-3.19,1.46,6.49,6.49,0,0,0-1.11,4,6.76,6.76,0,0,0,1,4,3.61,3.61,0,0,0,3.13,1.46,3.87,3.87,0,0,0,3.23-1.46A6.36,6.36,0,0,0,743,347.15Z"/><path d="M749.94,333.9h2.37v20.43h-2.37Z"/><path d="M759.66,336.61a1.54,1.54,0,0,1-1.13-.41,1.66,1.66,0,0,1,0-2.16,1.54,1.54,0,0,1,1.13-.41,1.62,1.62,0,0,1,1.15.41,1.55,1.55,0,0,1,0,2.16A1.62,1.62,0,0,1,759.66,336.61ZM758.49,340h2.37v14.37h-2.37Z"/><path d="M776.19,345a3.92,3.92,0,0,0-.81-2.79,3.14,3.14,0,0,0-2.36-.85,4.5,4.5,0,0,0-2.49.62,2.15,2.15,0,0,0-.94,1.94H767c0-2.21,1.18-3.56,3.54-4.08a10.18,10.18,0,0,1,2.34-.25A6,6,0,0,1,777,341a5.25,5.25,0,0,1,1.5,4.11v9.24h-2l-.24-2.39a4.84,4.84,0,0,1-4.77,2.73,5.25,5.25,0,0,1-3.71-1.29,4.19,4.19,0,0,1-1.39-3.21,3.43,3.43,0,0,1,1.54-3,6.59,6.59,0,0,1,3.86-1.09,12.57,12.57,0,0,1,4.41.79Zm0,3.33a13.59,13.59,0,0,0-3.72-.6,5.25,5.25,0,0,0-2.58.56,1.93,1.93,0,0,0-1,1.8c0,1.81,1,2.7,3.06,2.7a4.06,4.06,0,0,0,3-1.24A4.36,4.36,0,0,0,776.19,348.37Z"/><path d="M344.48,298.83a5.41,5.41,0,0,1-5.48,4,8.6,8.6,0,0,1-6.83-3.13,12.17,12.17,0,0,1-2.79-8.26,12,12,0,0,1,3-8.5,9.75,9.75,0,0,1,7.45-3.09,9.43,9.43,0,0,1,5.18,1.34,8.88,8.88,0,0,1,3.29,4.23l-4.12,1q-1.8-2.89-4.55-2.9a5.11,5.11,0,0,0-4.19,2.15,9.1,9.1,0,0,0-1.73,5.81,9.26,9.26,0,0,0,1.56,5.58,5.11,5.11,0,0,0,7.65.71,5.24,5.24,0,0,0,1.43-3.91v-.13l-5-.11V291h8.8v11.35h-3.26Z"/><path d="M366.76,290.3a9,9,0,0,1,.43,2.62,15.37,15.37,0,0,1-.14,2.14H356.38a5.7,5.7,0,0,0,1,3.26,3.22,3.22,0,0,0,2.79,1.26,2.65,2.65,0,0,0,3-2.18h4a5.92,5.92,0,0,1-2.27,3.91,7.51,7.51,0,0,1-4.73,1.5,7.14,7.14,0,0,1-5.47-2.38,9,9,0,0,1-2.28-6.36,8.93,8.93,0,0,1,2.28-6.39,7.19,7.19,0,0,1,5.47-2.31,6.41,6.41,0,0,1,5.34,2.41A7.48,7.48,0,0,1,366.76,290.3Zm-6.58-1.74a3.31,3.31,0,0,0-2.65,1.11,5,5,0,0,0-1.12,2.84h7c0-1.79-.57-3-1.7-3.61A3.4,3.4,0,0,0,360.18,288.56Z"/><path d="M378.48,285.37a8.89,8.89,0,0,1,3.12.53,6.53,6.53,0,0,1,2.52,1.61,9,9,0,0,1,2.35,6.6,8.89,8.89,0,0,1-2.35,6.52,7.46,7.46,0,0,1-5.64,2.18,7.72,7.72,0,0,1-5.72-2.18,8.82,8.82,0,0,1-2.34-6.52,8.94,8.94,0,0,1,2.34-6.6A7.73,7.73,0,0,1,378.48,285.37Zm4,8.7a6.31,6.31,0,0,0-1-3.92,3.36,3.36,0,0,0-2.83-1.31,3.76,3.76,0,0,0-3,1.31,5.77,5.77,0,0,0-1.16,3.92,6.25,6.25,0,0,0,1,3.93,3.44,3.44,0,0,0,2.84,1.31,3.78,3.78,0,0,0,3-1.31A5.78,5.78,0,0,0,382.45,294.07Z"/><path d="M392.65,295.57a5.36,5.36,0,0,1-2-4.25,5.27,5.27,0,0,1,2.11-4.35,7.33,7.33,0,0,1,4.67-1.6,8.87,8.87,0,0,1,4.4,1,4.5,4.5,0,0,1,1.67-3.13,5.05,5.05,0,0,1,3.37-1.19l-.21,3.84c-2,0-3,.65-3,1.94a5.08,5.08,0,0,1,1.25,3.19,5.94,5.94,0,0,1-.57,2.74,5.5,5.5,0,0,1-1.57,1.85,7.67,7.67,0,0,1-5,1.63,8.6,8.6,0,0,1-3-.51,1.65,1.65,0,0,0-1.36,1.64c0,1,.86,1.53,2.59,1.53h5.54q5.64,0,5.64,3.94a5.61,5.61,0,0,1-.66,2.6,6.83,6.83,0,0,1-1.92,2.26,11.07,11.07,0,0,1-7,2.18A11.93,11.93,0,0,1,391,309.2a4.65,4.65,0,0,1-2.38-3.91,3.23,3.23,0,0,1,.94-2.43,4.42,4.42,0,0,1,2.46-1.14,3.53,3.53,0,0,1-2-3,2.78,2.78,0,0,1,.75-2A4.15,4.15,0,0,1,392.65,295.57Zm3.06,7.14c-2.13.09-3.19.89-3.19,2.41a2.11,2.11,0,0,0,1.34,1.86,6.9,6.9,0,0,0,3.18.69,10.79,10.79,0,0,0,2.87-.3,5.92,5.92,0,0,0,1.75-.82,2.93,2.93,0,0,0,1.53-2.45,1.31,1.31,0,0,0-.42-1,1.77,1.77,0,0,0-1.24-.39Zm5.21-11.44a3.28,3.28,0,0,0-.77-2.25,3,3,0,0,0-2.33-.86,2.89,2.89,0,0,0-3.19,3.11,3.21,3.21,0,0,0,.81,2.26,3.09,3.09,0,0,0,2.38.88,2.92,2.92,0,0,0,2.33-.88A3.33,3.33,0,0,0,400.92,291.27Z"/><path d="M415,289.08c1-2.38,2.49-3.58,4.48-3.58a5.83,5.83,0,0,1,1.47.24l-.07,4a9.37,9.37,0,0,0-1.87-.2c-2.68,0-4,1.85-4,5.54v7.24h-4V285.78h4Z"/><path d="M430.6,292.68a18.61,18.61,0,0,1,4.55.65v-1.64a4,4,0,0,0-.69-2.56,2.82,2.82,0,0,0-2.28-.84,4,4,0,0,0-2.43.63,2.09,2.09,0,0,0-.85,1.79h-4.39a4.46,4.46,0,0,1,2-4.08,10.38,10.38,0,0,1,5.56-1.26q5.1,0,6.6,3.57a7.46,7.46,0,0,1,.51,2.89v10.5h-3.51l-.3-2.2a5.32,5.32,0,0,1-4.9,2.68,7.25,7.25,0,0,1-5-1.56,4.91,4.91,0,0,1-1.63-3.79,4,4,0,0,1,1.8-3.54A8.54,8.54,0,0,1,430.6,292.68Zm4.55,3.2a14,14,0,0,0-3.74-.55c-2.17,0-3.26.73-3.26,2.18a2,2,0,0,0,.75,1.58,3.56,3.56,0,0,0,2.39.66,3.64,3.64,0,0,0,2.72-1.1A4,4,0,0,0,435.15,295.88Z"/><path d="M448.69,288.05a5.13,5.13,0,0,1,4.76-2.68,6.92,6.92,0,0,1,5.23,2.31,10,10,0,0,1,0,12.82,6.91,6.91,0,0,1-5.2,2.31A5.23,5.23,0,0,1,449,301v9.38h-4V285.81h3.3Zm4,11.12a4,4,0,0,0,1.48-.3,4,4,0,0,0,1.38-.95,5.37,5.37,0,0,0,1.36-3.83,5.54,5.54,0,0,0-1.18-3.76,3.65,3.65,0,0,0-2.85-1.36,4,4,0,0,0-2.76,1,3.74,3.74,0,0,0-1.13,2.77v3a3.24,3.24,0,0,0,1.12,2.58A3.74,3.74,0,0,0,452.73,299.17Z"/><path d="M469.76,288.5a5.38,5.38,0,0,1,5-3.13,5.69,5.69,0,0,1,4.81,2,8.43,8.43,0,0,1,1.55,5.3v9.65h-4v-9.65a3.89,3.89,0,0,0-.88-2.77,3.27,3.27,0,0,0-2.48-.94A3.41,3.41,0,0,0,471,290.4a7.09,7.09,0,0,0-1.21,4.29v7.64h-4V279h4Z"/><path d="M489,285.81l4,11.9,3.47-11.9h4.08l-6.32,19.52a10.11,10.11,0,0,1-2.4,4.25,5.12,5.12,0,0,1-3.59,1.29,9.9,9.9,0,0,1-4.42-1.09v-3.53a6.68,6.68,0,0,0,3.57,1.12,2.41,2.41,0,0,0,2-.95,7.63,7.63,0,0,0,1.24-2.49l.51-1.6-6.63-16.52Z"/><path d="M335,428.27v9.21h9.62v-9.21h4v22.06h-4V441H335v9.35h-4V428.27Z"/><path d="M360.39,440.68a18.75,18.75,0,0,1,4.56.65v-1.64a4,4,0,0,0-.7-2.56,2.82,2.82,0,0,0-2.28-.84,4,4,0,0,0-2.43.63,2.09,2.09,0,0,0-.85,1.79H354.3a4.48,4.48,0,0,1,2-4.08,10.38,10.38,0,0,1,5.56-1.26q5.1,0,6.6,3.57a7.46,7.46,0,0,1,.51,2.89v10.5h-3.5l-.31-2.2a5.32,5.32,0,0,1-4.9,2.68,7.25,7.25,0,0,1-5-1.56,4.91,4.91,0,0,1-1.63-3.79,4,4,0,0,1,1.8-3.54A8.54,8.54,0,0,1,360.39,440.68Zm4.56,3.2a14.11,14.11,0,0,0-3.74-.55c-2.18,0-3.27.73-3.27,2.18a2,2,0,0,0,.75,1.58,3.59,3.59,0,0,0,2.4.66,3.65,3.65,0,0,0,2.72-1.1A4.12,4.12,0,0,0,365,443.88Z"/><path d="M388.69,435.75a9.11,9.11,0,0,1,2.1,6.25,9.36,9.36,0,0,1-2.21,6.4,6.85,6.85,0,0,1-5.34,2.41,5.14,5.14,0,0,1-2.81-.81,5.57,5.57,0,0,1-2-2.52l-1,2.85h-2.61V427h4v8.87a5.15,5.15,0,0,1,4.67-2.51A6.62,6.62,0,0,1,388.69,435.75Zm-9.87,5.3v2.18a3.92,3.92,0,0,0,1.26,2.85,3.75,3.75,0,0,0,2.73,1.09,3.47,3.47,0,0,0,2.77-1.41,5.69,5.69,0,0,0,1.16-3.72,5.61,5.61,0,0,0-1.14-3.69,3.54,3.54,0,0,0-2.84-1.38,3.86,3.86,0,0,0-2.82,1.12A4,4,0,0,0,378.82,441.05Z"/><path d="M395.54,428.47a2.28,2.28,0,0,1,.65-1.71,2.52,2.52,0,0,1,1.84-.63,2.55,2.55,0,0,1,1.82.63,2.56,2.56,0,0,1,0,3.43,2.55,2.55,0,0,1-1.82.63,2.52,2.52,0,0,1-1.84-.63A2.29,2.29,0,0,1,395.54,428.47Zm.48,5.31h4v16.55h-4Z"/><path d="M416.15,449.93a10.43,10.43,0,0,1-3.54.88,7.35,7.35,0,0,1-2.26-.31,5.07,5.07,0,0,1-1.72-.91,4.89,4.89,0,0,1-1.56-3.84V436.5h-2.31v-2.69h2.31v-4.35h4v4.35h4.49v2.69h-4.49v9.11c0,1.36.65,2,1.94,2a8.2,8.2,0,0,0,2.55-.54Z"/><path d="M425.7,440.68a18.62,18.62,0,0,1,4.56.65v-1.64a3.89,3.89,0,0,0-.7-2.56,2.79,2.79,0,0,0-2.28-.84,4,4,0,0,0-2.43.63,2.12,2.12,0,0,0-.85,1.79h-4.38a4.47,4.47,0,0,1,2-4.08,10.38,10.38,0,0,1,5.56-1.26q5.1,0,6.6,3.57a7.46,7.46,0,0,1,.51,2.89v10.5h-3.5l-.31-2.2a5.3,5.3,0,0,1-4.89,2.68,7.27,7.27,0,0,1-5-1.56,4.91,4.91,0,0,1-1.63-3.79,4,4,0,0,1,1.8-3.54A8.57,8.57,0,0,1,425.7,440.68Zm4.56,3.2a14.11,14.11,0,0,0-3.74-.55c-2.18,0-3.27.73-3.27,2.18a2,2,0,0,0,.75,1.58,3.59,3.59,0,0,0,2.4.66,3.64,3.64,0,0,0,2.72-1.1A4.12,4.12,0,0,0,430.26,443.88Z"/><path d="M449.43,449.93a10.33,10.33,0,0,1-3.53.88,7.31,7.31,0,0,1-2.26-.31,5,5,0,0,1-1.72-.91,4.89,4.89,0,0,1-1.56-3.84V436.5H438v-2.69h2.32v-4.35h4v4.35h4.49v2.69h-4.49v9.11c0,1.36.64,2,1.94,2a8.31,8.31,0,0,0,2.55-.54Z"/><path d="M471.47,449.93a10.43,10.43,0,0,1-3.54.88,7.31,7.31,0,0,1-2.26-.31,5,5,0,0,1-1.72-.91,4.89,4.89,0,0,1-1.56-3.84V436.5h-2.31v-2.69h2.31v-4.35h4v4.35h4.49v2.69H466.4v9.11c0,1.36.65,2,1.94,2a8.31,8.31,0,0,0,2.55-.54Z"/><path d="M477.62,433.81l4,11.9,3.46-11.9h4.09l-6.33,19.52a10.11,10.11,0,0,1-2.4,4.25,5.09,5.09,0,0,1-3.58,1.29,9.84,9.84,0,0,1-4.42-1.09v-3.53a6.68,6.68,0,0,0,3.57,1.12,2.41,2.41,0,0,0,1.95-.95,7.43,7.43,0,0,0,1.24-2.49l.51-1.6-6.63-16.52Z"/><path d="M496.39,436.05a5.14,5.14,0,0,1,4.76-2.68,6.92,6.92,0,0,1,5.23,2.31,10,10,0,0,1,0,12.82,6.91,6.91,0,0,1-5.2,2.31,5.24,5.24,0,0,1-4.42-1.8v9.38h-4V433.81H496Zm4,11.12a4,4,0,0,0,1.48-.3,4,4,0,0,0,1.38-.95,5.37,5.37,0,0,0,1.36-3.83,5.59,5.59,0,0,0-1.17-3.76,3.68,3.68,0,0,0-2.86-1.36,4,4,0,0,0-2.75,1,3.71,3.71,0,0,0-1.14,2.77v3a3.24,3.24,0,0,0,1.12,2.58A3.74,3.74,0,0,0,500.43,447.17Z"/><path d="M526.26,438.3a9.31,9.31,0,0,1,.42,2.62,15.37,15.37,0,0,1-.14,2.14H515.87a5.7,5.7,0,0,0,1,3.26,3.24,3.24,0,0,0,2.79,1.26,2.65,2.65,0,0,0,3-2.18h4a6,6,0,0,1-2.28,3.91,7.49,7.49,0,0,1-4.73,1.5,7.15,7.15,0,0,1-5.47-2.38,9,9,0,0,1-2.28-6.36,8.93,8.93,0,0,1,2.28-6.39,7.19,7.19,0,0,1,5.47-2.31,6.41,6.41,0,0,1,5.34,2.41A7.69,7.69,0,0,1,526.26,438.3Zm-6.58-1.74a3.32,3.32,0,0,0-2.66,1.11,5,5,0,0,0-1.12,2.84h7c0-1.79-.57-3-1.7-3.61A3.39,3.39,0,0,0,519.68,436.56Z"/><path d="M342.54,597.36q-.54-2.9-4.08-2.9a4.57,4.57,0,0,0-2.7.7,2,2,0,0,0-1,1.68,2,2,0,0,0,.63,1.55,6,6,0,0,0,1.95,1l4.8,1.87a9.73,9.73,0,0,1,3.77,2.4,5.16,5.16,0,0,1,1.33,3.62,5.7,5.7,0,0,1-2.25,4.74,10.17,10.17,0,0,1-6.39,1.75,9.31,9.31,0,0,1-5.95-1.8,7,7,0,0,1-2.69-5.58h4a3.29,3.29,0,0,0,2.82,3.44,8.58,8.58,0,0,0,2.25.24,5,5,0,0,0,2.58-.7,2.12,2.12,0,0,0,1.19-1.87,2.4,2.4,0,0,0-.64-1.8,6.38,6.38,0,0,0-2.11-1.18l-4.39-1.73a11.64,11.64,0,0,1-3.91-2.31,4.9,4.9,0,0,1-1.36-3.68,5.17,5.17,0,0,1,2.14-4.35,9.48,9.48,0,0,1,5.9-1.66,8.67,8.67,0,0,1,5.75,1.71,7,7,0,0,1,2.33,4.82Z"/><path d="M352.5,591.47a2.28,2.28,0,0,1,.65-1.71,3,3,0,0,1,3.65,0,2.56,2.56,0,0,1,0,3.43,3,3,0,0,1-3.65,0A2.29,2.29,0,0,1,352.5,591.47Zm.48,5.31h4v16.55h-4Z"/><path d="M362.56,610.07l8.57-10h-8.57v-3.27h13v3.27l-8.29,10h8.29v3.26h-13Z"/><path d="M393.42,601.3a9.31,9.31,0,0,1,.42,2.62,15.47,15.47,0,0,1-.13,2.14H383a5.78,5.78,0,0,0,1,3.26,3.22,3.22,0,0,0,2.79,1.26,2.64,2.64,0,0,0,2.95-2.18h4.05a5.89,5.89,0,0,1-2.28,3.91,7.49,7.49,0,0,1-4.72,1.5,7.17,7.17,0,0,1-5.48-2.38,9,9,0,0,1-2.28-6.36,8.93,8.93,0,0,1,2.28-6.39,7.21,7.21,0,0,1,5.48-2.31,6.39,6.39,0,0,1,5.33,2.41A7.5,7.5,0,0,1,393.42,601.3Zm-6.58-1.74a3.3,3.3,0,0,0-2.65,1.11,4.91,4.91,0,0,0-1.12,2.84h7c0-1.79-.56-3-1.7-3.61A3.39,3.39,0,0,0,386.84,599.56Z"/><line class="fb785961-ca78-4d72-acbc-79c34a775025" x1="226.5" y1="830.5" x2="226.5" y2="311"/><circle class="fa5fc85f-e5e8-4900-b2a3-b2a14682e787" cx="228.5" cy="444.5" r="36"/><path class="f58ead12-9a68-4fb3-ab2e-19f7ea49df52" d="M213.81,447.32a.43.43,0,0,1-.36-.17.45.45,0,0,1,.07-.64l9.18-7.35a.48.48,0,0,1,.29-.1h.76l3.55-2.66a.47.47,0,0,1,.65.09.45.45,0,0,1-.1.64l-3.67,2.76a.44.44,0,0,1-.27.09h-.76l-9.06,7.24A.42.42,0,0,1,213.81,447.32Z"/><path class="f58ead12-9a68-4fb3-ab2e-19f7ea49df52" d="M246.87,439.06a.46.46,0,0,1-.37-.18l-2.62-3.49h-.69a.47.47,0,0,1-.36-.18l-3.53-4.41h-2.43l-1.74.87-4.52,3.4a.45.45,0,0,1-.64-.1.46.46,0,0,1,.09-.64l4.59-3.44,1.91-1a.35.35,0,0,1,.2-.05h2.76a.46.46,0,0,1,.36.17l3.53,4.42h.7a.47.47,0,0,1,.37.18L247,438l2.4-1.6a.45.45,0,0,1,.63.13.46.46,0,0,1-.12.64L247.12,439A.49.49,0,0,1,246.87,439.06Z"/><path class="f58ead12-9a68-4fb3-ab2e-19f7ea49df52" d="M244.11,440.9a.47.47,0,0,1-.38-.21.46.46,0,0,1,.13-.64l2.75-1.83a.46.46,0,1,1,.51.76l-2.75,1.84A.5.5,0,0,1,244.11,440.9Z"/><path class="f58ead12-9a68-4fb3-ab2e-19f7ea49df52" d="M228.5,440h-4.59a.46.46,0,0,1,0-.92h4.59a.46.46,0,0,1,0,.92Z"/><path class="f58ead12-9a68-4fb3-ab2e-19f7ea49df52" d="M205.54,464.77a.46.46,0,0,1-.07-.91c3.27-.5,12.05-2.27,13.46-4.39.7-1.05.12-1.87-.89-3.13-.76-.95-1.54-1.92-1.38-3.11a.45.45,0,0,1,.51-.39.45.45,0,0,1,.4.51c-.11.8.52,1.58,1.19,2.41.91,1.14,2,2.56.94,4.22-1.9,2.84-12.85,4.6-14.09,4.79Z"/><path class="f58ead12-9a68-4fb3-ab2e-19f7ea49df52" d="M218.25,451.92a.45.45,0,0,1-.32-.14.46.46,0,0,1,0-.65c2.45-2.45,7.42-4.6,7.63-4.69a.46.46,0,1,1,.37.85c-.05,0-5,2.17-7.35,4.49A.47.47,0,0,1,218.25,451.92Z"/><path class="f58ead12-9a68-4fb3-ab2e-19f7ea49df52" d="M234,464.77a.45.45,0,0,1-.29-.1.45.45,0,0,1-.06-.65c3.18-3.82.18-6.63-2.46-9.1a14.83,14.83,0,0,1-2.16-2.29,5.56,5.56,0,0,1,0-6,.45.45,0,0,1,.63-.13.47.47,0,0,1,.13.64,4.67,4.67,0,0,0,0,5,14.71,14.71,0,0,0,2,2.13c2.65,2.48,6.28,5.87,2.54,10.36A.44.44,0,0,1,234,464.77Z"/><path class="f58ead12-9a68-4fb3-ab2e-19f7ea49df52" d="M213.81,447.32a.45.45,0,0,1-.38-.19L209,440.9h-.68a.47.47,0,0,1-.42-.26l-2.75-5.51a.46.46,0,0,1,.82-.41l2.63,5.26h.63a.47.47,0,0,1,.38.19l4.59,6.43a.45.45,0,0,1-.11.64A.42.42,0,0,1,213.81,447.32Z"/><path class="f58ead12-9a68-4fb3-ab2e-19f7ea49df52" d="M213.81,433.55a6.89,6.89,0,1,1,6.88-6.89A6.9,6.9,0,0,1,213.81,433.55Zm0-12.86a6,6,0,1,0,6,6A6,6,0,0,0,213.81,420.69Z"/><path class="f58ead12-9a68-4fb3-ab2e-19f7ea49df52" d="M237.68,427.12h-2.75a.45.45,0,0,1-.46-.46v-.92a2.3,2.3,0,0,0-4.59,0v.92a.46.46,0,0,1-.46.46.45.45,0,0,1-.46-.46v-.46a.92.92,0,0,0-1.84,0v.46a.45.45,0,0,1-.46.46h-2.75a.45.45,0,0,1-.46-.46.46.46,0,0,1,.46-.46h2.29a1.84,1.84,0,0,1,2.92-1.48,3.22,3.22,0,0,1,6.27,1v.46h2.29a.46.46,0,0,1,.46.46A.45.45,0,0,1,237.68,427.12Z"/><path class="f58ead12-9a68-4fb3-ab2e-19f7ea49df52" d="M243.19,427.12h-2.75a.45.45,0,0,1-.46-.46.46.46,0,0,1,.46-.46h2.75a.46.46,0,0,1,.46.46A.45.45,0,0,1,243.19,427.12Z"/><path class="f58ead12-9a68-4fb3-ab2e-19f7ea49df52" d="M235.85,435.39a.47.47,0,0,1-.33-.14L233,432.76a.49.49,0,0,1-.13-.36.44.44,0,0,1,.18-.33l1.57-1.18,1.91-1a.46.46,0,0,1,.21,0h2.75a.46.46,0,0,1,.36.17l1.79,2.24a.45.45,0,0,1,.1.34.4.4,0,0,1-.17.3l-1.79,1.44a.46.46,0,0,1-.61,0l-.66-.65-2.44,1.63A.49.49,0,0,1,235.85,435.39Zm-1.8-2.91,1.85,1.86,2.45-1.63a.44.44,0,0,1,.57.06l.63.62,1.12-.89-1.37-1.7h-2.43l-1.74.87Z"/><path class="f58ead12-9a68-4fb3-ab2e-19f7ea49df52" d="M211.05,451.92a.45.45,0,0,1-.32-.14l-.92-.92a.46.46,0,1,1,.65-.65l.59.6.6-.6a.46.46,0,0,1,.65,0,.48.48,0,0,1,0,.65l-.92.92A.47.47,0,0,1,211.05,451.92Z"/><path class="f58ead12-9a68-4fb3-ab2e-19f7ea49df52" d="M244.11,453.75a.44.44,0,0,1-.32-.13l-.92-.92a.46.46,0,1,1,.65-.65l.59.59.6-.59a.46.46,0,0,1,.65,0,.47.47,0,0,1,0,.65l-.92.92A.46.46,0,0,1,244.11,453.75Z"/><path class="f58ead12-9a68-4fb3-ab2e-19f7ea49df52" d="M227.58,458.34a.44.44,0,0,1-.32-.13l-.92-.92a.46.46,0,0,1,.65-.65l.59.6.6-.6a.45.45,0,0,1,.64,0,.46.46,0,0,1,0,.65l-.91.92A.46.46,0,0,1,227.58,458.34Z"/><path class="f58ead12-9a68-4fb3-ab2e-19f7ea49df52" d="M234,451a.43.43,0,0,1-.32-.14l-.92-.92a.46.46,0,0,1,0-.65.48.48,0,0,1,.65,0l.59.6.59-.6a.48.48,0,0,1,.65,0,.46.46,0,0,1,0,.65l-.91.92A.49.49,0,0,1,234,451Z"/><path class="f58ead12-9a68-4fb3-ab2e-19f7ea49df52" d="M249.62,447.32H221.15a.46.46,0,1,1,0-.91h28.47a.46.46,0,1,1,0,.91Z"/><path class="f58ead12-9a68-4fb3-ab2e-19f7ea49df52" d="M218.4,447.32H205.54a.46.46,0,1,1,0-.91H218.4a.46.46,0,1,1,0,.91Z"/><circle class="f2987226-f772-47f3-b4c1-2d4ab8798075" cx="226" cy="310" r="36"/><path class="e9c84953-254b-41b5-be38-fb9468e8b658" d="M226.27,290.31a15.25,15.25,0,0,1,15.26,15.25c0,8.16-10,18.85-15.26,25.5C221,324.41,211,313.72,211,305.56a15.25,15.25,0,0,1,15.25-15.25Zm0,6.84a8.41,8.41,0,1,1-8.41,8.41A8.41,8.41,0,0,1,226.27,297.15Z"/><circle class="fa5fc85f-e5e8-4900-b2a3-b2a14682e787" cx="226.73" cy="621.94" r="36"/><path class="f58ead12-9a68-4fb3-ab2e-19f7ea49df52" d="M234.46,600.92v41.16h-17V600.92ZM232.41,640V603H219.5V640Z"/><rect class="f58ead12-9a68-4fb3-ab2e-19f7ea49df52" x="218.48" y="634.54" width="9.5" height="2.04"/><rect class="f58ead12-9a68-4fb3-ab2e-19f7ea49df52" x="218.48" y="628.97" width="6.13" height="2.04"/><rect class="f58ead12-9a68-4fb3-ab2e-19f7ea49df52" x="218.48" y="623.39" width="9.5" height="2.04"/><rect class="f58ead12-9a68-4fb3-ab2e-19f7ea49df52" x="218.48" y="617.81" width="6.13" height="2.04"/><rect class="f58ead12-9a68-4fb3-ab2e-19f7ea49df52" x="218.48" y="612.23" width="9.5" height="2.04"/><rect class="f58ead12-9a68-4fb3-ab2e-19f7ea49df52" x="218.48" y="606.66" width="6.13" height="2.04"/><circle class="fa5fc85f-e5e8-4900-b2a3-b2a14682e787" cx="226.73" cy="831.94" r="36"/><polygon class="f296d0e4-590b-4031-85f3-d4ae1b065534" points="232.74 811.77 226.29 843.8 224.36 843.52 222.41 843.24 224.12 810.77 228.44 811.27 232.74 811.77"/><circle class="f296d0e4-590b-4031-85f3-d4ae1b065534" cx="223.56" cy="851.2" r="2.82"/><path class="f58ead12-9a68-4fb3-ab2e-19f7ea49df52" d="M1174,927c4.36,11.77,8,8,27,9,8.64,11.37-2.65,9,12.2,9.32s29.86-14.07,44.8-13.32c34.57,1.67,114-102,149.52-105.35,23.31-2.21,47.47-10.38,70.8-4.49,22.14,5.45,41.32,25.15,48.36,46.24,10.23,30.74,17.41,62.11,18.82,94.56,1.4,33.28-1.54,66.78,3.73,99.85,7,44.19,26.77,84.78,48.57,123.41,14.31,25.27,32,56.51,66.06,51.12,220.34-42.53,392-206.07,451.92-413.31,1.94-6.68,2.08-22-11.91-21.55-55.57-1.56-127.11,24.91-179.39,34-42.38,7.45-83.79,11.74-124-9.86-25-13.41-41.93-36.46-60.92-56.74-23.29-24.88-50.15-47-64.44-78.82-8.92-19.85-43.79-62.62-8.44-72.44,29.23-8.1,77.8-12.31,96.26-42.17,10.91-17.59,22.14-53.69,16.36-75.1-2.86-10.56-4.52-27.4-17.22-30.51-11-2.78-24.22,1.44-35.26,2.6-23.64,2.49-45,5.37-63.26,22.09-17.47,16-42.65,28.25-53.62,48.87-7,13.2-16.09,27.84-31.37,32.15-6.24,1.79-14.39,2.2-19.7-2.36s-4.07-10.4-5.31-16.52c-7.16-35,8.46-56.74,34.46-78.46,22.55-18.85,69.52-27.8,98.13-34.68,19.12-4.61,37.94-8.34,56.68-14,15.06-4.52,69-24.3,94.58-79.54,9-19.32,14.94-38.14,17.31-56.64,3.48-27.09,2.22-53.57,16.28-79.43,11.4-21,31.37-66,133.82-88.52,121.4-26.71,139.51-110.51,140.69-152.82.41-15.15-7.06-10.35-10.1-3.73-46.05,99.81-124.1,102.48-178.18,117.35-133.62,36.74-148.49,134.4-149.09,137.06-16.76,69.94,12.45,93.65-56.54,133.57-20,11.58-41.24,15.93-64.23,22.23-9.53,2.53-19.22,4.69-28.85,6.91,10.68-15.87,18.59-37.74,21.7-71.31,4.91-54.05-3.93-77.22-4.31-101-.1-13.41,79.63-5.64,133.2-92.53,17.34-27.94,17.88-68,14.68-94.13-1.88-15.59-9.27-10-10.68-2-7.94,45.84-22.23,88.32-55.07,112.71-40.84,30.26-103.17,29.35-107.36,29.93-44.78,6.08-29.19,63.31-28.37,70.15,17.39,147.59-69.74,168.06-81,173.47-12.72,6.09-27.77,9.18-41.46,13.31-22.8,6.77-58.81,10.78-72.07,33.05C1417,476.73,1410.58,500,1413,520.58c1.5,12.59,3.27,25.21,4.74,37.77C1310,616,1265,657,1230,698c-22,41-79,174-74,201C1156,910,1167,919,1174,927Z"/><rect class="a2fa264f-e83e-4d51-8cf9-fe396ef24bb7" width="1919" height="1080"/></svg>